#N canvas 1 24 1920 1035 12;
#X obj -99 -131 vsl 15 128 0 127 0 0 empty empty Pluck\ Level 0 -9
0 10 #fcfcfc #000000 #000000 0 1;
#X obj -29 -95 vsl 15 128 0.95 0.99 1 0 empty empty Sustain 0 -9 0
10 #fcfcfc #000000 #000000 0 1;
#X obj -129 -144 vsl 15 128 200 20000 1 0 empty empty Pluck\\\ Tone
0 -9 0 10 #fcfcfc #000000 #000000 0 1;
#X obj -9 -77 vsl 15 128 2000 20000 1 0 empty empty String\\\ Tone
0 -9 0 10 #fcfcfc #000000 #000000 0 1;
#X obj -49 -107 vsl 15 128 0.01 1 1 0 empty empty vibrato\\\ depth
0 -9 0 10 #fcfcfc #000000 #000000 0 1;
#X obj -69 -117 vsl 15 128 0 20 0 0 empty empty Vibrato\\\ Rate 0 -9
0 10 #fcfcfc #000000 #000000 0 1;
#X obj 317 379 kp_sjf~ \$0;
#X obj -182 43 s \$0-pluckTone;
#X obj -125 71 s \$0-vibRate;
#X obj -107 96 s \$0-vibDepth;
#X obj -23 72 s \$0-sus;
#X obj 50 58 s \$0-stringTone;
#X obj 518 550 dac~;
#X obj 317 402 throw~ \$0-kpOut;
#X obj 519 515 catch~ \$0-kpOut;
#X obj 433 379 kp_sjf~ \$0;
#X obj 433 402 throw~ \$0-kpOut;
#X obj 545 378 kp_sjf~ \$0;
#X obj 545 401 throw~ \$0-kpOut;
#X obj 661 378 kp_sjf~ \$0;
#X obj 661 401 throw~ \$0-kpOut;
#X obj 773 376 kp_sjf~ \$0;
#X obj 773 399 throw~ \$0-kpOut;
#X obj 889 376 kp_sjf~ \$0;
#X obj 889 399 throw~ \$0-kpOut;
#N canvas 0 22 450 278 (subpatch) 0;
#X array pitch 8 float 3;
#A 0 43.7571 47.1 44.0571 41.7 47.1 47.0143 44.3143 46.4143;
#X coords 0 48 8 36 200 140 1 0 0;
#X restore 752 -138 graph;
#N canvas 0 22 450 278 (subpatch) 0;
#X array vel 8 float 3;
#A 0 53.5781 69.4531 77.3906 77.3906 29.7656 41.6719 57.5469 49.6094
;
#X coords 0 127 8 0 202 32 1 0 0;
#X restore 750 19 graph;
#X obj 482 -148 tgl 15 0 empty empty empty 17 7 0 10 #fcfcfc #000000
#000000 0 1;
#X obj 482 -128 metro 250;
#X obj 482 -104 +;
#X obj 524 -103 + 1;
#X obj 482 -80 % 8;
#X floatatom 482 -56 5 0 0 0 - - - 0;
#X obj 545 -28 t f f;
#X obj 545 10 tabread pitch;
#X floatatom 545 33 5 0 0 0 - - - 0;
#X floatatom 661 34 5 0 0 0 - - - 0;
#X obj 661 11 tabread vel;
#X obj 482 -33 t b f;
#X obj 250 191 +;
#X obj 292 192 + 1;
#X obj 250 215 % 6;
#X obj 545 55 int;
#X floatatom 545 78 5 0 0 0 - - - 0;
#X obj 418 285 pack 0 0 0, f 26;
#X obj 518 312 route 0 1 2 3 4 5;
#N canvas 0 22 450 278 (subpatch) 0;
#X array pitch2 8 float 3;
#A 0 38.8286 41.7857 38.8286 36.0857 38.8286 40.5429 42.5143 38.5286
;
#X coords 0 48 8 36 200 140 1 0 0;
#X restore 972 -131 graph;
#N canvas 0 22 450 278 (subpatch) 0;
#X array vel2 8 float 3;
#A 0 35.7188 17.8594 91.2812 81.3594 101.203 87.3125 97.2344 51.5938
;
#X coords 0 127 8 0 202 32 1 0 0;
#X restore 970 26 graph;
#X obj 401 124 t f f;
#X floatatom 401 185 5 0 0 0 - - - 0;
#X floatatom 517 186 5 0 0 0 - - - 0;
#X obj 401 207 int;
#X floatatom 401 230 5 0 0 0 - - - 0;
#X obj 318 19 t b f;
#X obj 401 162 tabread pitch2;
#X obj 517 163 tabread vel2;
#X text 103 190 Send to a new voice;
#X obj 401 252 + 12;
#X obj 838 109 clip 0 127;
#X obj 637 216 clip 1 127;
#X obj 507 245 clip 1 127;
#X floatatom 637 239 5 0 0 0 - - - 0;
#X obj 418 308 print;
#X connect 1 0 10 0;
#X connect 2 0 7 0;
#X connect 3 0 11 0;
#X connect 4 0 9 0;
#X connect 5 0 8 0;
#X connect 6 0 13 0;
#X connect 14 0 12 0;
#X connect 14 0 12 1;
#X connect 15 0 16 0;
#X connect 17 0 18 0;
#X connect 19 0 20 0;
#X connect 21 0 22 0;
#X connect 23 0 24 0;
#X connect 27 0 28 0;
#X connect 28 0 29 0;
#X connect 29 0 30 0;
#X connect 29 0 31 0;
#X connect 30 0 29 1;
#X connect 31 0 32 0;
#X connect 32 0 38 0;
#X connect 32 0 53 0;
#X connect 33 0 34 0;
#X connect 33 1 37 0;
#X connect 34 0 35 0;
#X connect 35 0 42 0;
#X connect 36 0 59 0;
#X connect 37 0 36 0;
#X connect 38 0 39 0;
#X connect 38 1 33 0;
#X connect 39 0 40 0;
#X connect 39 0 41 0;
#X connect 40 0 39 1;
#X connect 41 0 44 0;
#X connect 42 0 43 0;
#X connect 43 0 60 0;
#X connect 44 0 45 0;
#X connect 44 0 62 0;
#X connect 45 0 6 0;
#X connect 45 1 15 0;
#X connect 45 2 17 0;
#X connect 45 3 19 0;
#X connect 45 4 21 0;
#X connect 45 5 23 0;
#X connect 48 0 54 0;
#X connect 48 1 55 0;
#X connect 49 0 51 0;
#X connect 50 0 59 0;
#X connect 51 0 52 0;
#X connect 52 0 57 0;
#X connect 53 0 39 0;
#X connect 53 1 48 0;
#X connect 54 0 49 0;
#X connect 55 0 50 0;
#X connect 57 0 60 0;
#X connect 59 0 44 2;
#X connect 59 0 61 0;
#X connect 60 0 44 1;
