#N canvas 0 -1169 1080 882 12;
#X obj 282 20 inlet~;
#X obj 217 124 rfft~;
#X obj 181 627 rifft~;
#X obj 218 823 outlet~;
#X obj 217 85 *~;
#X obj 218 733 *~, f 14;
#X obj 87 139 r freeze;
#X obj 162 203 *~ 1;
#X obj 210 205 *~ 1;
#X obj 300 296 *~;
#X obj 445 297 *~;
#X obj 87 163 == 0;
#X obj 372 272 r freeze;
#X obj 414 64 r freeze;
#X obj 414 88 sel 1;
#X obj 496 120 r freezer;
#X obj 414 139 bng 19 250 50 0 empty empty empty 0 -10 0 12 #fcfcfc #000000 #000000;
#X obj 85 206 tgl 19 0 empty empty empty 0 -10 0 12 #fcfcfc #000000 #000000 0 1;
#X obj 372 296 tgl 19 0 empty empty empty 0 -10 0 12 #fcfcfc #000000 #000000 0 1;
#X obj 858 83 loadbang;
#X obj 728 183 * 3;
#X floatatom 728 231 5 0 0 0 - - - 0;
#X obj 728 207 / 2;
#X obj 728 254 expr 1/$f1;
#X floatatom 728 278 11 0 0 0 - - - 0;
#X obj 218 702 *~;
#X obj 693 47 block~ \$1 4;
#X obj 600 68 \$1;
#X obj 600 38 bng 19 250 50 0 empty empty empty 0 -10 0 12 #fcfcfc #000000 #000000;
#X floatatom 600 92 5 0 0 0 - - - 0;
#X obj 728 159 \$1;
#X obj 436 770 array define \$0-freezeR \$1;
#X obj 435 804 array define \$0-freezeI \$1;
#X obj 276 182 tabwrite~ \$0-freezeR;
#X obj 421 180 tabwrite~ \$0-freezeI;
#X obj 303 247 tabreceive~ \$0-freezeR;
#X obj 479 248 tabreceive~ \$0-freezeI;
#X obj 320 686 tabreceive~ \$0-hann;
#X obj 271 68 tabreceive~ \$0-hann;
#N canvas 0 25 433 425 hannWin 0;
#X obj 37 37 inlet;
#X msg 35 135 1024;
#X obj 35 159 until;
#X obj 35 183 +;
#X obj 83 182 + 1;
#X obj 38 66 bng 19 250 50 0 empty empty empty 0 -10 0 12 #fcfcfc #000000 #000000;
#X obj 38 90 t b b;
#X msg 77 142 0;
#X obj 35 269 / 1024;
#X obj 35 293 expr 0.5-(0.5*cos(2*3.14159 * $f1));
#X obj 35 317 tabwrite \$0-hann;
#X obj 147 149 array define \$0-hann \$1;
#X obj 35 207 t f f;
#X connect 0 0 5 0;
#X connect 1 0 2 0;
#X connect 2 0 3 0;
#X connect 3 0 4 0;
#X connect 3 0 12 0;
#X connect 4 0 3 1;
#X connect 5 0 6 0;
#X connect 6 0 1 0;
#X connect 6 1 7 0;
#X connect 7 0 3 1;
#X connect 8 0 9 0;
#X connect 9 0 10 0;
#X connect 12 0 8 0;
#X connect 12 1 10 1;
#X restore 858 107 pd hannWin;
#X obj 494 364 tabreceive~ bins;
#X obj 179 437 *~;
#X obj 230 435 *~;
#X obj 291 464 delwrite~ dlR 10000;
#X obj 446 462 delwrite~ dlI 10000;
#X obj 271 581 vd~ dlI 10000;
#X obj 116 583 vd~ dlR 10000;
#X obj 132 513 /~ 44.1;
#X obj 133 484 r shift;
#X connect 0 0 4 0;
#X connect 1 0 7 0;
#X connect 1 0 33 0;
#X connect 1 1 8 0;
#X connect 1 1 34 0;
#X connect 2 0 25 0;
#X connect 4 0 1 0;
#X connect 5 0 3 0;
#X connect 6 0 11 0;
#X connect 7 0 41 0;
#X connect 8 0 42 0;
#X connect 9 0 41 0;
#X connect 10 0 42 0;
#X connect 11 0 7 1;
#X connect 11 0 8 1;
#X connect 11 0 17 0;
#X connect 12 0 9 1;
#X connect 12 0 10 1;
#X connect 12 0 18 0;
#X connect 13 0 14 0;
#X connect 14 0 16 0;
#X connect 15 0 16 0;
#X connect 16 0 33 0;
#X connect 16 0 34 0;
#X connect 19 0 30 0;
#X connect 19 0 39 0;
#X connect 20 0 22 0;
#X connect 21 0 23 0;
#X connect 22 0 21 0;
#X connect 23 0 24 0;
#X connect 24 0 25 1;
#X connect 25 0 5 0;
#X connect 27 0 29 0;
#X connect 28 0 27 0;
#X connect 30 0 20 0;
#X connect 35 0 9 0;
#X connect 36 0 10 0;
#X connect 37 0 5 1;
#X connect 38 0 4 1;
#X connect 40 0 41 1;
#X connect 40 0 42 1;
#X connect 41 0 43 0;
#X connect 42 0 44 0;
#X connect 45 0 2 1;
#X connect 46 0 2 0;
#X connect 47 0 46 0;
#X connect 47 0 45 0;
#X connect 48 0 47 0;
