#N canvas 1567 297 1097 516 10;
#X obj 0 0 vradio 10 1 0 13 \$0-step_snd \$0-step_rec empty 0 -8 0
10 -128992 -258113 -1 12;
#X obj 0 147 vsl 10 20 0 127 0 0 \$0-vel_snd \$0-vel_rec empty 0 -9
0 10 -128992 -258113 -1 1496 1;
#X obj 0 133 tgl 10 0 \$0-tie_snd \$0-tie_rec empty 17 7 0 10 -128992
-262144 -262144 0 1;
#X obj 667 118 r \$0-tie_snd;
#X obj 667 139 sel 0 1, f 56;
#X obj 667 160 f \$0;
#X obj 834 160 f \$0;
#X msg 834 181 \; \$1-tie_rec color 13 13 13;
#X obj 881 376 loadbang;
#X obj 881 418 tabwrite \$1-voices;
#X obj 881 397 pack \$0 \$2;
#X msg 667 181 \; \$1-tie_rec color 11 0 0;
#X obj 309 27 loadbang;
#X obj 217 77 s \$0-step_rec;
#X obj 307 77 s \$0-vel_snd;
#X obj 398 77 s \$0-tie_snd;
#N canvas 0 23 649 383 recallValues 0;
#X obj 58 42 * 96;
#X obj 200 27 loadbang;
#X obj 200 48 f \$2;
#X obj 200 69 * 3;
#X obj 57 121 +, f 13;
#X obj 57 142 t f f f, f 72;
#X obj 57 163 + 0;
#X obj 57 184 tabread \$1-steps;
#X obj 57 275 s \$0-step_rec;
#X obj 254 193 tabread \$1-steps;
#X obj 254 172 + 1;
#X obj 254 239 s \$0-vel_rec;
#X obj 442 195 tabread \$1-steps;
#X obj 442 174 + 2;
#X obj 442 256 s \$0-tie_rec;
#X obj 57 216 * -1;
#X obj 57 237 + 12;
#X obj 58 63 t f f;
#X msg 442 216 set \$1;
#X msg 254 214 set \$1;
#X msg 57 257 set \$1;
#X obj 58 21 inlet;
#X obj 512 222 s \$0-tie_snd;
#X connect 0 0 17 0;
#X connect 1 0 2 0;
#X connect 2 0 3 0;
#X connect 3 0 4 1;
#X connect 4 0 5 0;
#X connect 5 0 6 0;
#X connect 5 1 10 0;
#X connect 5 2 13 0;
#X connect 6 0 7 0;
#X connect 7 0 15 0;
#X connect 9 0 19 0;
#X connect 10 0 9 0;
#X connect 12 0 22 0;
#X connect 12 0 18 0;
#X connect 13 0 12 0;
#X connect 15 0 16 0;
#X connect 16 0 20 0;
#X connect 17 1 4 0;
#X connect 18 0 14 0;
#X connect 19 0 11 0;
#X connect 20 0 8 0;
#X connect 21 0 0 0;
#X restore 689 70 pd recallValues;
#N canvas 0 23 1431 792 writeValues 0;
#X obj 66 467 tabwrite \$1-steps;
#X obj 133 240 loadbang;
#X obj 133 261 f \$2;
#X obj 133 282 * 3;
#X text 163 281 <--- 3 values per step \; 1 - pitch \; 2 - velocity
\; 3 - tie;
#X obj 55 216 r \$0-step_snd;
#X obj 69 415 pack;
#X obj 406 372 + 1;
#X obj 379 481 pack;
#X obj 327 431 r \$0-vel_snd;
#X obj 379 507 tabwrite \$1-steps;
#X obj 409 248 loadbang;
#X obj 409 269 f \$2;
#X obj 409 290 * 3;
#X text 439 289 <--- 3 values per step \; 1 - pitch \; 2 - velocity
\; 3 - tie;
#X obj 656 493 pack;
#X obj 656 519 tabwrite \$1-steps;
#X obj 686 250 loadbang;
#X obj 686 271 f \$2;
#X obj 686 292 * 3;
#X text 716 291 <--- 3 values per step \; 1 - pitch \; 2 - velocity
\; 3 - tie;
#X obj 604 433 r \$0-tie_snd;
#X obj 683 344 + 2;
#X obj 18 249 * -1;
#X obj 18 270 + 12;
#X obj 471 64 * 96;
#X obj 133 423 +;
#X obj 406 453 +, f 9;
#X obj 683 455 +;
#X obj 471 43 inlet;
#X obj 157 381 t b f;
#X obj 474 411 t b f;
#X obj 696 421 t b f;
#X connect 1 0 2 0;
#X connect 2 0 3 0;
#X connect 3 0 26 0;
#X connect 5 0 23 0;
#X connect 6 0 0 0;
#X connect 7 0 27 0;
#X connect 8 0 10 0;
#X connect 9 0 8 0;
#X connect 11 0 12 0;
#X connect 12 0 13 0;
#X connect 13 0 7 0;
#X connect 15 0 16 0;
#X connect 17 0 18 0;
#X connect 18 0 19 0;
#X connect 19 0 22 0;
#X connect 21 0 15 0;
#X connect 22 0 28 0;
#X connect 23 0 24 0;
#X connect 24 0 6 0;
#X connect 25 0 32 0;
#X connect 25 0 31 0;
#X connect 25 0 30 0;
#X connect 26 0 6 1;
#X connect 27 0 8 1;
#X connect 28 0 15 1;
#X connect 29 0 25 0;
#X connect 30 0 26 0;
#X connect 30 1 26 1;
#X connect 31 0 27 0;
#X connect 31 1 27 1;
#X connect 32 0 28 0;
#X connect 32 1 28 1;
#X restore 809 70 pd writeValues;
#X obj 741 17 r \$1-patBank;
#X obj 741 38 t f f;
#X connect 3 0 4 0;
#X connect 4 0 5 0;
#X connect 4 1 6 0;
#X connect 5 0 11 0;
#X connect 6 0 7 0;
#X connect 8 0 10 0;
#X connect 10 0 9 0;
#X connect 18 0 19 0;
#X connect 19 0 16 0;
#X connect 19 1 17 0;
#X coords 0 -1 1 1 10 170 2 0 0;
