#N canvas 0 83 1196 755 12;
#X obj 588 188 vsl 15 128 0 127 0 0 empty empty empty 0 -9 0 10 #fcfcfc
#000000 #000000 0 1;
#X obj 588 324 / 127;
#X msg 588 348 \$1 5;
#X obj 588 372 line~;
#X obj 283 402 *~;
#X obj 173 483 dac~;
#X obj 66 30 bng 15 250 50 0 empty empty empty 17 7 0 10 #fcfcfc #000000
#000000;
#X obj 66 74 vline~;
#X obj 66 98 *~, f 10;
#X obj 132 76 noise~;
#X obj 272 7 +~;
#X obj 686 55 vsl 15 128 0 127 0 0 empty empty empty 0 -9 0 10 #fcfcfc
#000000 #000000 0 1;
#X obj 686 191 / 127;
#X obj 686 215 * 20;
#X obj 684 242 s modRate;
#X obj 764 247 s modDepth;
#X obj 770 52 vsl 15 128 0 127 0 0 empty empty empty 0 -9 0 10 #fcfcfc
#000000 #000000 0 1;
#X obj 770 188 / 127;
#X obj 770 212 * 10;
#X obj 217 106 vsl 15 128 0 127 0 0 empty empty empty 0 -9 0 10 #fcfcfc
#000000 #000000 0 1;
#X obj 217 242 / 127;
#X msg 217 266 \$1 5;
#X obj 217 290 line~;
#X obj 167 350 *~;
#N canvas 0 22 450 278 (subpatch) 0;
#X array \$0-er-0_levels 8 float 3;
#A 0 1.39214 1.41175 1.31371 1.2745 1.23528 1.23528 1.2745 1.23528
;
#X coords 0 1 8 0 198 51 1 0 0;
#X restore 491 456 graph;
#X obj 267 69 diffusion8 20 \$0 0, f 23;
#X obj 266 103 diffusion8 40 \$0 1, f 23;
#X obj 266 133 diffusion8 80 \$0 2, f 23;
#X obj 266 163 diffusion8 160 \$0 3, f 23;
#N canvas 0 22 450 278 (subpatch) 0;
#X array \$0-er-1_levels 8 float 3;
#A 0 1.37257 1.37257 1.33335 1.29414 1.25492 1.19609 1.17648 1.15688
;
#X coords 0 1 8 0 198 51 1 0 0;
#X restore 491 525 graph;
#N canvas 0 22 450 278 (subpatch) 0;
#X array \$0-er-2_levels 8 float 3;
#A 0 1.37257 1.35296 1.25492 1.2157 1.2157 1.2157 1.15687 1.11766;
#X coords 0 1 8 0 198 51 1 0 0;
#X restore 489 595 graph;
#N canvas 0 22 450 278 (subpatch) 0;
#X array \$0-er-3_levels 8 float 3;
#A 0 1.21568 1.31372 1.25489 1.17646 1.17646 1.13725 1.11764 1.09803
;
#X coords 0 1 8 0 198 51 1 0 0;
#X restore 489 664 graph;
#N canvas 0 22 450 278 (subpatch) 0;
#X array \$0-er-0_time 8 float 3;
#A 0 0.725624 1.19614 2.32426 2.56803 3.58276 4.37075 5.02267 6.55895
;
#X coords 0 6.66666 8 0 189 53 1 0 0;
#X restore 279 454 graph;
#N canvas 0 22 450 278 (subpatch) 0;
#X array \$0-er-1_time 8 float 3;
#A 0 0.521542 2.55102 4.7619 6.38322 7.34693 9.14966 10.4762 13.2766
;
#X coords 0 13.3333 8 0 189 53 1 0 0;
#X restore 278 527 graph;
#N canvas 0 22 450 278 (subpatch) 0;
#X array \$0-er-2_time 8 float 3;
#A 0 3.06122 4.42177 8.77551 10.4989 15.7823 18.0726 21.4512 24.6712
;
#X coords 0 26.6667 8 0 189 53 1 0 0;
#X restore 277 596 graph;
#N canvas 0 22 450 278 (subpatch) 0;
#X array \$0-er-3_time 8 float 3;
#A 0 1.13379 11.7914 19.6145 21.6553 29.4104 39.5238 44.7392 48.2539
;
#X coords 0 53.3333 8 0 189 53 1 0 0;
#X restore 279 670 graph;
#X obj 534 18 vsl 15 128 0 127 0 0 empty empty empty 0 -9 0 10 #fcfcfc
#000000 #000000 0 1;
#X obj 534 154 / 127;
#X msg 534 178 \$1 5;
#X obj 534 202 line~;
#X obj 498 241 *~;
#X obj 719 330 bng 15 250 50 0 empty empty empty 17 7 0 10 #fcfcfc
#000000 #000000;
#X obj 721 357 s \$0-rand;
#X floatatom 746 449 5 0 0 0 - - - 0;
#X obj 851 470 * 0.5;
#X obj 746 472 * 0.533333;
#X obj 952 469 * 0.5;
#X obj 1053 469 * 0.5;
#X floatatom 746 496 5 0 0 0 - - - 0;
#X floatatom 851 494 5 0 0 0 - - - 0;
#X floatatom 952 493 5 0 0 0 - - - 0;
#X floatatom 1053 493 5 0 0 0 - - - 0;
#X obj 746 517 s \$0-erLen-3;
#X obj 847 519 s \$0-erLen-2;
#X obj 952 519 s \$0-erLen-1;
#X obj 1053 519 s \$0-erLen-0;
#X obj 744 392 loadbang;
#X msg 744 416 100;
#X floatatom 702 562 5 0 0 0 - - - 0;
#X obj 702 538 * 0.9;
#X obj 702 585 t b f;
#X obj 702 651 pack;
#X obj 702 674 s \$0-lrDelTs;
#X obj 903 558 vsl 15 128 0 500 0 0 empty empty empty 0 -9 0 10 #fcfcfc
#000000 #000000 0 1;
#X obj 782 624 max;
#X floatatom 782 648 5 0 0 0 - - - 0;
#X obj 266 220 delayStage8 500 50 \$0, f 23;
#X floatatom 835 573 5 0 0 0 - - - 0;
#X obj 787 586 * 1.5;
#X msg 893 323 0.85;
#X obj 893 383 s \$0-lrFB;
#X obj 897 349 hsl 128 15 0 1 0 0 empty empty empty -2 -8 0 10 #fcfcfc
#000000 #000000 0 1;
#N canvas 0 22 450 278 (subpatch) 0;
#X array \$0-lr_levels 8 float 3;
#A 0 0.1886 0.9662 0.2499 0.6623 0.1228 0.6257 0.2799 0.2672;
#X coords 0 1 8 0 198 51 1 0 0;
#X restore 45 620 graph;
#N canvas 0 23 450 278 (subpatch) 0;
#X array \$0-lr_time 8 float 3;
#A 0 50.4535 54.7687 58.0635 61.517 63.5646 66.1565 70.8118 73.1995
;
#X coords 0 500 8 0 189 53 1 0 0;
#X restore 45 547 graph;
#N canvas 0 23 450 300 rand_lrTimes 1;
#X obj 108 17 r \$0-rand;
#X obj 108 41 t b b, f 11;
#X msg 108 65 8;
#X obj 108 89 until;
#X obj 108 123 +;
#X obj 145 123 + 1;
#X msg 182 74 0;
#X obj 108 147 t b f, f 20;
#X obj 108 171 random 10000;
#X obj 108 195 / 10000;
#X obj 108 219 tabwrite \$0-lr_levels;
#X connect 0 0 1 0;
#X connect 1 0 2 0;
#X connect 1 1 6 0;
#X connect 2 0 3 0;
#X connect 3 0 4 0;
#X connect 4 0 5 0;
#X connect 4 0 7 0;
#X connect 5 0 4 1;
#X connect 6 0 4 1;
#X connect 7 0 8 0;
#X connect 7 1 10 1;
#X connect 8 0 9 0;
#X connect 9 0 10 0;
#X restore 27 490 pd rand_lrTimes;
#N canvas 919 40 450 300 er_modulation 1;
#N canvas 0 22 450 278 (subpatch) 0;
#X array \$0-er-0_modD 8 float 3;
#A 0 0.0869566 0.0652174 0.173913 0.173913 0.173913 0.130435 0.0869566
0.108696;
#X coords 0 1 8 0 159 46 1 0 0;
#X restore 253 20 graph;
#N canvas 0 22 450 278 (subpatch) 0;
#X array \$0-er-1_modD 8 float 3;
#A 0 0.108696 0.23913 0.23913 0.260869 0.195652 0.152174 0.0869568
0.0652178;
#X coords 0 1 8 0 159 46 1 0 0;
#X restore 252 92 graph;
#N canvas 0 22 450 278 (subpatch) 0;
#X array \$0-er-2_modD 8 float 3;
#A 0 0.130431 0.0869516 0.0434726 0.0652121 0.0652121 0.0869516 0.195649
0.17391;
#X coords 0 1 8 0 159 46 1 0 0;
#X restore 253 166 graph;
#N canvas 0 22 450 278 (subpatch) 0;
#X array \$0-er-3_modD 8 float 3;
#A 0 0.108697 0.239131 0.326087 0.413043 0.434782 0.304348 0.152175
0.108697;
#X coords 0 1 8 0 159 46 1 0 0;
#X restore 254 238 graph;
#N canvas 0 22 450 278 (subpatch) 0;
#X array \$0-er-0_modR 8 float 3;
#A 0 3.91304 5.21739 5.21739 5.21739 5.65217 5.21739 3.47826 3.04348
;
#X coords 0 20 8 0 159 46 1 0 0;
#X restore 78 20 graph;
#N canvas 0 22 450 278 (subpatch) 0;
#X array \$0-er-1_modR 8 float 3;
#A 0 2.17391 2.17391 4.34783 4.34783 4.34783 3.47826 2.17391 1.73912
;
#X coords 0 20 8 0 159 46 1 0 0;
#X restore 77 92 graph;
#N canvas 0 22 450 278 (subpatch) 0;
#X array \$0-er-2_modR 8 float 3;
#A 0 2.17392 3.47827 3.04348 3.04348 4.78262 3.47827 1.73913 2.17392
;
#X coords 0 20 8 0 159 46 1 0 0;
#X restore 78 166 graph;
#N canvas 0 22 450 278 (subpatch) 0;
#X array \$0-er-3_modR 8 float 3;
#A 0 2.6087 2.17391 2.17391 3.04348 3.04348 2.6087 0.86956 1.30434
;
#X coords 0 20 8 0 159 46 1 0 0;
#X restore 80 237 graph;
#X restore 928 51 pd er_modulation;
#X obj 960 611 clone er_interface 8;
#X msg -6 161 bang;
#X msg 96 208 start;
#X msg 103 236 stop;
#X obj -6 202 del 1000;
#X obj 88 329 writesf~, f 15;
#X obj 2 22 bng 15 250 50 0 empty empty empty 17 7 0 10 #fcfcfc #000000
#000000;
#X obj 2 42 t b b b;
#X msg 56 129 open foo.wav;
#X msg 67 49 1 1 \, 0 1 1;
#X connect 0 0 1 0;
#X connect 1 0 2 0;
#X connect 2 0 3 0;
#X connect 3 0 4 1;
#X connect 4 0 5 0;
#X connect 4 0 5 1;
#X connect 6 0 85 0;
#X connect 7 0 8 0;
#X connect 8 0 10 0;
#X connect 8 0 23 0;
#X connect 8 0 81 0;
#X connect 9 0 8 1;
#X connect 10 0 25 0;
#X connect 10 0 25 1;
#X connect 10 0 25 2;
#X connect 10 0 25 3;
#X connect 10 0 25 4;
#X connect 10 0 25 5;
#X connect 10 0 25 6;
#X connect 10 0 25 7;
#X connect 11 0 12 0;
#X connect 12 0 13 0;
#X connect 13 0 14 0;
#X connect 16 0 17 0;
#X connect 17 0 18 0;
#X connect 18 0 15 0;
#X connect 19 0 20 0;
#X connect 20 0 21 0;
#X connect 21 0 22 0;
#X connect 22 0 23 1;
#X connect 23 0 5 0;
#X connect 23 0 5 1;
#X connect 25 0 26 0;
#X connect 25 1 26 1;
#X connect 25 2 26 2;
#X connect 25 3 26 3;
#X connect 25 4 26 4;
#X connect 25 5 26 5;
#X connect 25 6 26 6;
#X connect 25 7 26 7;
#X connect 25 8 40 0;
#X connect 26 0 27 0;
#X connect 26 1 27 1;
#X connect 26 2 27 2;
#X connect 26 3 27 3;
#X connect 26 4 27 4;
#X connect 26 5 27 5;
#X connect 26 6 27 6;
#X connect 26 7 27 7;
#X connect 26 8 40 0;
#X connect 27 0 28 0;
#X connect 27 1 28 1;
#X connect 27 2 28 2;
#X connect 27 3 28 3;
#X connect 27 4 28 4;
#X connect 27 5 28 5;
#X connect 27 6 28 6;
#X connect 27 7 28 7;
#X connect 27 8 40 0;
#X connect 28 0 66 0;
#X connect 28 1 66 1;
#X connect 28 2 66 2;
#X connect 28 3 66 3;
#X connect 28 4 66 4;
#X connect 28 5 66 5;
#X connect 28 6 66 6;
#X connect 28 7 66 7;
#X connect 28 8 40 0;
#X connect 36 0 37 0;
#X connect 37 0 38 0;
#X connect 38 0 39 0;
#X connect 39 0 40 1;
#X connect 40 0 4 0;
#X connect 41 0 42 0;
#X connect 43 0 45 0;
#X connect 44 0 46 0;
#X connect 44 0 49 0;
#X connect 45 0 44 0;
#X connect 45 0 48 0;
#X connect 46 0 47 0;
#X connect 46 0 50 0;
#X connect 47 0 51 0;
#X connect 48 0 52 0;
#X connect 48 0 59 0;
#X connect 49 0 53 0;
#X connect 50 0 54 0;
#X connect 51 0 55 0;
#X connect 56 0 57 0;
#X connect 56 0 69 0;
#X connect 57 0 43 0;
#X connect 58 0 60 0;
#X connect 59 0 58 0;
#X connect 60 0 61 0;
#X connect 60 0 64 0;
#X connect 60 1 61 1;
#X connect 60 1 68 0;
#X connect 61 0 62 0;
#X connect 63 0 64 0;
#X connect 64 0 61 0;
#X connect 64 0 65 0;
#X connect 66 0 4 0;
#X connect 67 0 64 0;
#X connect 68 0 64 1;
#X connect 69 0 71 0;
#X connect 71 0 70 0;
#X connect 77 0 78 0;
#X connect 77 0 80 0;
#X connect 78 0 81 0;
#X connect 79 0 81 0;
#X connect 80 0 79 0;
#X connect 82 0 83 0;
#X connect 83 0 6 0;
#X connect 83 1 77 0;
#X connect 83 2 84 0;
#X connect 84 0 81 0;
#X connect 85 0 7 0;
