#N canvas 387 218 823 660 12;
#X obj 116 8 inlet~;
#X obj 155 477 outlet~;
#X obj 155 435 vd~ \$0-delLine;
#X obj 414 43 loadbang;
#X obj 414 75 samplerate~;
#X obj 414 99 t b b f, f 15;
#X obj 516 140 * 0.001;
#X obj 466 130 \$1;
#X obj 466 154 - \$2;
#X obj 466 178 * 44.1, f 7;
#X obj 466 202 / \$3;
#X obj 466 226 t f f, f 8;
#X obj 374 159 random;
#X obj 496 269 * \$4;
#X obj 374 183 +;
#X obj 374 207 /;
#X floatatom 374 231 5 0 0 0 - - - 0;
#X obj 116 32 delwrite~ \$0-delLine \$1;
#X obj 155 363 sig~;
#X obj 64 377 *~;
#X obj 64 329 osc~;
#X obj 64 352 *~, f 8;
#X obj 50 64 r modRate;
#X obj 50 88 * 10000;
#X obj 50 112 t b f, f 10;
#X obj 50 136 random;
#X obj 50 160 / 10000;
#X obj 136 173 * 10000;
#X obj 136 197 t b f, f 10;
#X obj 136 221 random;
#X obj 136 245 / 10000;
#X obj 136 149 r modDepth;
#X floatatom 61 197 5 0 0 0 - - - 0;
#X floatatom 146 277 5 0 0 0 - - - 0;
#X text 587 21 \$1 - delMax \; \$2 - delMin \; \$3 - nVoices \; \$4
- voice# \; \$5 - parent ID;
#X obj 361 41 bng 15 250 50 0 empty empty empty 17 7 0 10 #fcfcfc #000000
#000000;
#X obj 361 13 r \$5-randomDel;
#X connect 0 0 17 0;
#X connect 2 0 1 0;
#X connect 3 0 4 0;
#X connect 4 0 5 0;
#X connect 5 0 12 0;
#X connect 5 1 7 0;
#X connect 5 2 6 0;
#X connect 6 0 9 1;
#X connect 6 0 15 1;
#X connect 7 0 8 0;
#X connect 8 0 9 0;
#X connect 9 0 10 0;
#X connect 10 0 11 0;
#X connect 11 0 12 1;
#X connect 11 1 13 0;
#X connect 12 0 14 0;
#X connect 13 0 14 1;
#X connect 14 0 15 0;
#X connect 15 0 16 0;
#X connect 15 0 18 0;
#X connect 18 0 2 0;
#X connect 18 0 19 1;
#X connect 19 0 2 0;
#X connect 20 0 21 0;
#X connect 21 0 19 0;
#X connect 22 0 23 0;
#X connect 23 0 24 0;
#X connect 24 0 25 0;
#X connect 24 1 25 1;
#X connect 25 0 26 0;
#X connect 26 0 20 0;
#X connect 26 0 32 0;
#X connect 27 0 28 0;
#X connect 28 0 29 0;
#X connect 28 1 29 1;
#X connect 29 0 30 0;
#X connect 30 0 21 1;
#X connect 30 0 33 0;
#X connect 31 0 27 0;
#X connect 35 0 4 0;
#X connect 36 0 35 0;
