#N canvas 233 23 1221 755 12;
#X obj 69 18 inlet~;
#X obj 181 18 inlet~;
#X obj 306 18 inlet~;
#X obj 387 18 inlet~;
#X obj 137 349 outlet~;
#X obj 198 349 outlet~;
#X obj 262 349 outlet~;
#X obj 323 349 outlet~;
#X obj 392 349 outlet~;
#X obj 453 349 outlet~;
#X obj 517 349 outlet~;
#X obj 578 349 outlet~;
#X obj 523 18 inlet~;
#X obj 597 18 inlet~;
#X obj 662 18 inlet~;
#X obj 729 18 inlet~;
#X obj 136 227 flipAndShuffle8, f 82;
#X obj 136 294 hadamard8, f 82;
#X obj 69 46 diffusionInLogic \$0 0, f 11;
#X obj 180 46 diffusionInLogic \$0 1, f 11;
#X obj 307 46 diffusionInLogic \$0 2, f 11;
#X obj 400 46 diffusionInLogic \$0 3, f 11;
#X obj 497 46 diffusionInLogic \$0 4, f 11;
#X obj 608 46 diffusionInLogic \$0 5, f 11;
#X obj 694 46 diffusionInLogic \$0 6, f 11;
#X obj 787 46 diffusionInLogic \$0 7, f 11;
#X obj 44 152 diffusionPostDelay \$0 0, f 13;
#X obj 143 152 diffusionPostDelay \$0 1, f 13;
#X obj 241 152 diffusionPostDelay \$0 2, f 13;
#X obj 342 152 diffusionPostDelay \$0 3, f 13;
#X obj 443 152 diffusionPostDelay \$0 4, f 13;
#X obj 541 152 diffusionPostDelay \$0 5, f 13;
#X obj 642 152 diffusionPostDelay \$0 6, f 13;
#X obj 743 152 diffusionPostDelay \$0 7, f 13;
#X obj 978 198 s \$0-randomF&S;
#X obj 978 172 bng 15 250 50 0 empty empty empty 17 7 0 10 #fcfcfc
#000000 #000000;
#X obj 1115 172 bng 15 250 50 0 empty empty empty 17 7 0 10 #fcfcfc
#000000 #000000;
#X obj 1115 198 s \$0-randomDel;
#X floatatom 618 96 5 0 0 0 - - - 0;
#X msg 618 119 vis \$1 1;
#X obj 281 405 bng 15 250 50 0 empty empty empty 17 7 0 10 #fcfcfc
#000000 #000000;
#X obj 281 425 \$0;
#X floatatom 281 449 5 0 0 0 - - - 0;
#X obj 866 409 outlet~;
#X obj 836 326 clone erOutput_poly 8 \$2 \$3 \$0;
#X obj 43 320 s~ \$0-er-0;
#X obj 147 320 s~ \$0-er-1;
#X obj 246 320 s~ \$0-er-2;
#X obj 350 320 s~ \$0-er-3;
#X obj 444 325 s~ \$0-er-4;
#X obj 548 325 s~ \$0-er-5;
#X obj 647 325 s~ \$0-er-6;
#X obj 751 325 s~ \$0-er-7;
#X obj 332 110 clone delayLine_poly 8 \$1 0 \$0 \$2 \$3;
#X obj 696 495 loadbang;
#X obj 696 546 pack \$2 \$3 \$1;
#X msg 696 570 \; \$1-er-\$2_time bounds 0 \$3 8 0;
#N canvas 825 165 455 508 delT 1;
#X obj 101 4 loadbang;
#X msg 101 28 1;
#X obj 101 52 metro 100;
#X msg 101 76 8;
#X obj 101 122 until;
#X obj 101 100 t f b, f 14;
#X msg 181 122 0;
#X obj 101 146 +;
#X obj 167 151 + 1;
#X obj 79 213 tabread \$2-er-\$3_time;
#X floatatom 80 246 5 0 0 0 - - - 0;
#X obj 101 170 t f f;
#X obj 258 191 pack 0 \$0;
#X obj 81 281 s;
#X msg 258 298 symbol \$2-delT-\$1;
#X connect 0 0 1 0;
#X connect 1 0 2 0;
#X connect 2 0 3 0;
#X connect 3 0 5 0;
#X connect 4 0 7 0;
#X connect 5 0 4 0;
#X connect 5 1 6 0;
#X connect 6 0 7 1;
#X connect 7 0 8 0;
#X connect 7 0 11 0;
#X connect 8 0 7 1;
#X connect 9 0 10 0;
#X connect 10 0 13 0;
#X connect 11 0 9 0;
#X connect 11 1 12 0;
#X connect 12 0 14 0;
#X connect 14 0 13 1;
#X restore 481 493 pd delT;
#X obj 1020 87 r \$2-rand;
#X obj 800 492 r \$2-erLen-\$3;
#X obj 800 516 t b f;
#X obj 867 91 r \$2-erLen-\$3;
#X obj 867 115 pack;
#X obj 867 139 s \$0-delLens;
#N canvas 317 133 655 508 mod 0;
#X obj 61 4 loadbang;
#X msg 61 28 1;
#X obj 61 52 metro 100;
#X msg 61 76 8;
#X obj 61 122 until;
#X obj 61 100 t f b, f 14;
#X msg 141 122 0;
#X obj 61 146 +;
#X obj 127 151 + 1;
#X floatatom 6 319 5 0 0 0 - - - 0;
#X obj 27 243 t f f;
#X obj 184 264 pack 0 \$0;
#X obj 6 449 s;
#X floatatom 307 302 5 0 0 0 - - - 0;
#X obj 328 226 t f f;
#X obj 485 247 pack 0 \$0;
#X obj 307 421 s;
#X msg 184 371 symbol \$2-modRate-\$1, f 10;
#X msg 485 354 symbol \$2-modDepth-\$1;
#X obj 5 286 tabread \$2-er-\$3_modR;
#X obj 306 269 tabread \$2-er-\$3_modD;
#X obj 352 59 bng 15 250 50 0 empty empty empty 17 7 0 10 #fcfcfc #000000
#000000;
#X obj 352 79 symbol \$2-er-\$3_modD;
#X msg 352 103 set \$1;
#X msg 352 127 1003-er-0_modD;
#X obj 6 342 min 1;
#X obj 6 366 max 0;
#X obj 307 325 min 1;
#X obj 307 349 max 0;
#X connect 0 0 1 0;
#X connect 1 0 2 0;
#X connect 2 0 3 0;
#X connect 3 0 5 0;
#X connect 4 0 7 0;
#X connect 5 0 4 0;
#X connect 5 1 6 0;
#X connect 6 0 7 1;
#X connect 7 0 8 0;
#X connect 7 0 10 0;
#X connect 7 0 14 0;
#X connect 8 0 7 1;
#X connect 9 0 25 0;
#X connect 10 0 19 0;
#X connect 10 1 11 0;
#X connect 11 0 17 0;
#X connect 13 0 27 0;
#X connect 14 0 20 0;
#X connect 14 1 15 0;
#X connect 15 0 18 0;
#X connect 17 0 12 1;
#X connect 18 0 16 1;
#X connect 19 0 9 0;
#X connect 20 0 13 0;
#X connect 21 0 22 0;
#X connect 22 0 23 0;
#X connect 23 0 24 0;
#X connect 25 0 26 0;
#X connect 26 0 12 0;
#X connect 27 0 28 0;
#X connect 28 0 16 0;
#X restore 544 494 pd mod;
#X connect 0 0 18 0;
#X connect 1 0 19 0;
#X connect 2 0 20 0;
#X connect 3 0 21 0;
#X connect 12 0 22 0;
#X connect 13 0 23 0;
#X connect 14 0 24 0;
#X connect 15 0 25 0;
#X connect 16 0 17 0;
#X connect 16 1 17 1;
#X connect 16 2 17 2;
#X connect 16 3 17 3;
#X connect 16 4 17 4;
#X connect 16 5 17 5;
#X connect 16 6 17 6;
#X connect 16 7 17 7;
#X connect 17 0 4 0;
#X connect 17 0 45 0;
#X connect 17 1 5 0;
#X connect 17 1 46 0;
#X connect 17 2 6 0;
#X connect 17 2 47 0;
#X connect 17 3 7 0;
#X connect 17 3 48 0;
#X connect 17 4 8 0;
#X connect 17 4 49 0;
#X connect 17 5 9 0;
#X connect 17 5 50 0;
#X connect 17 6 10 0;
#X connect 17 6 51 0;
#X connect 17 7 11 0;
#X connect 17 7 52 0;
#X connect 18 0 53 0;
#X connect 19 0 53 0;
#X connect 20 0 53 0;
#X connect 21 0 53 0;
#X connect 22 0 53 0;
#X connect 23 0 53 0;
#X connect 24 0 53 0;
#X connect 25 0 53 0;
#X connect 26 0 16 0;
#X connect 27 0 16 1;
#X connect 28 0 16 2;
#X connect 29 0 16 3;
#X connect 30 0 16 4;
#X connect 31 0 16 5;
#X connect 32 0 16 6;
#X connect 33 0 16 7;
#X connect 35 0 34 0;
#X connect 36 0 37 0;
#X connect 38 0 39 0;
#X connect 39 0 53 0;
#X connect 40 0 41 0;
#X connect 41 0 42 0;
#X connect 44 0 43 0;
#X connect 53 0 26 0;
#X connect 53 0 27 0;
#X connect 53 0 28 0;
#X connect 53 0 29 0;
#X connect 53 0 30 0;
#X connect 53 0 31 0;
#X connect 53 0 32 0;
#X connect 53 0 33 0;
#X connect 54 0 55 0;
#X connect 55 0 56 0;
#X connect 58 0 36 0;
#X connect 58 0 35 0;
#X connect 59 0 60 0;
#X connect 60 0 55 0;
#X connect 60 1 55 2;
#X connect 61 0 62 0;
#X connect 62 0 63 0;
