#N canvas 567 251 873 300 12;
#X obj 119 30 loadbang;
#X msg 119 54 1;
#X obj 119 78 metro 100;
#X obj 119 102 \$1;
#X obj 119 126 tabread \$2-er-\$3_levels;
#X obj 29 226 *~, f 14;
#X obj 29 250 outlet~;
#X obj 29 202 r~ \$4-er-\$1;
#X obj 119 150 min 1;
#X obj 119 174 max 0;
#X obj 370 36 loadbang;
#X obj 370 60 t b b, f 14;
#X msg 370 84 8;
#X obj 370 108 until;
#X obj 370 132 +;
#X obj 418 131 + 1;
#X msg 460 92 0;
#X obj 370 156 t b f, f 21;
#X obj 370 180 random 10000;
#X obj 370 204 / 10000;
#X obj 377 237 tabwrite \$2-er-\$3_levels;
#X obj 484 35 r \$2-rand;
#X connect 0 0 1 0;
#X connect 1 0 2 0;
#X connect 2 0 3 0;
#X connect 3 0 4 0;
#X connect 4 0 8 0;
#X connect 5 0 6 0;
#X connect 7 0 5 0;
#X connect 8 0 9 0;
#X connect 9 0 5 1;
#X connect 10 0 11 0;
#X connect 11 0 12 0;
#X connect 11 1 16 0;
#X connect 12 0 13 0;
#X connect 13 0 14 0;
#X connect 14 0 15 0;
#X connect 14 0 17 0;
#X connect 15 0 14 1;
#X connect 16 0 14 1;
#X connect 17 0 18 0;
#X connect 17 1 20 1;
#X connect 18 0 19 0;
#X connect 19 0 20 0;
#X connect 21 0 11 0;
