#N canvas 131 166 450 300 12;
#X obj 114 40 inlet~;
#X obj 114 128 *~ 1;
#X obj 114 152 outlet~;
#X obj 211 44 loadbang;
#X obj 211 68 random 2;
#X obj 211 92 sel 0;
#X msg 211 116 -1;
#X obj 211 140 int;
#X floatatom 211 164 5 0 0 0 - - - 0;
#X connect 0 0 1 0;
#X connect 1 0 2 0;
#X connect 3 0 4 0;
#X connect 4 0 5 0;
#X connect 5 0 6 0;
#X connect 5 1 7 0;
#X connect 6 0 7 0;
#X connect 7 0 1 1;
#X connect 7 0 8 0;
