#N canvas 2 25 1440 855 12;
#X obj 107 19 inlet~;
#X obj 107 43 *~ 0.353553;
#X obj 55 735 outlet~;
#X obj 55 704 catch~ \$0-out0;
#X obj 169 733 outlet~;
#X obj 284 734 outlet~;
#X obj 396 733 outlet~;
#X obj 504 733 outlet~;
#X obj 612 733 outlet~;
#X obj 719 733 outlet~;
#X obj 826 732 outlet~;
#X obj 169 702 catch~ \$0-out1;
#X obj 284 703 catch~ \$0-out2;
#X obj 395 702 catch~ \$0-out3;
#X obj 504 702 catch~ \$0-out4;
#X obj 612 702 catch~ \$0-out5;
#X obj 719 702 catch~ \$0-out6;
#X obj 827 700 catch~ \$0-out7;
#X obj 86 81 *~ 1;
#X obj 139 80 *~ -1;
#X obj 55 141 throw~ \$0-out0;
#X obj 41 166 throw~ \$0-out1;
#X obj 29 191 throw~ \$0-out2;
#X obj 20 215 throw~ \$0-out3;
#X obj 163 141 throw~ \$0-out4;
#X obj 175 166 throw~ \$0-out5;
#X obj 183 194 throw~ \$0-out6;
#X obj 191 218 throw~ \$0-out7;
#X obj 204 250 inlet~;
#X obj 204 274 *~ 0.353553;
#X obj 185 311 *~ 1;
#X obj 236 311 *~ -1;
#X obj 154 371 throw~ \$0-out0;
#X obj 138 397 throw~ \$0-out1;
#X obj 126 422 throw~ \$0-out2;
#X obj 117 446 throw~ \$0-out3;
#X obj 273 372 throw~ \$0-out4;
#X obj 285 397 throw~ \$0-out5;
#X obj 293 425 throw~ \$0-out6;
#X obj 301 449 throw~ \$0-out7;
#X obj 385 22 inlet~;
#X obj 385 46 *~ 0.353553;
#X obj 364 84 *~ 1;
#X obj 417 83 *~ -1;
#X obj 333 144 throw~ \$0-out0;
#X obj 319 169 throw~ \$0-out1;
#X obj 307 194 throw~ \$0-out2;
#X obj 298 218 throw~ \$0-out3;
#X obj 454 144 throw~ \$0-out4;
#X obj 466 169 throw~ \$0-out5;
#X obj 474 197 throw~ \$0-out6;
#X obj 482 221 throw~ \$0-out7;
#X obj 497 248 inlet~;
#X obj 497 272 *~ 0.353553;
#X obj 476 310 *~ 1;
#X obj 529 309 *~ -1;
#X obj 445 370 throw~ \$0-out0;
#X obj 431 395 throw~ \$0-out1;
#X obj 419 420 throw~ \$0-out2;
#X obj 410 444 throw~ \$0-out3;
#X obj 566 370 throw~ \$0-out4;
#X obj 578 395 throw~ \$0-out5;
#X obj 586 423 throw~ \$0-out6;
#X obj 594 447 throw~ \$0-out7;
#X obj 687 19 inlet~;
#X obj 687 43 *~ 0.353553;
#X obj 666 81 *~ 1;
#X obj 719 80 *~ -1;
#X obj 635 141 throw~ \$0-out0;
#X obj 621 166 throw~ \$0-out1;
#X obj 609 191 throw~ \$0-out2;
#X obj 600 215 throw~ \$0-out3;
#X obj 756 141 throw~ \$0-out4;
#X obj 768 166 throw~ \$0-out5;
#X obj 776 194 throw~ \$0-out6;
#X obj 784 218 throw~ \$0-out7;
#X obj 799 245 inlet~;
#X obj 799 269 *~ 0.353553;
#X obj 778 307 *~ 1;
#X obj 831 306 *~ -1;
#X obj 747 367 throw~ \$0-out0;
#X obj 733 392 throw~ \$0-out1;
#X obj 721 417 throw~ \$0-out2;
#X obj 712 441 throw~ \$0-out3;
#X obj 868 367 throw~ \$0-out4;
#X obj 880 392 throw~ \$0-out5;
#X obj 888 420 throw~ \$0-out6;
#X obj 896 444 throw~ \$0-out7;
#X obj 979 20 inlet~;
#X obj 979 44 *~ 0.353553;
#X obj 958 82 *~ 1;
#X obj 1011 81 *~ -1;
#X obj 927 142 throw~ \$0-out0;
#X obj 913 167 throw~ \$0-out1;
#X obj 901 192 throw~ \$0-out2;
#X obj 892 216 throw~ \$0-out3;
#X obj 1048 142 throw~ \$0-out4;
#X obj 1060 167 throw~ \$0-out5;
#X obj 1068 195 throw~ \$0-out6;
#X obj 1076 219 throw~ \$0-out7;
#X obj 1091 246 inlet~;
#X obj 1091 270 *~ 0.353553;
#X obj 1070 308 *~ 1;
#X obj 1123 307 *~ -1;
#X obj 1039 368 throw~ \$0-out0;
#X obj 1025 393 throw~ \$0-out1;
#X obj 1013 418 throw~ \$0-out2;
#X obj 1004 442 throw~ \$0-out3;
#X obj 1160 368 throw~ \$0-out4;
#X obj 1172 393 throw~ \$0-out5;
#X obj 1180 421 throw~ \$0-out6;
#X obj 1188 445 throw~ \$0-out7;
#X connect 0 0 1 0;
#X connect 1 0 18 0;
#X connect 1 0 19 0;
#X connect 3 0 2 0;
#X connect 11 0 4 0;
#X connect 12 0 5 0;
#X connect 13 0 6 0;
#X connect 14 0 7 0;
#X connect 15 0 8 0;
#X connect 16 0 9 0;
#X connect 17 0 10 0;
#X connect 18 0 20 0;
#X connect 18 0 21 0;
#X connect 18 0 22 0;
#X connect 18 0 23 0;
#X connect 18 0 24 0;
#X connect 18 0 25 0;
#X connect 18 0 26 0;
#X connect 18 0 27 0;
#X connect 28 0 29 0;
#X connect 29 0 31 0;
#X connect 29 0 30 0;
#X connect 30 0 32 0;
#X connect 30 0 36 0;
#X connect 30 0 34 0;
#X connect 30 0 38 0;
#X connect 31 0 33 0;
#X connect 31 0 37 0;
#X connect 31 0 35 0;
#X connect 31 0 39 0;
#X connect 40 0 41 0;
#X connect 41 0 43 0;
#X connect 41 0 42 0;
#X connect 42 0 44 0;
#X connect 42 0 45 0;
#X connect 42 0 48 0;
#X connect 42 0 49 0;
#X connect 43 0 46 0;
#X connect 43 0 47 0;
#X connect 43 0 50 0;
#X connect 43 0 51 0;
#X connect 52 0 53 0;
#X connect 53 0 55 0;
#X connect 53 0 54 0;
#X connect 54 0 56 0;
#X connect 54 0 60 0;
#X connect 54 0 59 0;
#X connect 54 0 63 0;
#X connect 55 0 57 0;
#X connect 55 0 58 0;
#X connect 55 0 61 0;
#X connect 55 0 62 0;
#X connect 64 0 65 0;
#X connect 65 0 67 0;
#X connect 65 0 66 0;
#X connect 66 0 68 0;
#X connect 66 0 69 0;
#X connect 66 0 70 0;
#X connect 66 0 71 0;
#X connect 67 0 72 0;
#X connect 67 0 73 0;
#X connect 67 0 74 0;
#X connect 67 0 75 0;
#X connect 76 0 77 0;
#X connect 77 0 78 0;
#X connect 77 0 79 0;
#X connect 78 0 80 0;
#X connect 78 0 82 0;
#X connect 78 0 85 0;
#X connect 78 0 87 0;
#X connect 79 0 81 0;
#X connect 79 0 83 0;
#X connect 79 0 84 0;
#X connect 79 0 86 0;
#X connect 88 0 89 0;
#X connect 89 0 91 0;
#X connect 89 0 90 0;
#X connect 90 0 92 0;
#X connect 90 0 93 0;
#X connect 90 0 98 0;
#X connect 90 0 99 0;
#X connect 91 0 94 0;
#X connect 91 0 95 0;
#X connect 91 0 96 0;
#X connect 91 0 97 0;
#X connect 100 0 101 0;
#X connect 101 0 102 0;
#X connect 101 0 103 0;
#X connect 102 0 104 0;
#X connect 102 0 107 0;
#X connect 102 0 109 0;
#X connect 102 0 110 0;
#X connect 103 0 105 0;
#X connect 103 0 106 0;
#X connect 103 0 108 0;
#X connect 103 0 111 0;
