#N canvas 0 23 1053 536 12;
#X obj 108 65 inlet~;
#X obj 182 65 inlet~;
#X obj 247 65 inlet~;
#X obj 314 65 inlet~;
#X obj 77 440 outlet~;
#X obj 138 440 outlet~;
#X obj 202 440 outlet~;
#X obj 263 440 outlet~;
#X obj 332 440 outlet~;
#X obj 393 440 outlet~;
#X obj 457 440 outlet~;
#X obj 518 440 outlet~;
#X obj 450 68 inlet~;
#X obj 524 68 inlet~;
#X obj 589 68 inlet~;
#X obj 656 68 inlet~;
#X text 766 55 weight = -2/size;
#X obj 711 191 *~ -0.25;
#X connect 0 0 17 0;
#X connect 0 0 4 0;
#X connect 1 0 17 0;
#X connect 1 0 5 0;
#X connect 2 0 17 0;
#X connect 2 0 6 0;
#X connect 3 0 17 0;
#X connect 3 0 7 0;
#X connect 12 0 17 0;
#X connect 12 0 8 0;
#X connect 13 0 17 0;
#X connect 13 0 9 0;
#X connect 14 0 17 0;
#X connect 14 0 10 0;
#X connect 15 0 17 0;
#X connect 15 0 11 0;
#X connect 17 0 11 0;
#X connect 17 0 10 0;
#X connect 17 0 9 0;
#X connect 17 0 8 0;
#X connect 17 0 7 0;
#X connect 17 0 6 0;
#X connect 17 0 5 0;
#X connect 17 0 4 0;
