#N canvas 295 320 582 549 12;
#X obj 80 87 inlet~;
#X text 74 38 signal;
#X obj 307 83 inlet~;
#X text 307 49 d1;
#X obj 409 83 inlet~;
#X text 407 46 d2;
#X obj 67 201 delwrite~ \$0-del1 1000;
#X obj 304 335 delwrite~ \$0-del2 1000;
#X obj 304 186 vd~ \$0-del1;
#X obj 408 133 vd~ \$0-del2;
#X obj 205 332 outlet~;
#X connect 0 0 6 0;
#X connect 2 0 8 0;
#X connect 4 0 9 0;
#X connect 8 0 7 0;
#X connect 8 0 10 0;
#X connect 9 0 6 0;
