#N canvas 0 25 1440 847 12;
#X obj 1265 183 vsl 19 162 0 127 0 0 empty empty empty 0 -9 0 12 #fcfcfc #000000 #000000 0 1;
#X obj 1265 353 / 127;
#X obj 1265 377 pack 0 5;
#X obj 1265 401 line~;
#X obj 232 768 dac~;
#X msg 397 177 100 100;
#X obj 88 2 tgl 19 0 empty empty empty 0 -10 0 12 #fcfcfc #000000 #000000 0 1;
#X obj 89 49 +;
#X obj 128 49 + 1;
#X obj 190 138 sel 0 1 2 3;
#X obj 89 73 % 4;
#X obj 260 646 clip~ -0.99 0.99;
#X obj 1153 610 vu 19 200 empty empty -1 -10 0 12 #404040 #000000 1 0;
#N canvas 329 161 625 417 vu 0;
#X obj 59 129 env~ 1024;
#X obj 161 111 abs~;
#X obj 161 213 snapshot~;
#X obj 161 256 rmstodb;
#X obj 161 21 inlet~;
#X obj 161 288 - 100;
#X obj 59 287 - 100;
#X obj 59 361 outlet;
#X obj 161 361 outlet;
#X text 344 307 Check the help file of env~ and slop~ for more details., f 31;
#X obj 239 89 expr 1000 / $f1;
#X floatatom 239 117 5 0 0 0 - - - 0;
#X obj 161 146 slop~ 0 0 0 0 1e+09;
#X obj 239 18 inlet;
#X floatatom 239 57 5 0 0 0 - - - 0;
#X text 359 89 convert to hz;
#X text 282 118 hz;
#X text 284 57 peak decay time in ms;
#X obj 59 171 t f b;
#X text 345 132 The env~ object is dedicated to RMS analysis. Its output is in dB (0-100 range \, pd style) but needs to be converted to dBFS (and we do that by simply subtracting 100)., f 31;
#X text 345 225 The slop~ object is used here for peak detection. We need to convert the output to dB with rmstodb and also subtract by 100 to convert it to dBFS., f 31;
#X connect 0 0 18 0;
#X connect 1 0 12 0;
#X connect 2 0 3 0;
#X connect 3 0 5 0;
#X connect 4 0 0 0;
#X connect 4 0 1 0;
#X connect 5 0 8 0;
#X connect 6 0 7 0;
#X connect 10 0 11 0;
#X connect 11 0 12 3;
#X connect 12 0 2 0;
#X connect 13 0 14 0;
#X connect 14 0 10 0;
#X connect 18 0 6 0;
#X connect 18 1 2 0;
#X restore 1152 564 pd vu;
#X obj 1205 611 vu 19 200 empty empty -1 -10 0 12 #404040 #000000 1 0;
#N canvas 329 161 625 417 vu 0;
#X obj 59 129 env~ 1024;
#X obj 161 111 abs~;
#X obj 161 213 snapshot~;
#X obj 161 256 rmstodb;
#X obj 161 21 inlet~;
#X obj 161 288 - 100;
#X obj 59 287 - 100;
#X obj 59 361 outlet;
#X obj 161 361 outlet;
#X text 344 307 Check the help file of env~ and slop~ for more details., f 31;
#X obj 239 89 expr 1000 / $f1;
#X floatatom 239 117 5 0 0 0 - - - 0;
#X obj 161 146 slop~ 0 0 0 0 1e+09;
#X obj 239 18 inlet;
#X floatatom 239 57 5 0 0 0 - - - 0;
#X text 359 89 convert to hz;
#X text 282 118 hz;
#X text 284 57 peak decay time in ms;
#X obj 59 171 t f b;
#X text 345 132 The env~ object is dedicated to RMS analysis. Its output is in dB (0-100 range \, pd style) but needs to be converted to dBFS (and we do that by simply subtracting 100)., f 31;
#X text 345 225 The slop~ object is used here for peak detection. We need to convert the output to dB with rmstodb and also subtract by 100 to convert it to dBFS., f 31;
#X connect 0 0 18 0;
#X connect 1 0 12 0;
#X connect 2 0 3 0;
#X connect 3 0 5 0;
#X connect 4 0 0 0;
#X connect 4 0 1 0;
#X connect 5 0 8 0;
#X connect 6 0 7 0;
#X connect 10 0 11 0;
#X connect 11 0 12 3;
#X connect 12 0 2 0;
#X connect 13 0 14 0;
#X connect 14 0 10 0;
#X connect 18 0 6 0;
#X connect 18 1 2 0;
#X restore 1204 565 pd vu;
#X obj 511 366 vsl 19 162 0 1 0 0 empty empty empty 0 -9 0 12 #fcfcfc #000000 #000000 0 1;
#X floatatom 377 743 9 0 0 0 - - - 0;
#X obj 50 550 rev2~ 100 90 3000 50;
#X obj 514 735 unpack;
#X floatatom 514 785 7 0 0 0 - - - 0;
#X floatatom 528 762 7 0 0 0 - - - 0;
#X floatatom 445 743 8 0 0 0 - - - 0;
#X obj 455 707 fiddle~ 4096 1 20 3;
#X floatatom 1012 538 5 0 0 0 - - - 0;
#X obj 377 766 -;
#X floatatom 377 790 5 0 0 0 - - - 0;
#X obj 445 766 t b f;
#X msg 486 113 64 80;
#X msg 543 110 67 80;
#X msg 609 110 72 80;
#X obj 482 366 vsl 19 162 0.01 10 0 1 empty empty empty 0 -9 0 12 #fcfcfc #000000 #000000 2285 1;
#X obj 89 97 t f f, f 35;
#X obj 345 21 +;
#X obj 384 21 + 1;
#X obj 345 45 % 4;
#X floatatom 345 93 5 0 0 0 - - - 0;
#X obj 304 44 sel 0;
#X obj 345 69 expr 12*($f1-2);
#X obj 279 575 waveguide, f 23;
#X obj 254 712 *~ 1;
#X obj 284 243 unpack, f 9;
#X obj 394 366 vsl 19 162 0 1 0 1 empty empty empty 0 -9 0 12 #fcfcfc #000000 #000000 5912 1;
#X obj 423 366 vsl 19 162 -0.8 0.8 0 1 empty empty empty 0 -9 0 12 #fcfcfc #000000 #000000 7281 1;
#X obj 449 366 vsl 19 162 0 1 0 1 empty empty empty 0 -9 0 12 #fcfcfc #000000 #000000 3858 1;
#X msg 527 309 0;
#X obj 88 26 metro 500;
#X msg 449 264 0.5;
#X obj 284 219 t l l b, f 32;
#X obj 630 201 t b b b b b b b, f 77;
#X obj 604 280 random 100001;
#X floatatom 604 385 5 0 0 0 - - - 0;
#X obj 604 304 / 100000;
#X obj 702 281 random 100001;
#X obj 702 305 / 100000;
#X floatatom 702 386 5 0 0 0 - - - 0;
#X obj 805 282 random 100001;
#X obj 805 306 / 100000;
#X obj 805 330 * 0.9;
#X obj 805 356 + 0.05;
#X obj 911 281 random 100001;
#X obj 911 305 / 100000;
#X obj 1017 283 random 100001;
#X obj 1017 307 / 100000;
#X obj 1017 331 * 1;
#X obj 1017 357 + 0;
#X obj 911 399 * 1000;
#X floatatom 911 423 5 0 0 0 - - - 0;
#X obj 50 574 *~ 0.25;
#X obj 108 577 *~ 0.25;
#X obj 338 280 - 40;
#X obj 604 328 * 0.2;
#X obj 604 361 + 0.4;
#X obj 702 329 * 1;
#X obj 702 362 + -0.5;
#X obj 753 486 vsl 19 162 0 1 0 1 empty empty empty 0 -9 0 12 #fcfcfc #000000 #000000 8900 1;
#X obj 753 656 * 1.8;
#X obj 753 680 * -0.5;
#X obj 658 577 * 1;
#X obj 658 625 + 0.5;
#X obj 658 601 * -0.5;
#X floatatom 658 649 5 0 0 0 - - - 0;
#X msg 212 169 60 80;
#X msg 269 166 60 80;
#X msg 335 166 60 80;
#X obj 583 192 bng 19 250 50 0 empty empty empty 0 -10 0 12 #fcfcfc #000000 #000000;
#X floatatom 482 572 5 0 0 0 - - - 0;
#X msg 150 170 60 127;
#X obj 911 329 * 5;
#X obj 911 355 + 0.5;
#X obj 260 622 *~;
#X obj 91 295 tube;
#X obj 1121 283 random 100001;
#X obj 1121 307 / 100000;
#X obj 543 366 vsl 19 162 0 1 0 1 empty empty empty 0 -9 0 12 #fcfcfc #000000 #000000 7187 1;
#X obj 262 548 pack 0 0 0 0 0 0 0 0 0;
#X obj 1121 357 + 0.1;
#X obj 1121 331 * 0.8;
#X obj 176 36 expr 125 * pow(2 \, $f1);
#X floatatom 176 60 5 0 0 0 - - - 0;
#X obj 176 12 random 4;
#X obj 891 631 tgl 19 0 empty empty empty 0 -10 0 12 #fcfcfc #000000 #000000 0 1;
#X obj 891 655 metro 50;
#X obj 891 679 snapshot~;
#X floatatom 891 703 5 0 0 0 - - - 0;
#X text 444 152 pitch - Velocity - attack - Split - Stiffness - Sensor Position - Decay - Brightness - pick pos, f 104;
#X floatatom 753 704 5 0 0 0 - - - 0;
#X obj 284 267 - 24;
#X connect 0 0 1 0;
#X connect 1 0 2 0;
#X connect 2 0 3 0;
#X connect 3 0 90 0;
#X connect 6 0 46 0;
#X connect 7 0 8 0;
#X connect 7 0 10 0;
#X connect 8 0 7 1;
#X connect 9 0 87 0;
#X connect 9 1 82 0;
#X connect 9 2 83 0;
#X connect 9 3 84 0;
#X connect 10 0 32 0;
#X connect 11 0 40 0;
#X connect 13 0 12 0;
#X connect 13 1 12 1;
#X connect 15 0 14 0;
#X connect 15 1 14 1;
#X connect 16 0 95 7;
#X connect 17 0 25 0;
#X connect 18 0 68 0;
#X connect 18 1 69 0;
#X connect 19 0 20 0;
#X connect 19 1 21 0;
#X connect 22 0 27 0;
#X connect 23 0 22 0;
#X connect 23 2 19 0;
#X connect 25 0 26 0;
#X connect 27 0 17 0;
#X connect 27 1 25 1;
#X connect 31 0 95 6;
#X connect 31 0 86 0;
#X connect 32 0 9 0;
#X connect 32 1 37 0;
#X connect 33 0 34 0;
#X connect 33 0 35 0;
#X connect 34 0 33 1;
#X connect 35 0 38 0;
#X connect 37 0 33 0;
#X connect 38 0 36 0;
#X connect 39 0 90 1;
#X connect 39 0 103 0;
#X connect 40 0 4 0;
#X connect 40 0 4 1;
#X connect 40 0 23 0;
#X connect 41 0 107 0;
#X connect 41 1 70 0;
#X connect 42 0 95 3;
#X connect 43 0 95 4;
#X connect 44 0 95 5;
#X connect 45 0 43 0;
#X connect 46 0 7 0;
#X connect 47 0 42 0;
#X connect 47 0 45 0;
#X connect 48 0 41 0;
#X connect 48 2 85 0;
#X connect 49 0 50 0;
#X connect 49 1 53 0;
#X connect 49 2 56 0;
#X connect 49 3 60 0;
#X connect 49 4 62 0;
#X connect 49 5 92 0;
#X connect 50 0 52 0;
#X connect 52 0 71 0;
#X connect 53 0 54 0;
#X connect 54 0 73 0;
#X connect 56 0 57 0;
#X connect 57 0 58 0;
#X connect 58 0 59 0;
#X connect 59 0 44 0;
#X connect 60 0 61 0;
#X connect 61 0 88 0;
#X connect 62 0 63 0;
#X connect 63 0 64 0;
#X connect 64 0 65 0;
#X connect 65 0 16 0;
#X connect 66 0 67 0;
#X connect 68 0 4 0;
#X connect 69 0 4 1;
#X connect 70 0 95 1;
#X connect 71 0 72 0;
#X connect 72 0 51 0;
#X connect 72 0 42 0;
#X connect 73 0 74 0;
#X connect 74 0 55 0;
#X connect 74 0 43 0;
#X connect 75 0 76 0;
#X connect 75 0 78 0;
#X connect 76 0 77 0;
#X connect 76 0 73 1;
#X connect 77 0 74 1;
#X connect 77 0 106 0;
#X connect 78 0 80 0;
#X connect 78 0 71 1;
#X connect 79 0 81 0;
#X connect 79 0 72 1;
#X connect 80 0 79 0;
#X connect 82 0 48 0;
#X connect 83 0 48 0;
#X connect 84 0 48 0;
#X connect 85 0 49 0;
#X connect 85 0 100 0;
#X connect 87 0 48 0;
#X connect 88 0 89 0;
#X connect 89 0 31 0;
#X connect 89 0 66 0;
#X connect 90 0 11 0;
#X connect 90 0 18 0;
#X connect 90 0 13 0;
#X connect 92 0 93 0;
#X connect 93 0 97 0;
#X connect 94 0 95 8;
#X connect 95 0 91 0;
#X connect 95 0 39 0;
#X connect 96 0 94 0;
#X connect 97 0 96 0;
#X connect 98 0 99 0;
#X connect 99 0 46 1;
#X connect 100 0 98 0;
#X connect 101 0 102 0;
#X connect 102 0 103 0;
#X connect 103 0 104 0;
#X connect 107 0 17 0;
#X connect 107 0 95 0;
