#N canvas 0 25 1440 847 12;
#X obj 1265 183 vsl 19 162 0 127 0 0 empty empty empty 0 -9 0 12 #fcfcfc #000000 #000000 0 1;
#X obj 1265 353 / 127;
#X obj 1265 377 pack 0 5;
#X obj 1265 401 line~;
#X obj 314 666 dac~;
#X msg 397 177 100 100;
#X obj 87 12 tgl 19 0 empty empty empty 0 -10 0 12 #fcfcfc #000000 #000000 0 1;
#X obj 89 49 +;
#X obj 128 49 + 1;
#X obj 190 138 sel 0 1 2 3;
#X obj 89 73 % 4;
#X obj 124 434 osc~;
#X obj 124 458 *~;
#X obj 16 95 vsl 19 162 0 127 0 0 empty empty empty 0 -9 0 12 #fcfcfc #000000 #000000 0 1;
#X obj 16 279 / 127;
#X obj 16 303 pack 0 5;
#X obj 16 327 line~;
#N canvas 2 25 1409 847 waveguide 0;
#X obj 1078 651 outlet~;
#X obj 64 16 inlet~;
#X obj 248 450 inlet~;
#X obj 1212 533 inlet~;
#X obj 498 148 tgl 19 0 empty empty empty 0 -10 0 12 #fcfcfc #000000 #000000 0 1;
#X obj 498 172 metro 50;
#X obj 498 196 snapshot~;
#X floatatom 498 220 10 0 0 0 - - - 0;
#X obj 256 4 hsl 162 19 0 0.5 0 0 empty empty empty -2 -10 0 12 #fcfcfc #000000 #000000 0 1;
#X obj 392 198 snapshot~;
#X floatatom 392 222 10 0 0 0 - - - 0;
#X obj 649 228 inlet~;
#X msg 439 0 0.5;
#X obj 765 197 inlet;
#X obj 765 227 sig~ 1;
#X obj 710 70 block~ 4;
#X obj 677 724 tgl 19 0 empty empty empty 0 -10 0 12 #fcfcfc #000000 #000000 0 1;
#N canvas 63 88 450 316 nonlinear 0;
#X obj 37 37 inlet~;
#X obj 70 96 expr~ if($v1 < -1 \, -0.666667 \, if($v1 > 1 \, 0.666667 \, $v1 - pow($v1 \, 3)/3)), f 15;
#N canvas 0 25 1068 575 allpass2 0;
#X obj 107 24 inlet~;
#X obj 118 483 outlet~;
#X floatatom 353 151 5 0 0 0 - - - 0;
#X floatatom 546 163 5 0 0 0 - - - 0;
#X obj 546 186 sig~ 0.2;
#X obj 353 174 sig~ 0.1;
#X obj 118 272 fexpr~ if($x1 + $y1 >= 0 \, $x2*$x1 + $x1[-1] - $x2*$y1[-1] \, $x3*$x1 + $x1[-1] - $x3*$y1[-1]);
#X obj 359 30 hsl 162 19 0 1 0 0 empty empty empty -2 -10 0 12 #fcfcfc #000000 #000000 0 1;
#X obj 593 30 hsl 162 19 0 1 0 0 empty empty empty -2 -10 0 12 #fcfcfc #000000 #000000 0 1;
#X obj 590 54 t b f;
#X obj 857 87 tgl 19 0 empty empty empty 0 -10 0 12 #fcfcfc #000000 #000000 0 1;
#X obj 857 111 expr if($f1 == 0 \, 1 \, -1) \; if($f1 == 1 \, 1 \, -1) \;;
#X floatatom 857 149 5 0 0 0 - - - 0;
#X floatatom 1028 149 5 0 0 0 - - - 0;
#X obj 546 210 *~ 1;
#X obj 353 117 expr $f1 * 0.6 * pow(2 \, -1*$f2*0.5);
#X obj 612 116 expr $f1 * 0.6 * pow(2 \, $f2*0.5);
#X obj 353 198 *~ -1;
#X connect 0 0 6 0;
#X connect 2 0 5 0;
#X connect 3 0 4 0;
#X connect 4 0 14 0;
#X connect 5 0 17 0;
#X connect 6 0 1 0;
#X connect 7 0 15 0;
#X connect 7 0 16 0;
#X connect 8 0 9 0;
#X connect 9 0 15 0;
#X connect 9 0 16 0;
#X connect 9 1 15 1;
#X connect 9 1 16 1;
#X connect 10 0 11 0;
#X connect 11 0 12 0;
#X connect 11 0 17 1;
#X connect 11 1 13 0;
#X connect 11 1 14 1;
#X connect 14 0 6 2;
#X connect 15 0 2 0;
#X connect 16 0 3 0;
#X connect 17 0 6 1;
#X restore 70 69 pd allpass2;
#X obj 33 283 outlet~;
#X obj 267 122 expr~ 1 - $v1 \; $v1;
#X obj 36 251 *~;
#X obj 70 253 *~;
#X obj 273 37 inlet;
#X connect 0 0 2 0;
#X connect 0 0 5 0;
#X connect 1 0 6 0;
#X connect 2 0 1 0;
#X connect 4 0 5 1;
#X connect 4 1 6 1;
#X connect 5 0 3 0;
#X connect 6 0 3 0;
#X connect 7 0 4 0;
#X restore 445 697 pd nonlinear;
#X floatatom 214 30 5 0 0 0 - - - 0;
#X obj 260 90 samphold~;
#X obj 253 28 sig~;
#X obj 431 94 expr~;
#X obj 118 234 *~;
#X obj 238 236 *~;
#X obj 580 329 expr~ -1*pow(0.001 \, (1/($v1*$v2*2)) ), f 20;
#X obj 44 506 +~;
#X obj 1023 305 expr~ -1*$v1 \; $v1;
#X obj 856 99 vsl 19 162 -0.99 0.99 0 0 empty empty empty 0 -9 0 12 #fcfcfc #000000 #000000 0 1;
#X obj 960 632 *~;
#X obj 1184 628 *~;
#X obj 890 735 delwrite~ \$0-fbLoop 10;
#X obj 1210 370 vd~ \$0-fbLoop;
#X obj 1124 723 delwrite~ \$0-fbLoop2 10;
#X obj 969 392 vd~ \$0-fbLoop2;
#N canvas 710 171 450 300 otherLPF 0;
#X obj 34 200 fexpr~ ($x2 * $x1[-1] + $x3*($x1[0]+$x1[-2]));
#X obj 25 34 inlet~;
#X obj 34 224 outlet~;
#X obj 310 69 expr~ (1+$v1)/2 \; (1-$v1)/4;
#X obj 327 14 inlet~;
#X obj 170 74 block~ 4;
#X connect 0 0 2 0;
#X connect 1 0 0 0;
#X connect 3 0 0 1;
#X connect 3 1 0 2;
#X connect 4 0 3 0;
#X restore 889 685 pd otherLPF;
#X f 19;
#N canvas 710 171 450 300 otherLPF 0;
#X obj 34 200 fexpr~ ($x2 * $x1[-1] + $x3*($x1[0]+$x1[-2]));
#X obj 25 34 inlet~;
#X obj 34 224 outlet~;
#X obj 310 69 expr~ (1+$v1)/2 \; (1-$v1)/4;
#X obj 327 14 inlet~;
#X obj 170 74 block~ 4;
#X connect 0 0 2 0;
#X connect 1 0 0 0;
#X connect 3 0 0 1;
#X connect 3 1 0 2;
#X connect 4 0 3 0;
#X restore 1146 669 pd otherLPF;
#X f 19;
#X obj 63 52 *~ 1;
#X obj 975 536 wgAllpass;
#X obj 1063 536 wgAllpass;
#X msg 859 53 0;
#X floatatom 856 269 5 0 0 0 - - - 0;
#X obj 248 474 *~ 1, f 13;
#X obj 359 395 tgl 19 0 empty empty empty 0 -10 0 12 #fcfcfc #000000 #000000 0 1;
#X obj 359 419 expr if($f1==0 \, 1 \, -1);
#X obj 889 709 *~ 1;
#X obj 254 125 expr~ (0.98*$v1+0.01) \; 1-(0.98*$v1+0.01);
#X floatatom 805 330 5 0 0 0 - - - 0;
#X floatatom 805 377 10 0 0 0 - - - 0;
#X obj 805 306 expr 1- abs($f1);
#X obj 765 251 *~;
#X obj 805 353 expr 0.98*pow($f1 \, 2) + 0.02;
#X connect 1 0 36 0;
#X connect 2 0 19 1;
#X connect 2 0 37 0;
#X connect 2 0 41 0;
#X connect 3 0 34 1;
#X connect 3 0 35 1;
#X connect 4 0 5 0;
#X connect 5 0 6 0;
#X connect 5 0 9 0;
#X connect 6 0 7 0;
#X connect 8 0 18 0;
#X connect 8 0 20 0;
#X connect 9 0 10 0;
#X connect 11 0 24 0;
#X connect 12 0 8 0;
#X connect 13 0 14 0;
#X connect 14 0 49 0;
#X connect 16 0 17 1;
#X connect 19 0 45 0;
#X connect 20 0 19 0;
#X connect 22 0 37 1;
#X connect 23 0 38 1;
#X connect 24 0 28 1;
#X connect 24 0 29 1;
#X connect 26 1 37 2;
#X connect 26 1 38 2;
#X connect 27 0 40 0;
#X connect 28 0 34 0;
#X connect 29 0 35 0;
#X connect 31 0 38 0;
#X connect 33 0 37 0;
#X connect 34 0 44 0;
#X connect 35 0 32 0;
#X connect 36 0 22 0;
#X connect 36 0 23 0;
#X connect 37 0 28 0;
#X connect 37 0 0 0;
#X connect 38 0 29 0;
#X connect 38 0 0 0;
#X connect 39 0 27 0;
#X connect 40 0 26 0;
#X connect 40 0 48 0;
#X connect 42 0 43 0;
#X connect 43 0 41 1;
#X connect 44 0 30 0;
#X connect 45 0 9 0;
#X connect 45 0 22 1;
#X connect 45 1 23 1;
#X connect 45 1 6 0;
#X connect 46 0 50 0;
#X connect 48 0 46 0;
#X connect 49 0 24 1;
#X connect 50 0 47 0;
#X connect 50 0 49 1;
#X restore 282 352 pd waveguide;
#X obj 279 459 clip~ -0.99 0.99;
#X obj 282 399 *~;
#X obj 836 515 vu 19 200 empty empty -1 -10 0 12 #404040 #000000 1 0;
#N canvas 329 161 625 417 vu 0;
#X obj 59 129 env~ 1024;
#X obj 161 111 abs~;
#X obj 161 213 snapshot~;
#X obj 161 256 rmstodb;
#X obj 161 21 inlet~;
#X obj 161 288 - 100;
#X obj 59 287 - 100;
#X obj 59 361 outlet;
#X obj 161 361 outlet;
#X text 344 307 Check the help file of env~ and slop~ for more details., f 31;
#X obj 239 89 expr 1000 / $f1;
#X floatatom 239 117 5 0 0 0 - - - 0;
#X obj 161 146 slop~ 0 0 0 0 1e+09;
#X obj 239 18 inlet;
#X floatatom 239 57 5 0 0 0 - - - 0;
#X text 359 89 convert to hz;
#X text 282 118 hz;
#X text 284 57 peak decay time in ms;
#X obj 59 171 t f b;
#X text 345 132 The env~ object is dedicated to RMS analysis. Its output is in dB (0-100 range \, pd style) but needs to be converted to dBFS (and we do that by simply subtracting 100)., f 31;
#X text 345 225 The slop~ object is used here for peak detection. We need to convert the output to dB with rmstodb and also subtract by 100 to convert it to dBFS., f 31;
#X connect 0 0 18 0;
#X connect 1 0 12 0;
#X connect 2 0 3 0;
#X connect 3 0 5 0;
#X connect 4 0 0 0;
#X connect 4 0 1 0;
#X connect 5 0 8 0;
#X connect 6 0 7 0;
#X connect 10 0 11 0;
#X connect 11 0 12 3;
#X connect 12 0 2 0;
#X connect 13 0 14 0;
#X connect 14 0 10 0;
#X connect 18 0 6 0;
#X connect 18 1 2 0;
#X restore 835 469 pd vu;
#X obj 50 574 *~ 0.5;
#X obj 108 577 *~ 0.5;
#X obj 284 219 t l;
#X obj 433 403 *~;
#X obj 888 516 vu 19 200 empty empty -1 -10 0 12 #404040 #000000 1 0;
#N canvas 329 161 625 417 vu 0;
#X obj 59 129 env~ 1024;
#X obj 161 111 abs~;
#X obj 161 213 snapshot~;
#X obj 161 256 rmstodb;
#X obj 161 21 inlet~;
#X obj 161 288 - 100;
#X obj 59 287 - 100;
#X obj 59 361 outlet;
#X obj 161 361 outlet;
#X text 344 307 Check the help file of env~ and slop~ for more details., f 31;
#X obj 239 89 expr 1000 / $f1;
#X floatatom 239 117 5 0 0 0 - - - 0;
#X obj 161 146 slop~ 0 0 0 0 1e+09;
#X obj 239 18 inlet;
#X floatatom 239 57 5 0 0 0 - - - 0;
#X text 359 89 convert to hz;
#X text 282 118 hz;
#X text 284 57 peak decay time in ms;
#X obj 59 171 t f b;
#X text 345 132 The env~ object is dedicated to RMS analysis. Its output is in dB (0-100 range \, pd style) but needs to be converted to dBFS (and we do that by simply subtracting 100)., f 31;
#X text 345 225 The slop~ object is used here for peak detection. We need to convert the output to dB with rmstodb and also subtract by 100 to convert it to dBFS., f 31;
#X connect 0 0 18 0;
#X connect 1 0 12 0;
#X connect 2 0 3 0;
#X connect 3 0 5 0;
#X connect 4 0 0 0;
#X connect 4 0 1 0;
#X connect 5 0 8 0;
#X connect 6 0 7 0;
#X connect 10 0 11 0;
#X connect 11 0 12 3;
#X connect 12 0 2 0;
#X connect 13 0 14 0;
#X connect 14 0 10 0;
#X connect 18 0 6 0;
#X connect 18 1 2 0;
#X restore 887 470 pd vu;
#X obj 431 428 clip~ -0.99 0.99;
#N canvas 0 25 1440 847 waveguide_str 0;
#X obj 64 16 inlet;
#X obj 908 804 outlet~;
#X obj 66 61 unpack, f 53;
#X obj 57 119 mtof;
#X obj 28 247 /, f 5;
#X floatatom 131 165 10 0 0 0 - - - 0;
#X floatatom 28 271 12 0 0 0 - - - 0;
#X msg 28 223 1000;
#X msg 151 109 60 100;
#X obj 1238 143 vsl 19 162 200 20000 1 1 \$0-attackBrightness empty empty 0 -9 0 12 #fcfcfc #000000 #000000 16100 1;
#X floatatom 1035 297 6 0 0 0 - - - 0;
#X floatatom 1238 313 7 0 0 0 - - - 0;
#X floatatom 140 231 13 0 0 0 - - - 0;
#X obj 140 207 expr 1000 * 1.011/($f1 + (0.1786*$f1*$f1 / $f2));
#X obj 407 380 r \$0-mediumBrightness;
#X obj 368 168 r \$0-mediumBrightness;
#X obj 1034 98 vsl 19 162 200 20000 1 1 \$0-mediumBrightness empty empty 0 -9 0 12 #fcfcfc #000000 #000000 15000 1;
#X obj 1068 267 r \$0-mediumBrightness;
#X obj 850 302 tgl 19 0 empty empty empty 0 -10 0 12 #fcfcfc #000000 #000000 0 1;
#X obj 813 334 == 0;
#X obj 813 358 sig~ 1;
#X obj 886 350 sig~;
#X obj 928 521 *~;
#X obj 833 587 *~;
#X obj 261 324 line~;
#X obj 923 28 vsl 19 162 0 1 0 0 empty empty empty 0 -9 0 12 #fcfcfc #000000 #000000 0 1;
#X obj 923 198 t b f;
#X obj 923 222 f 1;
#X obj 923 246 -;
#X msg 993 14 0.127236;
#X obj 28 358 -;
#X floatatom 28 382 9 0 0 0 - - - 0;
#X obj 395 667 tgl 19 0 empty empty empty 0 -10 0 12 #fcfcfc #000000 #000000 0 1;
#X obj 395 691 expr if($f1 ==0 \, 1 \, -1);
#X obj 891 742 *~ 1;
#X obj 135 303 pack 0 1;
#X obj 443 238 t b f;
#X obj 367 293 *~;
#X floatatom 471 267 11 0 0 0 - - - 0;
#X msg 417 272 0.75;
#X obj 322 255 osc~ 5;
#X obj 524 197 expr $f1*pow(2 \, 0.25/12) - $f1;
#N canvas 0 25 598 608 nonlinearities 0;
#X obj 142 413 expr~ if($v1 < -1 \, -0.666667 \, if($v1 > 1 \, 0.666667 \, $v1 - pow($v1 \, 3)/3));
#X obj 292 454 expr~ tanh($v1);
#X floatatom 52 208 5 0 0 0 - - - 0;
#X floatatom 183 208 5 0 0 0 - - - 0;
#X obj 77 349 rpole~;
#X obj 77 324 rzero_rev~;
#X obj 102 119 expr~ if($v1<0 \, 1 \, 0) \; if ($v1>=0 \, 1 \, 0);
#X obj 101 254 *~;
#X obj 162 257 *~;
#X obj 101 278 +~;
#X obj 52 231 sig~ 0.1;
#X obj 183 231 sig~ 0.2;
#X obj 63 55 +~;
#X connect 2 0 10 0;
#X connect 3 0 11 0;
#X connect 5 0 4 0;
#X connect 6 0 7 1;
#X connect 6 1 8 0;
#X connect 7 0 9 0;
#X connect 8 0 9 1;
#X connect 9 0 5 1;
#X connect 9 0 4 1;
#X connect 10 0 7 0;
#X connect 11 0 8 1;
#X connect 12 0 6 0;
#X connect 12 0 5 0;
#X restore 286 821 pd nonlinearities;
#X obj 265 618 *~ 1;
#X obj 699 504 +~;
#X obj 265 357 vd~ \$0-waveguide1;
#X obj 242 782 delwrite~ \$0-waveguide1 1000;
#N canvas 208 233 557 433 allpass1 0;
#X floatatom 206 228 5 0 0 0 - - - 0;
#X obj 118 392 rpole~;
#X obj 118 367 rzero_rev~;
#X obj 206 251 sig~ 0.1;
#X obj 104 98 +~;
#X obj 107 24 inlet~;
#X obj 118 416 outlet~;
#X connect 0 0 3 0;
#X connect 1 0 6 0;
#X connect 2 0 1 0;
#X connect 3 0 2 1;
#X connect 3 0 1 1;
#X connect 4 0 2 0;
#X connect 5 0 4 0;
#X restore 96 596 pd allpass1;
#N canvas 208 233 557 433 allpass1 0;
#X floatatom 206 228 5 0 0 0 - - - 0;
#X obj 118 392 rpole~;
#X obj 118 367 rzero_rev~;
#X obj 206 251 sig~ 0.1;
#X obj 104 98 +~;
#X obj 107 24 inlet~;
#X obj 118 416 outlet~;
#X connect 0 0 3 0;
#X connect 1 0 6 0;
#X connect 2 0 1 0;
#X connect 3 0 2 1;
#X connect 3 0 1 1;
#X connect 4 0 2 0;
#X connect 5 0 4 0;
#X restore 123 621 pd allpass1;
#X floatatom 106 131 5 0 0 0 - - - 0;
#X obj 257 654 +~;
#X obj 1098 603 expr~ if($v1 < -1 \, -0.666667 \, if($v1 > 1 \, 0.666667 \, $v1 - pow($v1 \, 3)/3)), f 41;
#N canvas 63 88 450 278 (subpatch) 0;
#X array array1 441 float 3;
#A 0 1 0 0 0 0 0 0 0 0 0 0 0 0 0 0 0 0 0 0 0 0 0 0 0 0 0 0 0 0 0 0 0 0 0 0 0 0 0 0 0 0 0 0 0 0 0 0 0 0 0 0 0 0 0 0 0 0 0 0 0 0 0 0 0 0 0 0 0 0 0 0 0 0 0 0 0 0 0 0 0 0 0 0 0 0 0 0 0 0 0 0 0 0 0 0 0 0 0 0 0 0 0 0 0 0 0 0 0 0 0 0 0 0 0 0 0 0 0 0 0 0 0 0 0 0 0 0 0 0 0 0 0 0 0 0 0 0 0 0 0 0 0 0 0 0 0 0 0 0 0 0 0 0 0 0 0 0 0 0 0 0 0 0 0 0 0 0 0 0 0 0 0 0 0 0 0 0 0 0 0 0 0 0 0 0 0 0 0 0 0 0 0 0 0 0 0 0 0 0 0 0 0 0 0 0 0 0 0 0 0 0 0 0 0 0 0 0 0 0 0 0 0 0 0 0 0 0 0 0 0 0 0 0 0 0 0 0 0 0 0 0 0 0 0 0 0 0 0 0 0 0 0 0 0 0 0 0 0 0 0 0 0 0 0 0 0 0 0 0 0 0 0 0 0 0 0 0 0 0 0 0 0 0 0 0 0 0 0 0 0 0 0 0 0 0 0 0 0 0 0 0 0 0 0 0 0 0 0 0 0 0 0 0 0 0 0 0 0 0 0 0 0 0 0 0 0 0 0 0 0 0 0 0 0 0 0 0 0 0 0 0 0 0 0 0 0 0 0 0 0 0 0 0 0 0 0 0 0 0 0 0 0 0 0 0 0 0 0 0 0 0 0 0 0 0 0 0 0 0 0 0 0 0 0 0 0 0 0 0 0 0 0 0 0 0 0 0 0 0 0 0 0 0 0 0 0 0 0 0 0 0 0 0 0 0 0 0 0 0 0 0 0 0 0 0 0 0 0 0 0 0 0 0 0 0 0 0 0 0 0 0;
#X coords 0 1 441 -1 200 140 1 0 0;
#X restore 1114 387 graph;
#X obj 1114 532;
#X obj 1129 108 tabread array1;
#X floatatom 1143 69 5 0 0 0 - - - 0;
#X floatatom 1129 132 5 0 0 0 - - - 0;
#N canvas 115 124 823 596 excitation 0;
#X obj 84 23 inlet;
#X floatatom 635 157 5 0 0 0 - - - 0;
#X obj 379 220 vline~;
#X obj 87 51 / 127;
#X obj 87 75 * 1;
#X obj 62 229 tabread~ array1;
#X obj 62 203 line~;
#X obj 62 253 lop~, f 22;
#X msg 62 173 0 \, 1 10;
#X obj 188 476 outlet~;
#X obj 11 120 loadbang;
#X msg 11 144 1;
#X obj 88 125 t b f f, f 14;
#X obj 248 220 sig~;
#X obj 248 244 *~;
#X obj 295 307 *~;
#X obj 62 344 *~;
#X obj 195 385 expr~ if($v1 == 0 \, $v2 \, $v3);
#X obj 596 192 tgl 19 0 empty empty empty 0 -10 0 12 #fcfcfc #000000 #000000 0 1;
#X obj 596 216 sig~;
#X floatatom 179 193 5 0 0 0 - - - 0;
#X obj 397 427 r \$0-attackBrightness;
#X obj 187 445 lop~;
#X obj 247 51 r \$0-attackBrightness;
#X obj 179 169 expr $f2*pow(0.1 \, $f1);
#X obj 363 166 pack 0 1 9;
#X msg 363 191 \$1 \$2 \, 0 \$2 \$3;
#X obj 399 98 * 0.1;
#X obj 496 180 * 0.9;
#X obj 293 193 noise~;
#X obj 293 253 bp~ 500 0;
#X obj 585 26 hsl 162 19 0 1 0 0 empty empty empty -2 -10 0 12 #fcfcfc #000000 #000000 0 1;
#X floatatom 736 110 5 0 0 0 - - - 0;
#X obj 577 319 outlet;
#X obj 632 52 expr ($f1 * 1990) + 10 \; $f1*3 \; $f1 * 0.95 + 0.05;
#X obj 293 217 *~;
#X obj 489 27 inlet;
#X obj 458 85 expr $f1 * pow(20 \, $f2);
#X connect 0 0 3 0;
#X connect 2 0 15 1;
#X connect 3 0 4 0;
#X connect 4 0 12 0;
#X connect 4 0 25 0;
#X connect 5 0 7 0;
#X connect 6 0 5 0;
#X connect 7 0 16 0;
#X connect 8 0 6 0;
#X connect 10 0 11 0;
#X connect 11 0 6 0;
#X connect 12 0 8 0;
#X connect 12 1 24 0;
#X connect 12 2 13 0;
#X connect 13 0 14 0;
#X connect 14 0 16 1;
#X connect 15 0 17 2;
#X connect 16 0 17 1;
#X connect 17 0 22 0;
#X connect 18 0 19 0;
#X connect 19 0 17 0;
#X connect 21 0 22 1;
#X connect 22 0 9 0;
#X connect 23 0 24 1;
#X connect 24 0 7 1;
#X connect 24 0 20 0;
#X connect 25 0 26 0;
#X connect 26 0 2 0;
#X connect 27 0 25 1;
#X connect 27 0 33 0;
#X connect 28 0 25 2;
#X connect 29 0 35 0;
#X connect 30 0 14 1;
#X connect 30 0 15 0;
#X connect 31 0 34 0;
#X connect 31 0 37 1;
#X connect 34 1 30 2;
#X connect 34 1 32 0;
#X connect 34 2 35 1;
#X connect 35 0 30 0;
#X connect 36 0 37 0;
#X connect 37 0 28 0;
#X connect 37 0 27 0;
#X restore 604 354 pd excitation;
#N canvas 0 25 1068 575 allpass2 0;
#X obj 107 24 inlet~;
#X obj 118 483 outlet~;
#X floatatom 353 151 5 0 0 0 - - - 0;
#X floatatom 546 163 5 0 0 0 - - - 0;
#X obj 546 186 sig~ 0.2;
#X obj 353 174 sig~ 0.1;
#X obj 118 272 fexpr~ if($x1 + $y1 >= 0 \, $x2*$x1 + $x1[-1] - $x2*$y1[-1] \, $x3*$x1 + $x1[-1] - $x3*$y1[-1]);
#X obj 359 30 hsl 162 19 0 1 0 0 empty empty empty -2 -10 0 12 #fcfcfc #000000 #000000 0 1;
#X obj 593 30 hsl 162 19 0 1 0 0 empty empty empty -2 -10 0 12 #fcfcfc #000000 #000000 0 1;
#X obj 590 54 t b f;
#X obj 67 227 expr~ if($v1 < -1 \, -0.666667 \, if($v1 > 1 \, 0.666667 \, $v1 - pow($v1 \, 3)/3));
#X obj 158 339 expr~ if($v1 < -1 \, -0.666667 \, if($v1 > 1 \, 0.666667 \, $v1 - pow($v1 \, 3)/3));
#X obj 857 87 tgl 19 0 empty empty empty 0 -10 0 12 #fcfcfc #000000 #000000 0 1;
#X obj 857 111 expr if($f1 == 0 \, 1 \, -1) \; if($f1 == 1 \, 1 \, -1) \;;
#X floatatom 857 149 5 0 0 0 - - - 0;
#X floatatom 1028 149 5 0 0 0 - - - 0;
#X obj 546 210 *~ 1;
#X obj 353 198 *~ -1;
#X obj 353 117 expr $f1 * 0.6 * pow(2 \, -1*$f2*0.5);
#X obj 612 116 expr $f1 * 0.6 * pow(2 \, $f2*0.5);
#X connect 0 0 10 0;
#X connect 0 0 6 0;
#X connect 2 0 5 0;
#X connect 3 0 4 0;
#X connect 4 0 16 0;
#X connect 5 0 17 0;
#X connect 6 0 11 0;
#X connect 7 0 18 0;
#X connect 7 0 19 0;
#X connect 8 0 9 0;
#X connect 9 0 18 0;
#X connect 9 0 19 0;
#X connect 9 1 18 1;
#X connect 9 1 19 1;
#X connect 11 0 1 0;
#X connect 12 0 13 0;
#X connect 13 0 14 0;
#X connect 13 0 17 1;
#X connect 13 1 15 0;
#X connect 13 1 16 1;
#X connect 16 0 6 2;
#X connect 17 0 6 1;
#X connect 18 0 2 0;
#X connect 19 0 3 0;
#X restore 163 390 pd allpass2;
#X obj 256 678 hip~ 30;
#X obj 423 322 tgl 19 0 empty empty empty 0 -10 0 12 #fcfcfc #000000 #000000 0 1;
#N canvas 150 175 450 300 gate~ 0;
#X obj 52 20 inlet;
#X obj 105 52 == 0;
#X obj 55 50 sig~;
#X obj 105 76 sig~ 1;
#X obj 217 140 *~;
#X obj 174 140 *~;
#X obj 177 24 inlet~;
#X obj 140 187 outlet~;
#X obj 217 164 outlet~;
#X connect 0 0 2 0;
#X connect 0 0 1 0;
#X connect 1 0 3 0;
#X connect 2 0 5 1;
#X connect 3 0 4 1;
#X connect 4 0 8 0;
#X connect 5 0 7 0;
#X connect 6 0 5 0;
#X connect 6 0 4 0;
#X restore 271 400 pd gate~;
#X obj 102 471 tgl 19 0 empty empty empty 0 -10 0 12 #fcfcfc #000000 #000000 0 1;
#N canvas 150 175 450 300 gate~ 0;
#X obj 52 20 inlet;
#X obj 105 52 == 0;
#X obj 55 50 sig~;
#X obj 105 76 sig~ 1;
#X obj 217 140 *~;
#X obj 174 140 *~;
#X obj 177 24 inlet~;
#X obj 140 187 outlet~;
#X obj 217 164 outlet~;
#X connect 0 0 2 0;
#X connect 0 0 1 0;
#X connect 1 0 3 0;
#X connect 2 0 5 1;
#X connect 3 0 4 1;
#X connect 4 0 8 0;
#X connect 5 0 7 0;
#X connect 6 0 5 0;
#X connect 6 0 4 0;
#X restore 186 502 pd gate~;
#X obj 703 774 rev2~ 100 90 3000 60;
#X obj 238 443 *~ 0.99;
#X obj 604 386 hsl 162 19 0 1 0 0 empty empty empty -2 -10 0 12 #fcfcfc #000000 #000000 0 1;
#N canvas 208 233 988 321 detune 0;
#X obj 198 37 inlet~;
#X obj 203 182 fexpr~ $x2*$x1 + $x1[-1] - $x2*$y1[-1];
#X floatatom 515 118 7 -1 1 0 - - - 0;
#X obj 87 149 fexpr~ $x2*$x1 + $x1[-1] - $x2*$y1[-1];
#X floatatom 427 88 10 -1 1 0 - - - 0;
#X obj 204 209 fexpr~ $x2*$x1 + $x1[-1] - $x2*$y1[-1];
#X obj 204 241 fexpr~ $x2*$x1 + $x1[-1] - $x2*$y1[-1];
#X obj 427 111 sig~ 0;
#X obj 515 141 sig~ 0;
#X floatatom 600 121 10 -1 1 0 - - - 0;
#X obj 600 144 sig~ 0;
#X floatatom 706 131 11 -1 1 0 - - - 0;
#X obj 706 154 sig~ 0;
#X obj 110 265 outlet~;
#X obj 596 7 inlet;
#X obj 572 54 * -0.0025;
#X obj 657 57 * -0.005;
#X obj 763 67 * -0.0075;
#X obj 493 56 * -0.01;
#X connect 0 0 3 0;
#X connect 1 0 5 0;
#X connect 2 0 8 0;
#X connect 3 0 1 0;
#X connect 3 0 13 0;
#X connect 4 0 7 0;
#X connect 5 0 6 0;
#X connect 7 0 3 1;
#X connect 8 0 1 1;
#X connect 9 0 10 0;
#X connect 10 0 5 1;
#X connect 11 0 12 0;
#X connect 12 0 6 1;
#X connect 14 0 15 0;
#X connect 14 0 16 0;
#X connect 14 0 17 0;
#X connect 14 0 18 0;
#X connect 15 0 2 0;
#X connect 16 0 9 0;
#X connect 17 0 11 0;
#X connect 18 0 4 0;
#X restore 186 526 pd detune;
#X obj 608 241 hsl 162 19 0 1 0 0 empty empty empty -2 -10 0 12 #fcfcfc #000000 #000000 0 1;
#X floatatom 605 289 15 0 0 0 - - - 0;
#X obj 753 707 *~ 0.15;
#X obj 601 410 > 0;
#X obj 150 22 t l b;
#X obj 210 51 * 12;
#X obj 210 27 random 3;
#N canvas 179 204 450 300 stringBody 0;
#X obj 37 37 inlet~;
#X obj 39 96 biquad~ 1.6357 -0.8697 1 -1.9537 0.9542;
#X obj 38 69 biquad~ 0.5509 0.3925 1 1.5667 0.3133;
#X obj 40 125 biquad~ 1.7674 -0.8735 1 -1.6683 0.8852;
#X obj 40 157 biquad~ 1.8498 -0.9516 1 -1.8585 0.9653;
#X obj 40 184 biquad~ 1.9354 -0.959 1 -1.9299 0.9621;
#X obj 41 213 biquad~ 1.9867 -0.9923 1 -1.98 0.9888;
#X obj 41 237 outlet~;
#X connect 0 0 2 0;
#X connect 1 0 3 0;
#X connect 2 0 1 0;
#X connect 3 0 4 0;
#X connect 4 0 5 0;
#X connect 5 0 6 0;
#X connect 6 0 7 0;
#X restore 990 457 pd stringBody;
#X obj 605 265 expr pow(($f1*0.99)+0.009 \, 0.03);
#X obj 572 457 delwrite~ \$0-pickPos 1000;
#X obj 574 653 vd~ \$0-pickPos;
#X obj 666 603 hsl 162 19 0 1 0 0 empty empty empty -2 -10 0 12 #fcfcfc #000000 #000000 0 1;
#X obj 28 294 *;
#X obj 588 534 + 0.5;
#X obj 588 558 *;
#X obj 574 677 *~ -1;
#X obj 588 582 pack 0 1;
#X obj 588 606 line~;
#X obj 576 102 expr pow(0.001 \, 1.0/($f1*$f2));
#X obj 730 10 hsl 162 19 0 10 0 0 empty empty empty -2 -10 0 12 #fcfcfc #000000 #000000 0 1;
#X obj 90 192 expr 1/44100;
#X obj 21 160 t b f b, f 12;
#X obj 62 197 +;
#X obj 238 467 lop~;
#X obj 66 85 -;
#X connect 0 0 72 0;
#X connect 2 0 92 0;
#X connect 2 1 57 0;
#X connect 3 0 5 0;
#X connect 3 0 89 0;
#X connect 4 0 6 0;
#X connect 6 0 30 0;
#X connect 6 0 80 0;
#X connect 7 0 4 0;
#X connect 8 0 2 0;
#X connect 9 0 11 0;
#X connect 12 0 41 0;
#X connect 12 0 35 0;
#X connect 12 0 81 0;
#X connect 12 0 57 1;
#X connect 13 0 12 0;
#X connect 14 0 91 1;
#X connect 15 0 13 1;
#X connect 17 0 10 0;
#X connect 18 0 19 0;
#X connect 18 0 21 0;
#X connect 19 0 20 0;
#X connect 20 0 23 1;
#X connect 21 0 22 1;
#X connect 22 0 70 0;
#X connect 22 0 34 0;
#X connect 23 0 34 0;
#X connect 24 0 45 0;
#X connect 25 0 26 0;
#X connect 26 0 27 0;
#X connect 26 1 28 1;
#X connect 27 0 28 0;
#X connect 29 0 25 0;
#X connect 30 0 31 0;
#X connect 32 0 33 0;
#X connect 33 0 43 1;
#X connect 34 0 1 0;
#X connect 35 0 24 0;
#X connect 36 0 39 0;
#X connect 36 1 37 1;
#X connect 36 1 38 0;
#X connect 39 0 40 1;
#X connect 40 0 37 0;
#X connect 41 0 36 0;
#X connect 43 0 50 0;
#X connect 44 0 22 0;
#X connect 44 0 23 0;
#X connect 45 0 61 1;
#X connect 47 0 48 0;
#X connect 48 0 46 0;
#X connect 50 0 59 0;
#X connect 54 0 56 0;
#X connect 55 0 54 0;
#X connect 57 0 46 0;
#X connect 57 0 77 0;
#X connect 57 1 35 1;
#X connect 58 0 65 0;
#X connect 59 0 46 0;
#X connect 59 0 44 0;
#X connect 60 0 61 0;
#X connect 61 0 58 0;
#X connect 61 1 65 0;
#X connect 62 0 63 0;
#X connect 63 0 67 0;
#X connect 63 1 43 0;
#X connect 64 0 1 0;
#X connect 65 0 91 0;
#X connect 66 0 71 0;
#X connect 66 0 67 1;
#X connect 67 0 43 0;
#X connect 68 0 76 0;
#X connect 69 0 65 1;
#X connect 70 0 64 0;
#X connect 71 0 62 0;
#X connect 72 0 2 0;
#X connect 72 1 74 0;
#X connect 74 0 73 0;
#X connect 76 0 69 0;
#X connect 78 0 83 0;
#X connect 79 0 82 1;
#X connect 81 0 82 0;
#X connect 82 0 84 0;
#X connect 83 0 46 0;
#X connect 84 0 85 0;
#X connect 85 0 78 0;
#X connect 86 0 69 0;
#X connect 87 0 86 1;
#X connect 88 0 90 1;
#X connect 89 0 7 0;
#X connect 89 1 90 0;
#X connect 89 1 13 0;
#X connect 89 2 88 0;
#X connect 90 0 4 1;
#X connect 91 0 63 1;
#X connect 92 0 3 0;
#X connect 92 0 49 0;
#X restore 1189 82 pd waveguide_str;
#N canvas 0 25 1440 847 ks 0;
#X obj 211 491 outlet~;
#X obj 524 484 delwrite~ \$0-ks 1000;
#X obj 124 278 vd~ \$0-ks;
#X obj 544 414 inlet~;
#X obj 125 16 inlet~;
#X obj 681 241 inlet~;
#X obj 985 118 vsl 19 162 0.01 10 0 1 empty empty empty 0 -9 0 12 #fcfcfc #000000 #000000 13000 1;
#X obj 276 21 inlet~;
#X obj 409 452 *~;
#X obj 985 312 sig~;
#X obj 276 180 expr~ pow(0.001 \, (1/($v1*$v2)) );
#X obj 987 73 inlet;
#N canvas 259 176 450 300 otherLPF 0;
#X obj 34 200 fexpr~ ($x2 * $x1[-1] + $x3*($x1[0]+$x1[-2]));
#X obj 25 34 inlet~;
#X obj 34 224 outlet~;
#X obj 310 69 expr~ (1+$v1)/2 \; (1-$v1)/4;
#X obj 327 14 inlet~;
#X connect 0 0 2 0;
#X connect 1 0 0 0;
#X connect 3 0 0 1;
#X connect 3 1 0 2;
#X connect 4 0 3 0;
#X restore 222 351 pd otherLPF;
#X f 19;
#X obj 714 174 block~ 4;
#X connect 2 0 12 0;
#X connect 3 0 1 0;
#X connect 4 0 2 0;
#X connect 5 0 12 1;
#X connect 6 0 9 0;
#X connect 7 0 10 0;
#X connect 8 0 1 0;
#X connect 9 0 10 1;
#X connect 10 0 8 1;
#X connect 11 0 6 0;
#X connect 12 0 8 0;
#X connect 12 0 0 0;
#X restore 423 347 pd ks;
#X obj 1123 223 vsl 19 162 0 127 0 0 empty empty empty 0 -9 0 12 #fcfcfc #000000 #000000 0 1;
#X obj 1123 393 / 127;
#X obj 1123 417 s \$0-mBright;
#X obj 882 411 catch~ \$0-l;
#X obj 608 378 throw~ \$0-l;
#X obj 339 389 throw~ \$0-r;
#X obj 762 420 catch~ \$0-r;
#N canvas 640 375 795 481 excite 1;
#X obj 301 61 noise~;
#X obj 553 154 / 127;
#X obj 223 90 / 127;
#X obj 417 311 tgl 19 0 empty empty empty 0 -10 0 12 #fcfcfc #000000 #000000 0 1;
#X obj 417 335 expr $f1 \; 1-$f1;
#X obj 417 373 sig~;
#X obj 474 377 sig~ 1;
#X obj 64 21 inlet;
#X obj 64 45 unpack, f 21;
#X obj 204 406 outlet~;
#X obj 553 124 inlet;
#X obj 64 69 expr 1000/ $f1;
#X obj 239 266 *~;
#X obj 629 7 vsl 19 162 0 1 0 0 empty empty empty 0 -9 0 12 #fcfcfc #000000 #000000 0 1;
#X obj 706 270 tgl 19 0 empty empty empty 0 -10 0 12 #fcfcfc #000000 #000000 0 1;
#X obj 706 294 metro 50;
#X obj 706 318 snapshot~;
#X floatatom 706 342 11 0 0 0 - - - 0;
#X obj 588 379 expr~ sin($v1*2*3.1415);
#X obj 375 232 expr~ 1- $v1*0.99 \; $v1*0.99 +0.01;
#X floatatom 553 202 7 0 0 0 - - - 0;
#X obj 553 178 expr 200*pow(2 \, $f1*6);
#X obj 111 143 pack;
#X obj 111 191 vline~;
#X floatatom 64 93 5 0 0 0 - - - 0;
#X floatatom 223 114 5 0 0 0 - - - 0;
#X msg 111 167 \$2 1 \, 0 \$1 1;
#X obj 271 162 lop~ 3000;
#X connect 0 0 27 0;
#X connect 1 0 19 0;
#X connect 1 0 21 0;
#X connect 2 0 22 1;
#X connect 2 0 25 0;
#X connect 3 0 4 0;
#X connect 4 0 5 0;
#X connect 4 1 6 0;
#X connect 7 0 8 0;
#X connect 8 0 11 0;
#X connect 8 1 2 0;
#X connect 10 0 1 0;
#X connect 11 0 22 0;
#X connect 11 0 24 0;
#X connect 12 0 9 0;
#X connect 13 0 18 0;
#X connect 14 0 15 0;
#X connect 15 0 16 0;
#X connect 16 0 17 0;
#X connect 18 0 16 0;
#X connect 20 0 27 1;
#X connect 21 0 20 0;
#X connect 22 0 26 0;
#X connect 23 0 12 0;
#X connect 26 0 23 0;
#X connect 27 0 12 1;
#X restore 671 209 pd excite;
#X obj 826 143 hsl 162 19 0 127 0 0 empty empty empty -2 -10 0 12 #fcfcfc #000000 #000000 0 1;
#X floatatom 823 167 5 0 0 0 - - - 0;
#X obj 1265 425 s~ \$0-lev;
#X obj 484 378 r~ \$0-lev;
#X obj 208 370 r~ \$0-lev;
#X obj 439 523 -~;
#X obj 554 443 tgl 19 1 empty empty empty 0 -10 0 12 #fcfcfc #000000 #000000 1 1;
#X obj 554 467 expr 1-$f1 \; $f1;
#X obj 460 472 sig~ 1;
#X obj 626 570 sig~;
#X obj 439 547 *~;
#X obj 284 525 *~;
#X obj 356 529 *~;
#X obj 507 132 mtof;
#X obj 509 229 line~;
#X floatatom 377 743 9 0 0 0 - - - 0;
#X obj 509 205 pack 0 10;
#X obj 360 224 r \$0-mBright;
#X obj 353 270 sig~;
#X obj 574 516 tgl 19 0 empty empty empty 0 -10 0 12 #fcfcfc #000000 #000000 0 1;
#X obj 643 515 tgl 19 0 empty empty empty 0 -10 0 12 #fcfcfc #000000 #000000 0 1;
#X obj 50 550 rev2~ 100 90 3000 50;
#X obj 514 735 unpack;
#X floatatom 514 785 7 0 0 0 - - - 0;
#X floatatom 528 762 7 0 0 0 - - - 0;
#X floatatom 445 743 8 0 0 0 - - - 0;
#N canvas 0 25 1440 847 waveguide1 0;
#X obj 147 581 outlet~;
#X obj 534 355 +~;
#X obj 259 351 vd~ \$0-wave1;
#X obj 516 424 delwrite~ \$0-wave1 1000;
#X obj 68 208 vd~ \$0-wave2;
#X obj 241 423 +~;
#X obj 664 776 delwrite~ \$0-wave2 1000;
#X floatatom 390 129 5 0 0 0 - - - 0;
#X msg 164 18 128;
#X floatatom 326 395 5 0 0 0 - - - 0;
#X floatatom 526 213 5 0 0 0 - - - 0;
#X obj 164 42 / 44.1;
#X floatatom 257 94 5 0 0 0 - - - 0;
#X obj 1132 6 vsl 19 162 0 1 0 1 empty empty empty 0 -9 0 12 #fcfcfc #000000 #000000 1900 1;
#X obj 695 659 hip~ 20;
#X obj 830 456 tgl 19 0 empty empty empty 0 -10 0 12 #fcfcfc #000000 #000000 0 1;
#X obj 830 480 expr if($f1==1 \, -1 \, 1);
#X obj 1218 401 tgl 19 0 \$0-inharm1 empty inharm1 0 -10 0 12 #fcfcfc #000000 #000000 0 1;
#N canvas 121 146 756 496 inharm1 0;
#X obj 37 37 inlet~;
#X obj 252 41 inlet;
#X obj 219 314 outlet~;
#X obj 48 206 expr~ if($v1 < -1 \, -0.666667 \, if($v1 > 1 \, 0.666667 \, $v1 - pow($v1 \, 3)/3)), f 15;
#X obj 252 65 expr $f1 \; 1-$f1;
#X obj 253 110 sig~;
#X obj 316 119 sig~ 1;
#X obj 48 180 *~;
#X obj 218 168 *~;
#X connect 0 0 7 0;
#X connect 0 0 8 0;
#X connect 1 0 4 0;
#X connect 3 0 2 0;
#X connect 4 0 5 0;
#X connect 4 1 6 0;
#X connect 5 0 7 1;
#X connect 6 0 8 1;
#X connect 7 0 3 0;
#X connect 8 0 2 0;
#X restore 284 521 pd inharm1;
#X obj 374 489 r \$0-inharm1;
#X obj 1219 449 tgl 19 0 \$0-inharm2 empty inharm2 0 -10 0 12 #fcfcfc #000000 #000000 0 1;
#N canvas 121 146 450 300 inharm2 0;
#X obj 37 37 inlet~;
#X obj 242 3 inlet;
#X obj 74 247 outlet~;
#X obj 242 27 expr $f1 \; 1-$f1;
#X obj 37 61 *~;
#N canvas 0 25 1068 575 allpass2 0;
#X obj 107 24 inlet~;
#X obj 118 483 outlet~;
#X floatatom 353 151 5 0 0 0 - - - 0;
#X floatatom 546 163 5 0 0 0 - - - 0;
#X obj 546 186 sig~ 0.2;
#X obj 353 174 sig~ 0.1;
#X obj 118 272 fexpr~ if($x1 + $y1 >= 0 \, $x2*$x1 + $x1[-1] - $x2*$y1[-1] \, $x3*$x1 + $x1[-1] - $x3*$y1[-1]);
#X obj 359 30 hsl 162 19 0 1 0 0 empty empty empty -2 -10 0 12 #fcfcfc #000000 #000000 0 1;
#X obj 593 30 hsl 162 19 0 1 0 0 empty empty empty -2 -10 0 12 #fcfcfc #000000 #000000 0 1;
#X obj 590 54 t b f;
#X obj 857 87 tgl 19 0 empty empty empty 0 -10 0 12 #fcfcfc #000000 #000000 0 1;
#X obj 857 111 expr if($f1 == 0 \, 1 \, -1) \; if($f1 == 1 \, 1 \, -1) \;;
#X floatatom 857 149 5 0 0 0 - - - 0;
#X floatatom 1028 149 5 0 0 0 - - - 0;
#X obj 546 210 *~ 1;
#X obj 353 198 *~ -1;
#X obj 353 117 expr $f1 * 0.6 * pow(2 \, -1*$f2*0.5);
#X obj 612 116 expr $f1 * 0.6 * pow(2 \, $f2*0.5);
#X connect 0 0 6 0;
#X connect 2 0 5 0;
#X connect 3 0 4 0;
#X connect 4 0 14 0;
#X connect 5 0 15 0;
#X connect 6 0 1 0;
#X connect 7 0 16 0;
#X connect 7 0 17 0;
#X connect 8 0 9 0;
#X connect 9 0 16 0;
#X connect 9 0 17 0;
#X connect 9 1 16 1;
#X connect 9 1 17 1;
#X connect 10 0 11 0;
#X connect 11 0 12 0;
#X connect 11 0 15 1;
#X connect 11 1 13 0;
#X connect 11 1 14 1;
#X connect 14 0 6 2;
#X connect 15 0 6 1;
#X connect 16 0 2 0;
#X connect 17 0 3 0;
#X restore 41 114 pd allpass2;
#X obj 231 74 sig~;
#X obj 294 83 sig~ 1;
#X obj 167 138 *~;
#X connect 0 0 4 0;
#X connect 0 0 8 0;
#X connect 1 0 3 0;
#X connect 3 0 6 0;
#X connect 3 1 7 0;
#X connect 4 0 5 0;
#X connect 5 0 2 0;
#X connect 6 0 4 1;
#X connect 7 0 8 1;
#X connect 8 0 2 0;
#X restore 294 583 pd inharm2;
#X obj 384 551 r \$0-inharm2;
#X obj 695 683 *~ 1, f 13;
#X obj 483 6 inlet~;
#X obj 526 260 sig~;
#X obj 526 284 *~, f 10;
#X floatatom 757 133 5 0 0 0 - - - 0;
#X obj 758 193 sig~;
#X obj 708 239 *~, f 10;
#X obj 757 156 expr if($f1 > 0 \, 0 \, 1);
#X obj 526 236 expr if($f1 == 0 \, 0 \, 1);
#X floatatom 797 180 5 0 0 0 - - - 0;
#X obj 64 16 inlet~;
#X obj 256 163 *~ 0.5;
#X obj 655 312 inlet~;
#X obj 1165 249 s \$0-2ndWave;
#X obj 1008 5 vsl 19 162 0 127 0 0 empty empty empty 0 -9 0 12 #fcfcfc #000000 #000000 0 1;
#X obj 1008 175 / 127;
#X obj 1008 199 s \$0-W2mult;
#X obj 298 118 r \$0-W2mult;
#X obj 754 14 r \$0-2ndWave;
#X obj 323 154 r \$0-2ndWave;
#X floatatom 566 260 5 0 0 0 - - - 0;
#X obj 865 315 fexpr~ $y1[-1] + $x2[0]*($x[0] - $y1[-1]);
#N canvas 295 320 450 300 otherLPF 0;
#X obj 140 75 expr (1+$f1)/2 \; (1-$f1)/4;
#X obj 166 112 sig~;
#X obj 237 115 sig~;
#X obj 34 200 fexpr~ ($x2 * $x1[-1] + $x3*($x1[0]+$x1[-2]));
#X floatatom 140 33 5 0 0 0 - - - 0;
#X obj 215 25 inlet;
#X obj 25 34 inlet~;
#X obj 34 224 outlet~;
#X obj 310 69 expr~ (1+$v1)/2 \; (1-$v1)/4;
#X obj 327 14 inlet~;
#X connect 0 0 1 0;
#X connect 0 1 2 0;
#X connect 1 0 3 1;
#X connect 2 0 3 2;
#X connect 3 0 7 0;
#X connect 5 0 0 0;
#X connect 6 0 3 0;
#X connect 8 0 3 1;
#X connect 8 1 3 2;
#X connect 9 0 8 0;
#X restore 988 437 pd otherLPF;
#X obj 533 381 fexpr~ $y1[-1] + $x2[0]*($x[0] - $y1[-1]);
#X obj 243 455 fexpr~ $y1[-1] + $x2[0]*($x[0] - $y1[-1]);
#X floatatom 1071 239 5 0 0 0 - - - 0;
#X obj 294 637 *~ 1;
#X obj 166 368 *~;
#X obj 419 289 *~;
#X obj 418 189 expr 1 - $f1;
#X obj 417 217 sig~;
#X obj 193 275 sig~ 1;
#X obj 539 111 +~;
#X obj 1402 255 vsl 19 162 0.9 1.2 0 0 empty empty empty 0 -9 0 12 #fcfcfc #000000 #000000 0 1;
#X obj 1402 471 s \$0-sus;
#X floatatom 1320 477 5 0 0 0 - - - 0;
#X obj 403 616 r \$0-sus;
#X floatatom 1275 275 5 0 0 0 - - - 0;
#X floatatom 458 213 5 0 0 0 - - - 0;
#X obj 753 69 expr 0.99*(1 - $f1);
#X obj 381 249 *~ 1;
#X obj 1243 232 expr 1 +( (1- $f1)*0.25 );
#X floatatom 1132 176 5 0 0 0 - - - 0;
#X obj 1165 194 expr pow(1 - $f1*0.9 \, 0.5), f 17;
#X connect 1 0 46 0;
#X connect 2 0 5 1;
#X connect 4 0 50 0;
#X connect 4 0 63 0;
#X connect 5 0 47 0;
#X connect 8 0 11 0;
#X connect 10 0 31 0;
#X connect 13 0 65 0;
#X connect 13 0 66 0;
#X connect 14 0 23 0;
#X connect 15 0 16 0;
#X connect 16 0 23 1;
#X connect 18 0 21 0;
#X connect 19 0 18 1;
#X connect 21 0 49 0;
#X connect 22 0 21 1;
#X connect 23 0 6 0;
#X connect 24 0 55 0;
#X connect 25 0 26 0;
#X connect 26 0 1 1;
#X connect 27 0 30 0;
#X connect 28 0 29 1;
#X connect 29 0 14 0;
#X connect 30 0 28 0;
#X connect 30 0 32 0;
#X connect 31 0 25 0;
#X connect 31 0 43 0;
#X connect 33 0 4 0;
#X connect 33 0 34 0;
#X connect 34 0 2 0;
#X connect 35 0 47 1;
#X connect 35 0 46 1;
#X connect 37 0 38 0;
#X connect 38 0 39 0;
#X connect 40 0 34 1;
#X connect 41 0 62 0;
#X connect 42 0 9 0;
#X connect 42 0 52 0;
#X connect 42 0 54 0;
#X connect 46 0 3 0;
#X connect 47 0 0 0;
#X connect 47 0 18 0;
#X connect 49 0 14 0;
#X connect 50 0 5 0;
#X connect 51 0 1 0;
#X connect 52 0 53 0;
#X connect 52 0 61 0;
#X connect 53 0 51 1;
#X connect 54 0 50 1;
#X connect 55 0 26 1;
#X connect 55 0 29 0;
#X connect 56 0 57 0;
#X connect 56 0 58 0;
#X connect 59 0 49 1;
#X connect 62 0 27 0;
#X connect 62 0 10 0;
#X connect 63 0 51 0;
#X connect 64 0 60 0;
#X connect 66 0 36 0;
#X connect 66 0 48 0;
#X connect 66 0 64 0;
#X restore 369 806 pd waveguide1;
#N canvas 0 25 1440 847 waveguide2 0;
#X obj 241 538 outlet~;
#X obj 64 16 inlet~;
#X obj 242 113 delwrite~ \$0-s1 1000;
#X obj 698 225 vd~ \$0-s1;
#X obj 239 43 inlet~;
#X obj 93 362 delwrite~ \$0-s2 1000;
#X obj 94 222 vd~ \$0-s2;
#N canvas 295 320 450 300 otherLPF 0;
#X obj 140 75 expr (1+$f1)/2 \; (1-$f1)/4;
#X obj 166 112 sig~;
#X obj 237 115 sig~;
#X obj 34 200 fexpr~ ($x2 * $x1[-1] + $x3*($x1[0]+$x1[-2]));
#X floatatom 140 33 5 0 0 0 - - - 0;
#X obj 215 25 inlet;
#X obj 25 34 inlet~;
#X obj 34 224 outlet~;
#X obj 310 69 expr~ (1+$v1)/2 \; (1-$v1)/4;
#X obj 327 14 inlet~;
#X connect 0 0 1 0;
#X connect 0 1 2 0;
#X connect 1 0 3 1;
#X connect 2 0 3 2;
#X connect 3 0 7 0;
#X connect 5 0 0 0;
#X connect 6 0 3 0;
#X connect 8 0 3 1;
#X connect 8 1 3 2;
#X connect 9 0 8 0;
#X restore 778 295 pd otherLPF;
#X f 19;
#X obj 899 23 inlet~;
#X obj 491 129 sig~ 1;
#X obj 552 133 sig~;
#N canvas 121 146 673 392 allpass8_2 0;
#X obj 44 96 fexpr~ $x2*$x1 + $x1[-1] - $x2*$y1[-1];
#X obj 44 124 fexpr~ $x2*$x1 + $x1[-1] - $x2*$y1[-1];
#X obj 46 149 fexpr~ $x2*$x1 + $x1[-1] - $x2*$y1[-1];
#X obj 46 177 fexpr~ $x2*$x1 + $x1[-1] - $x2*$y1[-1];
#X obj 46 205 fexpr~ $x2*$x1 + $x1[-1] - $x2*$y1[-1];
#X obj 46 233 fexpr~ $x2*$x1 + $x1[-1] - $x2*$y1[-1];
#X obj 46 45 fexpr~ $x2*$x1 + $x1[-1] - $x2*$y1[-1];
#X obj 46 70 fexpr~ $x2*$x1 + $x1[-1] - $x2*$y1[-1];
#X obj 63 15 inlet~;
#X obj 46 260 outlet~;
#X obj 344 14 inlet~;
#X msg 439 8 clear y1 \, clear x1;
#X connect 0 0 1 0;
#X connect 1 0 2 0;
#X connect 2 0 3 0;
#X connect 3 0 4 0;
#X connect 4 0 5 0;
#X connect 5 0 9 0;
#X connect 6 0 7 0;
#X connect 7 0 0 0;
#X connect 8 0 6 0;
#X connect 10 0 6 1;
#X connect 10 0 7 1;
#X connect 10 0 5 1;
#X connect 10 0 4 1;
#X connect 10 0 3 1;
#X connect 10 0 2 1;
#X connect 10 0 1 1;
#X connect 10 0 0 1;
#X connect 11 0 6 0;
#X connect 11 0 7 0;
#X connect 11 0 5 0;
#X connect 11 0 4 0;
#X connect 11 0 3 0;
#X connect 11 0 2 0;
#X connect 11 0 1 0;
#X connect 11 0 0 0;
#X restore 779 262 pd allpass8_2;
#X obj 533 12 hradio 19 1 0 8 empty empty empty 0 -10 0 12 #fcfcfc #000000 #000000 0;
#X obj 533 36 == 0;
#X obj 579 45 == 1;
#X obj 631 54 == 2;
#X obj 627 125 sig~;
#X floatatom 862 165 5 -0.99 1 0 - - - 0;
#X obj 768 209 sig~ 1;
#X obj 1019 126 vsl 19 162 0 1 0 0 empty empty empty 0 -9 0 12 #fcfcfc #000000 #000000 0 1;
#X obj 1075 125 vsl 19 162 0 1 0 0 empty empty empty 0 -9 0 12 #fcfcfc #000000 #000000 0 1;
#X obj 1019 356 expr ($f2-$f1) / ($f2+$f1);
#X obj 1075 295 t b f;
#X obj 298 197 vd~ \$0-s3;
#X obj 9 299 delwrite~ \$0-s3 1000;
#X obj 165 86 vd~ \$0-s4;
#X obj 530 427 delwrite~ \$0-s4 1000;
#X obj 890 399 s \$0-k1;
#X obj 703 113 r \$0-k1;
#X obj 190 217 r \$0-k1;
#X obj 190 265 sig~;
#X obj 556 347 r \$0-k1;
#X obj 556 371 sig~;
#X obj 556 395 *~;
#X obj 190 241 + 1;
#X obj 190 289 *~;
#X obj 255 240 * -1;
#X obj 255 264 sig~;
#X obj 255 288 *~, f 7;
#X obj 703 137 expr 1 - $f1;
#X obj 703 161 sig~;
#X obj 438 270 *~;
#X floatatom 1019 380 5 0 0 0 - - - 0;
#X obj 693 327 *~ 0.98;
#X obj 105 118 *~ 0.5;
#X obj 64 40 *~ 1;
#X connect 1 0 45 0;
#X connect 3 0 43 0;
#X connect 4 0 2 0;
#X connect 6 0 24 0;
#X connect 7 0 43 0;
#X connect 8 0 7 2;
#X connect 11 0 7 0;
#X connect 12 0 13 0;
#X connect 12 0 14 0;
#X connect 12 0 15 0;
#X connect 13 0 9 0;
#X connect 14 0 10 0;
#X connect 15 0 16 0;
#X connect 17 0 18 0;
#X connect 18 0 11 1;
#X connect 19 0 21 0;
#X connect 20 0 22 0;
#X connect 21 0 27 0;
#X connect 21 0 42 0;
#X connect 22 0 21 0;
#X connect 22 1 21 1;
#X connect 23 0 38 1;
#X connect 23 0 41 0;
#X connect 25 0 2 0;
#X connect 25 0 0 0;
#X connect 28 0 39 0;
#X connect 29 0 34 0;
#X connect 29 0 36 0;
#X connect 30 0 35 0;
#X connect 31 0 32 0;
#X connect 32 0 33 0;
#X connect 33 0 26 0;
#X connect 34 0 30 0;
#X connect 35 0 5 0;
#X connect 36 0 37 0;
#X connect 37 0 38 0;
#X connect 38 0 5 0;
#X connect 39 0 40 0;
#X connect 40 0 41 1;
#X connect 41 0 26 0;
#X connect 43 0 33 1;
#X connect 43 0 35 1;
#X connect 44 0 6 0;
#X connect 44 0 25 0;
#X connect 44 0 23 0;
#X connect 44 0 3 0;
#X connect 45 0 44 0;
#X restore 475 817 pd waveguide2;
#X obj 509 27 t l l, f 53;
#X msg 509 56 \$1;
#X floatatom 646 134 5 0 0 0 - - - 0;
#X obj 508 167 expr 1000/$f1 - $f2;
#X obj 455 707 fiddle~ 4096 1 20 3;
#X obj 444 235 sig~;
#X obj 960 52 expr 2/44.1;
#X floatatom 960 76 5 0 0 0 - - - 0;
#X obj 960 99 expr 1/ $f1;
#X floatatom 960 123 5 0 0 0 - - - 0;
#X obj 1067 56 expr 44.1/2;
#X floatatom 1067 80 9 0 0 0 - - - 0;
#X obj 1051 13 bng 19 250 50 0 empty empty empty 0 -10 0 12 #fcfcfc #000000 #000000;
#X floatatom 1012 538 5 0 0 0 - - - 0;
#X obj 377 766 -;
#X floatatom 377 790 5 0 0 0 - - - 0;
#X obj 509 80 t f b, f 18;
#X obj 445 766 t b f;
#X msg 130 278 64 80;
#X msg 187 275 67 80;
#X msg 253 275 72 80;
#X obj 195 17 metro 2000;
#N canvas 0 25 1440 847 waveguide0 0;
#X obj 16 432 outlet~;
#X obj 64 16 inlet~;
#X obj 460 529 inlet~;
#N canvas 295 320 450 300 otherLPF 0;
#X obj 140 75 expr (1+$f1)/2 \; (1-$f1)/4;
#X obj 166 112 sig~;
#X obj 237 115 sig~;
#X obj 34 200 fexpr~ ($x2 * $x1[-1] + $x3*($x1[0]+$x1[-2]));
#X floatatom 140 33 5 0 0 0 - - - 0;
#X obj 215 25 inlet;
#X obj 25 34 inlet~;
#X obj 34 224 outlet~;
#X obj 310 69 expr~ (1+$v1)/2 \; (1-$v1)/4;
#X obj 327 14 inlet~;
#X connect 0 0 1 0;
#X connect 0 1 2 0;
#X connect 1 0 3 1;
#X connect 2 0 3 2;
#X connect 3 0 7 0;
#X connect 5 0 0 0;
#X connect 6 0 3 0;
#X connect 8 0 3 1;
#X connect 8 1 3 2;
#X connect 9 0 8 0;
#X restore 244 564 pd otherLPF;
#X f 19;
#X obj 899 23 inlet~;
#N canvas 121 146 673 392 allpass8_2 0;
#X obj 44 96 fexpr~ $x2*$x1 + $x1[-1] - $x2*$y1[-1];
#X obj 44 124 fexpr~ $x2*$x1 + $x1[-1] - $x2*$y1[-1];
#X obj 46 149 fexpr~ $x2*$x1 + $x1[-1] - $x2*$y1[-1];
#X obj 46 177 fexpr~ $x2*$x1 + $x1[-1] - $x2*$y1[-1];
#X obj 46 205 fexpr~ $x2*$x1 + $x1[-1] - $x2*$y1[-1];
#X obj 46 233 fexpr~ $x2*$x1 + $x1[-1] - $x2*$y1[-1];
#X obj 46 45 fexpr~ $x2*$x1 + $x1[-1] - $x2*$y1[-1];
#X obj 46 70 fexpr~ $x2*$x1 + $x1[-1] - $x2*$y1[-1];
#X obj 63 15 inlet~;
#X obj 46 260 outlet~;
#X obj 344 14 inlet~;
#X msg 439 8 clear y1 \, clear x1;
#X connect 0 0 1 0;
#X connect 1 0 2 0;
#X connect 2 0 3 0;
#X connect 3 0 4 0;
#X connect 4 0 5 0;
#X connect 5 0 9 0;
#X connect 6 0 7 0;
#X connect 7 0 0 0;
#X connect 8 0 6 0;
#X connect 10 0 6 1;
#X connect 10 0 7 1;
#X connect 10 0 5 1;
#X connect 10 0 4 1;
#X connect 10 0 3 1;
#X connect 10 0 2 1;
#X connect 10 0 1 1;
#X connect 10 0 0 1;
#X connect 11 0 6 0;
#X connect 11 0 7 0;
#X connect 11 0 5 0;
#X connect 11 0 4 0;
#X connect 11 0 3 0;
#X connect 11 0 2 0;
#X connect 11 0 1 0;
#X connect 11 0 0 0;
#X restore 246 531 pd allpass8_2;
#X obj 533 12 hradio 19 1 0 8 empty empty empty 0 -10 0 12 #fcfcfc #000000 #000000 0;
#X obj 533 36 == 0;
#X obj 579 45 == 1;
#X obj 631 54 == 2;
#X obj 198 244 vd~ \$0-oneMulti2;
#X obj 80 266 vd~ \$0-oneMulti1;
#X obj 166 330 -~;
#X obj 1019 126 vsl 19 162 0 1 0 0 empty empty empty 0 -9 0 12 #fcfcfc #000000 #000000 0 1;
#X obj 1075 125 vsl 19 162 0 1 0 0 empty empty empty 0 -9 0 12 #fcfcfc #000000 #000000 0 1;
#X obj 1019 356 expr ($f2-$f1) / ($f2+$f1);
#X obj 1075 295 t b f;
#X obj 890 399 s \$0-k1;
#X floatatom 1019 380 5 0 0 0 - - - 0;
#X obj 256 291 r \$0-k1;
#X obj 256 315 sig~;
#X obj 166 354 *~;
#X obj 125 392 +~;
#X obj 213 394 +~;
#X obj 534 107 tgl 19 0 empty empty empty 0 -10 0 12 #fcfcfc #000000 #000000 0 1;
#X obj 534 131 metro 50;
#X obj 534 155 snapshot~;
#X floatatom 534 179 10 0 0 0 - - - 0;
#X floatatom 438 277 5 -0.999 1 0 - - - 0;
#X obj 438 300 sig~ 1;
#X obj 256 4 hsl 162 19 0 1 0 0 empty empty empty -2 -10 0 12 #fcfcfc #000000 #000000 0 1;
#X obj 200 157 *~;
#X obj 121 466 tgl 19 0 empty empty empty 0 -10 0 12 #fcfcfc #000000 #000000 0 1;
#X obj 121 528 *~;
#X obj 184 532 *~;
#X obj 314 462 *~;
#X obj 419 451 *~;
#X obj 714 174 block~ 4;
#X obj 904 140 vsl 19 162 -1 1 0 0 empty empty empty 0 -9 0 12 #fcfcfc #000000 #000000 0 1;
#X floatatom 904 310 5 0 0 0 - - - 0;
#N canvas 295 320 450 300 otherLPF 0;
#X obj 140 75 expr (1+$f1)/2 \; (1-$f1)/4;
#X obj 166 112 sig~;
#X obj 237 115 sig~;
#X obj 34 200 fexpr~ ($x2 * $x1[-1] + $x3*($x1[0]+$x1[-2]));
#X floatatom 140 33 5 0 0 0 - - - 0;
#X obj 215 25 inlet;
#X obj 25 34 inlet~;
#X obj 34 224 outlet~;
#X obj 310 69 expr~ (1+$v1)/2 \; (1-$v1)/4;
#X obj 327 14 inlet~;
#X connect 0 0 1 0;
#X connect 0 1 2 0;
#X connect 1 0 3 1;
#X connect 2 0 3 2;
#X connect 3 0 7 0;
#X connect 5 0 0 0;
#X connect 6 0 3 0;
#X connect 8 0 3 1;
#X connect 8 1 3 2;
#X connect 9 0 8 0;
#X restore 529 519 pd otherLPF;
#X f 19;
#N canvas 121 146 673 392 allpass8_2 0;
#X obj 44 96 fexpr~ $x2*$x1 + $x1[-1] - $x2*$y1[-1];
#X obj 44 124 fexpr~ $x2*$x1 + $x1[-1] - $x2*$y1[-1];
#X obj 46 149 fexpr~ $x2*$x1 + $x1[-1] - $x2*$y1[-1];
#X obj 46 177 fexpr~ $x2*$x1 + $x1[-1] - $x2*$y1[-1];
#X obj 46 205 fexpr~ $x2*$x1 + $x1[-1] - $x2*$y1[-1];
#X obj 46 233 fexpr~ $x2*$x1 + $x1[-1] - $x2*$y1[-1];
#X obj 46 45 fexpr~ $x2*$x1 + $x1[-1] - $x2*$y1[-1];
#X obj 46 70 fexpr~ $x2*$x1 + $x1[-1] - $x2*$y1[-1];
#X obj 63 15 inlet~;
#X obj 46 260 outlet~;
#X obj 344 14 inlet~;
#X msg 439 8 clear y1 \, clear x1;
#X connect 0 0 1 0;
#X connect 1 0 2 0;
#X connect 2 0 3 0;
#X connect 3 0 4 0;
#X connect 4 0 5 0;
#X connect 5 0 9 0;
#X connect 6 0 7 0;
#X connect 7 0 0 0;
#X connect 8 0 6 0;
#X connect 10 0 6 1;
#X connect 10 0 7 1;
#X connect 10 0 5 1;
#X connect 10 0 4 1;
#X connect 10 0 3 1;
#X connect 10 0 2 1;
#X connect 10 0 1 1;
#X connect 10 0 0 1;
#X connect 11 0 6 0;
#X connect 11 0 7 0;
#X connect 11 0 5 0;
#X connect 11 0 4 0;
#X connect 11 0 3 0;
#X connect 11 0 2 0;
#X connect 11 0 1 0;
#X connect 11 0 0 0;
#X restore 552 443 pd allpass8_2;
#X obj 351 218 tgl 19 0 empty empty empty 0 -10 0 12 #fcfcfc #000000 #000000 0 1;
#X obj 351 242 expr if($f1 == 0 \, 1 \, -1);
#X obj 351 266 sig~ 1;
#X obj 454 57 * -4;
#X obj 454 81 + 1;
#X obj 121 490 expr~ $v1 \; 1 - $v1;
#X obj 253 66 +~;
#X obj 317 68 +~;
#X obj 507 588 *~ 1;
#X obj 390 631 *~ -1;
#X obj 62 132 *~;
#X obj 428 157 snapshot~;
#X floatatom 428 181 10 0 0 0 - - - 0;
#X obj 1038 407 vsl 19 162 0.01 10 0 1 empty empty empty 0 -9 0 12 #fcfcfc #000000 #000000 16100 1;
#X obj 752 439 inlet~;
#X obj 1038 601 sig~;
#X obj 752 598 expr~ pow(0.001 \, (1/($v1*$v2)) );
#X obj 566 584 *~;
#X obj 244 588 *~;
#X obj 244 612 *~ 1;
#X obj 839 441 tgl 19 0 empty empty empty 0 -10 0 12 #fcfcfc #000000 #000000 0 1;
#X obj 839 465 expr if($f1 == 0 \, 1 \, -1);
#X obj 566 608 *~ 1;
#X obj 553 663 delwrite~ \$0-oneMulti1 1000;
#X obj 245 665 delwrite~ \$0-oneMulti2 1000;
#X msg 439 0 0.5;
#X obj 16 177 hradio 19 1 0 8 empty empty empty 0 -10 0 12 #fcfcfc #000000 #000000 0;
#X obj 11 329 *~;
#X obj 51 351 *~;
#X obj 84 352 *~;
#X obj 151 24 osc~ 0.1;
#X obj 151 48 *~ 0.1;
#X obj 1000 25 tgl 19 0 empty empty empty 0 -10 0 12 #fcfcfc #000000 #000000 0 1;
#X obj 1000 49 expr $f1 \; 1-$f1;
#X obj 125 354 *~;
#X obj 16 201 expr~ $v1 == 0 \; $v1 == 1 \; $v1 == 2 \; $v1 == 3, f 21;
#X obj 254 27 expr~ 0.5+0.4*$v1 \; 0.5-0.4*$v1;
#N canvas 63 88 450 300 scatter 0;
#X obj 129 33 inlet~;
#X obj 238 34 inlet~;
#X obj 348 37 inlet~;
#X obj 197 102 -~;
#X obj 197 126 *~, f 6;
#X obj 156 164 +~;
#X obj 244 166 +~;
#X obj 156 188 outlet~;
#X obj 244 190 outlet~;
#X connect 0 0 3 0;
#X connect 0 0 5 0;
#X connect 1 0 3 1;
#X connect 1 0 6 1;
#X connect 2 0 4 1;
#X connect 3 0 4 0;
#X connect 4 0 6 0;
#X connect 4 0 5 1;
#X connect 5 0 7 0;
#X connect 6 0 8 0;
#X restore 855 731 pd scatter;
#X connect 1 0 31 0;
#X connect 1 0 52 0;
#X connect 2 0 50 0;
#X connect 2 0 51 0;
#X connect 3 0 60 0;
#X connect 4 0 3 2;
#X connect 4 0 40 2;
#X connect 5 0 3 0;
#X connect 6 0 7 0;
#X connect 6 0 8 0;
#X connect 6 0 9 0;
#X connect 10 0 12 1;
#X connect 10 0 23 1;
#X connect 10 0 71 0;
#X connect 10 0 76 0;
#X connect 11 0 12 0;
#X connect 11 0 22 0;
#X connect 11 0 69 0;
#X connect 11 0 76 0;
#X connect 12 0 21 0;
#X connect 12 0 70 0;
#X connect 13 0 15 0;
#X connect 14 0 16 0;
#X connect 15 0 17 0;
#X connect 15 0 18 0;
#X connect 16 0 15 0;
#X connect 16 1 15 1;
#X connect 19 0 20 0;
#X connect 20 0 21 1;
#X connect 21 0 23 0;
#X connect 21 0 22 1;
#X connect 22 0 33 1;
#X connect 22 0 34 1;
#X connect 23 0 35 0;
#X connect 23 0 36 0;
#X connect 23 0 59 0;
#X connect 24 0 25 0;
#X connect 25 0 26 0;
#X connect 25 0 53 0;
#X connect 26 0 27 0;
#X connect 28 0 29 0;
#X connect 29 0 5 1;
#X connect 29 0 41 1;
#X connect 30 0 45 0;
#X connect 30 0 78 0;
#X connect 31 0 10 0;
#X connect 32 0 47 0;
#X connect 33 0 3 0;
#X connect 34 0 5 0;
#X connect 35 0 40 0;
#X connect 36 0 41 0;
#X connect 38 0 39 0;
#X connect 39 0 17 0;
#X connect 41 0 40 0;
#X connect 42 0 43 0;
#X connect 43 0 44 0;
#X connect 45 0 46 0;
#X connect 47 0 33 0;
#X connect 47 0 35 1;
#X connect 47 1 34 0;
#X connect 47 1 36 1;
#X connect 48 0 26 0;
#X connect 48 0 31 1;
#X connect 49 0 53 0;
#X connect 49 0 52 1;
#X connect 50 0 65 0;
#X connect 51 0 66 0;
#X connect 52 0 11 0;
#X connect 53 0 54 0;
#X connect 55 0 57 0;
#X connect 56 0 58 0;
#X connect 57 0 58 1;
#X connect 58 0 59 1;
#X connect 58 0 60 1;
#X connect 59 0 64 0;
#X connect 60 0 61 0;
#X connect 61 0 66 0;
#X connect 62 0 63 0;
#X connect 63 0 64 1;
#X connect 63 0 61 1;
#X connect 64 0 65 0;
#X connect 67 0 30 0;
#X connect 68 0 77 0;
#X connect 69 0 0 0;
#X connect 70 0 0 0;
#X connect 71 0 0 0;
#X connect 72 0 73 0;
#X connect 74 0 75 0;
#X connect 75 0 62 0;
#X connect 75 1 13 0;
#X connect 76 0 0 0;
#X connect 77 0 69 1;
#X connect 77 1 70 1;
#X connect 77 2 71 1;
#X connect 77 3 76 1;
#X connect 78 0 48 0;
#X connect 78 1 49 0;
#X restore 611 685 pd waveguide0;
#X obj 1040 308 vsl 19 162 0.01 10 0 1 empty empty empty 0 -9 0 12 #fcfcfc #000000 #000000 13000 1;
#X obj 89 97 t f f, f 35;
#X obj 345 21 +;
#X obj 384 21 + 1;
#X obj 345 45 % 4;
#X floatatom 345 93 5 0 0 0 - - - 0;
#X obj 304 44 sel 0;
#X obj 345 69 expr 12*($f1-2);
#X msg 335 166 60 80;
#N canvas 0 25 1440 847 waveguide 0;
#X obj 19 395 outlet~;
#X obj 64 16 inlet~;
#X obj 150 724 inlet~;
#X obj 666 535 inlet~;
#X obj 1212 50 vsl 19 162 0 1 0 0 empty empty empty 0 -9 0 12 #fcfcfc #000000 #000000 0 1;
#X obj 1268 49 vsl 19 162 0 1 0 0 empty empty empty 0 -9 0 12 #fcfcfc #000000 #000000 0 1;
#X obj 1212 280 expr ($f2-$f1) / ($f2+$f1);
#X obj 1268 219 t b f;
#X obj 1083 323 s \$0-k1;
#X floatatom 1212 304 5 0 0 0 - - - 0;
#X obj 534 107 tgl 19 0 empty empty empty 0 -10 0 12 #fcfcfc #000000 #000000 0 1;
#X obj 534 131 metro 50;
#X obj 534 155 snapshot~;
#X floatatom 534 179 10 0 0 0 - - - 0;
#X obj 256 4 hsl 162 19 0 1 0 0 empty empty empty -2 -10 0 12 #fcfcfc #000000 #000000 0 1;
#X obj 414 225 *~;
#X obj 1057 23 vsl 19 162 -1 1 0 0 empty empty empty 0 -9 0 12 #fcfcfc #000000 #000000 0 1;
#X floatatom 1097 234 5 0 0 0 - - - 0;
#X obj 120 220 *~;
#X obj 428 157 snapshot~;
#X floatatom 428 181 10 0 0 0 - - - 0;
#X obj 722 351 inlet~;
#X msg 439 0 0.5;
#N canvas 710 171 450 300 otherLPF 0;
#X obj 34 200 fexpr~ ($x2 * $x1[-1] + $x3*($x1[0]+$x1[-2]));
#X obj 25 34 inlet~;
#X obj 34 224 outlet~;
#X obj 310 69 expr~ (1+$v1)/2 \; (1-$v1)/4;
#X obj 327 14 inlet~;
#X connect 0 0 2 0;
#X connect 1 0 0 0;
#X connect 3 0 0 1;
#X connect 3 1 0 2;
#X connect 4 0 3 0;
#X restore 443 607 pd otherLPF;
#X f 19;
#X obj 978 353 inlet;
#X obj 120 284 vd~ \$0-oneMulti1a;
#X obj 415 284 vd~ \$0-oneMulti2a;
#X obj 122 805 delwrite~ \$0-oneMulti2a 1000;
#X obj 270 679 delwrite~ \$0-oneMulti1a 1000, f 16;
#X obj 978 383 sig~ 1;
#X obj 710 70 block~ 4;
#X obj 1192 563 tgl 19 0 empty empty empty 0 -10 0 12 #fcfcfc #000000 #000000 0 1;
#N canvas 63 88 450 316 nonlinear 0;
#X obj 37 37 inlet~;
#X obj 70 96 expr~ if($v1 < -1 \, -0.666667 \, if($v1 > 1 \, 0.666667 \, $v1 - pow($v1 \, 3)/3)), f 15;
#N canvas 0 25 1068 575 allpass2 0;
#X obj 107 24 inlet~;
#X obj 118 483 outlet~;
#X floatatom 353 151 5 0 0 0 - - - 0;
#X floatatom 546 163 5 0 0 0 - - - 0;
#X obj 546 186 sig~ 0.2;
#X obj 353 174 sig~ 0.1;
#X obj 118 272 fexpr~ if($x1 + $y1 >= 0 \, $x2*$x1 + $x1[-1] - $x2*$y1[-1] \, $x3*$x1 + $x1[-1] - $x3*$y1[-1]);
#X obj 359 30 hsl 162 19 0 1 0 0 empty empty empty -2 -10 0 12 #fcfcfc #000000 #000000 0 1;
#X obj 593 30 hsl 162 19 0 1 0 0 empty empty empty -2 -10 0 12 #fcfcfc #000000 #000000 0 1;
#X obj 590 54 t b f;
#X obj 857 87 tgl 19 0 empty empty empty 0 -10 0 12 #fcfcfc #000000 #000000 0 1;
#X obj 857 111 expr if($f1 == 0 \, 1 \, -1) \; if($f1 == 1 \, 1 \, -1) \;;
#X floatatom 857 149 5 0 0 0 - - - 0;
#X floatatom 1028 149 5 0 0 0 - - - 0;
#X obj 546 210 *~ 1;
#X obj 353 198 *~ -1;
#X obj 353 117 expr $f1 * 0.6 * pow(2 \, -1*$f2*0.5);
#X obj 612 116 expr $f1 * 0.6 * pow(2 \, $f2*0.5);
#X connect 0 0 6 0;
#X connect 2 0 5 0;
#X connect 3 0 4 0;
#X connect 4 0 14 0;
#X connect 5 0 15 0;
#X connect 6 0 1 0;
#X connect 7 0 16 0;
#X connect 7 0 17 0;
#X connect 8 0 9 0;
#X connect 9 0 16 0;
#X connect 9 0 17 0;
#X connect 9 1 16 1;
#X connect 9 1 17 1;
#X connect 10 0 11 0;
#X connect 11 0 12 0;
#X connect 11 0 15 1;
#X connect 11 1 13 0;
#X connect 11 1 14 1;
#X connect 14 0 6 2;
#X connect 15 0 6 1;
#X connect 16 0 2 0;
#X connect 17 0 3 0;
#X restore 70 69 pd allpass2;
#X obj 33 283 outlet~;
#X obj 267 122 expr~ 1 - $v1 \; $v1;
#X obj 36 251 *~;
#X obj 70 253 *~;
#X obj 273 37 inlet;
#X connect 0 0 2 0;
#X connect 0 0 5 0;
#X connect 1 0 6 0;
#X connect 2 0 1 0;
#X connect 4 0 5 1;
#X connect 4 1 6 1;
#X connect 5 0 3 0;
#X connect 6 0 3 0;
#X connect 7 0 4 0;
#X restore 1099 614 pd nonlinear;
#X obj 63 52 *~ 0.5;
#X obj 447 678 delwrite~ \$0-oneMulti3a 1000, f 14;
#X obj 610 805 delwrite~ \$0-oneMulti4a 1000;
#X obj 150 749 *~ -1;
#X obj 967 225 r \$0-k1;
#X obj 967 249 sig~;
#N canvas 63 88 450 300 scatter 0;
#X obj 129 33 inlet~;
#X obj 238 34 inlet~;
#X obj 348 37 inlet~;
#X obj 197 102 -~;
#X obj 197 126 *~, f 6;
#X obj 156 164 +~;
#X obj 244 166 +~;
#X obj 156 188 outlet~;
#X obj 244 190 outlet~;
#X connect 0 0 3 0;
#X connect 0 0 5 0;
#X connect 1 0 3 1;
#X connect 1 0 6 1;
#X connect 2 0 4 1;
#X connect 3 0 4 0;
#X connect 4 0 6 0;
#X connect 4 0 5 1;
#X connect 5 0 7 0;
#X connect 6 0 8 0;
#X restore 917 294 pd scatter;
#X obj 619 284 vd~ \$0-oneMulti3a;
#X obj 270 284 vd~ \$0-oneMulti4a;
#X obj 724 612 expr~ -1*pow(0.001 \, (1/($v1*$v2*2)) );
#X floatatom 214 30 5 0 0 0 - - - 0;
#X obj 253 60 line~;
#X obj 253 28 pack 0 50;
#X obj 253 84 expr~ (0.8*$v1+0.1) \; 1-(0.8*$v1+0.1);
#N canvas 710 171 450 300 otherLPF 0;
#X obj 34 200 fexpr~ ($x2 * $x1[-1] + $x3*($x1[0]+$x1[-2]));
#X obj 25 34 inlet~;
#X obj 34 224 outlet~;
#X obj 310 69 expr~ (1+$v1)/2 \; (1-$v1)/4;
#X obj 327 14 inlet~;
#X connect 0 0 2 0;
#X connect 1 0 0 0;
#X connect 3 0 0 1;
#X connect 3 1 0 2;
#X connect 4 0 3 0;
#X restore 272 605 pd otherLPF;
#X f 19;
#X obj 836 129 vsl 19 162 0 1 0 0 empty empty empty 0 -9 0 12 #fcfcfc #000000 #000000 0 1;
#X obj 320 420 expr~ $v1 \; -1*$v1;
#X obj 285 480 *~;
#X obj 387 470 *~;
#X obj 542 408 expr~ $v1 \; -1*$v1;
#X obj 465 473 *~;
#X obj 499 471 *~;
#X floatatom 836 299 5 0 0 0 - - - 0;
#X obj 443 645 *~, f 13;
#X obj 271 647 *~, f 19;
#X connect 1 0 33 0;
#X connect 2 0 36 0;
#X connect 2 0 27 0;
#X connect 3 0 23 1;
#X connect 3 0 47 1;
#X connect 4 0 6 0;
#X connect 5 0 7 0;
#X connect 6 0 8 0;
#X connect 6 0 9 0;
#X connect 7 0 6 0;
#X connect 7 1 6 1;
#X connect 10 0 11 0;
#X connect 11 0 12 0;
#X connect 11 0 19 0;
#X connect 12 0 13 0;
#X connect 14 0 43 0;
#X connect 14 0 45 0;
#X connect 15 0 26 0;
#X connect 15 0 40 0;
#X connect 16 0 17 0;
#X connect 17 0 8 0;
#X connect 18 0 25 0;
#X connect 18 0 41 0;
#X connect 19 0 20 0;
#X connect 21 0 42 0;
#X connect 22 0 14 0;
#X connect 23 0 56 0;
#X connect 24 0 29 0;
#X connect 25 0 0 0;
#X connect 25 0 27 0;
#X connect 26 0 23 0;
#X connect 26 0 51 1;
#X connect 26 0 53 0;
#X connect 29 0 42 1;
#X connect 31 0 32 1;
#X connect 33 0 18 0;
#X connect 33 0 15 0;
#X connect 36 0 35 0;
#X connect 37 0 38 0;
#X connect 38 0 39 2;
#X connect 40 0 0 0;
#X connect 40 0 35 0;
#X connect 41 0 50 0;
#X connect 41 0 54 0;
#X connect 41 0 47 0;
#X connect 42 0 57 1;
#X connect 42 0 56 1;
#X connect 44 0 46 0;
#X connect 45 0 44 0;
#X connect 46 0 18 1;
#X connect 46 1 15 1;
#X connect 47 0 57 0;
#X connect 48 0 52 0;
#X connect 48 0 55 0;
#X connect 48 0 49 0;
#X connect 49 0 50 1;
#X connect 49 1 51 0;
#X connect 52 0 53 1;
#X connect 52 1 54 1;
#X connect 56 0 34 0;
#X connect 57 0 28 0;
#X restore 682 628 pd waveguide;
#X msg 269 166 60 80;
#X msg 212 169 60 80;
#X msg 150 170 60 80;
#X obj 626 110 expr 12/44.1;
#X obj 509 108 - 24;
#X connect 0 0 1 0;
#X connect 1 0 2 0;
#X connect 2 0 3 0;
#X connect 3 0 41 0;
#X connect 6 0 88 0;
#X connect 7 0 8 0;
#X connect 7 0 10 0;
#X connect 8 0 7 1;
#X connect 9 0 102 0;
#X connect 9 1 101 0;
#X connect 9 2 100 0;
#X connect 9 3 98 0;
#X connect 10 0 91 0;
#X connect 11 0 12 0;
#X connect 12 0 4 1;
#X connect 13 0 14 0;
#X connect 14 0 15 0;
#X connect 15 0 16 0;
#X connect 16 0 12 1;
#X connect 17 0 36 0;
#X connect 17 0 19 1;
#X connect 18 0 44 0;
#X connect 19 0 18 0;
#X connect 21 0 20 0;
#X connect 21 1 20 1;
#X connect 22 0 4 0;
#X connect 23 0 4 1;
#X connect 24 0 67 0;
#X connect 25 0 28 0;
#X connect 27 0 26 0;
#X connect 27 1 26 1;
#X connect 28 0 51 0;
#X connect 30 0 35 0;
#X connect 30 0 25 0;
#X connect 31 0 32 0;
#X connect 32 0 33 0;
#X connect 34 0 27 0;
#X connect 37 0 21 0;
#X connect 38 0 17 1;
#X connect 39 0 40 0;
#X connect 40 0 38 1;
#X connect 42 0 25 1;
#X connect 43 0 19 0;
#X connect 44 0 49 0;
#X connect 45 0 46 0;
#X connect 46 0 47 0;
#X connect 46 0 58 0;
#X connect 46 1 48 0;
#X connect 46 1 59 0;
#X connect 47 0 51 1;
#X connect 47 0 50 1;
#X connect 48 0 49 1;
#X connect 49 0 4 0;
#X connect 49 0 4 1;
#X connect 49 0 71 0;
#X connect 50 0 4 0;
#X connect 51 0 4 1;
#X connect 51 0 4 0;
#X connect 51 0 71 0;
#X connect 52 0 11 0;
#X connect 52 0 70 0;
#X connect 52 0 72 0;
#X connect 53 0 30 0;
#X connect 53 0 17 0;
#X connect 54 0 81 0;
#X connect 55 0 53 0;
#X connect 56 0 57 0;
#X connect 57 0 30 3;
#X connect 57 0 17 4;
#X connect 60 0 22 0;
#X connect 60 1 23 0;
#X connect 61 0 62 0;
#X connect 61 1 63 0;
#X connect 64 0 84 0;
#X connect 67 0 68 0;
#X connect 67 1 38 0;
#X connect 68 0 83 0;
#X connect 70 0 55 0;
#X connect 70 0 80 0;
#X connect 71 0 64 0;
#X connect 71 2 61 0;
#X connect 72 0 30 1;
#X connect 72 0 17 2;
#X connect 73 0 74 0;
#X connect 74 0 75 0;
#X connect 75 0 76 0;
#X connect 77 0 78 0;
#X connect 79 0 73 0;
#X connect 79 0 77 0;
#X connect 81 0 82 0;
#X connect 83 0 104 0;
#X connect 83 1 103 0;
#X connect 84 0 54 0;
#X connect 84 1 81 1;
#X connect 88 0 7 0;
#X connect 90 0 30 4;
#X connect 90 0 17 3;
#X connect 91 0 9 0;
#X connect 91 1 96 0;
#X connect 92 0 93 0;
#X connect 92 0 94 0;
#X connect 93 0 92 1;
#X connect 94 0 97 0;
#X connect 96 0 92 0;
#X connect 97 0 95 0;
#X connect 98 0 24 0;
#X connect 100 0 24 0;
#X connect 101 0 24 0;
#X connect 102 0 24 0;
#X connect 103 0 69 0;
#X connect 103 0 70 1;
#X connect 104 0 52 0;
#X connect 104 0 54 0;
