#N canvas 214 248 1198 543 12;
#X obj 61 89 inlet~;
#X obj 301 89 inlet~;
#X obj 301 364 *~ -1;
#X obj 100 334 delwrite~ \$0-ap0 1000;
#X obj 62 410 *~;
#X obj 86 131 *~;
#X obj 158 89 inlet~;
#X obj 158 444 outlet~;
#X obj 61 165 +~;
#X text 303 50 g;
#X obj 388 307 vd~ \$0-ap0;
#X text 368 50 sensorTime;
#X obj 368 89 inlet~;
#X obj 360 444 outlet~;
#X text 137 463 main signal out;
#X text 370 463 sensor pos out;
#X obj 730 296 delwrite~ \$0-ap1 1000;
#X obj 158 280 vd~ \$0-ap1;
#X obj 730 267 vd~ \$0-ap0;
#X obj 690 85 block~ 2;
#X obj 511 93 inlet~;
#X text 498 50 pickPosition;
#X text 158 50 delayTime;
#X text 53 50 signal;
#X obj 511 117 expr~ $v1 \; 1 - $v1;
#X obj 158 176 *~;
#X obj 730 241 *~;
#X obj 360 338 *~, f 5;
#X obj 528 339 *~, f 5;
#X obj 556 308 vd~ \$0-ap1;
#X obj 360 240 expr~ $v1>= $v2 \; if($v1 >= $v2 \, $v2 \, 0);
#X obj 528 241 expr~ $v1< $v2 \; if($v1 < $v2 \, $v2-$v1 \, 0);
#X obj 360 362 +~, f 25;
#X obj 767 347 tgl 19 0 empty empty empty 0 -10 0 12 #fcfcfc #000000 #000000 0 1;
#X obj 767 371 metro 50;
#X obj 619 435 snapshot~;
#X floatatom 619 459 10 0 0 0 - - - 0;
#X obj 697 435 snapshot~;
#X floatatom 697 459 9 0 0 0 - - - 0;
#X obj 842 432 snapshot~;
#X floatatom 842 456 10 0 0 0 - - - 0;
#X obj 920 430 snapshot~;
#X floatatom 920 454 10 0 0 0 - - - 0;
#X connect 0 0 8 0;
#X connect 1 0 2 0;
#X connect 1 0 5 1;
#X connect 2 0 4 1;
#X connect 4 0 7 0;
#X connect 5 0 8 1;
#X connect 6 0 25 0;
#X connect 6 0 26 0;
#X connect 8 0 3 0;
#X connect 8 0 4 0;
#X connect 10 0 27 1;
#X connect 12 0 30 1;
#X connect 12 0 31 1;
#X connect 17 0 5 0;
#X connect 17 0 7 0;
#X connect 18 0 16 0;
#X connect 20 0 24 0;
#X connect 24 0 25 1;
#X connect 24 1 26 1;
#X connect 25 0 17 0;
#X connect 25 0 30 0;
#X connect 25 0 35 0;
#X connect 25 0 31 0;
#X connect 26 0 18 0;
#X connect 26 0 39 0;
#X connect 27 0 32 0;
#X connect 28 0 32 1;
#X connect 29 0 28 1;
#X connect 30 0 27 0;
#X connect 30 1 10 0;
#X connect 30 1 37 0;
#X connect 31 0 28 0;
#X connect 31 1 29 0;
#X connect 31 1 41 0;
#X connect 32 0 13 0;
#X connect 33 0 34 0;
#X connect 34 0 35 0;
#X connect 34 0 37 0;
#X connect 34 0 39 0;
#X connect 34 0 41 0;
#X connect 35 0 36 0;
#X connect 37 0 38 0;
#X connect 39 0 40 0;
#X connect 41 0 42 0;
