#N canvas 483 192 663 510 12;
#X obj 60 89 inlet~;
#X obj 270 101 inlet~;
#X obj 293 234 *~ -1;
#X obj 92 204 delwrite~ \$0-ap0 1000;
#X obj 161 124 vd~ \$0-ap0;
#X obj 53 253 *~;
#X obj 88 120 *~;
#X obj 161 90 inlet~;
#X obj 144 304 outlet~;
#X obj 68 148 +~;
#X text 53 50 Signal;
#X text 159 52 DelayTime;
#X text 261 53 g;
#X obj 371 130 vd~ \$0-ap0;
#X text 368 51 sensorTime;
#X obj 379 88 inlet~;
#X obj 395 279 outlet~;
#X text 129 333 main signal out;
#X text 371 304 sensor pos out;
#X obj 482 74 block~ 2;
#X connect 0 0 9 0;
#X connect 1 0 2 0;
#X connect 1 0 6 1;
#X connect 2 0 5 1;
#X connect 4 0 6 0;
#X connect 4 0 8 0;
#X connect 5 0 8 0;
#X connect 6 0 9 1;
#X connect 7 0 4 0;
#X connect 9 0 3 0;
#X connect 9 0 5 0;
#X connect 13 0 16 0;
#X connect 15 0 13 0;
