#N canvas 0 23 1440 797 12;
#X obj 44 18 inlet;
#X text 86 17 midi velocity in;
#X obj 44 109 / 127;
#X obj 122 301 vline~;
#X text 308 206 \$1 --> attack time;
#X text 309 221 \$2 --> decay time;
#X text 310 235 \$3 --> sustain level;
#X msg 121 262 1 \$1 \, \$3 \$2 \$1 \, 0 \$4 \$5;
#X text 311 249 \$4 --> release time;
#X text 313 264 \$5 --> attack + decay time;
#X obj 127 105 tabread \$0-ADSR, f 7;
#X obj 187 106 tabread \$0-ADSR, f 7;
#X obj 253 105 tabread \$0-ADSR, f 8;
#X obj 316 106 tabread \$0-ADSR, f 7;
#X msg 129 76 0, f 1;
#N canvas 0 22 450 278 (subpatch) 0;
#X array \$0-ADSR 4 float 3;
#A 0 0.609375 0.796875 0.351562 0.21875;
#X coords 0 1 4 0 131 64 1 0 0;
#X restore 529 134 graph;
#X obj 127 142 * 1000;
#X obj 187 142 * 1000;
#X obj 316 142 * 1000;
#X obj 263 206 +;
#X obj 122 231 pack 0 0 0 0 0, f 18;
#X text 142 75 att;
#X text 207 77 dec;
#X msg 191 77 1, f 1;
#X text 271 75 sus;
#X msg 255 75 2, f 1;
#X msg 317 76 3, f 1;
#X text 333 76 rel;
#X obj 217 39 t b b;
#X obj 127 165 t f f;
#X obj 44 155 line~;
#X obj 68 336 *~;
#X obj 68 359 outlet~;
#X msg 44 132 \$1 2;
#X obj 44 41 t f b;
#X connect 0 0 34 0;
#X connect 2 0 33 0;
#X connect 3 0 31 1;
#X connect 7 0 3 0;
#X connect 10 0 16 0;
#X connect 11 0 17 0;
#X connect 12 0 20 2;
#X connect 13 0 18 0;
#X connect 14 0 10 0;
#X connect 16 0 29 0;
#X connect 17 0 19 1;
#X connect 17 0 20 1;
#X connect 18 0 20 3;
#X connect 19 0 20 4;
#X connect 20 0 7 0;
#X connect 23 0 11 0;
#X connect 25 0 12 0;
#X connect 26 0 13 0;
#X connect 28 0 14 0;
#X connect 28 1 26 0;
#X connect 28 1 25 0;
#X connect 28 1 23 0;
#X connect 29 0 20 0;
#X connect 29 1 19 0;
#X connect 30 0 31 0;
#X connect 31 0 32 0;
#X connect 33 0 30 0;
#X connect 34 0 2 0;
#X connect 34 1 28 0;
#X coords 0 -1 1 1 200 100 1 500 100;
