#N canvas 0 23 1440 855 12;
#X obj 260 574 dac~;
#X text 299 571 convert digital;
#X obj 949 96 bng 15 250 50 0 empty empty empty 17 7 0 10 #fcfcfc #000000
#000000;
#X obj 1414 836 bng 200 250 50 0 empty empty empty 17 7 0 10 #fcfcfc
#000000 #000000;
#X obj 940 35 bng 15 250 50 0 empty empty empty 17 7 0 10 #fcfcfc #000000
#000000;
#N canvas 641 45 750 719 sawtooth 0;
#X obj 37 37 inlet;
#X msg 37 64 8;
#X obj 37 87 until;
#X msg 37 110 1;
#X obj 37 133 + -1;
#X obj 37 156 int;
#X obj 37 179 % 8;
#X obj 37 202 t f f, f 10;
#X obj 25 291 tabwrite freq;
#X obj 196 226 tabwrite amp;
#X obj 195 77 t f f, f 12;
#X text 161 10 every harmonic is present;
#X text 156 38 amplitude = 1/ harmonic #;
#X obj 24 241 t f f, f 10;
#X obj 24 264 + 1;
#X obj 195 100 + 1;
#X obj 196 178 /;
#X msg 196 155 1, f 1;
#X obj 195 123 t b f;
#X connect 0 0 1 0;
#X connect 1 0 2 0;
#X connect 2 0 3 0;
#X connect 3 0 4 0;
#X connect 4 0 5 0;
#X connect 5 0 4 1;
#X connect 5 0 6 0;
#X connect 6 0 7 0;
#X connect 7 0 13 0;
#X connect 7 1 10 0;
#X connect 10 0 15 0;
#X connect 10 1 9 1;
#X connect 13 0 14 0;
#X connect 13 1 8 1;
#X connect 14 0 8 0;
#X connect 15 0 18 0;
#X connect 16 0 9 0;
#X connect 17 0 16 0;
#X connect 18 0 17 0;
#X connect 18 1 16 1;
#X restore 940 55 pd sawtooth;
#N canvas 743 159 697 678 sine 0;
#X obj 37 37 inlet;
#X msg 37 63 8;
#X obj 37 86 until;
#X msg 37 109 1;
#X obj 37 132 + -1;
#X obj 37 155 int;
#X obj 37 178 % 8;
#X obj 37 201 t f f, f 10;
#X obj 25 290 tabwrite freq;
#X obj 177 308 tabwrite amp;
#X obj 24 240 t b f, f 10;
#X msg 24 263 1;
#X obj 167 230 t f f, f 10;
#X obj 167 253 sel 0;
#X msg 167 276 1, f 1;
#X msg 196 279 0, f 1;
#X connect 0 0 1 0;
#X connect 1 0 2 0;
#X connect 2 0 3 0;
#X connect 3 0 4 0;
#X connect 4 0 5 0;
#X connect 5 0 4 1;
#X connect 5 0 6 0;
#X connect 6 0 7 0;
#X connect 7 0 10 0;
#X connect 7 1 12 0;
#X connect 10 0 11 0;
#X connect 10 1 8 1;
#X connect 11 0 8 0;
#X connect 12 0 13 0;
#X connect 12 1 9 1;
#X connect 13 0 14 0;
#X connect 13 1 15 0;
#X connect 14 0 9 0;
#X connect 15 0 9 0;
#X restore 949 116 pd sine;
#N canvas 0 23 1440 577 seq 0;
#X obj 645 6 tgl 15 0 empty empty empty 17 7 0 10 #fcfcfc #000000 #000000
0 1;
#X msg 668 99 1;
#X obj 668 122 + -1;
#X obj 668 145 int;
#X obj 668 168 % 8;
#X obj 686 227 t f f, f 11;
#N canvas 0 22 450 278 (subpatch) 0;
#X array pitch 8 float 3;
#A 0 22.2249 20.8642 43.089 80.7351 41.7283 24.4927 37.1926 36.2855
;
#X coords 0 127 8 0 200 140 1 0 0;
#X restore 185 22 graph;
#N canvas 68 97 450 278 (subpatch) 0;
#X array vel 8 float 3;
#A 0 73.0245 62.5928 65.3141 86.6311 48.5327 31.7513 42.6365 59.418
;
#X coords 0 127 8 0 200 140 1 0 0;
#X restore 184 177 graph;
#X obj 686 252 tabread pitch;
#X obj 708 292 tabread vel;
#X obj 686 331 pack;
#X obj 686 354 outlet;
#N canvas 0 22 450 278 (subpatch) 0;
#X array kick 8 float 3;
#A 0 0.296296 -0.0370396 0.537038 0.185185 -0.0555575 -0.0925955 -0.185186
0.259259;
#X coords 0 1 8 0 190 54 1 0 0;
#X restore 412 26 graph;
#X obj 436 225 tabread kick;
#X obj 447 276 tgl 15 0 empty empty empty 17 7 0 10 #fcfcfc #000000
#000000 0 1;
#X obj 436 248 > 0;
#X obj 447 296 sel 1;
#X obj 447 327 bng 15 250 50 0 empty empty empty 17 7 0 10 #fcfcfc
#000000 #000000;
#X obj 447 347 outlet;
#N canvas 0 22 450 278 (subpatch) 0;
#X array snare 8 float 3;
#A 0 0.203704 0.703704 -0.111109 0.740741 -0.22222 -0.138888 0.472223
-0.333331;
#X coords 0 1 8 0 190 54 1 0 0;
#X restore 409 111 graph;
#X obj 564 276 tgl 15 0 empty empty empty 17 7 0 10 #fcfcfc #000000
#000000 0 1;
#X obj 553 248 > 0;
#X obj 564 296 sel 1;
#X obj 564 327 bng 15 250 50 0 empty empty empty 17 7 0 10 #fcfcfc
#000000 #000000;
#X obj 564 347 outlet;
#X obj 553 225 tabread snare;
#X obj 645 26 metro 250;
#X obj 79 135 seqStep 0;
#X obj 102 136 seqStep 1;
#X obj 81 165 bng 15 250 50 0 empty empty empty 17 7 0 10 #fcfcfc #000000
#000000;
#X obj 106 166 bng 15 250 50 0 empty empty empty 17 7 0 10 #fcfcfc
#000000 #000000;
#X floatatom 80 108 5 0 0 0 - - - 0;
#X floatatom 724 59 5 0 0 0 - - - 0;
#X obj 747 105 / 2;
#X obj 747 128 int;
#X obj 747 151 change;
#X floatatom 747 174 5 0 0 0 - - - 0;
#X obj 747 196 % 8;
#X floatatom 724 80 5 0 0 0 - - - 0;
#X connect 0 0 26 0;
#X connect 1 0 2 0;
#X connect 2 0 3 0;
#X connect 3 0 2 1;
#X connect 3 0 4 0;
#X connect 3 0 33 0;
#X connect 4 0 5 0;
#X connect 4 0 13 0;
#X connect 4 0 25 0;
#X connect 4 0 31 0;
#X connect 4 0 28 0;
#X connect 4 0 27 0;
#X connect 4 0 32 0;
#X connect 5 0 8 0;
#X connect 5 1 9 0;
#X connect 8 0 10 0;
#X connect 9 0 10 1;
#X connect 10 0 11 0;
#X connect 13 0 15 0;
#X connect 14 0 16 0;
#X connect 15 0 14 0;
#X connect 16 0 17 0;
#X connect 17 0 18 0;
#X connect 20 0 22 0;
#X connect 21 0 20 0;
#X connect 22 0 23 0;
#X connect 23 0 24 0;
#X connect 25 0 21 0;
#X connect 26 0 1 0;
#X connect 27 0 29 0;
#X connect 28 0 30 0;
#X connect 33 0 34 0;
#X connect 34 0 35 0;
#X connect 35 0 36 0;
#X connect 36 0 37 0;
#X connect 37 0 38 0;
#X restore 318 114 pd seq;
#X obj 291 353 sampleVoice_sjf~;
#X obj 595 353 sampleVoice_sjf~;
#N canvas 0 23 1440 855 synth 1;
#X obj 37 37 inlet;
#X obj 14 324 vol_sjf~;
#N canvas 362 419 450 278 (subpatch) 0;
#X array freq 8 float 3;
#A 0 1 1.975 3.1 4.15 4.9 6.15 7.1 7.85;
#X coords 0 8 8 1 200 140 1 0 0;
#X restore 293 58 graph;
#N canvas 0 22 450 278 (subpatch) 0;
#X array amp 8 float 3;
#A 0 1 0.5 0.333333 0.25 0.2 0.166667 0.142857 0.125;
#X coords 0 1 8 -1 200 140 1;
#X restore 293 238 graph;
#X floatatom 25 137 5 0 0 0 - - - 0;
#N canvas 4 23 1436 698 8partials 0;
#X obj 472 18 inlet;
#X text 515 17 fundamental In;
#X obj 79 102 partial_sjf~ 0;
#X obj 185 104 partial_sjf~ 1;
#X obj 294 105 partial_sjf~ 2;
#X obj 405 106 partial_sjf~ 3;
#X obj 523 105 partial_sjf~ 4;
#X obj 638 107 partial_sjf~ 5;
#X obj 749 108 partial_sjf~ 6;
#X obj 862 107 partial_sjf~ 7;
#X obj 455 309 outlet~;
#X connect 0 0 2 0;
#X connect 0 0 3 0;
#X connect 0 0 4 0;
#X connect 0 0 5 0;
#X connect 0 0 6 0;
#X connect 0 0 7 0;
#X connect 0 0 8 0;
#X connect 0 0 9 0;
#X connect 2 0 10 0;
#X connect 3 0 10 0;
#X connect 4 0 10 0;
#X connect 5 0 10 0;
#X connect 6 0 10 0;
#X connect 7 0 10 0;
#X connect 8 0 10 0;
#X connect 9 0 10 0;
#X restore 26 173 pd 8partials;
#X text 63 137 fundamental;
#X obj 38 61 unpack;
#X text 89 59 midi pitch \; midi velocity;
#X obj 38 84 mtof;
#X obj 78 207 ADSR_sjf~;
#X obj -11 273 *~;
#X obj 14 409 outlet~;
#X connect 0 0 7 0;
#X connect 1 0 12 0;
#X connect 4 0 5 0;
#X connect 5 0 11 0;
#X connect 7 0 9 0;
#X connect 7 1 10 0;
#X connect 9 0 4 0;
#X connect 10 0 11 1;
#X connect 11 0 1 0;
#X restore 62 418 pd synth;
#X obj 499 108 tgl 15 0 empty empty empty 17 7 0 10 #fcfcfc #000000
#000000 0 1;
#X obj 559 99 tgl 15 0 empty empty empty 17 7 0 10 #fcfcfc #000000
#000000 0 1;
#X obj 466 141 spigot;
#X obj 456 47 % 8;
#X obj 541 142 spigot;
#X obj 457 107 sel 0;
#X connect 2 0 6 0;
#X connect 4 0 5 0;
#X connect 7 0 8 0;
#X connect 7 1 9 0;
#X connect 7 2 10 0;
#X connect 8 0 0 0;
#X connect 8 0 0 1;
#X connect 9 0 0 0;
#X connect 9 0 0 1;
#X connect 10 0 0 0;
#X connect 10 0 0 1;
#X connect 11 0 13 1;
#X connect 16 0 13 0;
