#N canvas 400 23 987 720 12;
#X obj 110 262 osc~;
#X text 150 263 sinewave -1 <--> +1;
#X text 148 193 Frequency control;
#X obj 111 292 *~, f 34;
#X obj 335 251 line~;
#X floatatom 335 205 5 0 0 0 - - - 0;
#X msg 335 227 \$1 5;
#X text 375 203 Amplitude control;
#X obj 110 240 line~;
#X floatatom 110 194 5 0 0 0 - - - 0;
#X msg 110 216 \$1 5;
#X obj 110 167 *;
#X floatatom 91 131 5 0 0 0 - - - 0;
#X floatatom 138 132 5 0 0 0 - - - 0;
#X text 10 130 fundamental;
#X text 177 130 harmonic/overtone multiple;
#X obj 111 315 outlet~;
#X obj 232 46 float \$1;
#X obj 232 28 bng 15 250 50 0 empty empty empty 17 7 0 10 #fcfcfc #000000
#000000;
#X floatatom 232 69 5 0 0 0 - - - 0;
#X obj 151 93 tabread freq;
#X obj 376 104 tabread amp;
#X obj 54 4 inlet;
#X text 95 4 Fundamental In;
#X obj 54 27 t f b;
#X connect 0 0 3 0;
#X connect 3 0 16 0;
#X connect 4 0 3 1;
#X connect 5 0 6 0;
#X connect 6 0 4 0;
#X connect 8 0 0 0;
#X connect 9 0 10 0;
#X connect 10 0 8 0;
#X connect 11 0 9 0;
#X connect 12 0 11 0;
#X connect 13 0 11 1;
#X connect 17 0 19 0;
#X connect 17 0 20 0;
#X connect 17 0 21 0;
#X connect 18 0 17 0;
#X connect 20 0 13 0;
#X connect 21 0 5 0;
#X connect 22 0 24 0;
#X connect 24 0 12 0;
#X connect 24 1 18 0;
