#N canvas 1 23 1307 780 12;
#N canvas 0 22 450 278 (subpatch) 0;
#X array \$0-sample 12840 float 2;
#X coords 0 1 12840 -1 125 64 1;
#X restore 268 32 graph;
#X obj 43 201 soundfiler;
#X text 244 162 \$1 - file directory;
#X text 244 176 \$2 - array name;
#X obj 268 97 bng 15 250 50 0 empty empty load 17 7 0 10 #fcfcfc #000000
#000000;
#X obj 43 101 t b b;
#X obj 43 124 openpanel;
#X obj 43 147 pack s \$0;
#X msg 43 174 read -resize \$1 \$2-sample;
#X obj 528 78 tabplay~ \$0-sample;
#X obj 472 37 bng 15 250 50 0 empty empty empty 17 7 0 10 #fcfcfc #000000
#000000;
#X obj 399 36 vol_sjf~;
#X obj 399 125 outlet~;
#X obj 469 5 inlet;
#X connect 4 0 5 0;
#X connect 5 0 6 0;
#X connect 6 0 7 0;
#X connect 7 0 8 0;
#X connect 8 0 1 0;
#X connect 9 0 11 0;
#X connect 10 0 9 0;
#X connect 11 0 12 0;
#X connect 13 0 10 0;
#X coords 0 -1 1 1 300 120 1 260 0;
