#N canvas 0 23 1440 855 12;
#N canvas 0 22 450 278 (subpatch) 0;
#X array \$0-selfSim 32 float 3;
#A 0 0 1 -1 0 1 2 0 1 -1 0 -2 -1 0 1 -1 0 1 2 0 1 2 3 1 2 0 1 -1 0
1 2 0 1;
#X coords 0 20 32 -20 200 140 1 0 0;
#X restore 726 108 graph;
#X obj 492 162 bng 15 250 50 0 empty empty empty 17 7 0 10 #fcfcfc
#000000 #000000;
#X obj 422 387 until;
#X obj 422 440 +;
#X obj 465 446 + 1;
#X msg 570 398 0;
#X obj 493 215 f 4, f 8;
#X obj 447 506 tabread \$0-selfSim;
#X obj 628 470 array size \$0-selfSim, f 14;
#X obj 763 436 array set \$0-selfSim;
#X msg 774 392 0 1 -1 0;
#X obj 493 312 t f b f b, f 25;
#X obj 542 174 max 4;
#X floatatom 497 74 5 0 0 0 - - - 0;
#X obj 624 630 +;
#X obj 669 630 + 1;
#X obj 470 576 t f f f f, f 15;
#X obj 470 600 + 0;
#X obj 502 600 - 1;
#X obj 534 600 + 1;
#X obj 570 600 + 0;
#X obj 479 644 t f b;
#X obj 468 701 spigot;
#X obj 557 703 <;
#X obj 497 97 t b f;
#X listbox 217 673 20 0 0 0 - - - 0;
#X floatatom 391 531 5 0 0 0 - - - 0;
#X obj 624 672 + 4;
#X floatatom 354 616 5 0 0 0 - - - 0;
#X floatatom 425 684 5 0 0 0 - - - 0;
#X floatatom 382 649 5 0 0 0 - - - 0;
#X floatatom 353 639 5 0 0 0 - - - 0;
#X floatatom 517 446 5 0 0 0 - - - 0;
#X floatatom 443 239 5 0 0 0 - - - 0;
#X floatatom 624 696 5 0 0 0 - - - 0;
#X obj 573 725 tgl 15 0 empty empty empty 17 7 0 10 #fcfcfc #000000
#000000 0 1;
#X obj 473 828 tabwrite \$0-selfSim;
#X obj 469 790 pack;
#X obj 362 806 print;
#X obj 422 464 + 1;
#X obj 493 361 / 4;
#X obj 493 385 int;
#X floatatom 493 409 5 0 0 0 - - - 0;
#X obj 326 -8 tgl 15 0 empty empty empty 17 7 0 10 #fcfcfc #000000
#000000 0 1;
#X obj 176 139 +;
#X obj 212 139 + 1;
#X obj 177 190 %;
#X obj 177 214 tabread \$0-selfSim;
#N canvas 0 22 450 278 (subpatch) 0;
#X array \$0-scale 7 float 3;
#A 0 0 2 4 5 7 9 11;
#X coords 0 12 7 0 200 140 1 0 0;
#X restore 1027 117 graph;
#X msg 1098 387 0 2 4 5 7 9 11;
#X obj 1097 424 array set \$0-scale;
#X obj 176 272 t f f;
#X obj 95 324 < 0;
#X obj 95 348 pack, f 12;
#X obj 95 372 route 0 1;
#X obj 37 439 tabread \$0-scale;
#X obj 37 463 + 60;
#X obj 174 440 tabread \$0-scale;
#X obj 174 464 + 48;
#X obj 69 574 noteout;
#X obj 178 404 + 7;
#X obj 52 531 makenote 100 500;
#X floatatom 256 308 5 0 0 0 - - - 0;
#X obj 31 59 % 4;
#X obj 32 115 +;
#X obj 68 115 + 1;
#X obj 22 172 tabread \$0-selfSim;
#X obj 114 236 +;
#X floatatom 22 196 5 0 0 0 - - - 0;
#X obj 32 139 %;
#X obj 31 83 sel 0;
#N canvas 0 22 450 278 (subpatch) 0;
#X array \$0-rhyt 7 float 3;
#A 0 1 0 0.5 1 0 1 0;
#X coords 0 1 7 0 200 140 1 0 0;
#X restore 798 555 graph;
#X obj 1079 552 bng 15 250 50 0 empty empty empty 17 7 0 10 #fcfcfc
#000000 #000000;
#N canvas 218 150 542 651 rhythmGen 1;
#X obj 411 14 inlet;
#X floatatom 138 110 5 0 0 0 - - - 0;
#X obj 34 73 bng 15 250 50 0 empty empty empty 17 7 0 10 #fcfcfc #000000
#000000;
#X obj 34 96 f 8;
#X obj 36 373 -, f 12;
#X obj 36 323 f 8;
#X obj 36 397 sel 0 2 3 4, f 27;
#X obj 219 431 t b;
#X obj 36 239 t b f f, f 25;
#X obj 76 491 print;
#X obj 34 120 t f f;
#X obj 219 455 random 2;
#X obj 219 479 + 2;
#X obj 304 154 random 2;
#X obj 304 178 + 2;
#X obj 304 226 f 8;
#X obj 304 250 -, f 5;
#X obj 327 25 bng 15 250 50 0 empty empty empty 17 7 0 10 #fcfcfc #000000
#000000;
#X obj 327 45 f 8;
#X obj 304 202 t b f f, f 11;
#X obj 206 303 sel 0 2 3 4, f 27;
#X msg 248 334 2;
#X msg 293 336 3;
#X msg 337 336 2 \, 2;
#X obj 280 368 t f;
#X obj 401 353 t b f;
#X obj 434 424 t f;
#X obj 434 448 sel 2 3;
#X msg 376 488 1 \, 0;
#X msg 450 491 1 \, 0 \, 0.5;
#X obj 402 516 t f b;
#X obj 430 550 +;
#X obj 470 551 + 1;
#X msg 412 143 0;
#X obj 382 590 tabwrite \$0-rhyt;
#X obj 329 96 t b f b f;
#X obj 443 104 array size \$0-rhyt;
#X connect 0 0 18 0;
#X connect 2 0 3 0;
#X connect 3 0 10 0;
#X connect 4 0 6 0;
#X connect 5 0 4 0;
#X connect 6 4 7 0;
#X connect 7 0 11 0;
#X connect 8 0 5 0;
#X connect 8 1 4 1;
#X connect 8 2 9 0;
#X connect 10 0 8 0;
#X connect 10 1 5 1;
#X connect 11 0 12 0;
#X connect 13 0 14 0;
#X connect 14 0 19 0;
#X connect 15 0 16 0;
#X connect 16 0 20 0;
#X connect 17 0 18 0;
#X connect 18 0 35 0;
#X connect 19 0 15 0;
#X connect 19 1 16 1;
#X connect 19 2 26 0;
#X connect 20 1 21 0;
#X connect 20 2 22 0;
#X connect 20 3 23 0;
#X connect 20 4 25 0;
#X connect 21 0 24 0;
#X connect 22 0 24 0;
#X connect 23 0 24 0;
#X connect 24 0 26 0;
#X connect 25 0 13 0;
#X connect 25 1 15 1;
#X connect 26 0 27 0;
#X connect 27 0 28 0;
#X connect 27 1 29 0;
#X connect 28 0 30 0;
#X connect 29 0 30 0;
#X connect 30 0 34 0;
#X connect 30 1 31 0;
#X connect 31 0 32 0;
#X connect 31 0 34 1;
#X connect 32 0 31 1;
#X connect 33 0 31 1;
#X connect 35 0 13 0;
#X connect 35 1 15 1;
#X connect 35 2 33 0;
#X connect 35 3 36 0;
#X restore 1079 572 pd rhythmGen;
#X obj 328 49 +;
#X obj 364 49 + 1;
#X obj 332 73 % 8;
#X obj 333 99 tabread \$0-rhyt;
#X obj 333 131 sel 0;
#X obj 363 161 t b f;
#X obj 380 204 * 127;
#X floatatom 1131 543 5 0 0 0 - - - 0;
#X floatatom 273 91 5 0 0 0 - - - 0;
#X obj 326 12 metro 125;
#X connect 1 0 6 0;
#X connect 2 0 3 0;
#X connect 3 0 4 0;
#X connect 3 0 25 0;
#X connect 3 0 39 0;
#X connect 4 0 3 1;
#X connect 5 0 3 1;
#X connect 5 0 14 1;
#X connect 6 0 33 0;
#X connect 6 0 11 0;
#X connect 7 0 16 0;
#X connect 7 0 26 0;
#X connect 10 0 9 0;
#X connect 11 0 40 0;
#X connect 11 1 5 0;
#X connect 11 2 8 0;
#X connect 11 2 23 1;
#X connect 11 3 10 0;
#X connect 12 0 6 1;
#X connect 12 0 46 1;
#X connect 12 0 69 1;
#X connect 12 0 63 1;
#X connect 13 0 24 0;
#X connect 14 0 15 0;
#X connect 14 0 27 0;
#X connect 15 0 14 1;
#X connect 16 0 17 0;
#X connect 16 1 18 0;
#X connect 16 2 19 0;
#X connect 16 3 20 0;
#X connect 17 0 21 0;
#X connect 17 0 28 0;
#X connect 18 0 21 0;
#X connect 18 0 31 0;
#X connect 19 0 21 0;
#X connect 19 0 30 0;
#X connect 20 0 21 0;
#X connect 20 0 29 0;
#X connect 21 0 22 0;
#X connect 21 1 14 0;
#X connect 22 0 37 0;
#X connect 23 0 22 1;
#X connect 23 0 35 0;
#X connect 24 0 1 0;
#X connect 24 1 12 0;
#X connect 27 0 23 0;
#X connect 27 0 34 0;
#X connect 27 0 37 1;
#X connect 32 0 7 0;
#X connect 37 0 36 0;
#X connect 37 0 38 0;
#X connect 39 0 7 0;
#X connect 40 0 41 0;
#X connect 41 0 2 0;
#X connect 41 0 42 0;
#X connect 43 0 83 0;
#X connect 44 0 45 0;
#X connect 44 0 63 0;
#X connect 44 0 46 0;
#X connect 45 0 44 1;
#X connect 46 0 47 0;
#X connect 47 0 67 0;
#X connect 49 0 50 0;
#X connect 51 0 52 0;
#X connect 51 0 62 0;
#X connect 51 1 53 1;
#X connect 52 0 53 0;
#X connect 53 0 54 0;
#X connect 54 0 55 0;
#X connect 54 1 60 0;
#X connect 55 0 56 0;
#X connect 56 0 61 0;
#X connect 57 0 58 0;
#X connect 58 0 61 0;
#X connect 60 0 57 0;
#X connect 61 0 59 0;
#X connect 61 1 59 1;
#X connect 63 0 70 0;
#X connect 64 0 65 0;
#X connect 64 0 69 0;
#X connect 65 0 64 1;
#X connect 66 0 67 1;
#X connect 66 0 68 0;
#X connect 67 0 51 0;
#X connect 69 0 66 0;
#X connect 70 0 64 0;
#X connect 72 0 73 0;
#X connect 74 0 75 0;
#X connect 74 0 76 0;
#X connect 75 0 74 1;
#X connect 76 0 77 0;
#X connect 76 0 82 0;
#X connect 77 0 78 0;
#X connect 78 1 79 0;
#X connect 79 0 44 0;
#X connect 79 1 80 0;
#X connect 80 0 61 1;
#X connect 81 0 73 0;
#X connect 81 0 76 1;
#X connect 83 0 74 0;
