#N canvas 0 203 1440 855 12;
#X text 244 76 list 1;
#X text 505 83 list 2;
#X obj 171 270 list store;
#X obj 496 341 list store;
#X obj 339 52 bng 15 250 50 0 empty empty empty 17 7 0 10 #fcfcfc #000000
#000000;
#X msg 172 221 get \$1;
#X msg 496 319 get \$1;
#X msg 214 299 0;
#X msg 565 376 0;
#X obj 171 331 t f;
#X obj 345 442 *;
#X msg 452 334 0;
#X obj 345 466 +;
#X obj 397 470 f;
#X msg 398 138 201;
#X obj 398 162 until;
#X obj 496 401 t f;
#X floatatom 345 600 5 0 0 0 - - - 0;
#X obj 398 186 +;
#X obj 456 199 + 1;
#X obj 398 210 - 100;
#X floatatom 398 234 5 0 0 0 - - - 0;
#X obj 328 187 t b f;
#X obj 358 356 -;
#X floatatom 80 19 5 0 0 0 - - - 0;
#X obj 80 42 t f b b;
#X obj 398 257 t f f;
#X obj 353 310 f;
#X obj 353 284 t b f;
#X msg 251 107 0.05 0.03 0.01;
#X msg 509 114 10 20 30 20 10 10 10;
#X text 834 275 c(t) = ∑ f(n)*g(t-n);
#X connect 2 0 9 0;
#X connect 2 1 7 0;
#X connect 3 0 16 0;
#X connect 3 1 8 0;
#X connect 4 0 30 0;
#X connect 4 0 29 0;
#X connect 5 0 2 0;
#X connect 6 0 3 0;
#X connect 7 0 9 0;
#X connect 8 0 16 0;
#X connect 9 0 10 0;
#X connect 10 0 12 0;
#X connect 11 0 13 0;
#X connect 11 0 18 1;
#X connect 12 0 13 0;
#X connect 12 0 17 0;
#X connect 13 0 12 1;
#X connect 14 0 15 0;
#X connect 15 0 18 0;
#X connect 16 0 10 1;
#X connect 18 0 19 0;
#X connect 18 0 20 0;
#X connect 19 0 18 1;
#X connect 20 0 21 0;
#X connect 21 0 26 0;
#X connect 22 0 14 0;
#X connect 22 1 27 1;
#X connect 23 0 6 0;
#X connect 24 0 25 0;
#X connect 25 0 22 0;
#X connect 25 1 11 0;
#X connect 25 2 4 0;
#X connect 26 0 5 0;
#X connect 26 1 28 0;
#X connect 27 0 23 0;
#X connect 28 0 27 0;
#X connect 28 1 23 1;
#X connect 29 0 2 1;
#X connect 30 0 3 1;
