#N canvas 1 26 1440 847 12;
#X obj 642 776 dac~;
#N canvas 0 25 1440 847 comp 0;
#X obj 238 91 tgl 19 0 empty empty empty 0 -10 0 12 #fcfcfc #000000 #000000 0 1;
#X text 264 90 MS/RMS;
#X text 338 142 RECTIFIER;
#X obj 53 -23 inlet~;
#X obj 31 120 abs~;
#X obj 749 -28 vsl 19 162 0 100 0 0 empty empty empty 0 -9 0 12 #fcfcfc #000000 #000000 0 1;
#X floatatom 813 177 23 0 0 0 - - - 0;
#X obj 422 -4 vradio 19 1 1 3 \$0-type empty empty 0 -10 0 12 #fcfcfc #000000 #000000 2;
#X text 445 -6 Peak;
#X text 443 17 MS;
#X text 444 36 RMS;
#X obj 354 74 r \$0-type;
#X obj 354 98 > 0;
#X obj 302 266 r \$0-type;
#X obj 302 290 == 2;
#X obj 813 153 expr exp( ln(0.368) / ( 44.1 * $f1 ));
#X obj 600 201 expr exp( ln(0.368) / ( 44.1 * $f1 ));
#X obj 509 -2 vradio 19 1 1 2 \$0-outType empty empty 0 -10 0 12 #fcfcfc #000000 #000000 1;
#X text 532 -4 normal;
#X text 530 19 dB;
#X obj 292 340 r \$0-outType;
#X obj 29 316 expr~ if($f2 == 1 \, pow($v1 \, 0.5) \, $v1);
#X obj 29 340 expr~ if($f2 == 1 \, 20*log($v1) \, $v1);
#X obj 31 144 expr~ if($f2 == 1 \, $v1*$v1 \, $v1);
#X floatatom 1225 405 5 -80 10 0 threshold(dB) - \$0-threshold 0;
#X text 710 378 out = threshold + (in-thresh/ratio);
#X obj 225 444 r \$0-ratio;
#X obj 114 442 r \$0-threshold;
#X floatatom 225 468 5 0 0 0 - - - 0;
#X floatatom 114 466 5 0 0 0 - - - 0;
#X obj 114 489 sig~;
#X obj 225 491 sig~;
#X obj 518 526 tgl 19 0 empty empty empty 0 -10 0 12 #fcfcfc #000000 #000000 0 1;
#X obj 518 550 metro 1;
#X obj 643 505 *~;
#X obj 483 441 expr~ pow(10 \, $v1/20);
#X obj 50 13 +~;
#X floatatom 773 153 5 0 0 0 - - - 0;
#X obj 58 550 expr~ if($v1 <= $v2 \, $v1 \, $v2+ (($v1-$v2)/$v3) );
#X floatatom 292 364 5 0 0 0 - - - 0;
#X floatatom 302 314 5 0 0 0 - - - 0;
#X obj 508 337 -~;
#X floatatom 600 172 5 0 0 0 - - - 0;
#X obj 600 -10 vradio 19 1 1 7 empty empty empty 0 -10 0 12 #fcfcfc #000000 #000000 4;
#N canvas 817 184 450 300 att 0;
#X obj 37 37 inlet;
#X obj 48 231 outlet;
#X obj 37 61 sel 0 1 2 3 4 5 6, f 55;
#X msg 89 85 0.1;
#X msg 142 85 0.3;
#X msg 197 86 1;
#X msg 248 88 3;
#X msg 300 90 10;
#X msg 355 90 30;
#X msg 37 85 0.0226757;
#X connect 0 0 2 0;
#X connect 2 0 9 0;
#X connect 2 1 3 0;
#X connect 2 2 4 0;
#X connect 2 3 5 0;
#X connect 2 4 6 0;
#X connect 2 5 7 0;
#X connect 2 6 8 0;
#X connect 3 0 1 0;
#X connect 4 0 1 0;
#X connect 5 0 1 0;
#X connect 6 0 1 0;
#X connect 7 0 1 0;
#X connect 8 0 1 0;
#X connect 9 0 1 0;
#X restore 600 147 pd att;
#X obj 814 9 vradio 19 1 1 5 empty empty empty 0 -10 0 12 #fcfcfc #000000 #000000 2;
#N canvas 817 184 450 300 rel 0;
#X obj 37 37 inlet;
#X obj 48 231 outlet;
#X msg 37 85 100;
#X msg 89 85 300;
#X msg 142 85 600;
#X msg 197 86 1200;
#X msg 248 88 2400;
#X obj 37 61 sel 0 1 2 3 4, f 55;
#X connect 0 0 7 0;
#X connect 2 0 1 0;
#X connect 3 0 1 0;
#X connect 4 0 1 0;
#X connect 5 0 1 0;
#X connect 6 0 1 0;
#X connect 7 0 2 0;
#X connect 7 1 3 0;
#X connect 7 2 4 0;
#X connect 7 3 5 0;
#X connect 7 4 6 0;
#X restore 814 128 pd rel;
#X obj 668 626 outlet~;
#X obj 33 239 fexpr~ if ($x[0] > $y[-1] \, $f2*($y[-1]-$x[0]) + $x[0] \, $f3*($y[-1]-$x[0]) + $x[0] ), f 88;
#X obj 33 264 expr~ max ( $v1 \, 0 );
#X obj 1049 277 vradio 19 1 0 8 empty empty empty 0 -10 0 12 #fcfcfc #000000 #000000 0;
#N canvas 990 474 450 300 ratio 0;
#X obj 37 37 inlet;
#X msg 37 85 1.5;
#X msg 72 87 2;
#X msg 107 87 3;
#X msg 142 87 4;
#X msg 177 87 10;
#X msg 245 90 20;
#X obj 37 61 sel 0 1 2 3 4 5, f 34;
#X obj 68 169 outlet;
#X connect 0 0 7 0;
#X connect 1 0 8 0;
#X connect 2 0 8 0;
#X connect 3 0 8 0;
#X connect 4 0 8 0;
#X connect 5 0 8 0;
#X connect 6 0 8 0;
#X connect 7 0 1 0;
#X connect 7 1 2 0;
#X connect 7 2 3 0;
#X connect 7 3 4 0;
#X connect 7 4 5 0;
#X connect 7 5 6 0;
#X restore 1049 434 pd ratio;
#X floatatom 1049 458 5 0 0 0 - - - 0;
#X obj 1045 494 s \$0-ratio;
#X obj 1229 230 vsl 19 162 -80 10 0 0 empty empty empty 0 -9 0 12 #fcfcfc #000000 #000000 0 1;
#X obj 1304 230 vsl 19 162 0 20 0 0 empty empty empty 0 -9 0 12 #fcfcfc #000000 #000000 0 1;
#X floatatom 1304 400 5 0 0 1 makeup - \$0-makeUp 0;
#X obj 798 498 r \$0-makeUp;
#X obj 798 522 expr pow(10 \, $f1/20);
#X floatatom 854 557 5 0 0 0 - - - 0;
#X obj 798 546 pack 0 5;
#X obj 798 570 line~;
#X obj 470 575 snapshot~;
#X floatatom 470 599 5 0 0 0 - - - 0;
#X obj 205 -23 tgl 19 0 \$0-hiPass empty empty 0 -10 0 12 #fcfcfc #000000 #000000 0 1;
#X obj 185 24 r \$0-hiPass;
#X floatatom 185 48 5 0 0 0 - - - 0;
#X obj 110 51 lop~ 150;
#X obj 107 26 *~;
#X obj 187 80 == 0;
#X obj 187 104 sig~ 1;
#X obj 42 74 *~;
#X obj 401 608 snapshot~;
#X floatatom 401 632 20 0 0 0 - - - 0;
#X obj 508 361 +~;
#X obj 547 339 r \$0-makeUp;
#X connect 0 0 23 1;
#X connect 3 0 36 0;
#X connect 4 0 23 0;
#X connect 5 0 37 0;
#X connect 11 0 12 0;
#X connect 12 0 0 0;
#X connect 13 0 14 0;
#X connect 14 0 21 1;
#X connect 14 0 40 0;
#X connect 15 0 6 0;
#X connect 15 0 48 2;
#X connect 16 0 48 1;
#X connect 20 0 22 1;
#X connect 20 0 39 0;
#X connect 21 0 22 0;
#X connect 22 0 38 0;
#X connect 22 0 41 1;
#X connect 23 0 48 0;
#X connect 26 0 28 0;
#X connect 27 0 29 0;
#X connect 28 0 31 0;
#X connect 29 0 30 0;
#X connect 30 0 38 1;
#X connect 31 0 38 2;
#X connect 32 0 33 0;
#X connect 33 0 62 0;
#X connect 33 0 72 0;
#X connect 34 0 47 0;
#X connect 35 0 34 0;
#X connect 35 0 62 0;
#X connect 36 0 34 1;
#X connect 36 0 71 0;
#X connect 36 0 68 0;
#X connect 37 0 15 0;
#X connect 38 0 41 0;
#X connect 41 0 72 0;
#X connect 41 0 74 0;
#X connect 42 0 16 0;
#X connect 43 0 44 0;
#X connect 44 0 42 0;
#X connect 45 0 46 0;
#X connect 46 0 37 0;
#X connect 48 0 49 0;
#X connect 49 0 21 0;
#X connect 50 0 51 0;
#X connect 51 0 52 0;
#X connect 52 0 53 0;
#X connect 54 0 24 0;
#X connect 55 0 56 0;
#X connect 57 0 58 0;
#X connect 58 0 59 0;
#X connect 58 0 60 0;
#X connect 60 0 61 0;
#X connect 62 0 63 0;
#X connect 65 0 66 0;
#X connect 65 0 68 1;
#X connect 66 0 69 0;
#X connect 67 0 4 0;
#X connect 68 0 67 0;
#X connect 69 0 70 0;
#X connect 70 0 71 1;
#X connect 71 0 4 0;
#X connect 72 0 73 0;
#X connect 74 0 35 0;
#X connect 75 0 74 1;
#X restore 643 510 pd comp;
#X obj 1259 74 bng 19 250 50 0 empty empty empty 0 -10 0 12 #fcfcfc #000000 #000000;
#X obj 1259 98 openpanel;
#X obj 1196 220 soundfiler;
#N canvas 0 22 450 278 (subpatch) 0;
#X array \$0-samp 209801 float 2;
#X coords 0 1 209801 -1 200 140 1;
#X restore 1136 300 graph;
#X obj 1190 155 pack s \$0;
#X msg 1128 180 read -resize \$1 \$2-samp;
#X obj 1027 582 tabplay~ \$0-samp;
#X obj 1028 494 bng 19 250 50 0 empty empty empty 0 -10 0 12 #fcfcfc #000000 #000000;
#X obj 1117 477 tgl 19 0 empty empty empty 0 -10 0 12 #fcfcfc #000000 #000000 0 1;
#X obj 1083 535 spigot;
#X obj 761 488 hsl 162 19 0 127 0 0 empty empty empty -2 -10 0 12 #fcfcfc #000000 #000000 0 1;
#X obj 758 512 / 127;
#X obj 758 536 pack 0 5;
#X obj 758 560 line~;
#X obj 668 602 *~;
#X connect 1 0 16 0;
#X connect 2 0 3 0;
#X connect 3 0 6 0;
#X connect 6 0 7 0;
#X connect 7 0 4 0;
#X connect 8 0 1 0;
#X connect 8 1 11 0;
#X connect 9 0 8 0;
#X connect 10 0 11 1;
#X connect 11 0 8 0;
#X connect 12 0 13 0;
#X connect 13 0 14 0;
#X connect 14 0 15 0;
#X connect 15 0 16 1;
#X connect 16 0 0 0;
#X connect 16 0 0 1;
