#N canvas 10 -1892 1070 857 12;
#X obj 197 671 outlet~;
#X obj 133 32 inlet;
#X obj 808 126 loadbang;
#X msg 685 186 0;
#X msg 614 196 1;
#X obj 197 496 *~, f 13;
#X obj 666 243 tgl 19 0 empty empty empty 0 -10 0 12 #fcfcfc #000000 #000000 0 1;
#X listbox 15 81 20 0 0 0 - - - 0;
#X obj 685 210 t f f;
#X obj 678 146 delay 5;
#X obj 133 56 t l b l, f 71;
#X msg 687 68 \$2;
#X obj 687 92 t b f;
#X obj 723 119 + 5;
#X obj 666 267 switch~;
#X floatatom 470 208 5 0 0 0 - - - 0;
#X obj 133 130 t l l l, f 53;
#N canvas 152 25 663 615 ampEnv 0;
#X obj 90 21 inlet;
#X obj 87 247 line~;
#X msg 87 54 \$2;
#X obj 86 409 +~ 1;
#X obj 86 441 tabread4~ \$3;
#X obj 87 84 t f b;
#X text 122 53 GrainLength;
#X obj 86 465 outlet~;
#X obj 85 364 *~, f 12;
#X obj 182 117 array size \$3;
#X obj 182 141 - 2;
#X floatatom 182 165 5 0 0 0 - - - 0;
#X msg 87 225 0 \, 1 \$1;
#X connect 0 0 2 0;
#X connect 1 0 8 0;
#X connect 2 0 5 0;
#X connect 3 0 4 0;
#X connect 4 0 7 0;
#X connect 5 0 12 0;
#X connect 5 1 9 0;
#X connect 8 0 3 0;
#X connect 9 0 10 0;
#X connect 10 0 11 0;
#X connect 11 0 8 1;
#X connect 12 0 1 0;
#X restore 48 232 pd ampEnv;
#N canvas 0 -1274 1080 847 pitchLogic 0;
#X obj 74 31 inlet;
#X text 698 129 t = 1-sf/SR;
#X obj 687 324 v SR;
#X floatatom 687 348 5 0 0 0 - - - 0;
#X obj 687 297 bng 19 250 50 0 empty empty empty 0 -10 0 12 #fcfcfc #000000 #000000;
#X obj 74 179 unpack 0 0 0 0, f 41;
#X text 200 53 delTime granLength feedback transpose;
#X obj 336 217 expr pow(2 \, $f1/12);
#X floatatom 336 241 5 0 0 0 - - - 0;
#X text 603 155 f = (t-1)SR / s;
#X text 690 207 s = T(t-1)SR;
#X obj 336 264 - 1;
#X text 368 266 t-1;
#X floatatom 335 331 19 0 0 0 - - - 0;
#X obj 361 698 outlet~;
#X text 688 183 s = (t-1)SR / f;
#X obj 74 329 sig~;
#X obj 335 441 phasor~;
#X obj 335 354 t f b;
#X msg 368 388 0;
#X obj 455 451 +~ 0.5;
#X obj 455 475 wrap~;
#X obj 581 442 - 2;
#X floatatom 581 466 5 0 0 0 - - - 0;
#N canvas 292 25 734 601 pitchShifting 0;
#X obj 37 37 inlet~;
#X obj 449 200 +~ 1;
#X obj 151 217 vd~ \$2;
#X obj 444 160 *~;
#X obj 151 66 inlet~;
#X obj 485 49 inlet;
#X obj 168 315 outlet~;
#X obj 212 274 *~;
#X obj 449 232 tabread4~ \$4;
#X obj 392 349 line~;
#X obj 152 124 expr~ $v1*psWindow;
#X connect 0 0 2 0;
#X connect 1 0 8 0;
#X connect 2 0 7 0;
#X connect 3 0 1 0;
#X connect 4 0 3 0;
#X connect 4 0 10 0;
#X connect 5 0 3 1;
#X connect 7 0 6 0;
#X connect 8 0 7 1;
#X connect 10 0 2 0;
#X restore 297 538 pd pitchShifting;
#X obj 74 55 t l b l, f 73;
#X msg 546 98 \$2;
#N canvas 292 25 734 601 pitchShifting 0;
#X obj 37 37 inlet~;
#X obj 449 200 +~ 1;
#X obj 151 217 vd~ \$2;
#X obj 444 160 *~;
#X obj 151 66 inlet~;
#X obj 485 49 inlet;
#X obj 168 315 outlet~;
#X obj 212 274 *~;
#X obj 449 232 tabread4~ \$4;
#X obj 152 124 expr~ $v1*psWindow;
#X connect 0 0 2 0;
#X connect 1 0 8 0;
#X connect 2 0 7 0;
#X connect 3 0 1 0;
#X connect 4 0 3 0;
#X connect 4 0 9 0;
#X connect 5 0 3 1;
#X connect 7 0 6 0;
#X connect 8 0 7 1;
#X connect 9 0 2 0;
#X restore 451 537 pd pitchShifting;
#X obj 581 418 array size \$4;
#X floatatom 589 131 5 0 0 0 - - - 0;
#X obj 132 299 / 2;
#X obj 132 323 expr 1000/$f1;
#X floatatom 132 347 5 0 0 0 - - - 0;
#X obj 132 370 phasor~;
#X obj 211 372 +~ 0.5;
#X obj 211 396 wrap~;
#X obj 57 468 *~;
#X obj 213 456 *~;
#X obj 128 592 +~ 1;
#X obj 123 552 *~;
#X obj 128 624 tabread4~ \$4;
#X obj 604 615 +~ 1;
#X obj 599 575 *~;
#X obj 604 647 tabread4~ \$4;
#X obj 335 307 expr -1*$f1/(psWindow/1000);
#X connect 0 0 25 0;
#X connect 2 0 3 0;
#X connect 4 0 2 0;
#X connect 5 0 16 0;
#X connect 5 0 30 0;
#X connect 5 3 7 0;
#X connect 7 0 8 0;
#X connect 8 0 11 0;
#X connect 11 0 44 0;
#X connect 13 0 18 0;
#X connect 16 0 36 0;
#X connect 16 0 37 0;
#X connect 16 0 39 0;
#X connect 16 0 24 0;
#X connect 16 0 27 0;
#X connect 17 0 20 0;
#X connect 17 0 24 1;
#X connect 18 0 17 0;
#X connect 18 1 19 0;
#X connect 19 0 17 1;
#X connect 20 0 21 0;
#X connect 21 0 27 1;
#X connect 22 0 23 0;
#X connect 23 0 24 2;
#X connect 23 0 27 2;
#X connect 23 0 39 1;
#X connect 23 0 42 1;
#X connect 24 0 14 0;
#X connect 25 0 5 0;
#X connect 25 1 28 0;
#X connect 25 2 26 0;
#X connect 26 0 29 0;
#X connect 27 0 14 0;
#X connect 28 0 22 0;
#X connect 30 0 31 0;
#X connect 31 0 32 0;
#X connect 32 0 33 0;
#X connect 33 0 34 0;
#X connect 33 0 36 1;
#X connect 34 0 35 0;
#X connect 35 0 37 1;
#X connect 35 0 42 0;
#X connect 38 0 40 0;
#X connect 39 0 38 0;
#X connect 41 0 43 0;
#X connect 42 0 41 0;
#X connect 44 0 13 0;
#X restore 274 452 pd pitchLogic;
#X obj 502 668 outlet~;
#X obj 506 540 *~, f 13;
#X obj 482 313 t l l l, f 53;
#N canvas 152 25 663 615 ampEnv 0;
#X obj 90 21 inlet;
#X obj 87 247 line~;
#X msg 87 54 \$2;
#X obj 86 409 +~ 1;
#X obj 86 441 tabread4~ \$3;
#X obj 87 84 t f b;
#X text 122 53 GrainLength;
#X obj 86 465 outlet~;
#X obj 85 364 *~, f 12;
#X obj 182 117 array size \$3;
#X obj 182 141 - 2;
#X floatatom 182 165 5 0 0 0 - - - 0;
#X msg 87 225 0 \, 1 \$1;
#X connect 0 0 2 0;
#X connect 1 0 8 0;
#X connect 2 0 5 0;
#X connect 3 0 4 0;
#X connect 4 0 7 0;
#X connect 5 0 12 0;
#X connect 5 1 9 0;
#X connect 8 0 3 0;
#X connect 9 0 10 0;
#X connect 10 0 11 0;
#X connect 11 0 8 1;
#X connect 12 0 1 0;
#X restore 475 403 pd ampEnv;
#N canvas 0 -1274 1080 847 pitchLogic 0;
#X obj 74 31 inlet;
#X text 698 129 t = 1-sf/SR;
#X obj 687 324 v SR;
#X floatatom 687 348 5 0 0 0 - - - 0;
#X obj 687 297 bng 19 250 50 0 empty empty empty 0 -10 0 12 #fcfcfc #000000 #000000;
#X obj 74 179 unpack 0 0 0 0, f 41;
#X text 200 53 delTime granLength feedback transpose;
#X obj 336 217 expr pow(2 \, $f1/12);
#X floatatom 336 241 5 0 0 0 - - - 0;
#X text 603 155 f = (t-1)SR / s;
#X text 690 207 s = T(t-1)SR;
#X obj 336 264 - 1;
#X text 368 266 t-1;
#X floatatom 335 331 19 0 0 0 - - - 0;
#X obj 361 698 outlet~;
#X text 688 183 s = (t-1)SR / f;
#X obj 74 329 sig~;
#X obj 335 441 phasor~;
#X obj 335 354 t f b;
#X msg 368 388 0;
#X obj 455 451 +~ 0.5;
#X obj 455 475 wrap~;
#X obj 581 442 - 2;
#X floatatom 581 466 5 0 0 0 - - - 0;
#N canvas 292 25 734 601 pitchShifting 0;
#X obj 37 37 inlet~;
#X obj 449 200 +~ 1;
#X obj 444 160 *~;
#X obj 151 66 inlet~;
#X obj 485 49 inlet;
#X obj 168 315 outlet~;
#X obj 212 274 *~;
#X obj 449 232 tabread4~ \$4;
#X obj 392 349 line~;
#X obj 152 124 expr~ $v1*psWindow;
#X obj 151 217 vd~ \$5;
#X connect 0 0 10 0;
#X connect 1 0 7 0;
#X connect 2 0 1 0;
#X connect 3 0 2 0;
#X connect 3 0 9 0;
#X connect 4 0 2 1;
#X connect 6 0 5 0;
#X connect 7 0 6 1;
#X connect 9 0 10 0;
#X connect 10 0 6 0;
#X restore 297 538 pd pitchShifting;
#X obj 74 55 t l b l, f 73;
#X msg 546 98 \$2;
#N canvas 292 25 734 601 pitchShifting 0;
#X obj 37 37 inlet~;
#X obj 449 200 +~ 1;
#X obj 444 160 *~;
#X obj 151 66 inlet~;
#X obj 485 49 inlet;
#X obj 168 315 outlet~;
#X obj 212 274 *~;
#X obj 449 232 tabread4~ \$4;
#X obj 152 124 expr~ $v1*psWindow;
#X obj 151 217 vd~ \$5;
#X connect 0 0 9 0;
#X connect 1 0 7 0;
#X connect 2 0 1 0;
#X connect 3 0 2 0;
#X connect 3 0 8 0;
#X connect 4 0 2 1;
#X connect 6 0 5 0;
#X connect 7 0 6 1;
#X connect 8 0 9 0;
#X connect 9 0 6 0;
#X restore 451 537 pd pitchShifting;
#X obj 581 418 array size \$4;
#X floatatom 589 131 5 0 0 0 - - - 0;
#X obj 335 307 expr -1*$f1/(psWindow/1000);
#X connect 0 0 25 0;
#X connect 2 0 3 0;
#X connect 4 0 2 0;
#X connect 5 0 16 0;
#X connect 5 3 7 0;
#X connect 7 0 8 0;
#X connect 8 0 11 0;
#X connect 11 0 30 0;
#X connect 13 0 18 0;
#X connect 16 0 24 0;
#X connect 16 0 27 0;
#X connect 17 0 20 0;
#X connect 17 0 24 1;
#X connect 18 0 17 0;
#X connect 18 1 19 0;
#X connect 19 0 17 1;
#X connect 20 0 21 0;
#X connect 21 0 27 1;
#X connect 22 0 23 0;
#X connect 23 0 24 2;
#X connect 23 0 27 2;
#X connect 24 0 14 0;
#X connect 25 0 5 0;
#X connect 25 1 28 0;
#X connect 25 2 26 0;
#X connect 26 0 29 0;
#X connect 27 0 14 0;
#X connect 28 0 22 0;
#X connect 30 0 13 0;
#X restore 620 412 pd pitchLogic;
#X obj 904 336 expr sqrt($f1) \; sqrt(1-$f1);
#X obj 904 418 sig~;
#X obj 298 570 *~;
#X obj 628 612 *~;
#X obj 209 572 *~;
#X obj 320 639 *~;
#X obj 985 429 sig~;
#X floatatom 904 374 5 0 0 0 - - - 0;
#X floatatom 978 376 5 0 0 0 - - - 0;
#X text 211 25 delTime granLength feedback transpose pan;
#X msg 906 308 \$5;
#X connect 1 0 10 0;
#X connect 2 0 3 0;
#X connect 3 0 8 0;
#X connect 4 0 6 0;
#X connect 5 0 26 0;
#X connect 5 0 28 0;
#X connect 6 0 14 0;
#X connect 8 0 6 0;
#X connect 9 0 3 0;
#X connect 10 0 7 0;
#X connect 10 0 16 0;
#X connect 10 1 4 0;
#X connect 10 2 11 0;
#X connect 11 0 12 0;
#X connect 12 0 9 0;
#X connect 12 1 13 0;
#X connect 13 0 9 1;
#X connect 16 0 17 0;
#X connect 16 1 18 0;
#X connect 16 2 21 0;
#X connect 17 0 5 0;
#X connect 18 0 5 1;
#X connect 20 0 27 0;
#X connect 20 0 29 0;
#X connect 21 0 22 0;
#X connect 21 1 23 0;
#X connect 21 2 34 0;
#X connect 22 0 20 0;
#X connect 23 0 20 1;
#X connect 24 0 25 0;
#X connect 24 0 31 0;
#X connect 24 1 30 0;
#X connect 24 1 32 0;
#X connect 25 0 28 1;
#X connect 25 0 29 1;
#X connect 26 0 19 0;
#X connect 27 0 19 0;
#X connect 28 0 0 0;
#X connect 29 0 0 0;
#X connect 30 0 26 1;
#X connect 30 0 27 1;
#X connect 34 0 24 0;
