#N canvas 84 23 1196 755 12;
#X obj 723 187 vsl 15 128 0 127 0 0 empty empty empty 0 -9 0 10 -262144
-1 -1 0 1;
#X obj 723 323 / 127;
#X msg 723 347 \$1 5;
#X obj 723 371 line~;
#X obj 418 401 *~;
#X obj 308 482 dac~;
#X obj 160 5 bng 15 250 50 0 empty empty empty 17 7 0 10 -262144 -1
-1;
#X obj 201 73 vline~;
#X obj 201 97 *~, f 10;
#X obj 267 75 noise~;
#X msg 202 48 1 1 \, 0 5 1;
#X obj 407 6 +~;
#X obj 821 54 vsl 15 128 0 127 0 0 empty empty empty 0 -9 0 10 -262144
-1 -1 0 1;
#X obj 821 190 / 127;
#X obj 821 214 * 20;
#X obj 819 241 s modRate;
#X obj 899 246 s modDepth;
#X obj 905 51 vsl 15 128 0 127 0 0 empty empty empty 0 -9 0 10 -262144
-1 -1 0 1;
#X obj 905 187 / 127;
#X obj 905 211 * 10;
#X obj 351 103 vsl 15 128 0 127 0 0 empty empty empty 0 -9 0 10 -262144
-1 -1 9500 1;
#X obj 352 241 / 127;
#X msg 352 265 \$1 5;
#X obj 352 289 line~;
#X obj 302 349 *~;
#N canvas 0 22 450 278 (subpatch) 0;
#X array \$0-er-0_levels 8 float 3;
#A 0 0.9186 0.8412 0.6175 0.6979 0.4775 0.6574 0.3977 0.4751;
#X coords 0 1 8 0 198 51 1 0 0;
#X restore 626 455 graph;
#X obj 402 68 diffusion8 20 \$0 0, f 23;
#X obj 401 102 diffusion8 40 \$0 1, f 23;
#X obj 401 132 diffusion8 80 \$0 2, f 23;
#X obj 401 162 diffusion8 160 \$0 3, f 23;
#N canvas 0 22 450 278 (subpatch) 0;
#X array \$0-er-1_levels 8 float 3;
#A 0 0.2541 0.4918 0.8128 0.2627 0.5101 0.1066 0.1623 0.6529;
#X coords 0 1 8 0 198 51 1 0 0;
#X restore 626 524 graph;
#N canvas 0 22 450 278 (subpatch) 0;
#X array \$0-er-2_levels 8 float 3;
#A 0 0.0331 0.1128 0.4912 0.3501 0.5164 0.1204 0.2947 0.13;
#X coords 0 1 8 0 198 51 1 0 0;
#X restore 624 594 graph;
#N canvas 0 22 450 278 (subpatch) 0;
#X array \$0-er-3_levels 8 float 3;
#A 0 0.2926 0.196 0.5756 0.6656 0.7111 0.5244 0.7081 0.7586;
#X coords 0 1 8 0 198 51 1 0 0;
#X restore 624 663 graph;
#N canvas 0 22 450 278 (subpatch) 0;
#X array \$0-er-0_time 8 float 3;
#A 0 0.725624 0.90136 1.68934 2.97619 3.67347 4.25737 5.56689 6.49093
;
#X coords 0 6.66666 8 0 189 53 1 0 0;
#X restore 414 453 graph;
#N canvas 0 22 450 278 (subpatch) 0;
#X array \$0-er-1_time 8 float 3;
#A 0 0.498866 3.14059 3.69614 5.54421 7.89115 8.99092 11.1791 13.0045
;
#X coords 0 13.3333 8 0 189 53 1 0 0;
#X restore 413 526 graph;
#N canvas 0 22 450 278 (subpatch) 0;
#X array \$0-er-2_time 8 float 3;
#A 0 0.975057 6.48526 8.20861 11.5419 15.4648 17.4376 20.9977 24.7846
;
#X coords 0 26.6667 8 0 189 53 1 0 0;
#X restore 412 595 graph;
#N canvas 0 22 450 278 (subpatch) 0;
#X array \$0-er-3_time 8 float 3;
#A 0 1.60998 7.55102 18.0045 23.5601 29.7959 37.0068 42.6757 49.4784
;
#X coords 0 53.3333 8 0 189 53 1 0 0;
#X restore 414 669 graph;
#X obj 669 17 vsl 15 128 0 127 0 0 empty empty empty 0 -9 0 10 -262144
-1 -1 0 1;
#X obj 669 153 / 127;
#X msg 669 177 \$1 5;
#X obj 669 201 line~;
#X obj 633 240 *~;
#X obj 854 329 bng 15 250 50 0 empty empty empty 17 7 0 10 -262144
-1 -1;
#X obj 856 356 s \$0-rand;
#X floatatom 881 448 5 0 0 0 - - -;
#X obj 986 469 * 0.5;
#X obj 881 471 * 0.533333;
#X obj 1087 468 * 0.5;
#X obj 1188 468 * 0.5;
#X floatatom 881 495 5 0 0 0 - - -;
#X floatatom 986 493 5 0 0 0 - - -;
#X floatatom 1087 492 5 0 0 0 - - -;
#X floatatom 1188 492 5 0 0 0 - - -;
#X obj 881 516 s \$0-erLen-3;
#X obj 982 518 s \$0-erLen-2;
#X obj 1087 518 s \$0-erLen-1;
#X obj 1188 518 s \$0-erLen-0;
#X obj 879 391 loadbang;
#X msg 879 415 100;
#X floatatom 837 561 5 0 0 0 - - -;
#X obj 837 537 * 0.9;
#X obj 837 584 t b f;
#X obj 837 650 pack;
#X obj 837 673 s \$0-lrDelTs;
#X obj 1038 557 vsl 15 128 0 500 0 0 empty empty empty 0 -9 0 10 -262144
-1 -1 0 1;
#X obj 917 623 max;
#X floatatom 917 647 5 0 0 0 - - -;
#X obj 401 219 delayStage8 500 50 \$0, f 23;
#X floatatom 970 572 5 0 0 0 - - -;
#X obj 922 585 * 1.5;
#X msg 1028 322 0.85;
#X obj 1028 382 s \$0-lrFB;
#X obj 1032 348 hsl 128 15 0 1 0 0 empty empty empty -2 -8 0 10 -262144
-1 -1 10795 1;
#N canvas 0 22 450 278 (subpatch) 0;
#X array \$0-lr_levels 8 float 3;
#A 0 0.9511 0.0561 0.0792 0.8263 0.8588 0.5708 0.7184 0.0526;
#X coords 0 1 8 0 198 51 1 0 0;
#X restore 180 619 graph;
#N canvas 0 23 450 278 (subpatch) 0;
#X array \$0-lr_time 8 float 3;
#A 0 50.1134 53.4308 56.5669 61.9478 63.4286 66.9274 68.6349 72.1564
;
#X coords 0 500 8 0 189 53 1 0 0;
#X restore 180 546 graph;
#N canvas 0 23 450 300 rand_lrTimes 0;
#X obj 108 17 r \$0-rand;
#X obj 108 41 t b b, f 11;
#X msg 108 65 8;
#X obj 108 89 until;
#X obj 108 123 +;
#X obj 145 123 + 1;
#X msg 182 74 0;
#X obj 108 147 t b f, f 20;
#X obj 108 171 random 10000;
#X obj 108 195 / 10000;
#X obj 108 219 tabwrite \$0-lr_levels;
#X connect 0 0 1 0;
#X connect 1 0 2 0;
#X connect 1 1 6 0;
#X connect 2 0 3 0;
#X connect 3 0 4 0;
#X connect 4 0 5 0;
#X connect 4 0 7 0;
#X connect 5 0 4 1;
#X connect 6 0 4 1;
#X connect 7 0 8 0;
#X connect 7 1 10 1;
#X connect 8 0 9 0;
#X connect 9 0 10 0;
#X restore 162 489 pd rand_lrTimes;
#X obj 79 303 writesf~;
#X msg 55 74 bang;
#X msg 157 121 start;
#X msg 86 162 stop;
#X obj 55 115 del 1000;
#X obj 76 24 t b b;
#X msg 133 267 open foo.wav;
#X connect 0 0 1 0;
#X connect 1 0 2 0;
#X connect 2 0 3 0;
#X connect 3 0 4 1;
#X connect 4 0 5 0;
#X connect 4 0 5 1;
#X connect 6 0 81 0;
#X connect 7 0 8 0;
#X connect 8 0 11 0;
#X connect 8 0 24 0;
#X connect 8 0 76 0;
#X connect 9 0 8 1;
#X connect 10 0 7 0;
#X connect 11 0 26 0;
#X connect 11 0 26 1;
#X connect 11 0 26 2;
#X connect 11 0 26 3;
#X connect 11 0 26 4;
#X connect 11 0 26 5;
#X connect 11 0 26 6;
#X connect 11 0 26 7;
#X connect 12 0 13 0;
#X connect 13 0 14 0;
#X connect 14 0 15 0;
#X connect 17 0 18 0;
#X connect 18 0 19 0;
#X connect 19 0 16 0;
#X connect 20 0 21 0;
#X connect 21 0 22 0;
#X connect 22 0 23 0;
#X connect 23 0 24 1;
#X connect 24 0 5 0;
#X connect 24 0 5 1;
#X connect 26 0 27 0;
#X connect 26 1 27 1;
#X connect 26 2 27 2;
#X connect 26 3 27 3;
#X connect 26 4 27 4;
#X connect 26 5 27 5;
#X connect 26 6 27 6;
#X connect 26 7 27 7;
#X connect 26 8 41 0;
#X connect 27 0 28 0;
#X connect 27 1 28 1;
#X connect 27 2 28 2;
#X connect 27 3 28 3;
#X connect 27 4 28 4;
#X connect 27 5 28 5;
#X connect 27 6 28 6;
#X connect 27 7 28 7;
#X connect 27 8 41 0;
#X connect 28 0 29 0;
#X connect 28 1 29 1;
#X connect 28 2 29 2;
#X connect 28 3 29 3;
#X connect 28 4 29 4;
#X connect 28 5 29 5;
#X connect 28 6 29 6;
#X connect 28 7 29 7;
#X connect 28 8 41 0;
#X connect 29 0 67 0;
#X connect 29 1 67 1;
#X connect 29 2 67 2;
#X connect 29 3 67 3;
#X connect 29 4 67 4;
#X connect 29 5 67 5;
#X connect 29 6 67 6;
#X connect 29 7 67 7;
#X connect 29 8 41 0;
#X connect 37 0 38 0;
#X connect 38 0 39 0;
#X connect 39 0 40 0;
#X connect 40 0 41 1;
#X connect 41 0 4 0;
#X connect 42 0 43 0;
#X connect 44 0 46 0;
#X connect 45 0 47 0;
#X connect 45 0 50 0;
#X connect 46 0 45 0;
#X connect 46 0 49 0;
#X connect 47 0 48 0;
#X connect 47 0 51 0;
#X connect 48 0 52 0;
#X connect 49 0 53 0;
#X connect 49 0 60 0;
#X connect 50 0 54 0;
#X connect 51 0 55 0;
#X connect 52 0 56 0;
#X connect 57 0 58 0;
#X connect 57 0 70 0;
#X connect 58 0 44 0;
#X connect 59 0 61 0;
#X connect 60 0 59 0;
#X connect 61 0 62 0;
#X connect 61 0 65 0;
#X connect 61 1 62 1;
#X connect 61 1 69 0;
#X connect 62 0 63 0;
#X connect 64 0 65 0;
#X connect 65 0 62 0;
#X connect 65 0 66 0;
#X connect 67 0 4 0;
#X connect 68 0 65 0;
#X connect 69 0 65 1;
#X connect 70 0 72 0;
#X connect 72 0 71 0;
#X connect 77 0 78 0;
#X connect 77 0 80 0;
#X connect 78 0 76 0;
#X connect 79 0 76 0;
#X connect 80 0 79 0;
#X connect 81 0 10 0;
#X connect 81 1 77 0;
#X connect 82 0 76 0;
