#N canvas 117 23 1163 755 12;
#X obj 59 28 inlet~;
#X obj 133 28 inlet~;
#X obj 265 28 inlet~;
#X obj 390 28 inlet~;
#X obj 28 403 outlet~;
#X obj 481 28 inlet~;
#X obj 605 28 inlet~;
#X obj 691 26 inlet~;
#X obj 783 28 inlet~;
#X obj 663 285 householder8, f 35;
#X obj 629 433 s~ \$0-fb0;
#X obj 653 459 s~ \$0-fb1;
#X obj 712 433 s~ \$0-fb2;
#X obj 735 459 s~ \$0-fb3;
#X obj 793 431 s~ \$0-fb4;
#X obj 817 457 s~ \$0-fb5;
#X obj 877 433 s~ \$0-fb6;
#X obj 901 459 s~ \$0-fb7;
#X obj 51 89 diffusionInLogic \$0 0, f 11;
#X obj 162 89 diffusionInLogic \$0 1, f 11;
#X obj 289 89 diffusionInLogic \$0 2, f 11;
#X obj 382 89 diffusionInLogic \$0 3, f 11;
#X obj 479 89 diffusionInLogic \$0 4, f 11;
#X obj 590 89 diffusionInLogic \$0 5, f 11;
#X obj 676 89 diffusionInLogic \$0 6, f 11;
#X obj 769 89 diffusionInLogic \$0 7, f 11;
#X obj 26 195 diffusionPostDelay \$0 0, f 13;
#X obj 125 195 diffusionPostDelay \$0 1, f 13;
#X obj 223 195 diffusionPostDelay \$0 2, f 13;
#X obj 324 195 diffusionPostDelay \$0 3, f 13;
#X obj 425 195 diffusionPostDelay \$0 4, f 13;
#X obj 523 195 diffusionPostDelay \$0 5, f 13;
#X obj 624 195 diffusionPostDelay \$0 6, f 13;
#X obj 725 195 diffusionPostDelay \$0 7, f 13;
#X obj 314 153 clone delayLine_poly 8 \$1 \$2 \$0;
#X floatatom 574 139 5 0 0 0 - - -;
#X msg 574 162 vis \$1 1;
#X obj 105 482 bng 15 250 50 0 empty empty empty 17 7 0 10 -262144
-1 -1;
#X obj 105 502 \$0;
#X floatatom 106 533 5 0 0 0 - - -;
#X obj 68 63 r~ \$0-fb0;
#X obj 300 63 r~ \$0-fb2;
#X obj 505 63 r~ \$0-fb4;
#X obj 692 63 r~ \$0-fb6;
#X obj 172 61 r~ \$0-fb1;
#X obj 395 61 r~ \$0-fb3;
#X obj 607 61 r~ \$0-fb5;
#X obj 785 61 r~ \$0-fb7;
#X obj 906 229 s \$0-delLens;
#X obj 906 203 r \$3-lrDelTs;
#X obj 1027 222 r \$3-lrFB;
#X msg 1027 246 \$1 5;
#X obj 608 376 *~;
#X obj 671 374 *~;
#X obj 729 376 *~;
#X obj 791 375 *~;
#X obj 854 375 *~;
#X obj 912 377 *~;
#X obj 974 376 *~;
#X obj 1036 379 *~;
#X obj 1025 284 line~;
#N canvas 528 23 730 473 lrOuts 0;
#X obj 11 4 loadbang;
#X msg 11 28 1;
#X obj 11 52 metro 100;
#X msg 11 76 8;
#X obj 11 122 until;
#X obj 11 100 t f b, f 14;
#X msg 91 122 0;
#X obj 11 146 +;
#X obj 77 151 + 1;
#X obj 11 170 t f f;
#X obj 42 194 tabread \$3-lr_time;
#X obj 11 227 pack, f 5;
#X obj 11 251 route 0 1 2 3 4 5 6 7;
#X obj 445 418 outlet~;
#X obj 198 1 inlet~;
#X obj 198 356 *~, f 8;
#X obj 261 2 inlet~;
#X obj 261 357 *~, f 8;
#X obj 325 1 inlet~;
#X obj 325 356 *~, f 8;
#X obj 391 1 inlet~;
#X obj 391 356 *~, f 8;
#X obj 461 0 inlet~;
#X obj 461 355 *~, f 8;
#X obj 524 1 inlet~;
#X obj 524 356 *~, f 8;
#X obj 588 0 inlet~;
#X obj 588 355 *~, f 8;
#X obj 654 0 inlet~;
#X obj 654 355 *~, f 8;
#X connect 0 0 1 0;
#X connect 1 0 2 0;
#X connect 2 0 3 0;
#X connect 3 0 5 0;
#X connect 4 0 7 0;
#X connect 5 0 4 0;
#X connect 5 1 6 0;
#X connect 6 0 7 1;
#X connect 7 0 8 0;
#X connect 7 0 9 0;
#X connect 8 0 7 1;
#X connect 9 0 11 0;
#X connect 9 1 10 0;
#X connect 10 0 11 1;
#X connect 11 0 12 0;
#X connect 12 0 15 1;
#X connect 12 1 17 1;
#X connect 12 2 19 1;
#X connect 12 3 21 1;
#X connect 12 4 23 1;
#X connect 12 5 25 1;
#X connect 12 6 27 1;
#X connect 12 7 29 1;
#X connect 14 0 15 0;
#X connect 15 0 13 0;
#X connect 16 0 17 0;
#X connect 17 0 13 0;
#X connect 18 0 19 0;
#X connect 19 0 13 0;
#X connect 20 0 21 0;
#X connect 21 0 13 0;
#X connect 22 0 23 0;
#X connect 23 0 13 0;
#X connect 24 0 25 0;
#X connect 25 0 13 0;
#X connect 26 0 27 0;
#X connect 27 0 13 0;
#X connect 28 0 29 0;
#X connect 29 0 13 0;
#X restore 117 328 pd lrOuts;
#X f 47;
#X obj 990 73 r \$3-rand;
#X obj 990 97 s \$0-randomDel;
#X obj 440 481 s \$0-delTabName;
#X obj 437 430 loadbang;
#X obj 437 454 symbol \$3-lr_time;
#X connect 0 0 18 0;
#X connect 1 0 19 0;
#X connect 2 0 20 0;
#X connect 3 0 21 0;
#X connect 5 0 22 0;
#X connect 6 0 23 0;
#X connect 7 0 24 0;
#X connect 8 0 25 0;
#X connect 9 0 52 0;
#X connect 9 1 53 0;
#X connect 9 2 54 0;
#X connect 9 3 55 0;
#X connect 9 4 56 0;
#X connect 9 5 57 0;
#X connect 9 6 58 0;
#X connect 9 7 59 0;
#X connect 18 0 34 0;
#X connect 19 0 34 0;
#X connect 20 0 34 0;
#X connect 21 0 34 0;
#X connect 22 0 34 0;
#X connect 23 0 34 0;
#X connect 24 0 34 0;
#X connect 25 0 34 0;
#X connect 26 0 9 0;
#X connect 26 0 61 0;
#X connect 27 0 9 1;
#X connect 27 0 61 1;
#X connect 28 0 9 2;
#X connect 28 0 61 2;
#X connect 29 0 9 3;
#X connect 29 0 61 3;
#X connect 30 0 9 4;
#X connect 30 0 61 4;
#X connect 31 0 9 5;
#X connect 31 0 61 5;
#X connect 32 0 9 6;
#X connect 32 0 61 6;
#X connect 33 0 9 7;
#X connect 33 0 61 7;
#X connect 34 0 26 0;
#X connect 34 0 27 0;
#X connect 34 0 28 0;
#X connect 34 0 29 0;
#X connect 34 0 30 0;
#X connect 34 0 31 0;
#X connect 34 0 32 0;
#X connect 34 0 33 0;
#X connect 35 0 36 0;
#X connect 36 0 34 0;
#X connect 37 0 38 0;
#X connect 38 0 39 0;
#X connect 40 0 18 0;
#X connect 41 0 20 0;
#X connect 42 0 22 0;
#X connect 43 0 24 0;
#X connect 44 0 19 0;
#X connect 45 0 21 0;
#X connect 46 0 23 0;
#X connect 47 0 25 0;
#X connect 49 0 48 0;
#X connect 50 0 51 0;
#X connect 51 0 60 0;
#X connect 52 0 10 0;
#X connect 53 0 11 0;
#X connect 54 0 12 0;
#X connect 55 0 13 0;
#X connect 56 0 14 0;
#X connect 57 0 15 0;
#X connect 58 0 16 0;
#X connect 59 0 17 0;
#X connect 60 0 52 1;
#X connect 60 0 53 1;
#X connect 60 0 54 1;
#X connect 60 0 55 1;
#X connect 60 0 56 1;
#X connect 60 0 57 1;
#X connect 60 0 58 1;
#X connect 60 0 59 1;
#X connect 61 0 4 0;
#X connect 62 0 63 0;
#X connect 65 0 66 0;
#X connect 66 0 64 0;
