#N canvas 0 23 689 650 12;
#X obj 16 5 inlet~;
#X obj 12 38 outlet~;
#X obj 317 234 loadbang;
#X obj 317 266 samplerate~;
#X obj 317 290 t b b f, f 15;
#X obj 419 331 * 0.001;
#X obj 369 369 * 44.1, f 7;
#X obj 369 417 t f f, f 8;
#X obj 277 350 random;
#X obj 277 374 +;
#X obj 277 398 /;
#X floatatom 276 478 5 0 0 0 - - -;
#X obj 155 463 sig~;
#X obj 64 517 *~;
#X obj 64 329 osc~;
#X obj 64 352 *~, f 8;
#X obj 50 88 * 10000;
#X obj 50 112 t b f, f 10;
#X obj 50 136 random;
#X obj 50 160 / 10000;
#X obj 136 173 * 10000;
#X obj 136 197 t b f, f 10;
#X obj 136 221 random;
#X obj 136 245 / 10000;
#X floatatom 61 197 5 0 0 0 - - -;
#X floatatom 146 277 5 0 0 0 - - -;
#X obj 264 232 bng 15 250 50 0 empty empty empty 17 7 0 10 -262144
-1 -1;
#X obj 369 321 \$2;
#X obj 369 345 - \$3;
#X obj 399 460 * \$1;
#X obj 369 393 / 1, f 26;
#X obj 136 149 r \$4-modDepth-\$1;
#X obj 50 64 r \$4-modRate-\$1;
#X obj 155 599 s~ \$4-voiceOut-\$1;
#X obj 530 177 loadbang;
#X obj 530 201 \$1;
#X obj 530 225 s \$4-vNum;
#X obj 530 254 r \$4-vNum;
#X obj 530 278 max;
#X obj 530 302 int;
#X obj 530 326 + 1;
#X obj 264 204 r \$4-randomDel;
#X obj 222 436 + \$3;
#X obj 530 350 t b f;
#X obj 33 568 r~ \$4-chanIn-\$1;
#X text 481 41 \$1 - voice# \; \$2 - delMax \; \$3 - delMin \; \$4
- parent ID \; \$5 - parent's parent ID \; \$6 - diffusion stage;
#X obj 276 502 pack 0 \$1;
#X obj 276 569 tabwrite \$5-er-\$6_time;
#X obj 105 416 r \$4-delT-\$1;
#X floatatom 105 440 5 0 0 0 - - -;
#X obj 182 33 unpack;
#X obj 182 57 s \$0-delMx;
#X obj 192 95 s \$0-delMn;
#X obj 433 226 r \$0-delMn;
#X obj 395 164 r \$0-delMx;
#X obj 395 188 t b f;
#X floatatom 453 200 5 0 0 0 - - -;
#X obj 182 9 r \$4-delLens;
#N canvas 0 23 450 300 delWriter 0;
#X obj 37 37 inlet~;
#X obj 143 67 delwrite~ \$0-delLine \$2;
#X obj 36 94 outlet~;
#X connect 0 0 1 0;
#X connect 0 0 2 0;
#X restore 33 592 pd delWriter;
#N canvas 0 23 450 300 delReader 0;
#X obj 118 37 inlet~;
#X obj 200 90 vd~ \$0-delLine;
#X obj 200 38 inlet~;
#X obj 200 114 outlet~;
#X connect 1 0 3 0;
#X connect 2 0 1 0;
#X restore 155 575 pd delReader;
#X obj 440 481 r \$4-delTabName;
#X obj 440 505 symbol;
#X msg 440 529 set \$1;
#X connect 2 0 3 0;
#X connect 3 0 4 0;
#X connect 4 0 8 0;
#X connect 4 1 27 0;
#X connect 4 2 5 0;
#X connect 5 0 6 1;
#X connect 5 0 10 1;
#X connect 6 0 30 0;
#X connect 7 0 8 1;
#X connect 7 1 29 0;
#X connect 8 0 9 0;
#X connect 9 0 10 0;
#X connect 10 0 42 0;
#X connect 11 0 46 0;
#X connect 12 0 13 1;
#X connect 12 0 59 1;
#X connect 13 0 59 1;
#X connect 14 0 15 0;
#X connect 15 0 13 0;
#X connect 16 0 17 0;
#X connect 17 0 18 0;
#X connect 17 1 18 1;
#X connect 18 0 19 0;
#X connect 19 0 14 0;
#X connect 19 0 24 0;
#X connect 20 0 21 0;
#X connect 21 0 22 0;
#X connect 21 1 22 1;
#X connect 22 0 23 0;
#X connect 23 0 15 1;
#X connect 23 0 25 0;
#X connect 26 0 3 0;
#X connect 27 0 28 0;
#X connect 28 0 6 0;
#X connect 29 0 9 1;
#X connect 30 0 7 0;
#X connect 31 0 20 0;
#X connect 32 0 16 0;
#X connect 34 0 35 0;
#X connect 35 0 36 0;
#X connect 37 0 38 0;
#X connect 38 0 39 0;
#X connect 39 0 38 1;
#X connect 39 0 40 0;
#X connect 40 0 43 0;
#X connect 41 0 26 0;
#X connect 42 0 11 0;
#X connect 42 0 12 0;
#X connect 43 0 3 0;
#X connect 43 1 30 1;
#X connect 44 0 58 0;
#X connect 46 0 47 0;
#X connect 48 0 12 0;
#X connect 48 0 49 0;
#X connect 50 0 51 0;
#X connect 50 1 52 0;
#X connect 53 0 28 1;
#X connect 54 0 55 0;
#X connect 55 0 3 0;
#X connect 55 1 27 1;
#X connect 55 1 56 0;
#X connect 57 0 50 0;
#X connect 58 0 59 0;
#X connect 59 0 33 0;
#X connect 60 0 61 0;
#X connect 61 0 62 0;
#X connect 62 0 47 0;
