#N canvas 0 23 920 690 12;
#X obj 33 327 inlet~;
#X obj 21 644 outlet~;
#X obj 33 351 flipper;
#X obj 33 431 throw~;
#X obj 21 613 catch~ \$0-out0;
#X obj 135 642 outlet~;
#X obj 250 643 outlet~;
#X obj 362 642 outlet~;
#X obj 470 642 outlet~;
#X obj 578 642 outlet~;
#X obj 685 642 outlet~;
#X obj 792 641 outlet~;
#X obj 135 611 catch~ \$0-out1;
#X obj 250 612 catch~ \$0-out2;
#X obj 361 611 catch~ \$0-out3;
#X obj 470 611 catch~ \$0-out4;
#X obj 578 611 catch~ \$0-out5;
#X obj 685 611 catch~ \$0-out6;
#X obj 793 609 catch~ \$0-out7;
#X obj 280 15 loadbang;
#X msg 262 53 8;
#X obj 315 153 urn_sjf 8;
#X obj 262 77 until;
#X obj 358 37 bng 15 250 50 0 empty empty empty 17 7 0 10 #fcfcfc #000000
#000000;
#X obj 224 107 t b b, f 8;
#X obj 224 145 +;
#X obj 279 148 + 1;
#X obj 358 57 t b b;
#X msg 338 104 0;
#X obj 224 271 route 0 1 2 3 4 5 6 7, f 26;
#X obj 224 239 pack 0 s;
#X obj 315 177 pack 0 \$0;
#X msg 315 201 symbol \$2-out\$1;
#X msg 112 391 set \$1;
#X obj 112 367 symbol;
#X obj 178 323 inlet~;
#X obj 178 347 flipper;
#X obj 178 427 throw~;
#X msg 257 387 set \$1;
#X obj 257 363 symbol;
#X obj 319 319 inlet~;
#X obj 319 343 flipper;
#X obj 319 423 throw~;
#X msg 398 383 set \$1;
#X obj 398 359 symbol;
#X obj 473 324 inlet~;
#X obj 473 348 flipper;
#X obj 473 428 throw~;
#X msg 552 388 set \$1;
#X obj 552 364 symbol;
#X obj 108 460 inlet~;
#X obj 108 484 flipper;
#X obj 108 564 throw~;
#X msg 187 524 set \$1;
#X obj 187 500 symbol;
#X obj 249 456 inlet~;
#X obj 249 480 flipper;
#X obj 249 560 throw~;
#X msg 328 520 set \$1;
#X obj 328 496 symbol;
#X obj 403 461 inlet~;
#X obj 403 485 flipper;
#X obj 403 565 throw~;
#X msg 482 525 set \$1;
#X obj 482 501 symbol;
#X obj 559 440 inlet~;
#X obj 559 464 flipper;
#X obj 559 544 throw~;
#X msg 638 504 set \$1;
#X obj 638 480 symbol;
#X obj 358 9 r \$1-randomF&S;
#X connect 0 0 2 0;
#X connect 2 0 3 0;
#X connect 4 0 1 0;
#X connect 12 0 5 0;
#X connect 13 0 6 0;
#X connect 14 0 7 0;
#X connect 15 0 8 0;
#X connect 16 0 9 0;
#X connect 17 0 10 0;
#X connect 18 0 11 0;
#X connect 19 0 20 0;
#X connect 20 0 22 0;
#X connect 21 0 31 0;
#X connect 22 0 24 0;
#X connect 23 0 27 0;
#X connect 24 0 25 0;
#X connect 24 1 21 0;
#X connect 25 0 26 0;
#X connect 25 0 30 0;
#X connect 26 0 25 1;
#X connect 27 0 20 0;
#X connect 27 1 21 2;
#X connect 27 1 28 0;
#X connect 28 0 25 1;
#X connect 29 0 34 0;
#X connect 29 1 54 0;
#X connect 29 2 39 0;
#X connect 29 3 59 0;
#X connect 29 4 44 0;
#X connect 29 5 64 0;
#X connect 29 6 49 0;
#X connect 29 7 69 0;
#X connect 30 0 29 0;
#X connect 31 0 32 0;
#X connect 32 0 30 1;
#X connect 33 0 3 0;
#X connect 34 0 33 0;
#X connect 35 0 36 0;
#X connect 36 0 37 0;
#X connect 38 0 37 0;
#X connect 39 0 38 0;
#X connect 40 0 41 0;
#X connect 41 0 42 0;
#X connect 43 0 42 0;
#X connect 44 0 43 0;
#X connect 45 0 46 0;
#X connect 46 0 47 0;
#X connect 48 0 47 0;
#X connect 49 0 48 0;
#X connect 50 0 51 0;
#X connect 51 0 52 0;
#X connect 53 0 52 0;
#X connect 54 0 53 0;
#X connect 55 0 56 0;
#X connect 56 0 57 0;
#X connect 58 0 57 0;
#X connect 59 0 58 0;
#X connect 60 0 61 0;
#X connect 61 0 62 0;
#X connect 63 0 62 0;
#X connect 64 0 63 0;
#X connect 65 0 66 0;
#X connect 66 0 67 0;
#X connect 68 0 67 0;
#X connect 69 0 68 0;
#X connect 70 0 23 0;
