#N canvas 39 123 1128 427 12;
#X obj 151 43 inlet~;
#X obj 173 337 vd~ \$0-delLine;
#X obj 365 49 loadbang;
#X obj 173 386 outlet~;
#X floatatom 318 344 5 0 0 0 - - -;
#X obj 173 362 *~ 1;
#X obj 151 71 delwrite~ \$0-delLine \$1;
#X obj 365 74 t b b;
#X obj 318 221 random;
#X obj 400 104 int \$1;
#X obj 400 230 / \$2;
#X obj 400 294 * \$3;
#X obj 318 245 +;
#X obj 457 46 bng 15 250 50 0 empty empty empty 17 7 0 10 -262144 -1
-1;
#X obj 173 224 sig~;
#X obj 456 22 r randDelays;
#X obj 649 88 samplerate~;
#X obj 649 61 r pd-dsp-started;
#X obj 649 112 * 0.001;
#X obj 400 191 * 44.1;
#X obj 649 136 t b f;
#X obj 318 293 + \$4;
#X obj 318 269 / 44.1;
#X obj 621 66 bng 15 250 50 0 empty empty empty 17 7 0 10 -262144 -1
-1;
#X obj 400 128 - \$4;
#X text 690 202 \$1 - total delay \; \$2 - nChannels \; \$3 - voice#
\; \$4 - minDelay \; \$5 - parent id;
#X obj 261 219 /;
#X connect 0 0 6 0;
#X connect 1 0 5 0;
#X connect 2 0 7 0;
#X connect 5 0 3 0;
#X connect 7 0 8 0;
#X connect 7 1 9 0;
#X connect 8 0 12 0;
#X connect 8 0 26 0;
#X connect 9 0 24 0;
#X connect 10 0 11 0;
#X connect 10 0 8 1;
#X connect 10 0 26 1;
#X connect 11 0 12 1;
#X connect 12 0 22 0;
#X connect 13 0 7 0;
#X connect 14 0 1 0;
#X connect 15 0 13 0;
#X connect 16 0 18 0;
#X connect 17 0 16 0;
#X connect 18 0 20 0;
#X connect 19 0 10 0;
#X connect 20 0 7 0;
#X connect 20 1 19 1;
#X connect 20 1 22 1;
#X connect 21 0 14 0;
#X connect 21 0 4 0;
#X connect 22 0 21 0;
#X connect 23 0 16 0;
#X connect 24 0 19 0;
