#N canvas 10 201 1199 529 12;
#X obj 35 10 inlet~;
#X obj 165 11 inlet~;
#X obj 289 12 inlet~;
#X obj 412 13 inlet~;
#X obj 538 11 inlet~;
#X obj 657 9 inlet~;
#X obj 776 8 inlet~;
#X obj 899 13 inlet~;
#X obj 117 269 househoulder8, f 108;
#X obj 120 240 *~ 0.85;
#X obj 212 240 *~ 0.85;
#X obj 317 240 *~ 0.85;
#X obj 432 240 *~ 0.85;
#X obj 538 240 *~ 0.85;
#X obj 656 240 *~ 0.85;
#X obj 757 240 *~ 0.85;
#X obj 855 240 *~ 0.85;
#X obj 13 171 outlet~;
#X obj 181 171 outlet~;
#X obj 306 171 outlet~;
#X obj 412 171 outlet~;
#X obj 548 171 outlet~;
#X obj 662 171 outlet~;
#X obj 769 172 outlet~;
#X obj 872 172 outlet~;
#X obj 115 301 s~ \$0-del0;
#X obj 64 32 r~ \$0-del0;
#X obj 212 301 s~ \$0-del1;
#X obj 311 301 s~ \$0-del2;
#X obj 424 301 s~ \$0-del3;
#X obj 521 301 s~ \$0-del4;
#X obj 662 301 s~ \$0-del5;
#X obj 757 301 s~ \$0-del6;
#X obj 854 301 s~ \$0-del7;
#X obj 156 90 r~ \$0-del1;
#X obj 293 49 r~ \$0-del2;
#X obj 416 83 r~ \$0-del3;
#X obj 544 56 r~ \$0-del4;
#X obj 665 48 r~ \$0-del5;
#X obj 784 49 r~ \$0-del6;
#X obj 937 53 r~ \$0-del7;
#X obj 14 63 delayLine2 \$1 8 0 \$2 \$0;
#X obj 109 113 delayLine2 \$1 8 1 \$2 \$0;
#X obj 249 78 delayLine2 \$1 8 2 \$2 \$0;
#X obj 354 132 delayLine2 \$1 8 3 \$2 \$0;
#X obj 497 83 delayLine2 \$1 8 4 \$2 \$0;
#X obj 619 120 delayLine2 \$1 8 5 \$2 \$0;
#X obj 723 75 delayLine2 \$1 8 6 \$2 \$0;
#X obj 854 120 delayLine2 \$1 8 7 \$2 \$0;
#X obj 1057 16 inlet;
#X obj 1057 40 unpack;
#X obj 1015 76 s \$0-modRate;
#X obj 1088 97 s \$0-modDepth;
#X connect 0 0 41 0;
#X connect 1 0 42 0;
#X connect 2 0 43 0;
#X connect 3 0 44 0;
#X connect 4 0 45 0;
#X connect 5 0 46 0;
#X connect 6 0 47 0;
#X connect 7 0 48 0;
#X connect 8 0 25 0;
#X connect 8 1 27 0;
#X connect 8 2 28 0;
#X connect 8 3 29 0;
#X connect 8 4 30 0;
#X connect 8 5 31 0;
#X connect 8 6 32 0;
#X connect 8 7 33 0;
#X connect 9 0 8 0;
#X connect 10 0 8 1;
#X connect 11 0 8 2;
#X connect 12 0 8 3;
#X connect 13 0 8 4;
#X connect 14 0 8 5;
#X connect 15 0 8 6;
#X connect 16 0 8 7;
#X connect 26 0 41 0;
#X connect 34 0 42 0;
#X connect 35 0 43 0;
#X connect 36 0 44 0;
#X connect 37 0 45 0;
#X connect 38 0 46 0;
#X connect 39 0 47 0;
#X connect 40 0 48 0;
#X connect 41 0 9 0;
#X connect 41 0 17 0;
#X connect 42 0 10 0;
#X connect 42 0 18 0;
#X connect 43 0 11 0;
#X connect 43 0 19 0;
#X connect 44 0 12 0;
#X connect 44 0 20 0;
#X connect 45 0 13 0;
#X connect 45 0 21 0;
#X connect 46 0 22 0;
#X connect 46 0 14 0;
#X connect 47 0 15 0;
#X connect 47 0 23 0;
#X connect 48 0 16 0;
#X connect 48 0 24 0;
#X connect 49 0 50 0;
#X connect 50 0 51 0;
#X connect 50 1 52 0;
