#N canvas 260 178 760 538 12;
#X obj 137 23 inlet~;
#X obj 217 313 outlet~;
#X obj 282 26 inlet~;
#X obj 422 25 inlet~;
#X obj 565 23 inlet~;
#X obj 319 315 outlet~;
#X obj 427 318 outlet~;
#X obj 540 311 outlet~;
#X obj 204 262 hadamard4 0.5, f 49;
#X obj 110 142 delayLine \$1 4 0;
#X obj 255 145 delayLine \$1 4 1;
#X obj 395 144 delayLine \$1 4 2;
#X obj 538 142 delayLine \$1 4 3;
#X obj 235 201 polarityFlipper4;
#X connect 0 0 9 0;
#X connect 2 0 10 0;
#X connect 3 0 11 0;
#X connect 4 0 12 0;
#X connect 8 0 1 0;
#X connect 8 1 5 0;
#X connect 8 2 6 0;
#X connect 8 3 7 0;
#X connect 9 0 13 0;
#X connect 10 0 13 1;
#X connect 11 0 13 2;
#X connect 12 0 13 3;
#X connect 13 0 8 0;
#X connect 13 1 8 1;
#X connect 13 2 8 2;
#X connect 13 3 8 3;
