#N canvas 179 158 1033 341 12;
#X obj 35 10 inlet~;
#X obj 165 11 inlet~;
#X obj 289 12 inlet~;
#X obj 412 13 inlet~;
#X obj 538 11 inlet~;
#X obj 657 9 inlet~;
#X obj 776 8 inlet~;
#X obj 899 13 inlet~;
#X obj 8 207 hadamard8, f 124;
#X obj 8 280 outlet~;
#X obj 82 281 outlet~;
#X obj 179 281 outlet~;
#X obj 253 282 outlet~;
#X obj 362 285 outlet~;
#X obj 436 286 outlet~;
#X obj 533 284 outlet~;
#X obj 607 285 outlet~;
#X obj 8 163 polarityFlipper8, f 124;
#X obj 8 79 delayLine2 \$1 8 0 0 \$0;
#X obj 128 130 delayLine2 \$1 8 1 0 \$0;
#X obj 252 81 delayLine2 \$1 8 2 0 \$0;
#X obj 375 132 delayLine2 \$1 8 3 0 \$0;
#X obj 501 80 delayLine2 \$1 8 4 0 \$0;
#X obj 620 128 delayLine2 \$1 8 5 0 \$0;
#X obj 749 77 delayLine2 \$1 8 6 0 \$0;
#X obj 872 132 delayLine2 \$1 8 7 0 \$0;
#X connect 0 0 18 0;
#X connect 1 0 19 0;
#X connect 2 0 20 0;
#X connect 3 0 21 0;
#X connect 4 0 22 0;
#X connect 5 0 23 0;
#X connect 6 0 24 0;
#X connect 7 0 25 0;
#X connect 8 0 9 0;
#X connect 8 1 10 0;
#X connect 8 2 11 0;
#X connect 8 3 12 0;
#X connect 8 4 13 0;
#X connect 8 5 14 0;
#X connect 8 6 15 0;
#X connect 8 7 16 0;
#X connect 17 0 8 0;
#X connect 17 1 8 1;
#X connect 17 2 8 2;
#X connect 17 3 8 3;
#X connect 17 4 8 4;
#X connect 17 5 8 5;
#X connect 17 6 8 6;
#X connect 17 7 8 7;
#X connect 18 0 17 0;
#X connect 19 0 17 1;
#X connect 20 0 17 2;
#X connect 21 0 17 3;
#X connect 22 0 17 4;
#X connect 23 0 17 5;
#X connect 24 0 17 6;
#X connect 25 0 17 7;
