#N canvas 0 23 1072 729 12;
#X obj 83 33 inlet~;
#X obj 81 562 outlet~;
#X obj 221 562 outlet~;
#X obj 374 564 outlet~;
#X obj 537 571 outlet~;
#X obj 40 87 *~ 1;
#X obj 157 87 *~ 1;
#X obj 283 87 *~ 1;
#X obj 375 86 *~ 1;
#X obj 40 111 *~ \$1;
#X obj 154 112 *~ \$1;
#X obj 40 135 throw~ \$0-out1;
#X obj 154 136 throw~ \$0-out2;
#X obj 280 112 *~ \$1;
#X obj 280 136 throw~ \$0-out3;
#X obj 395 113 *~ \$1;
#X obj 395 137 throw~ \$0-out4;
#X obj 91 528 catch~ \$0-out1;
#X obj 205 529 catch~ \$0-out2;
#X obj 331 529 catch~ \$0-out3;
#X obj 446 530 catch~ \$0-out4;
#X obj 256 173 inlet~;
#X obj 213 227 *~ 1;
#X obj 456 227 *~ 1;
#X obj 213 251 *~ \$1;
#X obj 327 252 *~ \$1;
#X obj 213 275 throw~ \$0-out1;
#X obj 327 276 throw~ \$0-out2;
#X obj 453 252 *~ \$1;
#X obj 453 276 throw~ \$0-out3;
#X obj 568 253 *~ \$1;
#X obj 568 277 throw~ \$0-out4;
#X obj 330 227 *~ -1;
#X obj 548 226 *~ -1;
#X obj 464 313 inlet~;
#X obj 421 367 *~ 1;
#X obj 421 391 *~ \$1;
#X obj 535 392 *~ \$1;
#X obj 421 415 throw~ \$0-out1;
#X obj 535 416 throw~ \$0-out2;
#X obj 661 392 *~ \$1;
#X obj 661 416 throw~ \$0-out3;
#X obj 776 393 *~ \$1;
#X obj 776 417 throw~ \$0-out4;
#X obj 756 366 *~ -1;
#X obj 686 483 inlet~;
#X obj 643 537 *~ 1;
#X obj 643 561 *~ \$1;
#X obj 757 562 *~ \$1;
#X obj 643 585 throw~ \$0-out1;
#X obj 757 586 throw~ \$0-out2;
#X obj 883 562 *~ \$1;
#X obj 883 586 throw~ \$0-out3;
#X obj 998 563 *~ \$1;
#X obj 998 587 throw~ \$0-out4;
#X obj 760 537 *~ -1;
#X obj 538 367 *~ 1;
#X obj 664 367 *~ -1;
#X obj 886 537 *~ -1;
#X obj 978 536 *~ 1;
#X connect 0 0 5 0;
#X connect 0 0 6 0;
#X connect 0 0 7 0;
#X connect 0 0 8 0;
#X connect 5 0 9 0;
#X connect 6 0 10 0;
#X connect 7 0 13 0;
#X connect 8 0 15 0;
#X connect 9 0 11 0;
#X connect 10 0 12 0;
#X connect 13 0 14 0;
#X connect 15 0 16 0;
#X connect 17 0 1 0;
#X connect 18 0 2 0;
#X connect 19 0 3 0;
#X connect 20 0 4 0;
#X connect 21 0 22 0;
#X connect 21 0 23 0;
#X connect 21 0 32 0;
#X connect 21 0 33 0;
#X connect 22 0 24 0;
#X connect 23 0 28 0;
#X connect 24 0 26 0;
#X connect 25 0 27 0;
#X connect 28 0 29 0;
#X connect 30 0 31 0;
#X connect 32 0 25 0;
#X connect 33 0 30 0;
#X connect 34 0 35 0;
#X connect 34 0 44 0;
#X connect 34 0 56 0;
#X connect 34 0 57 0;
#X connect 35 0 36 0;
#X connect 36 0 38 0;
#X connect 37 0 39 0;
#X connect 40 0 41 0;
#X connect 42 0 43 0;
#X connect 44 0 42 0;
#X connect 45 0 46 0;
#X connect 45 0 55 0;
#X connect 45 0 58 0;
#X connect 45 0 59 0;
#X connect 46 0 47 0;
#X connect 47 0 49 0;
#X connect 48 0 50 0;
#X connect 51 0 52 0;
#X connect 53 0 54 0;
#X connect 55 0 48 0;
#X connect 56 0 37 0;
#X connect 57 0 40 0;
#X connect 58 0 51 0;
#X connect 59 0 53 0;
