#N canvas 0 23 617 180 12;
#X obj 43 14 inlet~;
#X obj 103 14 inlet~;
#X obj 162 15 inlet~;
#X obj 39 99 outlet~;
#X obj 103 99 outlet~;
#X obj 165 99 outlet~;
#X obj 228 99 outlet~;
#X obj 281 15 inlet~;
#X obj 339 14 inlet~;
#X obj 404 17 inlet~;
#X obj 495 13 inlet~;
#X obj 287 99 outlet~;
#X obj 351 99 outlet~;
#X obj 420 99 outlet~;
#X obj 483 99 outlet~;
#N canvas 0 23 450 300 v0 0;
#X obj 10 29 inlet~;
#X obj 34 134 throw~ \$0-out0;
#X obj 51 159 throw~ \$0-out1;
#X obj 77 183 throw~ \$0-out2;
#X obj 93 204 throw~ \$0-out3;
#X obj 146 119 throw~ \$0-out4;
#X obj 168 145 throw~ \$0-out5;
#X obj 196 169 throw~ \$0-out6;
#X obj 218 195 throw~ \$0-out7;
#X obj 7 59 *~ 0.353553;
#X obj 100 62 *~ -0.353553;
#X obj 39 265 outlet~;
#X connect 0 0 9 0;
#X connect 9 0 1 0;
#X connect 9 0 2 0;
#X connect 9 0 3 0;
#X connect 9 0 4 0;
#X connect 9 0 5 0;
#X connect 9 0 6 0;
#X connect 9 0 7 0;
#X connect 9 0 8 0;
#X restore 43 38 pd v0;
#N canvas 0 23 1152 300 outs 0;
#X obj 37 37 inlet~;
#X obj 45 206 outlet~;
#X obj 44 177 catch~ \$0-out0;
#X obj 173 207 outlet~;
#X obj 251 207 outlet~;
#X obj 330 208 outlet~;
#X obj 396 207 outlet~;
#X obj 476 211 outlet~;
#X obj 534 212 outlet~;
#X obj 612 212 outlet~;
#X obj 174 175 catch~ \$0-out1;
#X obj 253 146 catch~ \$0-out2;
#X obj 319 120 catch~ \$0-out3;
#X obj 393 147 catch~ \$0-out4;
#X obj 464 121 catch~ \$0-out5;
#X obj 536 153 catch~ \$0-out6;
#X obj 593 186 catch~ \$0-out7;
#X obj 134 39 inlet~;
#X obj 221 42 inlet~;
#X obj 309 39 inlet~;
#X obj 406 41 inlet~;
#X obj 493 44 inlet~;
#X obj 597 48 inlet~;
#X obj 694 50 inlet~;
#X connect 2 0 1 0;
#X connect 10 0 3 0;
#X connect 11 0 4 0;
#X connect 12 0 5 0;
#X connect 13 0 6 0;
#X connect 14 0 7 0;
#X connect 15 0 8 0;
#X connect 16 0 9 0;
#X restore 43 62 pd outs;
#X f 60;
#N canvas 0 23 450 300 v1 0;
#X obj 37 37 inlet~;
#X obj 66 153 throw~ \$0-out0;
#X obj 83 178 throw~ \$0-out1;
#X obj 109 202 throw~ \$0-out2;
#X obj 125 223 throw~ \$0-out3;
#X obj 183 136 throw~ \$0-out4;
#X obj 205 162 throw~ \$0-out5;
#X obj 233 186 throw~ \$0-out6;
#X obj 255 212 throw~ \$0-out7;
#X obj 39 78 *~ 0.353553;
#X obj 132 81 *~ -0.353553;
#X obj 64 247 outlet~;
#X connect 0 0 9 0;
#X connect 0 0 10 0;
#X connect 9 0 1 0;
#X connect 9 0 3 0;
#X connect 9 0 5 0;
#X connect 9 0 7 0;
#X connect 10 0 2 0;
#X connect 10 0 4 0;
#X connect 10 0 6 0;
#X connect 10 0 8 0;
#X restore 103 38 pd v1;
#N canvas 0 23 450 300 v2 0;
#X obj 37 37 inlet~;
#X obj 68 141 throw~ \$0-out0;
#X obj 85 166 throw~ \$0-out1;
#X obj 111 190 throw~ \$0-out2;
#X obj 127 211 throw~ \$0-out3;
#X obj 180 126 throw~ \$0-out4;
#X obj 202 152 throw~ \$0-out5;
#X obj 230 176 throw~ \$0-out6;
#X obj 252 202 throw~ \$0-out7;
#X obj 41 66 *~ 0.353553;
#X obj 134 69 *~ -0.353553;
#X obj 161 262 outlet~;
#X connect 0 0 9 0;
#X connect 0 0 10 0;
#X connect 9 0 1 0;
#X connect 9 0 2 0;
#X connect 9 0 5 0;
#X connect 9 0 6 0;
#X connect 10 0 3 0;
#X connect 10 0 4 0;
#X connect 10 0 7 0;
#X connect 10 0 8 0;
#X restore 162 39 pd v2;
#X obj 223 16 inlet~;
#N canvas 0 23 450 300 v3 0;
#X obj 37 37 inlet~;
#X obj 67 152 throw~ \$0-out0;
#X obj 84 177 throw~ \$0-out1;
#X obj 110 201 throw~ \$0-out2;
#X obj 126 222 throw~ \$0-out3;
#X obj 179 137 throw~ \$0-out4;
#X obj 201 163 throw~ \$0-out5;
#X obj 229 187 throw~ \$0-out6;
#X obj 251 213 throw~ \$0-out7;
#X obj 40 77 *~ 0.353553;
#X obj 133 80 *~ -0.353553;
#X obj 48 270 outlet~;
#X connect 0 0 9 0;
#X connect 0 0 10 0;
#X connect 9 0 1 0;
#X connect 9 0 5 0;
#X connect 9 0 8 0;
#X connect 9 0 4 0;
#X connect 10 0 2 0;
#X connect 10 0 3 0;
#X connect 10 0 6 0;
#X connect 10 0 7 0;
#X restore 223 40 pd v3;
#N canvas 0 23 450 300 v4 0;
#X obj 37 37 inlet~;
#X obj 64 140 throw~ \$0-out0;
#X obj 81 165 throw~ \$0-out1;
#X obj 107 189 throw~ \$0-out2;
#X obj 123 210 throw~ \$0-out3;
#X obj 176 125 throw~ \$0-out4;
#X obj 198 151 throw~ \$0-out5;
#X obj 226 175 throw~ \$0-out6;
#X obj 248 201 throw~ \$0-out7;
#X obj 37 65 *~ 0.353553;
#X obj 130 68 *~ -0.353553;
#X obj 64 267 outlet~;
#X connect 0 0 9 0;
#X connect 0 0 10 0;
#X connect 9 0 1 0;
#X connect 9 0 2 0;
#X connect 9 0 3 0;
#X connect 9 0 4 0;
#X connect 10 0 5 0;
#X connect 10 0 6 0;
#X connect 10 0 7 0;
#X connect 10 0 8 0;
#X restore 281 39 pd v4;
#N canvas 0 23 450 300 v5 0;
#X obj 37 37 inlet~;
#X obj 65 150 throw~ \$0-out0;
#X obj 82 175 throw~ \$0-out1;
#X obj 108 199 throw~ \$0-out2;
#X obj 124 220 throw~ \$0-out3;
#X obj 177 135 throw~ \$0-out4;
#X obj 199 161 throw~ \$0-out5;
#X obj 227 185 throw~ \$0-out6;
#X obj 249 211 throw~ \$0-out7;
#X obj 38 75 *~ 0.353553;
#X obj 131 78 *~ -0.353553;
#X obj 49 277 outlet~;
#X connect 0 0 9 0;
#X connect 0 0 10 0;
#X connect 9 0 1 0;
#X connect 9 0 3 0;
#X connect 9 0 6 0;
#X connect 9 0 8 0;
#X connect 10 0 2 0;
#X connect 10 0 4 0;
#X connect 10 0 5 0;
#X connect 10 0 7 0;
#X restore 339 38 pd v5;
#N canvas 0 23 450 300 v6 0;
#X obj 37 37 inlet~;
#X obj 47 148 throw~ \$0-out0;
#X obj 64 173 throw~ \$0-out1;
#X obj 90 197 throw~ \$0-out2;
#X obj 106 218 throw~ \$0-out3;
#X obj 159 133 throw~ \$0-out4;
#X obj 181 159 throw~ \$0-out5;
#X obj 209 183 throw~ \$0-out6;
#X obj 231 209 throw~ \$0-out7;
#X obj 20 73 *~ 0.353553;
#X obj 113 76 *~ -0.353553;
#X obj 36 258 outlet~;
#X connect 0 0 9 0;
#X connect 0 0 10 0;
#X connect 9 0 1 0;
#X connect 9 0 2 0;
#X connect 9 0 7 0;
#X connect 9 0 8 0;
#X connect 10 0 5 0;
#X connect 10 0 6 0;
#X connect 10 0 3 0;
#X connect 10 0 4 0;
#X restore 404 41 pd v6;
#N canvas 0 23 450 300 v7 0;
#X obj 37 37 inlet~;
#X obj 48 149 throw~ \$0-out0;
#X obj 65 174 throw~ \$0-out1;
#X obj 91 198 throw~ \$0-out2;
#X obj 107 219 throw~ \$0-out3;
#X obj 160 134 throw~ \$0-out4;
#X obj 182 160 throw~ \$0-out5;
#X obj 210 184 throw~ \$0-out6;
#X obj 232 210 throw~ \$0-out7;
#X obj 21 74 *~ 0.353553;
#X obj 114 77 *~ -0.353553;
#X obj 51 276 outlet~;
#X connect 0 0 9 0;
#X connect 0 0 10 0;
#X connect 9 0 1 0;
#X connect 9 0 4 0;
#X connect 9 0 6 0;
#X connect 9 0 7 0;
#X connect 10 0 2 0;
#X connect 10 0 3 0;
#X connect 10 0 5 0;
#X connect 10 0 8 0;
#X restore 495 37 pd v7;
#X connect 0 0 15 0;
#X connect 1 0 17 0;
#X connect 2 0 18 0;
#X connect 7 0 21 0;
#X connect 8 0 22 0;
#X connect 9 0 23 0;
#X connect 10 0 24 0;
#X connect 15 0 16 0;
#X connect 16 0 3 0;
#X connect 16 1 4 0;
#X connect 16 2 5 0;
#X connect 16 3 6 0;
#X connect 16 4 11 0;
#X connect 16 5 12 0;
#X connect 16 6 13 0;
#X connect 16 7 14 0;
#X connect 17 0 16 1;
#X connect 18 0 16 2;
#X connect 19 0 20 0;
#X connect 20 0 16 3;
#X connect 21 0 16 4;
#X connect 22 0 16 5;
#X connect 23 0 16 6;
#X connect 24 0 16 7;
