#N canvas 0 23 615 383 12;
#X obj 20 298 outlet~;
#X obj 76 298 outlet~;
#X obj 138 298 outlet~;
#X obj 201 298 outlet~;
#X obj 260 298 outlet~;
#X obj 314 298 outlet~;
#X obj 383 298 outlet~;
#X obj 446 298 outlet~;
#X obj 43 14 inlet~;
#X obj 147 14 inlet~;
#X obj 93 14 inlet~;
#X obj 252 14 inlet~;
#X obj 355 14 inlet~;
#X obj 301 14 inlet~;
#X obj 197 14 inlet~;
#X obj 497 139 *~ -0.25;
#X obj 410 14 inlet~;
#X connect 8 0 15 0;
#X connect 8 0 0 0;
#X connect 9 0 15 0;
#X connect 9 0 2 0;
#X connect 10 0 15 0;
#X connect 10 0 1 0;
#X connect 11 0 15 0;
#X connect 11 0 4 0;
#X connect 12 0 15 0;
#X connect 12 0 6 0;
#X connect 13 0 15 0;
#X connect 13 0 5 0;
#X connect 14 0 15 0;
#X connect 14 0 3 0;
#X connect 15 0 0 0;
#X connect 15 0 1 0;
#X connect 15 0 2 0;
#X connect 15 0 3 0;
#X connect 15 0 4 0;
#X connect 15 0 5 0;
#X connect 15 0 6 0;
#X connect 15 0 7 0;
#X connect 16 0 7 0;
