#N canvas 0 23 957 655 12;
#X obj 76 26 inlet~;
#X obj 74 589 outlet~;
#X obj 76 50 polarityFlipper;
#X obj 76 559 catch~ \$0-out0;
#X obj 211 589 outlet~;
#X obj 213 559 catch~ \$0-out1;
#X obj 353 588 outlet~;
#X obj 355 558 catch~ \$0-out2;
#X obj 496 587 outlet~;
#X obj 498 557 catch~ \$0-out3;
#X obj 76 354 throw~;
#X obj 227 27 inlet~;
#X obj 227 51 polarityFlipper;
#X obj 364 28 inlet~;
#X obj 364 52 polarityFlipper;
#X obj 505 30 inlet~;
#X obj 505 54 polarityFlipper;
#X obj 681 16 loadbang;
#X msg 681 56 4;
#X obj 681 80 until;
#X obj 681 104 t b b, f 18;
#X obj 681 128 +;
#X obj 719 134 + 1;
#X obj 791 150 urn_sjf 4;
#X obj 681 189 pack 0 s;
#X msg 99 311 set \$1;
#X obj 530 180 route 0 1 2 3;
#X obj 241 360 throw~;
#X msg 264 317 set \$1;
#X obj 352 372 throw~;
#X msg 375 329 set \$1;
#X obj 508 374 throw~;
#X msg 531 331 set \$1;
#X obj 800 20 bng 15 250 50 0 empty empty empty 17 7 0 10 -262144 -1
-1;
#X obj 800 40 t b b;
#X msg 791 198 symbol \$2-out\$1;
#X msg 816 67 0;
#X obj 791 174 pack 0 \$0;
#X obj 646 254 symbol;
#X obj 111 267 symbol;
#X obj 269 270 symbol;
#X obj 405 269 symbol;
#X connect 0 0 2 0;
#X connect 2 0 10 0;
#X connect 3 0 1 0;
#X connect 5 0 4 0;
#X connect 7 0 6 0;
#X connect 9 0 8 0;
#X connect 11 0 12 0;
#X connect 12 0 27 0;
#X connect 13 0 14 0;
#X connect 14 0 29 0;
#X connect 15 0 16 0;
#X connect 16 0 31 0;
#X connect 17 0 18 0;
#X connect 18 0 19 0;
#X connect 19 0 20 0;
#X connect 20 0 21 0;
#X connect 20 1 23 0;
#X connect 21 0 22 0;
#X connect 21 0 24 0;
#X connect 22 0 21 1;
#X connect 23 0 37 0;
#X connect 24 0 26 0;
#X connect 25 0 10 0;
#X connect 26 0 39 0;
#X connect 26 1 40 0;
#X connect 26 2 41 0;
#X connect 26 3 38 0;
#X connect 28 0 27 0;
#X connect 30 0 29 0;
#X connect 32 0 31 0;
#X connect 33 0 34 0;
#X connect 34 0 18 0;
#X connect 34 1 23 2;
#X connect 34 1 36 0;
#X connect 35 0 24 1;
#X connect 36 0 21 1;
#X connect 37 0 35 0;
#X connect 38 0 32 0;
#X connect 39 0 25 0;
#X connect 40 0 28 0;
#X connect 41 0 30 0;
