#N canvas 0 23 1280 755 12;
#X obj 6 26 inlet~;
#X obj 74 589 outlet~;
#X obj 6 50 polarityFlipper;
#X obj 76 559 catch~ \$0-out0;
#X obj 211 589 outlet~;
#X obj 213 559 catch~ \$0-out1;
#X obj 353 588 outlet~;
#X obj 355 558 catch~ \$0-out2;
#X obj 496 587 outlet~;
#X obj 498 557 catch~ \$0-out3;
#X obj 6 354 throw~;
#X obj 157 27 inlet~;
#X obj 157 51 polarityFlipper;
#X obj 294 28 inlet~;
#X obj 294 52 polarityFlipper;
#X obj 435 30 inlet~;
#X obj 435 54 polarityFlipper;
#X obj 1043 8 loadbang;
#X obj 1043 72 until;
#X obj 1043 96 t b b, f 18;
#X obj 1043 120 +;
#X obj 1081 126 + 1;
#X obj 1043 181 pack 0 s;
#X msg 29 311 set \$1;
#X obj 171 360 throw~;
#X msg 194 317 set \$1;
#X obj 282 372 throw~;
#X msg 305 329 set \$1;
#X obj 438 374 throw~;
#X msg 461 331 set \$1;
#X obj 1162 12 bng 15 250 50 0 empty empty empty 17 7 0 10 -262144
-1 -1;
#X obj 1162 32 t b b;
#X msg 1153 190 symbol \$2-out\$1;
#X msg 1178 59 0;
#X obj 1153 166 pack 0 \$0;
#X obj 462 294 symbol;
#X obj 41 267 symbol;
#X obj 199 270 symbol;
#X obj 335 269 symbol;
#X obj 623 588 outlet~;
#X obj 760 588 outlet~;
#X obj 902 587 outlet~;
#X obj 1045 586 outlet~;
#X obj 625 558 catch~ \$0-out4;
#X obj 762 558 catch~ \$0-out5;
#X obj 904 557 catch~ \$0-out6;
#X obj 1047 556 catch~ \$0-out7;
#X obj 550 31 inlet~;
#X obj 550 55 polarityFlipper;
#X obj 553 375 throw~;
#X msg 576 332 set \$1;
#X obj 577 295 symbol;
#X obj 665 27 inlet~;
#X obj 665 51 polarityFlipper;
#X obj 668 371 throw~;
#X msg 691 328 set \$1;
#X obj 692 291 symbol;
#X obj 782 25 inlet~;
#X obj 782 49 polarityFlipper;
#X obj 785 369 throw~;
#X msg 808 326 set \$1;
#X obj 809 289 symbol;
#X obj 896 22 inlet~;
#X obj 896 46 polarityFlipper;
#X obj 899 366 throw~;
#X msg 922 323 set \$1;
#X obj 923 286 symbol;
#X obj 552 148 route 0 1 2 3 4 5 6 7;
#X msg 1043 48 8;
#X obj 1153 142 urn_sjf 8;
#X msg 922 347 1434-out6;
#X msg 808 350 1434-out1;
#X msg 691 352 1434-out4;
#X msg 576 356 1434-out2;
#X msg 461 355 1434-out7;
#X msg 305 353 1434-out5;
#X msg 194 341 1434-out3;
#X msg 29 335 1434-out0;
#X connect 0 0 2 0;
#X connect 2 0 10 0;
#X connect 3 0 1 0;
#X connect 5 0 4 0;
#X connect 7 0 6 0;
#X connect 9 0 8 0;
#X connect 11 0 12 0;
#X connect 12 0 24 0;
#X connect 13 0 14 0;
#X connect 14 0 26 0;
#X connect 15 0 16 0;
#X connect 16 0 28 0;
#X connect 17 0 68 0;
#X connect 18 0 19 0;
#X connect 19 0 20 0;
#X connect 19 1 69 0;
#X connect 20 0 21 0;
#X connect 20 0 22 0;
#X connect 21 0 20 1;
#X connect 22 0 67 0;
#X connect 23 0 10 0;
#X connect 23 0 77 0;
#X connect 25 0 24 0;
#X connect 25 0 76 0;
#X connect 27 0 26 0;
#X connect 27 0 75 0;
#X connect 29 0 28 0;
#X connect 29 0 74 0;
#X connect 30 0 31 0;
#X connect 31 0 68 0;
#X connect 31 1 33 0;
#X connect 31 1 69 2;
#X connect 32 0 22 1;
#X connect 33 0 20 1;
#X connect 34 0 32 0;
#X connect 35 0 29 0;
#X connect 36 0 23 0;
#X connect 37 0 25 0;
#X connect 38 0 27 0;
#X connect 43 0 39 0;
#X connect 44 0 40 0;
#X connect 45 0 41 0;
#X connect 46 0 42 0;
#X connect 47 0 48 0;
#X connect 48 0 49 0;
#X connect 50 0 49 0;
#X connect 50 0 73 0;
#X connect 51 0 50 0;
#X connect 52 0 53 0;
#X connect 53 0 54 0;
#X connect 55 0 54 0;
#X connect 55 0 72 0;
#X connect 56 0 55 0;
#X connect 57 0 58 0;
#X connect 58 0 59 0;
#X connect 60 0 59 0;
#X connect 60 0 71 0;
#X connect 61 0 60 0;
#X connect 62 0 63 0;
#X connect 63 0 64 0;
#X connect 65 0 64 0;
#X connect 65 0 70 0;
#X connect 66 0 65 0;
#X connect 67 0 36 0;
#X connect 67 1 37 0;
#X connect 67 2 38 0;
#X connect 67 3 35 0;
#X connect 67 4 51 0;
#X connect 67 5 56 0;
#X connect 67 6 61 0;
#X connect 67 7 66 0;
#X connect 68 0 18 0;
#X connect 69 0 34 0;
