#N canvas 0 23 450 300 12;
#X obj 76 26 inlet~;
#X obj 222 58 random 2;
#X obj 222 82 sel 0, f 11;
#X msg 222 106 -1;
#X obj 257 130 int;
#X floatatom 222 154 5 0 0 0 - - -;
#X obj 76 136 *~;
#X obj 76 160 outlet~;
#X obj 219 25 loadbang;
#X connect 0 0 6 0;
#X connect 1 0 2 0;
#X connect 2 0 3 0;
#X connect 2 1 4 0;
#X connect 3 0 4 0;
#X connect 4 0 5 0;
#X connect 5 0 6 1;
#X connect 6 0 7 0;
#X connect 8 0 1 0;
