#N canvas 534 23 746 755 12;
#X obj 75 27 bng 15 250 50 0 empty empty empty 17 7 0 10 -262144 -1
-1;
#X obj 250 50 noise~;
#X obj 191 578 dac~;
#X obj 44 239 vsl 15 128 0 127 0 0 empty empty empty 0 -9 0 10 -262144
-1 -1 7800 1;
#X obj 44 375 / 127;
#X obj 44 399 pack 0 5;
#X obj 44 423 line~;
#X obj 41 501 *~, f 27;
#X obj 72 97 *~, f 18;
#X obj 524 32 bng 15 250 50 0 empty empty empty 17 7 0 10 -262144 -1
-1;
#X obj 524 53 s randDelays;
#X obj 468 164 *~ 1, f 18;
#X obj 250 74 lop~ 100;
#X obj 75 71 vline~;
#X msg 75 47 1 5 \, 0 10 5;
#X obj 484 428 *~ 0.125;
#X obj 628 170 vsl 15 128 0 127 0 0 empty empty empty 0 -9 0 10 -262144
-1 -1 0 1;
#X obj 628 306 / 127;
#X obj 628 330 * 20;
#X obj 628 354 pack, f 8;
#X obj 681 170 vsl 15 128 0 127 0 0 empty empty empty 0 -9 0 10 -262144
-1 -1 0 1;
#X obj 681 306 / 127;
#X obj 456 201 diffuse8 10, f 17;
#X obj 456 229 diffuse8 20, f 17;
#X obj 456 261 diffuse8 40, f 17;
#X obj 459 300 diffuse8 80, f 17;
#X obj 461 381 delayFBLoop8 100 50, f 21;
#X connect 0 0 14 0;
#X connect 1 0 12 0;
#X connect 3 0 4 0;
#X connect 4 0 5 0;
#X connect 5 0 6 0;
#X connect 6 0 7 0;
#X connect 7 0 2 0;
#X connect 7 0 2 1;
#X connect 8 0 11 0;
#X connect 9 0 10 0;
#X connect 11 0 22 0;
#X connect 11 0 22 1;
#X connect 11 0 22 2;
#X connect 11 0 22 3;
#X connect 11 0 22 4;
#X connect 11 0 22 5;
#X connect 11 0 22 6;
#X connect 11 0 22 7;
#X connect 12 0 8 1;
#X connect 13 0 8 0;
#X connect 14 0 13 0;
#X connect 16 0 17 0;
#X connect 17 0 18 0;
#X connect 18 0 19 0;
#X connect 19 0 26 8;
#X connect 20 0 21 0;
#X connect 21 0 19 1;
#X connect 22 0 23 0;
#X connect 22 0 7 1;
#X connect 22 1 23 1;
#X connect 22 2 23 2;
#X connect 22 3 23 3;
#X connect 22 4 23 4;
#X connect 22 5 23 5;
#X connect 22 6 23 6;
#X connect 22 7 23 7;
#X connect 23 0 24 0;
#X connect 23 0 7 1;
#X connect 23 1 24 1;
#X connect 23 2 24 2;
#X connect 23 3 24 3;
#X connect 23 4 24 4;
#X connect 23 5 24 5;
#X connect 23 6 24 6;
#X connect 23 7 24 7;
#X connect 24 0 25 0;
#X connect 24 0 7 1;
#X connect 24 1 25 1;
#X connect 24 2 25 2;
#X connect 24 3 25 3;
#X connect 24 4 25 4;
#X connect 24 5 25 5;
#X connect 24 6 25 6;
#X connect 24 7 25 7;
#X connect 25 0 26 0;
#X connect 25 0 7 1;
#X connect 25 1 26 1;
#X connect 25 2 26 2;
#X connect 25 3 26 3;
#X connect 25 4 26 4;
#X connect 25 5 26 5;
#X connect 25 6 26 6;
#X connect 25 7 26 7;
#X connect 26 0 15 0;
#X connect 26 0 7 1;
#X connect 26 1 15 0;
#X connect 26 1 7 1;
#X connect 26 2 15 0;
#X connect 26 3 15 0;
#X connect 26 4 15 0;
#X connect 26 5 15 0;
#X connect 26 6 15 0;
#X connect 26 7 15 0;
