#N canvas 17 23 1440 855 12;
#N canvas 0 22 450 278 (subpatch) 0;
#X array \$0-sample 307221 float 2;
#X coords 0 1 307221 -1 209 142 1;
#X restore 926 45 graph;
#X obj 1256 19 bng 15 250 50 0 empty empty empty 17 7 0 10 #fcfcfc
#000000 #000000;
#X obj 1256 39 openpanel;
#X obj 1256 63 pack s \$0;
#X msg 1256 87 read -resize \$1 \$2-sample;
#X obj 1256 111 soundfiler;
#X floatatom 1256 135 18 0 0 0 - - - 0;
#X obj 1256 158 s \$0-fileLen;
#X obj 929 187 hsl 204 15 0 1 0 0 \$0-startPos \$0-startPos start -2
8 0 10 #fcfcfc #000000 #000000 0 1;
#N canvas 0 22 450 278 (subpatch) 0;
#X array \$0-env 515 float 3;
#A 0 3.7649e-05 0 3.7649e-05 0.00015059 0.000338807 0.000602271 0.000940942
0.00135477 0.00184369 0.00240763 0.00304651 0.00376023 0.00454867 0.00541174
0.00634928 0.00736117 0.00844724 0.00960734 0.0108413 0.0121489 0.01353
0.0149843 0.0165117 0.0181119 0.0197847 0.0215298 0.0233469 0.0252359
0.0271963 0.0292279 0.0313304 0.0335035 0.0357469 0.0380602 0.040443
0.0428951 0.0454159 0.0480053 0.0506627 0.0533878 0.0561801 0.0590393
0.0619649 0.0649564 0.0680135 0.0711356 0.0743223 0.0775731 0.0808875
0.0842651 0.0877052 0.0912074 0.0947712 0.0983961 0.102081 0.105827
0.109631 0.113495 0.117416 0.121395 0.125432 0.129524 0.133673 0.137876
0.142134 0.146446 0.150812 0.155229 0.159699 0.16422 0.168792 0.173413
0.178084 0.182803 0.18757 0.192384 0.197244 0.20215 0.207101 0.212096
0.217134 0.222215 0.227337 0.232501 0.237705 0.242948 0.24823 0.253551
0.258908 0.264301 0.26973 0.275194 0.280691 0.286222 0.291785 0.297379
0.303004 0.308658 0.314341 0.320052 0.32579 0.331555 0.337344 0.343159
0.348997 0.354857 0.36074 0.366643 0.372567 0.378509 0.38447 0.390449
0.396444 0.402454 0.408479 0.414518 0.42057 0.426634 0.432709 0.438794
0.444888 0.450991 0.457101 0.463217 0.469339 0.475466 0.481596 0.487729
0.493864 0.499999 0.506135 0.51227 0.518403 0.524533 0.53066 0.536782
0.542898 0.549008 0.55511 0.561205 0.56729 0.573364 0.579428 0.58548
0.591519 0.597544 0.603555 0.60955 0.615528 0.621489 0.627432 0.633356
0.639259 0.645142 0.651002 0.65684 0.662654 0.668444 0.674209 0.679947
0.685658 0.691341 0.696995 0.70262 0.708214 0.713777 0.719307 0.724805
0.730269 0.735698 0.741091 0.746448 0.751768 0.757051 0.762294 0.767498
0.772662 0.777784 0.782865 0.787903 0.792898 0.797849 0.802755 0.807615
0.812429 0.817196 0.821915 0.826586 0.831207 0.835779 0.8403 0.84477
0.849187 0.853553 0.857865 0.862123 0.866326 0.870475 0.874568 0.878604
0.882583 0.886505 0.890368 0.894173 0.897918 0.901603 0.905228 0.908792
0.912294 0.915734 0.919112 0.922426 0.925677 0.928864 0.931986 0.935043
0.938035 0.94096 0.943819 0.946612 0.949337 0.951994 0.954584 0.957104
0.959556 0.961939 0.964253 0.966496 0.968669 0.970772 0.972803 0.974764
0.976653 0.97847 0.980215 0.981888 0.983488 0.985015 0.98647 0.987851
0.989158 0.990392 0.991553 0.992639 0.99365 0.994588 0.995451 0.99624
0.996953 0.997592 0.998156 0.998645 0.999059 0.999398 0.999661 0.999849
0.999962 1 0.999962 0.999849 0.999661 0.999398 0.999059 0.998645 0.998156
0.997593 0.996954 0.99624 0.995452 0.994588 0.993651 0.992639 0.991553
0.990393 0.989159 0.987851 0.98647 0.985016 0.983489 0.981888 0.980216
0.978471 0.976653 0.974765 0.972804 0.970773 0.96867 0.966497 0.964254
0.96194 0.959558 0.957105 0.954585 0.951995 0.949338 0.946613 0.943821
0.940961 0.938036 0.935044 0.931987 0.928865 0.925678 0.922428 0.919113
0.915736 0.912296 0.908793 0.90523 0.901605 0.897919 0.894174 0.89037
0.886506 0.882585 0.878605 0.874569 0.870477 0.866328 0.862125 0.857867
0.853555 0.849189 0.844772 0.840302 0.835781 0.831209 0.826588 0.821917
0.817198 0.812431 0.807617 0.802757 0.797851 0.7929 0.787906 0.782867
0.777787 0.772664 0.7675 0.762296 0.757053 0.751771 0.746451 0.741093
0.7357 0.730271 0.724807 0.71931 0.713779 0.708216 0.702622 0.696998
0.691343 0.68566 0.679949 0.674211 0.668447 0.662657 0.656843 0.651005
0.645144 0.639262 0.633358 0.627435 0.621492 0.615531 0.609552 0.603558
0.597547 0.591522 0.585483 0.579431 0.573367 0.567292 0.561207 0.555113
0.549011 0.542901 0.536784 0.530662 0.524536 0.518406 0.512273 0.506138
0.500002 0.493866 0.487731 0.481598 0.475468 0.469342 0.46322 0.457103
0.450993 0.444891 0.438797 0.432712 0.426637 0.420573 0.414521 0.408482
0.402457 0.396446 0.390451 0.384473 0.378512 0.372569 0.366646 0.360742
0.35486 0.348999 0.343161 0.337347 0.331557 0.325793 0.320054 0.314343
0.30866 0.303006 0.297381 0.291787 0.286224 0.280694 0.275196 0.269733
0.264304 0.25891 0.253553 0.248233 0.242951 0.237707 0.232503 0.227339
0.222217 0.217136 0.212098 0.207103 0.202152 0.197246 0.192386 0.187572
0.182805 0.178086 0.173415 0.168794 0.164222 0.159701 0.155231 0.150814
0.146448 0.142136 0.137878 0.133674 0.129526 0.125433 0.121397 0.117418
0.113496 0.109633 0.105828 0.102083 0.0983977 0.0947728 0.091209 0.0877067
0.0842665 0.080889 0.0775745 0.0743237 0.0711369 0.0680148 0.0649577
0.0619661 0.0590405 0.0561813 0.053389 0.0506638 0.0480064 0.045417
0.0428961 0.0404441 0.0380612 0.0357479 0.0335045 0.0313314 0.0292288
0.0271972 0.0252367 0.0233477 0.0215306 0.0197854 0.0181126 0.0165124
0.014985 0.0135306 0.0121495 0.0108418 0.00960786 0.00844773 0.00736162
0.0063497 0.00541213 0.00454903 0.00376055 0.0030468 0.00240789 0.00184392
0.00135496 0.000941105 0.000602401 0.000338905 0.000150656 3.76816e-05
7.04153e-12 3.76165e-05;
#X coords 0 1 515 -1 200 140 1 0 0;
#X restore 917 488 graph;
#X obj 947 645 bng 15 250 50 0 empty empty empty 17 7 0 10 #fcfcfc
#000000 #000000;
#X obj 947 665 f \$0;
#X msg 943 711 \; \$1-env cosinesum 512 1 -1 \; \$1-env normalize,
f 30;
#X obj 1380 401 bng 15 250 50 0 empty empty empty 17 7 0 10 #fcfcfc
#000000 #000000;
#X obj 929 246 hsl 204 15 -1 1 0 1 \$0-transpose \$0-transpose transpose
-2 8 0 10 #fcfcfc #000000 #000000 10150 1;
#X msg 1157 234 0;
#X obj 1157 258 s \$0-transpose;
#X obj 343 196 r \$0-startPos;
#X obj 440 276 r \$0-fileLen;
#X obj 222 102 r \$0-transpose;
#X obj 523 108 r \$0-grainVol;
#X obj 85 97 r \$0-grainLen;
#X obj 73 307 pack 0 0 0 0 0 0, f 92;
#X obj 713 96 r \$0-grainPan;
#X obj 73 267 f 50;
#X obj 71 46 bng 15 250 50 0 empty empty empty 17 7 0 10 #fcfcfc #000000
#000000;
#X obj 220 745 dac~, f 21;
#X obj 226 675 catch~ \$0-outL, f 7;
#X obj 290 676 catch~ \$0-outR, f 7;
#X text 801 4 \$1 - grainLen \; \$2 - transpose \; \$3 - startPos \;
\$4 - fileLen \; \$5 - grainVol \; \$6 - grainPan \;;
#X obj 929 335 hsl 204 15 0 1 0 1 \$0-grainVol \$0-grainVol grainvol
-2 8 0 10 #fcfcfc #000000 #000000 6800 1;
#X obj 929 402 hsl 204 15 0 1 0 1 \$0-grainPan \$0-grainPan grainpan
-2 8 0 10 #fcfcfc #000000 #000000 18000 1;
#X obj 929 293 hsl 204 15 1 100 0 1 \$0-grainLen \$0-grainLen grainLen
-2 8 0 10 #fcfcfc #000000 #000000 12100 1;
#X obj 71 2 tgl 15 0 empty empty empty 17 7 0 10 #fcfcfc #000000 #000000
0 1;
#X obj 71 22 metro 50;
#X obj 109 119 r \$0-grainLenJit, f 11;
#N canvas 443 407 624 422 randomiser 0;
#X obj 117 31 inlet;
#X obj 274 32 inlet;
#X text 110 7 bang;
#X text 271 5 value;
#X obj 360 33 inlet;
#X text 357 9 jitter;
#X obj 117 281 outlet;
#X obj 117 155 t f b;
#X obj 170 168 random 2;
#X obj 170 192 sel 0;
#X msg 170 216 -1;
#X obj 117 179 *;
#X obj 117 254 +, f 23;
#X obj 117 55 random 1001;
#X obj 117 79 / 1000;
#X obj 117 103 *, f 14;
#X obj 117 127 *, f 17;
#X connect 0 0 13 0;
#X connect 1 0 12 1;
#X connect 1 0 16 1;
#X connect 4 0 15 1;
#X connect 7 0 11 0;
#X connect 7 1 8 0;
#X connect 8 0 9 0;
#X connect 9 0 10 0;
#X connect 9 1 11 1;
#X connect 10 0 11 1;
#X connect 11 0 12 0;
#X connect 12 0 6 0;
#X connect 13 0 14 0;
#X connect 14 0 15 0;
#X connect 15 0 16 0;
#X connect 16 0 7 0;
#X restore 72 192 pd randomiser;
#X obj 929 308 hsl 204 15 0.001 1 1 1 \$0-grainLenJit \$0-grainLenJit
grainLenJit -2 8 0 10 #fcfcfc #000000 #000000 12400 1;
#N canvas 443 407 624 422 randomiser 1;
#X obj 117 31 inlet;
#X obj 274 32 inlet;
#X text 110 7 bang;
#X text 271 5 value;
#X obj 360 33 inlet;
#X text 357 9 jitter;
#X obj 117 281 outlet;
#X obj 117 155 t f b;
#X obj 170 168 random 2;
#X obj 170 192 sel 0;
#X msg 170 216 -1;
#X obj 117 179 *;
#X obj 117 254 +, f 23;
#X obj 117 55 random 1001;
#X obj 117 79 / 1000;
#X obj 117 103 *, f 14;
#X connect 0 0 13 0;
#X connect 1 0 12 1;
#X connect 4 0 15 1;
#X connect 7 0 11 0;
#X connect 7 1 8 0;
#X connect 8 0 9 0;
#X connect 9 0 10 0;
#X connect 9 1 11 1;
#X connect 10 0 11 1;
#X connect 11 0 12 0;
#X connect 12 0 6 0;
#X connect 13 0 14 0;
#X connect 14 0 15 0;
#X connect 15 0 7 0;
#X restore 203 196 pd randomiser;
#X obj 249 124 r \$0-transposeJit, f 12;
#X obj 929 261 hsl 204 15 0 1 0 1 \$0-transposeJit \$0-transposeJit
transposeJit -2 8 0 10 #fcfcfc #000000 #000000 17200 1;
#N canvas 443 407 624 422 randomiser 0;
#X obj 117 31 inlet;
#X obj 274 32 inlet;
#X text 110 7 bang;
#X text 271 5 value;
#X obj 360 33 inlet;
#X text 357 9 jitter;
#X obj 117 281 outlet;
#X obj 117 155 t f b;
#X obj 170 168 random 2;
#X obj 170 192 sel 0;
#X msg 170 216 -1;
#X obj 117 179 *;
#X obj 117 254 +, f 23;
#X obj 117 55 random 1001;
#X obj 117 79 / 1000;
#X obj 117 103 *, f 14;
#X obj 117 127 *, f 17;
#X connect 0 0 13 0;
#X connect 1 0 12 1;
#X connect 1 0 16 1;
#X connect 4 0 15 1;
#X connect 7 0 11 0;
#X connect 7 1 8 0;
#X connect 8 0 9 0;
#X connect 9 0 10 0;
#X connect 9 1 11 1;
#X connect 10 0 11 1;
#X connect 11 0 12 0;
#X connect 12 0 6 0;
#X connect 13 0 14 0;
#X connect 14 0 15 0;
#X connect 15 0 16 0;
#X connect 16 0 7 0;
#X restore 326 254 pd randomiser;
#X obj 428 225 r \$0-startPosJit, f 11;
#N canvas 443 407 624 422 randomiser 0;
#X obj 117 31 inlet;
#X obj 274 32 inlet;
#X text 110 7 bang;
#X text 271 5 value;
#X obj 360 33 inlet;
#X text 357 9 jitter;
#X obj 117 281 outlet;
#X obj 117 155 t f b;
#X obj 170 168 random 2;
#X obj 170 192 sel 0;
#X msg 170 216 -1;
#X obj 117 179 *;
#X obj 117 254 +, f 23;
#X obj 117 55 random 1001;
#X obj 117 79 / 1000;
#X obj 117 103 *, f 14;
#X obj 117 127 *, f 17;
#X connect 0 0 13 0;
#X connect 1 0 12 1;
#X connect 1 0 16 1;
#X connect 4 0 15 1;
#X connect 7 0 11 0;
#X connect 7 1 8 0;
#X connect 8 0 9 0;
#X connect 9 0 10 0;
#X connect 9 1 11 1;
#X connect 10 0 11 1;
#X connect 11 0 12 0;
#X connect 12 0 6 0;
#X connect 13 0 14 0;
#X connect 14 0 15 0;
#X connect 15 0 16 0;
#X connect 16 0 7 0;
#X restore 531 183 pd randomiser;
#X obj 573 127 r \$0-grainVolJit, f 11;
#X obj 71 66 t b b b b b, f 80;
#N canvas 443 407 624 422 randomiser 0;
#X obj 117 31 inlet;
#X obj 274 32 inlet;
#X text 110 7 bang;
#X text 271 5 value;
#X obj 360 33 inlet;
#X text 357 9 jitter;
#X obj 117 281 outlet;
#X obj 117 155 t f b;
#X obj 170 168 random 2;
#X obj 170 192 sel 0;
#X msg 170 216 -1;
#X obj 117 179 *;
#X obj 117 254 +, f 23;
#X obj 117 55 random 1001;
#X obj 117 79 / 1000;
#X obj 117 103 *, f 14;
#X obj 117 127 *, f 17;
#X connect 0 0 13 0;
#X connect 1 0 12 1;
#X connect 1 0 16 1;
#X connect 4 0 15 1;
#X connect 7 0 11 0;
#X connect 7 1 8 0;
#X connect 8 0 9 0;
#X connect 9 0 10 0;
#X connect 9 1 11 1;
#X connect 10 0 11 1;
#X connect 11 0 12 0;
#X connect 12 0 6 0;
#X connect 13 0 14 0;
#X connect 14 0 15 0;
#X connect 15 0 16 0;
#X connect 16 0 7 0;
#X restore 710 193 pd randomiser;
#X obj 756 127 r \$0-grainPanJit, f 11;
#X obj 929 417 hsl 204 15 0 1 0 1 \$0-grainPanJit \$0-grainPanJit grainpanJit
-2 8 0 10 #fcfcfc #000000 #000000 8100 1;
#X obj 929 350 hsl 204 15 0 1 0 1 \$0-grainVolJit \$0-grainVolJit grainvolJit
-2 8 0 10 #fcfcfc #000000 #000000 20300 1;
#X obj 929 202 hsl 204 15 0 1 0 0 \$0-startPosJit \$0-startPosJit startPosJit
-2 8 0 10 #fcfcfc #000000 #000000 0 1;
#X obj 1145 426 s \$0-grainPan;
#X msg 1144 402 0.5;
#X obj 73 421 list prepend;
#X obj 73 338 t l b;
#X obj 154 370 +;
#X obj 192 368 + 1;
#N canvas 157 229 1283 649 grains 0;
#X obj 41 53 inlet;
#N canvas 0 23 1440 855 grain 0;
#X floatatom 503 106 5 0 0 0 - - - 0;
#X obj 771 287 pack 0 5;
#X obj 771 311 line~;
#X obj 220 721 *~, f 11;
#X obj 869 725 *~, f 11;
#X obj 150 258 line~;
#X msg 150 231 0 \, 1 \$1;
#X text 191 145 Gran Length;
#X obj 299 513 tabread4~ \$0-env;
#X obj 150 513 tabread4~ \$0-sample;
#X obj 299 462 *~ 512;
#X obj 299 489 +~ 1;
#X obj 150 490 +~ 1;
#X text 345 461 Size of envelope array;
#X obj 150 362 *~, f 5;
#X obj 150 386 +~, f 8;
#X obj 151 170 t f f, f 20;
#X obj 607 107 - 2;
#X obj 517 251 *, f 6;
#X obj 607 131 t b f, f 13;
#X obj 102 105 bng 15 250 50 0 empty empty empty 17 7 0 10 #fcfcfc
#000000 #000000;
#X obj 288 273 * 44.1;
#X obj 152 145 f 100;
#X obj 150 567 *~, f 22;
#X obj 150 333 *~ 1;
#X obj 367 106 expr pow(2 \, $f1);
#X floatatom 367 130 5 0 0 0 - - - 0;
#X obj 336 222 samplerate~;
#X obj 336 246 / 1000;
#X obj 334 187 receive pd-dsp-started;
#X obj 150 410 expr~ $v1 % $f2, f 39;
#X obj 194 6 inlet;
#X obj 307 613 *~, f 64;
#X obj 220 745 outlet~;
#X obj 869 749 outlet~;
#X text 1231 164 \$1 - grainLen \; \$2 - transpose \; \$3 - startPos
\; \$4 - fileLen \; \$5 - grainVol \; \$6 - grainPan \;;
#X obj 195 36 unpack 0 0 0 0 0 0, f 125;
#X obj 1011 266 sig~;
#X obj 1011 290 *~ 0.25;
#X obj 1011 314 cos~;
#X obj 1097 334 cos~;
#X obj 1097 310 +~ 0.75;
#X connect 0 0 18 0;
#X connect 1 0 2 0;
#X connect 2 0 32 1;
#X connect 3 0 33 0;
#X connect 4 0 34 0;
#X connect 5 0 10 0;
#X connect 5 0 24 0;
#X connect 6 0 5 0;
#X connect 8 0 23 1;
#X connect 9 0 23 0;
#X connect 10 0 11 0;
#X connect 11 0 8 0;
#X connect 12 0 9 0;
#X connect 14 0 15 0;
#X connect 15 0 30 0;
#X connect 16 0 6 0;
#X connect 16 1 21 0;
#X connect 17 0 19 0;
#X connect 18 0 15 1;
#X connect 19 0 18 0;
#X connect 19 1 18 1;
#X connect 19 1 30 1;
#X connect 20 0 22 0;
#X connect 21 0 14 1;
#X connect 22 0 16 0;
#X connect 23 0 32 0;
#X connect 24 0 14 0;
#X connect 25 0 26 0;
#X connect 26 0 24 1;
#X connect 27 0 28 0;
#X connect 28 0 21 1;
#X connect 29 0 27 0;
#X connect 30 0 12 0;
#X connect 31 0 36 0;
#X connect 32 0 3 0;
#X connect 32 0 4 0;
#X connect 36 0 22 0;
#X connect 36 1 25 0;
#X connect 36 2 0 0;
#X connect 36 3 17 0;
#X connect 36 4 1 0;
#X connect 36 5 37 0;
#X connect 37 0 38 0;
#X connect 38 0 39 0;
#X connect 38 0 41 0;
#X connect 39 0 3 1;
#X connect 40 0 4 1;
#X connect 41 0 40 0;
#X restore 28 155 pd grain;
#X f 10;
#X obj 28 179 throw~ \$0-outL, f 7;
#X obj 92 180 throw~ \$0-outR, f 7;
#N canvas 0 23 1440 855 grain 0;
#X floatatom 503 106 5 0 0 0 - - - 0;
#X obj 771 287 pack 0 5;
#X obj 771 311 line~;
#X obj 220 721 *~, f 11;
#X obj 869 725 *~, f 11;
#X obj 150 258 line~;
#X msg 150 231 0 \, 1 \$1;
#X text 191 145 Gran Length;
#X obj 299 513 tabread4~ \$0-env;
#X obj 150 513 tabread4~ \$0-sample;
#X obj 299 462 *~ 512;
#X obj 299 489 +~ 1;
#X obj 150 490 +~ 1;
#X text 345 461 Size of envelope array;
#X obj 150 362 *~, f 5;
#X obj 150 386 +~, f 8;
#X obj 151 170 t f f, f 20;
#X obj 607 107 - 2;
#X obj 517 251 *, f 6;
#X obj 607 131 t b f, f 13;
#X obj 102 105 bng 15 250 50 0 empty empty empty 17 7 0 10 #fcfcfc
#000000 #000000;
#X obj 288 273 * 44.1;
#X obj 152 145 f 100;
#X obj 150 567 *~, f 22;
#X obj 150 333 *~ 1;
#X obj 367 106 expr pow(2 \, $f1);
#X floatatom 367 130 5 0 0 0 - - - 0;
#X obj 336 222 samplerate~;
#X obj 336 246 / 1000;
#X obj 334 187 receive pd-dsp-started;
#X obj 150 410 expr~ $v1 % $f2, f 39;
#X obj 194 6 inlet;
#X obj 307 613 *~, f 64;
#X obj 220 745 outlet~;
#X obj 869 749 outlet~;
#X text 1231 164 \$1 - grainLen \; \$2 - transpose \; \$3 - startPos
\; \$4 - fileLen \; \$5 - grainVol \; \$6 - grainPan \;;
#X obj 195 36 unpack 0 0 0 0 0 0, f 125;
#X obj 1011 266 sig~;
#X obj 1011 290 *~ 0.25;
#X obj 1011 314 cos~;
#X obj 1097 334 cos~;
#X obj 1097 310 +~ 0.75;
#X connect 0 0 18 0;
#X connect 1 0 2 0;
#X connect 2 0 32 1;
#X connect 3 0 33 0;
#X connect 4 0 34 0;
#X connect 5 0 10 0;
#X connect 5 0 24 0;
#X connect 6 0 5 0;
#X connect 8 0 23 1;
#X connect 9 0 23 0;
#X connect 10 0 11 0;
#X connect 11 0 8 0;
#X connect 12 0 9 0;
#X connect 14 0 15 0;
#X connect 15 0 30 0;
#X connect 16 0 6 0;
#X connect 16 1 21 0;
#X connect 17 0 19 0;
#X connect 18 0 15 1;
#X connect 19 0 18 0;
#X connect 19 1 18 1;
#X connect 19 1 30 1;
#X connect 20 0 22 0;
#X connect 21 0 14 1;
#X connect 22 0 16 0;
#X connect 23 0 32 0;
#X connect 24 0 14 0;
#X connect 25 0 26 0;
#X connect 26 0 24 1;
#X connect 27 0 28 0;
#X connect 28 0 21 1;
#X connect 29 0 27 0;
#X connect 30 0 12 0;
#X connect 31 0 36 0;
#X connect 32 0 3 0;
#X connect 32 0 4 0;
#X connect 36 0 22 0;
#X connect 36 1 25 0;
#X connect 36 2 0 0;
#X connect 36 3 17 0;
#X connect 36 4 1 0;
#X connect 36 5 37 0;
#X connect 37 0 38 0;
#X connect 38 0 39 0;
#X connect 38 0 41 0;
#X connect 39 0 3 1;
#X connect 40 0 4 1;
#X connect 41 0 40 0;
#X restore 166 153 pd grain;
#X f 10;
#X obj 166 177 throw~ \$0-outL, f 7;
#X obj 230 178 throw~ \$0-outR, f 7;
#N canvas 0 23 1440 855 grain 0;
#X floatatom 503 106 5 0 0 0 - - - 0;
#X obj 771 287 pack 0 5;
#X obj 771 311 line~;
#X obj 220 721 *~, f 11;
#X obj 869 725 *~, f 11;
#X obj 150 258 line~;
#X msg 150 231 0 \, 1 \$1;
#X text 191 145 Gran Length;
#X obj 299 513 tabread4~ \$0-env;
#X obj 150 513 tabread4~ \$0-sample;
#X obj 299 462 *~ 512;
#X obj 299 489 +~ 1;
#X obj 150 490 +~ 1;
#X text 345 461 Size of envelope array;
#X obj 150 362 *~, f 5;
#X obj 150 386 +~, f 8;
#X obj 151 170 t f f, f 20;
#X obj 607 107 - 2;
#X obj 517 251 *, f 6;
#X obj 607 131 t b f, f 13;
#X obj 102 105 bng 15 250 50 0 empty empty empty 17 7 0 10 #fcfcfc
#000000 #000000;
#X obj 288 273 * 44.1;
#X obj 152 145 f 100;
#X obj 150 567 *~, f 22;
#X obj 150 333 *~ 1;
#X obj 367 106 expr pow(2 \, $f1);
#X floatatom 367 130 5 0 0 0 - - - 0;
#X obj 336 222 samplerate~;
#X obj 336 246 / 1000;
#X obj 334 187 receive pd-dsp-started;
#X obj 150 410 expr~ $v1 % $f2, f 39;
#X obj 194 6 inlet;
#X obj 307 613 *~, f 64;
#X obj 220 745 outlet~;
#X obj 869 749 outlet~;
#X text 1231 164 \$1 - grainLen \; \$2 - transpose \; \$3 - startPos
\; \$4 - fileLen \; \$5 - grainVol \; \$6 - grainPan \;;
#X obj 195 36 unpack 0 0 0 0 0 0, f 125;
#X obj 1011 266 sig~;
#X obj 1011 290 *~ 0.25;
#X obj 1011 314 cos~;
#X obj 1097 334 cos~;
#X obj 1097 310 +~ 0.75;
#X connect 0 0 18 0;
#X connect 1 0 2 0;
#X connect 2 0 32 1;
#X connect 3 0 33 0;
#X connect 4 0 34 0;
#X connect 5 0 10 0;
#X connect 5 0 24 0;
#X connect 6 0 5 0;
#X connect 8 0 23 1;
#X connect 9 0 23 0;
#X connect 10 0 11 0;
#X connect 11 0 8 0;
#X connect 12 0 9 0;
#X connect 14 0 15 0;
#X connect 15 0 30 0;
#X connect 16 0 6 0;
#X connect 16 1 21 0;
#X connect 17 0 19 0;
#X connect 18 0 15 1;
#X connect 19 0 18 0;
#X connect 19 1 18 1;
#X connect 19 1 30 1;
#X connect 20 0 22 0;
#X connect 21 0 14 1;
#X connect 22 0 16 0;
#X connect 23 0 32 0;
#X connect 24 0 14 0;
#X connect 25 0 26 0;
#X connect 26 0 24 1;
#X connect 27 0 28 0;
#X connect 28 0 21 1;
#X connect 29 0 27 0;
#X connect 30 0 12 0;
#X connect 31 0 36 0;
#X connect 32 0 3 0;
#X connect 32 0 4 0;
#X connect 36 0 22 0;
#X connect 36 1 25 0;
#X connect 36 2 0 0;
#X connect 36 3 17 0;
#X connect 36 4 1 0;
#X connect 36 5 37 0;
#X connect 37 0 38 0;
#X connect 38 0 39 0;
#X connect 38 0 41 0;
#X connect 39 0 3 1;
#X connect 40 0 4 1;
#X connect 41 0 40 0;
#X restore 300 151 pd grain;
#X f 10;
#X obj 300 175 throw~ \$0-outL, f 7;
#X obj 364 176 throw~ \$0-outR, f 7;
#N canvas 0 23 1440 855 grain 0;
#X floatatom 503 106 5 0 0 0 - - - 0;
#X obj 771 287 pack 0 5;
#X obj 771 311 line~;
#X obj 220 721 *~, f 11;
#X obj 869 725 *~, f 11;
#X obj 150 258 line~;
#X msg 150 231 0 \, 1 \$1;
#X text 191 145 Gran Length;
#X obj 299 513 tabread4~ \$0-env;
#X obj 150 513 tabread4~ \$0-sample;
#X obj 299 462 *~ 512;
#X obj 299 489 +~ 1;
#X obj 150 490 +~ 1;
#X text 345 461 Size of envelope array;
#X obj 150 362 *~, f 5;
#X obj 150 386 +~, f 8;
#X obj 151 170 t f f, f 20;
#X obj 607 107 - 2;
#X obj 517 251 *, f 6;
#X obj 607 131 t b f, f 13;
#X obj 102 105 bng 15 250 50 0 empty empty empty 17 7 0 10 #fcfcfc
#000000 #000000;
#X obj 288 273 * 44.1;
#X obj 152 145 f 100;
#X obj 150 567 *~, f 22;
#X obj 150 333 *~ 1;
#X obj 367 106 expr pow(2 \, $f1);
#X floatatom 367 130 5 0 0 0 - - - 0;
#X obj 336 222 samplerate~;
#X obj 336 246 / 1000;
#X obj 334 187 receive pd-dsp-started;
#X obj 150 410 expr~ $v1 % $f2, f 39;
#X obj 194 6 inlet;
#X obj 307 613 *~, f 64;
#X obj 220 745 outlet~;
#X obj 869 749 outlet~;
#X text 1231 164 \$1 - grainLen \; \$2 - transpose \; \$3 - startPos
\; \$4 - fileLen \; \$5 - grainVol \; \$6 - grainPan \;;
#X obj 195 36 unpack 0 0 0 0 0 0, f 125;
#X obj 1011 266 sig~;
#X obj 1011 290 *~ 0.25;
#X obj 1011 314 cos~;
#X obj 1097 334 cos~;
#X obj 1097 310 +~ 0.75;
#X connect 0 0 18 0;
#X connect 1 0 2 0;
#X connect 2 0 32 1;
#X connect 3 0 33 0;
#X connect 4 0 34 0;
#X connect 5 0 10 0;
#X connect 5 0 24 0;
#X connect 6 0 5 0;
#X connect 8 0 23 1;
#X connect 9 0 23 0;
#X connect 10 0 11 0;
#X connect 11 0 8 0;
#X connect 12 0 9 0;
#X connect 14 0 15 0;
#X connect 15 0 30 0;
#X connect 16 0 6 0;
#X connect 16 1 21 0;
#X connect 17 0 19 0;
#X connect 18 0 15 1;
#X connect 19 0 18 0;
#X connect 19 1 18 1;
#X connect 19 1 30 1;
#X connect 20 0 22 0;
#X connect 21 0 14 1;
#X connect 22 0 16 0;
#X connect 23 0 32 0;
#X connect 24 0 14 0;
#X connect 25 0 26 0;
#X connect 26 0 24 1;
#X connect 27 0 28 0;
#X connect 28 0 21 1;
#X connect 29 0 27 0;
#X connect 30 0 12 0;
#X connect 31 0 36 0;
#X connect 32 0 3 0;
#X connect 32 0 4 0;
#X connect 36 0 22 0;
#X connect 36 1 25 0;
#X connect 36 2 0 0;
#X connect 36 3 17 0;
#X connect 36 4 1 0;
#X connect 36 5 37 0;
#X connect 37 0 38 0;
#X connect 38 0 39 0;
#X connect 38 0 41 0;
#X connect 39 0 3 1;
#X connect 40 0 4 1;
#X connect 41 0 40 0;
#X restore 437 152 pd grain;
#X f 10;
#X obj 437 176 throw~ \$0-outL, f 7;
#X obj 501 177 throw~ \$0-outR, f 7;
#N canvas 0 23 1440 855 grain 0;
#X floatatom 503 106 5 0 0 0 - - - 0;
#X obj 771 287 pack 0 5;
#X obj 771 311 line~;
#X obj 220 721 *~, f 11;
#X obj 869 725 *~, f 11;
#X obj 150 258 line~;
#X msg 150 231 0 \, 1 \$1;
#X text 191 145 Gran Length;
#X obj 299 513 tabread4~ \$0-env;
#X obj 150 513 tabread4~ \$0-sample;
#X obj 299 462 *~ 512;
#X obj 299 489 +~ 1;
#X obj 150 490 +~ 1;
#X text 345 461 Size of envelope array;
#X obj 150 362 *~, f 5;
#X obj 150 386 +~, f 8;
#X obj 151 170 t f f, f 20;
#X obj 607 107 - 2;
#X obj 517 251 *, f 6;
#X obj 607 131 t b f, f 13;
#X obj 102 105 bng 15 250 50 0 empty empty empty 17 7 0 10 #fcfcfc
#000000 #000000;
#X obj 288 273 * 44.1;
#X obj 152 145 f 100;
#X obj 150 567 *~, f 22;
#X obj 150 333 *~ 1;
#X obj 367 106 expr pow(2 \, $f1);
#X floatatom 367 130 5 0 0 0 - - - 0;
#X obj 336 222 samplerate~;
#X obj 336 246 / 1000;
#X obj 334 187 receive pd-dsp-started;
#X obj 150 410 expr~ $v1 % $f2, f 39;
#X obj 194 6 inlet;
#X obj 307 613 *~, f 64;
#X obj 220 745 outlet~;
#X obj 869 749 outlet~;
#X text 1231 164 \$1 - grainLen \; \$2 - transpose \; \$3 - startPos
\; \$4 - fileLen \; \$5 - grainVol \; \$6 - grainPan \;;
#X obj 195 36 unpack 0 0 0 0 0 0, f 125;
#X obj 1011 266 sig~;
#X obj 1011 290 *~ 0.25;
#X obj 1011 314 cos~;
#X obj 1097 334 cos~;
#X obj 1097 310 +~ 0.75;
#X connect 0 0 18 0;
#X connect 1 0 2 0;
#X connect 2 0 32 1;
#X connect 3 0 33 0;
#X connect 4 0 34 0;
#X connect 5 0 10 0;
#X connect 5 0 24 0;
#X connect 6 0 5 0;
#X connect 8 0 23 1;
#X connect 9 0 23 0;
#X connect 10 0 11 0;
#X connect 11 0 8 0;
#X connect 12 0 9 0;
#X connect 14 0 15 0;
#X connect 15 0 30 0;
#X connect 16 0 6 0;
#X connect 16 1 21 0;
#X connect 17 0 19 0;
#X connect 18 0 15 1;
#X connect 19 0 18 0;
#X connect 19 1 18 1;
#X connect 19 1 30 1;
#X connect 20 0 22 0;
#X connect 21 0 14 1;
#X connect 22 0 16 0;
#X connect 23 0 32 0;
#X connect 24 0 14 0;
#X connect 25 0 26 0;
#X connect 26 0 24 1;
#X connect 27 0 28 0;
#X connect 28 0 21 1;
#X connect 29 0 27 0;
#X connect 30 0 12 0;
#X connect 31 0 36 0;
#X connect 32 0 3 0;
#X connect 32 0 4 0;
#X connect 36 0 22 0;
#X connect 36 1 25 0;
#X connect 36 2 0 0;
#X connect 36 3 17 0;
#X connect 36 4 1 0;
#X connect 36 5 37 0;
#X connect 37 0 38 0;
#X connect 38 0 39 0;
#X connect 38 0 41 0;
#X connect 39 0 3 1;
#X connect 40 0 4 1;
#X connect 41 0 40 0;
#X restore 571 150 pd grain;
#X f 10;
#X obj 571 174 throw~ \$0-outL, f 7;
#X obj 635 175 throw~ \$0-outR, f 7;
#N canvas 0 23 1440 855 grain 0;
#X floatatom 503 106 5 0 0 0 - - - 0;
#X obj 771 287 pack 0 5;
#X obj 771 311 line~;
#X obj 220 721 *~, f 11;
#X obj 869 725 *~, f 11;
#X obj 150 258 line~;
#X msg 150 231 0 \, 1 \$1;
#X text 191 145 Gran Length;
#X obj 299 513 tabread4~ \$0-env;
#X obj 150 513 tabread4~ \$0-sample;
#X obj 299 462 *~ 512;
#X obj 299 489 +~ 1;
#X obj 150 490 +~ 1;
#X text 345 461 Size of envelope array;
#X obj 150 362 *~, f 5;
#X obj 150 386 +~, f 8;
#X obj 151 170 t f f, f 20;
#X obj 607 107 - 2;
#X obj 517 251 *, f 6;
#X obj 607 131 t b f, f 13;
#X obj 102 105 bng 15 250 50 0 empty empty empty 17 7 0 10 #fcfcfc
#000000 #000000;
#X obj 288 273 * 44.1;
#X obj 152 145 f 100;
#X obj 150 567 *~, f 22;
#X obj 150 333 *~ 1;
#X obj 367 106 expr pow(2 \, $f1);
#X floatatom 367 130 5 0 0 0 - - - 0;
#X obj 336 222 samplerate~;
#X obj 336 246 / 1000;
#X obj 334 187 receive pd-dsp-started;
#X obj 150 410 expr~ $v1 % $f2, f 39;
#X obj 194 6 inlet;
#X obj 307 613 *~, f 64;
#X obj 220 745 outlet~;
#X obj 869 749 outlet~;
#X text 1231 164 \$1 - grainLen \; \$2 - transpose \; \$3 - startPos
\; \$4 - fileLen \; \$5 - grainVol \; \$6 - grainPan \;;
#X obj 195 36 unpack 0 0 0 0 0 0, f 125;
#X obj 1011 266 sig~;
#X obj 1011 290 *~ 0.25;
#X obj 1011 314 cos~;
#X obj 1097 334 cos~;
#X obj 1097 310 +~ 0.75;
#X connect 0 0 18 0;
#X connect 1 0 2 0;
#X connect 2 0 32 1;
#X connect 3 0 33 0;
#X connect 4 0 34 0;
#X connect 5 0 10 0;
#X connect 5 0 24 0;
#X connect 6 0 5 0;
#X connect 8 0 23 1;
#X connect 9 0 23 0;
#X connect 10 0 11 0;
#X connect 11 0 8 0;
#X connect 12 0 9 0;
#X connect 14 0 15 0;
#X connect 15 0 30 0;
#X connect 16 0 6 0;
#X connect 16 1 21 0;
#X connect 17 0 19 0;
#X connect 18 0 15 1;
#X connect 19 0 18 0;
#X connect 19 1 18 1;
#X connect 19 1 30 1;
#X connect 20 0 22 0;
#X connect 21 0 14 1;
#X connect 22 0 16 0;
#X connect 23 0 32 0;
#X connect 24 0 14 0;
#X connect 25 0 26 0;
#X connect 26 0 24 1;
#X connect 27 0 28 0;
#X connect 28 0 21 1;
#X connect 29 0 27 0;
#X connect 30 0 12 0;
#X connect 31 0 36 0;
#X connect 32 0 3 0;
#X connect 32 0 4 0;
#X connect 36 0 22 0;
#X connect 36 1 25 0;
#X connect 36 2 0 0;
#X connect 36 3 17 0;
#X connect 36 4 1 0;
#X connect 36 5 37 0;
#X connect 37 0 38 0;
#X connect 38 0 39 0;
#X connect 38 0 41 0;
#X connect 39 0 3 1;
#X connect 40 0 4 1;
#X connect 41 0 40 0;
#X restore 709 148 pd grain;
#X f 10;
#X obj 709 172 throw~ \$0-outL, f 7;
#X obj 773 173 throw~ \$0-outR, f 7;
#N canvas 0 23 1440 855 grain 0;
#X floatatom 503 106 5 0 0 0 - - - 0;
#X obj 771 287 pack 0 5;
#X obj 771 311 line~;
#X obj 220 721 *~, f 11;
#X obj 869 725 *~, f 11;
#X obj 150 258 line~;
#X msg 150 231 0 \, 1 \$1;
#X text 191 145 Gran Length;
#X obj 299 513 tabread4~ \$0-env;
#X obj 150 513 tabread4~ \$0-sample;
#X obj 299 462 *~ 512;
#X obj 299 489 +~ 1;
#X obj 150 490 +~ 1;
#X text 345 461 Size of envelope array;
#X obj 150 362 *~, f 5;
#X obj 150 386 +~, f 8;
#X obj 151 170 t f f, f 20;
#X obj 607 107 - 2;
#X obj 517 251 *, f 6;
#X obj 607 131 t b f, f 13;
#X obj 102 105 bng 15 250 50 0 empty empty empty 17 7 0 10 #fcfcfc
#000000 #000000;
#X obj 288 273 * 44.1;
#X obj 152 145 f 100;
#X obj 150 567 *~, f 22;
#X obj 150 333 *~ 1;
#X obj 367 106 expr pow(2 \, $f1);
#X floatatom 367 130 5 0 0 0 - - - 0;
#X obj 336 222 samplerate~;
#X obj 336 246 / 1000;
#X obj 334 187 receive pd-dsp-started;
#X obj 150 410 expr~ $v1 % $f2, f 39;
#X obj 194 6 inlet;
#X obj 307 613 *~, f 64;
#X obj 220 745 outlet~;
#X obj 869 749 outlet~;
#X text 1231 164 \$1 - grainLen \; \$2 - transpose \; \$3 - startPos
\; \$4 - fileLen \; \$5 - grainVol \; \$6 - grainPan \;;
#X obj 195 36 unpack 0 0 0 0 0 0, f 125;
#X obj 1011 266 sig~;
#X obj 1011 290 *~ 0.25;
#X obj 1011 314 cos~;
#X obj 1097 334 cos~;
#X obj 1097 310 +~ 0.75;
#X connect 0 0 18 0;
#X connect 1 0 2 0;
#X connect 2 0 32 1;
#X connect 3 0 33 0;
#X connect 4 0 34 0;
#X connect 5 0 10 0;
#X connect 5 0 24 0;
#X connect 6 0 5 0;
#X connect 8 0 23 1;
#X connect 9 0 23 0;
#X connect 10 0 11 0;
#X connect 11 0 8 0;
#X connect 12 0 9 0;
#X connect 14 0 15 0;
#X connect 15 0 30 0;
#X connect 16 0 6 0;
#X connect 16 1 21 0;
#X connect 17 0 19 0;
#X connect 18 0 15 1;
#X connect 19 0 18 0;
#X connect 19 1 18 1;
#X connect 19 1 30 1;
#X connect 20 0 22 0;
#X connect 21 0 14 1;
#X connect 22 0 16 0;
#X connect 23 0 32 0;
#X connect 24 0 14 0;
#X connect 25 0 26 0;
#X connect 26 0 24 1;
#X connect 27 0 28 0;
#X connect 28 0 21 1;
#X connect 29 0 27 0;
#X connect 30 0 12 0;
#X connect 31 0 36 0;
#X connect 32 0 3 0;
#X connect 32 0 4 0;
#X connect 36 0 22 0;
#X connect 36 1 25 0;
#X connect 36 2 0 0;
#X connect 36 3 17 0;
#X connect 36 4 1 0;
#X connect 36 5 37 0;
#X connect 37 0 38 0;
#X connect 38 0 39 0;
#X connect 38 0 41 0;
#X connect 39 0 3 1;
#X connect 40 0 4 1;
#X connect 41 0 40 0;
#X restore 843 146 pd grain;
#X f 10;
#X obj 843 170 throw~ \$0-outL, f 7;
#X obj 907 171 throw~ \$0-outR, f 7;
#N canvas 0 23 1440 855 grain 0;
#X floatatom 503 106 5 0 0 0 - - - 0;
#X obj 771 287 pack 0 5;
#X obj 771 311 line~;
#X obj 220 721 *~, f 11;
#X obj 869 725 *~, f 11;
#X obj 150 258 line~;
#X msg 150 231 0 \, 1 \$1;
#X text 191 145 Gran Length;
#X obj 299 513 tabread4~ \$0-env;
#X obj 150 513 tabread4~ \$0-sample;
#X obj 299 462 *~ 512;
#X obj 299 489 +~ 1;
#X obj 150 490 +~ 1;
#X text 345 461 Size of envelope array;
#X obj 150 362 *~, f 5;
#X obj 150 386 +~, f 8;
#X obj 151 170 t f f, f 20;
#X obj 607 107 - 2;
#X obj 517 251 *, f 6;
#X obj 607 131 t b f, f 13;
#X obj 102 105 bng 15 250 50 0 empty empty empty 17 7 0 10 #fcfcfc
#000000 #000000;
#X obj 288 273 * 44.1;
#X obj 152 145 f 100;
#X obj 150 567 *~, f 22;
#X obj 150 333 *~ 1;
#X obj 367 106 expr pow(2 \, $f1);
#X floatatom 367 130 5 0 0 0 - - - 0;
#X obj 336 222 samplerate~;
#X obj 336 246 / 1000;
#X obj 334 187 receive pd-dsp-started;
#X obj 150 410 expr~ $v1 % $f2, f 39;
#X obj 194 6 inlet;
#X obj 307 613 *~, f 64;
#X obj 220 745 outlet~;
#X obj 869 749 outlet~;
#X text 1231 164 \$1 - grainLen \; \$2 - transpose \; \$3 - startPos
\; \$4 - fileLen \; \$5 - grainVol \; \$6 - grainPan \;;
#X obj 195 36 unpack 0 0 0 0 0 0, f 125;
#X obj 1011 266 sig~;
#X obj 1011 290 *~ 0.25;
#X obj 1011 314 cos~;
#X obj 1097 334 cos~;
#X obj 1097 310 +~ 0.75;
#X connect 0 0 18 0;
#X connect 1 0 2 0;
#X connect 2 0 32 1;
#X connect 3 0 33 0;
#X connect 4 0 34 0;
#X connect 5 0 10 0;
#X connect 5 0 24 0;
#X connect 6 0 5 0;
#X connect 8 0 23 1;
#X connect 9 0 23 0;
#X connect 10 0 11 0;
#X connect 11 0 8 0;
#X connect 12 0 9 0;
#X connect 14 0 15 0;
#X connect 15 0 30 0;
#X connect 16 0 6 0;
#X connect 16 1 21 0;
#X connect 17 0 19 0;
#X connect 18 0 15 1;
#X connect 19 0 18 0;
#X connect 19 1 18 1;
#X connect 19 1 30 1;
#X connect 20 0 22 0;
#X connect 21 0 14 1;
#X connect 22 0 16 0;
#X connect 23 0 32 0;
#X connect 24 0 14 0;
#X connect 25 0 26 0;
#X connect 26 0 24 1;
#X connect 27 0 28 0;
#X connect 28 0 21 1;
#X connect 29 0 27 0;
#X connect 30 0 12 0;
#X connect 31 0 36 0;
#X connect 32 0 3 0;
#X connect 32 0 4 0;
#X connect 36 0 22 0;
#X connect 36 1 25 0;
#X connect 36 2 0 0;
#X connect 36 3 17 0;
#X connect 36 4 1 0;
#X connect 36 5 37 0;
#X connect 37 0 38 0;
#X connect 38 0 39 0;
#X connect 38 0 41 0;
#X connect 39 0 3 1;
#X connect 40 0 4 1;
#X connect 41 0 40 0;
#X restore 980 147 pd grain;
#X f 10;
#X obj 980 171 throw~ \$0-outL, f 7;
#X obj 1044 172 throw~ \$0-outR, f 7;
#X obj 39 90 route 0 1 2 3 4 5 6 7, f 108;
#N canvas 0 23 1440 855 grain 0;
#X floatatom 503 106 5 0 0 0 - - - 0;
#X obj 771 287 pack 0 5;
#X obj 771 311 line~;
#X obj 220 721 *~, f 11;
#X obj 869 725 *~, f 11;
#X obj 150 258 line~;
#X msg 150 231 0 \, 1 \$1;
#X text 191 145 Gran Length;
#X obj 299 513 tabread4~ \$0-env;
#X obj 150 513 tabread4~ \$0-sample;
#X obj 299 462 *~ 512;
#X obj 299 489 +~ 1;
#X obj 150 490 +~ 1;
#X text 345 461 Size of envelope array;
#X obj 150 362 *~, f 5;
#X obj 150 386 +~, f 8;
#X obj 151 170 t f f, f 20;
#X obj 607 107 - 2;
#X obj 517 251 *, f 6;
#X obj 607 131 t b f, f 13;
#X obj 102 105 bng 15 250 50 0 empty empty empty 17 7 0 10 #fcfcfc
#000000 #000000;
#X obj 288 273 * 44.1;
#X obj 152 145 f 100;
#X obj 150 567 *~, f 22;
#X obj 150 333 *~ 1;
#X obj 367 106 expr pow(2 \, $f1);
#X floatatom 367 130 5 0 0 0 - - - 0;
#X obj 336 222 samplerate~;
#X obj 336 246 / 1000;
#X obj 334 187 receive pd-dsp-started;
#X obj 150 410 expr~ $v1 % $f2, f 39;
#X obj 194 6 inlet;
#X obj 307 613 *~, f 64;
#X obj 220 745 outlet~;
#X obj 869 749 outlet~;
#X text 1231 164 \$1 - grainLen \; \$2 - transpose \; \$3 - startPos
\; \$4 - fileLen \; \$5 - grainVol \; \$6 - grainPan \;;
#X obj 195 36 unpack 0 0 0 0 0 0, f 125;
#X obj 1011 266 sig~;
#X obj 1011 290 *~ 0.25;
#X obj 1011 314 cos~;
#X obj 1097 334 cos~;
#X obj 1097 310 +~ 0.75;
#X connect 0 0 18 0;
#X connect 1 0 2 0;
#X connect 2 0 32 1;
#X connect 3 0 33 0;
#X connect 4 0 34 0;
#X connect 5 0 10 0;
#X connect 5 0 24 0;
#X connect 6 0 5 0;
#X connect 8 0 23 1;
#X connect 9 0 23 0;
#X connect 10 0 11 0;
#X connect 11 0 8 0;
#X connect 12 0 9 0;
#X connect 14 0 15 0;
#X connect 15 0 30 0;
#X connect 16 0 6 0;
#X connect 16 1 21 0;
#X connect 17 0 19 0;
#X connect 18 0 15 1;
#X connect 19 0 18 0;
#X connect 19 1 18 1;
#X connect 19 1 30 1;
#X connect 20 0 22 0;
#X connect 21 0 14 1;
#X connect 22 0 16 0;
#X connect 23 0 32 0;
#X connect 24 0 14 0;
#X connect 25 0 26 0;
#X connect 26 0 24 1;
#X connect 27 0 28 0;
#X connect 28 0 21 1;
#X connect 29 0 27 0;
#X connect 30 0 12 0;
#X connect 31 0 36 0;
#X connect 32 0 3 0;
#X connect 32 0 4 0;
#X connect 36 0 22 0;
#X connect 36 1 25 0;
#X connect 36 2 0 0;
#X connect 36 3 17 0;
#X connect 36 4 1 0;
#X connect 36 5 37 0;
#X connect 37 0 38 0;
#X connect 38 0 39 0;
#X connect 38 0 41 0;
#X connect 39 0 3 1;
#X connect 40 0 4 1;
#X connect 41 0 40 0;
#X restore 266 411 pd grain;
#X f 10;
#X obj 266 435 throw~ \$0-outL, f 7;
#X obj 330 436 throw~ \$0-outR, f 7;
#N canvas 0 23 1440 855 grain 0;
#X floatatom 503 106 5 0 0 0 - - - 0;
#X obj 771 287 pack 0 5;
#X obj 771 311 line~;
#X obj 220 721 *~, f 11;
#X obj 869 725 *~, f 11;
#X obj 150 258 line~;
#X msg 150 231 0 \, 1 \$1;
#X text 191 145 Gran Length;
#X obj 299 513 tabread4~ \$0-env;
#X obj 150 513 tabread4~ \$0-sample;
#X obj 299 462 *~ 512;
#X obj 299 489 +~ 1;
#X obj 150 490 +~ 1;
#X text 345 461 Size of envelope array;
#X obj 150 362 *~, f 5;
#X obj 150 386 +~, f 8;
#X obj 151 170 t f f, f 20;
#X obj 607 107 - 2;
#X obj 517 251 *, f 6;
#X obj 607 131 t b f, f 13;
#X obj 102 105 bng 15 250 50 0 empty empty empty 17 7 0 10 #fcfcfc
#000000 #000000;
#X obj 288 273 * 44.1;
#X obj 152 145 f 100;
#X obj 150 567 *~, f 22;
#X obj 150 333 *~ 1;
#X obj 367 106 expr pow(2 \, $f1);
#X floatatom 367 130 5 0 0 0 - - - 0;
#X obj 336 222 samplerate~;
#X obj 336 246 / 1000;
#X obj 334 187 receive pd-dsp-started;
#X obj 150 410 expr~ $v1 % $f2, f 39;
#X obj 194 6 inlet;
#X obj 307 613 *~, f 64;
#X obj 220 745 outlet~;
#X obj 869 749 outlet~;
#X text 1231 164 \$1 - grainLen \; \$2 - transpose \; \$3 - startPos
\; \$4 - fileLen \; \$5 - grainVol \; \$6 - grainPan \;;
#X obj 195 36 unpack 0 0 0 0 0 0, f 125;
#X obj 1011 266 sig~;
#X obj 1011 290 *~ 0.25;
#X obj 1011 314 cos~;
#X obj 1097 334 cos~;
#X obj 1097 310 +~ 0.75;
#X connect 0 0 18 0;
#X connect 1 0 2 0;
#X connect 2 0 32 1;
#X connect 3 0 33 0;
#X connect 4 0 34 0;
#X connect 5 0 10 0;
#X connect 5 0 24 0;
#X connect 6 0 5 0;
#X connect 8 0 23 1;
#X connect 9 0 23 0;
#X connect 10 0 11 0;
#X connect 11 0 8 0;
#X connect 12 0 9 0;
#X connect 14 0 15 0;
#X connect 15 0 30 0;
#X connect 16 0 6 0;
#X connect 16 1 21 0;
#X connect 17 0 19 0;
#X connect 18 0 15 1;
#X connect 19 0 18 0;
#X connect 19 1 18 1;
#X connect 19 1 30 1;
#X connect 20 0 22 0;
#X connect 21 0 14 1;
#X connect 22 0 16 0;
#X connect 23 0 32 0;
#X connect 24 0 14 0;
#X connect 25 0 26 0;
#X connect 26 0 24 1;
#X connect 27 0 28 0;
#X connect 28 0 21 1;
#X connect 29 0 27 0;
#X connect 30 0 12 0;
#X connect 31 0 36 0;
#X connect 32 0 3 0;
#X connect 32 0 4 0;
#X connect 36 0 22 0;
#X connect 36 1 25 0;
#X connect 36 2 0 0;
#X connect 36 3 17 0;
#X connect 36 4 1 0;
#X connect 36 5 37 0;
#X connect 37 0 38 0;
#X connect 38 0 39 0;
#X connect 38 0 41 0;
#X connect 39 0 3 1;
#X connect 40 0 4 1;
#X connect 41 0 40 0;
#X restore 404 409 pd grain;
#X f 10;
#X obj 404 433 throw~ \$0-outL, f 7;
#X obj 468 434 throw~ \$0-outR, f 7;
#N canvas 0 23 1440 855 grain 0;
#X floatatom 503 106 5 0 0 0 - - - 0;
#X obj 771 287 pack 0 5;
#X obj 771 311 line~;
#X obj 220 721 *~, f 11;
#X obj 869 725 *~, f 11;
#X obj 150 258 line~;
#X msg 150 231 0 \, 1 \$1;
#X text 191 145 Gran Length;
#X obj 299 513 tabread4~ \$0-env;
#X obj 150 513 tabread4~ \$0-sample;
#X obj 299 462 *~ 512;
#X obj 299 489 +~ 1;
#X obj 150 490 +~ 1;
#X text 345 461 Size of envelope array;
#X obj 150 362 *~, f 5;
#X obj 150 386 +~, f 8;
#X obj 151 170 t f f, f 20;
#X obj 607 107 - 2;
#X obj 517 251 *, f 6;
#X obj 607 131 t b f, f 13;
#X obj 102 105 bng 15 250 50 0 empty empty empty 17 7 0 10 #fcfcfc
#000000 #000000;
#X obj 288 273 * 44.1;
#X obj 152 145 f 100;
#X obj 150 567 *~, f 22;
#X obj 150 333 *~ 1;
#X obj 367 106 expr pow(2 \, $f1);
#X floatatom 367 130 5 0 0 0 - - - 0;
#X obj 336 222 samplerate~;
#X obj 336 246 / 1000;
#X obj 334 187 receive pd-dsp-started;
#X obj 150 410 expr~ $v1 % $f2, f 39;
#X obj 194 6 inlet;
#X obj 307 613 *~, f 64;
#X obj 220 745 outlet~;
#X obj 869 749 outlet~;
#X text 1231 164 \$1 - grainLen \; \$2 - transpose \; \$3 - startPos
\; \$4 - fileLen \; \$5 - grainVol \; \$6 - grainPan \;;
#X obj 195 36 unpack 0 0 0 0 0 0, f 125;
#X obj 1011 266 sig~;
#X obj 1011 290 *~ 0.25;
#X obj 1011 314 cos~;
#X obj 1097 334 cos~;
#X obj 1097 310 +~ 0.75;
#X connect 0 0 18 0;
#X connect 1 0 2 0;
#X connect 2 0 32 1;
#X connect 3 0 33 0;
#X connect 4 0 34 0;
#X connect 5 0 10 0;
#X connect 5 0 24 0;
#X connect 6 0 5 0;
#X connect 8 0 23 1;
#X connect 9 0 23 0;
#X connect 10 0 11 0;
#X connect 11 0 8 0;
#X connect 12 0 9 0;
#X connect 14 0 15 0;
#X connect 15 0 30 0;
#X connect 16 0 6 0;
#X connect 16 1 21 0;
#X connect 17 0 19 0;
#X connect 18 0 15 1;
#X connect 19 0 18 0;
#X connect 19 1 18 1;
#X connect 19 1 30 1;
#X connect 20 0 22 0;
#X connect 21 0 14 1;
#X connect 22 0 16 0;
#X connect 23 0 32 0;
#X connect 24 0 14 0;
#X connect 25 0 26 0;
#X connect 26 0 24 1;
#X connect 27 0 28 0;
#X connect 28 0 21 1;
#X connect 29 0 27 0;
#X connect 30 0 12 0;
#X connect 31 0 36 0;
#X connect 32 0 3 0;
#X connect 32 0 4 0;
#X connect 36 0 22 0;
#X connect 36 1 25 0;
#X connect 36 2 0 0;
#X connect 36 3 17 0;
#X connect 36 4 1 0;
#X connect 36 5 37 0;
#X connect 37 0 38 0;
#X connect 38 0 39 0;
#X connect 38 0 41 0;
#X connect 39 0 3 1;
#X connect 40 0 4 1;
#X connect 41 0 40 0;
#X restore 538 407 pd grain;
#X f 10;
#X obj 538 431 throw~ \$0-outL, f 7;
#X obj 602 432 throw~ \$0-outR, f 7;
#N canvas 0 23 1440 855 grain 0;
#X floatatom 503 106 5 0 0 0 - - - 0;
#X obj 771 287 pack 0 5;
#X obj 771 311 line~;
#X obj 220 721 *~, f 11;
#X obj 869 725 *~, f 11;
#X obj 150 258 line~;
#X msg 150 231 0 \, 1 \$1;
#X text 191 145 Gran Length;
#X obj 299 513 tabread4~ \$0-env;
#X obj 150 513 tabread4~ \$0-sample;
#X obj 299 462 *~ 512;
#X obj 299 489 +~ 1;
#X obj 150 490 +~ 1;
#X text 345 461 Size of envelope array;
#X obj 150 362 *~, f 5;
#X obj 150 386 +~, f 8;
#X obj 151 170 t f f, f 20;
#X obj 607 107 - 2;
#X obj 517 251 *, f 6;
#X obj 607 131 t b f, f 13;
#X obj 102 105 bng 15 250 50 0 empty empty empty 17 7 0 10 #fcfcfc
#000000 #000000;
#X obj 288 273 * 44.1;
#X obj 152 145 f 100;
#X obj 150 567 *~, f 22;
#X obj 150 333 *~ 1;
#X obj 367 106 expr pow(2 \, $f1);
#X floatatom 367 130 5 0 0 0 - - - 0;
#X obj 336 222 samplerate~;
#X obj 336 246 / 1000;
#X obj 334 187 receive pd-dsp-started;
#X obj 150 410 expr~ $v1 % $f2, f 39;
#X obj 194 6 inlet;
#X obj 307 613 *~, f 64;
#X obj 220 745 outlet~;
#X obj 869 749 outlet~;
#X text 1231 164 \$1 - grainLen \; \$2 - transpose \; \$3 - startPos
\; \$4 - fileLen \; \$5 - grainVol \; \$6 - grainPan \;;
#X obj 195 36 unpack 0 0 0 0 0 0, f 125;
#X obj 1011 266 sig~;
#X obj 1011 290 *~ 0.25;
#X obj 1011 314 cos~;
#X obj 1097 334 cos~;
#X obj 1097 310 +~ 0.75;
#X connect 0 0 18 0;
#X connect 1 0 2 0;
#X connect 2 0 32 1;
#X connect 3 0 33 0;
#X connect 4 0 34 0;
#X connect 5 0 10 0;
#X connect 5 0 24 0;
#X connect 6 0 5 0;
#X connect 8 0 23 1;
#X connect 9 0 23 0;
#X connect 10 0 11 0;
#X connect 11 0 8 0;
#X connect 12 0 9 0;
#X connect 14 0 15 0;
#X connect 15 0 30 0;
#X connect 16 0 6 0;
#X connect 16 1 21 0;
#X connect 17 0 19 0;
#X connect 18 0 15 1;
#X connect 19 0 18 0;
#X connect 19 1 18 1;
#X connect 19 1 30 1;
#X connect 20 0 22 0;
#X connect 21 0 14 1;
#X connect 22 0 16 0;
#X connect 23 0 32 0;
#X connect 24 0 14 0;
#X connect 25 0 26 0;
#X connect 26 0 24 1;
#X connect 27 0 28 0;
#X connect 28 0 21 1;
#X connect 29 0 27 0;
#X connect 30 0 12 0;
#X connect 31 0 36 0;
#X connect 32 0 3 0;
#X connect 32 0 4 0;
#X connect 36 0 22 0;
#X connect 36 1 25 0;
#X connect 36 2 0 0;
#X connect 36 3 17 0;
#X connect 36 4 1 0;
#X connect 36 5 37 0;
#X connect 37 0 38 0;
#X connect 38 0 39 0;
#X connect 38 0 41 0;
#X connect 39 0 3 1;
#X connect 40 0 4 1;
#X connect 41 0 40 0;
#X restore 675 408 pd grain;
#X f 10;
#X obj 675 432 throw~ \$0-outL, f 7;
#X obj 739 433 throw~ \$0-outR, f 7;
#N canvas 0 23 1440 855 grain 0;
#X floatatom 503 106 5 0 0 0 - - - 0;
#X obj 771 287 pack 0 5;
#X obj 771 311 line~;
#X obj 220 721 *~, f 11;
#X obj 869 725 *~, f 11;
#X obj 150 258 line~;
#X msg 150 231 0 \, 1 \$1;
#X text 191 145 Gran Length;
#X obj 299 513 tabread4~ \$0-env;
#X obj 150 513 tabread4~ \$0-sample;
#X obj 299 462 *~ 512;
#X obj 299 489 +~ 1;
#X obj 150 490 +~ 1;
#X text 345 461 Size of envelope array;
#X obj 150 362 *~, f 5;
#X obj 150 386 +~, f 8;
#X obj 151 170 t f f, f 20;
#X obj 607 107 - 2;
#X obj 517 251 *, f 6;
#X obj 607 131 t b f, f 13;
#X obj 102 105 bng 15 250 50 0 empty empty empty 17 7 0 10 #fcfcfc
#000000 #000000;
#X obj 288 273 * 44.1;
#X obj 152 145 f 100;
#X obj 150 567 *~, f 22;
#X obj 150 333 *~ 1;
#X obj 367 106 expr pow(2 \, $f1);
#X floatatom 367 130 5 0 0 0 - - - 0;
#X obj 336 222 samplerate~;
#X obj 336 246 / 1000;
#X obj 334 187 receive pd-dsp-started;
#X obj 150 410 expr~ $v1 % $f2, f 39;
#X obj 194 6 inlet;
#X obj 307 613 *~, f 64;
#X obj 220 745 outlet~;
#X obj 869 749 outlet~;
#X text 1231 164 \$1 - grainLen \; \$2 - transpose \; \$3 - startPos
\; \$4 - fileLen \; \$5 - grainVol \; \$6 - grainPan \;;
#X obj 195 36 unpack 0 0 0 0 0 0, f 125;
#X obj 1011 266 sig~;
#X obj 1011 290 *~ 0.25;
#X obj 1011 314 cos~;
#X obj 1097 334 cos~;
#X obj 1097 310 +~ 0.75;
#X connect 0 0 18 0;
#X connect 1 0 2 0;
#X connect 2 0 32 1;
#X connect 3 0 33 0;
#X connect 4 0 34 0;
#X connect 5 0 10 0;
#X connect 5 0 24 0;
#X connect 6 0 5 0;
#X connect 8 0 23 1;
#X connect 9 0 23 0;
#X connect 10 0 11 0;
#X connect 11 0 8 0;
#X connect 12 0 9 0;
#X connect 14 0 15 0;
#X connect 15 0 30 0;
#X connect 16 0 6 0;
#X connect 16 1 21 0;
#X connect 17 0 19 0;
#X connect 18 0 15 1;
#X connect 19 0 18 0;
#X connect 19 1 18 1;
#X connect 19 1 30 1;
#X connect 20 0 22 0;
#X connect 21 0 14 1;
#X connect 22 0 16 0;
#X connect 23 0 32 0;
#X connect 24 0 14 0;
#X connect 25 0 26 0;
#X connect 26 0 24 1;
#X connect 27 0 28 0;
#X connect 28 0 21 1;
#X connect 29 0 27 0;
#X connect 30 0 12 0;
#X connect 31 0 36 0;
#X connect 32 0 3 0;
#X connect 32 0 4 0;
#X connect 36 0 22 0;
#X connect 36 1 25 0;
#X connect 36 2 0 0;
#X connect 36 3 17 0;
#X connect 36 4 1 0;
#X connect 36 5 37 0;
#X connect 37 0 38 0;
#X connect 38 0 39 0;
#X connect 38 0 41 0;
#X connect 39 0 3 1;
#X connect 40 0 4 1;
#X connect 41 0 40 0;
#X restore 809 406 pd grain;
#X f 10;
#X obj 809 430 throw~ \$0-outL, f 7;
#X obj 873 431 throw~ \$0-outR, f 7;
#N canvas 0 23 1440 855 grain 0;
#X floatatom 503 106 5 0 0 0 - - - 0;
#X obj 771 287 pack 0 5;
#X obj 771 311 line~;
#X obj 220 721 *~, f 11;
#X obj 869 725 *~, f 11;
#X obj 150 258 line~;
#X msg 150 231 0 \, 1 \$1;
#X text 191 145 Gran Length;
#X obj 299 513 tabread4~ \$0-env;
#X obj 150 513 tabread4~ \$0-sample;
#X obj 299 462 *~ 512;
#X obj 299 489 +~ 1;
#X obj 150 490 +~ 1;
#X text 345 461 Size of envelope array;
#X obj 150 362 *~, f 5;
#X obj 150 386 +~, f 8;
#X obj 151 170 t f f, f 20;
#X obj 607 107 - 2;
#X obj 517 251 *, f 6;
#X obj 607 131 t b f, f 13;
#X obj 102 105 bng 15 250 50 0 empty empty empty 17 7 0 10 #fcfcfc
#000000 #000000;
#X obj 288 273 * 44.1;
#X obj 152 145 f 100;
#X obj 150 567 *~, f 22;
#X obj 150 333 *~ 1;
#X obj 367 106 expr pow(2 \, $f1);
#X floatatom 367 130 5 0 0 0 - - - 0;
#X obj 336 222 samplerate~;
#X obj 336 246 / 1000;
#X obj 334 187 receive pd-dsp-started;
#X obj 150 410 expr~ $v1 % $f2, f 39;
#X obj 194 6 inlet;
#X obj 307 613 *~, f 64;
#X obj 220 745 outlet~;
#X obj 869 749 outlet~;
#X text 1231 164 \$1 - grainLen \; \$2 - transpose \; \$3 - startPos
\; \$4 - fileLen \; \$5 - grainVol \; \$6 - grainPan \;;
#X obj 195 36 unpack 0 0 0 0 0 0, f 125;
#X obj 1011 266 sig~;
#X obj 1011 290 *~ 0.25;
#X obj 1011 314 cos~;
#X obj 1097 334 cos~;
#X obj 1097 310 +~ 0.75;
#X connect 0 0 18 0;
#X connect 1 0 2 0;
#X connect 2 0 32 1;
#X connect 3 0 33 0;
#X connect 4 0 34 0;
#X connect 5 0 10 0;
#X connect 5 0 24 0;
#X connect 6 0 5 0;
#X connect 8 0 23 1;
#X connect 9 0 23 0;
#X connect 10 0 11 0;
#X connect 11 0 8 0;
#X connect 12 0 9 0;
#X connect 14 0 15 0;
#X connect 15 0 30 0;
#X connect 16 0 6 0;
#X connect 16 1 21 0;
#X connect 17 0 19 0;
#X connect 18 0 15 1;
#X connect 19 0 18 0;
#X connect 19 1 18 1;
#X connect 19 1 30 1;
#X connect 20 0 22 0;
#X connect 21 0 14 1;
#X connect 22 0 16 0;
#X connect 23 0 32 0;
#X connect 24 0 14 0;
#X connect 25 0 26 0;
#X connect 26 0 24 1;
#X connect 27 0 28 0;
#X connect 28 0 21 1;
#X connect 29 0 27 0;
#X connect 30 0 12 0;
#X connect 31 0 36 0;
#X connect 32 0 3 0;
#X connect 32 0 4 0;
#X connect 36 0 22 0;
#X connect 36 1 25 0;
#X connect 36 2 0 0;
#X connect 36 3 17 0;
#X connect 36 4 1 0;
#X connect 36 5 37 0;
#X connect 37 0 38 0;
#X connect 38 0 39 0;
#X connect 38 0 41 0;
#X connect 39 0 3 1;
#X connect 40 0 4 1;
#X connect 41 0 40 0;
#X restore 947 404 pd grain;
#X f 10;
#X obj 947 428 throw~ \$0-outL, f 7;
#X obj 1011 429 throw~ \$0-outR, f 7;
#N canvas 0 23 1440 855 grain 0;
#X floatatom 503 106 5 0 0 0 - - - 0;
#X obj 771 287 pack 0 5;
#X obj 771 311 line~;
#X obj 220 721 *~, f 11;
#X obj 869 725 *~, f 11;
#X obj 150 258 line~;
#X msg 150 231 0 \, 1 \$1;
#X text 191 145 Gran Length;
#X obj 299 513 tabread4~ \$0-env;
#X obj 150 513 tabread4~ \$0-sample;
#X obj 299 462 *~ 512;
#X obj 299 489 +~ 1;
#X obj 150 490 +~ 1;
#X text 345 461 Size of envelope array;
#X obj 150 362 *~, f 5;
#X obj 150 386 +~, f 8;
#X obj 151 170 t f f, f 20;
#X obj 607 107 - 2;
#X obj 517 251 *, f 6;
#X obj 607 131 t b f, f 13;
#X obj 102 105 bng 15 250 50 0 empty empty empty 17 7 0 10 #fcfcfc
#000000 #000000;
#X obj 288 273 * 44.1;
#X obj 152 145 f 100;
#X obj 150 567 *~, f 22;
#X obj 150 333 *~ 1;
#X obj 367 106 expr pow(2 \, $f1);
#X floatatom 367 130 5 0 0 0 - - - 0;
#X obj 336 222 samplerate~;
#X obj 336 246 / 1000;
#X obj 334 187 receive pd-dsp-started;
#X obj 150 410 expr~ $v1 % $f2, f 39;
#X obj 194 6 inlet;
#X obj 307 613 *~, f 64;
#X obj 220 745 outlet~;
#X obj 869 749 outlet~;
#X text 1231 164 \$1 - grainLen \; \$2 - transpose \; \$3 - startPos
\; \$4 - fileLen \; \$5 - grainVol \; \$6 - grainPan \;;
#X obj 195 36 unpack 0 0 0 0 0 0, f 125;
#X obj 1011 266 sig~;
#X obj 1011 290 *~ 0.25;
#X obj 1011 314 cos~;
#X obj 1097 334 cos~;
#X obj 1097 310 +~ 0.75;
#X connect 0 0 18 0;
#X connect 1 0 2 0;
#X connect 2 0 32 1;
#X connect 3 0 33 0;
#X connect 4 0 34 0;
#X connect 5 0 10 0;
#X connect 5 0 24 0;
#X connect 6 0 5 0;
#X connect 8 0 23 1;
#X connect 9 0 23 0;
#X connect 10 0 11 0;
#X connect 11 0 8 0;
#X connect 12 0 9 0;
#X connect 14 0 15 0;
#X connect 15 0 30 0;
#X connect 16 0 6 0;
#X connect 16 1 21 0;
#X connect 17 0 19 0;
#X connect 18 0 15 1;
#X connect 19 0 18 0;
#X connect 19 1 18 1;
#X connect 19 1 30 1;
#X connect 20 0 22 0;
#X connect 21 0 14 1;
#X connect 22 0 16 0;
#X connect 23 0 32 0;
#X connect 24 0 14 0;
#X connect 25 0 26 0;
#X connect 26 0 24 1;
#X connect 27 0 28 0;
#X connect 28 0 21 1;
#X connect 29 0 27 0;
#X connect 30 0 12 0;
#X connect 31 0 36 0;
#X connect 32 0 3 0;
#X connect 32 0 4 0;
#X connect 36 0 22 0;
#X connect 36 1 25 0;
#X connect 36 2 0 0;
#X connect 36 3 17 0;
#X connect 36 4 1 0;
#X connect 36 5 37 0;
#X connect 37 0 38 0;
#X connect 38 0 39 0;
#X connect 38 0 41 0;
#X connect 39 0 3 1;
#X connect 40 0 4 1;
#X connect 41 0 40 0;
#X restore 1081 402 pd grain;
#X f 10;
#X obj 1081 426 throw~ \$0-outL, f 7;
#X obj 1145 427 throw~ \$0-outR, f 7;
#N canvas 0 23 1440 855 grain 0;
#X floatatom 503 106 5 0 0 0 - - - 0;
#X obj 771 287 pack 0 5;
#X obj 771 311 line~;
#X obj 220 721 *~, f 11;
#X obj 869 725 *~, f 11;
#X obj 150 258 line~;
#X msg 150 231 0 \, 1 \$1;
#X text 191 145 Gran Length;
#X obj 299 513 tabread4~ \$0-env;
#X obj 150 513 tabread4~ \$0-sample;
#X obj 299 462 *~ 512;
#X obj 299 489 +~ 1;
#X obj 150 490 +~ 1;
#X text 345 461 Size of envelope array;
#X obj 150 362 *~, f 5;
#X obj 150 386 +~, f 8;
#X obj 151 170 t f f, f 20;
#X obj 607 107 - 2;
#X obj 517 251 *, f 6;
#X obj 607 131 t b f, f 13;
#X obj 102 105 bng 15 250 50 0 empty empty empty 17 7 0 10 #fcfcfc
#000000 #000000;
#X obj 288 273 * 44.1;
#X obj 152 145 f 100;
#X obj 150 567 *~, f 22;
#X obj 150 333 *~ 1;
#X obj 367 106 expr pow(2 \, $f1);
#X floatatom 367 130 5 0 0 0 - - - 0;
#X obj 336 222 samplerate~;
#X obj 336 246 / 1000;
#X obj 334 187 receive pd-dsp-started;
#X obj 150 410 expr~ $v1 % $f2, f 39;
#X obj 194 6 inlet;
#X obj 307 613 *~, f 64;
#X obj 220 745 outlet~;
#X obj 869 749 outlet~;
#X text 1231 164 \$1 - grainLen \; \$2 - transpose \; \$3 - startPos
\; \$4 - fileLen \; \$5 - grainVol \; \$6 - grainPan \;;
#X obj 195 36 unpack 0 0 0 0 0 0, f 125;
#X obj 1011 266 sig~;
#X obj 1011 290 *~ 0.25;
#X obj 1011 314 cos~;
#X obj 1097 334 cos~;
#X obj 1097 310 +~ 0.75;
#X connect 0 0 18 0;
#X connect 1 0 2 0;
#X connect 2 0 32 1;
#X connect 3 0 33 0;
#X connect 4 0 34 0;
#X connect 5 0 10 0;
#X connect 5 0 24 0;
#X connect 6 0 5 0;
#X connect 8 0 23 1;
#X connect 9 0 23 0;
#X connect 10 0 11 0;
#X connect 11 0 8 0;
#X connect 12 0 9 0;
#X connect 14 0 15 0;
#X connect 15 0 30 0;
#X connect 16 0 6 0;
#X connect 16 1 21 0;
#X connect 17 0 19 0;
#X connect 18 0 15 1;
#X connect 19 0 18 0;
#X connect 19 1 18 1;
#X connect 19 1 30 1;
#X connect 20 0 22 0;
#X connect 21 0 14 1;
#X connect 22 0 16 0;
#X connect 23 0 32 0;
#X connect 24 0 14 0;
#X connect 25 0 26 0;
#X connect 26 0 24 1;
#X connect 27 0 28 0;
#X connect 28 0 21 1;
#X connect 29 0 27 0;
#X connect 30 0 12 0;
#X connect 31 0 36 0;
#X connect 32 0 3 0;
#X connect 32 0 4 0;
#X connect 36 0 22 0;
#X connect 36 1 25 0;
#X connect 36 2 0 0;
#X connect 36 3 17 0;
#X connect 36 4 1 0;
#X connect 36 5 37 0;
#X connect 37 0 38 0;
#X connect 38 0 39 0;
#X connect 38 0 41 0;
#X connect 39 0 3 1;
#X connect 40 0 4 1;
#X connect 41 0 40 0;
#X restore 1218 403 pd grain;
#X f 10;
#X obj 1218 427 throw~ \$0-outL, f 7;
#X obj 1282 428 throw~ \$0-outR, f 7;
#X obj 277 346 route 0 1 2 3 4 5 6 7, f 79;
#X obj 540 265 - 8;
#X obj 540 241 unpack 0 0 0 0 0 0 0 0, f 27;
#X obj 540 291 pack 0 0 0 0 0 0 0 0, f 27;
#X obj 799 304 print;
#X connect 0 0 25 0;
#X connect 1 0 2 0;
#X connect 1 1 3 0;
#X connect 4 0 5 0;
#X connect 4 1 6 0;
#X connect 7 0 8 0;
#X connect 7 1 9 0;
#X connect 10 0 11 0;
#X connect 10 1 12 0;
#X connect 13 0 14 0;
#X connect 13 1 15 0;
#X connect 16 0 17 0;
#X connect 16 1 18 0;
#X connect 19 0 20 0;
#X connect 19 1 21 0;
#X connect 22 0 23 0;
#X connect 22 1 24 0;
#X connect 25 0 1 0;
#X connect 25 1 4 0;
#X connect 25 2 7 0;
#X connect 25 3 10 0;
#X connect 25 4 13 0;
#X connect 25 5 16 0;
#X connect 25 6 19 0;
#X connect 25 7 22 0;
#X connect 25 8 52 0;
#X connect 25 8 54 0;
#X connect 26 0 27 0;
#X connect 26 1 28 0;
#X connect 29 0 30 0;
#X connect 29 1 31 0;
#X connect 32 0 33 0;
#X connect 32 1 34 0;
#X connect 35 0 36 0;
#X connect 35 1 37 0;
#X connect 38 0 39 0;
#X connect 38 1 40 0;
#X connect 41 0 42 0;
#X connect 41 1 43 0;
#X connect 44 0 45 0;
#X connect 44 1 46 0;
#X connect 47 0 48 0;
#X connect 47 1 49 0;
#X connect 50 0 26 0;
#X connect 50 1 29 0;
#X connect 50 2 32 0;
#X connect 50 3 35 0;
#X connect 50 4 38 0;
#X connect 50 5 41 0;
#X connect 50 6 44 0;
#X connect 50 7 47 0;
#X connect 51 0 53 0;
#X connect 52 0 51 0;
#X connect 52 1 53 1;
#X connect 52 2 53 2;
#X connect 52 3 53 3;
#X connect 52 4 53 4;
#X connect 52 5 53 5;
#X connect 52 6 53 6;
#X connect 52 7 53 7;
#X connect 53 0 50 0;
#X restore 73 445 pd grains;
#X obj 154 396 % 16;
#X connect 1 0 2 0;
#X connect 2 0 3 0;
#X connect 3 0 4 0;
#X connect 4 0 5 0;
#X connect 5 0 6 0;
#X connect 6 0 7 0;
#X connect 10 0 11 0;
#X connect 11 0 12 0;
#X connect 13 0 6 0;
#X connect 15 0 16 0;
#X connect 17 0 41 1;
#X connect 18 0 22 3;
#X connect 19 0 38 1;
#X connect 20 0 43 1;
#X connect 21 0 36 1;
#X connect 22 0 54 0;
#X connect 23 0 46 1;
#X connect 24 0 22 0;
#X connect 25 0 45 0;
#X connect 27 0 26 0;
#X connect 28 0 26 1;
#X connect 33 0 34 0;
#X connect 34 0 25 0;
#X connect 35 0 36 2;
#X connect 36 0 24 0;
#X connect 38 0 22 1;
#X connect 39 0 38 2;
#X connect 41 0 22 2;
#X connect 42 0 41 2;
#X connect 43 0 22 4;
#X connect 44 0 43 2;
#X connect 45 0 36 0;
#X connect 45 1 38 0;
#X connect 45 2 41 0;
#X connect 45 3 43 0;
#X connect 45 4 46 0;
#X connect 46 0 22 5;
#X connect 47 0 46 2;
#X connect 52 0 51 0;
#X connect 53 0 57 0;
#X connect 54 0 53 0;
#X connect 54 1 55 0;
#X connect 55 0 56 0;
#X connect 55 0 58 0;
#X connect 56 0 55 1;
#X connect 58 0 53 1;
