#N canvas 0 23 965 521 12;
#X obj 28 386 pack 0 0 0 0 0 0, f 47;
#X text 453 280 \$1 - level \; \$2 - attack \; \$3 - decay \; \$4 -
sustain (level*sus) \; \$5 - release \; \$6 - attack+decay;
#X obj 346 326 +;
#X obj 223 347 *;
#X msg 28 410 \$1 \$2 \, \$4 \$3 \$2 \, 0 \$5 \$6;
#X obj 100 122 vsl 15 50 0.01 1 1 1 \$0-att \$0-att A 4 10 0 10 #fcfcfc
#000000 #000000 2655 1;
#X obj 115 122 vsl 15 50 0.01 1 1 1 \$0-dec \$0-dec D 4 10 0 10 #fcfcfc
#000000 #000000 1342 1;
#X obj 130 122 vsl 15 50 0 1 0 1 \$0-sus \$0-sus S 4 10 0 10 #fcfcfc
#000000 #000000 2398 1;
#X obj 145 122 vsl 15 50 0.01 1 1 1 \$0-rel \$0-rel R 4 10 0 10 #fcfcfc
#000000 #000000 0 1;
#X obj 66 323 r \$0-att;
#X obj 346 299 r \$0-att;
#X obj 66 347 * 2000;
#X obj 346 350 * 2000;
#X obj 129 324 r \$0-dec;
#X obj 131 350 * 2000;
#X obj 375 247 r \$0-dec;
#X obj 375 271 t b f;
#X obj 220 297 r \$0-sus;
#X obj 278 344 * 2000;
#X obj 276 318 r \$0-rel;
#X obj 17 97 inlet;
#X obj 53 181 min 1;
#X obj 53 205 max 1e-05;
#X obj 28 441 vline~;
#X obj 28 465 outlet~;
#X obj 17 121 route bang;
#X obj 20 164 bng 15 250 50 0 empty empty empty 17 7 0 10 #fcfcfc #000000
#000000;
#X obj 28 251 f 1;
#X obj 499 229 outlet;
#X obj 543 107 r \$0-att;
#X obj 561 128 r \$0-dec;
#X obj 504 197 expr 2000*($f1+$f2+$f3);
#X obj 639 128 r \$0-rel;
#X obj 639 152 t b f;
#X obj 561 152 t b f;
#X obj 481 133 bng 15 250 50 0 empty empty empty 17 7 0 10 #fcfcfc
#000000 #000000;
#X obj 28 275 t f f b;
#X obj 187 84 s \$0-att;
#X obj 386 85 s \$0-rel;
#X obj 251 85 s \$0-dec;
#X obj 316 85 s \$0-sus;
#X obj 295 -51 bng 15 250 50 0 empty empty empty 17 7 0 10 #fcfcfc
#000000 #000000;
#X obj 295 -30 t b b b b;
#X obj 327 -53 inlet;
#X floatatom 417 67 5 0 0 0 - - - 0;
#X obj 151 -3 expr pow(random(0 \, 1000)/1000. \, 3), f 13;
#X obj 249 -10 expr pow(random(0 \, 1000)/1000. \, 3), f 12;
#X obj 350 -9 expr pow(random(0 \, 1000)/1000. \, 3), f 10;
#X obj 447 -8 expr pow(random(0 \, 1000)/1000. \, 3), f 11;
#X connect 0 0 4 0;
#X connect 2 0 12 0;
#X connect 3 0 0 3;
#X connect 4 0 23 0;
#X connect 9 0 11 0;
#X connect 10 0 2 0;
#X connect 11 0 0 1;
#X connect 12 0 0 5;
#X connect 13 0 14 0;
#X connect 14 0 0 2;
#X connect 15 0 16 0;
#X connect 16 0 2 0;
#X connect 16 1 2 1;
#X connect 17 0 3 1;
#X connect 18 0 0 4;
#X connect 19 0 18 0;
#X connect 20 0 25 0;
#X connect 21 0 22 0;
#X connect 22 0 27 0;
#X connect 23 0 24 0;
#X connect 25 0 26 0;
#X connect 25 1 21 0;
#X connect 26 0 27 0;
#X connect 27 0 36 0;
#X connect 29 0 31 0;
#X connect 30 0 34 0;
#X connect 31 0 28 0;
#X connect 32 0 33 0;
#X connect 33 0 31 0;
#X connect 33 1 31 2;
#X connect 34 0 31 0;
#X connect 34 1 31 1;
#X connect 35 0 31 0;
#X connect 36 0 0 0;
#X connect 36 1 3 0;
#X connect 36 2 35 0;
#X connect 41 0 42 0;
#X connect 42 0 45 0;
#X connect 42 1 46 0;
#X connect 42 2 47 0;
#X connect 42 3 48 0;
#X connect 43 0 42 0;
#X connect 45 0 37 0;
#X connect 46 0 39 0;
#X connect 47 0 40 0;
#X connect 48 0 38 0;
#X connect 48 0 44 0;
#X coords 0 -1 1 1 60 75 1 100 100;
