#N canvas 0 23 1440 794 12;
#X obj 341 82 adsr_sjf~;
#X obj 96 582 *~, f 36;
#X obj 96 550 osc~ 440;
#X obj 416 83 bng 15 250 50 0 empty empty empty 17 7 0 10 #fcfcfc #000000
#000000;
#X obj 97 438 osc~;
#X floatatom 33 83 5 0 0 1 carrier - - 0;
#X floatatom 131 83 5 0 0 1 mod\ depth \$0-mDepth - 0;
#X floatatom 239 83 5 0 0 1 mod\ rate \$0-mRate - 0;
#X obj 41 462 *~, f 8;
#X obj 5 516 +~, f 14;
#X obj 96 485 *~, f 18;
#X obj 96 412 *~;
#X obj 358 369 *~, f 14;
#X obj 561 396 *~, f 15;
#N canvas 0 22 450 278 (subpatch) 0;
#X array \$0-depth 100 float 1;
#A 0 0.9659 0.978636 0.991372 1 1 1 1 1 1 1 1 1 1 1 1 1 1 1 1 1 1 1
1 1 1 1 1 1 1 1 1 1 1 1 1 1 1 1 1 1 1 1 1 1 1 1 1 1 1 1 0.9659 1 1
1 1 1 1 1 1 1 1 1 1 1 1 1 1 1 1 1 1 1 1 1 1 1 1 1 1 1 1 1 1 1 1 1 1
1 1 1 1 1 1 1 1 1 1 1 0.991372 0.978636;
#X coords 0 1 99 0 95 55 1 0 0;
#X restore 130 141 graph;
#N canvas 0 22 450 278 (subpatch) 0;
#X array \$0-rate 100 float 1;
#A 0 0.8049 0.828472 0.85195 0.875243 0.898258 0.920905 0.943094 0.964737
0.98575 1 1 1 1 1 1 1 1 1 1 1 1 1 1 1 1 1 1 1 1 1 1 1 1 1 1 1 1 1 1
1 1 1 0.985751 0.964738 0.943095 0.920906 0.898259 0.875244 0.851951
0.828472 0.804901 0.78133 0.757851 0.734558 0.711543 0.688896 0.666707
0.645063 0.624051 0.603752 0.584246 0.565612 0.547922 0.531246 0.51565
0.501196 0.48794 0.475935 0.465228 0.455862 0.447874 0.441294 0.43615
0.43246 0.430241 0.4295 0.430241 0.43246 0.436149 0.441294 0.447873
0.455861 0.465227 0.475934 0.487938 0.501194 0.515648 0.531244 0.54792
0.56561 0.584244 0.603749 0.624048 0.645061 0.666704 0.688893 0.71154
0.734555 0.757848 0.781327;
#X coords 0 1 99 0 95 55 1 0 0;
#X restore 238 141 graph;
#X obj 349 172 s \$0-length;
#N canvas 719 149 450 300 depthChange 0;
#X obj 37 37 inlet;
#X obj 50 166 tabread4~ \$0-depth;
#X obj 50 134 line~;
#X obj 71 63 r \$0-length;
#X obj 50 86 f;
#X obj 50 190 outlet~;
#X msg 50 110 1 1 \, 98 \$1 1;
#X connect 0 0 4 0;
#X connect 1 0 5 0;
#X connect 2 0 1 0;
#X connect 3 0 4 1;
#X connect 4 0 6 0;
#X connect 6 0 2 0;
#X restore 663 298 pd depthChange;
#X obj 359 282 r \$0-modRate;
#X obj 239 107 s \$0-modRate;
#X obj 131 106 s \$0-modDepth;
#X obj 562 298 r \$0-modDepth;
#N canvas 740 172 450 300 rateChange 0;
#X obj 37 37 inlet;
#X obj 50 132 line~;
#X obj 71 61 r \$0-length;
#X obj 50 84 f;
#X obj 50 163 tabread4~ \$0-rate;
#X obj 50 187 outlet~;
#X msg 50 108 1 1 \, 98 \$1 1;
#X connect 0 0 3 0;
#X connect 1 0 4 0;
#X connect 2 0 3 1;
#X connect 3 0 6 0;
#X connect 4 0 5 0;
#X connect 6 0 1 0;
#X restore 456 302 pd rateChange;
#X obj 33 8 inlet;
#X obj 33 32 unpack 0 0, f 81;
#X obj 33 56 mtof;
#X obj 578 108 / 127;
#X obj 578 132 t f b;
#X obj 83 684 outlet~;
#X obj 441 66 vsl 15 128 0 127 0 1 \$0-vol empty vol 0 -9 0 10 #fcfcfc
#000000 #000000 6200 1;
#X obj 234 611 r \$0-vol;
#X obj 234 635 / 127;
#X obj 234 659 pack 0 5;
#X obj 234 683 line~;
#X obj 96 606 *~;
#X obj 912 50 loadbang;
#X msg 912 74 2;
#X obj 65 171 hsl 50 15 0 1 0 1 empty empty empty -2 -8 0 10 #fcfcfc
#000000 #000000 4900 1;
#X obj 41 203 pack 0 \$0;
#X msg 41 229 \; \$2-depth const \$1;
#X obj 65 150 hsl 50 15 0 1 0 1 empty empty empty -2 -8 0 10 #fcfcfc
#000000 #000000 4900 1;
#X obj 127 266 pack 0 \$0;
#X msg 127 292 \; \$2-rate const \$1;
#X obj 336 55 bng 15 250 50 0 \$0-rand empty rand 17 7 0 10 #fcfcfc
#000000 #000000;
#X obj 338 5 inlet;
#X obj 748 13 r \$0-rand;
#X obj 860 197 s \$0-mDepth;
#X obj 749 198 s \$0-mRate;
#X obj 395 54 r \$0-rand;
#X obj 696 73 expr pow(random(0 \, 1000)/1000. \, 2) * 10, f 14;
#X obj 832 63 expr pow(random(0 \, 1000)/1000. \, 2) * 10, f 9;
#N canvas -87 130 1517 490 randRate 0;
#X obj 33 89 t b f, f 10;
#X obj 171 174 sel 0, f 11;
#X obj 194 241 t f f, f 9;
#X obj 305 176 int \$2;
#X obj 305 197 sel 0, f 11;
#X obj 418 174 int \$2;
#X obj 418 195 sel 0, f 11;
#X obj 305 239 t f f, f 7;
#X obj 460 239 t f f, f 7;
#N canvas 0 23 450 341 rmpDwn 0;
#X obj 121 16 inlet;
#X obj 143 191 /, f 5;
#X obj 103 109 f;
#X obj 103 158 -, f 8;
#X obj 148 87 t f f;
#X obj 186 52 t f f;
#X obj 143 287 pack, f 18;
#X obj 143 308 outlet;
#X obj 121 38 t b f;
#X obj 195 24 inlet;
#X obj 147 126 %;
#X floatatom 220 81 5 0 0 0 - - - 0;
#X obj 155 220 *;
#X obj 155 241 +;
#X obj 155 262 clip 0 1;
#X obj 203 211 r \$0-offset_snd;
#X obj 182 194 r \$0-range_snd;
#X connect 0 0 8 0;
#X connect 1 0 12 0;
#X connect 2 0 3 0;
#X connect 3 0 1 0;
#X connect 4 0 10 0;
#X connect 4 1 6 1;
#X connect 5 0 2 1;
#X connect 5 1 1 1;
#X connect 5 1 10 1;
#X connect 5 1 11 0;
#X connect 6 0 7 0;
#X connect 8 0 2 0;
#X connect 8 1 4 0;
#X connect 9 0 5 0;
#X connect 10 0 3 1;
#X connect 12 0 13 0;
#X connect 13 0 14 0;
#X connect 14 0 6 0;
#X connect 15 0 13 1;
#X connect 16 0 12 1;
#X restore 348 286 pd rmpDwn;
#N canvas 0 23 450 300 updwn 0;
#X obj 95 16 inlet;
#X obj 194 17 inlet;
#X obj 95 136 route 0 1, f 10;
#X obj 194 39 / 2;
#X obj 95 87 >;
#X obj 95 108 pack;
#X obj 95 45 t f f;
#X obj 97 208 outlet;
#N canvas 0 23 450 341 rmpDwn 0;
#X obj 121 16 inlet;
#X obj 143 191 /, f 5;
#X obj 103 109 f;
#X obj 103 158 -, f 8;
#X obj 148 87 t f f;
#X obj 186 52 t f f;
#X obj 143 287 pack, f 18;
#X obj 143 308 outlet;
#X obj 121 38 t b f;
#X obj 195 24 inlet;
#X obj 147 126 %;
#X floatatom 220 81 5 0 0 0 - - - 0;
#X obj 155 220 *;
#X obj 155 241 +;
#X obj 155 262 clip 0 1;
#X obj 203 211 r \$0-offset_snd;
#X obj 182 194 r \$0-range_snd;
#X connect 0 0 8 0;
#X connect 1 0 12 0;
#X connect 2 0 3 0;
#X connect 3 0 1 0;
#X connect 4 0 10 0;
#X connect 4 1 6 1;
#X connect 5 0 2 1;
#X connect 5 1 1 1;
#X connect 5 1 10 1;
#X connect 5 1 11 0;
#X connect 6 0 7 0;
#X connect 8 0 2 0;
#X connect 8 1 4 0;
#X connect 9 0 5 0;
#X connect 10 0 3 1;
#X connect 12 0 13 0;
#X connect 13 0 14 0;
#X connect 14 0 6 0;
#X connect 15 0 13 1;
#X connect 16 0 12 1;
#X restore 209 164 pd rmpDwn;
#N canvas 0 23 450 300 RampUp 0;
#X obj 116 17 inlet;
#X obj 116 130 /, f 17;
#X obj 116 40 t f f, f 12;
#X obj 116 244 pack, f 35;
#X obj 116 265 outlet;
#X obj 219 19 inlet;
#X obj 116 61 %;
#X obj 116 175 *;
#X obj 116 196 +;
#X obj 116 217 clip 0 1;
#X obj 164 166 r \$0-offset_snd;
#X obj 143 149 r \$0-range_snd;
#X connect 0 0 2 0;
#X connect 1 0 7 0;
#X connect 2 0 6 0;
#X connect 2 1 3 1;
#X connect 3 0 4 0;
#X connect 5 0 1 1;
#X connect 5 0 6 1;
#X connect 6 0 1 0;
#X connect 7 0 8 0;
#X connect 8 0 9 0;
#X connect 9 0 3 0;
#X connect 10 0 8 1;
#X connect 11 0 7 1;
#X restore 96 166 pd RampUp;
#X f 12;
#X connect 0 0 6 0;
#X connect 1 0 3 0;
#X connect 2 0 9 0;
#X connect 2 1 8 0;
#X connect 3 0 4 1;
#X connect 3 0 9 1;
#X connect 3 0 8 1;
#X connect 4 0 5 0;
#X connect 5 0 2 0;
#X connect 6 0 4 0;
#X connect 6 1 5 1;
#X connect 8 0 7 0;
#X connect 9 0 7 0;
#X restore 501 286 pd updwn;
#X obj 540 174 int \$2;
#X obj 540 195 sel 0, f 11;
#X obj 582 234 t f f, f 8;
#N canvas 0 23 450 300 downUp 0;
#X obj 95 16 inlet;
#X obj 194 17 inlet;
#X obj 95 136 route 0 1, f 10;
#X obj 194 39 / 2;
#X obj 95 87 >;
#X obj 95 108 pack;
#X obj 95 45 t f f;
#X obj 111 235 outlet;
#N canvas 0 23 450 341 rmpDwn 0;
#X obj 121 16 inlet;
#X obj 143 191 /, f 5;
#X obj 103 109 f;
#X obj 103 158 -, f 8;
#X obj 148 87 t f f;
#X obj 186 52 t f f;
#X obj 143 287 pack, f 18;
#X obj 143 308 outlet;
#X obj 121 38 t b f;
#X obj 195 24 inlet;
#X obj 147 126 %;
#X floatatom 220 81 5 0 0 0 - - - 0;
#X obj 155 220 *;
#X obj 155 241 +;
#X obj 155 262 clip 0 1;
#X obj 203 211 r \$0-offset_snd;
#X obj 182 194 r \$0-range_snd;
#X connect 0 0 8 0;
#X connect 1 0 12 0;
#X connect 2 0 3 0;
#X connect 3 0 1 0;
#X connect 4 0 10 0;
#X connect 4 1 6 1;
#X connect 5 0 2 1;
#X connect 5 1 1 1;
#X connect 5 1 10 1;
#X connect 5 1 11 0;
#X connect 6 0 7 0;
#X connect 8 0 2 0;
#X connect 8 1 4 0;
#X connect 9 0 5 0;
#X connect 10 0 3 1;
#X connect 12 0 13 0;
#X connect 13 0 14 0;
#X connect 14 0 6 0;
#X connect 15 0 13 1;
#X connect 16 0 12 1;
#X restore 90 181 pd rmpDwn;
#X f 12;
#N canvas 0 23 450 300 RampUp 0;
#X obj 116 17 inlet;
#X obj 116 130 /, f 17;
#X obj 116 40 t f f, f 12;
#X obj 116 244 pack, f 35;
#X obj 116 265 outlet;
#X obj 219 19 inlet;
#X obj 116 61 %;
#X obj 116 175 *;
#X obj 116 196 +;
#X obj 116 217 clip 0 1;
#X obj 164 166 r \$0-offset_snd;
#X obj 143 149 r \$0-range_snd;
#X connect 0 0 2 0;
#X connect 1 0 7 0;
#X connect 2 0 6 0;
#X connect 2 1 3 1;
#X connect 3 0 4 0;
#X connect 5 0 1 1;
#X connect 5 0 6 1;
#X connect 6 0 1 0;
#X connect 7 0 8 0;
#X connect 8 0 9 0;
#X connect 9 0 3 0;
#X connect 10 0 8 1;
#X connect 11 0 7 1;
#X restore 187 185 pd RampUp;
#X connect 0 0 6 0;
#X connect 1 0 3 0;
#X connect 2 0 8 0;
#X connect 2 1 9 0;
#X connect 3 0 4 1;
#X connect 3 0 8 1;
#X connect 3 0 9 1;
#X connect 4 0 5 0;
#X connect 5 0 2 0;
#X connect 6 0 4 0;
#X connect 6 1 5 1;
#X connect 8 0 7 0;
#X connect 9 0 7 0;
#X restore 623 281 pd downUp;
#N canvas 0 23 450 300 RampUp 0;
#X obj 116 17 inlet;
#X obj 116 130 /, f 17;
#X obj 116 40 t f f, f 12;
#X obj 116 244 pack, f 35;
#X obj 116 265 outlet;
#X obj 219 19 inlet;
#X obj 116 61 %;
#X obj 116 175 *;
#X obj 116 196 +;
#X obj 116 217 clip 0 1;
#X obj 164 166 r \$0-offset_snd;
#X obj 143 149 r \$0-range_snd;
#X connect 0 0 2 0;
#X connect 1 0 7 0;
#X connect 2 0 6 0;
#X connect 2 1 3 1;
#X connect 3 0 4 0;
#X connect 5 0 1 1;
#X connect 5 0 6 1;
#X connect 6 0 1 0;
#X connect 7 0 8 0;
#X connect 8 0 9 0;
#X connect 9 0 3 0;
#X connect 10 0 8 1;
#X connect 11 0 7 1;
#X restore 217 314 pd RampUp;
#X obj 694 173 int \$2;
#X obj 694 194 sel 0, f 11;
#X obj 694 235 t f f, f 7;
#N canvas 0 23 335 408 sin 0;
#X obj 56 22 inlet;
#X obj 56 135 /, f 17;
#X obj 56 45 t f f, f 12;
#X obj 56 305 pack, f 33;
#X obj 56 326 outlet;
#X obj 159 24 inlet;
#X obj 56 66 %;
#X obj 56 156 expr sin(2 * 3.14159 * $f1);
#X obj 56 177 * 0.5;
#X obj 56 198 + 0.5;
#X obj 56 239 *;
#X obj 56 260 +, f 6;
#X obj 56 281 clip 0 1;
#X obj 116 230 r \$0-offset_snd;
#X obj 95 213 r \$0-range_snd;
#X connect 0 0 2 0;
#X connect 1 0 7 0;
#X connect 2 0 6 0;
#X connect 2 1 3 1;
#X connect 3 0 4 0;
#X connect 5 0 6 1;
#X connect 5 0 1 1;
#X connect 6 0 1 0;
#X connect 7 0 8 0;
#X connect 8 0 9 0;
#X connect 9 0 10 0;
#X connect 10 0 11 0;
#X connect 11 0 12 0;
#X connect 12 0 3 0;
#X connect 13 0 11 1;
#X connect 14 0 10 1;
#X restore 735 282 pd sin;
#X obj 837 175 int \$2;
#X obj 837 196 sel 0, f 11;
#X obj 837 235 t f f, f 8;
#N canvas 0 23 338 406 sinm 0;
#X obj 56 22 inlet;
#X obj 56 135 /, f 17;
#X obj 56 45 t f f, f 12;
#X obj 52 357 pack, f 33;
#X obj 52 378 outlet;
#X obj 159 24 inlet;
#X obj 56 66 %;
#X obj 56 177 * 0.5;
#X obj 56 198 + 0.5;
#X obj 56 156 expr -1*sin(2 * 3.14159 * $f1);
#X obj 61 259 *;
#X obj 61 280 +;
#X obj 61 301 clip 0 1;
#X obj 109 250 r \$0-offset_snd;
#X obj 88 233 r \$0-range_snd;
#X connect 0 0 2 0;
#X connect 1 0 9 0;
#X connect 2 0 6 0;
#X connect 2 1 3 1;
#X connect 3 0 4 0;
#X connect 5 0 6 1;
#X connect 5 0 1 1;
#X connect 6 0 1 0;
#X connect 7 0 8 0;
#X connect 8 0 10 0;
#X connect 9 0 7 0;
#X connect 10 0 11 0;
#X connect 11 0 12 0;
#X connect 12 0 3 0;
#X connect 13 0 11 1;
#X connect 14 0 10 1;
#X restore 878 282 pd sinm;
#N canvas 1676 -471 1053 300 random_load 0;
#X obj 169 6 inlet;
#X obj 104 59 random 7;
#X obj 169 99 sel 0 1 2 3 4 5 6, f 25;
#X obj 544 156 random 10000;
#X obj 544 177 / 10000;
#X obj 169 27 t b b, f 53;
#X obj 537 61 random 10000;
#X obj 537 82 / 10000;
#X obj 428 59 random 10000;
#X obj 428 80 / 10000;
#X obj 560 123 s \$0-range_rec;
#X floatatom 104 83 5 0 0 0 - - - 0;
#X floatatom 428 104 5 0 0 0 - - - 0;
#X floatatom 537 106 5 0 0 0 - - - 0;
#X floatatom 544 201 5 0 0 0 - - - 0;
#X obj 15 234 s \$0-rmpUp_snd1;
#X obj 144 250 s \$0-rmpDwn_snd1;
#X obj 214 225 s \$0-rmpUD_snd1;
#X obj 230 195 s \$0-rmpDU_snd1;
#X obj 347 235 s \$0-sin_snd1;
#X obj 449 256 s \$0-sinm_snd1;
#X obj 597 221 s \$0-const_rec1;
#X obj 406 140 s \$0-offset_rec;
#X connect 0 0 5 0;
#X connect 1 0 2 0;
#X connect 1 0 11 0;
#X connect 2 0 15 0;
#X connect 2 1 16 0;
#X connect 2 2 17 0;
#X connect 2 3 18 0;
#X connect 2 4 19 0;
#X connect 2 5 20 0;
#X connect 2 6 3 0;
#X connect 3 0 4 0;
#X connect 4 0 14 0;
#X connect 4 0 21 0;
#X connect 5 0 1 0;
#X connect 5 1 6 0;
#X connect 5 1 8 0;
#X connect 6 0 7 0;
#X connect 7 0 10 0;
#X connect 7 0 13 0;
#X connect 8 0 9 0;
#X connect 9 0 12 0;
#X connect 9 0 22 0;
#X restore 704 63 pd random_load;
#X text 813 357 sjf \, SAE London 2020;
#N canvas 468 300 450 300 uzi_sjf 0;
#X obj 155 29 inlet;
#X obj 155 53 t f b;
#X obj 155 77 until;
#X obj 155 101 +, f 11;
#X obj 269 112 int;
#X obj 269 136 + 1;
#X msg 219 74 0;
#X obj 143 155 outlet;
#X msg 51 11 100;
#X connect 0 0 1 0;
#X connect 1 0 2 0;
#X connect 1 1 6 0;
#X connect 2 0 3 0;
#X connect 3 0 4 0;
#X connect 3 0 7 0;
#X connect 4 0 5 0;
#X connect 5 0 3 1;
#X connect 6 0 3 1;
#X connect 8 0 1 0;
#X restore 193 275 pd uzi_sjf;
#N canvas 468 300 450 300 uzi_sjf 0;
#X obj 155 29 inlet;
#X obj 155 53 t f b;
#X obj 155 77 until;
#X obj 155 101 +, f 11;
#X obj 269 112 int;
#X obj 269 136 + 1;
#X msg 219 74 0;
#X obj 143 155 outlet;
#X connect 0 0 1 0;
#X connect 1 0 2 0;
#X connect 1 1 6 0;
#X connect 2 0 3 0;
#X connect 3 0 4 0;
#X connect 3 0 7 0;
#X connect 4 0 5 0;
#X connect 5 0 3 1;
#X connect 6 0 3 1;
#X restore 303 265 pd uzi_sjf;
#N canvas 468 300 450 300 uzi_sjf 0;
#X obj 155 29 inlet;
#X obj 155 53 t f b;
#X obj 155 77 until;
#X obj 155 101 +, f 11;
#X obj 269 112 int;
#X obj 269 136 + 1;
#X msg 219 74 0;
#X obj 143 155 outlet;
#X connect 0 0 1 0;
#X connect 1 0 2 0;
#X connect 1 1 6 0;
#X connect 2 0 3 0;
#X connect 3 0 4 0;
#X connect 3 0 7 0;
#X connect 4 0 5 0;
#X connect 5 0 3 1;
#X connect 6 0 3 1;
#X restore 459 263 pd uzi_sjf;
#N canvas 468 300 450 300 uzi_sjf 0;
#X obj 155 29 inlet;
#X obj 155 53 t f b;
#X obj 155 77 until;
#X obj 155 101 +, f 11;
#X obj 269 112 int;
#X obj 269 136 + 1;
#X msg 219 74 0;
#X obj 143 155 outlet;
#X connect 0 0 1 0;
#X connect 1 0 2 0;
#X connect 1 1 6 0;
#X connect 2 0 3 0;
#X connect 3 0 4 0;
#X connect 3 0 7 0;
#X connect 4 0 5 0;
#X connect 5 0 3 1;
#X connect 6 0 3 1;
#X restore 583 258 pd uzi_sjf;
#N canvas 468 300 450 300 uzi_sjf 0;
#X obj 155 29 inlet;
#X obj 155 53 t f b;
#X obj 155 77 until;
#X obj 155 101 +, f 11;
#X obj 269 112 int;
#X obj 269 136 + 1;
#X msg 219 74 0;
#X obj 143 155 outlet;
#X connect 0 0 1 0;
#X connect 1 0 2 0;
#X connect 1 1 6 0;
#X connect 2 0 3 0;
#X connect 3 0 4 0;
#X connect 3 0 7 0;
#X connect 4 0 5 0;
#X connect 5 0 3 1;
#X connect 6 0 3 1;
#X restore 699 261 pd uzi_sjf;
#N canvas 468 300 450 300 uzi_sjf 0;
#X obj 155 29 inlet;
#X obj 155 53 t f b;
#X obj 155 77 until;
#X obj 155 101 +, f 11;
#X obj 269 112 int;
#X obj 269 136 + 1;
#X msg 219 74 0;
#X obj 143 155 outlet;
#X connect 0 0 1 0;
#X connect 1 0 2 0;
#X connect 1 1 6 0;
#X connect 2 0 3 0;
#X connect 3 0 4 0;
#X connect 3 0 7 0;
#X connect 4 0 5 0;
#X connect 5 0 3 1;
#X connect 6 0 3 1;
#X restore 831 259 pd uzi_sjf;
#X msg 164 217 100;
#X msg 305 218 100;
#X msg 418 216 100;
#X msg 540 216 100;
#X msg 694 215 100;
#X msg 837 217 100;
#X obj 687 34 bng 15 250 50 0 empty empty empty 17 7 0 10 #fcfcfc #000000
#000000;
#X obj 491 376 tabwrite \$0-rate;
#X obj 33 112 f \$0;
#X obj 34 135 pack 0 0, f 10;
#X msg 33 169 \; \$1-rate const \$2;
#X obj 171 153 int 100;
#X obj 248 95 bng 15 250 50 0 empty empty empty 17 7 0 10 #fcfcfc #000000
#000000;
#X obj 1047 142 hsl 60 10 0 1 0 1 \$0-const_snd1 \$0-const_rec1 const
-2 -8 0 10 #fcfcfc #000000 #000000 31 1;
#X obj 1045 81 bng 10 250 50 0 \$0-rmpUp_snd \$0-rmpUp_rec up 12 5
0 10 #fcfcfc #000000 #000000;
#X obj 1045 93 bng 10 250 50 0 \$0-rmpDwn_snd \$0-rmpDwn_rec dwn 12
5 0 10 #fcfcfc #000000 #000000;
#X obj 1045 105 bng 10 250 50 0 \$0-rmpUD_snd \$0-rmpUD_rec UD 12 5
0 10 #fcfcfc #000000 #000000;
#X obj 1045 117 bng 10 250 50 0 \$0-rmpDU_snd \$0-rmpDU_rec DU 12 5
0 10 #fcfcfc #000000 #000000;
#X obj 1086 81 bng 10 250 50 0 \$0-sin_snd \$0-sin_rec sin 12 5 0 10
#fcfcfc #000000 #000000;
#X obj 1086 93 bng 10 250 50 0 \$0-sinm_snd \$0-sinm_rec sinm 12 5
0 10 #fcfcfc #000000 #000000;
#X obj 1204 82 hsl 60 10 0 1 0 1 \$0-offset_snd \$0-offset_rec offset
-2 -8 0 10 #fcfcfc #000000 #000000 5699 1;
#X obj 1271 82 hsl 60 10 0 1 0 1 \$0-range_snd \$0-range_rec range
-2 -8 0 10 #fcfcfc #000000 #000000 3757 1;
#X obj 685 4 inlet;
#X obj 171 132 r \$0-rmpUp_snd1;
#X obj 305 155 r \$0-rmpDwn_snd1;
#X obj 418 153 r \$0-rmpUD_snd1;
#X obj 540 153 r \$0-rmpDU_snd1;
#X obj 694 151 r \$0-sin_snd1;
#X obj 837 154 r \$0-sinm_snd1;
#X obj 33 63 r \$0-const_snd1;
#X connect 0 0 40 0;
#X connect 0 1 41 1;
#X connect 1 0 32 0;
#X connect 1 1 2 0;
#X connect 2 0 26 0;
#X connect 2 1 15 1;
#X connect 3 0 4 0;
#X connect 4 0 33 0;
#X connect 4 1 7 0;
#X connect 5 0 6 0;
#X connect 6 0 34 0;
#X connect 6 1 8 0;
#X connect 7 0 27 0;
#X connect 7 1 9 1;
#X connect 8 0 28 0;
#X connect 8 1 10 1;
#X connect 9 0 39 0;
#X connect 10 0 39 0;
#X connect 11 0 12 0;
#X connect 12 0 35 0;
#X connect 12 1 13 0;
#X connect 13 0 29 0;
#X connect 13 1 14 1;
#X connect 14 0 39 0;
#X connect 15 0 39 0;
#X connect 16 0 17 0;
#X connect 17 0 36 0;
#X connect 17 1 18 0;
#X connect 18 0 30 0;
#X connect 18 1 19 1;
#X connect 19 0 39 0;
#X connect 20 0 21 0;
#X connect 21 0 37 0;
#X connect 21 1 22 0;
#X connect 22 0 31 0;
#X connect 22 1 23 1;
#X connect 23 0 39 0;
#X connect 26 0 15 0;
#X connect 27 0 9 0;
#X connect 28 0 10 0;
#X connect 29 0 14 0;
#X connect 30 0 19 0;
#X connect 31 0 23 0;
#X connect 32 0 2 0;
#X connect 33 0 7 0;
#X connect 34 0 8 0;
#X connect 35 0 13 0;
#X connect 36 0 18 0;
#X connect 37 0 22 0;
#X connect 38 0 24 0;
#X connect 40 0 41 0;
#X connect 41 0 42 0;
#X connect 43 0 1 0;
#X connect 44 0 43 0;
#X connect 54 0 38 0;
#X connect 55 0 43 0;
#X connect 56 0 3 0;
#X connect 57 0 5 0;
#X connect 58 0 11 0;
#X connect 59 0 16 0;
#X connect 60 0 20 0;
#X connect 61 0 0 0;
#X restore 1056 121 pd randRate;
#N canvas 1450 -110 1517 490 randDepth 0;
#X obj 33 89 t b f, f 10;
#X obj 33 63 r \$0-const_snd;
#X obj 171 132 r \$0-rmpUp_snd;
#X obj 171 174 sel 0, f 11;
#X obj 194 241 t f f, f 9;
#X obj 305 176 int \$2;
#X obj 305 197 sel 0, f 11;
#X obj 305 155 r \$0-rmpDwn_snd;
#X obj 418 174 int \$2;
#X obj 418 195 sel 0, f 11;
#X obj 418 153 r \$0-rmpUD_snd;
#X obj 305 239 t f f, f 7;
#X obj 460 239 t f f, f 7;
#N canvas 0 23 450 341 rmpDwn 0;
#X obj 121 16 inlet;
#X obj 143 191 /, f 5;
#X obj 103 109 f;
#X obj 103 158 -, f 8;
#X obj 148 87 t f f;
#X obj 186 52 t f f;
#X obj 143 287 pack, f 18;
#X obj 143 308 outlet;
#X obj 121 38 t b f;
#X obj 195 24 inlet;
#X obj 147 126 %;
#X floatatom 220 81 5 0 0 0 - - - 0;
#X obj 155 220 *;
#X obj 155 241 +;
#X obj 155 262 clip 0 1;
#X obj 203 211 r \$0-offset_snd;
#X obj 182 194 r \$0-range_snd;
#X connect 0 0 8 0;
#X connect 1 0 12 0;
#X connect 2 0 3 0;
#X connect 3 0 1 0;
#X connect 4 0 10 0;
#X connect 4 1 6 1;
#X connect 5 0 2 1;
#X connect 5 1 1 1;
#X connect 5 1 10 1;
#X connect 5 1 11 0;
#X connect 6 0 7 0;
#X connect 8 0 2 0;
#X connect 8 1 4 0;
#X connect 9 0 5 0;
#X connect 10 0 3 1;
#X connect 12 0 13 0;
#X connect 13 0 14 0;
#X connect 14 0 6 0;
#X connect 15 0 13 1;
#X connect 16 0 12 1;
#X restore 348 286 pd rmpDwn;
#N canvas 0 23 450 300 updwn 0;
#X obj 95 16 inlet;
#X obj 194 17 inlet;
#X obj 95 136 route 0 1, f 10;
#X obj 194 39 / 2;
#X obj 95 87 >;
#X obj 95 108 pack;
#X obj 95 45 t f f;
#X obj 97 208 outlet;
#N canvas 0 23 450 341 rmpDwn 0;
#X obj 121 16 inlet;
#X obj 143 191 /, f 5;
#X obj 103 109 f;
#X obj 103 158 -, f 8;
#X obj 148 87 t f f;
#X obj 186 52 t f f;
#X obj 143 287 pack, f 18;
#X obj 143 308 outlet;
#X obj 121 38 t b f;
#X obj 195 24 inlet;
#X obj 147 126 %;
#X floatatom 220 81 5 0 0 0 - - - 0;
#X obj 155 220 *;
#X obj 155 241 +;
#X obj 155 262 clip 0 1;
#X obj 203 211 r \$0-offset_snd;
#X obj 182 194 r \$0-range_snd;
#X connect 0 0 8 0;
#X connect 1 0 12 0;
#X connect 2 0 3 0;
#X connect 3 0 1 0;
#X connect 4 0 10 0;
#X connect 4 1 6 1;
#X connect 5 0 2 1;
#X connect 5 1 1 1;
#X connect 5 1 10 1;
#X connect 5 1 11 0;
#X connect 6 0 7 0;
#X connect 8 0 2 0;
#X connect 8 1 4 0;
#X connect 9 0 5 0;
#X connect 10 0 3 1;
#X connect 12 0 13 0;
#X connect 13 0 14 0;
#X connect 14 0 6 0;
#X connect 15 0 13 1;
#X connect 16 0 12 1;
#X restore 209 164 pd rmpDwn;
#N canvas 0 23 450 300 RampUp 0;
#X obj 116 17 inlet;
#X obj 116 130 /, f 17;
#X obj 116 40 t f f, f 12;
#X obj 116 244 pack, f 35;
#X obj 116 265 outlet;
#X obj 219 19 inlet;
#X obj 116 61 %;
#X obj 116 175 *;
#X obj 116 196 +;
#X obj 116 217 clip 0 1;
#X obj 164 166 r \$0-offset_snd;
#X obj 143 149 r \$0-range_snd;
#X connect 0 0 2 0;
#X connect 1 0 7 0;
#X connect 2 0 6 0;
#X connect 2 1 3 1;
#X connect 3 0 4 0;
#X connect 5 0 1 1;
#X connect 5 0 6 1;
#X connect 6 0 1 0;
#X connect 7 0 8 0;
#X connect 8 0 9 0;
#X connect 9 0 3 0;
#X connect 10 0 8 1;
#X connect 11 0 7 1;
#X restore 96 166 pd RampUp;
#X f 12;
#X connect 0 0 6 0;
#X connect 1 0 3 0;
#X connect 2 0 9 0;
#X connect 2 1 8 0;
#X connect 3 0 4 1;
#X connect 3 0 9 1;
#X connect 3 0 8 1;
#X connect 4 0 5 0;
#X connect 5 0 2 0;
#X connect 6 0 4 0;
#X connect 6 1 5 1;
#X connect 8 0 7 0;
#X connect 9 0 7 0;
#X restore 501 286 pd updwn;
#X obj 540 174 int \$2;
#X obj 540 195 sel 0, f 11;
#X obj 582 234 t f f, f 8;
#X obj 540 153 r \$0-rmpDU_snd;
#N canvas 0 23 450 300 downUp 0;
#X obj 95 16 inlet;
#X obj 194 17 inlet;
#X obj 95 136 route 0 1, f 10;
#X obj 194 39 / 2;
#X obj 95 87 >;
#X obj 95 108 pack;
#X obj 95 45 t f f;
#X obj 111 235 outlet;
#N canvas 0 23 450 341 rmpDwn 0;
#X obj 121 16 inlet;
#X obj 143 191 /, f 5;
#X obj 103 109 f;
#X obj 103 158 -, f 8;
#X obj 148 87 t f f;
#X obj 186 52 t f f;
#X obj 143 287 pack, f 18;
#X obj 143 308 outlet;
#X obj 121 38 t b f;
#X obj 195 24 inlet;
#X obj 147 126 %;
#X floatatom 220 81 5 0 0 0 - - - 0;
#X obj 155 220 *;
#X obj 155 241 +;
#X obj 155 262 clip 0 1;
#X obj 203 211 r \$0-offset_snd;
#X obj 182 194 r \$0-range_snd;
#X connect 0 0 8 0;
#X connect 1 0 12 0;
#X connect 2 0 3 0;
#X connect 3 0 1 0;
#X connect 4 0 10 0;
#X connect 4 1 6 1;
#X connect 5 0 2 1;
#X connect 5 1 1 1;
#X connect 5 1 10 1;
#X connect 5 1 11 0;
#X connect 6 0 7 0;
#X connect 8 0 2 0;
#X connect 8 1 4 0;
#X connect 9 0 5 0;
#X connect 10 0 3 1;
#X connect 12 0 13 0;
#X connect 13 0 14 0;
#X connect 14 0 6 0;
#X connect 15 0 13 1;
#X connect 16 0 12 1;
#X restore 90 181 pd rmpDwn;
#X f 12;
#N canvas 0 23 450 300 RampUp 0;
#X obj 116 17 inlet;
#X obj 116 130 /, f 17;
#X obj 116 40 t f f, f 12;
#X obj 116 244 pack, f 35;
#X obj 116 265 outlet;
#X obj 219 19 inlet;
#X obj 116 61 %;
#X obj 116 175 *;
#X obj 116 196 +;
#X obj 116 217 clip 0 1;
#X obj 164 166 r \$0-offset_snd;
#X obj 143 149 r \$0-range_snd;
#X connect 0 0 2 0;
#X connect 1 0 7 0;
#X connect 2 0 6 0;
#X connect 2 1 3 1;
#X connect 3 0 4 0;
#X connect 5 0 1 1;
#X connect 5 0 6 1;
#X connect 6 0 1 0;
#X connect 7 0 8 0;
#X connect 8 0 9 0;
#X connect 9 0 3 0;
#X connect 10 0 8 1;
#X connect 11 0 7 1;
#X restore 187 185 pd RampUp;
#X connect 0 0 6 0;
#X connect 1 0 3 0;
#X connect 2 0 8 0;
#X connect 2 1 9 0;
#X connect 3 0 4 1;
#X connect 3 0 8 1;
#X connect 3 0 9 1;
#X connect 4 0 5 0;
#X connect 5 0 2 0;
#X connect 6 0 4 0;
#X connect 6 1 5 1;
#X connect 8 0 7 0;
#X connect 9 0 7 0;
#X restore 623 281 pd downUp;
#N canvas 0 23 450 300 RampUp 0;
#X obj 116 17 inlet;
#X obj 116 130 /, f 17;
#X obj 116 40 t f f, f 12;
#X obj 116 244 pack, f 35;
#X obj 116 265 outlet;
#X obj 219 19 inlet;
#X obj 116 61 %;
#X obj 116 175 *;
#X obj 116 196 +;
#X obj 116 217 clip 0 1;
#X obj 164 166 r \$0-offset_snd;
#X obj 143 149 r \$0-range_snd;
#X connect 0 0 2 0;
#X connect 1 0 7 0;
#X connect 2 0 6 0;
#X connect 2 1 3 1;
#X connect 3 0 4 0;
#X connect 5 0 1 1;
#X connect 5 0 6 1;
#X connect 6 0 1 0;
#X connect 7 0 8 0;
#X connect 8 0 9 0;
#X connect 9 0 3 0;
#X connect 10 0 8 1;
#X connect 11 0 7 1;
#X restore 217 314 pd RampUp;
#X obj 694 173 int \$2;
#X obj 694 194 sel 0, f 11;
#X obj 694 235 t f f, f 7;
#X obj 694 152 r \$0-sin_snd;
#N canvas 0 23 335 408 sin 0;
#X obj 56 22 inlet;
#X obj 56 135 /, f 17;
#X obj 56 45 t f f, f 12;
#X obj 56 305 pack, f 33;
#X obj 56 326 outlet;
#X obj 159 24 inlet;
#X obj 56 66 %;
#X obj 56 156 expr sin(2 * 3.14159 * $f1);
#X obj 56 177 * 0.5;
#X obj 56 198 + 0.5;
#X obj 56 239 *;
#X obj 56 260 +, f 6;
#X obj 56 281 clip 0 1;
#X obj 116 230 r \$0-offset_snd;
#X obj 95 213 r \$0-range_snd;
#X connect 0 0 2 0;
#X connect 1 0 7 0;
#X connect 2 0 6 0;
#X connect 2 1 3 1;
#X connect 3 0 4 0;
#X connect 5 0 6 1;
#X connect 5 0 1 1;
#X connect 6 0 1 0;
#X connect 7 0 8 0;
#X connect 8 0 9 0;
#X connect 9 0 10 0;
#X connect 10 0 11 0;
#X connect 11 0 12 0;
#X connect 12 0 3 0;
#X connect 13 0 11 1;
#X connect 14 0 10 1;
#X restore 735 282 pd sin;
#X obj 837 175 int \$2;
#X obj 837 196 sel 0, f 11;
#X obj 837 235 t f f, f 8;
#X obj 837 154 r \$0-sinm_snd;
#N canvas 0 23 338 406 sinm 0;
#X obj 56 22 inlet;
#X obj 56 135 /, f 17;
#X obj 56 45 t f f, f 12;
#X obj 52 357 pack, f 33;
#X obj 52 378 outlet;
#X obj 159 24 inlet;
#X obj 56 66 %;
#X obj 56 177 * 0.5;
#X obj 56 198 + 0.5;
#X obj 56 156 expr -1*sin(2 * 3.14159 * $f1);
#X obj 61 259 *;
#X obj 61 280 +;
#X obj 61 301 clip 0 1;
#X obj 109 250 r \$0-offset_snd;
#X obj 88 233 r \$0-range_snd;
#X connect 0 0 2 0;
#X connect 1 0 9 0;
#X connect 2 0 6 0;
#X connect 2 1 3 1;
#X connect 3 0 4 0;
#X connect 5 0 6 1;
#X connect 5 0 1 1;
#X connect 6 0 1 0;
#X connect 7 0 8 0;
#X connect 8 0 10 0;
#X connect 9 0 7 0;
#X connect 10 0 11 0;
#X connect 11 0 12 0;
#X connect 12 0 3 0;
#X connect 13 0 11 1;
#X connect 14 0 10 1;
#X restore 878 282 pd sinm;
#N canvas 1676 -471 1053 300 random_load 0;
#X obj 169 6 inlet;
#X obj 104 59 random 7;
#X obj 169 99 sel 0 1 2 3 4 5 6, f 25;
#X obj 544 156 random 10000;
#X obj 544 177 / 10000;
#X obj 597 221 s \$0-const_rec;
#X obj 10 198 s \$0-rmpUp_snd;
#X obj 100 197 s \$0-rmpDwn_snd;
#X obj 197 197 s \$0-rmpUD_snd;
#X obj 286 196 s \$0-rmpDU_snd;
#X obj 376 200 s \$0-sin_snd;
#X obj 456 200 s \$0-sinm_snd;
#X obj 169 27 t b b, f 53;
#X obj 537 61 random 10000;
#X obj 537 82 / 10000;
#X obj 428 59 random 10000;
#X obj 428 80 / 10000;
#X obj 452 123 s \$0-offset_rec;
#X obj 560 123 s \$0-range_rec;
#X floatatom 104 83 5 0 0 0 - - - 0;
#X floatatom 428 104 5 0 0 0 - - - 0;
#X floatatom 537 106 5 0 0 0 - - - 0;
#X floatatom 544 201 5 0 0 0 - - - 0;
#X connect 0 0 12 0;
#X connect 1 0 2 0;
#X connect 1 0 19 0;
#X connect 2 0 6 0;
#X connect 2 1 7 0;
#X connect 2 2 8 0;
#X connect 2 3 9 0;
#X connect 2 4 10 0;
#X connect 2 5 11 0;
#X connect 2 6 3 0;
#X connect 3 0 4 0;
#X connect 4 0 5 0;
#X connect 4 0 22 0;
#X connect 12 0 1 0;
#X connect 12 1 13 0;
#X connect 12 1 15 0;
#X connect 13 0 14 0;
#X connect 14 0 18 0;
#X connect 14 0 21 0;
#X connect 15 0 16 0;
#X connect 16 0 17 0;
#X connect 16 0 20 0;
#X restore 704 63 pd random_load;
#X text 813 357 sjf \, SAE London 2020;
#N canvas 468 300 450 300 uzi_sjf 0;
#X obj 155 29 inlet;
#X obj 155 53 t f b;
#X obj 155 77 until;
#X obj 155 101 +, f 11;
#X obj 269 112 int;
#X obj 269 136 + 1;
#X msg 219 74 0;
#X obj 143 155 outlet;
#X msg 51 11 100;
#X connect 0 0 1 0;
#X connect 1 0 2 0;
#X connect 1 1 6 0;
#X connect 2 0 3 0;
#X connect 3 0 4 0;
#X connect 3 0 7 0;
#X connect 4 0 5 0;
#X connect 5 0 3 1;
#X connect 6 0 3 1;
#X connect 8 0 1 0;
#X restore 193 275 pd uzi_sjf;
#N canvas 468 300 450 300 uzi_sjf 0;
#X obj 155 29 inlet;
#X obj 155 53 t f b;
#X obj 155 77 until;
#X obj 155 101 +, f 11;
#X obj 269 112 int;
#X obj 269 136 + 1;
#X msg 219 74 0;
#X obj 143 155 outlet;
#X connect 0 0 1 0;
#X connect 1 0 2 0;
#X connect 1 1 6 0;
#X connect 2 0 3 0;
#X connect 3 0 4 0;
#X connect 3 0 7 0;
#X connect 4 0 5 0;
#X connect 5 0 3 1;
#X connect 6 0 3 1;
#X restore 303 265 pd uzi_sjf;
#N canvas 468 300 450 300 uzi_sjf 0;
#X obj 155 29 inlet;
#X obj 155 53 t f b;
#X obj 155 77 until;
#X obj 155 101 +, f 11;
#X obj 269 112 int;
#X obj 269 136 + 1;
#X msg 219 74 0;
#X obj 143 155 outlet;
#X connect 0 0 1 0;
#X connect 1 0 2 0;
#X connect 1 1 6 0;
#X connect 2 0 3 0;
#X connect 3 0 4 0;
#X connect 3 0 7 0;
#X connect 4 0 5 0;
#X connect 5 0 3 1;
#X connect 6 0 3 1;
#X restore 459 263 pd uzi_sjf;
#N canvas 468 300 450 300 uzi_sjf 0;
#X obj 155 29 inlet;
#X obj 155 53 t f b;
#X obj 155 77 until;
#X obj 155 101 +, f 11;
#X obj 269 112 int;
#X obj 269 136 + 1;
#X msg 219 74 0;
#X obj 143 155 outlet;
#X connect 0 0 1 0;
#X connect 1 0 2 0;
#X connect 1 1 6 0;
#X connect 2 0 3 0;
#X connect 3 0 4 0;
#X connect 3 0 7 0;
#X connect 4 0 5 0;
#X connect 5 0 3 1;
#X connect 6 0 3 1;
#X restore 583 258 pd uzi_sjf;
#N canvas 468 300 450 300 uzi_sjf 0;
#X obj 155 29 inlet;
#X obj 155 53 t f b;
#X obj 155 77 until;
#X obj 155 101 +, f 11;
#X obj 269 112 int;
#X obj 269 136 + 1;
#X msg 219 74 0;
#X obj 143 155 outlet;
#X connect 0 0 1 0;
#X connect 1 0 2 0;
#X connect 1 1 6 0;
#X connect 2 0 3 0;
#X connect 3 0 4 0;
#X connect 3 0 7 0;
#X connect 4 0 5 0;
#X connect 5 0 3 1;
#X connect 6 0 3 1;
#X restore 699 261 pd uzi_sjf;
#N canvas 468 300 450 300 uzi_sjf 0;
#X obj 155 29 inlet;
#X obj 155 53 t f b;
#X obj 155 77 until;
#X obj 155 101 +, f 11;
#X obj 269 112 int;
#X obj 269 136 + 1;
#X msg 219 74 0;
#X obj 143 155 outlet;
#X connect 0 0 1 0;
#X connect 1 0 2 0;
#X connect 1 1 6 0;
#X connect 2 0 3 0;
#X connect 3 0 4 0;
#X connect 3 0 7 0;
#X connect 4 0 5 0;
#X connect 5 0 3 1;
#X connect 6 0 3 1;
#X restore 831 259 pd uzi_sjf;
#X msg 164 217 100;
#X msg 305 218 100;
#X msg 418 216 100;
#X msg 540 216 100;
#X msg 694 215 100;
#X msg 837 217 100;
#X obj 687 34 bng 15 250 50 0 empty empty empty 17 7 0 10 #fcfcfc #000000
#000000;
#X obj 33 112 f \$0;
#X obj 34 135 pack 0 0, f 10;
#X msg 33 169 \; \$1-rate const \$2;
#X obj 171 153 int 100;
#X obj 248 95 bng 15 250 50 0 empty empty empty 17 7 0 10 #fcfcfc #000000
#000000;
#X obj 1047 142 hsl 60 10 0 1 0 1 \$0-const_snd \$0-const_rec const
-2 -8 0 10 #fcfcfc #000000 #000000 1575 1;
#X obj 1045 81 bng 10 250 50 0 \$0-rmpUp_snd \$0-rmpUp_rec up 12 5
0 10 #fcfcfc #000000 #000000;
#X obj 1045 93 bng 10 250 50 0 \$0-rmpDwn_snd \$0-rmpDwn_rec dwn 12
5 0 10 #fcfcfc #000000 #000000;
#X obj 1045 105 bng 10 250 50 0 \$0-rmpUD_snd \$0-rmpUD_rec UD 12 5
0 10 #fcfcfc #000000 #000000;
#X obj 1045 117 bng 10 250 50 0 \$0-rmpDU_snd \$0-rmpDU_rec DU 12 5
0 10 #fcfcfc #000000 #000000;
#X obj 1086 81 bng 10 250 50 0 \$0-sin_snd \$0-sin_rec sin 12 5 0 10
#fcfcfc #000000 #000000;
#X obj 1086 93 bng 10 250 50 0 \$0-sinm_snd \$0-sinm_rec sinm 12 5
0 10 #fcfcfc #000000 #000000;
#X obj 1204 82 hsl 60 10 0 1 0 1 \$0-offset_snd \$0-offset_rec offset
-2 -8 0 10 #fcfcfc #000000 #000000 5699 1;
#X obj 1271 82 hsl 60 10 0 1 0 1 \$0-range_snd \$0-range_rec range
-2 -8 0 10 #fcfcfc #000000 #000000 3757 1;
#X obj 685 4 inlet;
#X obj 491 376 tabwrite \$0-depth;
#X connect 0 0 46 0;
#X connect 0 1 47 1;
#X connect 1 0 0 0;
#X connect 2 0 49 0;
#X connect 3 0 39 0;
#X connect 3 1 4 0;
#X connect 4 0 33 0;
#X connect 4 1 20 1;
#X connect 5 0 6 0;
#X connect 6 0 40 0;
#X connect 6 1 11 0;
#X connect 7 0 5 0;
#X connect 8 0 9 0;
#X connect 9 0 41 0;
#X connect 9 1 12 0;
#X connect 10 0 8 0;
#X connect 11 0 34 0;
#X connect 11 1 13 1;
#X connect 12 0 35 0;
#X connect 12 1 14 1;
#X connect 13 0 61 0;
#X connect 14 0 61 0;
#X connect 15 0 16 0;
#X connect 16 0 42 0;
#X connect 16 1 17 0;
#X connect 17 0 36 0;
#X connect 17 1 19 1;
#X connect 18 0 15 0;
#X connect 19 0 61 0;
#X connect 20 0 61 0;
#X connect 21 0 22 0;
#X connect 22 0 43 0;
#X connect 22 1 23 0;
#X connect 23 0 37 0;
#X connect 23 1 25 1;
#X connect 24 0 21 0;
#X connect 25 0 61 0;
#X connect 26 0 27 0;
#X connect 27 0 44 0;
#X connect 27 1 28 0;
#X connect 28 0 38 0;
#X connect 28 1 30 1;
#X connect 29 0 26 0;
#X connect 30 0 61 0;
#X connect 33 0 20 0;
#X connect 34 0 13 0;
#X connect 35 0 14 0;
#X connect 36 0 19 0;
#X connect 37 0 25 0;
#X connect 38 0 30 0;
#X connect 39 0 4 0;
#X connect 40 0 11 0;
#X connect 41 0 12 0;
#X connect 42 0 17 0;
#X connect 43 0 23 0;
#X connect 44 0 28 0;
#X connect 45 0 31 0;
#X connect 46 0 47 0;
#X connect 47 0 48 0;
#X connect 49 0 3 0;
#X connect 50 0 49 0;
#X connect 60 0 45 0;
#X restore 1152 125 pd randDepth;
#X obj 510 55 bng 15 250 50 0 \$0-rand2 empty rand 17 7 0 10 #fcfcfc
#000000 #000000;
#X obj 512 5 inlet;
#X obj 873 13 r \$0-rand2;
#X obj 477 89 r \$0-rand2;
#X obj 359 306 pack 0 5;
#X obj 358 345 line~;
#X obj 562 322 pack 0 5;
#X obj 561 372 line~;
#X obj 33 106 pack 0 5;
#X obj 18 311 line~;
#X connect 0 0 1 1;
#X connect 0 1 16 0;
#X connect 1 0 34 0;
#X connect 2 0 1 0;
#X connect 3 0 0 0;
#X connect 3 0 17 0;
#X connect 3 0 22 0;
#X connect 4 0 8 1;
#X connect 5 0 61 0;
#X connect 6 0 20 0;
#X connect 7 0 19 0;
#X connect 8 0 10 0;
#X connect 9 0 2 0;
#X connect 10 0 9 1;
#X connect 11 0 4 0;
#X connect 12 0 11 1;
#X connect 13 0 10 1;
#X connect 17 0 13 1;
#X connect 18 0 57 0;
#X connect 21 0 59 0;
#X connect 22 0 12 1;
#X connect 23 0 24 0;
#X connect 24 0 25 0;
#X connect 24 1 26 0;
#X connect 25 0 5 0;
#X connect 26 0 27 0;
#X connect 27 0 0 0;
#X connect 27 1 17 0;
#X connect 27 1 22 0;
#X connect 30 0 31 0;
#X connect 31 0 32 0;
#X connect 32 0 33 0;
#X connect 33 0 34 1;
#X connect 34 0 28 0;
#X connect 35 0 36 0;
#X connect 36 0 46 0;
#X connect 36 0 47 0;
#X connect 37 0 38 0;
#X connect 38 0 39 0;
#X connect 40 0 41 0;
#X connect 41 0 42 0;
#X connect 44 0 43 0;
#X connect 45 0 49 0;
#X connect 45 0 50 0;
#X connect 45 0 51 0;
#X connect 45 0 52 0;
#X connect 48 0 0 1;
#X connect 49 0 47 0;
#X connect 50 0 46 0;
#X connect 54 0 53 0;
#X connect 55 0 49 0;
#X connect 55 0 50 0;
#X connect 56 0 0 1;
#X connect 57 0 58 0;
#X connect 58 0 12 0;
#X connect 59 0 60 0;
#X connect 60 0 13 0;
#X connect 61 0 62 0;
#X connect 62 0 11 0;
#X connect 62 0 8 0;
#X connect 62 0 9 0;
#X coords 0 -1 1 1 450 150 1 10 50;
