#N canvas 0 23 1920 1035 12;
#X text 200 32 FM Synthesis \; Frequency Modulation \;;
#X obj 129 322 osc~;
#X text 168 320 Carrier;
#X floatatom 43 79 5 0 0 1 Carrier\ Freq - - 0;
#X obj 43 101 pack 0 5;
#X obj 43 124 line~;
#X floatatom 373 81 5 0 0 1 Modulation\ Depth - - 0;
#X obj 373 103 pack 0 5;
#X obj 373 126 line~;
#X obj 129 287 +~;
#X floatatom 209 81 5 0 0 1 Modulation\ Rate - - 0;
#X obj 209 103 pack 0 5;
#X obj 209 126 line~;
#N canvas 0 130 902 661 modulator 0;
#X obj 89 94 osc~;
#X text 129 91 Modulator;
#X text 96 111 -1 <--> 1;
#X obj 71 132 *~;
#X text 79 149 -CarrierF <--> CarrierF;
#X obj 71 180 *~, f 32;
#X obj 89 71 *~;
#X obj 28 34 inlet~;
#X text 27 16 carrier freq;
#X obj 179 30 inlet~;
#X text 173 6 mod rate;
#X obj 324 34 inlet~;
#X text 318 10 mod depth;
#X obj 71 203 outlet~;
#X connect 0 0 3 1;
#X connect 3 0 5 0;
#X connect 5 0 13 0;
#X connect 6 0 0 0;
#X connect 7 0 3 0;
#X connect 7 0 6 0;
#X connect 9 0 6 1;
#X connect 11 0 5 1;
#X restore 147 208 pd modulator;
#N canvas 8 23 893 805 ADSR 0;
#X obj 112 27 vsl 15 128 1 20000 1 0 empty empty A 0 -9 0 10 #fcfcfc
#000000 #000000 0 1;
#X obj 127 27 vsl 15 128 1 20000 1 0 empty empty D 0 -9 0 10 #fcfcfc
#000000 #000000 0 1;
#X obj 142 27 vsl 15 128 0 1 0 0 empty empty S 0 -9 0 10 #fcfcfc #000000
#000000 0 1;
#X obj 157 27 vsl 15 128 1 20000 1 0 empty empty R 0 -9 0 10 #fcfcfc
#000000 #000000 0 1;
#X obj 16 21 bng 15 250 50 0 empty empty Play\\\ Sound 17 7 0 10 #fcfcfc
#000000 #000000;
#X obj 129 343 outlet~;
#X obj 129 320 vline~;
#X msg 131 275 1 \$1 \, \$3 \$2 \$1 \, 0 \$4 \$5;
#X text 335 224 \$1 Att \; \$2 Dec: \$3 Sus \; \$4 Rel \; \$5 Att +
Dec;
#X obj 131 245 pack 0 0 0 0 0;
#X obj 233 204 +;
#X obj 233 179 t b f;
#X obj 81 179 f;
#X obj 16 -9 inlet;
#X connect 0 0 10 0;
#X connect 0 0 12 1;
#X connect 1 0 11 0;
#X connect 1 0 9 1;
#X connect 2 0 9 2;
#X connect 3 0 9 3;
#X connect 4 0 12 0;
#X connect 6 0 5 0;
#X connect 7 0 6 0;
#X connect 9 0 7 0;
#X connect 10 0 9 4;
#X connect 11 0 10 0;
#X connect 11 1 10 1;
#X connect 12 0 9 0;
#X connect 13 0 4 0;
#X coords 0 -1 1 1 200 150 1 10 10;
#X restore 301 282 pd ADSR;
#X obj 129 389 *~, f 12;
#X obj 373 149 *~;
#X obj 537 89 bng 15 250 50 0 empty empty empty 17 7 0 10 #fcfcfc #000000
#000000;
#X obj 200 158 *~;
#N canvas 8 23 893 805 ADSR 0;
#X obj 112 27 vsl 15 128 1 20000 1 0 empty empty A 0 -9 0 10 #fcfcfc
#000000 #000000 0 1;
#X obj 127 27 vsl 15 128 1 20000 1 0 empty empty D 0 -9 0 10 #fcfcfc
#000000 #000000 0 1;
#X obj 142 27 vsl 15 128 0 1 0 0 empty empty S 0 -9 0 10 #fcfcfc #000000
#000000 0 1;
#X obj 157 27 vsl 15 128 1 20000 1 0 empty empty R 0 -9 0 10 #fcfcfc
#000000 #000000 0 1;
#X obj 16 21 bng 15 250 50 0 empty empty Play\\\ Sound 17 7 0 10 #fcfcfc
#000000 #000000;
#X obj 129 343 outlet~;
#X obj 129 320 vline~;
#X msg 131 275 1 \$1 \, \$3 \$2 \$1 \, 0 \$4 \$5;
#X text 335 224 \$1 Att \; \$2 Dec: \$3 Sus \; \$4 Rel \; \$5 Att +
Dec;
#X obj 131 245 pack 0 0 0 0 0;
#X obj 233 204 +;
#X obj 233 179 t b f;
#X obj 81 179 f;
#X obj 16 -9 inlet;
#X connect 0 0 10 0;
#X connect 0 0 12 1;
#X connect 1 0 11 0;
#X connect 1 0 9 1;
#X connect 2 0 9 2;
#X connect 3 0 9 3;
#X connect 4 0 12 0;
#X connect 6 0 5 0;
#X connect 7 0 6 0;
#X connect 9 0 7 0;
#X connect 10 0 9 4;
#X connect 11 0 10 0;
#X connect 11 1 10 1;
#X connect 12 0 9 0;
#X connect 13 0 4 0;
#X coords 0 -1 1 1 200 150 1 10 10;
#X restore 517 120 pd ADSR;
#N canvas 8 23 893 805 ADSR 0;
#X obj 112 27 vsl 15 128 1 20000 1 0 empty empty A 0 -9 0 10 #fcfcfc
#000000 #000000 0 1;
#X obj 127 27 vsl 15 128 1 20000 1 0 empty empty D 0 -9 0 10 #fcfcfc
#000000 #000000 0 1;
#X obj 142 27 vsl 15 128 0 1 0 0 empty empty S 0 -9 0 10 #fcfcfc #000000
#000000 0 1;
#X obj 157 27 vsl 15 128 1 20000 1 0 empty empty R 0 -9 0 10 #fcfcfc
#000000 #000000 0 1;
#X obj 16 21 bng 15 250 50 0 empty empty Play\\\ Sound 17 7 0 10 #fcfcfc
#000000 #000000;
#X obj 129 343 outlet~;
#X obj 129 320 vline~;
#X msg 131 275 1 \$1 \, \$3 \$2 \$1 \, 0 \$4 \$5;
#X text 335 224 \$1 Att \; \$2 Dec: \$3 Sus \; \$4 Rel \; \$5 Att +
Dec;
#X obj 131 245 pack 0 0 0 0 0;
#X obj 233 204 +;
#X obj 233 179 t b f;
#X obj 81 179 f;
#X obj 16 -9 inlet;
#X connect 0 0 10 0;
#X connect 0 0 12 1;
#X connect 1 0 11 0;
#X connect 1 0 9 1;
#X connect 2 0 9 2;
#X connect 3 0 9 3;
#X connect 4 0 12 0;
#X connect 6 0 5 0;
#X connect 7 0 6 0;
#X connect 9 0 7 0;
#X connect 10 0 9 4;
#X connect 11 0 10 0;
#X connect 11 1 10 1;
#X connect 12 0 9 0;
#X connect 13 0 4 0;
#X coords 0 -1 1 1 200 150 1 10 10;
#X restore 534 283 pd ADSR;
#X obj 129 412 outlet~;
#X obj 41 5 inlet;
#X obj 219 60 inlet;
#X obj 385 59 inlet;
#X obj 41 28 t b f;
#X obj 1049 165 bng 15 250 50 0 empty empty empty 17 7 0 10 #fcfcfc
#000000 #000000;
#X obj 1049 185 f \$0;
#X obj 1118 188 f \$2;
#X floatatom 1049 209 5 0 0 0 - - - 0;
#X floatatom 1118 212 5 0 0 0 - - - 0;
#X connect 1 0 15 0;
#X connect 3 0 4 0;
#X connect 4 0 5 0;
#X connect 5 0 9 0;
#X connect 5 0 13 0;
#X connect 6 0 7 0;
#X connect 7 0 8 0;
#X connect 8 0 16 0;
#X connect 9 0 1 0;
#X connect 10 0 11 0;
#X connect 11 0 12 0;
#X connect 12 0 18 0;
#X connect 13 0 9 1;
#X connect 14 0 15 1;
#X connect 15 0 21 0;
#X connect 16 0 13 2;
#X connect 17 0 14 0;
#X connect 17 0 19 0;
#X connect 17 0 20 0;
#X connect 18 0 13 1;
#X connect 19 0 16 1;
#X connect 20 0 18 1;
#X connect 22 0 25 0;
#X connect 23 0 10 0;
#X connect 24 0 6 0;
#X connect 25 0 17 0;
#X connect 25 1 3 0;
#X connect 26 0 27 0;
#X connect 26 0 28 0;
#X connect 27 0 29 0;
#X connect 28 0 30 0;
