#N canvas 390 23 1050 851 12;
#X obj 259 74 until;
#X obj 323 98 + 1;
#X obj 259 4 bng 15 250 50 0 empty empty empty 17 7 0 10 #fcfcfc #000000
#000000;
#X obj 259 26 t b b, f 7;
#X obj 426 237 pack;
#X msg 426 261 \$2 \$1;
#X obj 426 285 route 0 1, f 22;
#X obj 426 309 / 2;
#X obj 451 215 < 2;
#X msg 259 50 32;
#X obj 326 181 t f f, f 28;
#X obj 259 338 pack, f 35;
#X obj 259 122 t f f, f 10;
#X obj 250 464 sigmund~;
#N canvas 0 22 450 278 (subpatch) 0;
#X array freq 16 float 3;
#A 0 1 1.0625 1.125 1.1875 1.25 1.3125 1.375 1.4375 1.5 1.5625 1.625
1.6875 1.75 1.8125 1.875 1.9375;
#X coords 0 2 16 1 200 140 1 0 0;
#X restore 664 93 graph;
#X obj 259 392 tabwrite freq;
#X obj 259 365 swap, f 13;
#X obj 259 150 % 16;
#X obj 259 98 + 0, f 7;
#X obj 196 366 print;
#X msg 305 74 16;
#X obj 326 151 - 16;
#X obj 626 456 tabread freq;
#X floatatom 626 430 5 0 0 0 - - - 0;
#X floatatom 626 480 13 0 0 0 - - - 0;
#X obj 626 528 until;
#X obj 673 559 + 1;
#X obj 626 616 *, f 13;
#X obj 626 640 wrap;
#X obj 626 576 t f f;
#X floatatom 554 623 5 0 0 0 - - - 0;
#X obj 626 664 == 0;
#X obj 626 688 sel 1;
#X obj 626 552 + 1;
#X obj 626 503 t b f b, f 25;
#X msg 790 535 1;
#X floatatom 556 670 5 0 0 0 - - - 0;
#X connect 0 0 18 0;
#X connect 1 0 18 1;
#X connect 2 0 3 0;
#X connect 3 0 9 0;
#X connect 3 1 20 0;
#X connect 4 0 5 0;
#X connect 5 0 6 0;
#X connect 6 0 7 0;
#X connect 6 1 11 1;
#X connect 7 0 10 0;
#X connect 8 0 4 1;
#X connect 9 0 0 0;
#X connect 10 0 4 0;
#X connect 10 1 8 0;
#X connect 11 0 16 0;
#X connect 11 0 19 0;
#X connect 12 0 17 0;
#X connect 12 1 21 0;
#X connect 16 0 15 0;
#X connect 16 1 15 1;
#X connect 17 0 11 0;
#X connect 18 0 1 0;
#X connect 18 0 12 0;
#X connect 20 0 18 1;
#X connect 21 0 10 0;
#X connect 22 0 24 0;
#X connect 23 0 22 0;
#X connect 24 0 34 0;
#X connect 25 0 33 0;
#X connect 26 0 33 1;
#X connect 27 0 28 0;
#X connect 27 0 36 0;
#X connect 28 0 31 0;
#X connect 29 0 27 0;
#X connect 29 1 30 0;
#X connect 31 0 32 0;
#X connect 32 0 25 1;
#X connect 33 0 26 0;
#X connect 33 0 29 0;
#X connect 34 0 25 0;
#X connect 34 1 27 1;
#X connect 34 2 35 0;
#X connect 35 0 33 1;
