#N canvas 278 327 613 300 12;
#X obj 238 12 inlet;
#X obj 153 86 vline~;
#X obj 154 123 *~, f 9;
#X obj 263 241 outlet~;
#X obj 210 89 noise~;
#X obj 308 84 vline~;
#X obj 351 186 *~, f 9;
#X obj 407 152 osc~;
#X msg 153 62 0.1 1 \, 0 5 1;
#X obj 430 97 *~ 25;
#X obj 430 121 +~ 15;
#X msg 307 60 4 1 \, 0.4 10 1 \, 0 200 11;
#X connect 0 0 8 0;
#X connect 0 0 11 0;
#X connect 1 0 2 0;
#X connect 2 0 3 0;
#X connect 4 0 2 1;
#X connect 5 0 6 0;
#X connect 5 0 9 0;
#X connect 6 0 3 0;
#X connect 7 0 6 1;
#X connect 8 0 1 0;
#X connect 9 0 10 0;
#X connect 10 0 7 0;
#X connect 11 0 5 0;
