#N canvas 455 23 985 855 12;
#X obj 578 498 noise~;
#X obj 633 707 / 127;
#X obj 633 731 pack 0 5;
#X obj 633 755 line~;
#X obj 578 791 *~, f 9;
#X msg 666 475 \$1 \$2 \, 0 \$3 \$2;
#X obj 666 449 pack 0 1 5, f 15;
#X obj 666 425 f 1;
#X obj 578 555 lop~ 20000, f 17;
#X obj 578 522 *~, f 13;
#X obj 666 500 vline~;
#X obj 271 567 vd~ \$0-kp;
#X obj 271 601 *~, f 19;
#X obj 271 435 pack 0 5;
#X obj 271 459 line~;
#X obj 401 551 pack 0 5;
#X obj 401 575 line~;
#X obj 401 527 / 127.1;
#X obj 271 628 lop~ 20000, f 23;
#X text 313 389 Period Determines pitch;
#X obj 271 315 mtof;
#X obj 271 362 expr 1000/$f1;
#X obj 271 501 *~;
#X obj 315 503 pack 0 5;
#X obj 315 527 line~;
#X obj 315 480 expr pow(2 \, -$f1/12);
#X obj 273 43 inlet;
#X obj 271 259 unpack 0 0;
#X obj 122 270 osc~;
#X obj 122 377 *~, f 7;
#X obj 168 325 pack 0 5;
#X obj 168 349 line~;
#X obj 122 450 expr~ pow(2 \, $v1/12), f 7;
#X obj 253 529 *~;
#X obj 122 402 *~;
#X obj 122 426 *~;
#X obj 666 380 / 127;
#X obj 451 225 inlet;
#X obj 122 247 r \$1-vibRate;
#X obj 168 271 r \$1-vibDepth, f 6;
#X obj 324 413 r \$1-slide;
#X obj 401 506 r \$1-sustain;
#X obj 717 380 r \$1-att;
#X obj 780 380 r \$1-rel;
#X obj 634 682 r \$1-vol;
#X obj 694 531 r \$1-attBright;
#X obj 578 822 outlet~;
#X obj 397 440 r \$1-bend;
#X obj 443 575 r \$1-brightness;
#X obj 498 691 delwrite~ \$0-kp 100, f 9;
#X obj 271 228 t l b, f 10;
#X msg 157 200 0.75;
#X obj 273 171 spigot;
#X msg 307 100 \$2;
#X obj 307 124 > 0;
#X obj 272 67 t l l;
#X connect 0 0 9 0;
#X connect 1 0 2 0;
#X connect 2 0 3 0;
#X connect 3 0 4 1;
#X connect 4 0 46 0;
#X connect 5 0 10 0;
#X connect 6 0 5 0;
#X connect 7 0 6 0;
#X connect 8 0 4 0;
#X connect 8 0 49 0;
#X connect 9 0 8 0;
#X connect 10 0 9 1;
#X connect 11 0 12 0;
#X connect 12 0 18 0;
#X connect 13 0 14 0;
#X connect 14 0 22 0;
#X connect 15 0 16 0;
#X connect 16 0 12 1;
#X connect 17 0 15 0;
#X connect 18 0 4 0;
#X connect 18 0 49 0;
#X connect 20 0 21 0;
#X connect 21 0 13 0;
#X connect 22 0 33 1;
#X connect 23 0 24 0;
#X connect 24 0 22 1;
#X connect 25 0 23 0;
#X connect 26 0 55 0;
#X connect 27 0 20 0;
#X connect 27 1 36 0;
#X connect 28 0 29 0;
#X connect 29 0 34 0;
#X connect 29 0 34 1;
#X connect 30 0 31 0;
#X connect 31 0 29 1;
#X connect 32 0 33 0;
#X connect 33 0 11 0;
#X connect 34 0 35 0;
#X connect 34 0 35 1;
#X connect 35 0 32 0;
#X connect 36 0 7 0;
#X connect 37 0 25 0;
#X connect 38 0 28 0;
#X connect 39 0 30 0;
#X connect 40 0 13 1;
#X connect 41 0 17 0;
#X connect 42 0 6 1;
#X connect 43 0 6 2;
#X connect 44 0 1 0;
#X connect 45 0 8 1;
#X connect 47 0 25 0;
#X connect 48 0 18 1;
#X connect 50 0 27 0;
#X connect 50 1 51 0;
#X connect 51 0 28 1;
#X connect 52 0 50 0;
#X connect 53 0 54 0;
#X connect 54 0 52 1;
#X connect 55 0 52 0;
#X connect 55 1 53 0;
