#N canvas 0 23 1440 855 12;
#X obj 133 22 tgl 15 0 empty empty empty 17 7 0 10 #fcfcfc #000000
#000000 0 1;
#X obj 133 90 +;
#X obj 133 114 int;
#X obj 182 87 + 1;
#X obj 111 224 tabread velocity;
#N canvas 0 22 450 278 (subpatch) 0;
#X array pitch 8 float 3;
#A 0 48.2571 56.1429 48 55.9714 56.6571 56.7429 56.6571 49.2;
#X coords 0 60 8 48 200 140 1 0 0;
#X restore 430 67 graph;
#N canvas 0 22 450 278 (subpatch) 0;
#X array velocity 8 float 3;
#A 0 107.043 -28.1224 -27.2152 45.3575 -30.8447 -24.4937 118.836 43.5429
;
#X coords 0 127 8 0 200 140 1 0 0;
#X restore 430 238 graph;
#X obj 133 42 metro 500;
#X obj 769 526 vsl 20 60 0 127 0 1 \$0-vol empty vol 0 10 0 10 #fcfcfc
#000000 #000000 4200 1;
#X floatatom 695 571 5 1 200 2 A - \$0-att 0;
#X floatatom 732 571 5 1 200 2 R - \$0-rel 0;
#X obj 624 537 hsl 60 15 20 20000 1 1 \$0-brightness empty brightness
-2 8 0 10 #fcfcfc #000000 #000000 4800 1;
#X obj 624 552 hsl 60 15 20 20000 1 1 \$0-attBright empty attBright
-2 8 0 10 #fcfcfc #000000 #000000 4000 1;
#X obj 700 541 hsl 60 15 0 3 0 1 \$0-bend empty bend 10 8 0 10 #fcfcfc
#000000 #000000 0 1;
#X obj 700 522 hsl 60 15 1 1000 1 1 \$0-slide empty slide 10 8 0 10
#fcfcfc #000000 #000000 5900 1;
#X obj 624 522 hsl 60 15 120 127 1 1 \$0-sustain empty sustain 10 8
0 10 #fcfcfc #000000 #000000 5600 1;
#X obj 624 567 hsl 60 15 0.2 20 1 1 \$0-vibRate empty vibrato -2 8
0 10 #fcfcfc #000000 #000000 3900 1;
#X obj 624 582 hsl 60 15 0 2 0 1 \$0-vibDepth empty vibDepth -2 8 0
10 #fcfcfc #000000 #000000 1800 1;
#X obj 60 597 kp_sjf~ \$0;
#X obj 69 216 int;
#X obj 60 351 +;
#X obj 60 375 int;
#X obj 10 362 + 1;
#X obj 60 423 pack 0 0 0;
#X obj 60 535 route 0 1 2 3 4 5, f 60;
#X obj 151 597 kp_sjf~ \$0;
#X floatatom 18 430 5 0 0 0 - - - 0;
#X obj 60 327 t b f;
#X obj 239 598 kp_sjf~ \$0;
#X obj 330 598 kp_sjf~ \$0;
#X obj 421 600 kp_sjf~ \$0;
#X obj 512 600 kp_sjf~ \$0;
#X obj 150 711 *~ 1;
#X obj 131 753 dac~;
#N canvas 0 22 450 278 (subpatch) 0;
#X array pitch2 8 float 3;
#A 0 61.5428 62.4857 61.5429 68.0357 69.85 67.1286 60.0857 71.1429
;
#X coords 0 72 8 60 200 140 1 0 0;
#X restore 643 62 graph;
#N canvas 0 22 450 278 (subpatch) 0;
#X array velocity2 8 float 3;
#A 0 117.929 87.0853 55.3356 107.95 35.3786 48.079 87.0854 113.393
;
#X coords 0 127 8 0 200 140 1 0 0;
#X restore 643 234 graph;
#X obj 181 153 t f f f;
#X floatatom 280 46 5 0 0 0 - - - 0;
#X obj 280 69 expr 60000/$f1;
#X obj 280 93 * 1;
#X floatatom 280 117 5 0 0 0 - - - 0;
#X obj 393 40 vradio 15 1 0 8 empty empty empty 0 -8 0 10 #fcfcfc #000000
#000000 0;
#X floatatom 393 189 5 0 0 0 - - - 0;
#X obj 393 165 expr pow(2 \, -$f1);
#X obj 318 91 t b f;
#X obj 60 399 % 6;
#X obj 110 253 max 0;
#N canvas 0 23 1440 855 selfSim 0;
#X floatatom 353 170 5 0 0 0 start_point - - 0;
#X floatatom 552 171 5 0 0 0 steps_to_generate - - 0;
#X obj 88 179 bng 15 250 50 0 empty empty generate_melody 17 7 0 10
#fcfcfc #000000 #000000;
#N canvas 446 511 450 278 (subpatch) 0;
#X array \$0-selfSim 16 float 3;
#A 0 0 1 -1 0 1 2 0 1 -1 0 -2 -1 0 1 -1 0;
#X coords 0 20 16 -20 200 140 1 0 0;
#X restore 100 20 graph;
#X text 921 44 n n+1 n-1 n;
#X obj 88 322 until;
#X obj 88 346 +, f 10;
#X obj 180 348 + 1;
#X msg 153 304 0;
#X obj 88 199 t b b b, f 21;
#X obj 56 531 f;
#X obj 90 531 f;
#X obj 124 531 f;
#X obj 157 531 f;
#X obj 56 422 until;
#X obj 56 446 +, f 10;
#X obj 148 448 + 1;
#X msg 127 416 0;
#X obj 242 596 +, f 10;
#X obj 333 596 + 1;
#X msg 309 564 0;
#X msg 88 395 4;
#X obj 468 204 / 4;
#X obj 106 249 int;
#X obj 88 298 i;
#X obj 111 715 tabwrite \$0-selfSim, f 21;
#X obj 112 688 spigot, f 19;
#X obj 500 282 array size \$0-selfSim;
#X obj 242 652 <, f 23;
#X obj 479 250 int;
#X obj 106 273 + 1;
#X obj 56 497 t f f f f, f 15;
#X obj 88 371 t b b, f 22;
#X obj 112 654 t f b, f 6;
#X obj 124 553 + 1;
#X obj 90 552 - 1;
#X obj 56 470 tabread \$0-selfSim;
#X obj 242 620 t f f;
#X connect 1 0 22 0;
#X connect 1 0 29 1;
#X connect 2 0 9 0;
#X connect 5 0 6 0;
#X connect 6 0 7 0;
#X connect 6 0 32 0;
#X connect 7 0 6 1;
#X connect 8 0 6 1;
#X connect 9 0 24 0;
#X connect 9 1 8 0;
#X connect 9 2 20 0;
#X connect 9 2 23 0;
#X connect 9 2 29 0;
#X connect 10 0 33 0;
#X connect 11 0 35 0;
#X connect 12 0 34 0;
#X connect 13 0 33 0;
#X connect 14 0 15 0;
#X connect 15 0 16 0;
#X connect 15 0 36 0;
#X connect 16 0 15 1;
#X connect 17 0 15 1;
#X connect 18 0 19 0;
#X connect 18 0 37 0;
#X connect 19 0 18 1;
#X connect 20 0 18 1;
#X connect 21 0 14 0;
#X connect 22 0 23 1;
#X connect 23 0 30 0;
#X connect 24 0 5 0;
#X connect 26 0 25 0;
#X connect 28 0 26 1;
#X connect 29 0 27 0;
#X connect 29 0 28 1;
#X connect 30 0 24 1;
#X connect 31 0 10 0;
#X connect 31 1 11 0;
#X connect 31 2 12 0;
#X connect 31 3 13 0;
#X connect 32 0 21 0;
#X connect 32 1 17 0;
#X connect 33 0 26 0;
#X connect 33 1 18 0;
#X connect 34 0 33 0;
#X connect 35 0 33 0;
#X connect 36 0 31 0;
#X connect 37 0 28 0;
#X connect 37 1 25 1;
#X restore 1001 138 pd selfSim;
#X obj 74 49 r met;
#X obj 133 138 % 16;
#X obj 215 185 % 8;
#X obj 69 192 tabread \$0-selfSim;
#X obj 69 240 + 48;
#X connect 0 0 7 0;
#X connect 1 0 2 0;
#X connect 2 0 3 0;
#X connect 2 0 49 0;
#X connect 3 0 1 1;
#X connect 4 0 46 0;
#X connect 7 0 1 0;
#X connect 18 0 32 0;
#X connect 19 0 52 0;
#X connect 20 0 21 0;
#X connect 21 0 22 0;
#X connect 21 0 45 0;
#X connect 22 0 20 1;
#X connect 23 0 24 0;
#X connect 24 0 18 0;
#X connect 24 1 25 0;
#X connect 24 2 28 0;
#X connect 24 3 29 0;
#X connect 24 4 30 0;
#X connect 24 5 31 0;
#X connect 25 0 32 0;
#X connect 27 0 20 0;
#X connect 27 1 23 1;
#X connect 28 0 32 0;
#X connect 29 0 32 0;
#X connect 30 0 32 0;
#X connect 31 0 32 0;
#X connect 32 0 33 0;
#X connect 32 0 33 1;
#X connect 36 0 51 0;
#X connect 36 1 50 0;
#X connect 37 0 38 0;
#X connect 38 0 39 0;
#X connect 39 0 7 1;
#X connect 39 0 40 0;
#X connect 41 0 43 0;
#X connect 43 0 42 0;
#X connect 43 0 44 0;
#X connect 44 0 39 0;
#X connect 44 1 39 1;
#X connect 45 0 23 0;
#X connect 45 0 26 0;
#X connect 46 0 23 2;
#X connect 49 0 36 0;
#X connect 50 0 4 0;
#X connect 51 0 19 0;
#X connect 52 0 27 0;
