#N canvas 0 23 1440 855 12;
#X obj 86 491 FM_Main;
#X obj 715 503 FM_Main;
#X obj 697 899 dac~;
#N canvas 0 22 450 278 (subpatch) 0;
#X array p1 16 float 3;
#A 0 69.3429 63.0857 63.9429 64.5429 65.3143 65.6572 64.7143 64.4572
64.7143 64.9715 65.6572 66.0001 66.2572 66.5144 66.0001 66.2572;
#X coords 0 72 16 60 200 140 1 0 0;
#X restore 63 92 graph;
#N canvas 0 22 450 278 (subpatch) 0;
#X array v1 16 float 3;
#A 0 71.7825 107.674 52.4565 2.76087 5.52174 2.76087 77.3043 77.3043
49.6957 38.6522 -41.4129 49.6957 55.2174 49.6957 30.3696 49.6957;
#X coords 0 127 16 0 198 46 1 0 0;
#X restore 64 248 graph;
#N canvas 0 22 450 278 (subpatch) 0;
#X array p2 16 float 3;
#A 0 60.8571 62.7429 66 61.2 61.1143 61.0286 62.9143 61.0286 60.9429
71.9143 60.9429 66.6857 60.6857 63.6 60.6857 60.6;
#X coords 0 72 16 60 200 140 1 0 0;
#X restore 732 99 graph;
#N canvas 0 22 450 278 (subpatch) 0;
#X array v2 16 float 3;
#A 0 63.5 71.7826 -44.1738 88.3478 80.0652 -41.4129 44.1739 22.087
2.76096 2.76096 13.8044 30.3696 41.4131 -38.6521 60.7391 57.9782;
#X coords 0 127 16 0 198 46 1 0 0;
#X restore 733 256 graph;
#X obj 397 22 tgl 15 0 empty empty empty 17 7 0 10 #fcfcfc #000000
#000000 0 1;
#X obj 395 69 +;
#X obj 395 93 int;
#X obj 457 104 + 1;
#X floatatom 395 117 5 0 0 0 - - - 0;
#X obj 395 223 % 16;
#X obj 395 247 t f f;
#X obj 395 271 t f f;
#X obj 331 299 tabread p1;
#X floatatom 331 323 5 0 0 0 - - - 0;
#X obj 331 346 int;
#X floatatom 424 326 5 0 0 0 - - - 0;
#X obj 424 349 int;
#X obj 424 302 tabread v1;
#X obj 331 370 pack;
#X obj 424 373 max 0;
#X obj 616 276 t f f;
#X floatatom 552 328 5 0 0 0 - - - 0;
#X obj 552 351 int;
#X floatatom 645 331 5 0 0 0 - - - 0;
#X obj 645 354 int;
#X obj 552 415 pack;
#X obj 645 418 max 0;
#X obj 552 304 tabread p2;
#X obj 645 307 tabread v2;
#X obj 735 85 hsl 195 15 0 16 0 0 empty empty empty -2 -8 0 10 #fcfcfc
#000000 #000000 0 1;
#X obj 66 77 hsl 195 15 0 16 0 0 empty empty empty -2 -8 0 10 #fcfcfc
#000000 #000000 0 1;
#X obj 552 439 spigot;
#X obj 645 442 > 0;
#X obj 326 413 spigot;
#X obj 419 416 > 0;
#X obj 552 375 - 12;
#N canvas 0 22 450 278 (subpatch) 0;
#X array snr 10 float 3;
#A 0 0.471429 0 -0.514285 -0.2 0.642857 0 -0.714289 0 -0.114286 -0.71429
;
#X coords 0 1 10 -1 200 140 1;
#X restore 1002 95 graph;
#X obj 1037 307 tabread snr;
#X obj 1033 333 t f f, f 17;
#X obj 1037 355 spigot;
#X obj 1045 388 bng 15 250 50 0 empty empty empty 17 7 0 10 #fcfcfc
#000000 #000000;
#X obj 1142 361 > 0;
#X obj 1045 408 snr_sjf~;
#N canvas 0 22 450 278 (subpatch) 0;
#X array kck 11 float 3;
#A 0 0.471427 -0.242857 -0.328574 0.0857154 0.342857 0.171429 0.271429
0 0 0.514286 -0.428574;
#X coords 0 1 11 -1 200 140 1;
#X restore 1227 94 graph;
#X obj 1248 332 t f f, f 17;
#X obj 1248 356 spigot;
#X obj 1256 389 bng 15 250 50 0 empty empty empty 17 7 0 10 #fcfcfc
#000000 #000000;
#X obj 1353 362 > 0;
#X obj 1248 308 tabread kck;
#X obj 1256 409 kck_sjf~;
#X obj 395 45 metro 200;
#X obj 326 437 t l b;
#X obj 553 462 t l b;
#X floatatom 543 72 5 0 0 0 - - - 0;
#X obj 543 95 t b f;
#X msg 543 119 60000;
#X obj 543 143 /;
#X floatatom 543 167 5 0 0 0 - - - 0;
#X obj 606 66 hradio 15 1 0 8 empty empty empty 0 -8 0 10 #fcfcfc #000000
#000000 0;
#X obj 606 85 expr 1/pow(2 \, $f1);
#X floatatom 606 109 5 0 0 0 - - - 0;
#X obj 606 132 t b f;
#X obj 543 190 * 1, f 10;
#X obj 1038 282 route 0 1, f 31;
#X obj 1311 257 array size snr;
#X obj 1272 283 route 0 1, f 31;
#X obj 1366 309 array size kck;
#X obj 1043 234 prGen_sjf;
#X obj 1256 433 expr~ tanh($v1);
#X obj 395 140 / 2;
#X obj 395 164 int;
#X obj 395 188 change;
#X obj 1203 502 FM_Main;
#X obj 1179 428 t b b;
#X msg 1175 452 48 127;
#X obj 1214 683 FM_Main;
#X obj 1154 698 t b b;
#X msg 1150 721 48 127;
#X obj 798 364 sel 0;
#X obj 353 65 s met;
#X obj 62 706 throw~ \$0-del;
#X obj 606 709 throw~ \$0-del;
#N canvas 1670 -441 1531 1005 del 1;
#X obj 134 29 catch~ \$0-del;
#X obj 72 742 delwrite~ \$0-delL 2000, f 10;
#X obj 247 738 delwrite~ \$0-delR 2000, f 10;
#X obj 376 644 vd~ \$0-delL;
#X obj 483 644 vd~ \$0-delR;
#X obj 130 692 *~;
#X obj 260 702 *~;
#X obj 615 24 vsl 15 128 0 127 0 0 empty empty empty 0 -9 0 10 #fcfcfc
#000000 #000000 0 1;
#X obj 487 21 / 127;
#X obj 487 45 pack 0 5;
#X obj 487 69 line~;
#X obj 381 766 outlet~;
#X obj 509 773 outlet~;
#X obj 376 718 *~;
#X obj 483 718 *~;
#X obj 969 24 vsl 15 128 0 127 0 0 empty empty empty 0 -9 0 10 #fcfcfc
#000000 #000000 0 1;
#X obj 1236 443 / 127;
#X obj 1236 467 pack 0 5;
#X obj 1236 491 line~;
#X obj 679 24 vsl 15 128 0 127 0 0 empty empty empty 0 -9 0 10 #fcfcfc
#000000 #000000 0 1;
#X obj 677 330 / 127;
#X obj 677 404 pow 3;
#X obj 677 428 * 2000;
#X obj 677 476 line~;
#X obj 763 24 vsl 15 128 0 127 0 0 empty empty empty 0 -9 0 10 #fcfcfc
#000000 #000000 0 1;
#X obj 761 332 / 127;
#X obj 761 406 t f f;
#X obj 761 430 * -1;
#X obj 761 454 expr pow(2 \, $f1);
#X obj 761 502 line~;
#X obj 395 576 *~;
#X obj 891 450 expr pow(2 \, $f1);
#X obj 891 498 line~;
#X obj 672 564 *~;
#X obj 677 452 pack 0 100;
#X obj 891 474 pack 0 100;
#X obj 761 478 pack 0 100;
#X obj 761 356 pow 3;
#X obj 865 24 vsl 15 128 0 127 0 0 empty empty empty 0 -9 0 10 #fcfcfc
#000000 #000000 0 1;
#X obj 865 151 / 127;
#X obj 865 199 * 19.9;
#X obj 865 223 + 0.1;
#X obj 865 247 osc~;
#X obj 863 282 *~, f 10;
#X obj 939 24 vsl 15 128 0 127 0 0 empty empty empty 0 -9 0 10 #fcfcfc
#000000 #000000 0 1;
#X obj 939 162 / 127;
#X obj 939 186 pow 3;
#X obj 939 210 pack 0 5;
#X obj 939 234 line~;
#X obj 719 591 *~;
#X obj 501 615 +~;
#X obj 429 604 *~;
#X obj 384 614 +~;
#X obj 865 175 pow 10;
#X connect 0 0 1 0;
#X connect 0 0 2 0;
#X connect 3 0 5 0;
#X connect 3 0 13 0;
#X connect 4 0 6 0;
#X connect 4 0 14 0;
#X connect 5 0 1 0;
#X connect 6 0 2 0;
#X connect 7 0 8 0;
#X connect 8 0 9 0;
#X connect 9 0 10 0;
#X connect 10 0 5 1;
#X connect 10 0 6 1;
#X connect 13 0 11 0;
#X connect 14 0 12 0;
#X connect 15 0 16 0;
#X connect 16 0 17 0;
#X connect 17 0 18 0;
#X connect 18 0 14 1;
#X connect 18 0 13 1;
#X connect 19 0 20 0;
#X connect 20 0 21 0;
#X connect 21 0 22 0;
#X connect 22 0 34 0;
#X connect 23 0 30 0;
#X connect 23 0 33 0;
#X connect 24 0 25 0;
#X connect 25 0 37 0;
#X connect 26 0 27 0;
#X connect 26 1 31 0;
#X connect 27 0 28 0;
#X connect 28 0 36 0;
#X connect 29 0 30 1;
#X connect 30 0 51 0;
#X connect 30 0 52 0;
#X connect 31 0 35 0;
#X connect 32 0 33 1;
#X connect 33 0 49 0;
#X connect 33 0 50 0;
#X connect 34 0 23 0;
#X connect 35 0 32 0;
#X connect 36 0 29 0;
#X connect 37 0 26 0;
#X connect 38 0 39 0;
#X connect 39 0 53 0;
#X connect 40 0 41 0;
#X connect 41 0 42 0;
#X connect 42 0 43 0;
#X connect 43 0 49 1;
#X connect 43 0 51 1;
#X connect 44 0 45 0;
#X connect 45 0 46 0;
#X connect 46 0 47 0;
#X connect 47 0 48 0;
#X connect 48 0 43 1;
#X connect 49 0 50 1;
#X connect 50 0 4 0;
#X connect 51 0 52 1;
#X connect 52 0 3 0;
#X connect 53 0 40 0;
#X restore 606 803 pd del;
#N canvas 194 235 399 455 vol 0;
#X obj 203 115 vsl 15 128 0 127 0 0 empty empty empty 0 -9 0 10 #fcfcfc
#000000 #000000 0 1;
#X obj 202 252 / 127;
#X obj 202 276 pack 0 5;
#X obj 202 300 line~;
#X obj 139 192 inlet~;
#X obj 140 329 *~, f 9;
#X obj 140 353 outlet~;
#X connect 0 0 1 0;
#X connect 1 0 2 0;
#X connect 2 0 3 0;
#X connect 3 0 5 1;
#X connect 4 0 5 0;
#X connect 5 0 6 0;
#X coords 0 -1 1 1 20 150 2 200 100;
#X restore 606 555 pd vol;
#N canvas 194 235 399 455 vol 0;
#X obj 203 115 vsl 15 128 0 127 0 0 empty empty empty 0 -9 0 10 #fcfcfc
#000000 #000000 0 1;
#X obj 202 252 / 127;
#X obj 202 276 pack 0 5;
#X obj 202 300 line~;
#X obj 139 192 inlet~;
#X obj 140 329 *~, f 9;
#X obj 140 353 outlet~;
#X connect 0 0 1 0;
#X connect 1 0 2 0;
#X connect 2 0 3 0;
#X connect 3 0 5 1;
#X connect 4 0 5 0;
#X connect 5 0 6 0;
#X coords 0 -1 1 1 20 150 2 200 100;
#X restore 56 534 pd vol;
#X obj 969 458 throw~ \$0-del;
#N canvas 194 235 399 455 vol 0;
#X obj 203 115 vsl 15 128 0 127 0 0 empty empty empty 0 -9 0 10 #fcfcfc
#000000 #000000 0 1;
#X obj 202 252 / 127;
#X obj 202 276 pack 0 5;
#X obj 202 300 line~;
#X obj 139 192 inlet~;
#X obj 140 329 *~, f 9;
#X obj 140 353 outlet~;
#X connect 0 0 1 0;
#X connect 1 0 2 0;
#X connect 2 0 3 0;
#X connect 3 0 5 1;
#X connect 4 0 5 0;
#X connect 5 0 6 0;
#X coords 0 -1 1 1 20 150 2 200 100;
#X restore 969 304 pd vol;
#X obj 944 979 throw~ \$0-del;
#N canvas 194 235 399 455 vol 0;
#X obj 203 115 vsl 15 128 0 127 0 0 empty empty empty 0 -9 0 10 #fcfcfc
#000000 #000000 0 1;
#X obj 202 252 / 127;
#X obj 202 276 pack 0 5;
#X obj 202 300 line~;
#X obj 139 192 inlet~;
#X obj 140 329 *~, f 9;
#X obj 140 353 outlet~;
#X connect 0 0 1 0;
#X connect 1 0 2 0;
#X connect 2 0 3 0;
#X connect 3 0 5 1;
#X connect 4 0 5 0;
#X connect 5 0 6 0;
#X coords 0 -1 1 1 20 150 2 200 100;
#X restore 944 825 pd vol;
#X obj 735 789 catch~ \$0-out;
#X obj 103 653 throw~ \$0-out;
#X obj 715 671 throw~ \$0-out;
#X obj 1214 857 throw~ \$0-out;
#X obj 1203 657 throw~ \$0-out;
#X obj 1260 464 throw~ \$0-out;
#X obj 1045 432 throw~ \$0-out;
#X connect 0 0 87 0;
#X connect 0 0 93 0;
#X connect 1 0 86 0;
#X connect 1 0 94 0;
#X connect 7 0 53 0;
#X connect 8 0 9 0;
#X connect 9 0 10 0;
#X connect 9 0 11 0;
#X connect 10 0 8 1;
#X connect 11 0 72 0;
#X connect 12 0 13 0;
#X connect 12 0 81 0;
#X connect 13 0 14 0;
#X connect 13 0 33 0;
#X connect 13 1 23 0;
#X connect 13 1 32 0;
#X connect 13 1 70 0;
#X connect 14 0 15 0;
#X connect 14 1 20 0;
#X connect 15 0 16 0;
#X connect 16 0 17 0;
#X connect 17 0 21 0;
#X connect 18 0 19 0;
#X connect 19 0 22 0;
#X connect 20 0 18 0;
#X connect 21 0 36 0;
#X connect 22 0 21 1;
#X connect 22 0 37 0;
#X connect 23 0 30 0;
#X connect 23 1 31 0;
#X connect 24 0 25 0;
#X connect 25 0 38 0;
#X connect 26 0 27 0;
#X connect 27 0 29 0;
#X connect 28 0 34 0;
#X connect 29 0 28 1;
#X connect 29 0 35 0;
#X connect 30 0 24 0;
#X connect 31 0 26 0;
#X connect 34 0 55 0;
#X connect 35 0 34 1;
#X connect 36 0 54 0;
#X connect 37 0 36 1;
#X connect 38 0 28 0;
#X connect 40 0 41 0;
#X connect 41 0 42 0;
#X connect 41 1 44 0;
#X connect 42 0 43 0;
#X connect 43 0 45 0;
#X connect 44 0 42 1;
#X connect 45 0 89 0;
#X connect 45 0 98 0;
#X connect 47 0 48 0;
#X connect 47 1 50 0;
#X connect 48 0 49 0;
#X connect 49 0 52 0;
#X connect 50 0 48 1;
#X connect 51 0 47 0;
#X connect 52 0 71 0;
#X connect 53 0 8 0;
#X connect 53 0 82 0;
#X connect 54 0 0 0;
#X connect 54 1 0 2;
#X connect 55 0 1 0;
#X connect 55 1 1 2;
#X connect 56 0 57 0;
#X connect 57 0 58 0;
#X connect 57 1 59 1;
#X connect 58 0 59 0;
#X connect 59 0 60 0;
#X connect 60 0 65 0;
#X connect 61 0 62 0;
#X connect 62 0 63 0;
#X connect 63 0 64 0;
#X connect 64 0 60 0;
#X connect 64 1 65 1;
#X connect 65 0 53 1;
#X connect 66 0 40 0;
#X connect 66 1 51 0;
#X connect 68 0 67 0;
#X connect 68 1 69 0;
#X connect 70 0 66 0;
#X connect 70 2 76 0;
#X connect 70 3 68 0;
#X connect 71 0 97 0;
#X connect 72 0 73 0;
#X connect 73 0 74 0;
#X connect 74 0 12 0;
#X connect 75 0 91 0;
#X connect 75 0 96 0;
#X connect 76 0 77 0;
#X connect 76 1 75 1;
#X connect 77 0 75 0;
#X connect 78 0 91 0;
#X connect 78 0 95 0;
#X connect 79 0 80 0;
#X connect 79 1 78 1;
#X connect 80 0 78 0;
#X connect 81 0 79 0;
#X connect 85 0 2 0;
#X connect 85 1 2 1;
#X connect 86 0 84 0;
#X connect 87 0 83 0;
#X connect 89 0 88 0;
#X connect 91 0 90 0;
#X connect 92 0 2 0;
#X connect 92 0 2 1;
