#N canvas 265 199 1097 679 12;
#X obj 703 12 array define \$0-pr;
#X obj 95 29 inlet;
#X obj 170 125 r \$0-nBeats;
#X obj 103 209 r \$0-nVoices;
#X obj 85 126 counter_sjf;
#X obj 85 150 %, f 13;
#X obj 85 239 int;
#X obj 85 285 until;
#X obj 85 309 counter_sjf;
#X obj 85 263 t f b, f 10;
#X obj 117 463 +, f 17;
#X obj 117 368 *;
#X obj 149 365 r \$0-nBeats;
#X obj 113 91 bng 15 250 50 0 empty empty empty 17 7 0 10 #fcfcfc #000000
#000000;
#X obj 117 486 tabread \$0-pr;
#X obj 85 333 t f f;
#X obj 85 550 outlet;
#X obj 85 521 pack 0 0;
#N canvas 89 120 450 300 resetLogic 0;
#X obj 173 26 r \$0-nBeats;
#X obj 260 25 r \$0-nVoices;
#X obj 173 50 change;
#X obj 260 49 change;
#X obj 173 74 t b;
#X obj 181 103 spigot;
#X obj 201 80 r \$0-reset;
#X obj 181 127 outlet;
#X connect 0 0 2 0;
#X connect 1 0 3 0;
#X connect 2 0 4 0;
#X connect 3 0 4 0;
#X connect 4 0 5 0;
#X connect 5 0 7 0;
#X connect 6 0 5 1;
#X restore 161 82 pd resetLogic;
#X obj 294 268 outlet;
#X obj 368 259 s \$0-loop;
#X obj 302 220 sel 0;
#X obj 401 21 cnv 15 198 10 empty \$0-canvas empty 20 12 0 14 #fcfcfc
#000000 0;
#X listbox 401 19 20 0 0 0 - - - 0;
#X obj 547 21 bng 15 250 50 0 empty empty empty 17 7 0 10 #fcfcfc #000000
#000000;
#X obj 493 102 s \$0-nVoices;
#N canvas 689 69 751 673 arrayWriteLogic 0;
#X obj 364 7 inlet;
#X obj 426 196 list length;
#X obj 234 61 t l l, f 23;
#X obj 493 334 outlet;
#X obj 228 254 * 1, f 6;
#X obj 228 278 int, f 8;
#X obj 234 116 t l b;
#X msg 358 194 1;
#X obj 286 405 array size \$0-pr;
#X obj 47 343 int;
#X obj 47 367 until;
#X obj 79 516 %, f 6;
#X obj 18 446 t f f;
#X obj 72 89 t l l, f 23;
#X obj 47 540 pack, f 5;
#X obj 228 355 *, f 26;
#X obj 318 328 outlet;
#X obj 72 113 t l b;
#X obj 47 273 t b f b, f 17;
#X obj 154 367 *, f 9;
#X obj 39 502 +;
#X msg 47 564 \$2 \$1;
#X obj 47 588 tabwrite \$0-pr;
#X obj 188 163 list_iter_sjf;
#X obj 17 168 list_iter_sjf;
#N canvas 803 241 450 300 listLogic 0;
#X obj 37 37 inlet;
#X obj 74 111 list_iter_sjf;
#X obj 74 144 route symbol;
#X obj 75 181 list prepend;
#X obj 75 205 list;
#X obj 37 62 t b l b, f 22;
#X obj 51 232 list;
#X obj 51 256 outlet;
#X connect 0 0 5 0;
#X connect 1 0 2 0;
#X connect 2 1 3 0;
#X connect 3 0 4 0;
#X connect 4 0 3 1;
#X connect 4 0 6 1;
#X connect 5 0 6 0;
#X connect 5 1 1 0;
#X connect 5 2 3 1;
#X connect 6 0 7 0;
#X restore 365 33 pd listLogic;
#X obj 47 400 counter_sjf, f 7;
#X obj 154 329 counter_sjf, f 7;
#X obj 554 138 list_iter_sjf;
#X obj 571 213 counter_sjf, f 7;
#X obj 562 108 t l b;
#X obj 554 162 t b f;
#X obj 571 251 pack, f 17;
#X obj 571 275 outlet;
#X connect 0 0 25 0;
#X connect 1 0 15 1;
#X connect 1 0 3 0;
#X connect 2 0 13 0;
#X connect 2 1 1 0;
#X connect 2 1 30 0;
#X connect 4 0 5 0;
#X connect 5 0 4 1;
#X connect 5 0 9 1;
#X connect 5 0 19 1;
#X connect 5 0 16 0;
#X connect 5 0 15 0;
#X connect 6 0 23 0;
#X connect 6 1 7 0;
#X connect 7 0 4 1;
#X connect 9 0 10 0;
#X connect 10 0 26 0;
#X connect 11 0 14 1;
#X connect 12 0 20 0;
#X connect 12 1 11 0;
#X connect 13 0 17 0;
#X connect 13 1 6 0;
#X connect 14 0 21 0;
#X connect 15 0 8 0;
#X connect 17 0 24 0;
#X connect 17 1 27 1;
#X connect 18 0 9 0;
#X connect 18 1 11 1;
#X connect 18 2 26 1;
#X connect 18 2 27 0;
#X connect 19 0 20 1;
#X connect 20 0 14 0;
#X connect 21 0 22 0;
#X connect 23 0 4 0;
#X connect 24 0 18 0;
#X connect 25 0 2 0;
#X connect 26 0 12 0;
#X connect 27 0 19 0;
#X connect 28 0 31 0;
#X connect 29 0 32 0;
#X connect 30 0 28 0;
#X connect 30 1 29 1;
#X connect 31 0 29 0;
#X connect 31 1 32 1;
#X connect 32 0 33 0;
#X restore 401 45 pd arrayWriteLogic;
#X obj 401 102 s \$0-nBeats;
#X floatatom 562 18 5 0 0 0 - - - 0;
#X obj 545 2 tgl 15 0 \$0-reset empty reset 17 7 0 10 #fcfcfc #000000
#000000 0 1;
#N canvas 299 350 450 300 loopVis 0;
#X obj 85 27 r \$0-loop;
#X obj 130 166 s \$0-canvas;
#X obj 85 51 t b b, f 9;
#X obj 85 75 del 200;
#X msg 295 166 color 3 1 1, f 17;
#X msg 85 105 color 0 22 22;
#X msg 193 105 color 3 22 22;
#X connect 0 0 2 0;
#X connect 2 0 3 0;
#X connect 2 1 6 0;
#X connect 3 0 5 0;
#X connect 5 0 1 0;
#X connect 6 0 1 0;
#X restore 737 87 pd loopVis;
#X obj 571 66 outlet;
#X obj 261 296 outlet;
#X obj 85 174 t b f f, f 44;
#X connect 1 0 4 0;
#X connect 2 0 5 1;
#X connect 3 0 6 1;
#X connect 4 0 5 0;
#X connect 5 0 33 0;
#X connect 6 0 9 0;
#X connect 7 0 8 0;
#X connect 8 0 15 0;
#X connect 9 0 7 0;
#X connect 9 1 8 1;
#X connect 10 0 14 0;
#X connect 11 0 10 0;
#X connect 12 0 11 1;
#X connect 13 0 4 0;
#X connect 14 0 17 1;
#X connect 15 0 17 0;
#X connect 15 1 11 0;
#X connect 17 0 16 0;
#X connect 18 0 4 1;
#X connect 21 0 20 0;
#X connect 21 0 19 0;
#X connect 23 0 26 0;
#X connect 24 0 23 0;
#X connect 26 0 27 0;
#X connect 26 0 28 0;
#X connect 26 1 25 0;
#X connect 26 2 31 0;
#X connect 33 0 6 0;
#X connect 33 1 10 1;
#X connect 33 1 32 0;
#X connect 33 2 21 0;
#X coords 0 -1 1 1 200 40 1 400 0;
