#N canvas 3 27 1920 1035 12;
#X obj 112 356 *~, f 11;
#X obj 574 365 / 127;
#X obj 574 388 pack 0 5;
#X obj 574 411 line~;
#X obj 577 345 hsl 128 15 0 127 0 0 empty empty empty -2 -8 0 10 #fcfcfc
#000000 #000000 0 1;
#X obj 108 90 vline~;
#X obj 108 113 *~, f 15;
#X obj 179 90 noise~;
#X obj 256 100 / 127;
#X obj 256 123 pack 0 5;
#X obj 256 146 line~;
#X obj 259 80 hsl 50 15 0 127 0 0 empty empty snares 1 10 0 10 #fcfcfc
#000000 #000000 0 1;
#X obj 108 136 *~, f 18;
#X obj 363 161 *~, f 14;
#X obj 442 125 vline~;
#X msg 358 27 1 1 \, 0.1 20 1 \, 0 100 21;
#X obj 109 26 bng 15 250 50 0 empty empty empty 17 7 0 10 #fcfcfc #000000
#000000;
#X obj 60 430 outlet~;
#X obj 105 3 inlet;
#X text 669 -1 Snare Drum \; Click of stick --> short transient \,
noise \; Snare sound - white noise dying out over time Complex combination
of frequency \;;
#X obj 163 420 dac~;
#X text 672 61 2 sine waves 180Hz & 330Hz \; mixed and amplitude envelop
;
#X obj 355 108 osc~ 180;
#X obj 373 131 osc~ 330;
#X msg 109 52 0.3 1 \, 0.05 10 1 \, 0 300 11;
#N canvas 343 71 826 598 triangle 0;
#X obj 76 138 osc~ 111;
#X obj 153 237 outlet~;
#X obj 153 137 osc~ 333;
#X obj 153 160 /~ 9;
#X obj 153 183 *~ -1;
#X obj 243 143 osc~ 555;
#X obj 243 166 /~ 25;
#X obj 328 143 osc~ 777;
#X obj 328 166 /~ 49;
#X obj 328 189 *~ -1;
#X floatatom 122 20 5 0 0 0 fundamental\ f - - 0;
#X obj 150 92 * 3;
#X obj 249 96 * 5;
#X obj 334 99 * 7;
#X connect 0 0 1 0;
#X connect 2 0 3 0;
#X connect 3 0 4 0;
#X connect 4 0 1 0;
#X connect 5 0 6 0;
#X connect 6 0 1 0;
#X connect 7 0 8 0;
#X connect 8 0 9 0;
#X connect 9 0 1 0;
#X connect 10 0 0 0;
#X connect 10 0 11 0;
#X connect 10 0 12 0;
#X connect 10 0 13 0;
#X connect 11 0 2 0;
#X connect 12 0 5 0;
#X connect 13 0 7 0;
#X restore 595 127 pd triangle;
#X obj 596 159 hilbert~;
#X obj 597 191 complex-mod~;
#X obj 670 165 sig~ 175;
#X obj 739 160 hilbert~;
#X obj 740 192 complex-mod~;
#X obj 813 166 sig~ 224;
#X obj 589 247 *~, f 14;
#X obj 711 304 vline~;
#X msg 737 266 1 1 \, 0.1 20 1 \, 0 200 21;
#X connect 0 0 17 0;
#X connect 0 0 20 0;
#X connect 0 0 20 1;
#X connect 1 0 2 0;
#X connect 2 0 3 0;
#X connect 3 0 0 1;
#X connect 4 0 1 0;
#X connect 5 0 6 0;
#X connect 6 0 12 0;
#X connect 7 0 6 1;
#X connect 8 0 9 0;
#X connect 9 0 10 0;
#X connect 10 0 12 1;
#X connect 11 0 8 0;
#X connect 12 0 0 0;
#X connect 13 0 0 0;
#X connect 14 0 13 1;
#X connect 15 0 14 0;
#X connect 16 0 24 0;
#X connect 16 0 15 0;
#X connect 16 0 34 0;
#X connect 18 0 16 0;
#X connect 22 0 13 0;
#X connect 23 0 13 0;
#X connect 24 0 5 0;
#X connect 25 0 26 0;
#X connect 25 0 29 0;
#X connect 26 0 27 0;
#X connect 26 1 27 1;
#X connect 27 0 32 0;
#X connect 28 0 27 2;
#X connect 29 0 30 0;
#X connect 29 1 30 1;
#X connect 30 0 32 0;
#X connect 31 0 30 2;
#X connect 32 0 0 0;
#X connect 33 0 32 1;
#X connect 34 0 33 0;
