#N canvas 0 25 1440 847 12;
#X obj 377 372 AAIM_rhythmGen~;
#X obj 375 347 phasor~;
#X floatatom 375 165 5 0 0 0 bpm - - 0;
#X obj 375 212 / 60;
#X floatatom 375 236 9 0 0 0 frequency\ for\ quarterNote - - 0;
#X floatatom 472 174 5 0 0 2 nBeats - - 0;
#X obj 540 167 vradio 15 1 0 4 empty empty empty 0 -10 0 12 #fcfcfc #000000 #000000 0;
#X text 557 164 2;
#X text 557 179 4;
#X text 557 194 8;
#X text 557 210 16;
#X obj 540 232 expr pow(2 \, $f1-1);
#X floatatom 540 256 5 0 0 0 - - - 0;
#X obj 375 278 *;
#X obj 540 279 t b f;
#X floatatom 375 302 5 0 0 0 - - - 0;
#X obj 415 26 loadbang;
#X msg 373 81 120;
#X msg 475 101 8;
#X msg 544 61 2;
#N canvas 0 22 450 278 (subpatch) 0;
#X array \$0-sample 9852 float 2;
#X coords 0 1 9852 -1 200 140 1;
#X restore 955 75 graph;
#X obj 975 266 bng 19 250 50 0 empty empty empty 0 -10 0 12 #fcfcfc #000000 #000000;
#X obj 975 313 openpanel;
#X obj 975 397 soundfiler;
#X floatatom 975 421 15 0 0 0 - - - 0;
#X msg 975 368 read -resize \$1 \$2;
#X obj 1065 398 bng 19 250 50 0 empty empty empty 0 -10 0 12 #fcfcfc #000000 #000000;
#X obj 975 337 pack s s, f 14;
#X obj 1070 314 symbol \$0-sample;
#X obj 975 290 t b b, f 14;
#X obj 975 447 s \$0-fileLengthSamps;
#X obj 370 593 *~;
#X obj 317 647 dac~;
#X obj 715 369 vsl 19 162 0 127 0 0 empty empty empty 0 -9 0 12 #fcfcfc #000000 #000000 0 1;
#X obj 715 539 / 127;
#X obj 715 563 pack 0 5;
#X obj 715 587 line~;
#X obj 374 522 *~, f 19;
#N canvas 266 291 805 300 cheapPoly 0;
#X obj 37 37 inlet;
#X obj 37 61 +;
#X obj 79 72 + 1;
#X obj 199 250 outlet~;
#N canvas 295 320 901 300 8SampVoices 0;
#X obj 37 37 inlet;
#X obj 37 108 sel 0 1 2 3 4 5 6 7, f 100;
#X obj 34 153 tabplay~ \$0-sample;
#X obj 106 193 tabplay~ \$0-sample;
#X obj 180 155 tabplay~ \$0-sample;
#X obj 252 195 tabplay~ \$0-sample;
#X obj 325 154 tabplay~ \$0-sample;
#X obj 397 194 tabplay~ \$0-sample;
#X obj 471 156 tabplay~ \$0-sample;
#X obj 543 196 tabplay~ \$0-sample;
#X obj 199 250 outlet~;
#X obj 712 144 outlet;
#X connect 0 0 1 0;
#X connect 1 0 2 0;
#X connect 1 1 3 0;
#X connect 1 2 4 0;
#X connect 1 3 5 0;
#X connect 1 4 6 0;
#X connect 1 5 7 0;
#X connect 1 6 8 0;
#X connect 1 7 9 0;
#X connect 1 8 11 0;
#X connect 2 0 10 0;
#X connect 3 0 10 0;
#X connect 4 0 10 0;
#X connect 5 0 10 0;
#X connect 6 0 10 0;
#X connect 7 0 10 0;
#X connect 8 0 10 0;
#X connect 9 0 10 0;
#X restore 36 109 pd 8SampVoices;
#X obj 37 85 % 16;
#N canvas 295 320 901 300 8SampVoices 0;
#X obj 37 37 inlet;
#X obj 37 108 sel 0 1 2 3 4 5 6 7, f 100;
#X obj 34 153 tabplay~ \$0-sample;
#X obj 106 193 tabplay~ \$0-sample;
#X obj 180 155 tabplay~ \$0-sample;
#X obj 252 195 tabplay~ \$0-sample;
#X obj 325 154 tabplay~ \$0-sample;
#X obj 397 194 tabplay~ \$0-sample;
#X obj 471 156 tabplay~ \$0-sample;
#X obj 543 196 tabplay~ \$0-sample;
#X obj 199 250 outlet~;
#X obj 712 144 outlet;
#X connect 0 0 1 0;
#X connect 1 0 2 0;
#X connect 1 1 3 0;
#X connect 1 2 4 0;
#X connect 1 3 5 0;
#X connect 1 4 6 0;
#X connect 1 5 7 0;
#X connect 1 6 8 0;
#X connect 1 7 9 0;
#X connect 1 8 11 0;
#X connect 2 0 10 0;
#X connect 3 0 10 0;
#X connect 4 0 10 0;
#X connect 5 0 10 0;
#X connect 6 0 10 0;
#X connect 7 0 10 0;
#X connect 8 0 10 0;
#X connect 9 0 10 0;
#X restore 198 163 pd 8SampVoices;
#X obj 170 131 - 8;
#X connect 0 0 1 0;
#X connect 1 0 2 0;
#X connect 1 0 5 0;
#X connect 2 0 1 1;
#X connect 4 0 3 0;
#X connect 4 1 7 0;
#X connect 5 0 4 0;
#X connect 6 0 3 0;
#X connect 7 0 6 0;
#X restore 377 396 pd cheapPoly;
#X connect 0 0 38 0;
#X connect 0 1 37 1;
#X connect 1 0 0 0;
#X connect 2 0 3 0;
#X connect 3 0 4 0;
#X connect 4 0 13 0;
#X connect 5 0 0 1;
#X connect 6 0 11 0;
#X connect 11 0 12 0;
#X connect 12 0 14 0;
#X connect 13 0 15 0;
#X connect 14 0 13 0;
#X connect 14 1 13 1;
#X connect 15 0 1 0;
#X connect 16 0 17 0;
#X connect 16 0 18 0;
#X connect 16 0 19 0;
#X connect 17 0 2 0;
#X connect 18 0 5 0;
#X connect 19 0 6 0;
#X connect 21 0 29 0;
#X connect 22 0 27 0;
#X connect 23 0 24 0;
#X connect 24 0 30 0;
#X connect 25 0 23 0;
#X connect 26 0 24 0;
#X connect 27 0 25 0;
#X connect 28 0 27 1;
#X connect 29 0 22 0;
#X connect 29 1 28 0;
#X connect 31 0 32 0;
#X connect 31 0 32 1;
#X connect 33 0 34 0;
#X connect 34 0 35 0;
#X connect 35 0 36 0;
#X connect 36 0 31 1;
#X connect 37 0 31 0;
#X connect 38 0 37 0;
