#N canvas 0 25 1440 847 12;
#X obj 377 249 AAIM_rhythmGen~;
#X obj 393 198 phasor~;
#X floatatom 393 16 5 0 0 0 bpm - - 0;
#X obj 393 63 / 60;
#X floatatom 393 87 9 0 0 0 frequency\ for\ quarterNote - - 0;
#X floatatom 490 25 5 0 0 2 nBeats - - 0;
#X obj 558 18 vradio 15 1 0 4 empty empty empty 0 -10 0 12 #fcfcfc #000000 #000000 0;
#X text 575 15 2;
#X text 575 30 4;
#X text 575 45 8;
#X text 575 61 16;
#X obj 558 83 expr pow(2 \, $f1-1);
#X floatatom 558 107 5 0 0 0 - - - 0;
#X obj 393 129 *;
#X obj 558 130 t b f;
#X floatatom 393 153 5 0 0 0 - - - 0;
#X connect 1 0 0 0;
#X connect 2 0 3 0;
#X connect 3 0 4 0;
#X connect 4 0 13 0;
#X connect 5 0 0 1;
#X connect 6 0 11 0;
#X connect 11 0 12 0;
#X connect 12 0 14 0;
#X connect 13 0 15 0;
#X connect 14 0 13 0;
#X connect 14 1 13 1;
#X connect 15 0 1 0;
