#N canvas 0 25 1440 847 12;
#X obj 58 30 vsl 19 162 0 1 0 0 \$0-comp empty complexity 0 -9 0 12 #fcfcfc #000000 #000000 0 1;
#X obj 143 30 vsl 19 162 0 1 0 0 \$0-rests empty rests 0 -9 0 12 #fcfcfc #000000 #000000 0 1;
#X obj 367 37 inlet~;
#X obj 802 45 r \$0-rests;
#X obj 882 45 r \$0-comp;
#X floatatom 882 69 5 0 0 0 - - - 0;
#X floatatom 802 69 5 0 0 0 - - - 0;
#X obj 656 41 inlet;
#X text 656 14 nBeats;
#X floatatom 656 65 5 0 0 0 - - - 0;
#X text 417 36 base i-o-i phase ramp (0-1);
#X obj 656 88 sig~ 4;
#N canvas 0 25 941 590 probLogic 0;
#N canvas 0 22 450 278 (subpatch) 0;
#X array \$0-IOIs 26 float 3;
#A 0 2.62598e-09 0 0 0 0 0.00387433 0 0 0 0 0.930621 0 0 0 0 0.0363932 0 0 0 0 2.31706e-07 0 0 0 0 2.40175e-16;
#X coords 0 1 26 0 300 207 1 0 0;
#X restore 22 218 graph;
#X obj 89 48 vsl 19 162 0 1 0 0 \$0-bi empty bi 0 -9 0 12 #fcfcfc #000000 #000000 0 1;
#X obj 131 48 vsl 19 162 0 1 0 0 \$0-trip empty trip 0 -9 0 12 #fcfcfc #000000 #000000 0 1;
#X obj 176 48 vsl 19 162 0 1 0 0 \$0-dot empty dot 0 -9 0 12 #fcfcfc #000000 #000000 0 1;
#X obj 220 48 vsl 19 162 0 1 0 0 \$0-quin empty quin 0 -9 0 12 #fcfcfc #000000 #000000 0 1;
#X obj 262 48 vsl 19 162 0 1 0 0 \$0-sep empty sep 0 -9 0 12 #fcfcfc #000000 #000000 0 1;
#N canvas 659 25 781 786 ioiLogic 0;
#X obj 95 18 r \$0-ioiLen;
#X floatatom 250 35 5 0 0 0 - - - 0;
#X obj 250 11 r \$0-bi;
#X floatatom 311 35 5 0 0 0 - - - 0;
#X obj 311 11 r \$0-trip;
#X floatatom 384 35 5 0 0 0 - - - 0;
#X obj 384 11 r \$0-dot;
#X floatatom 451 35 5 0 0 0 - - - 0;
#X obj 451 11 r \$0-quin;
#X floatatom 523 35 5 0 0 0 - - - 0;
#X obj 523 11 r \$0-sep;
#X obj 250 58 t b f;
#X obj 311 58 t b f;
#X obj 384 58 t b f;
#X obj 451 58 t b f;
#X obj 523 58 t b f;
#X obj 168 102 pack 0 0 0 0 0 0, f 54;
#X obj 162 218 t b l;
#X obj 371 214 unpack 0 0 0 0 0 0, f 31;
#X obj 111 255 array size \$0-IOIs;
#X obj 111 303 until;
#X obj 111 365 +;
#X obj 151 365 + 1;
#X msg 172 311 0;
#X obj 111 389 t f f, f 12;
#X obj 192 414 % 5;
#X obj 200 474 float;
#X obj 266 478 float;
#X obj 341 479 float;
#X obj 404 476 float;
#X obj 463 477 float;
#X obj 93 707 tabwrite \$0-IOIs;
#X obj 111 413 t b f;
#X obj 87 674 f;
#N canvas 817 184 451 419 scaleIOILength 0;
#X obj 37 5 inlet;
#X floatatom 38 28 5 0 0 0 - - - 0;
#X obj 38 51 t f f, f 12;
#X obj 35 92 > 0.5;
#X obj 35 116 pack 0 0;
#X obj 35 140 route 0 1;
#X obj 91 164 - 0.5;
#X obj 91 188 * 2;
#X obj 91 212 pow 2;
#X obj 91 236 * 0.5;
#X obj 91 260 + 0.5;
#X obj 35 164 * 2;
#X obj 35 188 pow 0.5;
#X obj 35 212 * 0.5;
#X obj 35 289 pow 1.5;
#X obj 35 313 * 0.79;
#X obj 35 337 + 0.13;
#X obj 35 361 outlet;
#X connect 0 0 1 0;
#X connect 1 0 2 0;
#X connect 2 0 3 0;
#X connect 2 1 4 1;
#X connect 3 0 4 0;
#X connect 4 0 5 0;
#X connect 5 0 11 0;
#X connect 5 1 6 0;
#X connect 6 0 7 0;
#X connect 7 0 8 0;
#X connect 8 0 9 0;
#X connect 9 0 10 0;
#X connect 10 0 14 0;
#X connect 11 0 12 0;
#X connect 12 0 13 0;
#X connect 13 0 14 0;
#X connect 14 0 15 0;
#X connect 15 0 16 0;
#X connect 16 0 17 0;
#X restore 95 42 pd scaleIOILength;
#X obj 238 587 f;
#X text 738 84 float dev = 0.15 - (abs(centre - (NIOIS / 2)) / (NIOIS / 2) * -0.15) \; // abitrary limits -- flat in centre and gradually becoming tighter \; \; \; for ( int i = 0 \; i < NIOIS \; i++ ) ioiGauss[i] = exp(-1 * (float(pow(i - centre \, 2) ) / 2) * float( pow(dev \, 2))) \;;
#N canvas 174 342 1133 300 calculateDeviation 0;
#X obj 79 15 inlet;
#X obj 79 39 t b f, f 27;
#X obj 79 63 array size \$0-IOIs;
#X floatatom 79 171 9 0 0 0 - - - 0;
#X text 12 171 nIOIs;
#X floatatom 79 218 5 0 0 0 - - - 0;
#X obj 79 241 outlet;
#X obj 79 87 / 5;
#X text 520 17 float dev = 0.5 - (abs(centre - (NIOIS / 2)) / (NIOIS / 2) * -0.5) \; // abitrary limits -- flat in centre and gradually becoming tighter \; \; \; for ( int i = 0 \; i < NIOIS \; i++ ) ioiGauss[i] = exp(-1 * (float(pow(i - centre \, 2) ) / 2) * float( pow(dev \, 2))) \;;
#X obj 79 194 expr 0.5 - (abs($f1*$f2 - ($f1/2))/($f1/2)*-0.5);
#X obj 79 111 int;
#X connect 0 0 1 0;
#X connect 1 0 2 0;
#X connect 1 1 9 1;
#X connect 2 0 7 0;
#X connect 3 0 9 0;
#X connect 5 0 6 0;
#X connect 7 0 10 0;
#X connect 9 0 5 0;
#X connect 10 0 3 0;
#X restore 291 323 pd calculateDeviation;
#N canvas 875 242 450 300 guassian 0;
#X obj 37 37 inlet;
#X obj 234 32 inlet;
#X obj 52 273 outlet;
#X obj 127 38 inlet;
#X text 31 10 i;
#X text 123 11 centre;
#X text 238 10 deviation;
#X obj 37 119 expr exp(-1 * ((pow($f1 - $f2 \, 2) ) / 2) * ( pow($f3 \, 2)));
#X connect 0 0 7 0;
#X connect 1 0 7 2;
#X connect 3 0 7 1;
#X connect 7 0 2 0;
#X restore 118 555 pd guassian;
#X obj 111 279 t f b f, f 10;
#X obj 231 310 *;
#X obj 118 579 *;
#X obj 29 423 t b b;
#X obj 29 477 outlet;
#X obj 192 438 sel 0 3 2 1 4, f 49;
#X obj 168 126 t b l;
#X obj 170 190 list;
#X obj 125 151 del 100;
#X connect 0 0 34 0;
#X connect 1 0 11 0;
#X connect 2 0 1 0;
#X connect 3 0 12 0;
#X connect 4 0 3 0;
#X connect 5 0 13 0;
#X connect 6 0 5 0;
#X connect 7 0 14 0;
#X connect 8 0 7 0;
#X connect 9 0 15 0;
#X connect 10 0 9 0;
#X connect 11 0 16 0;
#X connect 11 1 16 1;
#X connect 12 0 16 0;
#X connect 12 1 16 2;
#X connect 13 0 16 0;
#X connect 13 1 16 3;
#X connect 14 0 16 0;
#X connect 14 1 16 4;
#X connect 15 0 16 0;
#X connect 15 1 16 5;
#X connect 16 0 45 0;
#X connect 17 0 19 0;
#X connect 17 1 18 0;
#X connect 18 0 37 0;
#X connect 18 0 40 1;
#X connect 18 1 26 1;
#X connect 18 2 27 1;
#X connect 18 3 28 1;
#X connect 18 4 29 1;
#X connect 18 5 30 1;
#X connect 19 0 39 0;
#X connect 20 0 21 0;
#X connect 21 0 22 0;
#X connect 21 0 24 0;
#X connect 22 0 21 1;
#X connect 23 0 21 1;
#X connect 24 0 32 0;
#X connect 24 1 25 0;
#X connect 25 0 44 0;
#X connect 26 0 35 0;
#X connect 27 0 35 0;
#X connect 28 0 35 0;
#X connect 29 0 35 0;
#X connect 30 0 35 0;
#X connect 32 0 42 0;
#X connect 32 1 31 1;
#X connect 32 1 38 0;
#X connect 33 0 31 0;
#X connect 34 0 16 0;
#X connect 35 0 41 1;
#X connect 37 0 38 2;
#X connect 38 0 41 0;
#X connect 39 0 20 0;
#X connect 39 1 23 0;
#X connect 39 2 40 0;
#X connect 40 0 38 1;
#X connect 41 0 33 1;
#X connect 42 0 43 0;
#X connect 42 1 33 0;
#X connect 44 0 26 0;
#X connect 44 1 27 0;
#X connect 44 2 28 0;
#X connect 44 3 29 0;
#X connect 44 4 30 0;
#X connect 45 0 47 0;
#X connect 45 1 46 1;
#X connect 46 0 17 0;
#X connect 47 0 46 0;
#X restore 424 209 pd ioiLogic;
#N canvas 631 140 592 591 probLogic 0;
#X obj 219 6 inlet;
#X floatatom 184 127 9 0 0 0 - - - 0;
#X text 390 118 convert ioi list to array;
#X floatatom 275 168 9 0 0 0 - - - 0;
#X obj 275 144 array sum \$0-IOIs;
#X obj 184 103 array size \$0-IOIs;
#X obj 184 150 t f b, f 10;
#X obj 184 174 until;
#X obj 188 213 +;
#X obj 221 214 + 1;
#X msg 240 177 0;
#X obj 262 270 tabread \$0-IOIs;
#X obj 262 294 /;
#X obj 262 342 until;
#X obj 262 366 +;
#X obj 291 367 + 1;
#X obj 188 237 t f f;
#X obj 198 477 tabwrite \$0-probs;
#X obj 188 396 pack;
#X obj 127 26 bng 19 250 50 0 empty empty empty 0 -10 0 12 #fcfcfc #000000 #000000;
#X obj 188 420 swap;
#X obj 426 224 array define \$0-probs 10000;
#X f 14;
#X obj 262 318 * 10000;
#X obj 219 30 t b b b, f 31;
#X connect 0 0 23 0;
#X connect 1 0 6 0;
#X connect 3 0 12 1;
#X connect 4 0 3 0;
#X connect 5 0 1 0;
#X connect 6 0 7 0;
#X connect 6 1 10 0;
#X connect 7 0 8 0;
#X connect 8 0 9 0;
#X connect 8 0 16 0;
#X connect 9 0 8 1;
#X connect 10 0 8 1;
#X connect 10 0 14 1;
#X connect 11 0 12 0;
#X connect 12 0 22 0;
#X connect 13 0 14 0;
#X connect 14 0 15 0;
#X connect 14 0 18 0;
#X connect 15 0 14 1;
#X connect 16 0 11 0;
#X connect 16 1 18 1;
#X connect 18 0 20 0;
#X connect 19 0 5 0;
#X connect 20 0 17 0;
#X connect 20 1 17 1;
#X connect 22 0 13 0;
#X connect 23 1 5 0;
#X connect 23 2 4 0;
#X restore 424 233 pd probLogic;
#X obj 23 426 hsl 300 19 0 1 0 0 \$0-ioiLen empty ioiLen 150 10 0 12 #fcfcfc #000000 #000000 0 1;
#X obj 400 28 loadbang;
#X msg 400 52 1;
#X msg 441 56 0.5;
#X obj 484 66 bng 19 250 50 0 empty empty empty 0 -10 0 12 #fcfcfc #000000 #000000;
#N canvas 130 111 760 574 calculateMulytsToSync 0;
#X obj 66 5 inlet;
#X obj 262 85 array size \$0-IOIs;
#X obj 262 169 +;
#X obj 300 169 + 1;
#X msg 294 141 0;
#X obj 261 232 t f f;
#N canvas 72 53 603 394 ioi_val 0;
#X obj 94 14 inlet;
#X floatatom 93 36 5 0 0 0 - - - 0;
#X obj 60 101 / 5;
#X obj 60 125 int;
#X floatatom 60 149 5 0 0 0 - - - 0;
#X floatatom 59 195 5 0 0 0 - - - 0;
#X obj 59 171 expr 4 / pow(2 \, $f1);
#X obj 102 258 *;
#N canvas 205 178 548 401 fractionals 0;
#X obj 88 13 inlet;
#X obj 90 36 % 5;
#X floatatom 90 60 5 0 0 0 - - - 0;
#X obj 90 86 sel 0 1 2 3 4, f 30;
#X msg 90 107 1;
#X msg 214 109 2;
#X obj 214 133 / 3;
#X floatatom 159 232 5 0 0 0 - - - 0;
#X msg 131 108 4;
#X obj 131 132 / 5;
#X msg 172 109 3;
#X obj 172 133 / 2;
#X obj 254 135 / 7;
#X msg 254 111 4;
#X obj 159 255 outlet;
#X connect 0 0 1 0;
#X connect 1 0 2 0;
#X connect 2 0 3 0;
#X connect 3 0 4 0;
#X connect 3 1 8 0;
#X connect 3 2 10 0;
#X connect 3 3 5 0;
#X connect 3 4 13 0;
#X connect 4 0 7 0;
#X connect 5 0 6 0;
#X connect 6 0 7 0;
#X connect 7 0 14 0;
#X connect 8 0 9 0;
#X connect 9 0 7 0;
#X connect 10 0 11 0;
#X connect 11 0 7 0;
#X connect 12 0 7 0;
#X connect 13 0 12 0;
#X restore 129 88 pd fractionals;
#X obj 93 59 t f f;
#X obj 102 282 outlet;
#X connect 0 0 1 0;
#X connect 1 0 9 0;
#X connect 2 0 3 0;
#X connect 3 0 4 0;
#X connect 4 0 6 0;
#X connect 5 0 7 0;
#X connect 6 0 5 0;
#X connect 7 0 10 0;
#X connect 8 0 7 1;
#X connect 9 0 2 0;
#X connect 9 1 8 0;
#X restore 297 263 pd ioi_val;
#N canvas 205 178 548 401 mults 0;
#X obj 88 13 inlet;
#X obj 90 36 % 5;
#X floatatom 90 60 5 0 0 0 - - - 0;
#X obj 90 86 sel 0 1 2 3 4, f 30;
#X msg 90 107 1;
#X floatatom 159 232 5 0 0 0 - - - 0;
#X obj 159 255 outlet;
#X msg 131 108 5;
#X msg 172 109 2;
#X msg 214 109 3;
#X msg 254 111 7;
#X connect 0 0 1 0;
#X connect 1 0 2 0;
#X connect 2 0 3 0;
#X connect 3 0 4 0;
#X connect 3 1 7 0;
#X connect 3 2 8 0;
#X connect 3 3 9 0;
#X connect 3 4 10 0;
#X connect 4 0 5 0;
#X connect 5 0 6 0;
#X connect 7 0 5 0;
#X connect 8 0 5 0;
#X connect 9 0 5 0;
#X connect 10 0 5 0;
#X restore 226 262 pd mults;
#X obj 410 337 *, f 8;
#X floatatom 410 361 5 0 0 0 - - - 0;
#X floatatom 212 109 5 0 0 0 - - - 0;
#X floatatom 220 185 5 0 0 0 - - - 0;
#X obj 249 139 until;
#X obj 409 392 wrap;
#X obj 409 426 > 0;
#X obj 383 467 sel 0 1;
#X obj 262 193 t f b f, f 39;
#X msg 406 241 0;
#X obj 238 356 +;
#X obj 276 356 + 1;
#X obj 238 401 expr pow(2 \, $f1) * $f2;
#X obj 226 286 t b f;
#X obj 359 125 bng 19 250 50 0 empty empty empty 0 -10 0 12 #fcfcfc #000000 #000000;
#X obj 238 380 t f f;
#X msg 400 137 25;
#X obj 553 414 array define \$0-multsToSync;
#X obj 262 109 t f b f;
#X obj 402 105 array size \$0-multsToSync;
#X obj 326 491 tabwrite \$0-multsToSync;
#X obj 238 425 max;
#X obj 238 449 int;
#X msg 447 243 1;
#X obj 66 29 t b b;
#X obj 66 53 outlet;
#X connect 0 0 32 0;
#X connect 1 0 10 0;
#X connect 1 0 26 0;
#X connect 2 0 3 0;
#X connect 2 0 11 0;
#X connect 2 0 16 0;
#X connect 3 0 2 1;
#X connect 4 0 2 1;
#X connect 5 0 7 0;
#X connect 5 1 6 0;
#X connect 6 0 8 1;
#X connect 7 0 21 0;
#X connect 8 0 9 0;
#X connect 9 0 13 0;
#X connect 12 0 2 0;
#X connect 13 0 14 0;
#X connect 14 0 15 0;
#X connect 15 1 18 0;
#X connect 16 0 5 0;
#X connect 16 1 17 0;
#X connect 16 1 31 0;
#X connect 16 2 28 1;
#X connect 17 0 18 1;
#X connect 18 0 23 0;
#X connect 19 0 18 1;
#X connect 20 0 8 0;
#X connect 20 0 29 0;
#X connect 21 0 18 0;
#X connect 21 1 20 1;
#X connect 22 0 2 0;
#X connect 23 0 20 0;
#X connect 23 1 19 0;
#X connect 24 0 16 0;
#X connect 26 0 12 0;
#X connect 26 1 4 0;
#X connect 26 2 27 0;
#X connect 29 0 30 0;
#X connect 30 0 29 1;
#X connect 30 0 28 0;
#X connect 31 0 29 1;
#X connect 32 0 33 0;
#X connect 32 1 1 0;
#X restore 484 90 pd calculateMulytsToSync;
#N canvas 208 233 573 349 basIOIsToRepeat 0;
#X obj 34 5 inlet;
#X obj 207 27 array define \$0-baseIOIsToRepeat;
#X obj 34 29 array size \$0-IOIs;
#X floatatom 34 53 5 0 0 0 - - - 0;
#X obj 34 76 t f f, f 16;
#X obj 166 112 array size \$0-baseIOIsToRepeat;
#X obj 34 100 t f b, f 12;
#X obj 34 124 until;
#X obj 34 178 +;
#X obj 67 178 + 1;
#X msg 102 131 0;
#X obj 34 239 tabread \$0-multsToSync;
#N canvas 72 53 450 300 ioi_val 0;
#X obj 94 14 inlet;
#X floatatom 93 36 5 0 0 0 - - - 0;
#X obj 60 101 / 5;
#X obj 60 125 int;
#X floatatom 60 149 5 0 0 0 - - - 0;
#X floatatom 59 195 5 0 0 0 - - - 0;
#X obj 59 171 expr 4 / pow(2 \, $f1);
#X obj 102 258 *;
#N canvas 205 178 548 401 fractionals 0;
#X obj 88 13 inlet;
#X obj 90 36 % 5;
#X floatatom 90 60 5 0 0 0 - - - 0;
#X obj 90 86 sel 0 1 2 3 4, f 30;
#X msg 90 107 1;
#X msg 214 109 2;
#X obj 214 133 / 3;
#X floatatom 159 232 5 0 0 0 - - - 0;
#X msg 131 108 4;
#X obj 131 132 / 5;
#X msg 172 109 3;
#X obj 172 133 / 2;
#X obj 254 135 / 7;
#X msg 254 111 4;
#X obj 159 255 outlet;
#X connect 0 0 1 0;
#X connect 1 0 2 0;
#X connect 2 0 3 0;
#X connect 3 0 4 0;
#X connect 3 1 8 0;
#X connect 3 2 10 0;
#X connect 3 3 5 0;
#X connect 3 4 13 0;
#X connect 4 0 7 0;
#X connect 5 0 6 0;
#X connect 6 0 7 0;
#X connect 7 0 14 0;
#X connect 8 0 9 0;
#X connect 9 0 7 0;
#X connect 10 0 11 0;
#X connect 11 0 7 0;
#X connect 12 0 7 0;
#X connect 13 0 12 0;
#X restore 129 88 pd fractionals;
#X obj 93 59 t f f;
#X obj 102 282 outlet;
#X connect 0 0 1 0;
#X connect 1 0 9 0;
#X connect 2 0 3 0;
#X connect 3 0 4 0;
#X connect 4 0 6 0;
#X connect 5 0 7 0;
#X connect 6 0 5 0;
#X connect 7 0 10 0;
#X connect 8 0 7 1;
#X connect 9 0 2 0;
#X connect 9 1 8 0;
#X restore 208 238 pd ioi_val;
#X obj 34 202 t f f, f 46;
#X obj 34 263 *;
#X floatatom 34 287 5 0 0 0 - - - 0;
#X obj 38 320 tabwrite \$0-baseIOIsToRepeat;
#X connect 0 0 2 0;
#X connect 2 0 3 0;
#X connect 3 0 4 0;
#X connect 4 0 6 0;
#X connect 4 1 5 0;
#X connect 6 0 7 0;
#X connect 6 1 10 0;
#X connect 7 0 8 0;
#X connect 8 0 9 0;
#X connect 8 0 13 0;
#X connect 9 0 8 1;
#X connect 10 0 8 1;
#X connect 11 0 14 0;
#X connect 12 0 14 1;
#X connect 13 0 11 0;
#X connect 13 1 12 0;
#X connect 13 1 16 1;
#X connect 14 0 15 0;
#X connect 15 0 16 0;
#X restore 484 114 pd basIOIsToRepeat;
#X obj 578 260 tabread \$0-baseIOIsToRepeat;
#X floatatom 579 220 5 0 0 0 - - - 0;
#X floatatom 578 284 5 0 0 0 - - - 0;
#X obj 680 209 tabread \$0-multsToSync;
#X floatatom 680 233 5 0 0 0 - - - 0;
#N canvas 72 53 603 394 ioi_val 0;
#X obj 94 14 inlet;
#X floatatom 93 36 5 0 0 0 - - - 0;
#X obj 60 101 / 5;
#X obj 60 125 int;
#X floatatom 60 149 5 0 0 0 - - - 0;
#X floatatom 59 195 5 0 0 0 - - - 0;
#X obj 59 171 expr 4 / pow(2 \, $f1);
#X obj 102 258 *;
#N canvas 205 178 548 401 fractionals 0;
#X obj 88 13 inlet;
#X obj 90 36 % 5;
#X floatatom 90 60 5 0 0 0 - - - 0;
#X obj 90 86 sel 0 1 2 3 4, f 30;
#X msg 90 107 1;
#X msg 214 109 2;
#X obj 214 133 / 3;
#X floatatom 159 232 5 0 0 0 - - - 0;
#X msg 131 108 4;
#X obj 131 132 / 5;
#X msg 172 109 3;
#X obj 172 133 / 2;
#X obj 254 135 / 7;
#X msg 254 111 4;
#X obj 159 255 outlet;
#X connect 0 0 1 0;
#X connect 1 0 2 0;
#X connect 2 0 3 0;
#X connect 3 0 4 0;
#X connect 3 1 8 0;
#X connect 3 2 10 0;
#X connect 3 3 5 0;
#X connect 3 4 13 0;
#X connect 4 0 7 0;
#X connect 5 0 6 0;
#X connect 6 0 7 0;
#X connect 7 0 14 0;
#X connect 8 0 9 0;
#X connect 9 0 7 0;
#X connect 10 0 11 0;
#X connect 11 0 7 0;
#X connect 12 0 7 0;
#X connect 13 0 12 0;
#X restore 129 88 pd fractionals;
#X obj 93 59 t f f;
#X obj 102 282 outlet;
#X connect 0 0 1 0;
#X connect 1 0 9 0;
#X connect 2 0 3 0;
#X connect 3 0 4 0;
#X connect 4 0 6 0;
#X connect 5 0 7 0;
#X connect 6 0 5 0;
#X connect 7 0 10 0;
#X connect 8 0 7 1;
#X connect 9 0 2 0;
#X connect 9 1 8 0;
#X restore 481 268 pd ioi_val;
#X floatatom 481 292 5 0 0 0 - - - 0;
#X connect 6 0 7 0;
#X connect 9 0 10 0;
#X connect 9 0 11 0;
#X connect 9 0 12 0;
#X connect 10 0 1 0;
#X connect 11 0 8 0;
#X connect 12 0 13 0;
#X connect 13 0 14 0;
#X connect 15 0 17 0;
#X connect 16 0 15 0;
#X connect 16 0 18 0;
#X connect 16 0 20 0;
#X connect 18 0 19 0;
#X connect 20 0 21 0;
#X coords 0 -1 1 1 350 450 1 10 10;
#X restore 1083 32 pd probLogic;
#X obj 456 187 -~;
#X obj 628 210 noise~;
#X msg 750 216 range 0 \$1;
#N canvas 208 233 696 300 baseIOItoBarChange 0;
#X obj 37 37 inlet~;
#X obj 67 125 +~;
#X obj 576 27 inlet~;
#X obj 67 149 outlet~;
#X obj 90 75 fexpr~ if( ($x1[0] <0.5 && $x1[-1]>= 0.5) \, ($y1[-1] + 1)%$x2[0] \, $y1[-1]), f 75;
#X connect 0 0 1 0;
#X connect 0 0 4 0;
#X connect 1 0 3 0;
#X connect 2 0 4 1;
#X connect 4 0 1 1;
#X restore 433 115 pd baseIOItoBarChange;
#N canvas 208 233 450 300 baseIOItoBarChange 0;
#X obj 37 37 inlet~;
#X obj 90 75 fexpr~ if($x1[0] <0.5 && $x1[-1]>= 0.5 \, ($y1[-1] + 1)%$x2[0] \, $y1[-1]), f 41;
#X obj 67 125 +~;
#X obj 351 26 inlet~;
#X obj 67 149 outlet~;
#X connect 0 0 2 0;
#X connect 0 0 1 0;
#X connect 1 0 2 1;
#X connect 2 0 4 0;
#X connect 3 0 1 1;
#X restore 174 522 pd baseIOItoBarChange;
#X obj 88 666 threshold~ 0.5 0 0.5 0;
#X obj 244 697 bng 19 250 50 0 empty empty empty 0 -10 0 12 #fcfcfc #000000 #000000;
#X obj 131 583 wrap~;
#X obj 103 717 outlet;
#X obj 173 548 /~, f 28;
#X obj 629 247 +~ 1;
#X obj 629 271 *~ 0.5;
#X obj 630 362 tabread~ \$0-probs;
#X obj 630 297 *~ 10000;
#X obj 630 328 +~ 0;
#X obj 774 404 tabread~ \$0-multsToSync;
#X obj 291 376 +~ 0;
#N canvas 92 117 733 446 ioiVal 0;
#X obj 322 32 inlet~;
#X obj 369 168 expr~ $v1%5;
#X obj 390 278 *~;
#N canvas 990 503 450 300 bin 0;
#X obj 37 37 inlet~;
#X obj 155 97 sig~ 1;
#X obj 49 122 *~;
#X obj 41 66 expr~ if($v1 == 0 \, 1 \, 0);
#X obj 32 162 outlet~;
#X connect 0 0 3 0;
#X connect 1 0 2 1;
#X connect 2 0 4 0;
#X connect 3 0 2 0;
#X restore 366 218 pd bin;
#X obj 94 185 expr~ 4 / pow(2 \, int($v1/5));
#N canvas 990 532 450 300 quin 0;
#X obj 37 37 inlet~;
#X obj 103 34 sig~ 4;
#X obj 103 58 /~ 5;
#X obj 95 131 *~;
#X obj 55 90 expr~ if($v1 == 1 \, 1 \, 0);
#X obj 95 155 outlet~;
#X connect 0 0 4 0;
#X connect 1 0 2 0;
#X connect 2 0 3 1;
#X connect 3 0 5 0;
#X connect 4 0 3 0;
#X restore 445 218 pd quin;
#N canvas 537 181 450 300 dot 0;
#X obj 37 37 inlet~;
#X obj 127 93 sig~ 3;
#X obj 34 134 *~;
#X obj 40 71 expr~ if($v1 == 2 \, 1 \, 0);
#X obj 127 117 /~ 2;
#X obj 34 188 outlet~;
#X connect 0 0 3 0;
#X connect 1 0 4 0;
#X connect 2 0 5 0;
#X connect 3 0 2 0;
#X connect 4 0 2 1;
#X restore 510 218 pd dot;
#N canvas 990 572 450 300 sep 0;
#X obj 37 37 inlet~;
#X obj 117 129 /~ 7;
#X obj 45 134 *~;
#X obj 44 76 expr~ if($v1 == 4 \, 1 \, 0);
#X obj 45 158 outlet~;
#X obj 117 105 sig~ 4;
#X connect 0 0 3 0;
#X connect 1 0 2 1;
#X connect 2 0 4 0;
#X connect 3 0 2 0;
#X connect 5 0 1 0;
#X restore 635 218 pd sep;
#N canvas 14 572 450 300 trip 0;
#X obj 37 37 inlet~;
#X obj 110 100 sig~ 2;
#X obj 33 128 *~;
#X obj 110 124 /~ 3;
#X obj 36 68 expr~ if($v1 == 3 \, 1 \, 0);
#X obj 27 151 outlet~;
#X connect 0 0 4 0;
#X connect 1 0 3 0;
#X connect 2 0 5 0;
#X connect 3 0 2 1;
#X connect 4 0 2 0;
#X restore 566 218 pd trip;
#X obj 325 64 +~ 0;
#X obj 390 302 outlet~;
#X connect 0 0 9 0;
#X connect 1 0 3 0;
#X connect 1 0 5 0;
#X connect 1 0 6 0;
#X connect 1 0 7 0;
#X connect 1 0 8 0;
#X connect 2 0 10 0;
#X connect 3 0 2 1;
#X connect 4 0 2 0;
#X connect 5 0 2 1;
#X connect 6 0 2 1;
#X connect 7 0 2 1;
#X connect 8 0 2 1;
#X connect 9 0 1 0;
#X connect 9 0 4 0;
#X restore 633 405 pd ioiVal;
#X obj 757 430 *~;
#X obj 291 340 delread~ \$0-del1 1;
#X obj 291 304 delwrite~ \$0-del1 2;
#X obj 444 617 expr~ if($v1 < 1 \, 1 \, 0.5);
#X obj 444 704 outlet~;
#X obj 293 439 fexpr~ if($x1[0] > 0 \, $x2[0] \, $y1[-1]), f 24;
#X obj 548 460 fexpr~ if($x1[0] > 0 \, $x2[0] \, $y1[-1]);
#X obj 773 318 tabread~ \$0-baseIOIsToRepeat;
#X obj 903 137 threshold~ 0.5 0 0.5 0;
#X obj 860 176 snapshot~;
#X obj 860 238 int;
#X floatatom 860 262 5 0 0 0 - - - 0;
#X obj 284 272 fexpr~ if($x1[0] < 0.5 && $x1[-1] >= 0.5 \, 1 \, 0);
#X obj 45 241 block~ 1;
#X text 36 269 This causes error messages \; but still seems to work;
#X obj 860 200 + 1;
#X obj 444 641 lop~ 10;
#X obj 36 472 snapshot~;
#X connect 2 0 16 0;
#X connect 2 0 17 0;
#X connect 2 0 39 0;
#X connect 3 0 6 0;
#X connect 4 0 5 0;
#X connect 7 0 9 0;
#X connect 9 0 11 0;
#X connect 9 0 15 0;
#X connect 11 0 13 0;
#X connect 11 0 16 1;
#X connect 13 0 40 0;
#X connect 14 0 23 0;
#X connect 16 0 13 1;
#X connect 16 0 34 0;
#X connect 17 0 22 0;
#X connect 17 0 43 0;
#X connect 18 1 19 0;
#X connect 18 1 21 0;
#X connect 20 0 18 0;
#X connect 22 0 20 0;
#X connect 23 0 24 0;
#X connect 24 0 26 0;
#X connect 25 0 28 0;
#X connect 25 0 30 0;
#X connect 26 0 27 0;
#X connect 27 0 25 0;
#X connect 28 0 31 1;
#X connect 29 0 36 0;
#X connect 29 0 37 0;
#X connect 30 0 31 0;
#X connect 30 0 36 1;
#X connect 31 0 37 1;
#X connect 32 0 29 0;
#X connect 34 0 47 0;
#X connect 36 0 22 1;
#X connect 37 0 17 1;
#X connect 39 1 40 0;
#X connect 40 0 46 0;
#X connect 41 0 42 0;
#X connect 43 0 33 0;
#X connect 46 0 41 0;
#X connect 47 0 35 0;
