#N canvas 0 25 1440 847 12;
#X obj 1029 271 vsl 19 162 0 127 0 0 empty empty empty 0 -9 0 12 #fcfcfc #000000 #000000 0 1;
#X obj 1029 443 / 127;
#X obj 1029 467 pack 0 5;
#X obj 1029 491 line~;
#X obj 1028 636 *~;
#X obj 1107 699 dac~;
#X floatatom 645 149 5 0 0 0 - - - 0;
#X obj 35 274 hradio 19 1 0 10 empty empty empty 0 -10 0 12 #fcfcfc #000000 #000000 0;
#X obj 657 72 sampleLoader samp;
#X obj 802 168 vsl 19 162 0 127 0 0 empty empty empty 0 -9 0 12 #fcfcfc #000000 #000000 0 1;
#X obj 802 338 / 127;
#X obj 692 217 s~ modF;
#X obj 236 235 tgl 19 0 empty empty demod 0 -10 0 12 #fcfcfc #000000 #000000 0 1;
#X obj 237 260 s demod;
#X obj 930 552 catch~ out;
#X obj 35 298 s modType;
#N canvas 139 180 684 547 SSB 0;
#X obj 426 142 == 1;
#X obj 83 316 r demod;
#X obj 83 340 == 0;
#X obj 40 371 *~ 1;
#X obj 329 347 *;
#X obj 369 293 r demod;
#X obj 369 317 t b f;
#X obj 177 376 throw~ out;
#X obj 27 406 throw~ out;
#X obj 426 104 r modType;
#X obj 515 118 tgl 19 0 empty empty empty 0 -10 0 12 #fcfcfc #000000 #000000 0 1;
#X obj 66 14 r~ sig;
#X obj 318 291 == 1;
#X obj 313 253 r modType;
#X obj 515 142 outlet;
#N canvas 412 523 450 300 SSB-demod 0;
#X obj 35 37 inlet~;
#X obj 330 34 inlet;
#X obj 35 247 outlet~;
#X obj 357 107 switch~;
#X obj 355 64 tgl 19 0 empty empty empty 0 -10 0 12 #fcfcfc #000000 #000000 0 1;
#X obj 31 98 SSB, f 9;
#X obj 169 71 r~ modF;
#X obj 169 95 *~ -1;
#X connect 0 0 5 0;
#X connect 1 0 4 0;
#X connect 4 0 3 0;
#X connect 5 1 2 0;
#X connect 6 0 7 0;
#X connect 7 0 5 1;
#X restore 178 346 pd SSB-demod;
#X obj 86 197 SSB, f 9;
#X obj 426 171 switch~;
#X obj 79 265 +~;
#X obj 345 76 r~ modF;
#N canvas 412 523 450 300 SSB-demod 0;
#X obj 35 37 inlet~;
#X obj 166 155 cos~;
#X obj 221 110 +~ -0.25;
#X obj 166 73 phasor~;
#X obj 35 160 hilbert_sjf;
#X obj 221 134 wrap~;
#X obj 221 155 cos~;
#X obj 330 34 inlet;
#X obj 35 247 outlet~;
#X obj 330 81 switch~;
#X obj 330 58 tgl 19 0 empty empty empty 0 -10 0 12 #fcfcfc #000000 #000000 0 1;
#X obj 325 482 r~ modF;
#X obj 166 47 r~ modF;
#X obj 35 197 *~;
#X obj 88 197 *~;
#X obj 35 223 +~, f 8;
#X connect 0 0 4 0;
#X connect 1 0 13 1;
#X connect 2 0 5 0;
#X connect 3 0 1 0;
#X connect 3 0 2 0;
#X connect 4 0 13 0;
#X connect 4 1 14 0;
#X connect 5 0 6 0;
#X connect 6 0 14 1;
#X connect 7 0 10 0;
#X connect 10 0 9 0;
#X connect 12 0 3 0;
#X connect 13 0 15 0;
#X connect 14 0 15 1;
#X connect 15 0 8 0;
#X restore 381 407 pd SSB-demod;
#X obj 479 209 tgl 19 0 empty empty empty 0 -10 0 12 #fcfcfc #000000 #000000 0 1;
#X obj 479 233 metro 5;
#X obj 479 257 snapshot~;
#X floatatom 479 281 5 0 0 0 - - - 0;
#X obj 138 6 r modF;
#X obj 273 30 < 0, f 7;
#X obj 273 54 == 0;
#X obj 15 109 lop~;
#X obj 14 79 *~;
#X obj 95 101 hip~;
#X obj 95 63 *~;
#X obj 138 30 expr 10000-$f1*2 \; $f1*4;
#X connect 0 0 10 0;
#X connect 0 0 17 0;
#X connect 1 0 2 0;
#X connect 2 0 3 1;
#X connect 3 0 8 0;
#X connect 4 0 15 1;
#X connect 5 0 6 0;
#X connect 6 0 4 0;
#X connect 6 1 4 1;
#X connect 9 0 0 0;
#X connect 10 0 14 0;
#X connect 11 0 29 0;
#X connect 11 0 31 0;
#X connect 12 0 4 0;
#X connect 13 0 12 0;
#X connect 15 0 7 0;
#X connect 16 1 18 0;
#X connect 18 0 3 0;
#X connect 18 0 15 0;
#X connect 19 0 16 1;
#X connect 21 0 22 0;
#X connect 22 0 23 0;
#X connect 23 0 24 0;
#X connect 25 0 26 0;
#X connect 25 0 32 0;
#X connect 26 0 27 0;
#X connect 26 0 31 1;
#X connect 27 0 29 1;
#X connect 28 0 16 0;
#X connect 29 0 28 0;
#X connect 30 0 16 0;
#X connect 31 0 30 0;
#X connect 32 0 28 1;
#X connect 32 1 30 1;
#X restore 104 376 pd SSB;
#N canvas 382 407 480 400 rm 0;
#X obj 160 83 == 2;
#N canvas 332 25 450 300 rm 0;
#X obj 35 37 inlet~;
#X obj 166 155 cos~;
#X obj 35 197 *~;
#X obj 166 73 phasor~;
#X obj 330 34 inlet;
#X obj 330 58 t f f;
#X obj 35 247 outlet~;
#X obj 357 107 switch~;
#X obj 166 97 -~ 0.25;
#X obj 166 121 wrap~;
#X obj 163 26 r~ modF;
#X obj 166 179 outlet~;
#X connect 0 0 2 0;
#X connect 1 0 2 1;
#X connect 1 0 11 0;
#X connect 2 0 6 0;
#X connect 3 0 8 0;
#X connect 4 0 5 0;
#X connect 5 1 7 0;
#X connect 8 0 9 0;
#X connect 9 0 1 0;
#X connect 10 0 3 0;
#X restore 103 118 pd rm;
#X obj 159 55 r modType;
#X obj 160 107 tgl 19 0 empty empty empty 0 -10 0 12 #fcfcfc #000000 #000000 0 1;
#X obj 83 82 r~ sig;
#X obj 219 165 r demod;
#X obj 219 189 == 0;
#X obj 148 166 *~ 1;
#X obj 135 201 throw~ out;
#X obj 260 314 *;
#X obj 300 260 r demod;
#X obj 300 284 t b f;
#X obj 244 220 r modType;
#X obj 249 258 == 2;
#X obj 51 289 throw~ out;
#X obj 260 338 tgl 19 0 empty empty empty 0 -10 0 12 #fcfcfc #000000 #000000 0 1;
#X obj 219 213 tgl 19 0 empty empty empty 0 -10 0 12 #fcfcfc #000000 #000000 0 1;
#N canvas 172 -594 450 300 rm-demod 0;
#X obj 35 37 inlet~;
#X obj 35 197 *~;
#X obj 330 34 inlet;
#X obj 330 58 t f f;
#X obj 35 247 outlet~;
#X obj 357 107 switch~;
#X obj 166 179 expr~ 1/$v1;
#X obj 330 82 tgl 19 0 empty empty empty 0 -10 0 12 #fcfcfc #000000 #000000 0 1;
#X obj 163 26 inlet~;
#X connect 0 0 1 0;
#X connect 1 0 4 0;
#X connect 2 0 3 0;
#X connect 3 0 7 0;
#X connect 3 1 5 0;
#X connect 6 0 1 1;
#X connect 8 0 6 0;
#X restore 51 256 pd rm-demod;
#X obj 281 43 tgl 19 0 empty empty empty 0 -10 0 12 #fcfcfc #000000 #000000 0 1;
#X obj 281 67 outlet;
#X connect 0 0 1 1;
#X connect 0 0 3 0;
#X connect 0 0 18 0;
#X connect 1 0 7 0;
#X connect 1 0 17 0;
#X connect 1 1 17 1;
#X connect 2 0 0 0;
#X connect 4 0 1 0;
#X connect 5 0 6 0;
#X connect 6 0 7 1;
#X connect 6 0 16 0;
#X connect 7 0 8 0;
#X connect 9 0 15 0;
#X connect 9 0 17 2;
#X connect 10 0 11 0;
#X connect 11 0 9 0;
#X connect 11 1 9 1;
#X connect 12 0 13 0;
#X connect 13 0 9 0;
#X connect 17 0 14 0;
#X connect 18 0 19 0;
#X restore 169 376 pd rm;
#N canvas 588 211 650 489 am 0;
#N canvas 295 320 450 300 am 0;
#X obj 35 37 inlet~;
#X obj 163 132 cos~;
#X obj 35 197 *~;
#X obj 163 50 phasor~;
#X obj 330 34 inlet;
#X obj 330 58 t f f;
#X obj 35 247 outlet~;
#X obj 357 107 switch~;
#X obj 163 98 wrap~;
#X obj 243 27 inlet~;
#X obj 163 156 *~, f 10;
#X obj 163 180 +~ 1;
#X obj 163 74 +~ 0.75;
#X obj 163 26 r~ modF;
#X obj 163 204 outlet~;
#X connect 0 0 2 0;
#X connect 1 0 10 0;
#X connect 2 0 6 0;
#X connect 3 0 12 0;
#X connect 4 0 5 0;
#X connect 5 1 7 0;
#X connect 8 0 1 0;
#X connect 9 0 10 1;
#X connect 10 0 11 0;
#X connect 11 0 2 1;
#X connect 11 0 14 0;
#X connect 12 0 8 0;
#X connect 13 0 3 0;
#X restore 260 184 pd am;
#X obj 307 126 == 3;
#X obj 287 86 r modType;
#X obj 307 150 tgl 19 0 empty empty empty 0 -10 0 12 #fcfcfc #000000 #000000 0 1;
#X obj 149 139 r~ sig;
#X obj 355 213 r demod;
#X obj 355 237 == 0;
#X obj 312 257 *~ 1;
#X obj 299 292 throw~ out;
#N canvas 295 320 450 300 am-demod 0;
#X obj 35 37 inlet~;
#X obj 35 197 *~;
#X obj 330 34 inlet;
#X obj 330 58 t f f;
#X obj 35 247 outlet~;
#X obj 357 107 switch~;
#X obj 136 39 inlet~;
#X obj 136 63 expr~ 1/$v1;
#X connect 0 0 1 0;
#X connect 1 0 4 0;
#X connect 2 0 3 0;
#X connect 3 1 5 0;
#X connect 6 0 7 0;
#X connect 7 0 1 1;
#X restore 84 304 pd am-demod;
#X obj 243 389 *;
#X obj 283 335 r demod;
#X obj 283 359 t b f;
#X obj 227 295 r modType;
#X obj 243 413 tgl 19 0 empty empty empty 0 -10 0 12 #fcfcfc #000000 #000000 0 1;
#X obj 232 333 == 3;
#X obj 84 342 throw~ out;
#X obj 427 70 tgl 19 0 empty empty empty 0 -10 0 12 #fcfcfc #000000 #000000 0 1;
#X obj 427 94 outlet;
#X obj 202 51 r~ am_depth;
#X connect 0 0 9 0;
#X connect 0 0 7 0;
#X connect 0 1 9 1;
#X connect 1 0 0 2;
#X connect 1 0 3 0;
#X connect 1 0 17 0;
#X connect 2 0 1 0;
#X connect 4 0 0 0;
#X connect 5 0 6 0;
#X connect 6 0 7 1;
#X connect 7 0 8 0;
#X connect 9 0 16 0;
#X connect 10 0 14 0;
#X connect 10 0 9 2;
#X connect 11 0 12 0;
#X connect 12 0 10 0;
#X connect 12 1 10 1;
#X connect 13 0 15 0;
#X connect 15 0 10 0;
#X connect 17 0 18 0;
#X connect 19 0 0 1;
#X restore 226 376 pd am;
#X obj 1122 541 catch~ outL;
#X obj 1250 545 catch~ outR;
#X obj 1122 565 *~;
#X obj 1250 569 *~;
#N canvas 271 232 660 476 SSB_phasor 0;
#X obj 461 44 r modType;
#X obj 291 24 r~ sig;
#X obj 461 73 == 4;
#X obj 461 102 switch~;
#X obj 340 187 +~;
#X obj 410 187 +~;
#X obj 313 237 throw~ outL;
#X obj 405 236 throw~ outR;
#X obj 518 102 tgl 19 0 empty empty empty 0 -10 0 12 #fcfcfc #000000 #000000 0 1;
#X obj 518 126 outlet;
#X obj 399 85 r~ rotF;
#X obj 392 129 SSB;
#X obj 168 61 r~ sig2;
#X obj 150 143 +~;
#X obj 187 107 SSB;
#X obj 246 95 *~ -1;
#X connect 0 0 2 0;
#X connect 1 0 4 0;
#X connect 1 0 5 0;
#X connect 1 0 11 0;
#X connect 2 0 3 0;
#X connect 2 0 8 0;
#X connect 5 0 7 0;
#X connect 8 0 9 0;
#X connect 10 0 11 1;
#X connect 10 0 15 0;
#X connect 11 0 4 1;
#X connect 11 1 5 1;
#X connect 12 0 13 0;
#X connect 12 0 14 0;
#X connect 13 0 6 0;
#X connect 14 1 13 1;
#X connect 15 0 14 1;
#X restore 279 376 pd SSB_phasor;
#X obj 885 118 vsl 19 162 0 127 0 0 empty empty empty 0 -9 0 12 #fcfcfc #000000 #000000 0 1;
#X obj 885 288 / 127;
#X floatatom 885 312 5 0 0 0 - - - 0;
#X obj 885 335 sig~ 0;
#X obj 885 359 s~ rotRatio;
#N canvas 353 378 610 473 SSB_vib 0;
#X obj 476 74 r modType;
#X obj 481 136 tgl 19 0 empty empty empty 0 -10 0 12 #fcfcfc #000000 #000000 0 1;
#X obj 481 112 == 7;
#X obj 360 202 vd~ vib;
#X obj 360 25 r~ vibRate;
#X obj 360 150 *~ 10;
#X obj 360 174 +~ 10;
#X obj 360 73 +~ 0.75;
#X obj 360 97 wrap~;
#X obj 360 49 phasor~;
#X obj 360 121 cos~;
#X obj 570 88 tgl 19 0 empty empty empty 0 -10 0 12 #fcfcfc #000000 #000000 0 1;
#X obj 570 112 outlet;
#X obj 78 57 r~ sig;
#X obj 78 84 SSB, f 9;
#X obj 216 57 r~ modF;
#X obj 76 115 expr~ if($v3<0 \, $v1 \, $v2);
#X obj 481 160 switch~;
#X obj 76 151 delwrite~ vib 30;
#X obj 358 270 throw~ out;
#N canvas 412 523 450 300 SSB-demod 0;
#X obj 35 37 inlet~;
#X obj 330 34 inlet;
#X obj 35 247 outlet~;
#X obj 357 107 switch~;
#X obj 355 64 tgl 19 0 empty empty empty 0 -10 0 12 #fcfcfc #000000 #000000 0 1;
#X obj 31 98 SSB, f 9;
#X obj 169 71 r~ modF;
#X obj 29 129 expr~ if($v3>=0 \, $v1 \, $v2);
#X connect 0 0 5 0;
#X connect 1 0 4 0;
#X connect 4 0 3 0;
#X connect 5 0 7 0;
#X connect 5 1 7 1;
#X connect 6 0 7 2;
#X connect 6 0 5 1;
#X connect 7 0 2 0;
#X restore 359 240 pd SSB-demod;
#X connect 0 0 2 0;
#X connect 1 0 17 0;
#X connect 2 0 1 0;
#X connect 2 0 11 0;
#X connect 2 0 20 1;
#X connect 3 0 20 0;
#X connect 4 0 9 0;
#X connect 5 0 6 0;
#X connect 6 0 3 0;
#X connect 7 0 8 0;
#X connect 8 0 10 0;
#X connect 9 0 7 0;
#X connect 10 0 5 0;
#X connect 11 0 12 0;
#X connect 13 0 14 0;
#X connect 14 0 16 0;
#X connect 14 1 16 1;
#X connect 15 0 16 2;
#X connect 15 0 14 1;
#X connect 16 0 18 0;
#X connect 20 0 19 0;
#X restore 591 377 pd SSB_vib;
#X floatatom 632 242 5 0 0 0 - - - 0;
#X obj 632 291 s~ vibRate;
#X obj 104 400 tgl 19 0 empty empty empty 0 -10 0 12 #fcfcfc #000000 #000000 0 1;
#X obj 169 400 tgl 19 0 empty empty empty 0 -10 0 12 #fcfcfc #000000 #000000 0 1;
#X obj 226 400 tgl 19 0 empty empty empty 0 -10 0 12 #fcfcfc #000000 #000000 0 1;
#X obj 279 400 tgl 19 0 empty empty empty 0 -10 0 12 #fcfcfc #000000 #000000 0 1;
#X obj 382 400 tgl 19 0 empty empty empty 0 -10 0 12 #fcfcfc #000000 #000000 0 1;
#X obj 483 401 tgl 19 0 empty empty empty 0 -10 0 12 #fcfcfc #000000 #000000 0 1;
#X obj 591 401 tgl 19 0 empty empty empty 0 -10 0 12 #fcfcfc #000000 #000000 0 1;
#X obj 947 137 s rotXover;
#X floatatom 947 84 5 0 0 0 - - - 0;
#X obj 676 400 tgl 19 0 empty empty empty 0 -10 0 12 #fcfcfc #000000 #000000 0 1;
#N canvas 353 378 752 473 SSB_filt 0;
#N canvas 295 320 450 300 SSB 0;
#X obj 35 37 inlet~;
#X obj 166 155 cos~;
#X obj 221 110 +~ -0.25;
#X obj 35 197 *~;
#X obj 88 197 *~;
#X obj 166 73 phasor~;
#X obj 35 223 -~;
#X obj 35 160 hilbert_sjf;
#X obj 221 134 wrap~;
#X obj 221 158 cos~;
#X obj 330 34 inlet;
#X obj 35 247 outlet~;
#X obj 357 107 switch~;
#X obj 355 64 tgl 19 0 empty empty empty 0 -10 0 12 #fcfcfc #000000 #000000 0 1;
#X obj 325 482 r~ modF;
#X obj 163 26 r~ modF;
#X connect 0 0 7 0;
#X connect 1 0 3 1;
#X connect 2 0 8 0;
#X connect 3 0 6 0;
#X connect 4 0 6 1;
#X connect 5 0 1 0;
#X connect 5 0 2 0;
#X connect 6 0 11 0;
#X connect 7 0 3 0;
#X connect 7 1 4 0;
#X connect 8 0 9 0;
#X connect 9 0 4 1;
#X connect 10 0 13 0;
#X connect 13 0 12 0;
#X connect 15 0 5 0;
#X restore 119 235 pd SSB;
#X obj 139 402 throw~ out;
#X obj 187 29 r modType;
#X obj 192 91 tgl 19 0 empty empty empty 0 -10 0 12 #fcfcfc #000000 #000000 0 1;
#X obj 102 58 r~ sig;
#X obj 281 43 tgl 19 0 empty empty empty 0 -10 0 12 #fcfcfc #000000 #000000 0 1;
#X obj 281 67 outlet;
#X obj 192 67 == 8;
#X obj 351 127 phasor~;
#X obj 351 284 expr~ $v2*pow(2 \, $v1);
#X obj 351 97 r~ filtSweepRate;
#X obj 517 141 r~ filtSweepCentre;
#X obj 351 151 +~ 0.75;
#X obj 351 175 wrap~;
#X obj 351 199 cos~;
#X obj 120 316 vcf~ 5, f 66;
#N canvas 412 523 450 300 SSB-demod 0;
#X obj 35 37 inlet~;
#X obj 330 34 inlet;
#X obj 35 247 outlet~;
#X obj 357 107 switch~;
#X obj 355 64 tgl 19 0 empty empty empty 0 -10 0 12 #fcfcfc #000000 #000000 0 1;
#X obj 31 98 SSB, f 9;
#X obj 169 71 r~ modF;
#X obj 29 129 expr~ if($v3>=0 \, $v1 \, $v2);
#X connect 0 0 5 0;
#X connect 1 0 4 0;
#X connect 4 0 3 0;
#X connect 5 0 7 0;
#X connect 5 1 7 1;
#X connect 6 0 7 2;
#X connect 6 0 5 1;
#X connect 7 0 2 0;
#X restore 123 348 pd SSB-demod;
#X connect 0 0 15 0;
#X connect 2 0 7 0;
#X connect 4 0 0 0;
#X connect 5 0 6 0;
#X connect 7 0 3 0;
#X connect 7 0 0 1;
#X connect 7 0 5 0;
#X connect 7 0 16 1;
#X connect 8 0 12 0;
#X connect 9 0 15 1;
#X connect 10 0 8 0;
#X connect 11 0 9 1;
#X connect 12 0 13 0;
#X connect 13 0 14 0;
#X connect 14 0 9 0;
#X connect 15 0 16 0;
#X connect 16 0 1 0;
#X restore 676 376 pd SSB_filt;
#X floatatom 396 505 19 0 0 0 - - - 0;
#X floatatom 396 455 19 0 0 0 - - - 0;
#X obj 396 481 expr exp(-1/(44100*($f1/1000)));
#X floatatom 643 505 19 0 0 0 - - - 0;
#X floatatom 643 455 19 0 0 0 - - - 0;
#X obj 643 481 expr exp(-1/(44100*($f1/1000)));
#N canvas 217 71 824 482 envFol1 0;
#X obj 78 60 r~ sig;
#X obj 78 420 *~;
#X obj 78 444 throw~ out;
#N canvas 418 212 463 365 tone 0;
#X obj 86 234 *~ 1;
#X obj 186 234 /~ 2;
#X obj 259 235 /~ 3;
#X obj 184 46 +~ 0.75;
#X obj 184 70 wrap~;
#X obj 135 114 *~ 1;
#X obj 135 138 cos~;
#X obj 228 314 outlet~;
#X obj 333 235 /~ 4;
#X obj 192 142 cos~;
#X obj 192 118 *~ 2;
#X obj 250 144 cos~;
#X obj 335 144 cos~;
#X obj 250 120 *~ 3;
#X obj 335 120 *~ 4;
#X obj 184 22 phasor~ 100;
#X obj 296 25 inlet~;
#X connect 0 0 7 0;
#X connect 1 0 7 0;
#X connect 2 0 7 0;
#X connect 3 0 4 0;
#X connect 4 0 5 0;
#X connect 4 0 10 0;
#X connect 4 0 13 0;
#X connect 4 0 14 0;
#X connect 5 0 6 0;
#X connect 6 0 0 0;
#X connect 8 0 7 0;
#X connect 9 0 1 0;
#X connect 10 0 9 0;
#X connect 11 0 2 0;
#X connect 12 0 8 0;
#X connect 13 0 11 0;
#X connect 14 0 12 0;
#X connect 15 0 3 0;
#X connect 16 0 15 0;
#X restore 176 367 pd tone;
#N canvas 418 212 463 365 tone 0;
#X obj 86 234 *~ 1;
#X obj 186 234 /~ 2;
#X obj 259 235 /~ 3;
#X obj 184 46 +~ 0.75;
#X obj 184 70 wrap~;
#X obj 135 114 *~ 1;
#X obj 135 138 cos~;
#X obj 228 314 outlet~;
#X obj 333 235 /~ 4;
#X obj 192 142 cos~;
#X obj 192 118 *~ 2;
#X obj 250 144 cos~;
#X obj 335 144 cos~;
#X obj 250 120 *~ 3;
#X obj 335 120 *~ 4;
#X obj 184 22 phasor~ 100;
#X obj 296 25 inlet~;
#X connect 0 0 7 0;
#X connect 1 0 7 0;
#X connect 2 0 7 0;
#X connect 3 0 4 0;
#X connect 4 0 5 0;
#X connect 4 0 10 0;
#X connect 4 0 13 0;
#X connect 4 0 14 0;
#X connect 5 0 6 0;
#X connect 6 0 0 0;
#X connect 8 0 7 0;
#X connect 9 0 1 0;
#X connect 10 0 9 0;
#X connect 11 0 2 0;
#X connect 12 0 8 0;
#X connect 13 0 11 0;
#X connect 14 0 12 0;
#X connect 15 0 3 0;
#X connect 16 0 15 0;
#X restore 239 368 pd tone;
#X floatatom 457 298 5 0 0 0 - - - 0;
#X obj 347 146 fexpr~ if($x1[0]>$x1[-1] \, $x2[0] \, $x3[0]);
#X obj 78 175 fexpr~ $x1[0] + $x2[0]*($y1[-1]-$x1[0]);
#X obj 78 89 instEnv;
#X obj 149 303 +~ 220;
#X obj 176 395 *~ 5;
#X obj 457 321 sig~ 7;
#X obj 239 343 expr~ $v1*pow(2 \, ($v2/12));
#X obj 635 247 r modType;
#X obj 757 235 tgl 19 0 empty empty empty 0 -10 0 12 #fcfcfc #000000 #000000 0 1;
#X obj 757 259 outlet;
#X obj 636 275 == 9;
#X obj 636 299 switch~;
#X obj 464 41 r~ envAtt;
#X obj 614 44 r~ envRel;
#X connect 0 0 8 0;
#X connect 1 0 2 0;
#X connect 3 0 10 0;
#X connect 4 0 10 0;
#X connect 5 0 11 0;
#X connect 6 0 7 1;
#X connect 7 0 1 0;
#X connect 8 0 6 0;
#X connect 8 0 7 0;
#X connect 9 0 3 0;
#X connect 9 0 12 0;
#X connect 10 0 1 1;
#X connect 11 0 12 1;
#X connect 12 0 4 0;
#X connect 13 0 16 0;
#X connect 14 0 15 0;
#X connect 16 0 14 0;
#X connect 16 0 17 0;
#X connect 18 0 6 1;
#X connect 19 0 6 2;
#X restore 170 554 pd envFol1;
#X obj 170 578 tgl 19 0 empty empty empty 0 -10 0 12 #fcfcfc #000000 #000000 0 1;
#X obj 394 529 sig~ 0.997735;
#X obj 394 557 s~ envAtt;
#X obj 643 534 sig~ 0.999676;
#X obj 643 561 s~ envRel;
#X floatatom 840 31 5 0 0 0 - - - 0;
#X obj 840 84 s~ rotF;
#X obj 840 54 sig~ 0.5;
#X obj 632 265 sig~ 1;
#X obj 692 187 sig~ 100;
#X obj 802 390 s~ am_depth;
#X obj 802 362 sig~ 1;
#X obj 1111 271 s~ filtSweepRate;
#X obj 1242 272 s~ filtSweepCentre;
#X floatatom 1110 161 5 0 0 0 - - - 0;
#X floatatom 1242 154 5 0 0 0 - - - 0;
#X obj 1110 184 sig~ 0.5;
#X obj 1242 177 sig~ 400;
#N canvas 150 175 450 300 dry 0;
#X obj 85 30 r~ sig;
#X obj 91 119 throw~ out;
#X obj 187 29 r modType;
#X obj 281 43 tgl 19 0 empty empty empty 0 -10 0 12 #fcfcfc #000000 #000000 0 1;
#X obj 281 67 outlet;
#X obj 192 67 == 0;
#X obj 91 95 *~ 1;
#X connect 0 0 6 0;
#X connect 2 0 5 0;
#X connect 3 0 4 0;
#X connect 5 0 3 0;
#X connect 5 0 6 1;
#X connect 6 0 1 0;
#X restore 30 376 pd dry;
#X obj 30 400 tgl 19 0 empty empty empty 0 -10 0 12 #fcfcfc #000000 #000000 0 1;
#X obj 474 26 sampleLooper samp;
#N canvas 353 378 450 300 rotary 0;
#X obj 187 29 r modType;
#X obj 33 85 r~ sig;
#X obj 192 91 switch~;
#X obj 39 232 throw~ outL;
#X obj 131 231 throw~ outR;
#X obj 192 67 == 5;
#X obj 281 43 tgl 19 0 empty empty empty 0 -10 0 12 #fcfcfc #000000 #000000 0 1;
#X obj 281 67 outlet;
#X obj 118 124 rotarySpeaker;
#X connect 0 0 5 0;
#X connect 1 0 8 0;
#X connect 5 0 2 0;
#X connect 5 0 6 0;
#X connect 6 0 7 0;
#X connect 8 0 3 0;
#X connect 8 1 4 0;
#X restore 382 376 pd rotary;
#N canvas 0 25 974 654 rotary2 1;
#X obj 523 104 r modType;
#X obj 79 50 r~ sig;
#X obj 528 166 switch~;
#X obj 194 462 throw~ outL;
#X obj 286 461 throw~ outR;
#X obj 528 142 == 6;
#X obj 387 155 r~ rotRatio;
#X obj 537 195 tgl 19 0 empty empty empty 0 -10 0 12 #fcfcfc #000000 #000000 0 1;
#X obj 537 219 outlet;
#X obj 200 147 r rotXover;
#X obj 295 164 r~ rotF;
#X obj 133 51 r~ sig2;
#X obj 107 232 rotarySpeaker3, f 40;
#X obj 517 287 vsl 19 162 0 127 0 0 empty empty empty 0 -9 0 12 #fcfcfc #000000 #000000 0 1;
#X obj 517 457 / 127;
#X obj 517 481 pack 0 5;
#X obj 517 505 line~;
#X obj 223 295 *~;
#X obj 293 297 *~;
#X connect 0 0 5 0;
#X connect 1 0 12 0;
#X connect 5 0 2 0;
#X connect 5 0 7 0;
#X connect 6 0 12 4;
#X connect 7 0 8 0;
#X connect 9 0 12 2;
#X connect 10 0 12 3;
#X connect 11 0 12 1;
#X connect 12 0 3 0;
#X connect 12 0 17 0;
#X connect 12 1 4 0;
#X connect 12 1 18 0;
#X connect 13 0 14 0;
#X connect 14 0 15 0;
#X connect 15 0 16 0;
#X connect 16 0 17 1;
#X connect 16 0 18 1;
#X connect 17 0 4 0;
#X connect 18 0 3 0;
#X restore 483 377 pd rotary2;
#X obj 630 185 s modF;
#X obj 330 312 s~ sig2;
#X obj 206 312 s~ sig;
#X obj 303 43 sampleLoader2 samp2;
#X obj 156 10 sampleLooper2 samp2;
#X obj 618 22 loadbang;
#X msg 618 46 100;
#N canvas 0 25 974 654 rotary2 0;
#X obj 523 104 r modType;
#X obj 79 50 r~ sig;
#X obj 528 166 switch~;
#X obj 194 462 throw~ outL;
#X obj 286 461 throw~ outR;
#X obj 528 142 == 6;
#X obj 79 96 lop~ 200;
#X obj 241 243 *~;
#X obj 189 387 +~;
#X obj 289 392 +~;
#X obj 456 238 *~;
#X obj 358 116 r~ rotRatio;
#X obj 152 140 -~;
#X obj 358 140 expr~ pow(2 \, -$v1) \; pow(2 \, $v1);
#X obj 537 195 tgl 19 0 empty empty empty 0 -10 0 12 #fcfcfc #000000 #000000 0 1;
#X obj 537 219 outlet;
#X obj 148 47 r rotXover;
#X obj 348 187 r~ rotF;
#X obj 181 283 rotarySpeaker2;
#X obj 359 278 rotarySpeaker2;
#X obj 235 103 lop~ 200;
#X obj 308 147 -~;
#X obj 304 54 r rotXover;
#X obj 235 57 r~ sig2;
#X obj 520 289 tgl 19 0 empty empty empty 0 -10 0 12 #fcfcfc #000000 #000000 0 1;
#X obj 520 313 metro 5;
#X obj 520 337 snapshot~;
#X floatatom 520 361 5 0 0 0 - - - 0;
#X obj 593 340 snapshot~;
#X floatatom 593 364 5 0 0 0 - - - 0;
#X connect 1 0 12 0;
#X connect 1 0 6 0;
#X connect 5 0 2 0;
#X connect 5 0 14 0;
#X connect 6 0 12 1;
#X connect 6 0 18 0;
#X connect 7 0 18 2;
#X connect 7 0 26 0;
#X connect 8 0 3 0;
#X connect 9 0 4 0;
#X connect 10 0 28 0;
#X connect 10 0 19 2;
#X connect 11 0 13 0;
#X connect 12 0 19 0;
#X connect 13 0 7 1;
#X connect 13 1 10 1;
#X connect 14 0 15 0;
#X connect 16 0 6 1;
#X connect 17 0 7 0;
#X connect 17 0 10 0;
#X connect 18 0 8 0;
#X connect 18 1 9 0;
#X connect 19 0 8 1;
#X connect 19 1 9 1;
#X connect 20 0 21 1;
#X connect 20 0 18 1;
#X connect 21 0 19 1;
#X connect 22 0 20 1;
#X connect 23 0 21 0;
#X connect 23 0 20 0;
#X connect 24 0 25 0;
#X connect 25 0 26 0;
#X connect 25 0 28 0;
#X connect 26 0 27 0;
#X connect 28 0 29 0;
#X restore 541 657 pd rotary2;
#X connect 0 0 1 0;
#X connect 1 0 2 0;
#X connect 2 0 3 0;
#X connect 3 0 4 1;
#X connect 3 0 21 1;
#X connect 3 0 22 1;
#X connect 4 0 5 0;
#X connect 4 0 5 1;
#X connect 6 0 59 0;
#X connect 6 0 73 0;
#X connect 7 0 15 0;
#X connect 9 0 10 0;
#X connect 10 0 61 0;
#X connect 12 0 13 0;
#X connect 14 0 4 0;
#X connect 16 0 32 0;
#X connect 17 0 33 0;
#X connect 18 0 34 0;
#X connect 19 0 21 0;
#X connect 20 0 22 0;
#X connect 21 0 5 0;
#X connect 22 0 5 1;
#X connect 23 0 35 0;
#X connect 24 0 25 0;
#X connect 25 0 26 0;
#X connect 26 0 27 0;
#X connect 27 0 28 0;
#X connect 29 0 38 0;
#X connect 30 0 58 0;
#X connect 40 0 39 0;
#X connect 42 0 41 0;
#X connect 43 0 51 0;
#X connect 44 0 45 0;
#X connect 45 0 43 0;
#X connect 46 0 53 0;
#X connect 47 0 48 0;
#X connect 48 0 46 0;
#X connect 49 0 50 0;
#X connect 51 0 52 0;
#X connect 53 0 54 0;
#X connect 55 0 57 0;
#X connect 57 0 56 0;
#X connect 58 0 31 0;
#X connect 59 0 11 0;
#X connect 61 0 60 0;
#X connect 64 0 66 0;
#X connect 65 0 67 0;
#X connect 66 0 62 0;
#X connect 67 0 63 0;
#X connect 68 0 69 0;
#X connect 71 0 36 0;
#X connect 72 0 37 0;
#X connect 77 0 75 0;
#X connect 77 1 74 0;
#X connect 78 0 79 0;
#X connect 79 0 6 0;
