#N canvas 0 25 411 568 12;
#X msg 58 248 1024;
#X obj 58 272 until;
#X obj 58 296 +;
#X obj 106 295 + 1;
#X obj 61 179 bng 19 250 50 0 empty empty empty 0 -10 0 12 #fcfcfc #000000 #000000;
#X obj 61 203 t b b;
#X msg 100 255 0;
#X obj 58 376 expr 0.5-(0.5*cos(2*3.14159 * $f1));
#X obj 58 320 t f f, f 13;
#X obj 58 352 / 2048;
#X obj 58 400 tabwrite halfhann;
#X obj 54 131 loadbang;
#X obj 26 85 array define halfhann 1024;
#X connect 0 0 1 0;
#X connect 1 0 2 0;
#X connect 2 0 3 0;
#X connect 2 0 8 0;
#X connect 3 0 2 1;
#X connect 4 0 5 0;
#X connect 5 0 0 0;
#X connect 5 1 6 0;
#X connect 6 0 2 1;
#X connect 7 0 10 0;
#X connect 8 0 9 0;
#X connect 8 1 10 1;
#X connect 9 0 7 0;
#X connect 11 0 4 0;
