#N canvas 87 205 1332 533 12;
#X obj 85 18 inlet~;
#X obj 328 201 sig~ 0.02569;
#X obj 375 304 sig~ -1.8685;
#X obj 198 198 sig~ -0.260502;
#X obj 47 258 fexpr~ $x2[0]*( $x1[0] - $y1[-2] ) + $x3[0]*( $x1[-1] - $y1[-1] ) + $x1[-2], f 80;
#X obj 245 301 sig~ 0.870686;
#X obj 94 361 fexpr~ $x2[0]*( $x1[0] - $y1[-2] ) + $x3[0]*( $x1[-1] - $y1[-1] ) + $x1[-2], f 80;
#X obj 94 385 outlet~;
#X obj 708 401 outlet~;
#X obj 1119 194 sig~ -1.94632;
#X obj 985 199 sig~ 0.94657;
#X obj 1174 302 sig~ -0.83774;
#X obj 1032 302 sig~ 0.06338;
#X obj 704 256 fexpr~ $x2[0]*( $x1[0] - $y1[-2] ) + $x3[0]*( $x1[-1] - $y1[-1] ) + $x1[-2], f 80;
#X obj 751 359 fexpr~ $x2[0]*( $x1[0] - $y1[-2] ) + $x3[0]*( $x1[-1] - $y1[-1] ) + $x1[-2], f 80;
#X connect 0 0 4 0;
#X connect 0 0 13 0;
#X connect 1 0 4 2;
#X connect 2 0 6 2;
#X connect 3 0 4 1;
#X connect 4 0 6 0;
#X connect 5 0 6 1;
#X connect 6 0 7 0;
#X connect 9 0 13 2;
#X connect 10 0 13 1;
#X connect 11 0 14 2;
#X connect 12 0 14 1;
#X connect 13 0 14 0;
#X connect 14 0 8 0;
