#N canvas 672 39 450 300 12;
#X obj 128 55 inlet~;
#X obj 130 113 *~;
#X obj 192 115 *~;
#X obj 130 137 +~;
#X obj 130 161 outlet~;
#X obj 130 89 hilbert_sjf;
#X connect 0 0 5 0;
#X connect 1 0 3 0;
#X connect 2 0 3 1;
#X connect 3 0 4 0;
#X connect 5 0 1 0;
#X connect 5 0 1 1;
#X connect 5 1 2 0;
#X connect 5 1 2 1;
