#N canvas 62 25 1378 847 12;
#N canvas 0 22 450 278 (subpatch) 0;
#X array vis1 64 float 3;
#A 0 0 0 0 0 0 0 0 0 0 0 0 0 0 0 0 0 0 0 0 0 0 0 0 0 0 0 0 0 0 0 0 0 0 0 0 0 0 0 0 0 0 0 0 0 0 0 0 0 0 0 0 0 0 0 0 0 0 0 0 0 0 0 0 0;
#X coords 0 1 64 -1 200 140 1;
#X restore 725 82 graph;
#N canvas 0 22 450 278 (subpatch) 0;
#X array vis2 64 float 3;
#A 0 0 0 0 0 0 0 0 0 0 0 0 0 0 0 0 0 0 0 0 0 0 0 0 0 0 0 0 0 0 0 0 0 0 0 0 0 0 0 0 0 0 0 0 0 0 0 0 0 0 0 0 0 0 0 0 0 0 0 0 0 0 0 0 0;
#X coords 0 1 64 -1 200 140 1 0 0;
#X restore 732 286 graph;
#X obj 477 93 tabsend~ vis1;
#X obj 377 244 value Q;
#X obj 539 260 value dist;
#X obj 117 502 tabsend~ vis2;
#X obj 462 122 loadbang;
#X msg 404 158 -0.8;
#X msg 479 160 4;
#X obj 117 391 hip~ 10;
#X obj 275 208 hsl 162 19 -1 0 0 0 empty empty empty -2 -10 0 12 #fcfcfc #000000 #000000 0 1;
#X obj 510 187 hsl 162 19 1 100 1 0 empty empty empty -2 -10 0 12 #fcfcfc #000000 #000000 0 1;
#X floatatom 488 230 5 0 0 0 - - - 0;
#X obj 117 367 expr~ ($v1-Q)/(1-exp(-1*dist*($v1-Q)))+$v2;
#X obj 374 305 expr Q/(1-exp(dist*Q));
#X obj 374 282 bng 19 250 50 0 empty empty empty 0 -10 0 12 #fcfcfc #000000 #000000;
#X obj 374 329 sig~;
#N canvas 0 22 450 278 (subpatch) 0;
#X array vis3 64 float 3;
#A 0 -0 -0 -0 -0 -0 -0 -0 -0 -0 -0 -0 -0 -0 -0 -0 -0 -0 -0 -0 -0 -0 -0 -0 -0 -0 -0 -0 -0 -0 -0 -0 -0 -0 -0 -0 -0 -0 -0 -0 -0 -0 -0 -0 -0 -0 -0 -0 -0 -0 -0 -0 -0 -0 -0 -0 -0 -0 -0 -0 -0 -0 -0 -0 -0;
#X coords 0 1 64 -1 200 140 1 0 0;
#X restore 736 470 graph;
#X obj 443 608 tabsend~ vis3;
#X obj 445 512 expr~ if ($v1<0 \, 1 \, if($v1==0 \, 0 \, -1)), f 20;
#X obj 335 488 *~;
#X obj 505 428 sig~;
#X obj 532 363 hsl 162 19 0.01 10 1 0 empty empty empty -2 -10 0 12 #fcfcfc #000000 #000000 0 1;
#X floatatom 529 387 5 0 0 0 - - - 0;
#X obj 556 559 *~ -1;
#X obj 335 585 expr~ ( 1 - exp( $v1*$v2 ) )*$v3;
#N canvas 0 22 450 278 (subpatch) 0;
#X array vis4 64 float 3;
#A 0 0 0 0 0 0 0 0 0 0 0 0 0 0 0 0 0 0 0 0 0 0 0 0 0 0 0 0 0 0 0 0 0 0 0 0 0 0 0 0 0 0 0 0 0 0 0 0 0 0 0 0 0 0 0 0 0 0 0 0 0 0 0 0 0;
#X coords 0 1 64 -1 200 140 1 0 0;
#X restore 985 485 graph;
#X obj 55 777 tabsend~ vis4;
#X obj 66 530 halfwaveRectifier;
#X obj 90 681 *~;
#X obj 90 705 hip~ 20;
#N canvas 0 22 450 278 (subpatch) 0;
#X array vis5 64 float 3;
#A 0 0 0 0 0 0 0 0 0 0 0 0 0 0 0 0 0 0 0 0 0 0 0 0 0 0 0 0 0 0 0 0 0 0 0 0 0 0 0 0 0 0 0 0 0 0 0 0 0 0 0 0 0 0 0 0 0 0 0 0 0 0 0 0 0;
#X coords 0 1 64 -1 200 140 1 0 0;
#X restore 838 670 graph;
#X obj 606 536 hip~ 20;
#X obj 606 512 fullwaveRectifier;
#X obj 669 629 tabsend~ vis5;
#X floatatom 961 176 19 0 0 0 - - - 0;
#X floatatom 961 126 19 0 0 0 - - - 0;
#X obj 961 152 expr exp(-1/(44100*($f1/1000)));
#X floatatom 1046 285 19 0 0 0 - - - 0;
#X floatatom 1046 235 19 0 0 0 - - - 0;
#X obj 1046 261 expr exp(-1/(44100*($f1/1000)));
#X obj 959 200 sig~ 0.997735;
#X obj 959 228 s~ envAtt;
#X obj 1046 314 sig~ 0.999676;
#X obj 1046 341 s~ envRel;
#N canvas 0 22 450 278 (subpatch) 0;
#X array vis6 64 float 3;
#A 0 0.773983 0.773983 0.773983 0.773983 0.773983 0.773983 0.773983 0.773983 0.773983 0.773983 0.773983 0.773983 0.773983 0.773983 0.773983 0.773983 0.773983 0.773983 0.773983 0.773983 0.773983 0.773983 0.773983 0.773983 0.773983 0.773983 0.773983 0.773983 0.773983 0.773983 0.773983 0.773983 0.773983 0.773983 0.773983 0.773983 0.773983 0.773983 0.773983 0.773983 0.773983 0.773983 0.773983 0.773983 0.773983 0.773983 0.773983 0.773983 0.773983 0.773983 0.773983 0.773983 0.773983 0.773983 0.773983 0.773983 0.773983 0.773983 0.773983 0.773983 0.773983 0.773983 0.773983 0.773983;
#X coords 0 1 64 -1 200 140 1 0 0;
#X restore 1073 674 graph;
#X obj 413 675 fexpr~ if($x1[0] == 1 && $x1[-1]!=1 \, 0 \, $y1[-1]+1);
#X obj 13 236 vsl 19 162 0 127 0 0 empty empty empty 0 -9 0 12 #fcfcfc #000000 #000000 0 1;
#X obj 13 406 / 127;
#X obj 13 430 pack 0 5;
#X obj 13 454 line~;
#X obj 13 478 *~;
#X obj 13 502 dac~;
#X obj 413 703 fexpr~ if($x1[0] < $x1[-1] \, $x1[-1] \, $y1[-1]);
#X floatatom 73 -1 5 0 0 0 - - - 0;
#X obj 116 632 fexpr~ $x1[0] > 0 && $x1[-1] <= 0;
#X obj 371 771 expr~;
#X obj 262 706 /~;
#X obj 262 730 cos~;
#X obj 214 802 tabsend~ vis6;
#X obj 49 132 == 0;
#X obj 49 211 *~ 1;
#X obj 49 314 *~;
#X obj 755 698 tgl 19 0 empty empty empty 0 -10 0 12 #fcfcfc #000000 #000000 0 1;
#X obj 755 722 metro 5;
#X obj 755 746 snapshot~;
#X floatatom 755 770 5 0 0 0 - - - 0;
#X obj 116 656 fexpr~ ($y1[-1]+$x1[0])%2;
#X obj 73 46 line~;
#X obj 73 22 pack 0 50;
#X obj 63 271 == 1;
#X obj 124 249 == 2;
#X obj 35 70 hradio 19 1 0 8 empty empty empty 0 -10 0 12 #fcfcfc #000000 #000000 0;
#X obj 132 299 *~;
#X obj 184 297 *~;
#X obj 222 257 == 3;
#X obj 563 23 sampleLoader samp;
#X obj 223 35 sampleLooper samp;
#X obj 234 438 *~;
#X obj 247 401 == 4;
#X obj 1176 369 expr~ if ($v1<0 \, 1 \, if($v1==0 \, 0 \, -1)), f 20;
#X obj 1287 416 *~ -1;
#X obj 1066 442 expr~ 1 / ( 1 - exp( $v1*$v2 ) )*$v3;
#X obj 335 609 *~;
#X connect 6 0 7 0;
#X connect 6 0 8 0;
#X connect 7 0 10 0;
#X connect 8 0 11 0;
#X connect 9 0 5 0;
#X connect 9 0 74 0;
#X connect 10 0 3 0;
#X connect 10 0 15 0;
#X connect 11 0 4 0;
#X connect 11 0 12 0;
#X connect 11 0 15 0;
#X connect 13 0 9 0;
#X connect 14 0 16 0;
#X connect 15 0 14 0;
#X connect 16 0 13 1;
#X connect 19 0 24 0;
#X connect 19 0 25 1;
#X connect 20 0 19 0;
#X connect 20 0 25 0;
#X connect 21 0 20 1;
#X connect 21 0 80 0;
#X connect 21 0 82 0;
#X connect 22 0 21 0;
#X connect 22 0 23 0;
#X connect 24 0 25 2;
#X connect 25 0 18 0;
#X connect 25 0 83 0;
#X connect 28 0 29 0;
#X connect 28 0 55 0;
#X connect 29 0 30 0;
#X connect 30 0 27 0;
#X connect 30 0 62 0;
#X connect 32 0 34 0;
#X connect 32 0 73 0;
#X connect 33 0 32 0;
#X connect 35 0 41 0;
#X connect 36 0 37 0;
#X connect 37 0 35 0;
#X connect 38 0 43 0;
#X connect 39 0 40 0;
#X connect 40 0 38 0;
#X connect 41 0 42 0;
#X connect 43 0 44 0;
#X connect 46 0 53 0;
#X connect 46 0 57 0;
#X connect 47 0 48 0;
#X connect 48 0 49 0;
#X connect 49 0 50 0;
#X connect 50 0 51 0;
#X connect 51 0 52 0;
#X connect 51 0 52 1;
#X connect 53 0 57 1;
#X connect 54 0 69 0;
#X connect 55 0 67 0;
#X connect 57 0 58 0;
#X connect 58 0 59 0;
#X connect 60 0 61 1;
#X connect 61 0 51 1;
#X connect 62 0 51 1;
#X connect 63 0 64 0;
#X connect 64 0 65 0;
#X connect 65 0 66 0;
#X connect 67 0 29 1;
#X connect 67 0 46 0;
#X connect 69 0 68 0;
#X connect 70 0 62 1;
#X connect 71 0 73 1;
#X connect 72 0 60 0;
#X connect 72 0 71 0;
#X connect 72 0 70 0;
#X connect 72 0 75 0;
#X connect 72 0 79 0;
#X connect 73 0 51 1;
#X connect 74 0 51 1;
#X connect 75 0 74 1;
#X connect 77 0 13 0;
#X connect 77 0 2 0;
#X connect 77 0 20 0;
#X connect 77 0 28 0;
#X connect 77 0 33 0;
#X connect 77 0 61 0;
#X connect 78 0 51 1;
#X connect 79 0 78 1;
#X connect 80 0 81 0;
#X connect 80 0 82 1;
#X connect 81 0 82 2;
#X connect 82 0 65 0;
#X connect 82 0 83 1;
#X connect 83 0 78 0;
