#N canvas 0 25 1440 847 12;
#X obj 260 124 sampleLoader sample;
#X obj 431 20 sampleLooper sample;
#X obj 440 658 dac~;
#X obj 569 489 delwrite~ ps 1000;
#X obj 1041 205 phasor~;
#X obj 554 582 *~ 1;
#X obj 112 350 hannArray;
#X floatatom 1032 145 5 0 0 0 - - - 0;
#X obj 251 224 vsl 19 162 0 127 0 0 empty empty empty 0 -9 0 12 #fcfcfc #000000 #000000 0 1;
#X obj 251 394 / 127;
#X obj 1254 100 loadbang;
#X obj 1254 124 bng 19 250 50 0 empty empty empty 0 -10 0 12 #fcfcfc #000000 #000000;
#X obj 1253 186 / 3;
#X obj 1299 189 / 3;
#X msg 1254 148 1;
#X msg 1294 144 2;
#X floatatom 1171 99 5 0 0 0 - - - 0;
#N canvas 730 97 547 477 voice 0;
#X obj 37 37 inlet~;
#X obj 78 85 wrap~;
#X obj 49 264 vd~ ps;
#X obj 73 292 *~;
#X obj 79 112 *~ 1;
#X obj 188 53 inlet~;
#X obj 49 159 *~;
#X obj 49 323 +~;
#X obj 49 347 outlet~;
#X obj 149 237 cos~;
#X obj 149 214 wrap~;
#X obj 149 190 +~ 0.5;
#X connect 0 0 1 0;
#X connect 1 0 4 0;
#X connect 2 0 7 0;
#X connect 2 0 3 0;
#X connect 3 0 7 1;
#X connect 4 0 6 0;
#X connect 4 0 11 0;
#X connect 5 0 6 1;
#X connect 6 0 2 0;
#X connect 7 0 8 0;
#X connect 9 0 3 1;
#X connect 10 0 9 0;
#X connect 11 0 10 0;
#X restore 1068 314 pd voice;
#X obj 1171 122 sig~ 20;
#N canvas 730 97 547 477 voice 0;
#X obj 37 37 inlet~;
#X obj 78 85 wrap~;
#X obj 49 264 vd~ ps;
#X obj 73 292 *~;
#X obj 79 112 *~ 1;
#X obj 188 53 inlet~;
#X obj 49 159 *~;
#X obj 49 323 +~;
#X obj 49 347 outlet~;
#X obj 149 237 cos~;
#X obj 149 214 wrap~;
#X obj 149 190 +~ 0.5;
#X connect 0 0 1 0;
#X connect 1 0 4 0;
#X connect 2 0 7 0;
#X connect 2 0 3 0;
#X connect 3 0 7 1;
#X connect 4 0 6 0;
#X connect 4 0 11 0;
#X connect 5 0 6 1;
#X connect 6 0 2 0;
#X connect 7 0 8 0;
#X connect 9 0 3 1;
#X connect 10 0 9 0;
#X connect 11 0 10 0;
#X restore 1151 317 pd voice;
#N canvas 730 97 547 477 voice 0;
#X obj 37 37 inlet~;
#X obj 78 85 wrap~;
#X obj 49 264 vd~ ps;
#X obj 73 292 *~;
#X obj 79 112 *~ 1;
#X obj 188 53 inlet~;
#X obj 49 159 *~;
#X obj 49 323 +~;
#X obj 49 347 outlet~;
#X obj 149 237 cos~;
#X obj 149 214 wrap~;
#X obj 149 190 +~ 0.5;
#X connect 0 0 1 0;
#X connect 1 0 4 0;
#X connect 2 0 7 0;
#X connect 2 0 3 0;
#X connect 3 0 7 1;
#X connect 4 0 6 0;
#X connect 4 0 11 0;
#X connect 5 0 6 1;
#X connect 6 0 2 0;
#X connect 7 0 8 0;
#X connect 9 0 3 1;
#X connect 10 0 9 0;
#X connect 11 0 10 0;
#X restore 1267 329 pd voice;
#X obj 570 453 lop~ 5000;
#X obj 1266 296 +~ 0.666667;
#X obj 1152 290 +~ 0.333333;
#X floatatom 803 25 16 0 0 0 - - - 0;
#X obj 803 98 - 1;
#X floatatom 803 159 5 0 0 0 - - - 0;
#X obj 803 137 * -20, f 26;
#X obj 985 17 / 1000;
#X floatatom 985 59 5 0 0 0 - - - 0;
#X obj 985 80 * -1;
#X floatatom 803 71 12 0 0 0 - - - 0;
#X obj 985 100 t b f;
#X msg 803 183 \$1 10;
#X obj 803 204 line~;
#X obj 985 38 expr 1/$f1;
#X obj 712 30 vsl 19 162 0 127 0 0 empty empty empty 0 -9 0 12 #fcfcfc #000000 #000000 0 1;
#X obj 712 200 / 127;
#X obj 712 224 pack 0 5;
#X obj 712 248 line~;
#X obj 620 274 *~;
#X obj 454 301 *~;
#X obj 254 464 pack 0 5;
#X obj 254 488 line~;
#X obj 251 418 sqrt;
#X obj 332 401 expr sqrt( 1- $f1 );
#X obj 366 456 pack 0 5;
#X obj 366 480 line~;
#X obj 254 512 *~;
#X obj 532 249 tgl 19 0 empty empty empty 0 -10 0 12 #fcfcfc #000000 #000000 0 1;
#X obj 554 279 == 0;
#X obj 530 341 *~;
#X obj 366 504 *~;
#X obj 616 102 osc~ 100;
#X floatatom 668 626 5 0 0 0 - - - 0;
#X floatatom 725 629 5 0 0 0 - - - 0;
#X obj 668 602 fiddle~ 1024 1 20 3, f 34;
#X obj 150 421 vsl 19 162 0 127 0 0 empty empty empty 0 -9 0 12 #fcfcfc #000000 #000000 0 1;
#X obj 150 591 / 127;
#X obj 150 615 pack 0 5;
#X obj 150 639 line~;
#X obj 58 665 *~;
#X obj 54 493 osc~ 200;
#X obj 803 50 expr pow(2 \, $f1/12);
#X connect 1 0 41 0;
#X connect 4 0 17 0;
#X connect 4 0 22 0;
#X connect 4 0 23 0;
#X connect 5 0 52 1;
#X connect 5 0 56 0;
#X connect 7 0 4 0;
#X connect 8 0 9 0;
#X connect 9 0 44 0;
#X connect 9 0 45 0;
#X connect 10 0 11 0;
#X connect 11 0 14 0;
#X connect 11 0 15 0;
#X connect 12 0 23 1;
#X connect 13 0 22 1;
#X connect 14 0 12 0;
#X connect 15 0 13 0;
#X connect 16 0 18 0;
#X connect 16 0 28 0;
#X connect 17 0 5 0;
#X connect 18 0 17 1;
#X connect 18 0 19 1;
#X connect 18 0 20 1;
#X connect 19 0 5 0;
#X connect 20 0 5 0;
#X connect 21 0 3 0;
#X connect 22 0 20 0;
#X connect 23 0 19 0;
#X connect 24 0 63 0;
#X connect 25 0 27 0;
#X connect 26 0 33 0;
#X connect 27 0 26 0;
#X connect 28 0 35 0;
#X connect 29 0 30 0;
#X connect 30 0 32 0;
#X connect 31 0 25 0;
#X connect 32 0 27 0;
#X connect 32 1 27 1;
#X connect 33 0 34 0;
#X connect 34 0 4 0;
#X connect 35 0 29 0;
#X connect 36 0 37 0;
#X connect 37 0 38 0;
#X connect 38 0 39 0;
#X connect 39 0 40 1;
#X connect 40 0 51 0;
#X connect 41 0 21 0;
#X connect 41 0 48 1;
#X connect 42 0 43 0;
#X connect 43 0 48 0;
#X connect 44 0 42 0;
#X connect 45 0 46 0;
#X connect 46 0 47 0;
#X connect 47 0 52 0;
#X connect 48 0 2 1;
#X connect 48 0 2 0;
#X connect 49 0 50 0;
#X connect 49 0 41 1;
#X connect 50 0 51 1;
#X connect 51 0 21 0;
#X connect 51 0 48 1;
#X connect 52 0 2 0;
#X connect 52 0 2 1;
#X connect 53 0 40 0;
#X connect 56 0 54 0;
#X connect 56 1 55 0;
#X connect 57 0 58 0;
#X connect 58 0 59 0;
#X connect 59 0 60 0;
#X connect 60 0 61 1;
#X connect 61 0 2 0;
#X connect 61 0 2 1;
#X connect 62 0 61 0;
#X connect 63 0 31 0;
