#N canvas 0 25 1440 847 12;
#X obj 260 124 sampleLoader sample;
#X obj 431 20 sampleLooper sample;
#X obj 432 788 dac~;
#X obj 569 489 delwrite~ ps 1000;
#X obj 1041 205 phasor~;
#X obj 667 560 *~ 1;
#X obj 112 350 hannArray;
#X floatatom 1032 145 5 0 0 0 - - - 0;
#X obj 251 224 vsl 19 162 0 127 0 0 empty empty empty 0 -9 0 12 #fcfcfc #000000 #000000 0 1;
#X obj 251 394 / 127;
#X obj 1234 13 loadbang;
#X obj 1234 37 bng 19 250 50 0 empty empty empty 0 -10 0 12 #fcfcfc #000000 #000000;
#X floatatom 1096 46 5 0 0 0 - - - 0;
#X floatatom 803 25 16 0 0 0 - - - 0;
#X obj 803 98 - 1;
#X floatatom 803 159 5 0 0 0 - - - 0;
#X obj 803 137 * -20, f 26;
#X obj 985 17 / 1000;
#X floatatom 985 59 5 0 0 0 - - - 0;
#X obj 985 80 * -1;
#X floatatom 803 71 12 0 0 0 - - - 0;
#X obj 985 100 t b f;
#X msg 803 183 \$1 10;
#X obj 803 204 line~;
#X obj 985 38 expr 1/$f1;
#X obj 712 30 vsl 19 162 0 127 0 0 empty empty empty 0 -9 0 12 #fcfcfc #000000 #000000 0 1;
#X obj 712 200 / 127;
#X obj 712 224 pack 0 5;
#X obj 712 248 line~;
#X obj 620 274 *~;
#X obj 454 301 *~;
#X obj 251 442 pack 0 5;
#X obj 251 466 line~;
#X obj 251 418 sqrt;
#X obj 432 523 expr sqrt( 1- $f1 );
#X obj 432 547 pack 0 5;
#X obj 432 571 line~;
#X obj 251 490 *~, f 7;
#X obj 532 249 tgl 19 0 empty empty empty 0 -10 0 12 #fcfcfc #000000 #000000 0 1;
#X obj 554 279 == 0;
#X obj 432 595 *~, f 34;
#X floatatom 1018 554 5 0 0 0 - - - 0;
#X obj 153 421 vsl 19 162 0 127 0 0 empty empty empty 0 -9 0 12 #fcfcfc #000000 #000000 0 1;
#X obj 153 591 / 127;
#X obj 153 615 pack 0 5;
#X obj 153 639 line~;
#X obj 58 665 *~, f 14;
#X obj 803 50 expr pow(2 \, $f1/12);
#X text 888 264 f = (t-1) / s;
#X obj 1018 530 fiddle~ 2048 1 20 3, f 20;
#X obj 1113 620 unpack, f 8;
#X obj 1113 590 route 1 2 3, f 12;
#X floatatom 1113 654 7 0 0 0 - - - 0;
#X obj 1113 677 int;
#X floatatom 1113 701 5 0 0 0 - - - 0;
#X obj 1096 69 value window;
#X obj 94 117 tgl 19 0 empty empty empty 0 -10 0 12 #fcfcfc #000000 #000000 0 1;
#X obj 94 141 metro 5;
#X obj 94 165 snapshot~;
#X floatatom 94 189 5 0 0 0 - - - 0;
#N canvas 63 88 450 300 3voice 0;
#X obj 37 37 inlet~;
#X obj 229 102 +~ 0.666667;
#X obj 115 96 +~ 0.333333;
#N canvas 730 97 547 477 voiceA 0;
#X obj 37 37 inlet~;
#X obj 78 85 wrap~;
#X obj 49 264 vd~ ps;
#X obj 73 292 *~;
#X obj 79 112 *~ 1;
#X obj 49 159 *~;
#X obj 49 323 +~;
#X obj 49 347 outlet~;
#X obj 149 237 cos~;
#X obj 149 214 wrap~;
#X obj 149 190 +~ 0.5;
#X obj 143 134 expr~ window+0;
#X obj 49 183 +~ 1;
#X connect 0 0 1 0;
#X connect 1 0 4 0;
#X connect 2 0 3 0;
#X connect 2 0 6 0;
#X connect 3 0 6 1;
#X connect 4 0 5 0;
#X connect 4 0 10 0;
#X connect 5 0 12 0;
#X connect 6 0 7 0;
#X connect 8 0 3 1;
#X connect 9 0 8 0;
#X connect 10 0 9 0;
#X connect 11 0 5 1;
#X connect 12 0 2 0;
#X restore 31 120 pd voiceA;
#X obj 30 96 +~ 0;
#X obj 102 188 outlet~;
#N canvas 730 97 547 477 voiceA 0;
#X obj 37 37 inlet~;
#X obj 78 85 wrap~;
#X obj 49 264 vd~ ps;
#X obj 73 292 *~;
#X obj 79 112 *~ 1;
#X obj 49 159 *~;
#X obj 49 323 +~;
#X obj 49 347 outlet~;
#X obj 149 237 cos~;
#X obj 149 214 wrap~;
#X obj 149 190 +~ 0.5;
#X obj 143 134 expr~ window+0;
#X obj 49 183 +~ 1;
#X connect 0 0 1 0;
#X connect 1 0 4 0;
#X connect 2 0 3 0;
#X connect 2 0 6 0;
#X connect 3 0 6 1;
#X connect 4 0 5 0;
#X connect 4 0 10 0;
#X connect 5 0 12 0;
#X connect 6 0 7 0;
#X connect 8 0 3 1;
#X connect 9 0 8 0;
#X connect 10 0 9 0;
#X connect 11 0 5 1;
#X connect 12 0 2 0;
#X restore 116 122 pd voiceA;
#N canvas 730 97 547 477 voiceA 0;
#X obj 37 37 inlet~;
#X obj 78 85 wrap~;
#X obj 49 264 vd~ ps;
#X obj 73 292 *~;
#X obj 79 112 *~ 1;
#X obj 49 159 *~;
#X obj 49 323 +~;
#X obj 49 347 outlet~;
#X obj 149 237 cos~;
#X obj 149 214 wrap~;
#X obj 149 190 +~ 0.5;
#X obj 143 134 expr~ window+0;
#X obj 49 183 +~ 1;
#X connect 0 0 1 0;
#X connect 1 0 4 0;
#X connect 2 0 3 0;
#X connect 2 0 6 0;
#X connect 3 0 6 1;
#X connect 4 0 5 0;
#X connect 4 0 10 0;
#X connect 5 0 12 0;
#X connect 6 0 7 0;
#X connect 8 0 3 1;
#X connect 9 0 8 0;
#X connect 10 0 9 0;
#X connect 11 0 5 1;
#X connect 12 0 2 0;
#X restore 229 128 pd voiceA;
#X connect 0 0 4 0;
#X connect 0 0 2 0;
#X connect 0 0 1 0;
#X connect 1 0 7 0;
#X connect 2 0 6 0;
#X connect 3 0 5 0;
#X connect 4 0 3 0;
#X connect 6 0 5 0;
#X connect 7 0 5 0;
#X restore 1012 292 pd 3voice;
#X obj 1058 112 * 1;
#N canvas 63 88 450 300 2voice 0;
#X obj 37 37 inlet~;
#X obj 30 96 +~ 0;
#X obj 102 188 outlet~;
#X obj 115 96 +~ 0.5;
#N canvas 730 97 547 477 voiceB 0;
#X obj 37 37 inlet~;
#X obj 78 85 wrap~;
#X obj 49 264 vd~ ps;
#X obj 49 314 *~;
#X obj 79 112 *~ 1;
#X obj 49 159 *~;
#X obj 49 347 outlet~;
#X obj 149 237 cos~;
#X obj 149 214 wrap~;
#X obj 149 190 +~ 0.5;
#X obj 143 134 expr~ window+0;
#X obj 149 261 *~ 0.5;
#X obj 149 285 +~ 0.5;
#X connect 0 0 1 0;
#X connect 1 0 4 0;
#X connect 2 0 3 0;
#X connect 3 0 6 0;
#X connect 4 0 5 0;
#X connect 4 0 9 0;
#X connect 5 0 2 0;
#X connect 7 0 11 0;
#X connect 8 0 7 0;
#X connect 9 0 8 0;
#X connect 10 0 5 1;
#X connect 11 0 12 0;
#X connect 12 0 3 1;
#X restore 31 120 pd voiceB;
#N canvas 730 97 547 477 voiceB 0;
#X obj 37 37 inlet~;
#X obj 78 85 wrap~;
#X obj 49 264 vd~ ps;
#X obj 49 314 *~;
#X obj 79 112 *~ 1;
#X obj 49 159 *~;
#X obj 49 347 outlet~;
#X obj 149 237 cos~;
#X obj 149 214 wrap~;
#X obj 149 190 +~ 0.5;
#X obj 143 134 expr~ window+0;
#X obj 149 261 *~ 0.5;
#X obj 149 285 +~ 0.5;
#X connect 0 0 1 0;
#X connect 1 0 4 0;
#X connect 2 0 3 0;
#X connect 3 0 6 0;
#X connect 4 0 5 0;
#X connect 4 0 9 0;
#X connect 5 0 2 0;
#X connect 7 0 11 0;
#X connect 8 0 7 0;
#X connect 9 0 8 0;
#X connect 10 0 5 1;
#X connect 11 0 12 0;
#X connect 12 0 3 1;
#X restore 112 122 pd voiceB;
#X connect 0 0 1 0;
#X connect 0 0 3 0;
#X connect 1 0 4 0;
#X connect 3 0 5 0;
#X connect 4 0 2 0;
#X connect 5 0 2 0;
#X restore 1145 251 pd 2voice;
#X floatatom 1153 312 5 0 0 0 - - - 0;
#X floatatom 1210 315 5 0 0 0 - - - 0;
#X obj 1248 378 unpack;
#X obj 1248 348 route 1 2 3, f 12;
#X floatatom 1248 403 7 0 0 0 - - - 0;
#X obj 1248 426 int;
#X floatatom 1248 450 5 0 0 0 - - - 0;
#X obj 1153 288 fiddle~ 2048 1 20 3, f 20;
#X obj 616 102 osc~ 200;
#X obj 54 493 osc~ 400;
#X msg 1096 20 90;
#X obj 1058 399 *~;
#X obj 1136 347 tgl 19 0 empty empty empty 0 -10 0 12 #fcfcfc #000000 #000000 0 1;
#X obj 1158 377 == 0;
#X obj 530 341 *~ 1;
#X obj 1134 439 *~ 1;
#X floatatom 1271 85 5 0 0 0 - - - 0;
#X obj 1271 108 * 3;
#X obj 1033 329 *~ 0.333333;
#X obj 1220 688 t b f;
#X obj 1113 724 -, f 20;
#X floatatom 1113 748 5 0 0 0 - - - 0;
#X obj 570 453 lop~ 2000;
#X connect 1 0 30 0;
#X connect 4 0 60 0;
#X connect 4 0 62 0;
#X connect 5 0 40 1;
#X connect 7 0 4 0;
#X connect 8 0 9 0;
#X connect 9 0 33 0;
#X connect 9 0 34 0;
#X connect 10 0 11 0;
#X connect 11 0 73 0;
#X connect 12 0 55 0;
#X connect 12 0 61 0;
#X connect 13 0 47 0;
#X connect 14 0 16 0;
#X connect 15 0 22 0;
#X connect 16 0 15 0;
#X connect 17 0 24 0;
#X connect 18 0 19 0;
#X connect 19 0 21 0;
#X connect 20 0 14 0;
#X connect 21 0 16 0;
#X connect 21 1 16 1;
#X connect 22 0 23 0;
#X connect 23 0 4 0;
#X connect 24 0 18 0;
#X connect 25 0 26 0;
#X connect 26 0 27 0;
#X connect 27 0 28 0;
#X connect 28 0 29 1;
#X connect 29 0 77 0;
#X connect 30 0 37 1;
#X connect 30 0 85 0;
#X connect 31 0 32 0;
#X connect 32 0 37 0;
#X connect 33 0 31 0;
#X connect 34 0 35 0;
#X connect 35 0 36 0;
#X connect 36 0 40 0;
#X connect 37 0 2 1;
#X connect 37 0 2 0;
#X connect 38 0 39 0;
#X connect 38 0 30 1;
#X connect 39 0 77 1;
#X connect 40 0 2 0;
#X connect 40 0 2 1;
#X connect 42 0 43 0;
#X connect 43 0 44 0;
#X connect 44 0 45 0;
#X connect 45 0 46 1;
#X connect 46 0 2 0;
#X connect 46 0 2 1;
#X connect 47 0 20 0;
#X connect 49 0 41 0;
#X connect 49 4 51 0;
#X connect 50 0 52 0;
#X connect 51 0 50 0;
#X connect 52 0 53 0;
#X connect 53 0 54 0;
#X connect 54 0 83 0;
#X connect 56 0 57 0;
#X connect 57 0 58 0;
#X connect 58 0 59 0;
#X connect 60 0 81 0;
#X connect 61 0 17 0;
#X connect 62 0 70 0;
#X connect 62 0 78 0;
#X connect 65 0 67 0;
#X connect 66 0 65 0;
#X connect 67 0 68 0;
#X connect 68 0 69 0;
#X connect 69 0 82 0;
#X connect 70 0 63 0;
#X connect 70 1 64 0;
#X connect 70 4 66 0;
#X connect 71 0 29 0;
#X connect 72 0 46 0;
#X connect 73 0 12 0;
#X connect 74 0 5 0;
#X connect 75 0 76 0;
#X connect 75 0 74 1;
#X connect 76 0 78 1;
#X connect 77 0 37 1;
#X connect 77 0 85 0;
#X connect 78 0 5 0;
#X connect 79 0 80 0;
#X connect 80 0 12 0;
#X connect 81 0 74 0;
#X connect 81 0 49 0;
#X connect 82 1 83 1;
#X connect 83 0 84 0;
#X connect 85 0 3 0;
