#N canvas 0 -1895 1080 795 12;
#X obj 35 37 inlet~;
#X obj 386 344 cos~;
#X obj 441 193 phasor~;
#X obj 401 713 outlet~;
#X obj 726 703 outlet~;
#X obj 236 446 *~ 10;
#X obj 485 448 *~ 10;
#X obj 236 470 +~ 10;
#X obj 485 472 +~ 10;
#X obj 236 534 *~, f 12;
#X obj 365 462 +~ 1;
#X obj 601 463 +~ 1;
#X obj 485 536 *~, f 12;
#X obj 453 76 inlet~;
#X text 29 14 signalIn;
#X obj 224 24 inlet~;
#X obj 524 353 *~ -1;
#X obj 596 75 inlet~;
#X text 434 34 base frequency;
#X text 567 35 low/high ratio;
#X obj 575 106 expr~ pow(2 \, -$v1) \; pow(2 \, $v1);
#X obj 453 159 *~;
#X obj 614 200 phasor~;
#X obj 626 166 *~;
#X obj 67 152 delwrite~ \$0-rotL1 30;
#X obj 19 218 delwrite~ \$0-rotL2 30;
#X obj 283 149 delwrite~ \$0-rotR1 30;
#X obj 225 217 delwrite~ \$0-rotR2 30;
#X obj 86 87 lop~ 100;
#X obj 11 178 -~;
#X obj 278 89 lop~ 100;
#X obj 226 182 -~;
#X obj 236 494 vd~ \$0-rotL1;
#X obj 485 496 vd~ \$0-rotR1;
#X obj 818 351 cos~;
#X obj 668 453 *~ 10;
#X obj 917 455 *~ 10;
#X obj 668 477 +~ 10;
#X obj 917 479 +~ 10;
#X obj 668 541 *~, f 16;
#X obj 769 448 +~ 1;
#X obj 1031 457 +~ 1;
#X obj 917 543 *~, f 17;
#X obj 956 360 *~ -1;
#X obj 668 501 vd~ \$0-rotL2;
#X obj 917 503 vd~ \$0-rotR2;
#X obj 357 27 inlet;
#X text 361 6 xover f;
#X obj 698 618 *~ 0.7;
#X obj 435 626 *~ 0.7;
#X connect 0 0 28 0;
#X connect 0 0 29 0;
#X connect 1 0 5 0;
#X connect 1 0 10 0;
#X connect 1 0 16 0;
#X connect 2 0 1 0;
#X connect 5 0 7 0;
#X connect 6 0 8 0;
#X connect 7 0 32 0;
#X connect 8 0 33 0;
#X connect 9 0 3 0;
#X connect 9 0 48 0;
#X connect 10 0 9 1;
#X connect 11 0 12 1;
#X connect 12 0 4 0;
#X connect 12 0 49 0;
#X connect 13 0 21 0;
#X connect 13 0 23 0;
#X connect 15 0 30 0;
#X connect 15 0 31 0;
#X connect 16 0 6 0;
#X connect 16 0 11 0;
#X connect 17 0 20 0;
#X connect 20 0 21 1;
#X connect 20 1 23 1;
#X connect 21 0 2 0;
#X connect 22 0 34 0;
#X connect 23 0 22 0;
#X connect 28 0 24 0;
#X connect 28 0 29 1;
#X connect 29 0 25 0;
#X connect 30 0 31 1;
#X connect 30 0 26 0;
#X connect 31 0 27 0;
#X connect 32 0 9 0;
#X connect 33 0 12 0;
#X connect 34 0 35 0;
#X connect 34 0 40 0;
#X connect 34 0 43 0;
#X connect 35 0 37 0;
#X connect 36 0 38 0;
#X connect 37 0 44 0;
#X connect 38 0 45 0;
#X connect 39 0 3 0;
#X connect 39 0 48 0;
#X connect 40 0 39 1;
#X connect 41 0 42 1;
#X connect 42 0 4 0;
#X connect 42 0 49 0;
#X connect 43 0 36 0;
#X connect 43 0 41 0;
#X connect 44 0 39 0;
#X connect 45 0 42 0;
#X connect 46 0 30 1;
#X connect 46 0 28 1;
#X connect 48 0 4 0;
#X connect 49 0 3 0;
