#N canvas 203 170 656 455 12;
#X obj 35 37 inlet~;
#X obj 128 157 cos~;
#X obj 341 110 +~ -0.25;
#X obj 263 76 phasor~;
#X obj 341 134 wrap~;
#X obj 341 158 cos~;
#X obj 77 373 outlet~;
#X obj 325 482 r~ modF;
#X obj 298 374 outlet~;
#X obj 50 186 *~ 10;
#X obj 299 188 *~ 10;
#X obj 50 210 +~ 10;
#X obj 299 212 +~ 10;
#X obj 50 258 *~, f 12;
#X obj 128 181 +~ 1;
#X obj 380 190 +~ 1;
#X obj 299 260 *~, f 12;
#X obj 106 324 *~ 0.7;
#X obj 235 323 *~ 0.7;
#X obj 261 33 inlet~;
#X obj 50 234 vd~ \$0-rot;
#X obj 299 236 vd~ \$0-rot;
#X text 29 14 signalIn;
#X obj 35 68 delwrite~ \$0-rot 30;
#X connect 0 0 23 0;
#X connect 1 0 9 0;
#X connect 1 0 14 0;
#X connect 2 0 4 0;
#X connect 3 0 1 0;
#X connect 3 0 2 0;
#X connect 4 0 5 0;
#X connect 5 0 10 0;
#X connect 5 0 15 0;
#X connect 9 0 11 0;
#X connect 10 0 12 0;
#X connect 11 0 20 0;
#X connect 12 0 21 0;
#X connect 13 0 6 0;
#X connect 13 0 18 0;
#X connect 14 0 13 1;
#X connect 15 0 16 1;
#X connect 16 0 8 0;
#X connect 16 0 17 0;
#X connect 17 0 6 0;
#X connect 18 0 8 0;
#X connect 19 0 3 0;
#X connect 20 0 13 0;
#X connect 21 0 16 0;
