#N canvas 203 170 858 646 12;
#X obj 35 37 inlet~;
#X obj 441 175 cos~;
#X obj 455 119 phasor~;
#X obj 318 464 outlet~;
#X obj 539 465 outlet~;
#X obj 291 277 *~ 10;
#X obj 540 279 *~ 10;
#X obj 291 301 +~ 10;
#X obj 540 303 +~ 10;
#X obj 291 349 *~, f 12;
#X obj 369 272 +~ 1;
#X obj 621 281 +~ 1;
#X obj 540 351 *~, f 12;
#X obj 347 415 *~ 0.7;
#X obj 476 414 *~ 0.7;
#X obj 453 76 inlet~;
#X text 29 14 signalIn;
#X obj 188 38 inlet~;
#X obj 35 68 delwrite~ \$0-rotL 30;
#X obj 188 69 delwrite~ \$0-rotR 30;
#X obj 291 325 vd~ \$0-rotL;
#X obj 540 327 vd~ \$0-rotR;
#X obj 579 184 *~ -1;
#X connect 0 0 18 0;
#X connect 1 0 5 0;
#X connect 1 0 10 0;
#X connect 1 0 22 0;
#X connect 2 0 1 0;
#X connect 5 0 7 0;
#X connect 6 0 8 0;
#X connect 7 0 20 0;
#X connect 8 0 21 0;
#X connect 9 0 3 0;
#X connect 9 0 14 0;
#X connect 10 0 9 1;
#X connect 11 0 12 1;
#X connect 12 0 4 0;
#X connect 12 0 13 0;
#X connect 13 0 3 0;
#X connect 14 0 4 0;
#X connect 15 0 2 0;
#X connect 17 0 19 0;
#X connect 20 0 9 0;
#X connect 21 0 12 0;
#X connect 22 0 6 0;
#X connect 22 0 11 0;
