#N canvas 0 25 747 555 12;
#X obj 208 129 bng 19 250 50 0 empty empty empty 0 -10 0 12 #fcfcfc #000000 #000000;
#X obj 208 169 openpanel;
#X obj 378 288 soundfiler;
#X msg 7 334 symbol /Applications/Ableton\ Live\ 11\ Suite.app/Contents/App-Resources/Core\ Library/Samples/Loops/Tonal/Keys/Dirty\ Herbie\ Chords\ 73\ bpm.wav, f 40;
#X msg 7 193 set symbol \$1;
#X text 228 128 load;
#X obj 314 214 print;
#X obj 208 211 pack s s;
#X obj 306 70 loadbang;
#X obj 338 118 symbol \$1;
#X obj 406 86 bng 19 250 50 0 empty empty empty 0 -10 0 12 #fcfcfc #000000 #000000;
#X obj 39 267 loadbang;
#X obj 378 312 t b f;
#X obj 399 444 s sampleLoaded_\$1;
#X obj 431 375 value sampleLength_\$1;
#X obj 542 200 array define left-\$1;
#X msg 208 242 read -resize \$1 left-\$2 right-\$2;
#X obj 552 241 array define right-\$1;
#X connect 0 0 1 0;
#X connect 1 0 4 0;
#X connect 1 0 7 0;
#X connect 2 0 12 0;
#X connect 3 0 7 0;
#X connect 4 0 3 0;
#X connect 7 0 16 0;
#X connect 7 0 6 0;
#X connect 8 0 9 0;
#X connect 9 0 7 1;
#X connect 10 0 9 0;
#X connect 11 0 3 0;
#X connect 12 0 13 0;
#X connect 12 1 14 0;
#X connect 16 0 2 0;
#X coords 0 -1 1 1 85 60 1 200 100;
