#N canvas 0 25 609 402 12;
#X obj 208 129 bng 19 250 50 0 empty empty empty 0 -10 0 12 #fcfcfc #000000 #000000;
#X obj 208 169 openpanel;
#X obj 378 257 soundfiler;
#X obj 378 281 value sampleLength;
#X msg 7 334 symbol /Users/simonfay/Desktop/funkyDrummer.wav, f 40;
#X msg 7 193 set symbol \$1;
#X msg 208 256 read -resize \$1 sample;
#X text 228 128 load;
#X obj 208 280 outlet;
#X obj 313 154 array define \$1;
#X obj 208 211 pack s \$1;
#X connect 0 0 1 0;
#X connect 1 0 5 0;
#X connect 1 0 10 0;
#X connect 2 0 3 0;
#X connect 4 0 10 0;
#X connect 5 0 4 0;
#X connect 6 0 2 0;
#X connect 6 0 8 0;
#X connect 10 0 6 0;
#X coords 0 -1 1 1 85 60 1 200 100;
