#N canvas 484 175 651 497 12;
#X obj 140 109 value sampleLength;
#X obj 402 46 tgl 19 0 empty empty empty 0 -10 0 12 #fcfcfc #000000 #000000 0 1;
#X obj 241 56 t f f, f 10;
#X obj 236 81 sel 1;
#X obj 99 170 / 44100;
#X obj 99 194 expr 1/$f1;
#X obj 99 218 *, f 26;
#X obj 99 242 phasor~;
#X obj 99 312 *~, f 16;
#X obj 140 133 t f f, f 16;
#X obj 252 163 - 2;
#X obj 99 336 +~ 1;
#X obj 99 360 tabread4~ \$1;
#X obj 99 384 *~, f 20;
#X obj 99 408 outlet~;
#X obj 426 48 vsl 19 162 0 127 0 0 empty empty empty 0 -9 0 12 #fcfcfc #000000 #000000 0 1;
#X obj 411 226 / 127;
#X obj 411 250 pack 0 5;
#X obj 411 274 line~;
#X obj 99 266 *~, f 27;
#X obj 359 300 *~;
#X connect 0 0 9 0;
#X connect 1 0 2 0;
#X connect 2 0 3 0;
#X connect 2 1 19 1;
#X connect 2 1 20 1;
#X connect 2 1 6 1;
#X connect 3 0 0 0;
#X connect 4 0 5 0;
#X connect 5 0 6 0;
#X connect 6 0 7 0;
#X connect 7 0 19 0;
#X connect 8 0 11 0;
#X connect 9 0 4 0;
#X connect 9 1 10 0;
#X connect 10 0 8 1;
#X connect 11 0 12 0;
#X connect 12 0 13 0;
#X connect 13 0 14 0;
#X connect 15 0 16 0;
#X connect 16 0 17 0;
#X connect 17 0 18 0;
#X connect 18 0 20 0;
#X connect 19 0 8 0;
#X connect 20 0 13 1;
#X coords 0 -1 1 1 50 220 1 400 5;
