#N canvas 208 233 443 428 12;
#X obj 65 49 inlet~;
#X obj 260 148 cos~;
#X obj 316 148 +~ -0.25;
#X obj 63 240 *~;
#X obj 152 240 *~, f 25;
#X obj 261 111 phasor~;
#X obj 64 92 hilbert_sjf;
#X obj 316 172 wrap~;
#X obj 316 196 cos~;
#X obj 64 322 outlet~;
#X obj 64 298 +~, f 13;
#X obj 261 44 inlet~;
#X text 63 17 Signal;
#X text 391 -58 F Shift;
#X obj 179 322 outlet~;
#X obj 179 298 -~, f 13;
#X text 51 343 LSB;
#X text 182 348 USB;
#X text 262 9 F Shift;
#X connect 0 0 6 0;
#X connect 1 0 3 1;
#X connect 2 0 7 0;
#X connect 3 0 10 0;
#X connect 3 0 15 0;
#X connect 4 0 10 1;
#X connect 4 0 15 1;
#X connect 5 0 1 0;
#X connect 5 0 2 0;
#X connect 6 0 3 0;
#X connect 6 1 4 0;
#X connect 7 0 8 0;
#X connect 8 0 4 1;
#X connect 10 0 9 0;
#X connect 11 0 5 0;
#X connect 15 0 14 0;
