#N canvas 0 23 1440 746 10;
#X obj 212 6 tgl 15 0 empty empty empty 17 7 0 10 -262144 -1 -1 1 1
;
#N canvas 340 55 715 823 samplePlayer 0;
#N canvas 0 22 450 278 (subpatch) 0;
#X array \$0-loopedSamp 317520 float 2;
#X coords 0 1 317520 -1 100 60 1 0 0;
#X restore 109 154 graph;
#X obj 111 105 bng 15 250 50 0 empty empty empty 17 7 0 10 -262144
-1 -1;
#X text 132 102 <--- load a different file;
#X floatatom 417 75 10 0 0 0 - - -;
#X obj 417 115 / 44100;
#X floatatom 417 136 10 0 0 0 - - -;
#X floatatom 417 227 10 0 0 0 - - -;
#X obj 417 287 phasor~;
#X obj 417 308 *~, f 17;
#X obj 516 233 - 2;
#X obj 417 402 +~ 1;
#N canvas 0 23 450 300 1/\$1 0;
#X obj 93 65 t b f;
#X msg 93 86 1;
#X obj 93 107 /, f 5;
#X obj 95 39 inlet;
#X obj 93 128 outlet;
#X connect 0 0 1 0;
#X connect 0 1 2 1;
#X connect 1 0 2 0;
#X connect 2 0 4 0;
#X connect 3 0 0 0;
#X restore 417 188 pd 1/\$1;
#X obj 417 56 r \$0-loopedSamp_len;
#X obj 417 433 tabread4~ \$0-loopedSamp;
#X obj 126 37 tabread4~ \$0-loopedSamp;
#X obj 417 95 t f f, f 17;
#X obj 417 488 *~;
#X obj 235 154 vsl 15 128 0 127 0 0 empty empty empty 0 -9 0 10 -262144
-1 -1 12700 1;
#X obj 235 290 / 127;
#X obj 235 311 pack 0 5;
#X obj 297 411 line~;
#X obj 417 535 outlet~;
#X obj 257 152 tgl 15 0 empty empty empty 17 7 0 10 -262144 -1 -1 1
1;
#X obj 257 172 t b f;
#X obj 417 258 *;
#N canvas 0 23 450 300 loadsample 0;
#X obj 37 37 inlet;
#X obj 37 61 openpanel;
#X obj 37 83 pack s \$0;
#X obj 37 127 soundfiler;
#X msg 37 107 read -resize \$1 \$2-loopedSamp;
#X obj 37 148 s \$0-loopedSamp_len;
#X connect 0 0 1 0;
#X connect 1 0 2 0;
#X connect 2 0 4 0;
#X connect 3 0 5 0;
#X connect 4 0 3 0;
#X restore 111 125 pd loadsample;
#X obj 601 168 pow -1;
#X obj 233 123 bng 15 250 50 0 empty empty empty 17 7 0 10 -262144
-1 -1;
#X floatatom 601 189 5 0 0 0 - - -;
#X floatatom 601 271 5 0 0 0 - - -;
#X obj 601 291 outlet;
#X obj 601 250 * 60;
#X obj 109 235 hradio 15 1 0 8 empty empty empty 0 -8 0 10 -262144
-1 -1 1;
#X obj 600 132 / 16;
#X obj 601 95 t b f;
#X obj 109 255 expr pow(2 \, $f1+2);
#X obj 302 369 *;
#X obj 417 454 hip~ 10;
#X connect 1 0 25 0;
#X connect 3 0 15 0;
#X connect 4 0 5 0;
#X connect 5 0 11 0;
#X connect 5 0 33 0;
#X connect 6 0 24 0;
#X connect 7 0 8 0;
#X connect 8 0 10 0;
#X connect 9 0 8 1;
#X connect 10 0 13 0;
#X connect 11 0 6 0;
#X connect 12 0 3 0;
#X connect 13 0 37 0;
#X connect 15 0 4 0;
#X connect 15 1 9 0;
#X connect 16 0 21 0;
#X connect 17 0 18 0;
#X connect 18 0 19 0;
#X connect 19 0 36 0;
#X connect 20 0 16 1;
#X connect 22 0 23 0;
#X connect 23 0 6 0;
#X connect 23 0 36 0;
#X connect 23 1 24 1;
#X connect 23 1 36 1;
#X connect 24 0 7 0;
#X connect 26 0 28 0;
#X connect 27 0 3 0;
#X connect 28 0 31 0;
#X connect 29 0 30 0;
#X connect 31 0 29 0;
#X connect 32 0 35 0;
#X connect 33 0 26 0;
#X connect 34 0 33 0;
#X connect 34 1 33 1;
#X connect 35 0 34 0;
#X connect 36 0 20 0;
#X connect 37 0 16 0;
#X coords 0 -1 1 1 200 200 2 100 100;
#X restore 5 6 pd samplePlayer;
#X obj 1097 425 dac~;
#X msg 212 27 \; pd dsp \$1;
#X obj 1114 74 loadbang;
#X msg 1114 95 60;
#X obj 1114 116 pow -1;
#X floatatom 1114 137 5 0 0 0 - - -;
#X obj 1114 172 phasor~ 0.0166667;
#X text 939 94 full loop is 60 second long;
#X floatatom 198 212 5 0 0 0 - - -;
#X obj 43 585 *~, f 20;
#X obj 43 613 dac~;
#X obj 43 386 vsl 15 128 0 127 0 0 empty empty empty 0 -9 0 10 -262144
-1 -1 0 1;
#X obj 43 522 / 127;
#X obj 43 543 pack 0 5;
#X obj 43 564 line~;
#X obj 1213 115 bng 15 250 50 0 empty empty empty 17 7 0 10 -262144
-1 -1;
#X msg 1213 135 0;
#N canvas 0 23 533 684 randStutter 0;
#X obj 203 25 hsl 130 15 0 1 0 0 \$0-stutter_snd \$0-stutter_rec stutter_36.43%
-2 -8 0 10 -262144 -1 -1 4700 1;
#X obj 272 315 r \$0-stutter_snd;
#X obj 272 416 pack 0 \$0;
#X obj 203 55 hsl 130 15 0 1 0 0 \$0-reverse_snd \$0-reverse_rec reverse_29.45%
-2 -8 0 10 -262144 -1 -1 3800 1;
#X obj 52 413 pack 0 \$0;
#X obj 52 322 r \$0-reverse_snd;
#X obj 272 336 * 10000;
#X obj 272 357 int;
#X obj 272 378 * 0.01;
#X msg 272 438 \; \$2-stutter_rec label stutter_\$1%;
#X msg 52 435 \; \$2-reverse_rec label reverse_\$1%;
#X obj 52 345 * 10000;
#X obj 52 366 int;
#X obj 52 387 * 0.01;
#X floatatom 200 75 5 1 500 1 ramp #0-ramp_rec #0-ramp_snd;
#X floatatom 200 90 5 20 2000 1 xover_f #0-xover_rec #0-xover_snd;
#X floatatom 200 105 5 1 16 1 stutter_depth #0-maxStutDepth_rec #0-maxStutDepth_snd
;
#X obj 335 27 vsl 20 90 0 127 0 0 \$0-vol_snd \$0-vol_rev vol 0 -9
0 10 -262144 -1 -1 6400 1;
#X connect 1 0 6 0;
#X connect 2 0 9 0;
#X connect 4 0 10 0;
#X connect 5 0 11 0;
#X connect 6 0 7 0;
#X connect 7 0 8 0;
#X connect 8 0 2 0;
#X connect 11 0 12 0;
#X connect 12 0 13 0;
#X connect 13 0 4 0;
#X coords 0 -1 1 1 155 110 2 200 10;
#X restore 672 63 pd randStutter;
#X obj 198 230 s \$0-bpm_snd;
#X msg 109 214 clear;
#X obj 1038 254 stutterVoice \$0 L;
#X obj 15 261 delwrite~ \$0-lG_L 60000;
#X obj 1167 254 stutterVoice \$0 L;
#N canvas 0 23 1411 729 spectralDelay 0;
#X msg 1138 186 0;
#X obj 1040 231 osc~;
#X obj 1040 183 samplerate~;
#X obj 1040 254 *~ -0.5;
#X obj 1040 277 +~ 0.5;
#X obj 1032 160 bng 15 250 50 0 empty empty empty 0 -6 0 8 -262144
-1 -1;
#X text 1088 229 period 512;
#X obj 1032 302 tabwrite~ \$0-hanning;
#X obj 1040 207 / 512;
#N canvas 27 23 381 830 spectralDelL 0;
#X obj 30 25 inlet~;
#X obj 37 83 rfft~;
#X obj 32 56 *~, f 10;
#X obj 92 35 tabreceive~ \$0-hanning;
#X obj 55 485 rifft~;
#X obj 59 595 outlet~;
#X obj 55 527 *~;
#X obj 109 549 tabreceive~ \$0-hanning;
#X obj 234 456 vd~ \$0-sdL2;
#X obj 246 41 block~ 512 4;
#X obj 109 195 tabreceive~ \$0-sdtL;
#X obj 74 453 vd~ \$0-sdL1;
#X obj 25 120 delwrite~ \$0-sdL1 10000;
#X obj 185 123 delwrite~ \$0-sdL2 10000;
#X obj 113 252 -~;
#X obj 144 215 wrap~;
#X obj 112 354 *~ 512;
#X obj 112 375 /~ 44.1;
#X obj 55 506 /~ 768;
#X connect 0 0 2 0;
#X connect 1 0 12 0;
#X connect 1 1 13 0;
#X connect 2 0 1 0;
#X connect 3 0 2 1;
#X connect 4 0 18 0;
#X connect 6 0 5 0;
#X connect 7 0 6 1;
#X connect 8 0 4 1;
#X connect 10 0 14 0;
#X connect 10 0 15 0;
#X connect 11 0 4 0;
#X connect 14 0 16 0;
#X connect 15 0 14 1;
#X connect 16 0 17 0;
#X connect 17 0 11 0;
#X connect 17 0 8 0;
#X connect 18 0 6 0;
#X restore 38 133 pd spectralDelL;
#N canvas 27 23 381 830 spectralDelR 0;
#X obj 30 25 inlet~;
#X obj 37 83 rfft~;
#X obj 32 56 *~, f 10;
#X obj 92 35 tabreceive~ \$0-hanning;
#X obj 56 404 rifft~;
#X obj 60 514 outlet~;
#X obj 56 446 *~;
#X obj 110 468 tabreceive~ \$0-hanning;
#X obj 246 41 block~ 512 4;
#X obj 113 252 -~;
#X obj 144 215 wrap~;
#X obj 113 273 *~ 512;
#X obj 113 294 /~ 44.1;
#X obj 56 425 /~ 768;
#X obj 25 120 delwrite~ \$0-sdR1 10000;
#X obj 185 123 delwrite~ \$0-sdR2 10000;
#X obj 109 195 tabreceive~ \$0-sdtR;
#X obj 235 375 vd~ \$0-sdR2;
#X obj 75 372 vd~ \$0-sdR1;
#X connect 0 0 2 0;
#X connect 1 0 14 0;
#X connect 1 1 15 0;
#X connect 2 0 1 0;
#X connect 3 0 2 1;
#X connect 4 0 13 0;
#X connect 6 0 5 0;
#X connect 7 0 6 1;
#X connect 9 0 11 0;
#X connect 10 0 9 1;
#X connect 11 0 12 0;
#X connect 12 0 17 0;
#X connect 12 0 18 0;
#X connect 13 0 6 0;
#X connect 16 0 9 0;
#X connect 16 0 10 0;
#X connect 17 0 4 1;
#X connect 18 0 4 0;
#X restore 297 142 pd spectralDelR;
#N canvas 0 23 797 478 old 0;
#X msg 131 15 256;
#X obj 111 330 tabwrite \$0-sdtL;
#X obj 107 305 + 1;
#X obj 131 57 until;
#X msg 131 78 1, f 1;
#X obj 131 99 + -1;
#X obj 131 120 int;
#X msg 155 76 -1;
#X obj 131 141 t b f;
#X obj 70 209 +;
#X obj 69 230 int;
#X obj 131 36 t f b b, f 19;
#X obj 69 167 random 11;
#X obj 69 188 - 5;
#X obj 69 251 % 215;
#X obj 69 272 abs;
#X obj 504 86 tabplay~ array1;
#X obj 515 43 bng 15 250 50 0 empty empty empty 17 7 0 10 -262144 -1
-1;
#X obj 384 281 *~;
#X obj 382 335 dac~;
#X obj 458 136 hsl 128 15 0 127 0 0 empty empty empty -2 -8 0 10 -262144
-1 -1 0 1;
#X obj 455 156 / 127;
#X obj 365 138 pack 0 10;
#X obj 365 159 line~;
#X obj 455 177 * -1;
#X obj 455 198 + 1;
#X obj 455 219 pack 0 10;
#X obj 455 240 line~;
#X obj 475 275 *~;
#X obj 473 329 dac~;
#N canvas 0 22 450 278 (subpatch) 0;
#X array array1 209801 float 2;
#X coords 0 1 209801 -1 200 140 1;
#X restore 580 205 graph;
#N canvas 657 322 783 556 loadsample 0;
#X obj 199 69 openpanel;
#X obj 199 123 pack s \$0;
#X obj 212 339 soundfiler;
#X floatatom 213 365 5 0 0 0 - - -;
#X obj 291 6 loadbang;
#X obj 199 35 r \$0-load_snd;
#X obj 400 231 s \$0-filename;
#X msg 400 206 set \$1;
#X obj 156 229 f \$0;
#X msg 156 250 \; \$1-sample normalize 1;
#X msg 400 157 symbol \$1;
#X obj 101 194 t b b l, f 19;
#N canvas 0 23 459 495 fade_end_of_sample 0;
#X obj 37 37 inlet;
#X obj 98 51 * 0.001;
#X floatatom 98 72 5 0 0 0 - - -;
#X obj 97 136 int 88;
#X obj 97 178 until;
#X msg 97 199 1;
#X obj 97 241 int;
#X obj 97 156 t f b f, f 14;
#X obj 97 290 /, f 14;
#X obj 97 311 expr 1- $f1;
#X obj 97 263 t f f, f 17;
#X obj 200 298 expr $f3 - ($f2 - $f1), f 8;
#X obj 137 369 tabread \$0-sample, f 9;
#X obj 200 341 t f f;
#X obj 97 420 tabwrite \$0-sample;
#X obj 97 220 +;
#X msg 130 199 0;
#X obj 97 332 *;
#X obj 281 171 inlet;
#X obj 98 92 * 10;
#X obj 98 30 r \$1-sampRate;
#X connect 0 0 3 0;
#X connect 1 0 2 0;
#X connect 2 0 19 0;
#X connect 3 0 7 0;
#X connect 4 0 5 0;
#X connect 5 0 15 0;
#X connect 6 0 10 0;
#X connect 6 0 15 1;
#X connect 7 0 4 0;
#X connect 7 1 16 0;
#X connect 7 2 8 1;
#X connect 7 2 11 1;
#X connect 8 0 9 0;
#X connect 9 0 17 0;
#X connect 10 0 8 0;
#X connect 10 1 11 0;
#X connect 11 0 13 0;
#X connect 12 0 17 1;
#X connect 13 0 12 0;
#X connect 13 1 14 1;
#X connect 15 0 6 0;
#X connect 16 0 15 1;
#X connect 17 0 14 0;
#X connect 18 0 11 2;
#X connect 19 0 3 1;
#X connect 20 0 1 0;
#X restore 75 420 pd fade_end_of_sample;
#X obj 353 30 r \$0-file;
#X obj 400 182 strippath;
#N canvas 683 191 556 541 fade_start_of_sample 0;
#X obj 38 37 inlet;
#X obj 136 41 * 0.001;
#X floatatom 136 62 5 0 0 0 - - -;
#X obj 38 123 int 88;
#X obj 38 165 until;
#X msg 38 186 1;
#X obj 38 228 int;
#X obj 38 143 t f b f, f 14;
#X obj 38 277 /, f 14;
#X obj 38 250 t f f, f 17;
#X obj 78 356 tabread \$0-sample, f 9;
#X obj 141 328 t f f;
#X obj 38 407 tabwrite \$0-sample;
#X obj 38 207 +;
#X obj 38 319 *;
#X obj 136 82 * 2;
#X obj 52 74 bng 15 250 50 0 empty empty empty 17 7 0 10 -262144 -1
-1;
#X msg 71 186 -1;
#X obj 136 20 r \$1-sampRate;
#X connect 0 0 3 0;
#X connect 1 0 2 0;
#X connect 2 0 15 0;
#X connect 3 0 7 0;
#X connect 4 0 5 0;
#X connect 5 0 13 0;
#X connect 6 0 9 0;
#X connect 6 0 13 1;
#X connect 7 0 4 0;
#X connect 7 1 17 0;
#X connect 7 2 8 1;
#X connect 8 0 14 0;
#X connect 9 0 8 0;
#X connect 9 1 11 0;
#X connect 10 0 14 1;
#X connect 11 0 10 0;
#X connect 11 1 12 1;
#X connect 13 0 6 0;
#X connect 14 0 12 0;
#X connect 15 0 3 1;
#X connect 16 0 3 0;
#X connect 17 0 13 1;
#X connect 18 0 1 0;
#X restore 11 310 pd fade_start_of_sample;
#X obj 306 375 s \$0-sampLen_samps;
#X obj 409 76 bng 15 250 50 0 empty empty empty 17 7 0 10 -262144 -1
-1;
#X obj 466 23 bng 15 250 50 0 empty empty empty 17 7 0 10 -262144 -1
-1;
#X obj 292 53 symbol \$2;
#X msg 212 319 read -resize \$1 array1;
#X obj 164 50 bng 15 250 50 0 empty empty empty 17 7 0 10 -262144 -1
-1;
#X obj 158 7 inlet;
#X connect 0 0 1 0;
#X connect 1 0 10 0;
#X connect 1 0 11 0;
#X connect 2 0 3 0;
#X connect 2 0 16 0;
#X connect 3 0 12 1;
#X connect 4 0 19 0;
#X connect 5 0 0 0;
#X connect 7 0 6 0;
#X connect 8 0 9 0;
#X connect 10 0 14 0;
#X connect 11 2 20 0;
#X connect 13 0 19 0;
#X connect 14 0 7 0;
#X connect 17 0 1 0;
#X connect 18 0 19 0;
#X connect 19 0 1 0;
#X connect 20 0 2 0;
#X connect 21 0 0 0;
#X connect 22 0 21 0;
#X restore 639 38 pd loadsample;
#X obj 643 12 bng 15 250 50 0 empty empty empty 17 7 0 10 -262144 -1
-1;
#X connect 0 0 11 0;
#X connect 2 0 1 0;
#X connect 3 0 4 0;
#X connect 4 0 5 0;
#X connect 5 0 6 0;
#X connect 6 0 5 1;
#X connect 6 0 8 0;
#X connect 7 0 5 1;
#X connect 8 0 12 0;
#X connect 8 1 1 1;
#X connect 9 0 10 0;
#X connect 10 0 14 0;
#X connect 11 0 3 0;
#X connect 11 1 7 0;
#X connect 12 0 13 0;
#X connect 13 0 9 0;
#X connect 14 0 15 0;
#X connect 15 0 9 1;
#X connect 15 0 2 0;
#X connect 16 0 28 1;
#X connect 17 0 16 0;
#X connect 18 0 19 0;
#X connect 18 0 19 1;
#X connect 20 0 21 0;
#X connect 21 0 22 0;
#X connect 21 0 24 0;
#X connect 22 0 23 0;
#X connect 23 0 18 1;
#X connect 24 0 25 0;
#X connect 25 0 26 0;
#X connect 26 0 27 0;
#X connect 27 0 28 0;
#X connect 28 0 29 0;
#X connect 28 0 29 1;
#X connect 32 0 31 0;
#X restore 948 147 pd old;
#N canvas 27 23 381 830 spectralDelC 0;
#X obj 30 25 inlet~;
#X obj 37 83 rfft~;
#X obj 32 56 *~, f 10;
#X obj 92 35 tabreceive~ \$0-hanning;
#X obj 56 404 rifft~;
#X obj 60 514 outlet~;
#X obj 56 446 *~;
#X obj 110 468 tabreceive~ \$0-hanning;
#X obj 246 41 block~ 512 4;
#X obj 113 252 -~;
#X obj 144 215 wrap~;
#X obj 113 273 *~ 512;
#X obj 113 294 /~ 44.1;
#X obj 56 425 /~ 768;
#X obj 25 120 delwrite~ \$0-sdC1 10000;
#X obj 185 123 delwrite~ \$0-sdC2 10000;
#X obj 109 195 tabreceive~ \$0-sdtC;
#X obj 235 375 vd~ \$0-sdC2;
#X obj 75 372 vd~ \$0-sdC1;
#X connect 0 0 2 0;
#X connect 1 0 14 0;
#X connect 1 1 15 0;
#X connect 2 0 1 0;
#X connect 3 0 2 1;
#X connect 4 0 13 0;
#X connect 6 0 5 0;
#X connect 7 0 6 1;
#X connect 9 0 11 0;
#X connect 10 0 9 1;
#X connect 11 0 12 0;
#X connect 12 0 17 0;
#X connect 12 0 18 0;
#X connect 13 0 6 0;
#X connect 16 0 9 0;
#X connect 16 0 10 0;
#X connect 17 0 4 1;
#X connect 18 0 4 0;
#X restore 188 97 pd spectralDelC;
#X obj 200 64 *~ 0.707;
#X obj 695 137 array;
#X obj 721 87 array define \$0-sdtR;
#X obj 580 87 array define \$0-sdtC;
#X obj 420 86 array define \$0-sdtL;
#X obj 829 127 array define \$0-hanning 512;
#X obj 1029 134 loadbang;
#N canvas 0 23 1389 618 randomDelay 0;
#X obj 339 97 bng 15 250 50 0 empty empty empty 17 7 0 10 -262144 -1
-1;
#X obj 458 199 bng 15 250 50 0 empty empty empty 17 7 0 10 -262144
-1 -1;
#X obj 621 338 f \$0;
#X msg 515 514 \; 1003-sdtL cosinesum 256 -7 -10 7 -4 5 -6 -3 -14 -15
-7 5 2 2 -5 7 6 -12 -8 9 13 -14;
#X msg 809 357 set \, addsemi;
#X msg 621 359 add2 \$1-sdtL cosinesum 256;
#X obj 531 334 until;
#X msg 510 416 add2 \$1;
#X obj 458 219 t b b;
#X obj 532 313 + 2;
#X obj 644 287 random 2;
#X obj 639 375 f \$0;
#X msg 639 396 add2 \$1-sdtL sinesum 256;
#X obj 645 308 sel 0 1;
#X obj 488 259 t b b b b, f 47;
#X obj 250 4 loadbang;
#X msg 250 25 1;
#X obj 1075 352 f \$0;
#X msg 930 507 \; 1003-sdtR cosinesum 256 0 7 -8 -15 -2 8 13 -9 15
-15 -7 -4 2 -3 -12 -13 5;
#X msg 1263 371 set \, addsemi;
#X obj 985 348 until;
#X msg 985 411 add2 \$1;
#X obj 912 233 t b b;
#X obj 986 327 + 2;
#X obj 1098 301 random 2;
#X obj 1093 389 f \$0;
#X obj 1099 322 sel 0 1;
#X obj 942 273 t b b b b, f 47;
#X msg 1075 373 add2 \$1-sdtR cosinesum 256;
#X msg 1093 410 add2 \$1-sdtR sinesum 256;
#X obj 251 49 metro 1000;
#X obj 184 344 f \$0;
#X msg 39 499 \; 1003-sdtC cosinesum 256 -9 -9 4 11 -2 -14 5 2 11 2
-7 -6 -1 2 -14 7 -8 -1 -3;
#X msg 372 363 set \, addsemi;
#X obj 94 340 until;
#X msg 94 403 add2 \$1;
#X obj 21 225 t b b;
#X obj 95 319 + 2;
#X obj 207 293 random 2;
#X obj 202 381 f \$0;
#X obj 208 314 sel 0 1;
#X obj 51 265 t b b b b, f 47;
#X msg 184 365 add2 \$1-sdtC cosinesum 256;
#X msg 202 402 add2 \$1-sdtC sinesum 256;
#X obj 531 355 random 31;
#X obj 531 376 - 15;
#X obj 94 361 random 31;
#X obj 94 382 - 15;
#X obj 985 369 random 31;
#X obj 985 390 - 15;
#X obj 251 70 random 5000;
#X obj 251 91 + 500;
#X floatatom 251 112 5 0 0 0 - - -;
#X obj 94 298 random 20;
#X obj 531 292 random 20;
#X obj 985 306 random 20;
#X connect 0 0 1 0;
#X connect 1 0 8 0;
#X connect 1 0 22 0;
#X connect 1 0 36 0;
#X connect 2 0 5 0;
#X connect 4 0 3 0;
#X connect 5 0 3 0;
#X connect 6 0 44 0;
#X connect 7 0 3 0;
#X connect 8 0 3 0;
#X connect 8 1 14 0;
#X connect 9 0 6 0;
#X connect 10 0 13 0;
#X connect 11 0 12 0;
#X connect 12 0 3 0;
#X connect 13 0 2 0;
#X connect 13 1 11 0;
#X connect 14 1 54 0;
#X connect 14 2 10 0;
#X connect 14 3 4 0;
#X connect 15 0 16 0;
#X connect 16 0 30 0;
#X connect 17 0 28 0;
#X connect 19 0 18 0;
#X connect 20 0 48 0;
#X connect 21 0 18 0;
#X connect 22 0 18 0;
#X connect 22 1 27 0;
#X connect 23 0 20 0;
#X connect 24 0 26 0;
#X connect 25 0 29 0;
#X connect 26 0 17 0;
#X connect 26 1 25 0;
#X connect 27 1 55 0;
#X connect 27 2 24 0;
#X connect 27 3 19 0;
#X connect 28 0 18 0;
#X connect 29 0 18 0;
#X connect 30 0 0 0;
#X connect 30 0 50 0;
#X connect 31 0 42 0;
#X connect 33 0 32 0;
#X connect 34 0 46 0;
#X connect 35 0 32 0;
#X connect 36 0 32 0;
#X connect 36 1 41 0;
#X connect 37 0 34 0;
#X connect 38 0 40 0;
#X connect 39 0 43 0;
#X connect 40 0 31 0;
#X connect 40 1 39 0;
#X connect 41 1 53 0;
#X connect 41 2 38 0;
#X connect 41 3 33 0;
#X connect 42 0 32 0;
#X connect 43 0 32 0;
#X connect 44 0 45 0;
#X connect 45 0 7 0;
#X connect 46 0 47 0;
#X connect 47 0 35 0;
#X connect 48 0 49 0;
#X connect 49 0 21 0;
#X connect 50 0 51 0;
#X connect 51 0 30 1;
#X connect 51 0 52 0;
#X connect 53 0 37 0;
#X connect 54 0 9 0;
#X connect 55 0 23 0;
#X restore 482 205 pd randomDelay;
#X obj 103 19 inlet~;
#X obj 372 22 inlet~;
#X obj 297 254 outlet~;
#X obj 38 254 outlet~;
#X connect 0 0 1 1;
#X connect 1 0 3 0;
#X connect 2 0 8 0;
#X connect 3 0 4 0;
#X connect 4 0 7 0;
#X connect 5 0 2 0;
#X connect 5 0 0 0;
#X connect 5 0 7 0;
#X connect 8 0 1 0;
#X connect 9 0 24 0;
#X connect 10 0 23 0;
#X connect 12 0 23 0;
#X connect 12 0 24 0;
#X connect 13 0 12 0;
#X connect 19 0 5 0;
#X connect 21 0 9 0;
#X connect 21 0 13 0;
#X connect 22 0 10 0;
#X connect 22 0 13 0;
#X restore 811 333 pd spectralDelay;
#X connect 0 0 3 0;
#X connect 1 0 11 1;
#X connect 1 0 23 0;
#X connect 1 1 10 0;
#X connect 4 0 5 0;
#X connect 5 0 6 0;
#X connect 6 0 7 0;
#X connect 7 0 8 0;
#X connect 8 0 22 0;
#X connect 8 0 24 0;
#X connect 10 0 20 0;
#X connect 11 0 12 0;
#X connect 13 0 14 0;
#X connect 14 0 15 0;
#X connect 15 0 16 0;
#X connect 16 0 11 0;
#X connect 17 0 18 0;
#X connect 18 0 8 1;
#X connect 21 0 23 0;
#X connect 22 0 2 0;
#X connect 22 0 25 0;
#X connect 22 1 2 0;
#X connect 22 1 25 0;
#X connect 22 1 25 1;
#X connect 24 0 2 1;
#X connect 24 0 25 1;
#X connect 24 1 2 0;
#X connect 24 1 2 1;
#X connect 24 1 25 1;
#X connect 24 1 25 0;
