#N canvas 0 23 1440 855 12;
#N canvas 0 22 450 278 (subpatch) 0;
#X array \$0-samp 9542 float 2;
#X coords 0 1 9542 -1 200 140 1 0 0;
#X restore 53 260 graph;
#X obj 982 71 inlet;
#X obj 1033 586 *~, f 22;
#X obj 1185 528 pack 0 5;
#X obj 1185 552 line~;
#X obj 1033 610 outlet~;
#X obj 1033 499 tabread4~ \$0-samp;
#X obj 1033 410 line~;
#X obj 1033 434 *~;
#X obj 1033 458 +~ 1;
#X obj 1089 407 r \$0-segLength;
#X obj 1089 431 - 2;
#X obj 1089 455 sig~;
#X obj 1023 196 r \$0-segLengthMS;
#X msg 1033 375 0 \, 1 \$1;
#X obj 1033 339 f;
#X obj 1075 319 * 1;
#X floatatom 1306 290 5 0 0 0 - - - 0;
#X obj 1237 275 t b f;
#X obj 1237 251 expr pow(2 \, -1*$f1/12);
#X floatatom 55 72 24 0 0 0 samps \$0-segStartSamps \$0-segStart 0;
#X floatatom 55 90 24 0 0 0 ms \$0-segStartMS \$0-segStartMSsnd 0;
#X obj 58 53 hsl 162 19 0 1 0 0 \$0-segStartNormalisedsnd \$0-segStartNormalised segment_start -2 -10 0 12 #fcfcfc #000000 #000000 0 1;
#N canvas 82 23 673 498 segStartLogic 0;
#X obj 58 250 /, f 14;
#X obj 158 225 r \$1-fileLengthSamps;
#X obj 58 225 * 44.1;
#X obj 58 274 s \$0-segStartNormalised;
#X obj 59 16 r \$0-segStartNormalisedsnd;
#X obj 60 44 *;
#X obj 131 45 r \$1-fileLengthSamps;
#X obj 60 68 s \$0-segStartSamps;
#X obj 59 126 change;
#X obj 59 150 / 44.1;
#X obj 59 103 r \$0-segStart;
#X obj 59 174 s \$0-segStartMS;
#X obj 58 203 r \$0-segStartMSsnd;
#X connect 0 0 3 0;
#X connect 1 0 0 1;
#X connect 2 0 0 0;
#X connect 4 0 5 0;
#X connect 5 0 7 0;
#X connect 6 0 5 1;
#X connect 8 0 9 0;
#X connect 9 0 11 0;
#X connect 10 0 8 0;
#X connect 12 0 2 0;
#X restore 683 21 pd segStartLogic;
#N canvas 248 54 696 455 segLengthLogic 0;
#X obj 267 102 *;
#X obj 239 22 r \$1-fileLengthSamps;
#X obj 299 190 / 44.1;
#X obj 122 279 change;
#X obj 122 303 * 44.1;
#X obj 122 327 /, f 14;
#X obj 204 285 r \$1-fileLengthSamps;
#X obj 321 117 int;
#X obj 309 214 s \$0-segLengthMS;
#X obj 241 65 r \$0-segLengthNormalisedsnd;
#X obj 122 351 s \$0-segLengthNormalised;
#X obj 121 250 r \$0-segLengthMSsnd;
#X obj 300 164 r \$0-segLength;
#X obj 321 141 s \$0-segLengthSamps;
#X connect 0 0 7 0;
#X connect 1 0 0 1;
#X connect 2 0 8 0;
#X connect 3 0 4 0;
#X connect 4 0 5 0;
#X connect 5 0 10 0;
#X connect 6 0 5 1;
#X connect 7 0 13 0;
#X connect 9 0 0 0;
#X connect 11 0 3 0;
#X connect 12 0 2 0;
#X restore 804 22 pd segLengthLogic;
#X floatatom 54 166 24 0 0 0 ms \$0-segLengthMS \$0-segLengthMSsnd 0;
#X obj 57 129 hsl 162 19 0 1 0 0 \$0-segLengthNormalisedsnd \$0-segLengthNormalised segment_length -2 -10 0 12 #fcfcfc #000000 #000000 0 1;
#X floatatom 54 148 24 0 0 0 samps \$0-segLengthSamps \$0-segLength 0;
#X obj 151 238 tgl 19 0 \$0-rev empty reverse 20 10 0 12 #fcfcfc #000000 #000000 0 1;
#N canvas 311 23 730 612 segWriteLogic 0;
#X obj 380 204 r \$0-segStart;
#X obj 293 66 r \$0-segLength;
#X obj 293 90 t f f, f 36;
#X obj 398 168 array size \$0-samp;
#X obj 239 183 until;
#X obj 239 157 t f b, f 12;
#X msg 288 188 0;
#X obj 239 217 +;
#X obj 278 216 + 1;
#X obj 256 366 +, f 18;
#X obj 380 228 t b f;
#X obj 239 133 f;
#X obj 256 397 tabread \$1-sample;
#X obj 239 242 t f f;
#X obj 27 557 tabwrite \$0-samp, f 60;
#X obj 297 7 r \$0-rev;
#X obj 297 30 t b f, f 50;
#X obj 442 296 expr if($f3 < 1 \, $f1 \, $f2-($f1+1));
#X obj 236 76 bng 19 250 50 0 empty empty empty 0 -10 0 12 #fcfcfc #000000 #000000;
#X obj 27 393 clip 0 1;
#X obj 27 524 *, f 33;
#X obj 27 496 +, f 12;
#X obj 108 390 -, f 6;
#X obj 108 442 clip 0 1;
#X obj 108 466 * -1;
#X obj 27 331 t f f, f 12;
#X obj 296 293 - 44;
#X obj 27 369 / 44;
#X obj 108 414 / 44;
#X obj 108 363 + 1;
#X obj 203 270 t f f, f 8;
#X connect 0 0 10 0;
#X connect 1 0 2 0;
#X connect 2 0 11 0;
#X connect 2 1 3 0;
#X connect 2 1 17 1;
#X connect 2 1 26 0;
#X connect 4 0 7 0;
#X connect 5 0 4 0;
#X connect 5 1 6 0;
#X connect 6 0 7 1;
#X connect 7 0 8 0;
#X connect 7 0 13 0;
#X connect 8 0 7 1;
#X connect 9 0 12 0;
#X connect 10 0 11 0;
#X connect 10 1 9 1;
#X connect 11 0 5 0;
#X connect 12 0 20 1;
#X connect 13 0 30 0;
#X connect 13 1 17 0;
#X connect 15 0 16 0;
#X connect 16 0 11 0;
#X connect 16 1 17 2;
#X connect 17 0 14 1;
#X connect 18 0 11 0;
#X connect 19 0 21 0;
#X connect 20 0 14 0;
#X connect 21 0 20 0;
#X connect 22 0 28 0;
#X connect 23 0 24 0;
#X connect 24 0 21 1;
#X connect 25 0 27 0;
#X connect 25 1 29 0;
#X connect 26 0 22 1;
#X connect 27 0 19 0;
#X connect 28 0 23 0;
#X connect 29 0 22 0;
#X connect 30 0 25 0;
#X connect 30 1 9 0;
#X restore 701 55 pd segWriteLogic;
#X obj 56 204 hsl 162 19 -24 24 0 0 \$0-transposeSnd \$0-transposeRec Transpose -2 -10 0 12 #fcfcfc #000000 #000000 0 1;
#X floatatom 53 223 5 -24 24 0 - \$0-transposeRec1 \$0-transposeSnd1 0;
#N canvas 488 557 225 192 transposeLogic 0;
#X obj 36 11 r \$0-transposeSnd;
#X obj 36 35 change;
#X obj 36 59 s \$0-transposeRec1;
#X obj 35 123 change;
#X obj 35 99 r \$0-transposeSnd1;
#X obj 35 147 s \$0-transposeRec;
#X connect 0 0 1 0;
#X connect 1 0 2 0;
#X connect 3 0 5 0;
#X connect 4 0 3 0;
#X restore 709 110 pd transposeLogic;
#X obj 1237 222 r \$0-transposeSnd;
#X obj 237 60 vsl 19 162 0 1 0 0 \$0-vol \$0-vol vol 0 -9 0 12 #fcfcfc #000000 #000000 0 1;
#X obj 1186 474 r \$0-vol;
#X connect 1 0 15 0;
#X connect 2 0 5 0;
#X connect 3 0 4 0;
#X connect 4 0 2 1;
#X connect 6 0 2 0;
#X connect 7 0 8 0;
#X connect 8 0 9 0;
#X connect 9 0 6 0;
#X connect 10 0 11 0;
#X connect 11 0 12 0;
#X connect 12 0 8 1;
#X connect 13 0 16 0;
#X connect 14 0 7 0;
#X connect 15 0 14 0;
#X connect 16 0 15 1;
#X connect 18 0 16 0;
#X connect 18 1 16 1;
#X connect 19 0 17 0;
#X connect 19 0 18 0;
#X connect 33 0 19 0;
#X connect 35 0 3 0;
#X coords 0 -1 1 1 250 400 1 10 10;
