#N canvas 0 23 1440 855 12;
#N canvas 0 22 450 278 (subpatch) 0;
#X array \$0-sample 4.22374e+06 float 2;
#X coords 0 1 4.22374e+06 -1 200 140 1;
#X restore 1190 37 graph;
#X obj 1210 228 bng 19 250 50 0 empty empty empty 0 -10 0 12 #fcfcfc #000000 #000000;
#X obj 1210 275 openpanel;
#X obj 1210 359 soundfiler;
#X floatatom 1210 383 15 0 0 0 - - - 0;
#X msg 1210 330 read -resize \$1 \$2;
#X obj 1300 360 bng 19 250 50 0 empty empty empty 0 -10 0 12 #fcfcfc #000000 #000000;
#X obj 1210 299 pack s s, f 14;
#X obj 1305 276 symbol \$0-sample;
#X obj 1210 252 t b b, f 14;
#X obj 1210 409 s \$0-fileLengthSamps;
#X obj 117 208 sampleCutterVoice \$0;
#X obj 116 172 bng 19 250 50 0 empty empty empty 0 -10 0 12 #fcfcfc #000000 #000000;
#X obj 281 735 dac~;
#X obj 409 213 sampleCutterVoice \$0;
#X obj 408 177 bng 19 250 50 0 empty empty empty 0 -10 0 12 #fcfcfc #000000 #000000;
#X obj 695 212 sampleCutterVoice \$0;
#X obj 704 149 bng 19 250 50 0 empty empty empty 0 -10 0 12 #fcfcfc #000000 #000000;
#X obj 280 34 bng 19 250 50 0 empty empty empty 0 -10 0 12 #fcfcfc #000000 #000000;
#X connect 1 0 9 0;
#X connect 2 0 7 0;
#X connect 3 0 4 0;
#X connect 4 0 10 0;
#X connect 5 0 3 0;
#X connect 6 0 4 0;
#X connect 7 0 5 0;
#X connect 8 0 7 1;
#X connect 9 0 2 0;
#X connect 9 1 8 0;
#X connect 11 0 13 0;
#X connect 11 0 13 1;
#X connect 12 0 11 0;
#X connect 14 0 13 0;
#X connect 14 0 13 1;
#X connect 15 0 14 0;
#X connect 16 0 13 0;
#X connect 16 0 13 1;
#X connect 17 0 16 0;
#X connect 18 0 12 0;
#X connect 18 0 17 0;
