#N canvas 715 25 734 698 12;
#X obj 122 25 inlet;
#X obj 121 49 bng 19 250 50 0 empty empty empty 0 -10 0 12 #fcfcfc #000000 #000000;
#X obj 121 73 array size \$1;
#X floatatom 121 95 7 0 0 0 - - - 0;
#X obj 520 331 tabread \$1;
#X floatatom 521 297 5 0 0 0 - - - 0;
#X floatatom 520 355 12 0 0 0 - - - 0;
#N canvas 0 25 483 528 findZeros 0;
#X obj 37 37 inlet;
#X msg 218 128 0;
#X obj 116 125 until;
#X obj 116 174 +;
#X obj 154 173 + 1;
#X obj 116 233 t f f, f 12;
#X obj 116 317 int, f 12;
#X obj 116 257 tabread \$1;
#X obj 116 281 sel 0;
#X obj 117 373 t l l;
#X obj 39 407 list;
#X obj 116 101 t f b b, f 45;
#X obj 38 61 t b f;
#X obj 117 349 list prepend, f 16;
#X obj 39 431 t l l;
#X obj 225 420 list length;
#X obj 222 460 array size \$1-zeros;
#X obj 38 487 array set \$1-zeros;
#X connect 0 0 12 0;
#X connect 1 0 3 1;
#X connect 2 0 3 0;
#X connect 3 0 4 0;
#X connect 3 0 5 0;
#X connect 4 0 3 1;
#X connect 5 0 7 0;
#X connect 5 1 6 1;
#X connect 6 0 13 0;
#X connect 7 0 8 0;
#X connect 8 0 6 0;
#X connect 9 0 10 1;
#X connect 9 1 13 1;
#X connect 10 0 14 0;
#X connect 11 0 2 0;
#X connect 11 1 1 0;
#X connect 11 2 13 1;
#X connect 12 0 10 0;
#X connect 12 1 11 0;
#X connect 13 0 9 0;
#X connect 14 0 17 0;
#X connect 14 1 15 0;
#X connect 15 0 16 0;
#X restore 121 129 pd findZeros;
#N canvas 826 48 450 625 findZeroXings 0;
#X obj 37 37 inlet;
#X msg 294 130 0;
#X obj 116 125 until;
#X obj 116 174 +;
#X obj 116 388 int, f 12;
#X obj 56 236 tabread \$1, f 7;
#X obj 117 444 t l l;
#X obj 39 478 list;
#X obj 116 101 t f b b, f 45;
#X obj 38 61 t b f;
#X obj 117 420 list prepend, f 16;
#X obj 116 362 sel 1;
#X obj 116 201 t f f f, f 12;
#X obj 136 264 tabread \$1, f 7;
#X obj 154 173 + 1;
#X obj 148 238 + 1;
#X obj 102 74 - 1;
#X obj 116 314 *;
#X obj 116 338 < 0;
#X obj 39 502 t l l;
#X obj 204 486 list length;
#X obj 197 519 array size \$1-zeroXings;
#X obj 32 548 array set \$1-zeroXings;
#X connect 0 0 9 0;
#X connect 1 0 3 1;
#X connect 2 0 3 0;
#X connect 3 0 12 0;
#X connect 3 0 14 0;
#X connect 4 0 10 0;
#X connect 5 0 17 0;
#X connect 6 0 7 1;
#X connect 6 1 10 1;
#X connect 7 0 19 0;
#X connect 8 0 2 0;
#X connect 8 1 1 0;
#X connect 8 2 10 1;
#X connect 9 0 7 0;
#X connect 9 1 16 0;
#X connect 10 0 6 0;
#X connect 11 0 4 0;
#X connect 12 0 5 0;
#X connect 12 1 15 0;
#X connect 12 2 4 1;
#X connect 13 0 17 1;
#X connect 14 0 3 1;
#X connect 15 0 13 0;
#X connect 16 0 8 0;
#X connect 17 0 18 0;
#X connect 18 0 11 0;
#X connect 19 0 22 0;
#X connect 19 1 20 0;
#X connect 20 0 21 0;
#X restore 241 120 pd findZeroXings;
#X obj 289 428 bng 19 250 50 0 empty empty empty 0 -10 0 12 #fcfcfc #000000 #000000;
#X floatatom 288 491 10 0 0 0 - - - 0;
#X obj 75 418 bng 19 250 50 0 empty empty empty 0 -10 0 12 #fcfcfc #000000 #000000;
#X floatatom 73 492 5 0 0 0 - - - 0;
#X floatatom 307 212 5 0 0 0 - - - 0;
#X obj 307 262 t f f;
#X obj 363 295 + 1;
#X obj 229 323 tabread \$1;
#X floatatom 229 347 12 0 0 0 - - - 0;
#X obj 365 326 tabread \$1;
#X floatatom 365 350 12 0 0 0 - - - 0;
#X floatatom 34 134 9 0 0 0 - - - 0;
#X obj 60 610 array define \$1-zeros;
#X obj 428 572 array define \$1-zeroXings;
#X obj 288 467 array size \$1-zeroXings;
#X obj 72 460 array size \$1-zeros;
#X obj 307 238 tabread \$1-zeroXings;
#X connect 0 0 1 0;
#X connect 1 0 2 0;
#X connect 2 0 3 0;
#X connect 3 0 7 0;
#X connect 3 0 8 0;
#X connect 3 0 20 0;
#X connect 4 0 6 0;
#X connect 5 0 4 0;
#X connect 9 0 23 0;
#X connect 11 0 24 0;
#X connect 13 0 25 0;
#X connect 14 0 16 0;
#X connect 14 1 15 0;
#X connect 15 0 18 0;
#X connect 16 0 17 0;
#X connect 18 0 19 0;
#X connect 23 0 10 0;
#X connect 24 0 12 0;
#X connect 25 0 14 0;
