#N canvas 0 22 1280 752 10;
#X obj 36 178 % 8;
#X obj 402 241 sel 0, f 34;
#X obj 403 278 t b;
#X obj 95 140 % 16;
#X obj 802 246 sel 8 5 13, f 74;
#N canvas 0 23 1069 406 OUTPUT 0;
#N canvas 329 161 625 417 vu 0;
#X obj 59 129 env~ 1024;
#X obj 161 111 abs~;
#X obj 161 213 snapshot~;
#X obj 161 256 rmstodb;
#X obj 161 21 inlet~;
#X obj 161 288 - 100;
#X obj 59 287 - 100;
#X obj 59 361 outlet;
#X obj 161 361 outlet;
#X text 344 307 Check the help file of env~ and slop~ for more details.
, f 31;
#X obj 239 89 expr 1000 / $f1;
#X floatatom 239 117 5 0 0 0 - - -;
#X obj 161 146 slop~ 0 0 0 0 1e+09;
#X obj 239 18 inlet;
#X floatatom 239 57 5 0 0 0 - - -;
#X text 359 89 convert to hz;
#X text 282 118 hz;
#X text 284 57 peak decay time in ms;
#X obj 59 171 t f b;
#X text 345 132 The env~ object is dedicated to RMS analysis. Its output
is in dB (0-100 range \, pd style) but needs to be converted to dBFS
(and we do that by simply subtracting 100)., f 31;
#X text 345 225 The slop~ object is used here for peak detection. We
need to convert the output to dB with rmstodb and also subtract by
100 to convert it to dBFS., f 31;
#X connect 0 0 18 0;
#X connect 1 0 12 0;
#X connect 2 0 3 0;
#X connect 3 0 5 0;
#X connect 4 0 0 0;
#X connect 4 0 1 0;
#X connect 5 0 8 0;
#X connect 6 0 7 0;
#X connect 10 0 11 0;
#X connect 11 0 12 3;
#X connect 12 0 2 0;
#X connect 13 0 14 0;
#X connect 14 0 10 0;
#X connect 18 0 6 0;
#X connect 18 1 2 0;
#X restore 126 93 pd vu;
#N canvas 329 161 625 417 vu 0;
#X obj 59 129 env~ 1024;
#X obj 161 111 abs~;
#X obj 161 213 snapshot~;
#X obj 161 256 rmstodb;
#X obj 161 21 inlet~;
#X obj 161 288 - 100;
#X obj 59 287 - 100;
#X obj 59 361 outlet;
#X obj 161 361 outlet;
#X text 344 307 Check the help file of env~ and slop~ for more details.
, f 31;
#X obj 239 89 expr 1000 / $f1;
#X floatatom 239 117 5 0 0 0 - - -;
#X obj 161 146 slop~ 0 0 0 0 1e+09;
#X obj 239 18 inlet;
#X floatatom 239 57 5 0 0 0 - - -;
#X text 359 89 convert to hz;
#X text 282 118 hz;
#X text 284 57 peak decay time in ms;
#X obj 59 171 t f b;
#X text 345 132 The env~ object is dedicated to RMS analysis. Its output
is in dB (0-100 range \, pd style) but needs to be converted to dBFS
(and we do that by simply subtracting 100)., f 31;
#X text 345 225 The slop~ object is used here for peak detection. We
need to convert the output to dB with rmstodb and also subtract by
100 to convert it to dBFS., f 31;
#X connect 0 0 18 0;
#X connect 1 0 12 0;
#X connect 2 0 3 0;
#X connect 3 0 5 0;
#X connect 4 0 0 0;
#X connect 4 0 1 0;
#X connect 5 0 8 0;
#X connect 6 0 7 0;
#X connect 10 0 11 0;
#X connect 11 0 12 3;
#X connect 12 0 2 0;
#X connect 13 0 14 0;
#X connect 14 0 10 0;
#X connect 18 0 6 0;
#X connect 18 1 2 0;
#X restore 202 92 pd vu;
#X obj 263 6 catch~ \$0-outL;
#X obj 358 5 catch~ \$0-outR;
#X obj 105 127 vsl 15 120 0 127 0 1 \$0-vol_snd empty vol 0 -9 0 10
-262144 -1 -1 10100 1;
#N canvas 0 23 450 300 volLogic 0;
#X obj 37 37 inlet~;
#X obj 40 136 *~, f 29;
#X obj 264 45 / 127;
#X obj 264 69 pack 0 10;
#X obj 264 94 line~;
#X obj 264 19 r \$0-vol_snd;
#X obj 40 157 outlet~;
#X obj 137 41 inlet~;
#X obj 137 163 *~, f 29;
#X obj 137 184 outlet~;
#X connect 0 0 1 0;
#X connect 1 0 6 0;
#X connect 2 0 3 0;
#X connect 3 0 4 0;
#X connect 4 0 1 1;
#X connect 4 0 8 1;
#X connect 5 0 2 0;
#X connect 7 0 8 0;
#X connect 8 0 9 0;
#X restore 413 153 pd volLogic;
#N canvas 0 23 450 300 rev 0;
#X obj 147 217 outlet~;
#X obj 209 207 outlet~;
#X obj 147 179 rev3~ 100 90 3000 20, f 28;
#X obj 64 81 catch~ \$0-revL;
#X obj 203 82 catch~ \$0-revR;
#X obj 64 102 hip~ 50;
#X obj 203 102 hip~ 50;
#X connect 2 0 0 0;
#X connect 2 1 1 0;
#X connect 3 0 5 0;
#X connect 4 0 6 0;
#X connect 5 0 2 0;
#X connect 6 0 2 1;
#X restore 475 11 pd rev;
#N canvas 0 23 750 510 flange 0;
#X obj 180 350 outlet~;
#X obj 64 81 catch~ \$0-flangeL;
#X obj 189 81 catch~ \$0-flangeR;
#X obj 29 141 delwrite~ \$0-flangeL 1000;
#X obj 219 135 delwrite~ \$0-flangeR 1000;
#X obj 181 279 vd~ \$0-flangeL;
#X obj 187 215 *~ 5;
#X obj 494 343 outlet~;
#X obj 501 208 *~ 5;
#X obj 495 272 vd~ \$0-flangeR;
#X obj 501 187 osc~ 1;
#X obj 188 195 osc~ 2;
#X obj 501 228 +~ 5;
#X obj 187 236 +~ 5;
#X obj 109 247 osc~ 0.2;
#X obj 109 268 *~ 0.5;
#X obj 94 330 *~;
#X obj 429 245 *~ 0.5;
#X obj 429 224 osc~ 0.22;
#X obj 408 323 *~;
#X obj 64 102 hip~ 50;
#X obj 189 102 hip~ 50;
#X connect 1 0 20 0;
#X connect 2 0 21 0;
#X connect 5 0 0 0;
#X connect 5 0 16 0;
#X connect 6 0 13 0;
#X connect 8 0 12 0;
#X connect 9 0 7 0;
#X connect 9 0 19 0;
#X connect 10 0 8 0;
#X connect 11 0 6 0;
#X connect 12 0 9 0;
#X connect 13 0 5 0;
#X connect 14 0 15 0;
#X connect 15 0 16 1;
#X connect 16 0 3 0;
#X connect 17 0 19 1;
#X connect 18 0 17 0;
#X connect 19 0 4 0;
#X connect 20 0 3 0;
#X connect 21 0 4 0;
#X restore 605 12 pd flange;
#X obj 445 233 dac~, f 6;
#X msg 171 55 500;
#X obj 171 28 loadbang;
#X obj 127 128 vu 15 120 empty empty -1 -8 0 10 -66577 -262144 1 0
;
#X obj 146 128 vu 15 120 empty empty -1 -8 0 10 -66577 -1 1 0;
#N canvas 0 23 983 510 pingpong 0;
#X obj 359 410 outlet~;
#X obj 124 417 outlet~;
#X obj 228 26 r \$0-ioi;
#X msg 178 96 \$1 50;
#X obj 178 117 line~;
#X obj 169 213 vd~ delL;
#X obj 15 282 delwrite~ delL 1000;
#X floatatom 228 47 5 0 0 0 - - -;
#X msg 265 104 \$1 50;
#X obj 265 125 line~;
#X obj 256 221 vd~ delR;
#X obj 449 264 delwrite~ delR 1000;
#X obj 15 198 catch~ \$0-bobL;
#X obj 528 203 catch~ \$0-bobR;
#X obj 391 130 +~ 1;
#X obj 265 146 *~;
#X obj 103 151 +~ 1;
#X obj 178 138 *~;
#X obj 259 313 lop~ 1000;
#X obj 169 309 lop~ 1000;
#X obj 169 234 expr~ tanh($v1), f 9;
#X obj 256 247 expr~ tanh($v1), f 9;
#X obj 85 96 noise~;
#X obj 85 117 lop~ 2;
#X obj 343 47 noise~;
#X obj 343 68 lop~ 2;
#X obj 710 72 noise~;
#X obj 710 93 abs~;
#X obj 711 129 lop~ 1;
#X obj 353 225 *~;
#X obj 96 233 *~;
#X obj 178 75 * 0.4;
#X obj 262 77 * 0.6;
#X obj 528 224 hip~ 100;
#X obj 15 222 hip~ 100;
#X connect 2 0 7 0;
#X connect 2 0 31 0;
#X connect 2 0 32 0;
#X connect 3 0 4 0;
#X connect 4 0 17 0;
#X connect 5 0 20 0;
#X connect 8 0 9 0;
#X connect 9 0 15 0;
#X connect 10 0 21 0;
#X connect 12 0 34 0;
#X connect 13 0 33 0;
#X connect 14 0 15 1;
#X connect 15 0 10 0;
#X connect 16 0 17 1;
#X connect 17 0 5 0;
#X connect 18 0 0 0;
#X connect 18 0 29 0;
#X connect 19 0 1 0;
#X connect 19 0 30 0;
#X connect 20 0 19 0;
#X connect 21 0 18 0;
#X connect 22 0 23 0;
#X connect 23 0 16 0;
#X connect 24 0 25 0;
#X connect 25 0 14 0;
#X connect 26 0 27 0;
#X connect 27 0 28 0;
#X connect 28 0 29 1;
#X connect 28 0 30 1;
#X connect 29 0 11 0;
#X connect 30 0 6 0;
#X connect 31 0 3 0;
#X connect 32 0 8 0;
#X connect 33 0 11 0;
#X connect 34 0 6 0;
#X restore 720 21 pd pingpong;
#X connect 0 0 11 0;
#X connect 0 1 11 1;
#X connect 1 0 12 0;
#X connect 1 1 12 1;
#X connect 2 0 5 0;
#X connect 3 0 5 1;
#X connect 5 0 0 0;
#X connect 5 0 8 0;
#X connect 5 1 1 0;
#X connect 5 1 8 1;
#X connect 6 0 5 0;
#X connect 6 1 5 1;
#X connect 7 0 5 0;
#X connect 7 1 5 1;
#X connect 9 0 0 1;
#X connect 9 0 1 1;
#X connect 10 0 9 0;
#X connect 13 0 5 0;
#X connect 13 1 5 1;
#X coords 0 -1 1 1 90 152 1 100 100;
#X restore 212 578 pd OUTPUT;
#X obj 95 175 s beat;
#X msg 3 404 \$1 0;
#X msg 203 404 \$1 1;
#X msg 403 404 \$1 2;
#X msg 603 404 \$1 3;
#X msg 803 404 \$1 4;
#X msg 1003 404 \$1 5;
#X obj 3 425 tabwrite \$0-voices;
#X obj 203 425 tabwrite \$0-voices;
#X obj 403 425 tabwrite \$0-voices;
#X obj 603 425 tabwrite \$0-voices;
#X obj 803 425 tabwrite \$0-voices;
#X obj 1003 425 tabwrite \$0-voices;
#X obj 43 102 t f f;
#X obj 239 134 % 16;
#X obj 44 228 sel 0 1 2 3 4 5 6 7, f 35;
#N canvas 0 23 1147 610 randomiser 0;
#X obj 128 20 inlet;
#X obj 253 346 bng 15 250 50 0 empty empty empty 17 7 0 10 -262144
-1 -1;
#N canvas 0 23 594 597 random_playModes 0;
#X obj 37 37 inlet;
#X obj 37 64 array size \$0-voices;
#X obj 37 85 t f b, f 12;
#X obj 37 106 until;
#X msg 37 127 1;
#X obj 37 148 + -1;
#X obj 37 169 int;
#X msg 68 128 -1;
#X obj 37 190 tabread \$0-voices;
#X obj 37 211 t b f, f 21;
#X msg 37 232 5;
#X obj 38 252 t f b, f 12;
#X obj 38 273 until;
#X msg 38 294 1;
#X obj 38 315 + -1;
#X obj 38 336 int;
#X msg 69 295 -1;
#X msg 119 316 set \$1-probs;
#X obj 46 471 tabwrite;
#X obj 38 357 t b f;
#X obj 38 378 random 1000;
#X obj 38 399 / 1000;
#X connect 0 0 1 0;
#X connect 1 0 2 0;
#X connect 2 0 3 0;
#X connect 2 1 7 0;
#X connect 3 0 4 0;
#X connect 4 0 5 0;
#X connect 5 0 6 0;
#X connect 6 0 5 1;
#X connect 6 0 8 0;
#X connect 7 0 5 1;
#X connect 8 0 9 0;
#X connect 9 0 10 0;
#X connect 9 1 17 0;
#X connect 10 0 11 0;
#X connect 11 0 12 0;
#X connect 11 1 16 0;
#X connect 12 0 13 0;
#X connect 13 0 14 0;
#X connect 14 0 15 0;
#X connect 15 0 14 1;
#X connect 15 0 19 0;
#X connect 16 0 14 1;
#X connect 17 0 18 0;
#X connect 19 0 20 0;
#X connect 19 1 18 1;
#X connect 20 0 21 0;
#X connect 21 0 18 0;
#X restore 253 366 pd random_playModes;
#X obj 398 349 bng 15 250 50 0 empty empty empty 17 7 0 10 -262144
-1 -1;
#N canvas 0 23 594 597 random_fxModes 0;
#X obj 37 37 inlet;
#X obj 37 64 array size \$0-voices;
#X obj 37 85 t f b, f 12;
#X obj 37 106 until;
#X msg 37 127 1;
#X obj 37 148 + -1;
#X obj 37 169 int;
#X msg 68 128 -1;
#X obj 37 190 tabread \$0-voices;
#X obj 37 211 t b f, f 21;
#X msg 37 232 5;
#X obj 38 252 t f b, f 12;
#X obj 38 273 until;
#X msg 38 294 1;
#X obj 38 315 + -1;
#X obj 38 336 int;
#X msg 69 295 -1;
#X obj 46 471 tabwrite;
#X obj 38 357 t b f;
#X obj 38 378 random 1000;
#X obj 38 399 / 1000;
#X msg 119 316 set \$1-fxProbs;
#X connect 0 0 1 0;
#X connect 1 0 2 0;
#X connect 2 0 3 0;
#X connect 2 1 7 0;
#X connect 3 0 4 0;
#X connect 4 0 5 0;
#X connect 5 0 6 0;
#X connect 6 0 5 1;
#X connect 6 0 8 0;
#X connect 7 0 5 1;
#X connect 8 0 9 0;
#X connect 9 0 10 0;
#X connect 9 1 21 0;
#X connect 10 0 11 0;
#X connect 11 0 12 0;
#X connect 11 1 16 0;
#X connect 12 0 13 0;
#X connect 13 0 14 0;
#X connect 14 0 15 0;
#X connect 15 0 14 1;
#X connect 15 0 18 0;
#X connect 16 0 14 1;
#X connect 18 0 19 0;
#X connect 18 1 17 1;
#X connect 19 0 20 0;
#X connect 20 0 17 0;
#X connect 21 0 17 0;
#X restore 398 369 pd random_fxModes;
#N canvas 0 23 594 597 reset_playModes 0;
#X obj 37 37 inlet;
#X obj 37 64 array size \$0-voices;
#X obj 37 85 t f b, f 12;
#X obj 37 106 until;
#X msg 37 127 1;
#X obj 37 148 + -1;
#X obj 37 169 int;
#X msg 68 128 -1;
#X obj 37 190 tabread \$0-voices;
#X obj 37 211 t b f, f 21;
#X msg 37 232 5;
#X obj 38 252 t f b, f 12;
#X obj 38 273 until;
#X msg 38 294 1;
#X obj 38 315 + -1;
#X obj 38 336 int;
#X msg 69 295 -1;
#X msg 119 316 set \$1-probs;
#X obj 46 471 tabwrite;
#X obj 38 357 t f f;
#X obj 38 378 == 0;
#X connect 0 0 1 0;
#X connect 1 0 2 0;
#X connect 2 0 3 0;
#X connect 2 1 7 0;
#X connect 3 0 4 0;
#X connect 4 0 5 0;
#X connect 5 0 6 0;
#X connect 6 0 5 1;
#X connect 6 0 8 0;
#X connect 7 0 5 1;
#X connect 8 0 9 0;
#X connect 9 0 10 0;
#X connect 9 1 17 0;
#X connect 10 0 11 0;
#X connect 11 0 12 0;
#X connect 11 1 16 0;
#X connect 12 0 13 0;
#X connect 13 0 14 0;
#X connect 14 0 15 0;
#X connect 15 0 14 1;
#X connect 15 0 19 0;
#X connect 16 0 14 1;
#X connect 17 0 18 0;
#X connect 19 0 20 0;
#X connect 19 1 18 1;
#X connect 20 0 18 0;
#X restore 449 429 pd reset_playModes;
#N canvas 2109 319 594 597 reset_fxModes 0;
#X obj 37 37 inlet;
#X obj 37 64 array size \$0-voices;
#X obj 37 85 t f b, f 12;
#X obj 37 106 until;
#X msg 37 127 1;
#X obj 37 148 + -1;
#X obj 37 169 int;
#X msg 68 128 -1;
#X obj 37 190 tabread \$0-voices;
#X obj 37 211 t b f, f 21;
#X msg 37 232 5;
#X obj 38 252 t f b, f 12;
#X obj 38 273 until;
#X msg 38 294 1;
#X obj 38 315 + -1;
#X obj 38 336 int;
#X msg 69 295 -1;
#X obj 46 471 tabwrite;
#X msg 119 316 set \$1-fxProbs;
#X obj 38 357 t f f;
#X obj 38 378 == 0;
#X connect 0 0 1 0;
#X connect 1 0 2 0;
#X connect 2 0 3 0;
#X connect 2 1 7 0;
#X connect 3 0 4 0;
#X connect 4 0 5 0;
#X connect 5 0 6 0;
#X connect 6 0 5 1;
#X connect 6 0 8 0;
#X connect 7 0 5 1;
#X connect 8 0 9 0;
#X connect 9 0 10 0;
#X connect 9 1 18 0;
#X connect 10 0 11 0;
#X connect 11 0 12 0;
#X connect 11 1 16 0;
#X connect 12 0 13 0;
#X connect 13 0 14 0;
#X connect 14 0 15 0;
#X connect 15 0 14 1;
#X connect 15 0 19 0;
#X connect 16 0 14 1;
#X connect 18 0 17 0;
#X connect 19 0 20 0;
#X connect 19 1 17 1;
#X connect 20 0 17 0;
#X restore 594 432 pd reset_fxModes;
#X obj 461 402 bng 15 250 50 0 empty empty empty 17 7 0 10 -262144
-1 -1;
#X obj 609 406 bng 15 250 50 0 empty empty empty 17 7 0 10 -262144
-1 -1;
#X obj 211 322 bng 15 250 50 0 empty empty randomise 17 7 0 10 -262144
-1 -1;
#X obj 587 363 bng 15 250 50 0 empty empty reset 17 7 0 10 -262144
-1 -1;
#N canvas 1797 251 594 597 random_pitchShift 0;
#X obj 37 37 inlet;
#X obj 37 64 array size \$0-voices;
#X obj 37 85 t f b, f 12;
#X obj 37 106 until;
#X msg 37 127 1;
#X obj 37 148 + -1;
#X obj 37 169 int;
#X msg 68 128 -1;
#X obj 37 190 tabread \$0-voices;
#X obj 37 211 t b f, f 21;
#X obj 37 276 random 128;
#X obj 167 39 bng 15 250 50 0 empty empty empty 17 7 0 10 -262144 -1
-1;
#X floatatom 175 230 5 0 0 0 - - -;
#X obj 37 297 pack, f 20;
#X msg 37 325 \; \$2-pitchShiftMax_rec \$1;
#X connect 0 0 1 0;
#X connect 1 0 2 0;
#X connect 2 0 3 0;
#X connect 2 1 7 0;
#X connect 3 0 4 0;
#X connect 4 0 5 0;
#X connect 5 0 6 0;
#X connect 6 0 5 1;
#X connect 6 0 8 0;
#X connect 7 0 5 1;
#X connect 8 0 9 0;
#X connect 9 0 10 0;
#X connect 9 1 12 0;
#X connect 9 1 13 1;
#X connect 10 0 13 0;
#X connect 11 0 1 0;
#X connect 13 0 14 0;
#X restore 115 365 pd random_pitchShift;
#X obj 115 339 bng 15 250 50 0 empty empty empty 17 7 0 10 -262144
-1 -1;
#X obj 708 404 bng 15 250 50 0 empty empty empty 17 7 0 10 -262144
-1 -1;
#N canvas 1797 251 594 597 reset_pitchShift 0;
#X obj 37 37 inlet;
#X obj 37 64 array size \$0-voices;
#X obj 37 85 t f b, f 12;
#X obj 37 106 until;
#X msg 37 127 1;
#X obj 37 148 + -1;
#X obj 37 169 int;
#X msg 68 128 -1;
#X obj 37 190 tabread \$0-voices;
#X obj 167 39 bng 15 250 50 0 empty empty empty 17 7 0 10 -262144 -1
-1;
#X msg 37 325 \; \$1-pitchShiftMax_rec 0;
#X connect 0 0 1 0;
#X connect 1 0 2 0;
#X connect 2 0 3 0;
#X connect 2 1 7 0;
#X connect 3 0 4 0;
#X connect 4 0 5 0;
#X connect 5 0 6 0;
#X connect 6 0 5 1;
#X connect 6 0 8 0;
#X connect 7 0 5 1;
#X connect 8 0 10 0;
#X connect 9 0 1 0;
#X restore 708 430 pd reset_pitchShift;
#X obj 215 108 sel 0;
#X msg 215 129 1;
#X obj 215 150 + -1;
#X obj 215 171 int;
#X obj 214 238 % 4;
#X obj 214 259 sel 3;
#X obj 343 193 - 1;
#X obj 130 78 spigot;
#X obj 347 136 r \$0-fill_len_snd;
#X obj 179 42 r \$0-fill_snd;
#X obj 214 280 t b b;
#X msg 281 147 -1;
#X obj 215 192 t f f;
#X connect 0 0 22 0;
#X connect 1 0 2 0;
#X connect 3 0 4 0;
#X connect 7 0 5 0;
#X connect 8 0 6 0;
#X connect 9 0 1 0;
#X connect 9 0 3 0;
#X connect 9 0 12 0;
#X connect 10 0 8 0;
#X connect 10 0 7 0;
#X connect 10 0 13 0;
#X connect 12 0 11 0;
#X connect 13 0 14 0;
#X connect 15 0 16 0;
#X connect 16 0 17 0;
#X connect 17 0 18 0;
#X connect 18 0 27 0;
#X connect 19 0 20 0;
#X connect 20 0 25 0;
#X connect 20 1 10 0;
#X connect 21 0 20 1;
#X connect 22 0 15 0;
#X connect 23 0 19 1;
#X connect 23 0 21 0;
#X connect 24 0 22 1;
#X connect 25 0 26 0;
#X connect 25 1 9 0;
#X connect 26 0 17 1;
#X connect 27 0 19 0;
#X connect 27 1 17 1;
#X restore 239 155 pd randomiser;
#N canvas 0 23 780 526 conductor 0;
#X obj 50 20 tgl 15 0 \$0-on/off_snd \$0-on/off_rec on/off 17 7 0 10
-191407 -262144 -1 0 1;
#X msg 86 289 1;
#X obj 86 310 + -1;
#X obj 86 331 int;
#X obj 86 267 metro 100;
#X obj 53 35 hsl 128 15 50 250 0 0 \$0-tempo_snd \$0-tempo_rec Tempo
50 7 0 10 -228856 -262144 -1 7500 1;
#X floatatom 50 50 5 50 250 0 - - -;
#X obj 246 156 expr 60000/($f1*$f2);
#X obj 138 50 hradio 15 1 1 3 \$0-division_snd \$0-division_rec div
14 7 0 10 -228856 -262144 -1 1;
#X obj 411 162 expr pow(2 \, $f1);
#X floatatom 411 183 5 0 0 0 - - -;
#X floatatom 246 177 5 0 0 0 - - -;
#X obj 6 40 change;
#X obj 500 11 loadbang;
#X msg 500 32 120;
#N canvas 599 172 450 300 swing 0;
#X obj 76 17 inlet;
#X obj 43 107 % 2;
#X obj 43 128 sel 0 1;
#X obj 176 17 inlet;
#X obj 255 17 inlet;
#X obj 154 213 outlet;
#X obj 126 177 f;
#X obj 210 177 f;
#X obj 76 65 t f b;
#X obj 341 63 * -1;
#X obj 341 84 + 1;
#X floatatom 281 91 5 0 0 0 - - -;
#X obj 255 38 + 1;
#X floatatom 255 59 5 0 0 0 - - -;
#X obj 168 127 * 1;
#X obj 232 127 * 1;
#X connect 0 0 8 0;
#X connect 1 0 2 0;
#X connect 2 0 6 0;
#X connect 2 1 7 0;
#X connect 3 0 14 0;
#X connect 3 0 15 0;
#X connect 4 0 9 0;
#X connect 4 0 12 0;
#X connect 6 0 5 0;
#X connect 7 0 5 0;
#X connect 8 0 1 0;
#X connect 8 1 14 0;
#X connect 8 1 15 0;
#X connect 9 0 10 0;
#X connect 10 0 11 0;
#X connect 10 0 15 1;
#X connect 12 0 13 0;
#X connect 12 0 14 1;
#X connect 14 0 6 1;
#X connect 15 0 7 1;
#X restore 155 268 pd swing;
#X floatatom 155 289 5 0 0 0 - - -;
#X obj 85 50 hsl 51 15 0 0.5 0 1 \$0-swing_snd \$0-swing_rec swing
5 7 0 10 -228856 -262144 -1 1500 1;
#X obj 242 201 s \$0-ioi;
#X obj 74 171 r \$0-on/off_snd;
#X obj 86 352 outlet;
#X obj 217 251 r \$0-swing_snd;
#X obj 246 125 r \$0-tempo_snd;
#X obj 342 131 s \$0-tempo_rec;
#X obj 497 60 s \$0-tempo_rec;
#X obj 432 80 r \$0-division_snd;
#N canvas 830 219 450 300 fill 0;
#X obj 0 1 tgl 15 0 \$0-fill_snd \$0-fill_rec fills 17 7 0 10 -262144
-1 -1 1 1;
#X floatatom 0 16 4 2 128 1 fill_after_X_bars #0-fill_len_rec #0-fill_len_snd
;
#X obj 302 27 loadbang;
#X msg 302 48 4;
#X obj 302 69 s \$0-fill_len_rec;
#X connect 2 0 3 0;
#X connect 3 0 4 0;
#X coords 0 -1 1 1 133 30 2 0 1;
#X restore 50 65 pd fill;
#X symbolatom 138 65 5 0 0 0 - #0-divsym_rec -;
#X obj 432 102 t b f f;
#X obj 568 122 sel 0 1 2;
#X obj 596 197 s \$0-divsym_rec;
#X msg 549 163 symbol 1/4;
#X msg 673 149 symbol 1/16;
#X msg 597 145 symbol 1/8;
#X connect 1 0 2 0;
#X connect 2 0 3 0;
#X connect 3 0 2 1;
#X connect 3 0 15 0;
#X connect 3 0 20 0;
#X connect 4 0 1 0;
#X connect 4 0 11 0;
#X connect 5 0 6 0;
#X connect 6 0 12 0;
#X connect 7 0 11 0;
#X connect 7 0 15 1;
#X connect 9 0 10 0;
#X connect 10 0 7 1;
#X connect 11 0 18 0;
#X connect 12 0 5 0;
#X connect 13 0 14 0;
#X connect 14 0 24 0;
#X connect 15 0 16 0;
#X connect 15 0 4 1;
#X connect 19 0 4 0;
#X connect 21 0 15 2;
#X connect 22 0 7 0;
#X connect 25 0 28 0;
#X connect 28 0 23 0;
#X connect 28 1 9 0;
#X connect 28 2 29 0;
#X connect 29 0 31 0;
#X connect 29 1 33 0;
#X connect 29 2 32 0;
#X connect 31 0 30 0;
#X connect 32 0 30 0;
#X connect 33 0 30 0;
#X coords 0 -1 1 1 133 75 2 50 20;
#X restore 55 12 pd conductor;
#X floatatom 212 65 5 0 0 0 - - -;
#X obj 252 103 * 2;
#X obj 3 299 drumGlitcher_sjf \$0;
#X obj 203 299 drumGlitcher_sjf \$0;
#X obj 403 299 drumGlitcher_sjf \$0;
#X obj 603 299 drumGlitcher_sjf \$0;
#X obj 803 299 drumGlitcher_sjf \$0;
#X obj 1003 299 drumGlitcher_sjf \$0;
#N canvas 0 22 982 547 load&arrays 0;
#X obj 184 93 samplerate~;
#X obj 223 26 r pd-dsp-started;
#X floatatom 184 114 7 0 0 0 - - -;
#X obj 184 134 s \$0-sampRate;
#X obj 69 17 loadbang;
#X obj 510 52 array define \$0-params 1;
#X obj 508 125 array define \$0-voices 6;
#X obj 300 88 bng 15 250 50 0 empty empty empty 17 7 0 10 -262144 -1
-1;
#X obj 300 108 s \$0-load;
#X obj 218 72 bng 15 250 50 0 empty empty empty 17 7 0 10 -262144 -1
-1;
#X obj 69 38 t b b;
#X obj 167 18 bng 15 250 50 0 empty empty empty 17 7 0 10 -262144 -1
-1;
#N canvas 0 22 230 381 loadSamples 0;
#X obj 37 37 inlet;
#X obj 37 120 folder_list;
#X msg 37 85 symbol samples/Kit1/*.wav;
#X obj 37 59 t b b;
#X obj 37 141 t b l;
#X obj 37 277 pack 0 s;
#X msg 37 313 \; \$1-file \$2;
#X msg 37 164 1;
#X obj 37 185 + -1;
#X obj 37 206 int;
#X msg 103 182 -1;
#X obj 37 227 t f f;
#X obj 37 257 tabread \$0-voices;
#X connect 0 0 3 0;
#X connect 1 0 4 0;
#X connect 2 0 1 0;
#X connect 3 0 2 0;
#X connect 3 1 10 0;
#X connect 4 0 7 0;
#X connect 4 1 5 1;
#X connect 5 0 6 0;
#X connect 7 0 8 0;
#X connect 8 0 9 0;
#X connect 9 0 11 0;
#X connect 10 0 8 1;
#X connect 11 0 12 0;
#X connect 11 1 8 1;
#X connect 12 0 5 0;
#X restore 69 104 pd loadSamples;
#N canvas 0 22 230 552 loadSamples 0;
#X obj 37 22 inlet;
#X obj 37 159 folder_list;
#X obj 37 180 t b l;
#X obj 37 316 pack 0 s;
#X msg 37 352 \; \$1-file \$2;
#X msg 37 203 1;
#X obj 37 224 + -1;
#X obj 37 245 int;
#X msg 112 201 -1;
#X obj 37 266 t f f;
#X obj 37 296 tabread \$0-voices;
#X msg 37 124 symbol samples/Kit\$1/*.wav;
#X obj 37 59 t f b, f 13;
#X obj 37 80 + 1;
#X connect 0 0 12 0;
#X connect 1 0 2 0;
#X connect 2 0 5 0;
#X connect 2 1 3 1;
#X connect 3 0 4 0;
#X connect 5 0 6 0;
#X connect 6 0 7 0;
#X connect 7 0 9 0;
#X connect 8 0 6 1;
#X connect 9 0 10 0;
#X connect 9 1 6 1;
#X connect 10 0 3 0;
#X connect 11 0 1 0;
#X connect 12 0 13 0;
#X connect 12 1 8 0;
#X connect 13 0 11 0;
#X restore 53 251 pd loadSamples;
#X obj 32 223 hradio 15 1 0 3 empty empty empty 0 -8 0 10 -262144 -1
-1 0;
#X obj 167 38 t b b b;
#X connect 0 0 2 0;
#X connect 1 0 0 0;
#X connect 2 0 3 0;
#X connect 4 0 10 0;
#X connect 7 0 8 0;
#X connect 9 0 0 0;
#X connect 10 0 12 0;
#X connect 10 1 0 0;
#X connect 11 0 15 0;
#X connect 14 0 13 0;
#X connect 15 0 12 0;
#X connect 15 1 9 0;
#X connect 15 2 7 0;
#X restore 543 7 pd load&arrays;
#X floatatom 43 123 5 0 0 0 - - -;
#X connect 0 0 21 0;
#X connect 1 0 29 0;
#X connect 1 1 2 0;
#X connect 2 0 28 0;
#X connect 3 0 1 0;
#X connect 3 0 4 0;
#X connect 3 0 6 0;
#X connect 4 0 30 0;
#X connect 4 1 31 0;
#X connect 4 2 31 0;
#X connect 7 0 13 0;
#X connect 8 0 14 0;
#X connect 9 0 15 0;
#X connect 10 0 16 0;
#X connect 11 0 17 0;
#X connect 12 0 18 0;
#X connect 19 0 0 0;
#X connect 19 0 3 0;
#X connect 19 0 33 0;
#X connect 19 1 20 0;
#X connect 20 0 22 0;
#X connect 21 0 26 0;
#X connect 21 2 27 0;
#X connect 21 5 26 0;
#X connect 21 6 27 0;
#X connect 21 7 26 0;
#X connect 23 0 19 0;
#X connect 24 0 25 0;
#X connect 24 0 0 1;
#X connect 25 0 20 1;
#X connect 25 0 3 1;
#X connect 26 0 7 0;
#X connect 27 0 8 0;
#X connect 28 0 9 0;
#X connect 29 0 10 0;
#X connect 30 0 11 0;
#X connect 31 0 12 0;
