#N canvas 0 22 1280 752 10;
#N canvas 0 22 450 278 (subpatch) 0;
#X array \$0-sample 8659 float 2;
#X coords 0 1 8659 -1 100 59 2 0 0;
#X restore 10 24 graph;
#X obj 356 75 bng 15 250 50 0 empty empty empty 17 7 0 10 -262144 -1
-1;
#N canvas 548 508 892 300 playRampChoice 0;
#X obj 85 14 inlet;
#X obj 84 35 array random \$0-probs;
#X obj 143 89 s \$0-playType;
#X obj 84 56 outlet;
#X connect 0 0 1 0;
#X connect 1 0 2 0;
#X connect 1 0 3 0;
#X restore 451 93 pd playRampChoice;
#X obj 356 9 inlet;
#X obj 165 26 vsl 45 60 0 127 0 1 \$0-vol_snd \$0-vol_rec vol 12 5
0 10 -191407 -262144 -1 4100 1;
#X obj 110 62 bng 12 250 50 0 \$0-paramsOpen empty params 15 5 0 10
-128992 -1 -1;
#X obj 782 40 r \$0-paramsOpen;
#X obj 782 61 f \$0;
#X symbolatom 10 83 16 0 0 0 - #0-filename -;
#N canvas 497 175 783 556 loadsample 0;
#X obj 199 69 openpanel;
#X obj 228 105 pack s \$0;
#X obj 212 339 soundfiler;
#X obj 213 389 s \$0-oneshotSamp_len;
#X msg 212 319 read -resize \$1 \$2-sample;
#X floatatom 213 365 5 0 0 0 - - -;
#X obj 193 303 bng 15 250 50 0 empty empty empty 17 7 0 10 -262144
-1 -1;
#X obj 292 29 loadbang;
#X obj 292 77 sel 0;
#X obj 199 35 r \$0-load_snd;
#X obj 400 231 s \$0-filename;
#X msg 400 206 set \$1;
#X obj 156 229 f \$0;
#X msg 156 250 \; \$1-sample normalize 1;
#X msg 400 157 symbol \$1;
#X obj 101 194 t b b l, f 19;
#X obj 66 225 bng 15 250 50 0 empty empty empty 17 7 0 10 -262144 -1
-1;
#N canvas 0 23 459 495 fade_end_of_sample 0;
#X obj 37 37 inlet;
#X obj 98 51 * 0.001;
#X floatatom 98 72 5 0 0 0 - - -;
#X obj 97 136 int 88;
#X obj 97 178 until;
#X msg 97 199 1;
#X obj 97 241 int;
#X obj 97 156 t f b f, f 14;
#X obj 97 290 /, f 14;
#X obj 97 311 expr 1- $f1;
#X obj 97 263 t f f, f 17;
#X obj 200 298 expr $f3 - ($f2 - $f1), f 8;
#X obj 137 369 tabread \$0-sample, f 9;
#X obj 200 341 t f f;
#X obj 97 420 tabwrite \$0-sample;
#X obj 97 220 +;
#X msg 130 199 0;
#X obj 97 332 *;
#X obj 281 171 inlet;
#X obj 98 92 * 10;
#X obj 98 30 r \$1-sampRate;
#X connect 0 0 3 0;
#X connect 1 0 2 0;
#X connect 2 0 19 0;
#X connect 3 0 7 0;
#X connect 4 0 5 0;
#X connect 5 0 15 0;
#X connect 6 0 10 0;
#X connect 6 0 15 1;
#X connect 7 0 4 0;
#X connect 7 1 16 0;
#X connect 7 2 8 1;
#X connect 7 2 11 1;
#X connect 8 0 9 0;
#X connect 9 0 17 0;
#X connect 10 0 8 0;
#X connect 10 1 11 0;
#X connect 11 0 13 0;
#X connect 12 0 17 1;
#X connect 13 0 12 0;
#X connect 13 1 14 1;
#X connect 15 0 6 0;
#X connect 16 0 15 1;
#X connect 17 0 14 0;
#X connect 18 0 11 2;
#X connect 19 0 3 1;
#X connect 20 0 1 0;
#X restore 75 420 pd fade_end_of_sample;
#X obj 353 30 r \$0-file;
#X obj 292 53 symbol \$2;
#X obj 400 182 strippath;
#N canvas 683 191 556 541 fade_start_of_sample 0;
#X obj 38 37 inlet;
#X obj 136 41 * 0.001;
#X floatatom 136 62 5 0 0 0 - - -;
#X obj 38 123 int 88;
#X obj 38 165 until;
#X msg 38 186 1;
#X obj 38 228 int;
#X obj 38 143 t f b f, f 14;
#X obj 38 277 /, f 14;
#X obj 38 250 t f f, f 17;
#X obj 78 356 tabread \$0-sample, f 9;
#X obj 141 328 t f f;
#X obj 38 407 tabwrite \$0-sample;
#X obj 38 207 +;
#X obj 38 319 *;
#X obj 136 82 * 2;
#X obj 52 74 bng 15 250 50 0 empty empty empty 17 7 0 10 -262144 -1
-1;
#X msg 71 186 -1;
#X obj 136 20 r \$1-sampRate;
#X connect 0 0 3 0;
#X connect 1 0 2 0;
#X connect 2 0 15 0;
#X connect 3 0 7 0;
#X connect 4 0 5 0;
#X connect 5 0 13 0;
#X connect 6 0 9 0;
#X connect 6 0 13 1;
#X connect 7 0 4 0;
#X connect 7 1 17 0;
#X connect 7 2 8 1;
#X connect 8 0 14 0;
#X connect 9 0 8 0;
#X connect 9 1 11 0;
#X connect 10 0 14 1;
#X connect 11 0 10 0;
#X connect 11 1 12 1;
#X connect 13 0 6 0;
#X connect 14 0 12 0;
#X connect 15 0 3 1;
#X connect 16 0 3 0;
#X connect 17 0 13 1;
#X connect 18 0 1 0;
#X restore 11 310 pd fade_start_of_sample;
#X connect 0 0 1 0;
#X connect 1 0 14 0;
#X connect 1 0 15 0;
#X connect 2 0 5 0;
#X connect 4 0 2 0;
#X connect 5 0 3 0;
#X connect 5 0 17 1;
#X connect 6 0 5 0;
#X connect 7 0 19 0;
#X connect 8 1 1 0;
#X connect 9 0 0 0;
#X connect 11 0 10 0;
#X connect 12 0 13 0;
#X connect 14 0 20 0;
#X connect 15 0 17 0;
#X connect 15 0 21 0;
#X connect 15 1 12 0;
#X connect 15 2 4 0;
#X connect 18 0 19 0;
#X connect 19 0 8 0;
#X connect 20 0 11 0;
#X restore 639 38 pd loadsample;
#X obj 168 88 hsl 40 10 0 1 0 1 \$0-pan_snd \$0-pan_rec pan 10 5 0
8 -228856 -262144 -1 2050 1;
#X obj 356 49 t b b b, f 36;
#N canvas 0 23 450 300 counter 0;
#X obj 119 46 inlet;
#X msg 119 124 1;
#X obj 119 148 + -1;
#X obj 119 172 int;
#X obj 119 193 outlet;
#X connect 0 0 1 0;
#X connect 1 0 2 0;
#X connect 2 0 3 0;
#X connect 3 0 2 1;
#X connect 3 0 4 0;
#X restore 356 96 pd counter;
#X obj 356 138 pack;
#N canvas 532 312 450 300 \$0-paramwindow 0;
#N canvas 0 22 450 278 (subpatch) 0;
#X array \$0-probs 5 float 3;
#A 0 1 0 0 0 0;
#X coords 0 1 5 0 100 50 2 0 0;
#X restore 84 69 graph;
#X obj 39 35 hsl 50 10 1 10 0 1 \$0-rampLen \$0-rampLen_rec rampLength
-2 -8 0 10 -262144 -1 -1 0 1;
#X obj 14 21 vsl 15 100 0 127 0 1 \$0-pitchShiftMax_snd \$0-pitchShiftMax_rec
pitchShiftMax 0 -9 0 10 -262144 -1 -1 0 1;
#N canvas 0 23 450 278 (subpatch) 0;
#X array \$0-fxProbs 5 float 3;
#A 0 1 0 0 0 0;
#X coords 0 1 5 0 100 50 1 0 0;
#X restore 197 69 graph;
#X obj 13 163 hradio 15 1 0 5 empty \$0-playType play_type 0 -8 0 10
-262144 -1 -1 0;
#X obj 13 196 hradio 15 1 0 5 empty \$0-fxType fx_type 0 -8 0 10 -262144
-1 -1 0;
#X coords 0 0 1 1 85 60 0;
#X restore 795 176 pd \$0-paramwindow;
#X msg 783 85 \; pd-\$1-paramwindow vis 1;
#X obj 966 330 loadbang;
#X obj 966 351 f \$0;
#X obj 966 372 outlet;
#X obj 113 24 hsl 50 20 20 20000 1 1 \$0-lpf_snd \$0-lpf_rec lp_cutoff
0 5 0 8 -228856 -262144 -1 4900 1;
#X obj 113 42 hsl 50 20 20 20000 1 1 \$0-hpf_snd \$0-hpf_rec hp_cutoff
0 5 0 8 -228856 -262144 -1 0 1;
#X obj 110 86 bng 12 250 50 0 \$0-load_snd empty load 15 7 0 10 -262144
-191407 -1;
#X msg 154 404 0.5;
#X obj 154 425 s \$0-pan_rec;
#X floatatom 755 422 5 0 0 0 - - -;
#X obj 755 442 s \$0-ioi;
#N canvas 0 23 450 300 volLogic 0;
#X obj 37 37 inlet~;
#X obj 40 136 *~, f 29;
#X obj 264 45 / 127;
#X obj 264 69 pack 0 10;
#X obj 264 94 line~;
#X obj 264 19 r \$0-vol_snd;
#X obj 40 157 outlet~;
#X connect 0 0 1 0;
#X connect 1 0 6 0;
#X connect 2 0 3 0;
#X connect 3 0 4 0;
#X connect 4 0 1 1;
#X connect 5 0 2 0;
#X restore 357 293 pd volLogic;
#N canvas 0 23 450 300 panLogic 0;
#X obj 37 37 inlet~;
#X obj 218 243 *~;
#X obj 129 245 *~;
#X obj 234 76 line~;
#X obj 246 139 cos~;
#X obj 200 139 cos~;
#X msg 234 56 \$1 50;
#X obj 234 97 *~ 0.5;
#X obj 234 118 -~ 0.5;
#X obj 200 160 *~ 0.5;
#X obj 200 181 +~ 0.5;
#X obj 246 159 *~ 0.5;
#X obj 246 180 +~ 0.5;
#X obj 129 266 outlet~;
#X obj 218 264 outlet~;
#X obj 238 33 r \$0-pan_snd;
#X connect 0 0 2 0;
#X connect 0 0 1 0;
#X connect 1 0 14 0;
#X connect 2 0 13 0;
#X connect 3 0 7 0;
#X connect 4 0 11 0;
#X connect 5 0 9 0;
#X connect 6 0 3 0;
#X connect 7 0 5 0;
#X connect 7 0 8 0;
#X connect 8 0 4 0;
#X connect 9 0 10 0;
#X connect 10 0 2 1;
#X connect 11 0 12 0;
#X connect 12 0 1 1;
#X connect 15 0 6 0;
#X restore 357 365 pd panLogic;
#N canvas 0 59 1280 587 fxSends 0;
#X obj 45 248 inlet~;
#X obj 132 243 inlet~;
#X obj 64 483 *~;
#X obj 195 483 *~;
#X obj 666 57 inlet;
#X obj 538 225 line~;
#X obj 329 483 *~;
#X obj 462 483 *~;
#X obj 629 225 line~;
#X obj 629 105 == 2;
#X obj 760 480 *~;
#X obj 893 480 *~;
#X obj 725 225 line~;
#X obj 725 105 == 4;
#N canvas 0 23 450 300 ensure_closeBeforenexttrigger 0;
#X obj 37 37 inlet;
#X obj 122 84 sel 1;
#X obj 122 138 del, f 8;
#X msg 122 159 0;
#X obj 167 103 - 11;
#X obj 38 64 t f f;
#X obj 38 194 outlet;
#X obj 167 82 r \$1-ioi;
#X connect 0 0 5 0;
#X connect 1 0 2 0;
#X connect 2 0 3 0;
#X connect 3 0 6 0;
#X connect 4 0 2 1;
#X connect 5 0 6 0;
#X connect 5 1 1 0;
#X connect 7 0 4 0;
#X restore 629 126 pd ensure_closeBeforenexttrigger;
#X f 11;
#N canvas 0 23 450 300 ensure_closeBeforenexttrigger 0;
#X obj 37 37 inlet;
#X obj 122 84 sel 1;
#X obj 122 138 del, f 8;
#X msg 122 159 0;
#X obj 167 103 - 11;
#X obj 38 64 t f f;
#X obj 38 194 outlet;
#X obj 167 82 r \$1-ioi;
#X connect 0 0 5 0;
#X connect 1 0 2 0;
#X connect 2 0 3 0;
#X connect 3 0 6 0;
#X connect 4 0 2 1;
#X connect 5 0 6 0;
#X connect 5 1 1 0;
#X connect 7 0 4 0;
#X restore 538 126 pd ensure_closeBeforenexttrigger;
#X f 11;
#N canvas 0 23 450 300 ensure_closeBeforenexttrigger 0;
#X obj 37 37 inlet;
#X obj 122 84 sel 1;
#X obj 122 138 del, f 8;
#X msg 122 159 0;
#X obj 167 103 - 11;
#X obj 38 64 t f f;
#X obj 38 194 outlet;
#X obj 167 82 r \$1-ioi;
#X connect 0 0 5 0;
#X connect 1 0 2 0;
#X connect 2 0 3 0;
#X connect 3 0 6 0;
#X connect 4 0 2 1;
#X connect 5 0 6 0;
#X connect 5 1 1 0;
#X connect 7 0 4 0;
#X restore 725 126 pd ensure_closeBeforenexttrigger;
#X f 11;
#X msg 538 204 \$1 5;
#X msg 629 204 \$1 5;
#X msg 725 204 \$1 5;
#X obj 725 181 * 0.2;
#X obj 538 181 * 0.4;
#X obj 629 181 * 0.7;
#X obj 64 522 throw~ \$1-revL;
#X obj 195 522 throw~ \$1-revR;
#X obj 329 522 throw~ \$1-flangeL;
#X obj 462 522 throw~ \$1-flangeR;
#X obj 767 520 throw~ \$1-bobL;
#X obj 867 519 throw~ \$1-bobR;
#X obj 538 105 == 1;
#X connect 0 0 2 0;
#X connect 0 0 6 0;
#X connect 0 0 10 0;
#X connect 1 0 3 0;
#X connect 1 0 7 0;
#X connect 1 0 11 0;
#X connect 2 0 23 0;
#X connect 3 0 24 0;
#X connect 4 0 9 0;
#X connect 4 0 13 0;
#X connect 4 0 29 0;
#X connect 5 0 3 1;
#X connect 5 0 2 1;
#X connect 6 0 25 0;
#X connect 7 0 26 0;
#X connect 8 0 7 1;
#X connect 8 0 6 1;
#X connect 9 0 14 0;
#X connect 10 0 27 0;
#X connect 11 0 28 0;
#X connect 12 0 11 1;
#X connect 12 0 10 1;
#X connect 13 0 16 0;
#X connect 14 0 22 0;
#X connect 15 0 21 0;
#X connect 16 0 20 0;
#X connect 17 0 5 0;
#X connect 18 0 8 0;
#X connect 19 0 12 0;
#X connect 20 0 19 0;
#X connect 21 0 17 0;
#X connect 22 0 18 0;
#X connect 29 0 15 0;
#X restore 462 402 pd fxSends;
#X f 7;
#X obj 569 193 array random \$0-fxProbs;
#X obj 567 267 s \$0-fxType;
#N canvas 0 23 445 389 overdrive 0;
#X obj 37 37 inlet~;
#X obj 178 224 expr~ tanh($v1);
#X obj 178 203 *~ 2;
#X obj 43 205 * -1;
#X obj 43 226 + 1;
#X msg 43 247 \$1 5;
#X obj 43 269 line~;
#X obj 178 247 *~, f 17;
#X obj 28 291 *~;
#X msg 277 203 \$1 5;
#X obj 277 224 line~;
#X obj 201 62 == 3;
#X obj 58 350 outlet~;
#X obj 201 41 inlet;
#N canvas 0 23 450 300 ensure_closeBeforenexttrigger 0;
#X obj 37 37 inlet;
#X obj 122 84 sel 1;
#X obj 122 138 del, f 8;
#X msg 122 159 0;
#X obj 167 103 - 11;
#X obj 38 64 t f f;
#X obj 38 194 outlet;
#X obj 167 82 r \$1-ioi;
#X connect 0 0 5 0;
#X connect 1 0 2 0;
#X connect 2 0 3 0;
#X connect 3 0 6 0;
#X connect 4 0 2 1;
#X connect 5 0 6 0;
#X connect 5 1 1 0;
#X connect 7 0 4 0;
#X restore 200 83 pd ensure_closeBeforenexttrigger;
#X f 11;
#X connect 0 0 2 0;
#X connect 0 0 8 0;
#X connect 1 0 7 0;
#X connect 2 0 1 0;
#X connect 3 0 4 0;
#X connect 4 0 5 0;
#X connect 5 0 6 0;
#X connect 6 0 8 1;
#X connect 7 0 12 0;
#X connect 8 0 12 0;
#X connect 9 0 10 0;
#X connect 10 0 7 1;
#X connect 11 0 14 0;
#X connect 13 0 11 0;
#X connect 14 0 9 0;
#X connect 14 0 3 0;
#X restore 357 267 pd overdrive;
#X f 26;
#N canvas 634 32 450 300 filtering 0;
#X obj 37 37 inlet~;
#X obj 35 71 lop~, f 19;
#X obj 35 92 hip~, f 24;
#X obj 35 113 outlet~;
#X floatatom 383 56 5 0 0 0 - - -;
#X floatatom 219 36 5 0 0 0 - - -;
#X floatatom 210 77 5 0 0 0 - - -;
#X obj 219 15 r \$0-lpf_snd;
#X obj 210 56 r \$0-hpf_snd;
#X connect 0 0 1 0;
#X connect 1 0 2 0;
#X connect 2 0 3 0;
#X connect 7 0 1 1;
#X connect 7 0 5 0;
#X connect 8 0 2 1;
#X connect 8 0 6 0;
#X restore 356 200 pd filtering;
#X obj 357 402 throw~ \$1-outL, f 7;
#X obj 408 402 throw~ \$1-outR, f 7;
#X obj 1049 328 r \$1-load;
#X obj 755 401 r \$1-ioi;
#X obj 819 401 r \$1-sampRate;
#X obj 819 442 s \$0-sampRate;
#X floatatom 819 422 5 0 0 0 - - -;
#X obj 356 117 % 4;
#N canvas 0 23 1215 300 glitchVoices*4 0;
#X obj 37 37 inlet;
#X obj 78 234 outlet~;
#X obj 44 126 glitchVoice2 \$0, f 17;
#X obj 165 126 glitchVoice2 \$0;
#X obj 269 126 glitchVoice2 \$0;
#X obj 391 126 glitchVoice2 \$0;
#X obj 70 85 route 0 1 2 3, f 64;
#X connect 0 0 6 0;
#X connect 2 0 1 0;
#X connect 3 0 1 0;
#X connect 4 0 1 0;
#X connect 5 0 1 0;
#X connect 6 0 2 0;
#X connect 6 1 3 0;
#X connect 6 2 4 0;
#X connect 6 3 5 0;
#X restore 356 159 pd glitchVoices*4;
#X text 301 495 NOTE \; \; make it so that each voice of sampler can
be triggered with fx and play params chosen \; \; then calculate random
choices etc outside \; \; gives opportunity for voices to be triggered
like (e.g. w/keyboard) \; \;;
#X connect 1 0 12 0;
#X connect 2 0 13 1;
#X connect 3 0 11 0;
#X connect 6 0 7 0;
#X connect 7 0 15 0;
#X connect 11 0 1 0;
#X connect 11 1 2 0;
#X connect 11 2 29 0;
#X connect 12 0 40 0;
#X connect 13 0 41 0;
#X connect 16 0 17 0;
#X connect 17 0 18 0;
#X connect 22 0 23 0;
#X connect 24 0 25 0;
#X connect 26 0 27 0;
#X connect 27 0 28 0;
#X connect 27 0 33 0;
#X connect 27 1 28 1;
#X connect 27 1 34 0;
#X connect 29 0 30 0;
#X connect 29 0 28 2;
#X connect 29 0 31 1;
#X connect 31 0 26 0;
#X connect 32 0 31 0;
#X connect 35 0 17 0;
#X connect 36 0 24 0;
#X connect 37 0 39 0;
#X connect 39 0 38 0;
#X connect 40 0 13 0;
#X connect 41 0 32 0;
#X coords 0 -1 1 1 200 100 2 10 10;
