#N canvas 845 287 450 300 12;
#X obj 92 16 inlet;
#X msg 92 41 1, f 1;
#X obj 92 65 + -1;
#X obj 92 89 int;
#X obj 92 113 outlet;
#X obj 154 17 inlet;
#X msg 154 41 -1;
#X connect 0 0 1 0;
#X connect 1 0 2 0;
#X connect 2 0 3 0;
#X connect 3 0 2 1;
#X connect 3 0 4 0;
#X connect 5 0 6 0;
#X connect 6 0 2 1;
