#N canvas 0 23 1495 1035 12;
#X obj 102 123 delwrite~ \$0-myDelay 1000, f 11;
#X obj 251 78 line~;
#X obj 251 50 pack f 1000;
#X floatatom 372 275 5 0 0 1 delay\ time - - 0;
#X obj 251 190 delread4~ \$0-myDelay;
#X obj 587 281 vsl 15 50 0 127 0 0 empty empty FB 0 -9 0 10 #fcfcfc
#000000 #000000 0 1;
#X obj 136 405 *~, f 7;
#X obj 201 443 / 127;
#X msg 201 466 \$1 5;
#X obj 201 489 line~;
#X obj 251 252 lop~;
#X floatatom 489 276 5 0 0 1 lpFilter - - 0;
#X obj 251 275 distortion_sjf~;
#X obj 373 79 osc~;
#X obj 369 349 hsl 128 15 0.002 20 1 0 empty empty modulation\\\ rate
-2 -8 0 10 #fcfcfc #000000 #000000 0 1;
#X obj 511 349 hsl 128 15 0.01 1 1 0 empty empty modulation\\\ depth
-2 -8 0 10 #fcfcfc #000000 #000000 0 1;
#X msg 379 126 \$1 5;
#X obj 379 149 line~;
#X obj 282 132 *~;
#X obj 282 155 *~, f 7;
#X obj 103 72 inlet~;
#X obj 221 381 outlet~;
#X text 99 45 Audio In;
#X obj 614 309 s \$0-fb;
#X obj 200 412 r \$0-fb;
#X obj 508 369 s \$0-modDepth;
#X obj 379 105 r \$0-modDepth;
#X obj 366 369 s \$0-modRate;
#X obj 373 59 r \$0-modRate;
#X obj 489 298 s \$0-lpf;
#X obj 271 225 r \$0-lpf;
#X obj 372 297 s \$0-dTime;
#X obj 233 17 r \$0-dTime;
#X connect 1 0 4 0;
#X connect 1 0 18 0;
#X connect 2 0 1 0;
#X connect 3 0 31 0;
#X connect 4 0 10 0;
#X connect 5 0 23 0;
#X connect 6 0 0 0;
#X connect 7 0 8 0;
#X connect 8 0 9 0;
#X connect 9 0 6 1;
#X connect 10 0 12 0;
#X connect 11 0 29 0;
#X connect 12 0 6 0;
#X connect 12 0 21 0;
#X connect 13 0 18 1;
#X connect 14 0 27 0;
#X connect 15 0 25 0;
#X connect 16 0 17 0;
#X connect 17 0 19 1;
#X connect 18 0 19 0;
#X connect 19 0 4 0;
#X connect 20 0 0 0;
#X connect 24 0 7 0;
#X connect 26 0 16 0;
#X connect 28 0 13 0;
#X connect 30 0 10 1;
#X connect 32 0 2 0;
#X coords 0 -1 1 1 400 150 1 250 250;
