#N canvas 28 23 650 740 12;
#X floatatom 141 141 5 0 0 0 gain - - 0;
#X msg 141 163 \$1 5;
#X obj 141 186 line~;
#X obj 141 249 *~, f 16;
#X obj 141 272 expr~ tanh($v1);
#X obj 250 220 inlet~;
#X obj 141 295 outlet~;
#X connect 0 0 1 0;
#X connect 1 0 2 0;
#X connect 2 0 3 0;
#X connect 3 0 4 0;
#X connect 4 0 6 0;
#X connect 5 0 3 1;
#X coords 0 -1 1 1 85 60 1 100 100;
