#N canvas 761 195 450 300 12;
#X obj 132 34 inlet;
#X obj 132 69 list split 1, f 16;
#X obj 185 95 list;
#X obj 148 135 outlet;
#X obj 132 93 t b a;
#X connect 0 0 1 0;
#X connect 1 0 4 0;
#X connect 1 1 2 1;
#X connect 2 0 1 0;
#X connect 4 0 2 0;
#X connect 4 1 3 0;
