#N canvas 782 218 450 300 12;
#X obj 94 5 inlet;
#X obj 134 198 list;
#X obj 94 240 list;
#X obj 94 34 t b l b, f 24;
#X obj 113 66 list_f_iter_sjf;
#X obj 152 122 sel 0;
#X obj 134 174 list prepend;
#X obj 94 264 outlet;
#X connect 0 0 3 0;
#X connect 1 0 2 1;
#X connect 1 0 6 1;
#X connect 2 0 7 0;
#X connect 3 0 2 0;
#X connect 3 1 4 0;
#X connect 3 2 6 1;
#X connect 4 0 5 0;
#X connect 5 1 6 0;
#X connect 6 0 1 0;
