#N canvas 651 23 1268 1033 12;
#N canvas 0 22 450 278 (subpatch) 0;
#X array \$0-sample 9852 float 2;
#X coords 0 1 9852 -1 143 70 1;
#X restore 262 20 graph;
#X obj 35 113 soundfiler;
#X msg 35 89 read -resize \$1 \$2-sample;
#X obj 35 57 pack s \$0;
#X obj 35 12 bng 15 250 50 0 empty empty load 17 7 0 10 #fcfcfc #000000
#000000;
#X obj 35 32 openpanel;
#X obj 281 159 bng 15 250 50 0 empty empty empty 17 7 0 10 #fcfcfc
#000000 #000000;
#X obj 281 179 tabplay~ \$0-sample;
#X obj 418 11 vsl 15 128 0 127 0 0 empty empty empty 0 -9 0 10 #fcfcfc
#000000 #000000 0 1;
#X obj 418 147 / 127;
#X obj 418 170 pack 0 5;
#X obj 418 193 line~;
#X obj 281 215 *~, f 20;
#X obj 268 628 dac~;
#X obj 788 756 bng 100 250 50 0 empty empty empty 17 7 0 10 #fcfcfc
#000000 #000000;
#X obj 259 248 hsl 128 15 0 127 0 0 empty empty empty -2 -8 0 10 #fcfcfc
#000000 #000000 0 1;
#N canvas 40 23 1008 819 pan 0;
#X obj 36 14 inlet~;
#X obj 149 59 / 127;
#X floatatom 302 111 5 0 0 0 - - - 0;
#X floatatom 150 153 5 0 0 0 - - - 0;
#X obj 150 129 -;
#X msg 149 106 1, f 1;
#X obj 149 82 t b f;
#X obj 150 173 pack 0 5;
#X obj -93 251 *~, f 20;
#X obj 303 133 pack 0 5;
#X obj 303 156 line~;
#X obj 165 288 *~, f 20;
#X obj 150 194 line~;
#X obj 303 204 cos~;
#X obj 303 179 *~ 0.5;
#X obj 303 227 +~ 1;
#X obj 303 253 *~ 0.5;
#X obj 39 152 cos~;
#X obj 39 178 +~ 1;
#X obj 39 201 *~ 0.5;
#X obj 150 217 *~ 0.5;
#X obj -93 274 outlet~;
#X obj 165 311 outlet~;
#X obj 154 27 inlet;
#X connect 0 0 8 0;
#X connect 0 0 11 0;
#X connect 1 0 2 0;
#X connect 1 0 6 0;
#X connect 2 0 9 0;
#X connect 3 0 7 0;
#X connect 4 0 3 0;
#X connect 5 0 4 0;
#X connect 6 0 5 0;
#X connect 6 1 4 1;
#X connect 7 0 12 0;
#X connect 8 0 21 0;
#X connect 9 0 10 0;
#X connect 10 0 14 0;
#X connect 11 0 22 0;
#X connect 12 0 20 0;
#X connect 13 0 15 0;
#X connect 14 0 13 0;
#X connect 15 0 16 0;
#X connect 16 0 11 1;
#X connect 17 0 18 0;
#X connect 18 0 19 0;
#X connect 19 0 8 1;
#X connect 20 0 17 0;
#X connect 23 0 1 0;
#X restore 268 284 pd pan;
#X obj 356 337 delay_sjf~;
#X obj 268 96 tgl 15 0 empty empty empty 17 7 0 10 #fcfcfc #000000
#000000 0 1;
#X obj 268 116 metro 500;
#X connect 2 0 1 0;
#X connect 3 0 2 0;
#X connect 4 0 5 0;
#X connect 5 0 3 0;
#X connect 6 0 7 0;
#X connect 7 0 12 0;
#X connect 8 0 9 0;
#X connect 9 0 10 0;
#X connect 10 0 11 0;
#X connect 11 0 12 1;
#X connect 12 0 16 0;
#X connect 12 0 17 0;
#X connect 15 0 16 1;
#X connect 16 0 13 0;
#X connect 16 1 13 1;
#X connect 17 0 13 0;
#X connect 17 0 13 1;
#X connect 18 0 19 0;
#X connect 19 0 6 0;
