#N canvas -16 23 1440 855 12;
#X obj 465 726 dac~;
#X obj 473 688 vol_sjf~, f 38;
#X obj 214 21 tgl 15 0 empty empty empty 17 7 0 10 #fcfcfc #000000
#000000 0 1;
#X msg 214 65 1;
#X obj 214 89 + -1;
#X obj 214 113 int;
#X obj 214 137 % 8;
#X obj 214 161 t f f, f 27;
#N canvas 0 22 450 278 (subpatch) 0;
#X array KnS 8 float 3;
#A 0 1 -0.0142807 0.600001 2 2 1 0.985715 2;
#X coords 0 2 8 0 200 140 1 0 0;
#X restore 658 55 graph;
#N canvas 0 22 450 278 (subpatch) 0;
#X array HiHat 8 float 3;
#A 0 1 1 0.971429 0.957144 1 1.02857 1.01429 1.64286;
#X coords 0 2 8 0 200 140 1 0 0;
#X restore 903 55 graph;
#X obj 214 368 tabread KnS;
#X obj 214 423 sel 0 1 2;
#X obj 214 392 expr round($f1);
#X obj 506 438 sel 0 1 2;
#X obj 452 373 expr round($f1);
#X obj 452 349 tabread HiHat;
#X obj 1081 398 bng 15 250 50 0 empty empty empty 17 7 0 10 #fcfcfc
#000000 #000000;
#X msg 1081 418 8;
#X obj 1081 442 until;
#X msg 1080 468 1;
#X obj 1080 492 + -1;
#X obj 1080 516 int;
#X obj 1080 540 % 8;
#X obj 1063 642 tabwrite KnS;
#X obj 1080 564 t b f;
#X obj 1080 588 random 3;
#X obj 1183 395 bng 15 250 50 0 empty empty empty 17 7 0 10 #fcfcfc
#000000 #000000;
#X msg 1183 415 8;
#X obj 1183 439 until;
#X msg 1182 465 1;
#X obj 1182 489 + -1;
#X obj 1182 513 int;
#X obj 1182 537 % 8;
#X obj 1182 561 t b f;
#X obj 1182 585 random 3;
#X obj 1165 639 tabwrite HiHat;
#X obj 1131 355 bng 15 250 50 0 empty empty empty 17 7 0 10 #fcfcfc
#000000 #000000;
#X obj 214 41 metro 125;
#N canvas 0 22 450 278 (subpatch) 0;
#X array KnS_vel 8 float 3;
#A 0 120.952 21.1667 18.1429 123.976 24.1905 18.1429 102.81 24.1905
;
#X coords 0 127 8 0 201 42 1 0 0;
#X restore 657 212 graph;
#N canvas 0 22 450 278 (subpatch) 0;
#X array HiHat_vel 8 float 3;
#A 0 102.81 18.1428 72.5714 18.1428 117.929 24.1905 81.6429 27.2143
;
#X coords 0 127 8 0 201 42 1 0 0;
#X restore 903 214 graph;
#X obj 337 391 tabread KnS_vel;
#X obj 603 439 tabread HiHat_vel;
#X obj 214 339 t f f, f 18;
#X obj 452 322 t f f, f 22;
#X obj 440 181 prGen;
#X floatatom 496 252 5 0 0 0 - - - 0;
#X obj 491 300 bng 15 250 50 0 empty empty empty 17 7 0 10 #fcfcfc
#000000 #000000;
#X obj 476 274 sel 0;
#X obj 545 273 sel 0;
#X obj 496 228 route 0 1 2, f 20;
#X obj 606 275 sel 0;
#X obj 495 135 tgl 15 0 empty empty empty 17 7 0 10 #fcfcfc #000000
#000000 0 1;
#X obj 495 155 metro 125;
#X floatatom 865 310 5 0 0 0 - - - 0;
#X floatatom 890 385 5 0 0 0 - - - 0;
#X obj 865 382 bng 15 250 50 0 empty empty empty 17 7 0 10 #fcfcfc
#000000 #000000;
#X obj 929 326 bng 15 250 50 0 empty empty empty 17 7 0 10 #fcfcfc
#000000 #000000;
#X obj 877 348 route bang;
#X obj 688 278 route 0 1 2, f 20;
#N canvas 0 22 450 278 (subpatch) 0;
#X array kick 5 float 3;
#A 0 116.974 -23.3956 26.737 0 0;
#X coords 0 127 5 0 194 38 1 0 0;
#X restore 1168 121 graph;
#N canvas 0 22 450 278 (subpatch) 0;
#X array snare 6 float 3;
#A 0 -16.7104 43.4474 -26.7368 -43.4473 -26.7368 -70.1841;
#X coords 0 127 6 0 194 38 1 0 0;
#X restore 1168 192 graph;
#N canvas 0 22 450 278 (subpatch) 0;
#X array hat 9 float 3;
#A 0 106.947 -26.7377 36.7632 33.4211 -43.4486 -30.08 43.4475 86.8948
-30.0799;
#X coords 0 127 9 0 194 38 1 0 0;
#X restore 1167 269 graph;
#X obj 688 302 array size kick;
#X obj 704 338 array size snare;
#X obj 739 372 array size hat;
#X obj 845 455 velLogic_sjf kick;
#X floatatom 845 479 5 0 0 0 - - - 0;
#X obj 909 489 velLogic_sjf snare;
#X obj 584 465 velLogic_sjf hat;
#X msg 606 299 0;
#X obj 608 373 velLogic_sjf hat;
#X obj 672 517 sampVoice_sjf~ 4;
#X obj 490 518 sampVoice_sjf~ 4;
#X obj 130 518 sampVoice_sjf~ 4;
#X obj 310 518 sampVoice_sjf~ 4;
#X obj 1171 106 hsl 189 15 0 5 0 0 empty \$0-kickPos empty -2 -8 0
10 #fcfcfc #000000 #000000 0 1;
#N canvas 319 94 968 300 posLog 0;
#X obj 23 15 inlet;
#X obj 228 11 inlet;
#X obj 227 64 route 0 1 2, f 20;
#X obj 144 202 s \$0-kickPos;
#X msg 193 144 range 0 \$1;
#X obj 20 124 %;
#X obj 23 39 route 0 1 2;
#X msg 457 141 range 0 \$1;
#X obj 284 121 %;
#X obj 408 199 s \$0-snarePos;
#X msg 762 163 range 0 \$1;
#X obj 589 143 %;
#X obj 713 221 s \$0-hatPos;
#N canvas 971 425 450 300 vislog 0;
#X obj 37 37 inlet;
#X obj 39 95 t b b, f 9;
#X obj 39 119 del 200;
#X msg 39 149 color 0 22 22;
#X msg 147 149 color 3 22 22;
#X obj 37 61 sel 0;
#X obj 39 173 outlet;
#X connect 0 0 5 0;
#X connect 1 0 2 0;
#X connect 1 1 4 0;
#X connect 2 0 3 0;
#X connect 3 0 6 0;
#X connect 4 0 6 0;
#X connect 5 0 1 0;
#X restore 83 145 pd vislog;
#N canvas 971 425 450 300 vislog 0;
#X obj 37 37 inlet;
#X obj 39 95 t b b, f 9;
#X obj 39 119 del 200;
#X msg 39 149 color 0 22 22;
#X msg 147 149 color 3 22 22;
#X obj 37 61 sel 0;
#X obj 39 173 outlet;
#X connect 0 0 5 0;
#X connect 1 0 2 0;
#X connect 1 1 4 0;
#X connect 2 0 3 0;
#X connect 3 0 6 0;
#X connect 4 0 6 0;
#X connect 5 0 1 0;
#X restore 357 145 pd vislog;
#N canvas 971 425 450 300 vislog 0;
#X obj 37 37 inlet;
#X obj 39 95 t b b, f 9;
#X obj 39 119 del 200;
#X msg 39 149 color 0 22 22;
#X msg 147 149 color 3 22 22;
#X obj 37 61 sel 0;
#X obj 39 173 outlet;
#X connect 0 0 5 0;
#X connect 1 0 2 0;
#X connect 1 1 4 0;
#X connect 2 0 3 0;
#X connect 3 0 6 0;
#X connect 4 0 6 0;
#X connect 5 0 1 0;
#X restore 674 164 pd vislog;
#X connect 0 0 6 0;
#X connect 1 0 2 0;
#X connect 2 0 4 0;
#X connect 2 0 5 1;
#X connect 2 1 8 1;
#X connect 2 1 7 0;
#X connect 2 2 11 1;
#X connect 2 2 10 0;
#X connect 4 0 3 0;
#X connect 5 0 3 0;
#X connect 5 0 13 0;
#X connect 6 0 5 0;
#X connect 6 1 8 0;
#X connect 6 2 11 0;
#X connect 7 0 9 0;
#X connect 8 0 9 0;
#X connect 8 0 14 0;
#X connect 10 0 12 0;
#X connect 11 0 12 0;
#X connect 11 0 15 0;
#X connect 13 0 3 0;
#X connect 14 0 9 0;
#X connect 15 0 12 0;
#X restore 405 228 pd posLog;
#X obj 1171 177 hsl 189 15 0 6 0 0 empty \$0-snarePos empty -2 -8 0
10 #fcfcfc #000000 #000000 0 1;
#X obj 1170 255 hsl 189 15 0 9 0 0 empty \$0-hatPos empty -2 -8 0 10
#fcfcfc #000000 #000000 0 1;
#X connect 1 0 0 0;
#X connect 1 0 0 1;
#X connect 2 0 37 0;
#X connect 3 0 4 0;
#X connect 4 0 5 0;
#X connect 5 0 6 0;
#X connect 5 0 4 1;
#X connect 6 0 7 0;
#X connect 7 0 42 0;
#X connect 7 1 43 0;
#X connect 10 0 12 0;
#X connect 12 0 11 0;
#X connect 14 0 13 0;
#X connect 15 0 14 0;
#X connect 16 0 17 0;
#X connect 17 0 18 0;
#X connect 18 0 19 0;
#X connect 19 0 20 0;
#X connect 20 0 21 0;
#X connect 21 0 22 0;
#X connect 21 0 20 1;
#X connect 22 0 24 0;
#X connect 24 0 25 0;
#X connect 24 1 23 1;
#X connect 25 0 23 0;
#X connect 26 0 27 0;
#X connect 27 0 28 0;
#X connect 28 0 29 0;
#X connect 29 0 30 0;
#X connect 30 0 31 0;
#X connect 31 0 32 0;
#X connect 31 0 30 1;
#X connect 32 0 33 0;
#X connect 33 0 34 0;
#X connect 33 1 35 1;
#X connect 34 0 35 0;
#X connect 36 0 16 0;
#X connect 36 0 26 0;
#X connect 37 0 3 0;
#X connect 42 0 10 0;
#X connect 42 1 40 0;
#X connect 43 0 15 0;
#X connect 43 1 41 0;
#X connect 44 0 49 0;
#X connect 44 0 76 0;
#X connect 44 3 58 0;
#X connect 44 3 76 1;
#X connect 47 0 46 0;
#X connect 49 0 45 0;
#X connect 49 0 47 0;
#X connect 49 0 65 0;
#X connect 49 1 48 0;
#X connect 49 1 67 0;
#X connect 49 2 50 0;
#X connect 50 0 69 0;
#X connect 50 1 68 0;
#X connect 51 0 52 0;
#X connect 52 0 44 0;
#X connect 53 0 57 0;
#X connect 56 0 57 0;
#X connect 57 0 55 0;
#X connect 57 1 54 0;
#X connect 58 0 62 0;
#X connect 58 1 63 0;
#X connect 58 2 64 0;
#X connect 65 0 66 0;
#X connect 65 0 73 0;
#X connect 67 0 74 0;
#X connect 68 0 72 0;
#X connect 69 0 70 0;
#X connect 70 0 71 0;
#X connect 71 0 1 0;
#X connect 72 0 1 0;
#X connect 73 0 1 0;
#X connect 74 0 1 0;
