#N canvas 635 57 609 300 12;
#X obj 97 12 inlet;
#X obj 100 235 outlet~;
#X obj 298 137 switch~;
#X obj 97 36 t f b;
#X msg 298 106 1;
#X obj 357 58 / 127;
#X obj 86 185 *~, f 39;
#X obj 482 86 loadbang;
#X msg 482 110 1;
#X obj 217 113 loadbang;
#X msg 217 137 0;
#X obj 97 60 t b f;
#X obj 356 146 sig~;
#X obj 80 135 tabplay~ \$2-samp;
#X connect 0 0 3 0;
#X connect 3 0 11 0;
#X connect 3 1 4 0;
#X connect 4 0 2 0;
#X connect 5 0 12 0;
#X connect 6 0 1 0;
#X connect 7 0 8 0;
#X connect 8 0 12 0;
#X connect 9 0 10 0;
#X connect 10 0 2 0;
#X connect 11 0 13 0;
#X connect 11 1 5 0;
#X connect 12 0 6 1;
#X connect 13 0 6 0;
#X connect 13 1 10 0;
