#N canvas 47 74 1053 622 12;
#N canvas 89 120 450 278 (subpatch) 0;
#X array \$0-samp 12298 float 2;
#X coords 0 1 12298 -1 116 41 1 0 0;
#X restore 10 54 graph;
#X obj 643 159 soundfiler;
#X text 876 125 optionally resize;
#X obj 126 54 bng 15 250 50 0 \$0-load empty load 17 7 0 10 #fcfcfc
#000000 #000000;
#X obj 643 65 openpanel;
#X obj 643 95 pack s \$0;
#X floatatom 643 183 7 0 0 0 - - - 0;
#X text 698 183 length in samples;
#X obj 126 75 bng 15 250 50 0 empty empty trigger 17 7 0 10 #fcfcfc
#000000 #000000;
#X obj 607 468 / 127;
#X obj 607 492 pack 0 5;
#X obj 607 516 line~;
#X obj 431 453 *~, f 21;
#X obj 431 477 outlet~;
#X msg 643 126 read -resize \$1 \$2-samp;
#X obj 253 18 inlet;
#X text 168 3 bang in to trigger sample;
#X obj 607 446 r \$0-vol;
#X obj 13 95 hsl 128 15 0 127 0 0 \$0-vol empty VOL 5 8 0 10 #fcfcfc
#000000 #000000 0 1;
#X obj 643 41 r \$0-load;
#X obj 255 66 t b b;
#X msg 232 108 127;
#X obj 253 39 route bang;
#X obj 351 96 t b f;
#X obj 349 49 sel 0;
#X obj 130 171 t b f;
#X obj 130 195 counter_sjf;
#X obj 130 243 pack;
#X obj 167 136 f 127;
#X obj 130 219 % \$1;
#X obj 130 271 clone sampVoice_poly_sjf~ \$1 \$0;
#X connect 1 0 6 0;
#X connect 4 0 5 0;
#X connect 5 0 14 0;
#X connect 8 0 28 0;
#X connect 9 0 10 0;
#X connect 10 0 11 0;
#X connect 11 0 12 1;
#X connect 12 0 13 0;
#X connect 14 0 1 0;
#X connect 15 0 22 0;
#X connect 17 0 9 0;
#X connect 19 0 4 0;
#X connect 20 0 8 0;
#X connect 20 1 21 0;
#X connect 21 0 28 1;
#X connect 22 0 20 0;
#X connect 22 1 24 0;
#X connect 23 0 8 0;
#X connect 23 1 28 1;
#X connect 24 1 23 0;
#X connect 25 0 26 0;
#X connect 25 1 27 1;
#X connect 26 0 29 0;
#X connect 27 0 30 0;
#X connect 28 0 25 0;
#X connect 29 0 27 0;
#X connect 30 0 12 0;
#X coords 0 -1 1 1 180 90 1 10 20;
