#N canvas 0 91 1920 1035 12;
#X obj 174 318 +~ 1;
#X text 211 312 Help file states indices \; go from 1 --> size-2;
#X obj 174 183 line~;
#X text 15 183 Create a simple ramp;
#X obj 174 290 *~ 44.1;
#X text 232 288 Convert from ms to samples;
#X text 275 216 50ms is length of segment to play from sample;
#X obj 174 249 +~ 100, f 31;
#X obj 174 216 *~ 50, f 14;
#X obj 34 273 *~ 512;
#X obj 34 296 +~ 1;
#X obj 156 376 *~;
#X obj 463 255 samplerate~;
#X floatatom 409 125 5 0 0 0 - - - 0;
#X obj 409 147 *, f 15;
#X floatatom 409 171 9 0 0 0 - - - 0;
#X obj 409 194 / 44.1;
#X obj 174 83 f;
#X msg 174 148 0 \, 1 \$1;
#X obj 174 106 t f f, f 14;
#X obj 269 149 * 1;
#X obj 287 105 expr pow(2 \, $f1), f 11;
#X obj 176 423 outlet~;
#X obj 172 7 inlet;
#X obj 792 15 r \$0-grainLength;
#X floatatom 792 38 5 0 0 0 - - - 0;
#X obj 793 59 r \$0-transpose;
#X obj 172 30 unpack 0 0 0 0 0, f 57;
#X obj 792 82 r \$0-grainStart;
#X obj 792 107 r \$0-sampleLength;
#X text 672 14 1 - grainLength \; 2 - transpose \; 3 - grainStart \;
4 - sampleLength \; 5 - vol (0-->1);
#X obj 838 141 vsl 15 128 0 127 0 0 empty empty empty 0 -9 0 10 #fcfcfc
#000000 #000000 0 1;
#X obj 838 277 / 127;
#X text 857 148 Vol;
#X obj 176 398 *~ 1, f 53;
#X obj 35 319 tabread4~ \$1-env;
#X obj 174 348 tabread4~ \$1-granSample;
#X connect 0 0 36 0;
#X connect 2 0 8 0;
#X connect 2 0 9 0;
#X connect 4 0 0 0;
#X connect 7 0 4 0;
#X connect 8 0 7 0;
#X connect 9 0 10 0;
#X connect 10 0 35 0;
#X connect 11 0 34 0;
#X connect 12 0 4 1;
#X connect 13 0 14 0;
#X connect 14 0 15 0;
#X connect 15 0 16 0;
#X connect 16 0 7 1;
#X connect 17 0 19 0;
#X connect 18 0 2 0;
#X connect 19 0 18 0;
#X connect 19 1 20 0;
#X connect 20 0 8 1;
#X connect 21 0 20 1;
#X connect 23 0 27 0;
#X connect 24 0 25 0;
#X connect 27 0 17 0;
#X connect 27 1 21 0;
#X connect 27 2 13 0;
#X connect 27 3 14 1;
#X connect 27 4 34 1;
#X connect 31 0 32 0;
#X connect 34 0 22 0;
#X connect 35 0 11 0;
#X connect 36 0 11 1;
