#N canvas 0 23 1440 855 12;
#N canvas 0 22 450 278 (subpatch) 0;
#X array \$0-pat1 32 float 3;
#A 0 1 0 2 0 2 0 1 2 0 1 2 0 2 0 1 0 1 2 0 1 2 0 2 1 2 1 2 1 0 2 1
2;
#X coords 0 2 32 0 223 67 1 0 0;
#X restore 653 192 graph;
#N canvas 0 22 450 278 (subpatch) 0;
#X array \$0-0TO 3 float 3;
#A 0 -0.231883 10.4348 10.2857;
#X coords 0 16 3 0 211 69 1 0 0;
#X restore 916 195 graph;
#X text 1133 195 Probabilities of 0 transitioning to: \; 0 \; 1 \;
2 \;;
#N canvas 0 22 450 278 (subpatch) 0;
#X array \$0-1TO 3 float 3;
#A 0 5.56527 -3.8147e-06 9.97105;
#X coords 0 16 3 0 211 69 1 0 0;
#X restore 915 291 graph;
#X text 1132 291 Probabilities of 1 transitioning to: \; 0 \; 1 \;
2 \;;
#N canvas 0 22 450 278 (subpatch) 0;
#X array \$0-2TO 3 float 3;
#A 0 7.42031 7.42032 0.695633;
#X coords 0 16 3 0 211 69 1 0 0;
#X restore 916 382 graph;
#X text 1133 382 Probabilities of 2 transitioning to: \; 0 \; 1 \;
2 \;;
#X obj 398 207 bng 15 250 50 0 empty empty empty 17 7 0 10 #fcfcfc
#000000 #000000;
#X obj 398 287 f 16;
#X obj 398 311 until;
#X obj 398 335 +;
#X obj 431 335 + 1;
#X obj 398 359 % 16, f 13;
#X obj 398 383 t f f, f 38;
#X obj 398 661 tabwrite \$0-pat1, f 38;
#X obj 398 407 sel 0, f 16;
#X msg 398 431 1;
#X text 167 527 Always have Kick on beat 1;
#X obj 444 432 - 1;
#X obj 444 456 tabread \$0-pat1;
#X obj 444 480 sel 0 1 2, f 29;
#X obj 444 504 array random \$0-0TO, f 6;
#X obj 573 504 array random \$0-2TO, f 6;
#X obj 512 504 array random \$0-1TO, f 6;
#X obj 586 267 array size \$0-pat1;
#X floatatom 461 207 5 0 0 0 - - - 0;
#X obj 83 123 tgl 15 0 empty empty empty 17 7 0 10 #fcfcfc #000000
#000000 0 1;
#X obj 83 143 metro 250;
#X obj 83 167 +;
#X obj 123 170 + 1;
#X obj 83 191 % 16;
#X obj 83 215 tabread \$0-pat1;
#X obj 83 239 sel 0 1 2, f 15;
#X msg 79 393 35;
#X msg 124 397 38;
#X obj 75 434 makenote 100 500;
#X obj 83 471 noteout 10;
#N canvas 0 23 1440 855 selfSim 1;
#X text 442 218 n n+1 n-1 n;
#X obj 410 170 bng 15 250 50 0 empty empty empty 17 7 0 10 #fcfcfc
#000000 #000000;
#X obj 410 248 t b b, f 25;
#N canvas 0 22 450 278 (subpatch) 0;
#X array \$0-selfSimPat 32 float 3;
#A 0 0 1 -1 0 1 2 0 1 -1 0 -2 -1 0 1 -1 0 1 2 0 1 2 3 1 2 0 1 -1 0
1 2 0 1;
#X coords 0 12 32 -12 200 140 1 0 0;
#X restore 796 328 graph;
#X floatatom 643 211 5 0 0 0 nSteps - - 0;
#X obj 643 234 max 4;
#X obj 643 258 t b f;
#X obj 410 277 f 4;
#X obj 410 360 until;
#X obj 410 424 +;
#X obj 444 424 + 1;
#X msg 428 400 0;
#X obj 617 416 array size \$0-selfSimPat;
#X obj 585 325 t b;
#X obj 410 482 tabread \$0-selfSimPat;
#X obj 410 453 t f f, f 33;
#X obj 410 506 t f f f f, f 14;
#X obj 410 530 + 0;
#X obj 441 530 - 1;
#X obj 471 530 + 1;
#X obj 502 530 + 0;
#X obj 434 574 t f b, f 17;
#X obj 559 628 +;
#X obj 593 628 + 1;
#X msg 577 604 0;
#X obj 433 753 tabwrite \$0-selfSimPat, f 13;
#X obj 433 711 pack, f 13;
#X obj 410 302 / 4;
#X obj 410 326 + 1;
#X obj 559 652 t f f;
#X obj 434 634 spigot;
#X obj 96 280 bng 15 250 50 0 empty empty empty 17 7 0 10 #fcfcfc #000000
#000000;
#X obj 96 300 array max \$0-selfSimPat;
#X floatatom 96 324 5 0 0 0 - - - 0;
#X obj 507 662 <;
#X obj 410 190 t b b;
#X obj 620 141 inlet;
#X connect 1 0 35 0;
#X connect 2 0 7 0;
#X connect 2 1 13 0;
#X connect 4 0 5 0;
#X connect 5 0 6 0;
#X connect 6 0 1 0;
#X connect 6 1 7 1;
#X connect 6 1 12 0;
#X connect 6 1 34 1;
#X connect 7 0 27 0;
#X connect 8 0 9 0;
#X connect 9 0 10 0;
#X connect 9 0 15 0;
#X connect 10 0 9 1;
#X connect 11 0 9 1;
#X connect 13 0 11 0;
#X connect 13 0 24 0;
#X connect 14 0 16 0;
#X connect 15 0 14 0;
#X connect 16 0 17 0;
#X connect 16 1 18 0;
#X connect 16 2 19 0;
#X connect 16 3 20 0;
#X connect 17 0 21 0;
#X connect 18 0 21 0;
#X connect 19 0 21 0;
#X connect 20 0 21 0;
#X connect 21 0 30 0;
#X connect 21 1 22 0;
#X connect 22 0 23 0;
#X connect 22 0 29 0;
#X connect 23 0 22 1;
#X connect 24 0 22 1;
#X connect 26 0 25 0;
#X connect 27 0 28 0;
#X connect 28 0 8 0;
#X connect 29 0 34 0;
#X connect 29 1 26 1;
#X connect 30 0 26 0;
#X connect 31 0 32 0;
#X connect 32 0 33 0;
#X connect 34 0 30 1;
#X connect 35 0 31 0;
#X connect 35 1 2 0;
#X connect 36 0 4 0;
#X restore 1201 692 pd selfSim;
#X obj 235 228 tabread \$0-selfSimPat;
#X obj 200 580 makenote 100 500;
#X obj 269 374 + 60;
#X obj 221 623 noteout;
#X floatatom 40 206 5 0 0 0 - - - 0;
#X obj 808 590 bng 15 250 50 0 empty empty empty 17 7 0 10 #fcfcfc
#000000 #000000;
#X obj 808 610 f \$0;
#X obj 235 252 moses 0, f 12;
#X obj 235 300 tabread \$0-scale;
#X obj 223 351 + 48;
#X obj 269 343 tabread \$0-scale;
#X obj 232 29 / 2;
#X obj 232 53 int;
#X obj 232 77 change;
#X obj 322 12 tabread \$0-selfSimPat;
#X obj 322 36 moses 0, f 12;
#X obj 322 84 tabread \$0-scale;
#X obj 356 127 tabread \$0-scale;
#X obj 322 108 + 36;
#X obj 356 158 + 48;
#X obj 517 19 / 2;
#X obj 517 43 int;
#X obj 517 67 change;
#X obj 607 2 tabread \$0-selfSimPat;
#X obj 607 26 moses 0, f 12;
#X obj 607 74 tabread \$0-scale;
#X obj 641 117 tabread \$0-scale;
#X obj 607 98 + 24;
#X obj 641 148 + 36;
#X obj 252 183 pack 0 100 500;
#X obj 865 569 bng 15 250 50 0 empty empty empty 17 7 0 10 #fcfcfc
#000000 #000000;
#X obj 865 589 f \$0;
#X obj 802 725 array define \$0-scale 7;
#X msg 796 660 \; \$1-scale 0 2 4 5 7 9 11;
#X msg 865 617 \; \$1-scale 0 2 3 5 7 9 10;
#X obj 235 276 + 7;
#X obj 322 60 + 7;
#X obj 607 50 + 7;
#X obj 534 191 pack 0 127 1000;
#X obj 241 425 pack 0 80 250;
#X connect 7 0 8 0;
#X connect 8 0 9 0;
#X connect 9 0 10 0;
#X connect 10 0 11 0;
#X connect 10 0 12 0;
#X connect 11 0 10 1;
#X connect 12 0 13 0;
#X connect 13 0 15 0;
#X connect 13 1 14 1;
#X connect 15 0 16 0;
#X connect 15 1 18 0;
#X connect 16 0 14 0;
#X connect 18 0 19 0;
#X connect 19 0 20 0;
#X connect 20 0 21 0;
#X connect 20 1 23 0;
#X connect 20 2 22 0;
#X connect 21 0 14 0;
#X connect 22 0 14 0;
#X connect 23 0 14 0;
#X connect 25 0 8 1;
#X connect 25 0 12 1;
#X connect 25 0 24 0;
#X connect 25 0 30 1;
#X connect 25 0 37 0;
#X connect 26 0 27 0;
#X connect 27 0 28 0;
#X connect 28 0 29 0;
#X connect 28 0 30 0;
#X connect 29 0 28 1;
#X connect 30 0 31 0;
#X connect 30 0 38 0;
#X connect 30 0 42 0;
#X connect 30 0 49 0;
#X connect 31 0 32 0;
#X connect 32 1 33 0;
#X connect 32 2 34 0;
#X connect 33 0 35 0;
#X connect 34 0 35 0;
#X connect 35 0 36 0;
#X connect 35 1 36 1;
#X connect 38 0 45 0;
#X connect 39 0 41 0;
#X connect 39 1 41 1;
#X connect 40 0 77 0;
#X connect 43 0 44 0;
#X connect 44 0 71 0;
#X connect 45 0 73 0;
#X connect 45 1 48 0;
#X connect 46 0 47 0;
#X connect 47 0 77 0;
#X connect 48 0 40 0;
#X connect 49 0 50 0;
#X connect 50 0 51 0;
#X connect 51 0 52 0;
#X connect 51 0 58 0;
#X connect 52 0 53 0;
#X connect 53 0 74 0;
#X connect 53 1 55 0;
#X connect 54 0 56 0;
#X connect 55 0 57 0;
#X connect 56 0 67 0;
#X connect 57 0 67 0;
#X connect 58 0 59 0;
#X connect 59 0 60 0;
#X connect 60 0 61 0;
#X connect 61 0 62 0;
#X connect 62 0 75 0;
#X connect 62 1 64 0;
#X connect 63 0 65 0;
#X connect 64 0 66 0;
#X connect 65 0 76 0;
#X connect 66 0 76 0;
#X connect 67 0 39 0;
#X connect 68 0 69 0;
#X connect 69 0 72 0;
#X connect 73 0 46 0;
#X connect 74 0 54 0;
#X connect 75 0 63 0;
#X connect 76 0 39 0;
#X connect 77 0 39 0;
