#N canvas -1274 581 1014 404 10;
#X obj 436 52 inlet;
#X obj 283 112 s \$0-currentBeat;
#X obj 436 79 t f f;
#N canvas 0 23 450 300 onlyGreaterThan0 0;
#X obj 37 37 inlet;
#X obj 37 62 t f f;
#X obj 64 86 > 0;
#X obj 37 128 *;
#X text 91 20 I wanted to make sure we don't get any velocities below
0 when changing the array;
#X text 95 83 First I check if my value is greater than 0;
#X text 95 97 If so I get 1 \, if not 0;
#X text 63 128 X * 1 == X;
#X text 63 144 X * 0 == 0;
#X obj 37 161 outlet;
#X connect 0 0 1 0;
#X connect 1 0 3 0;
#X connect 1 1 2 0;
#X connect 2 0 3 1;
#X connect 3 0 9 0;
#X restore 403 152 pd onlyGreaterThan0;
#X obj 403 129 tabread \$0-kick;
#N canvas 0 23 450 300 onlyGreaterThan0 0;
#X obj 37 37 inlet;
#X obj 37 62 t f f;
#X obj 64 86 > 0;
#X obj 37 128 *;
#X text 91 20 I wanted to make sure we don't get any velocities below
0 when changing the array;
#X text 95 83 First I check if my value is greater than 0;
#X text 95 97 If so I get 1 \, if not 0;
#X text 63 128 X * 1 == X;
#X text 63 144 X * 0 == 0;
#X obj 37 161 outlet;
#X connect 0 0 1 0;
#X connect 1 0 3 0;
#X connect 1 1 2 0;
#X connect 2 0 3 1;
#X connect 3 0 9 0;
#X restore 527 152 pd onlyGreaterThan0;
#X obj 527 129 tabread \$0-snare;
#N canvas 0 23 450 300 onlyGreaterThan0 0;
#X obj 37 37 inlet;
#X obj 37 62 t f f;
#X obj 64 86 > 0;
#X obj 37 128 *;
#X text 91 20 I wanted to make sure we don't get any velocities below
0 when changing the array;
#X text 95 83 First I check if my value is greater than 0;
#X text 95 97 If so I get 1 \, if not 0;
#X text 63 128 X * 1 == X;
#X text 63 144 X * 0 == 0;
#X obj 37 161 outlet;
#X connect 0 0 1 0;
#X connect 1 0 3 0;
#X connect 1 1 2 0;
#X connect 2 0 3 1;
#X connect 3 0 9 0;
#X restore 650 152 pd onlyGreaterThan0;
#N canvas 0 23 450 300 onlyGreaterThan0 0;
#X obj 37 37 inlet;
#X obj 37 62 t f f;
#X obj 64 86 > 0;
#X obj 37 128 *;
#X text 91 20 I wanted to make sure we don't get any velocities below
0 when changing the array;
#X text 95 83 First I check if my value is greater than 0;
#X text 95 97 If so I get 1 \, if not 0;
#X text 63 128 X * 1 == X;
#X text 63 144 X * 0 == 0;
#X obj 37 161 outlet;
#X connect 0 0 1 0;
#X connect 1 0 3 0;
#X connect 1 1 2 0;
#X connect 2 0 3 1;
#X connect 3 0 9 0;
#X restore 774 152 pd onlyGreaterThan0;
#X obj 650 129 tabread \$0-hhc;
#X obj 774 129 tabread \$0-hho;
#X msg 403 175 36 \$1;
#X msg 527 175 38 \$1;
#X msg 650 175 42 \$1;
#X msg 774 175 46 \$1;
#X obj 515 267 outlet;
#X obj 531 37 inlet;
#X obj 641 37 inlet;
#X obj 764 37 inlet;
#X obj 869 37 inlet;
#X obj 531 62 tabwrite \$0-kick;
#X obj 641 62 tabwrite \$0-snare;
#X obj 764 62 tabwrite \$0-hhc;
#X obj 869 62 tabwrite \$0-hho;
#X obj 80 166 hradio 16 1 0 16 empty \$0-currentBeat empty 0 -8 0 10
-1 -258113 -1 3;
#X obj 80 195 cnv 16 16 30 empty empty empty 20 12 0 14 -261682 -66577
0;
#X obj 81 242 cnv 16 16 30 empty empty empty 20 12 0 14 -261682 -66577
0;
#X obj 81 289 cnv 16 16 30 empty empty empty 20 12 0 14 -261682 -66577
0;
#X obj 81 336 cnv 16 16 30 empty empty empty 20 12 0 14 -261682 -66577
0;
#X obj 145 242 cnv 16 16 30 empty empty empty 20 12 0 14 -261682 -66577
0;
#X obj 145 289 cnv 16 16 30 empty empty empty 20 12 0 14 -261682 -66577
0;
#X obj 145 336 cnv 16 16 30 empty empty empty 20 12 0 14 -261682 -66577
0;
#X obj 212 242 cnv 16 16 30 empty empty empty 20 12 0 14 -261682 -66577
0;
#X obj 212 289 cnv 16 16 30 empty empty empty 20 12 0 14 -261682 -66577
0;
#X obj 212 336 cnv 16 16 30 empty empty empty 20 12 0 14 -261682 -66577
0;
#X obj 275 242 cnv 16 16 30 empty empty empty 20 12 0 14 -261682 -66577
0;
#X obj 275 289 cnv 16 16 30 empty empty empty 20 12 0 14 -261682 -66577
0;
#X obj 275 336 cnv 16 16 30 empty empty empty 20 12 0 14 -261682 -66577
0;
#X obj 144 195 cnv 16 16 30 empty empty empty 20 12 0 14 -261682 -66577
0;
#X obj 211 195 cnv 16 16 30 empty empty empty 20 12 0 14 -261682 -66577
0;
#X obj 274 195 cnv 16 16 30 empty empty empty 20 12 0 14 -261682 -66577
0;
#N canvas 0 23 450 278 (subpatch) 0;
#X array \$0-kick 16 float 3;
#A 0 101.6 -8.46672 -8.46672 -8.46672 -8.46672 -8.46672 -8.46672 71.9667
-12.7001 -12.7001 -8.4667 38.1 84.6667 -12.7001 59.2667 -12.7001;
#X coords 0 127 16 0 260 30 1 0 0;
#X restore 80 195 graph;
#N canvas 0 22 450 278 (subpatch) 0;
#X array \$0-snare 16 float 3;
#A 0 0 0 21.1667 -8.46632 93.1327 -4.23322 25.4001 -12.6997 -12.6997
-12.6997 76.1995 -21.1653 -12.6997 42.3334 -8.46638 -12.6991;
#X coords 0 127 16 0 260 30 1 0 0;
#X restore 80 242 graph;
#N canvas 0 22 450 278 (subpatch) 0;
#X array \$0-hhc 16 float 3;
#A 0 88.9 -12.7005 59.2673 -12.7005 84.6667 -8.46712 46.5667 -8.467
88.8999 -4.23373 59.2667 29.6333 84.6667 50.7999 50.7999 -8.467;
#X coords 0 127 16 0 260 30 1 0 0;
#X restore 80 289 graph;
#N canvas 0 22 450 278 (subpatch) 0;
#X array \$0-hho 16 float 3;
#A 0 -12.7011 -12.7011 -12.7011 -12.7011 -12.7011 -21.1679 -21.1679
-21.1679 -21.1679 -21.1679 -21.1679 -21.1679 -16.9345 -12.7011 -12.7011
88.9005;
#X coords 0 127 16 0 260 30 1 0 0;
#X restore 80 336 graph;
#N canvas 0 23 545 300 4the 0;
#X text 93 220 We can resize our array like this;
#X floatatom 249 114 5 4 32 0 steps #0-steps_rec #0-steps_snd;
#X msg 273 79 set 16;
#X obj 349 112 s \$0-steps_rec;
#X obj 234 148 r \$0-steps_snd;
#X obj 364 42 inlet;
#X obj 364 64 int;
#X text 336 26 number of steps;
#X obj 273 51 loadbang;
#X obj 20 201 array size \$0-kick;
#X obj 134 201 array size \$0-snare;
#X obj 257 201 array size \$0-hhc;
#X obj 366 201 array size \$0-hho;
#X connect 2 0 3 0;
#X connect 4 0 9 0;
#X connect 4 0 10 0;
#X connect 4 0 11 0;
#X connect 4 0 12 0;
#X connect 5 0 6 0;
#X connect 6 0 3 0;
#X connect 8 0 2 0;
#X restore 861 271 pd 4the future;
#X connect 0 0 2 0;
#X connect 2 0 1 0;
#X connect 2 1 4 0;
#X connect 2 1 6 0;
#X connect 2 1 9 0;
#X connect 2 1 10 0;
#X connect 3 0 11 0;
#X connect 4 0 3 0;
#X connect 5 0 12 0;
#X connect 6 0 5 0;
#X connect 7 0 13 0;
#X connect 8 0 14 0;
#X connect 9 0 7 0;
#X connect 10 0 8 0;
#X connect 11 0 15 0;
#X connect 12 0 15 0;
#X connect 13 0 15 0;
#X connect 14 0 15 0;
#X connect 16 0 20 0;
#X connect 17 0 21 0;
#X connect 18 0 22 0;
#X connect 19 0 23 0;
#X coords 0 -1 1 1 270 230 1 75 140;
