#N canvas 12 22 1268 752 10;
#X obj 105 25 inlet;
#X obj 311 389 +~ 1;
#X obj 311 416 wrap~;
#X obj 313 524 *~, f 10;
#X obj 311 333 +~ 1;
#X obj 311 228 f;
#X msg 311 252 0 \, 1 \$1;
#X obj 313 548 +~ 1;
#X obj 311 276 line~;
#X obj 311 310 *~ 9998;
#N canvas 0 23 1440 855 phaseRamp~ 0;
#X obj 41 49 inlet~;
#X obj 47 446 cos~;
#X obj 47 317 clip~ 0 1;
#X obj 542 472 cos~;
#X obj 542 378 clip~ 0 1;
#X obj 542 410 *~ 0.25;
#X obj 542 441 +~ 0.25;
#X obj 47 376 *~ 0.25;
#X obj 47 415 -~ 0.25;
#X obj 556 298 - 1;
#X obj 542 319 -~;
#X obj 47 173 *~;
#X text 45 26 phase (0--> 1);
#X obj 214 47 inlet;
#X text 204 26 phase period;
#X obj 310 47 inlet;
#X text 295 26 envelope length;
#X obj 214 116 / 1, f 21;
#X obj 310 87 t b f;
#X text 231 136 nSegments;
#X text 347 115 1 - This calculation gives us the number of times the
length of our envelope fits into the phase loop. We use this to divide
the phase ramp into n segments;
#X obj 321 555 outlet~;
#X text 372 553 Envelope out;
#X text 51 254 ramp up;
#X text 106 299 we only want to take the first segment of the ramp
(now 0--> nSegments) for out ramp up (i.e. attack);
#X text 105 329 When clip~ receives signals above 1 it outputs 1;
#X text 540 266 ramp down;
#X text 582 289 we only want to take the last segment of the ramp (now
0--> nSegments) for out ramp down (i.e. release);
#X text 580 319 This looks complicated but essentially we are just
shifting our ramp from a range of 0-->nSegments;
#X text 579 340 to a new range of -1*(nSegments-1) --> 1;
#X floatatom 985 307 5 0 10 0 - - -;
#X obj 1039 363 - 1;
#X obj 985 363 -;
#X floatatom 985 384 5 0 0 0 - - -;
#X msg 1038 332 10;
#X obj 985 327 t f b;
#X text 945 328 ---->;
#X text 951 339 e.g.;
#X text 1018 306 this goes from 0 --> 10;
#X text 1022 384 this goes from -9 --> 1;
#X text 608 376 When clip~ receives signals below 0 it outputs 0;
#X text 598 408 We only want to read through 1/4 of the total phase
of a cosine.;
#X text 95 403 For our attack we want the final 1/4 when the wave goes
from 0->1;
#X text 96 367 We only want to read through 1/4 of the total phase
of a cosine.;
#X text 598 443 For our decay we want the second 1/4 when the wave
goes from 0->-1;
#X text 81 447 The signal here goes from minimum 0 to maximum 1;
#X text 574 474 The signal here goes from maximum 0 to minimum -1;
#X text 468 517 ramp up only changes during the first segment (when
ramp down is at 0) ==> the sum of both is ramp up (going 0-->1) + ramp
down (static 0). Anything + 0 is 0 ==> the output is the ramp up;
#X text 467 571 ramp down only changes during the final segment (when
ramp up is at 1) ==> the sum of both is ramp down (going 0--> -1) +
ramp up (static 1). there fore the output is goes from 1 --> 0 as ramp
down goes 0--> -1;
#X text 1017 724 sjf \, SAE London \, 2020;
#X text 831 24 This is a clever idea I stole from the grooveduck example
in MaxMSP (which is by jhno I think...);
#X text 831 48 It takes a phase ramp in (e.g. the full phase for reading
a file from tabread~ \, and outputs a sine wave based amplitude ramp
at the beginning and end;
#X text 831 85 phase period and envelope lenth can be in samples or
ms or s or hrs... as long as they are both given in the same unit;
#X text 72 171 2 - by multiplying the ramp (0-->1) by nSegments \,
we get a new ramp that goes 0 --> nSegments;
#X connect 0 0 11 0;
#X connect 1 0 21 0;
#X connect 2 0 7 0;
#X connect 3 0 21 0;
#X connect 4 0 5 0;
#X connect 5 0 6 0;
#X connect 6 0 3 0;
#X connect 7 0 8 0;
#X connect 8 0 1 0;
#X connect 9 0 10 1;
#X connect 10 0 4 0;
#X connect 11 0 2 0;
#X connect 11 0 10 0;
#X connect 13 0 17 0;
#X connect 15 0 18 0;
#X connect 17 0 9 0;
#X connect 17 0 11 1;
#X connect 18 0 17 0;
#X connect 18 1 17 1;
#X connect 30 0 35 0;
#X connect 31 0 32 1;
#X connect 32 0 33 0;
#X connect 34 0 31 0;
#X connect 35 0 32 0;
#X connect 35 1 34 0;
#X restore 166 446 pd phaseRamp~;
#X obj 305 600 *~;
#X obj 166 423 wrap~;
#X obj 166 397 *~ 1;
#N canvas 674 180 450 300 phaseLenCalc 0;
#X obj 133 152 * 1;
#X obj 133 126 t b f;
#X floatatom 133 173 5 0 0 0 - - -;
#X obj 133 103 pow -1;
#X obj 133 193 outlet;
#X obj 133 80 r \$0-reps;
#X obj 49 121 / 44.1;
#X obj 49 24 r \$1-oneshotSamp_len;
#X obj 62 67 * 0.001;
#X obj 62 88 t b f;
#X obj 62 46 r \$1-sampRate;
#X connect 0 0 2 0;
#X connect 1 0 0 0;
#X connect 1 1 0 1;
#X connect 2 0 4 0;
#X connect 3 0 1 0;
#X connect 5 0 3 0;
#X connect 6 0 0 0;
#X connect 7 0 6 0;
#X connect 8 0 9 0;
#X connect 9 0 6 0;
#X connect 9 1 6 1;
#X connect 10 0 8 0;
#X restore 214 392 pd phaseLenCalc;
#X obj 105 86 t b b b, f 78;
#X obj 134 265 / 44.1;
#X obj 134 286 + 5;
#X obj 105 309 delay;
#X obj 105 330 s \$0-switch;
#X obj 677 217 r \$0-switch;
#X msg 633 239 1;
#X msg 677 238 0;
#X obj 313 572 tabread4~ \$1-sample;
#X obj 134 168 r \$1-oneshotSamp_len;
#X obj 105 46 t b f, f 137;
#X obj 311 365 tabread4~ \$0-playRamp;
#X obj 221 366 r \$0-reps;
#X obj 230 415 r \$0-rampLen;
#N canvas 0 23 1213 574 ramps 0;
#N canvas 0 23 450 278 (subpatch) 0;
#X array \$0-playRamp 10000 float 2;
#X coords 0 1 10000 0 100 100 1 0 0;
#X restore 993 198 graph;
#X obj 96 269 bng 15 250 50 0 empty \$0-forth forth 17 7 0 10 -262144
-1 -1;
#N canvas 584 79 766 721 forwards 0;
#X obj 37 37 inlet;
#X obj 37 115 until;
#X msg 37 139 1;
#X obj 37 163 + -1;
#X obj 37 187 int;
#X msg 98 116 -1;
#X obj 37 211 t f f, f 20;
#X obj 37 337 tabwrite \$0-playRamp;
#X msg 37 67 10000;
#X obj 37 237 /, f 15;
#X obj 37 91 t f b f b, f 22;
#N canvas 543 182 517 445 pitchShiftLogic 0;
#X obj 37 37 inlet;
#X obj 238 195 - 12;
#X obj 238 216 expr pow(2 \, $f1/12);
#X floatatom 238 237 5 0 0 0 - - -;
#X obj 237 145 random 2400;
#X obj 237 166 / 100;
#X obj 37 258 * 1, f 34;
#X obj 321 169 t f f;
#X obj 321 190 * 200;
#X obj 37 279 max 0;
#X obj 37 300 min 1;
#X obj 320 129 / 127;
#X obj 320 150 * 12;
#X obj 237 67 inlet;
#X obj 37 386 outlet;
#X obj 330 104 r \$1-pitchShiftMax_snd;
#X connect 0 0 6 0;
#X connect 1 0 2 0;
#X connect 2 0 3 0;
#X connect 3 0 6 1;
#X connect 4 0 5 0;
#X connect 5 0 1 0;
#X connect 6 0 9 0;
#X connect 7 0 8 0;
#X connect 7 1 1 1;
#X connect 8 0 4 1;
#X connect 9 0 10 0;
#X connect 10 0 14 0;
#X connect 11 0 12 0;
#X connect 12 0 7 0;
#X connect 13 0 4 0;
#X connect 15 0 11 0;
#X restore 37 258 pd pitchShiftLogic;
#X f 22;
#X obj 234 172 s \$0-reps;
#X msg 234 151 1;
#X connect 0 0 8 0;
#X connect 1 0 2 0;
#X connect 2 0 3 0;
#X connect 3 0 4 0;
#X connect 4 0 3 1;
#X connect 4 0 6 0;
#X connect 5 0 3 1;
#X connect 6 0 9 0;
#X connect 6 1 7 1;
#X connect 8 0 10 0;
#X connect 9 0 11 0;
#X connect 10 0 1 0;
#X connect 10 1 5 0;
#X connect 10 2 9 1;
#X connect 10 3 11 1;
#X connect 10 3 13 0;
#X connect 11 0 7 0;
#X connect 13 0 12 0;
#X restore 96 289 pd forwards;
#X obj 187 272 bng 15 250 50 0 empty \$0-back back 17 7 0 10 -262144
-1 -1;
#N canvas 479 53 469 371 back 0;
#X obj 37 37 inlet;
#X obj 37 113 until;
#X msg 37 137 1;
#X obj 37 161 + -1;
#X obj 37 185 int;
#X msg 98 114 -1;
#X obj 37 209 t f f, f 20;
#X obj 37 309 tabwrite \$0-playRamp;
#X msg 37 65 10000;
#X obj 37 235 /, f 15;
#X obj 37 259 expr 1 - $f1;
#N canvas 0 23 517 445 pitchShiftLogic 0;
#X obj 37 37 inlet;
#X obj 238 195 - 12;
#X obj 238 216 expr pow(2 \, $f1/12);
#X floatatom 238 237 5 0 0 0 - - -;
#X obj 237 145 random 2400;
#X obj 237 166 / 100;
#X obj 37 258 * 1, f 34;
#X obj 321 169 t f f;
#X obj 321 190 * 200;
#X obj 37 279 max 0;
#X obj 37 300 min 1;
#X obj 320 129 / 127;
#X obj 320 150 * 12;
#X obj 237 67 inlet;
#X obj 37 321 outlet;
#X obj 330 104 r \$1-pitchShiftMax_snd;
#X connect 0 0 6 0;
#X connect 1 0 2 0;
#X connect 2 0 3 0;
#X connect 3 0 6 1;
#X connect 4 0 5 0;
#X connect 5 0 1 0;
#X connect 6 0 9 0;
#X connect 7 0 8 0;
#X connect 7 1 1 1;
#X connect 8 0 4 1;
#X connect 9 0 10 0;
#X connect 10 0 14 0;
#X connect 11 0 12 0;
#X connect 12 0 7 0;
#X connect 13 0 4 0;
#X connect 15 0 11 0;
#X restore 37 287 pd pitchShiftLogic;
#X f 22;
#X obj 37 89 t f b f b, f 22;
#X obj 234 172 s \$0-reps;
#X msg 234 151 1;
#X connect 0 0 8 0;
#X connect 1 0 2 0;
#X connect 2 0 3 0;
#X connect 3 0 4 0;
#X connect 4 0 3 1;
#X connect 4 0 6 0;
#X connect 5 0 3 1;
#X connect 6 0 9 0;
#X connect 6 1 7 1;
#X connect 8 0 12 0;
#X connect 9 0 10 0;
#X connect 10 0 11 0;
#X connect 11 0 7 0;
#X connect 12 0 1 0;
#X connect 12 1 5 0;
#X connect 12 2 9 1;
#X connect 12 3 11 1;
#X connect 12 3 14 0;
#X connect 14 0 13 0;
#X restore 187 292 pd back;
#X obj 255 272 bng 15 250 50 0 empty \$0-forthBack forth&back 17 7
0 10 -262144 -1 -1;
#N canvas 824 164 616 497 forth&back 0;
#X obj 37 37 inlet;
#X obj 37 113 until;
#X msg 37 137 1;
#X obj 37 161 + -1;
#X obj 37 185 int;
#X msg 98 114 -1;
#X obj 37 209 t f f, f 20;
#X obj 37 376 tabwrite \$0-playRamp;
#X msg 37 65 10000;
#X obj 37 235 /, f 15;
#X obj 34 307 expr if($f1<0.5 \, $f1 \, 1-$f1);
#N canvas 0 23 517 445 pitchShiftLogic 0;
#X obj 37 37 inlet;
#X obj 238 195 - 12;
#X obj 238 216 expr pow(2 \, $f1/12);
#X floatatom 238 237 5 0 0 0 - - -;
#X obj 237 145 random 2400;
#X obj 237 166 / 100;
#X obj 37 258 * 1, f 34;
#X obj 321 169 t f f;
#X obj 321 190 * 200;
#X obj 37 279 max 0;
#X obj 37 300 min 1;
#X obj 320 129 / 127;
#X obj 320 150 * 12;
#X obj 330 104 r \$0-pitchShiftMax_snd;
#X obj 237 67 inlet;
#X obj 37 321 outlet;
#X connect 0 0 6 0;
#X connect 1 0 2 0;
#X connect 2 0 3 0;
#X connect 3 0 6 1;
#X connect 4 0 5 0;
#X connect 5 0 1 0;
#X connect 6 0 9 0;
#X connect 7 0 8 0;
#X connect 7 1 1 1;
#X connect 8 0 4 1;
#X connect 9 0 10 0;
#X connect 10 0 15 0;
#X connect 11 0 12 0;
#X connect 12 0 7 0;
#X connect 13 0 11 0;
#X connect 14 0 4 0;
#X restore 38 337 pd pitchShiftLogic;
#X f 38;
#X obj 37 89 t f b f b, f 22;
#X msg 234 151 2;
#X obj 234 172 s \$0-reps;
#X connect 0 0 8 0;
#X connect 1 0 2 0;
#X connect 2 0 3 0;
#X connect 3 0 4 0;
#X connect 4 0 3 1;
#X connect 4 0 6 0;
#X connect 5 0 3 1;
#X connect 6 0 9 0;
#X connect 6 1 7 1;
#X connect 8 0 12 0;
#X connect 9 0 10 0;
#X connect 10 0 11 0;
#X connect 11 0 7 0;
#X connect 12 0 1 0;
#X connect 12 1 5 0;
#X connect 12 2 9 1;
#X connect 12 3 11 1;
#X connect 12 3 13 0;
#X connect 13 0 14 0;
#X restore 255 292 pd forth&back;
#X obj 367 264 bng 15 250 50 0 empty \$0-backForth back&forth 17 7
0 10 -262144 -1 -1;
#N canvas 479 53 469 371 back&forth 0;
#X obj 37 37 inlet;
#X obj 37 113 until;
#X msg 37 137 1;
#X obj 37 161 + -1;
#X obj 37 185 int;
#X msg 98 114 -1;
#X obj 37 209 t f f, f 20;
#X obj 37 337 tabwrite \$0-playRamp;
#X msg 37 65 10000;
#X obj 37 235 /, f 15;
#X obj 37 259 expr 1 - $f1;
#X obj 37 287 expr if($f1>0.5 \, $f1-0.5 \, 0.5-$f1);
#N canvas 0 23 517 445 pitchShiftLogic 0;
#X obj 37 37 inlet;
#X obj 238 195 - 12;
#X obj 238 216 expr pow(2 \, $f1/12);
#X floatatom 238 237 5 0 0 0 - - -;
#X obj 237 145 random 2400;
#X obj 237 166 / 100;
#X obj 37 258 * 1, f 34;
#X obj 321 169 t f f;
#X obj 321 190 * 200;
#X obj 37 279 max 0;
#X obj 37 300 min 1;
#X obj 320 129 / 127;
#X obj 320 150 * 12;
#X obj 237 67 inlet;
#X obj 37 321 outlet;
#X obj 328 104 r \$1-pitchShiftMax_snd;
#X connect 0 0 6 0;
#X connect 1 0 2 0;
#X connect 2 0 3 0;
#X connect 3 0 6 1;
#X connect 4 0 5 0;
#X connect 5 0 1 0;
#X connect 6 0 9 0;
#X connect 7 0 8 0;
#X connect 7 1 1 1;
#X connect 8 0 4 1;
#X connect 9 0 10 0;
#X connect 10 0 14 0;
#X connect 11 0 12 0;
#X connect 12 0 7 0;
#X connect 13 0 4 0;
#X connect 15 0 11 0;
#X restore 38 316 pd pitchShiftLogic;
#X f 22;
#X obj 37 89 t f b f b, f 27;
#X msg 234 151 2;
#X obj 234 172 s \$0-reps;
#X connect 0 0 8 0;
#X connect 1 0 2 0;
#X connect 2 0 3 0;
#X connect 3 0 4 0;
#X connect 4 0 3 1;
#X connect 4 0 6 0;
#X connect 5 0 3 1;
#X connect 6 0 9 0;
#X connect 6 1 7 1;
#X connect 8 0 13 0;
#X connect 9 0 10 0;
#X connect 10 0 11 0;
#X connect 11 0 12 0;
#X connect 12 0 7 0;
#X connect 13 0 1 0;
#X connect 13 1 5 0;
#X connect 13 2 9 1;
#X connect 13 3 12 1;
#X connect 13 3 14 0;
#X connect 14 0 15 0;
#X restore 367 284 pd back&forth;
#X obj 559 261 bng 15 250 50 0 empty \$0-randReps randRepetitions 17
7 0 10 -262144 -1 -1;
#N canvas 785 125 523 579 forwardsXtimes 0;
#X obj 37 113 until;
#X msg 37 137 1;
#X obj 37 161 + -1;
#X obj 37 185 int;
#X msg 98 114 -1;
#X obj 37 209 t f f, f 20;
#X obj 37 391 tabwrite \$0-playRamp;
#X msg 37 65 10000;
#X obj 37 235 /, f 15;
#X obj 37 276 *, f 33;
#X obj 37 11 inlet;
#X obj 37 35 t b f, f 41;
#X obj 37 298 wrap;
#X obj 37 340 /, f 41;
#N canvas 0 23 517 445 pitchShiftLogic 0;
#X obj 37 37 inlet;
#X obj 238 195 - 12;
#X obj 238 216 expr pow(2 \, $f1/12);
#X floatatom 238 237 5 0 0 0 - - -;
#X obj 237 145 random 2400;
#X obj 237 166 / 100;
#X obj 37 258 * 1, f 34;
#X obj 321 169 t f f;
#X obj 321 190 * 200;
#X obj 37 279 max 0;
#X obj 37 300 min 1;
#X obj 320 129 / 127;
#X obj 320 150 * 12;
#X obj 237 67 inlet;
#X obj 37 321 outlet;
#X obj 330 104 r \$1-pitchShiftMax_snd;
#X connect 0 0 6 0;
#X connect 1 0 2 0;
#X connect 2 0 3 0;
#X connect 3 0 6 1;
#X connect 4 0 5 0;
#X connect 5 0 1 0;
#X connect 6 0 9 0;
#X connect 7 0 8 0;
#X connect 7 1 1 1;
#X connect 8 0 4 1;
#X connect 9 0 10 0;
#X connect 10 0 14 0;
#X connect 11 0 12 0;
#X connect 12 0 7 0;
#X connect 13 0 4 0;
#X connect 15 0 11 0;
#X restore 37 363 pd pitchShiftLogic;
#X f 22;
#X obj 37 89 t f b f b, f 22;
#X connect 0 0 1 0;
#X connect 1 0 2 0;
#X connect 2 0 3 0;
#X connect 3 0 2 1;
#X connect 3 0 5 0;
#X connect 4 0 2 1;
#X connect 5 0 8 0;
#X connect 5 1 6 1;
#X connect 7 0 15 0;
#X connect 8 0 9 0;
#X connect 9 0 12 0;
#X connect 10 0 11 0;
#X connect 11 0 7 0;
#X connect 11 1 9 1;
#X connect 11 1 13 1;
#X connect 12 0 13 0;
#X connect 13 0 14 0;
#X connect 14 0 6 0;
#X connect 15 0 0 0;
#X connect 15 1 4 0;
#X connect 15 2 8 1;
#X connect 15 3 14 1;
#X restore 560 402 pd forwardsXtimes;
#X obj 560 302 hradio 8 1 0 8 empty empty empty 0 -8 0 10 -262144 -1
-1 2;
#X obj 560 322 + 2;
#X obj 560 283 random 8;
#X obj 620 372 s \$0-reps;
#X obj 560 343 t f f;
#X connect 1 0 2 0;
#X connect 3 0 4 0;
#X connect 5 0 6 0;
#X connect 7 0 8 0;
#X connect 9 0 13 0;
#X connect 11 0 12 0;
#X connect 12 0 15 0;
#X connect 13 0 11 0;
#X connect 15 0 10 0;
#X connect 15 1 14 0;
#X restore 975 229 pd ramps;
#X obj 902 126 sel 0 1 2 3 4, f 53;
#X obj 823 172 s \$0-forth;
#X obj 895 172 s \$0-back;
#X obj 973 172 s \$0-forthBack;
#X obj 1067 172 s \$0-backForth;
#X obj 1178 172 s \$0-randReps;
#X obj 651 289 switch~ 0;
#X obj 147 211 * 0.001;
#X obj 147 232 t b f;
#X obj 305 711 outlet~;
#X obj 792 91 t f f;
#X obj 147 190 r \$1-sampRate;
#N canvas 0 22 450 300 ramplLen_ms 0;
#X obj 307 55 inlet;
#X obj 152 163 / 44.1;
#X obj 152 66 r \$1-oneshotSamp_len;
#X obj 165 109 * 0.001;
#X obj 165 130 t b f;
#X obj 165 88 r \$1-sampRate;
#X obj 247 118 > 0;
#X obj 148 199 f;
#X obj 318 165 r \$1-ioi;
#X obj 321 197 f;
#X obj 247 139 sel 0 1;
#X obj 239 266 outlet;
#X connect 0 0 6 0;
#X connect 1 0 7 1;
#X connect 2 0 1 0;
#X connect 3 0 4 0;
#X connect 4 0 1 0;
#X connect 4 1 1 1;
#X connect 5 0 3 0;
#X connect 6 0 10 0;
#X connect 7 0 11 0;
#X connect 8 0 9 1;
#X connect 9 0 11 0;
#X connect 10 0 7 0;
#X connect 10 1 9 0;
#X restore 332 188 pd ramplLen_ms;
#N canvas 0 22 651 352 sampLen_samps 0;
#X obj 297 52 inlet;
#X obj 108 99 r \$1-oneshotSamp_len;
#X obj 278 131 > 0;
#X obj 179 212 f;
#X obj 352 210 f;
#X obj 278 152 sel 0 1;
#X obj 389 88 r \$1-ioi;
#X obj 469 91 * 0.001;
#X obj 469 112 t b f;
#X obj 469 70 r \$1-sampRate;
#X obj 420 152 * 44.1;
#X obj 250 301 outlet;
#X obj 247 274 - 2;
#X connect 0 0 2 0;
#X connect 1 0 3 1;
#X connect 2 0 5 0;
#X connect 3 0 12 0;
#X connect 4 0 12 0;
#X connect 5 0 3 0;
#X connect 5 1 4 0;
#X connect 6 0 10 0;
#X connect 7 0 8 0;
#X connect 8 0 10 0;
#X connect 8 1 10 1;
#X connect 9 0 7 0;
#X connect 10 0 4 1;
#X connect 12 0 11 0;
#X restore 461 485 pd sampLen_samps;
#X floatatom 400 229 5 0 0 0 - - -;
#X connect 0 0 25 0;
#X connect 1 0 2 0;
#X connect 2 0 3 0;
#X connect 3 0 7 0;
#X connect 4 0 26 0;
#X connect 5 0 6 0;
#X connect 6 0 8 0;
#X connect 7 0 23 0;
#X connect 8 0 9 0;
#X connect 8 0 13 0;
#X connect 9 0 4 0;
#X connect 10 0 11 0;
#X connect 11 0 39 0;
#X connect 12 0 10 0;
#X connect 13 0 12 0;
#X connect 14 0 10 1;
#X connect 15 0 18 0;
#X connect 15 1 5 0;
#X connect 15 2 21 0;
#X connect 16 0 17 0;
#X connect 17 0 18 1;
#X connect 18 0 19 0;
#X connect 20 0 22 0;
#X connect 21 0 36 0;
#X connect 22 0 36 0;
#X connect 23 0 11 1;
#X connect 24 0 16 0;
#X connect 25 0 15 0;
#X connect 25 1 40 0;
#X connect 26 0 1 0;
#X connect 27 0 13 1;
#X connect 28 0 10 2;
#X connect 30 0 31 0;
#X connect 30 1 32 0;
#X connect 30 2 33 0;
#X connect 30 3 34 0;
#X connect 30 4 35 0;
#X connect 37 0 38 0;
#X connect 38 0 16 0;
#X connect 38 1 16 1;
#X connect 40 0 42 0;
#X connect 40 0 43 0;
#X connect 40 1 30 0;
#X connect 41 0 37 0;
#X connect 42 0 5 1;
#X connect 42 0 44 0;
#X connect 43 0 3 1;
