#N canvas 474 109 243 526 10;
#X obj 105 300 list fromsymbol;
#X obj 72 215 list split 1;
#X obj 72 158 until;
#X obj 72 186 list append;
#X obj 188 403 t l;
#X obj 105 403 list prepend;
#X obj 39 430 list append;
#X obj 39 403 spigot;
#X obj 72 372 f 1;
#X obj 105 372 t f b;
#X obj 12 403 f 0;
#X obj 39 454 route bang;
#X obj 96 522 list prepend;
#X obj 96 477 list tosymbol;
#X obj 72 346 sel 32;
#X obj 105 246 loadbang;
#X obj 33 103 list fromsymbol;
#X obj 33 78 symbol;
#X obj 33 52 inlet;
#X obj 33 545 list append;
#X obj 172 215 bang;
#X obj 33 125 t b b l b;
#X obj 178 522 t a;
#X obj 33 572 outlet;
#X obj 173 78 symbol;
#X obj 173 52 inlet;
#X obj 96 499 s2f;
#X obj 105 273 symbol \$1;
#X obj 105 323 list trim;
#X connect 0 0 28 0;
#X connect 1 0 14 0;
#X connect 1 1 3 1;
#X connect 1 2 20 0;
#X connect 2 0 3 0;
#X connect 3 0 1 0;
#X connect 4 0 5 1;
#X connect 5 0 4 0;
#X connect 5 0 6 1;
#X connect 6 0 11 0;
#X connect 7 0 6 0;
#X connect 7 0 5 1;
#X connect 7 0 10 0;
#X connect 8 0 7 1;
#X connect 9 0 5 0;
#X connect 9 1 7 0;
#X connect 10 0 7 1;
#X connect 11 1 13 0;
#X connect 12 0 19 1;
#X connect 12 0 22 0;
#X connect 13 0 26 0;
#X connect 14 0 8 0;
#X connect 14 1 9 0;
#X connect 15 0 27 0;
#X connect 16 0 21 0;
#X connect 17 0 16 0;
#X connect 18 0 17 0;
#X connect 19 0 23 0;
#X connect 20 0 6 0;
#X connect 20 0 2 1;
#X connect 21 0 19 0;
#X connect 21 1 2 0;
#X connect 21 2 3 1;
#X connect 21 3 5 1;
#X connect 21 3 12 1;
#X connect 21 3 6 1;
#X connect 21 3 19 1;
#X connect 22 0 12 1;
#X connect 24 0 0 0;
#X connect 25 0 24 0;
#X connect 26 0 12 0;
#X connect 27 0 0 0;
#X connect 28 0 14 1;
