#N canvas 0 23 1440 855 10;
#N canvas 0 23 1069 406 OUTPUT 0;
#N canvas 329 161 625 417 vu 0;
#X obj 59 129 env~ 1024;
#X obj 161 111 abs~;
#X obj 161 213 snapshot~;
#X obj 161 256 rmstodb;
#X obj 161 21 inlet~;
#X obj 161 288 - 100;
#X obj 59 287 - 100;
#X obj 59 361 outlet;
#X obj 161 361 outlet;
#X text 344 307 Check the help file of env~ and slop~ for more details.
, f 31;
#X obj 239 89 expr 1000 / $f1;
#X floatatom 239 117 5 0 0 0 - - -;
#X obj 161 146 slop~ 0 0 0 0 1e+09;
#X obj 239 18 inlet;
#X floatatom 239 57 5 0 0 0 - - -;
#X text 359 89 convert to hz;
#X text 282 118 hz;
#X text 284 57 peak decay time in ms;
#X obj 59 171 t f b;
#X text 345 132 The env~ object is dedicated to RMS analysis. Its output
is in dB (0-100 range \, pd style) but needs to be converted to dBFS
(and we do that by simply subtracting 100)., f 31;
#X text 345 225 The slop~ object is used here for peak detection. We
need to convert the output to dB with rmstodb and also subtract by
100 to convert it to dBFS., f 31;
#X connect 0 0 18 0;
#X connect 1 0 12 0;
#X connect 2 0 3 0;
#X connect 3 0 5 0;
#X connect 4 0 0 0;
#X connect 4 0 1 0;
#X connect 5 0 8 0;
#X connect 6 0 7 0;
#X connect 10 0 11 0;
#X connect 11 0 12 3;
#X connect 12 0 2 0;
#X connect 13 0 14 0;
#X connect 14 0 10 0;
#X connect 18 0 6 0;
#X connect 18 1 2 0;
#X restore 126 83 pd vu;
#N canvas 329 161 625 417 vu 0;
#X obj 59 129 env~ 1024;
#X obj 161 111 abs~;
#X obj 161 213 snapshot~;
#X obj 161 256 rmstodb;
#X obj 161 21 inlet~;
#X obj 161 288 - 100;
#X obj 59 287 - 100;
#X obj 59 361 outlet;
#X obj 161 361 outlet;
#X text 344 307 Check the help file of env~ and slop~ for more details.
, f 31;
#X obj 239 89 expr 1000 / $f1;
#X floatatom 239 117 5 0 0 0 - - -;
#X obj 161 146 slop~ 0 0 0 0 1e+09;
#X obj 239 18 inlet;
#X floatatom 239 57 5 0 0 0 - - -;
#X text 359 89 convert to hz;
#X text 282 118 hz;
#X text 284 57 peak decay time in ms;
#X obj 59 171 t f b;
#X text 345 132 The env~ object is dedicated to RMS analysis. Its output
is in dB (0-100 range \, pd style) but needs to be converted to dBFS
(and we do that by simply subtracting 100)., f 31;
#X text 345 225 The slop~ object is used here for peak detection. We
need to convert the output to dB with rmstodb and also subtract by
100 to convert it to dBFS., f 31;
#X connect 0 0 18 0;
#X connect 1 0 12 0;
#X connect 2 0 3 0;
#X connect 3 0 5 0;
#X connect 4 0 0 0;
#X connect 4 0 1 0;
#X connect 5 0 8 0;
#X connect 6 0 7 0;
#X connect 10 0 11 0;
#X connect 11 0 12 3;
#X connect 12 0 2 0;
#X connect 13 0 14 0;
#X connect 14 0 10 0;
#X connect 18 0 6 0;
#X connect 18 1 2 0;
#X restore 202 82 pd vu;
#X obj 371 97 catch~ \$0-outL;
#X obj 466 96 catch~ \$0-outR;
#X obj 105 117 vsl 15 80 0 127 0 1 \$0-vol_snd empty vol 0 -9 0 10
-262144 -1 -1 7900 1;
#N canvas 0 23 450 300 volLogic 0;
#X obj 37 37 inlet~;
#X obj 40 136 *~, f 29;
#X obj 264 45 / 127;
#X obj 264 69 pack 0 10;
#X obj 264 94 line~;
#X obj 264 19 r \$0-vol_snd;
#X obj 40 157 outlet~;
#X obj 137 41 inlet~;
#X obj 137 163 *~, f 29;
#X obj 137 184 outlet~;
#X connect 0 0 1 0;
#X connect 1 0 6 0;
#X connect 2 0 3 0;
#X connect 3 0 4 0;
#X connect 4 0 1 1;
#X connect 4 0 8 1;
#X connect 5 0 2 0;
#X connect 7 0 8 0;
#X connect 8 0 9 0;
#X restore 413 143 pd volLogic;
#X obj 433 359 dac~, f 6;
#X msg 171 45 500;
#X obj 171 18 loadbang;
#X obj 127 118 vu 15 80 empty empty -1 -8 0 10 -66577 -262144 1 0;
#X obj 146 118 vu 15 80 empty empty -1 -8 0 10 -66577 -1 1 0;
#X obj 414 246 hip~ 20;
#X obj 478 249 hip~ 20;
#X obj 600 150 pack 0 20;
#X obj 600 171 line~;
#X obj 534 196 *~;
#X obj 79 117 vsl 15 80 0 1 0 1 \$0-rev_snd \$0-rev_rec rev 0 -9 0
10 -262144 -1 -1 7900 1;
#X obj 564 196 *~;
#X obj 601 124 r \$0-rev_snd;
#X obj 532 218 rev3~ 90 70 3000 20, f 23;
#X obj 415 287 expr~ tanh($v1) \; tanh($v2), f 9;
#X connect 0 0 9 0;
#X connect 0 1 9 1;
#X connect 1 0 10 0;
#X connect 1 1 10 1;
#X connect 2 0 5 0;
#X connect 3 0 5 1;
#X connect 5 0 11 0;
#X connect 5 0 15 0;
#X connect 5 1 12 0;
#X connect 5 1 17 0;
#X connect 7 0 0 1;
#X connect 7 0 1 1;
#X connect 8 0 7 0;
#X connect 11 0 20 0;
#X connect 12 0 20 1;
#X connect 13 0 14 0;
#X connect 14 0 15 1;
#X connect 14 0 17 1;
#X connect 15 0 19 0;
#X connect 17 0 19 1;
#X connect 18 0 13 0;
#X connect 19 0 11 0;
#X connect 19 1 12 0;
#X connect 20 0 0 0;
#X connect 20 0 6 0;
#X connect 20 1 6 1;
#X connect 20 1 1 0;
#X coords 0 -1 1 1 120 123 2 70 100;
#X restore 974 630 pd OUTPUT;
#N canvas 1966 282 1030 526 conductor 0;
#X obj 51 21 cnv 15 198 48 empty empty empty 20 12 0 14 -174449 -66577
0;
#X obj 50 20 tgl 15 0 \$0-on/off_snd \$0-on/off_rec on/off 17 7 0 10
-191407 -262144 -1 1 1;
#X obj 53 35 hsl 128 20 50 250 0 0 \$0-tempo_snd \$0-tempo_rec Tempo
35 10 0 15 -228856 -262144 -1 4445 1;
#X floatatom 50 55 5 50 250 0 - #0-tempoNum_rec #0-tempoNum_snd;
#X obj 128 109 hradio 15 1 1 3 \$0-division_snd \$0-division_rec 1/4
10 9 0 12 -99865 -191407 -262144 0;
#X obj 75 109 hsl 51 15 0 0.5 0 1 \$0-swing_snd \$0-swing_rec swing
5 7 0 10 -228856 -262144 -1 2400 1;
#X floatatom 173 89 5 1 16 1 beats #0-nBeats_rec #0-nBeats_snd;
#N canvas 1988 222 1311 558 beatCountLogic 0;
#X msg 86 289 1;
#X obj 86 310 + -1;
#X obj 86 331 int;
#X obj 86 267 metro 100;
#X obj 197 176 expr 60000/($f1*$f2);
#X obj 411 162 expr pow(2 \, $f1);
#X floatatom 411 183 5 0 0 0 - - -;
#X floatatom 197 197 5 0 0 0 - - -;
#N canvas 599 172 450 300 swing 0;
#X obj 76 17 inlet;
#X obj 43 107 % 2;
#X obj 43 128 sel 0 1;
#X obj 176 17 inlet;
#X obj 255 17 inlet;
#X obj 154 213 outlet;
#X obj 126 177 f;
#X obj 210 177 f;
#X obj 76 65 t f b;
#X obj 341 63 * -1;
#X obj 341 84 + 1;
#X floatatom 281 91 5 0 0 0 - - -;
#X obj 255 38 + 1;
#X floatatom 255 59 5 0 0 0 - - -;
#X obj 168 127 * 1;
#X obj 232 127 * 1;
#X connect 0 0 8 0;
#X connect 1 0 2 0;
#X connect 2 0 6 0;
#X connect 2 1 7 0;
#X connect 3 0 14 0;
#X connect 3 0 15 0;
#X connect 4 0 9 0;
#X connect 4 0 12 0;
#X connect 6 0 5 0;
#X connect 7 0 5 0;
#X connect 8 0 1 0;
#X connect 8 1 14 0;
#X connect 8 1 15 0;
#X connect 9 0 10 0;
#X connect 10 0 11 0;
#X connect 10 0 15 1;
#X connect 12 0 13 0;
#X connect 12 0 14 1;
#X connect 14 0 6 1;
#X connect 15 0 7 1;
#X restore 155 268 pd swing;
#X floatatom 155 289 5 0 0 0 - - -;
#X obj 193 221 s \$0-ioi;
#X obj 74 171 r \$0-on/off_snd;
#X obj 217 251 r \$0-swing_snd;
#X obj 197 145 r \$0-tempo_snd;
#X obj 342 131 s \$0-tempo_rec;
#X obj 432 80 r \$0-division_snd;
#X obj 432 102 t b f f;
#X obj 585 281 sel 0 1 2;
#X obj 570 371 pack s \$0;
#X msg 566 322 1/4;
#X msg 614 304 1/8;
#X msg 690 308 1/16;
#X msg 526 437 \; \$2-division_rec label \$1;
#X obj 86 386 % 16;
#X obj 229 311 r \$0-nBeats_snd;
#X obj 229 332 max 1;
#X obj 229 353 min 16;
#X obj 229 374 change;
#X obj 229 395 s \$0-nBeats_rec;
#X obj 74 192 t f f;
#X msg 108 222 \; pd dsp \$1;
#X obj 86 409 s \$0-beat;
#X obj 931 202 loadbang;
#X msg 931 229 120;
#X obj 931 250 s \$0-tempo_rec;
#X msg 1021 229 16;
#X obj 1021 250 s \$0-nBeats_rec;
#X obj 822 250 s \$0-division_rec;
#X msg 822 229 0;
#X connect 0 0 1 0;
#X connect 1 0 2 0;
#X connect 2 0 1 1;
#X connect 2 0 8 0;
#X connect 2 0 23 0;
#X connect 3 0 0 0;
#X connect 3 0 7 0;
#X connect 4 0 7 0;
#X connect 4 0 8 1;
#X connect 5 0 6 0;
#X connect 6 0 4 1;
#X connect 7 0 10 0;
#X connect 8 0 9 0;
#X connect 8 0 3 1;
#X connect 11 0 29 0;
#X connect 12 0 8 2;
#X connect 13 0 4 0;
#X connect 15 0 16 0;
#X connect 16 0 14 0;
#X connect 16 1 5 0;
#X connect 16 2 17 0;
#X connect 17 0 19 0;
#X connect 17 1 20 0;
#X connect 17 2 21 0;
#X connect 18 0 22 0;
#X connect 19 0 18 0;
#X connect 20 0 18 0;
#X connect 21 0 18 0;
#X connect 23 0 31 0;
#X connect 24 0 25 0;
#X connect 25 0 26 0;
#X connect 26 0 27 0;
#X connect 26 0 23 1;
#X connect 27 0 28 0;
#X connect 29 0 3 0;
#X connect 29 1 30 0;
#X connect 32 0 33 0;
#X connect 32 0 38 0;
#X connect 32 0 35 0;
#X connect 33 0 34 0;
#X connect 35 0 36 0;
#X connect 38 0 37 0;
#X restore 518 424 pd beatCountLogic;
#X msg 847 192 \; pd dsp \$1;
#X obj 500 46 vradio 15 1 0 3 empty empty empty 0 -8 0 10 -262144 -1
-1 1;
#X text 516 45 1/4;
#X text 516 61 1/8;
#X text 516 76 1/16;
#X obj 214 55 tgl 15 0 \$0-dsp_snd \$0-dsp_rec dsp 17 7 0 10 -262144
-1 -1 0 1;
#X obj 76 145 r \$0-tempo_snd;
#X obj 76 166 / 60;
#X floatatom 218 195 5 0 0 0 - - -;
#X obj 76 325 phasor~;
#X obj 850 25 r \$0-tempo_snd;
#X obj 850 46 s \$0-tempoNum_rec;
#X obj 850 111 s \$0-tempo_rec;
#X obj 850 68 r \$0-tempoNum_snd;
#X obj 850 89 change;
#X obj 847 165 r \$0-dsp_snd;
#X obj 76 346 s~ \$0-beat;
#X obj 76 277 *;
#X obj 146 210 r \$0-on/off_snd;
#X obj 146 231 t b f;
#X floatatom 120 296 5 0 0 0 - - -;
#X connect 14 0 15 0;
#X connect 15 0 16 0;
#X connect 15 0 25 0;
#X connect 17 0 24 0;
#X connect 18 0 19 0;
#X connect 21 0 22 0;
#X connect 22 0 20 0;
#X connect 23 0 8 0;
#X connect 25 0 17 0;
#X connect 25 0 28 0;
#X connect 26 0 27 0;
#X connect 27 0 25 0;
#X connect 27 1 25 1;
#X coords 0 -1 1 1 200 50 2 50 20;
#X restore 3 104 pd conductor;
#X text 80 354 'spacebar' - start/stop playback \; 'f' - random fill
;
#X obj 436 87 pitchSeq;
#X obj 907 546 throw~ \$0-outL;
#X obj 930 518 throw~ \$0-outR;
#X obj 883 411 synth1;
#X obj 1075 514 throw~ \$0-outL;
#X obj 1198 553 throw~ \$0-outR;
#X obj 1114 401 synth1;
#X obj 1114 320 unpack;
#X obj 1114 362 pack;
#X obj 1114 341 + 24;
#X obj 93 723 throw~ \$0-outL;
#X obj 880 723 throw~ \$0-outR;
#X obj 93 535 _glitchyDrummer \$0;
#X obj 93 515 r~ \$0-beat;
#X obj 436 65 r~ \$0-beat;
#X connect 3 0 6 0;
#X connect 6 0 4 0;
#X connect 6 1 5 0;
#X connect 9 0 7 0;
#X connect 9 1 8 0;
#X connect 10 0 12 0;
#X connect 10 1 11 1;
#X connect 11 0 9 0;
#X connect 12 0 11 0;
#X connect 15 0 13 0;
#X connect 15 1 14 0;
#X connect 16 0 15 0;
#X connect 17 0 3 0;
