#N canvas 111 225 1167 653 10;
#X obj 737 0 tgl 57 0 \$0-advanced_snd \$0-advanced_rec advanced 2
20 0 8 -262144 -1 -1 0 1;
#X obj 738 1 cnv 15 55 55 empty \$0-advancedCanvas basic 3 25 0 10
-262144 -66577 0;
#X obj 18 1 cnv 10 45 10 empty \$0-stepDisp0 1 18 6 0 12 -166441 -66577
0;
#X obj 64 1 cnv 10 45 10 empty \$0-stepDisp1 2 18 6 0 12 -166441 -66577
0;
#X obj 109 1 cnv 10 45 10 empty \$0-stepDisp2 3 18 6 0 12 -166441 -66577
0;
#X obj 154 1 cnv 10 45 10 empty \$0-stepDisp3 4 18 6 0 12 -166441 -66577
0;
#X obj 199 1 cnv 10 45 10 empty \$0-stepDisp4 5 18 6 0 12 -166441 -66577
0;
#X obj 244 1 cnv 10 45 10 empty \$0-stepDisp5 6 18 6 0 12 -166441 -66577
0;
#X obj 289 1 cnv 10 45 10 empty \$0-stepDisp6 7 18 6 0 12 -166441 -66577
0;
#X obj 334 1 cnv 10 45 10 empty \$0-stepDisp7 8 18 6 0 12 -260818 -66577
0;
#X obj 379 1 cnv 10 45 10 empty \$0-stepDisp8 9 18 6 0 12 -166441 -66577
0;
#X obj 424 1 cnv 10 45 10 empty \$0-stepDisp9 10 16 6 0 12 -166441
-66577 0;
#X obj 469 1 cnv 10 45 10 empty \$0-stepDisp10 11 16 6 0 12 -166441
-66577 0;
#X obj 514 1 cnv 10 45 10 empty \$0-stepDisp11 12 16 6 0 12 -166441
-66577 0;
#X obj 559 1 cnv 10 45 10 empty \$0-stepDisp12 13 16 6 0 12 -166441
-66577 0;
#X obj 604 1 cnv 10 45 10 empty \$0-stepDisp13 14 16 6 0 12 -166441
-66577 0;
#X obj 649 1 cnv 10 45 10 empty \$0-stepDisp14 15 16 6 0 12 -166441
-66577 0;
#X obj 692 1 cnv 10 44 10 empty \$0-stepDisp15 16 16 6 0 12 -166441
-66577 0;
#X obj 0 0 vradio 18 1 1 10 \$0-currentVoice \$0-currentVoice empty
0 -8 0 10 -228856 -1 -1 1;
#N canvas 47 211 1312 649 samplerVoices 0;
#X msg 0 257 \$1 0;
#X msg 200 257 \$1 1;
#X msg 400 257 \$1 2;
#X msg 600 257 \$1 3;
#X msg 800 257 \$1 4;
#X obj 0 278 tabwrite \$0-voices;
#X obj 200 278 tabwrite \$0-voices;
#X obj 400 278 tabwrite \$0-voices;
#X obj 600 278 tabwrite \$0-voices;
#X obj 800 278 tabwrite \$0-voices;
#X obj 0 578 tabwrite \$0-voices;
#X obj 200 578 tabwrite \$0-voices;
#X obj 400 578 tabwrite \$0-voices;
#X obj 600 578 tabwrite \$0-voices;
#X obj 800 578 tabwrite \$0-voices;
#X obj 233 70 route 0 1 2 3 4, f 156;
#X obj 128 379 route 5 6 7 8 9, f 156;
#N canvas 618 275 819 516 gopLogic 0;
#X obj 87 2 r \$0-currentVoice;
#X obj 87 64 t b f f, f 49;
#X obj 71 240 pack \$0 0 0, f 56;
#X obj 224 131 % 5;
#X obj 224 152 * 200;
#X obj 374 194 + 130;
#X obj 376 82 / 5;
#X obj 374 139 int;
#X floatatom 376 103 5 0 0 0 - - -;
#X obj 72 320 s \$0-samplerVoices;
#X obj 87 23 t f b;
#X msg 144 140 0;
#X msg 87 85 2;
#X obj 374 160 * 300;
#X msg 224 4 5;
#X msg 72 288 donecanvasdialog 1 -1 \$1 0 -1 1 1 200 123 \$2 \$3 \,
dirty 0;
#X connect 0 0 10 0;
#X connect 1 0 12 0;
#X connect 1 1 3 0;
#X connect 1 2 6 0;
#X connect 2 0 15 0;
#X connect 3 0 4 0;
#X connect 4 0 2 1;
#X connect 5 0 2 2;
#X connect 6 0 7 0;
#X connect 6 0 8 0;
#X connect 7 0 13 0;
#X connect 10 0 1 0;
#X connect 10 1 11 0;
#X connect 11 0 2 0;
#X connect 12 0 2 0;
#X connect 13 0 5 0;
#X connect 14 0 10 0;
#X connect 15 0 9 0;
#X restore 1105 194 pd gopLogic;
#X obj 1105 170 namecanvas \$0-samplerVoices;
#X msg 0 557 \$1 5;
#X msg 200 557 \$1 6;
#X msg 400 557 \$1 7;
#X msg 600 557 \$1 8;
#X msg 800 557 \$1 9;
#X obj 55 13 r \$0-glitchSeqOut;
#X obj 800 430 glitchyDrummer/drumGlitcher_sjf \$0, f 31;
#X obj 600 430 glitchyDrummer/drumGlitcher_sjf \$0, f 31;
#X obj 400 430 glitchyDrummer/drumGlitcher_sjf \$0, f 31;
#X obj 200 430 glitchyDrummer/drumGlitcher_sjf \$0, f 31;
#X obj 0 430 glitchyDrummer/drumGlitcher_sjf \$0, f 31;
#X obj 0 130 glitchyDrummer/drumGlitcher_sjf \$0, f 31;
#X obj 200 130 glitchyDrummer/drumGlitcher_sjf \$0, f 31;
#X obj 400 130 glitchyDrummer/drumGlitcher_sjf \$0, f 32;
#X obj 600 130 glitchyDrummer/drumGlitcher_sjf \$0, f 31;
#X obj 800 130 glitchyDrummer/drumGlitcher_sjf \$0, f 32;
#X connect 0 0 5 0;
#X connect 1 0 6 0;
#X connect 2 0 7 0;
#X connect 3 0 8 0;
#X connect 4 0 9 0;
#X connect 15 0 30 0;
#X connect 15 1 31 0;
#X connect 15 2 32 0;
#X connect 15 3 33 0;
#X connect 15 4 34 0;
#X connect 16 0 29 0;
#X connect 16 1 28 0;
#X connect 16 2 27 0;
#X connect 16 3 26 0;
#X connect 16 4 25 0;
#X connect 19 0 10 0;
#X connect 20 0 11 0;
#X connect 21 0 12 0;
#X connect 22 0 13 0;
#X connect 23 0 14 0;
#X connect 24 0 15 0;
#X connect 24 0 16 0;
#X connect 25 0 23 0;
#X connect 26 0 22 0;
#X connect 27 0 21 0;
#X connect 28 0 20 0;
#X connect 29 0 19 0;
#X connect 30 0 0 0;
#X connect 31 0 1 0;
#X connect 32 0 2 0;
#X connect 33 0 3 0;
#X connect 34 0 4 0;
#X coords 0 -1 1 1 200 123 2 200 130;
#X restore 18 57 pd samplerVoices;
#N canvas 1863 170 1245 797 patBanks 0;
#X obj 1 1 cnv 15 258 121 empty empty empty 20 12 0 14 -224684 -66577
0;
#X obj 5 97 hradio 20 1 1 4 \$0-banks_snd \$0-banks_rec empty 0 -8
0 10 -99865 -1 -1 0;
#X obj 5 17 vradio 20 1 1 4 \$0-1to4_snd \$0-1to4_rec empty 0 -8 0
10 -166441 -262144 -1 1;
#X obj 25 17 vradio 20 1 0 4 \$0-5to8_snd \$0-5to8_rec empty 0 -8 0
10 -166441 -166441 -1 0;
#X obj 45 17 vradio 20 1 0 4 \$0-9to12_snd \$0-9to12_rec empty 0 -8
0 10 -166441 -166441 -1 0;
#X obj 65 17 vradio 20 1 0 4 \$0-13to16_snd \$0-13to16_rec empty 0
-8 0 10 -166441 -166441 -1 1;
#X obj 85 17 tgl 15 0 \$0-chain_snd \$0-chain_rec chain 17 7 0 10 -178979
-1 -1 0 1;
#X symbolatom 85 102 10 0 0 0 - #0-chainPatDispSymbol_rec #0-chainPatDispSymbol_snd
;
#X text 25 2 Pattern Chain;
#N canvas 0 23 450 300 patsaveetc 0;
#X obj 0 1 cnv 15 99 43 empty empty empty 20 12 0 14 -228856 -66577
0;
#X obj 0 30 bng 15 250 50 0 \$0-clearPat_snd \$0-clearPat_rec clear_pattern
17 7 0 10 -262130 -1 -1;
#X obj 0 0 bng 15 250 50 0 \$0-savePat_snd \$0-savePat_rec save_pattern
17 7 0 10 -262130 -1 -1;
#X obj 0 15 bng 15 250 50 0 \$0-readPat_snd \$0-readPat_rec read_pattern
17 7 0 10 -262130 -1 -1;
#X coords 0 -1 1 1 100 45 2 0 0;
#X restore 160 0 pd patsaveetc;
#X obj 85 57 bng 15 250 50 0 \$0-clearChain_snd \$0-clearChain_rec
clear_chain 17 7 0 10 -178915 -1 -1;
#X coords 0 -1 1 1 260 123 2 0 0;
#X restore 418 57 pd patBanks;
#N canvas 293 23 948 838 randomiser 0;
#X obj 501 51 cnv 15 198 122 empty \$0-randomiserCanvas empty 2 10
0 14 -233017 -1 0;
#N canvas 1739 217 858 415 randomisersVars 0;
#N canvas 0 23 450 278 (subpatch) 0;
#X array \$0-fxProbs 7 float 3;
#A 0 0.8 0.62 0.64 0.6 0.64 0.44 0.200001;
#X coords 0 1 7 0 100 50 1 0 0;
#X restore 100 20 graph;
#N canvas 0 22 450 278 (subpatch) 0;
#X array \$0-probs 5 float 3;
#A 0 0.96 0.38 0.24 0.18 0.64;
#X coords 0 1 5 0 100 50 2 0 0;
#X restore 0 20 graph;
#X obj 3 70 hsl 195 15 0 24 0 1 \$0-pitchShiftMax_snd \$0-pitchShiftMax_rec
pitchShiftMax-8.65semitones 20 8 0 10 -166441 -262144 -1 7000 1;
#X text 19 43 <-;
#X text 42 43 ><;
#X text 62 43 <>;
#X text 78 43 >>>;
#X text 1 43 ->;
#X text 101 20 D;
#X text 101 31 r;
#X text 101 41 y;
#X text 115 20 O;
#X text 115 31 v;
#X text 115 41 r;
#X text 115 51 d;
#X text 131 20 R;
#X text 131 31 e;
#X text 131 41 v;
#X text 145 18 F;
#X text 145 29 l;
#X text 145 37 a;
#X text 145 46 n;
#X text 145 54 g;
#X text 158 20 P;
#X text 158 31 i;
#X text 158 41 n;
#X text 158 51 g;
#X text 172 31 i;
#X text 172 41 n;
#X text 172 51 g;
#X text 172 20 R;
#X text 187 18 S;
#X text 187 27 p;
#X text 187 37 e;
#X text 187 45 c;
#X text 187 54 D;
#N canvas 583 58 852 476 fill 0;
#X obj 0 1 tgl 15 0 \$0-fill_snd \$0-fill_rec autofill 17 7 0 10 -233017
-1 -1 0 1;
#X floatatom 0 16 4 2 128 1 fill_after_X_bars #0-fill_len_rec #0-fill_len_snd
;
#X obj 302 27 loadbang;
#X msg 302 48 4;
#X obj 302 69 s \$0-fill_len_rec;
#X obj 86 146 bng 15 250 50 0 empty empty empty 17 7 0 10 -262144 -1
-1;
#X obj 86 166 f \$0;
#X obj 75 103 r \$0-fill_snd;
#X obj 75 124 sel 0;
#X obj 222 105 r \$0-randomiser_snd;
#X obj 222 148 bng 15 250 50 0 empty empty empty 17 7 0 10 -262144
-1 -1;
#X obj 222 168 f \$0;
#X obj 222 129 sel 0 1, f 18;
#X obj 272 153 bng 15 250 50 0 empty empty empty 17 7 0 10 -262144
-1 -1;
#X obj 272 173 f \$0;
#X msg 267 200 \; \$1-fill_rec color 13 0 13 \;;
#X obj 73 1 tgl 15 0 \$0-randomiser_snd \$0-randomiser_rec empty 17
7 0 10 -233017 -233017 -233017 0 1;
#X msg 81 193 \; \$1-fill_rec color 10 22 22 \;;
#X connect 2 0 3 0;
#X connect 3 0 4 0;
#X connect 5 0 6 0;
#X connect 6 0 17 0;
#X connect 7 0 8 0;
#X connect 8 0 5 0;
#X connect 9 0 12 0;
#X connect 10 0 11 0;
#X connect 11 0 17 0;
#X connect 12 0 10 0;
#X connect 12 1 13 0;
#X connect 13 0 14 0;
#X connect 14 0 15 0;
#X coords 0 -1 1 1 200 43 2 0 1;
#X restore 0 85 pd fill;
#X obj 251 36 namecanvas \$0-randomiserVars;
#X obj 420 61 r \$0-advanced;
#X obj 420 163 t b f;
#X obj 420 184 f \$0;
#X obj 420 205 pack, f 5;
#X msg 420 226 \; \$1-randomiserVars donecanvasdialog 1 -1 \$2 0 -1
1 1 200 95 0 20 \; \$1-randomiserVars dirty 0;
#X obj 420 82 * -2;
#X obj 420 142 + 2;
#X obj 152 104 bng 10 250 50 0 \$0-glitchfxparamsWindow_snd \$0-glitchfxparamsWindow_rec
FX_vars 12 5 0 8 -128992 -262144 -1;
#X obj 98 85 hsl 100 15 0 1 0 1 \$0-syncProb_snd \$0-syncProb_rec syncProb-0.75
5 8 0 10 -166441 -262144 -1 7500 1;
#X connect 38 0 43 0;
#X connect 39 0 40 0;
#X connect 39 1 41 1;
#X connect 40 0 41 0;
#X connect 41 0 42 0;
#X connect 44 0 39 0;
#X coords 0 -1 1 1 200 108 2 0 20;
#X restore 500 65 pd randomisersVars;
#X coords 0 -1 1 1 200 123 1 500 50;
#X restore 218 57 pd randomiser;
#N canvas 0 23 386 192 samp_disp 0;
#N canvas 0 22 450 278 (subpatch) 0;
#X array \$0-samp 8820 float 2;
#X coords 0 1 8820 -1 100 58 1 0 0;
#X restore 0 20 graph;
#X obj 188 27 namecanvas \$0-sampDisp;
#X coords 0 -1 1 1 100 58 2 0 20;
#X restore 18 73 pd samp_disp;
#N canvas 1821 427 1277 581 guts 0;
#X obj 299 196 samplerate~;
#X obj 308 164 r pd-dsp-started, f 14;
#X floatatom 299 217 7 0 0 0 - - -;
#X obj 299 237 s \$0-sampRate;
#X obj 69 5 loadbang;
#X obj 994 7 array define \$0-params 1;
#X obj 373 121 bng 15 250 50 0 empty empty empty 17 7 0 10 -262144
-1 -1;
#X obj 373 141 s \$0-load;
#X obj 69 25 bng 15 250 50 0 empty empty empty 17 7 0 10 -262144 -1
-1;
#N canvas 0 23 230 552 loadSamples 0;
#X obj 37 22 inlet;
#X obj 37 159 folder_list;
#X obj 37 180 t b l;
#X obj 37 316 pack 0 s;
#X msg 37 352 \; \$1-file \$2;
#X msg 37 203 1;
#X obj 37 224 + -1;
#X obj 37 245 int;
#X msg 112 201 -1;
#X obj 37 266 t f f;
#X obj 37 296 tabread \$0-voices;
#X msg 37 124 symbol samples/Kit\$1/*.wav;
#X obj 37 59 t f b, f 13;
#X obj 37 80 + 1;
#X connect 0 0 12 0;
#X connect 1 0 2 0;
#X connect 2 0 5 0;
#X connect 2 1 3 1;
#X connect 3 0 4 0;
#X connect 5 0 6 0;
#X connect 6 0 7 0;
#X connect 7 0 9 0;
#X connect 8 0 6 1;
#X connect 9 0 10 0;
#X connect 9 1 6 1;
#X connect 10 0 3 0;
#X connect 11 0 1 0;
#X connect 12 0 13 0;
#X connect 12 1 8 0;
#X connect 13 0 11 0;
#X restore 219 284 pd loadSamples;
#X f 11;
#X obj 25 200 hradio 15 1 0 4 empty empty empty 0 -8 0 10 -262144 -1
-1 3;
#X obj 226 96 t b b b, f 25;
#X obj 384 95 s \$0-samplerVoices;
#X obj 69 45 t b b b, f 53;
#X obj 69 66 s \$0-currentVoice;
#X obj 299 316 s \$0-samplerVoices;
#X obj 140 316 s \$0-currentVoice;
#X obj 140 262 t b f b, f 27;
#X msg 299 284 donecanvasdialog 1 -1 0 0 -1 1 1 200 115 0 0 \, dirty
0;
#X msg 384 73 donecanvasdialog 1 -1 0 0 -1 1 1 200 115 0 0 \, dirty
0;
#X obj 29 262 r \$0-currentVoice;
#X obj 140 294 int, f 7;
#X obj 994 26 array define \$0-voices 10;
#X obj 0 200 bng 15 250 50 0 empty empty empty 17 7 0 10 -262144 -1
-1;
#X msg 226 147 3;
#X obj 839 175 loadbang;
#N canvas 389 298 867 588 keyboardInput 0;
#X obj 202 52 keyname, f 8;
#X obj 202 73 pack 0 s;
#X msg 202 94 \$2 \$1;
#X obj 202 115 route Alt_L;
#X obj 202 137 s \$0-altKey;
#X obj 63 137 s \$0-shiftKey;
#X obj 63 52 keyname, f 8;
#X obj 63 73 pack 0 s;
#X msg 63 94 \$2 \$1;
#X obj 63 115 route Shift_L;
#X obj 63 206 key;
#X obj 131 206 keyup;
#X msg 63 248 1;
#X obj 63 269 change;
#X msg 131 248 0;
#X obj 63 227 sel 102;
#X obj 131 227 sel 102;
#X obj 63 400 s \$0-randomiser_rec;
#X obj 358 60 key;
#X obj 358 85 sel 32;
#X obj 358 151 s \$0-on/off_rec;
#X obj 358 106 int, f 8;
#X obj 358 127 < 1;
#X obj 403 85 r \$0-on/off_snd;
#X text 69 421 f - random fill;
#X text 351 42 spacebar - start/stop playback;
#X obj 63 290 t f f;
#X obj 219 288 r \$0-advanced_snd;
#X floatatom 346 323 5 0 0 0 - - -;
#X obj 216 322 int;
#X obj 150 287 sel 1 0;
#X obj 188 322 i 0;
#X obj 198 351 s \$0-advanced;
#X connect 0 0 1 0;
#X connect 0 1 1 1;
#X connect 1 0 2 0;
#X connect 2 0 3 0;
#X connect 3 0 4 0;
#X connect 6 0 7 0;
#X connect 6 1 7 1;
#X connect 7 0 8 0;
#X connect 8 0 9 0;
#X connect 9 0 5 0;
#X connect 10 0 15 0;
#X connect 11 0 16 0;
#X connect 12 0 13 0;
#X connect 13 0 26 0;
#X connect 14 0 13 0;
#X connect 15 0 12 0;
#X connect 16 0 14 0;
#X connect 18 0 19 0;
#X connect 19 0 21 0;
#X connect 21 0 22 0;
#X connect 23 0 21 1;
#X connect 26 0 17 0;
#X connect 26 1 30 0;
#X connect 27 0 28 0;
#X connect 27 0 29 1;
#X connect 29 0 32 0;
#X connect 30 0 31 0;
#X connect 30 1 29 0;
#X connect 31 0 32 0;
#X restore 834 46 pd keyboardInput;
#N canvas 0 23 1350 539 sampDispLogic 0;
#X obj 254 13 r \$0-currentVoice;
#X obj 452 168 tabread \$0-voices;
#X obj 455 246 array size;
#X msg 477 217 symbol \$1-sample;
#X obj 455 267 t f f, f 10;
#X obj 560 307 array size \$0-samp;
#X obj 455 288 t f b, f 7;
#X obj 455 309 until;
#X msg 455 330 1;
#X obj 455 351 + -1;
#X obj 455 372 int;
#X msg 492 329 -1;
#X obj 455 393 t f f, f 18;
#X obj 455 414 tabread;
#X obj 452 189 t b f f, f 54;
#X msg 725 257 set \$1-sample;
#X obj 455 435 tabwrite \$0-samp;
#X obj 253 110 t b f b, f 110;
#X obj 875 138 f \$0, f 22;
#X obj 251 68 pipe 5;
#X obj 551 140 change -1;
#X msg 278 207 0;
#X obj 233 142 f \$0, f 22;
#X obj 233 163 t f f;
#X msg 233 455 \; \$1-sampDisp donecanvasdialog 1 -1 2 0 -1 1 1 100
58 0 20 \; \$1-sampDisp dirty 0;
#X msg 875 166 \; \$1-sampDisp donecanvasdialog 1 -1 0 0 -1 1 1 200
123 0 20 \;;
#X connect 0 0 19 0;
#X connect 1 0 14 0;
#X connect 2 0 4 0;
#X connect 3 0 2 1;
#X connect 4 0 6 0;
#X connect 4 1 5 0;
#X connect 6 0 7 0;
#X connect 6 1 11 0;
#X connect 7 0 8 0;
#X connect 8 0 9 0;
#X connect 9 0 10 0;
#X connect 10 0 9 1;
#X connect 10 0 12 0;
#X connect 11 0 9 1;
#X connect 12 0 13 0;
#X connect 12 1 16 1;
#X connect 13 0 16 0;
#X connect 14 0 2 0;
#X connect 14 1 3 0;
#X connect 14 2 15 0;
#X connect 15 0 13 0;
#X connect 17 0 22 0;
#X connect 17 1 20 0;
#X connect 17 2 18 0;
#X connect 18 0 25 0;
#X connect 19 0 17 0;
#X connect 20 0 1 0;
#X connect 22 0 23 0;
#X connect 23 0 24 0;
#X restore 834 26 pd sampDispLogic;
#N canvas 0 23 450 300 TempoDispLogic 0;
#X obj 13 111 change;
#X obj 16 84 r \$0-tempoNum_snd;
#X obj 13 132 s \$0-tempo_rec;
#X obj 129 108 change;
#X obj 132 81 r \$0-tempo_snd;
#X obj 128 128 s \$0-tempoNum_rec;
#X connect 0 0 2 0;
#X connect 1 0 0 0;
#X connect 3 0 5 0;
#X connect 4 0 3 0;
#X restore 834 7 pd TempoDispLogic;
#X msg 839 196 0;
#X obj 839 217 s \$0-advanced_rec;
#X obj 643 446 cnv 15 300 100 empty empty empty 20 12 0 14 -262130
-66577 0;
#X obj 657 488 t f f f, f 29;
#N canvas 2065 142 1184 759 randomiser 0;
#X obj 192 463 bng 15 250 50 0 empty empty empty 17 7 0 10 -262144
-1 -1;
#N canvas 0 23 594 597 random_playModes 0;
#X obj 37 37 inlet;
#X obj 37 64 array size \$0-voices;
#X obj 37 85 t f b, f 12;
#X obj 37 106 until;
#X msg 37 127 1;
#X obj 37 148 + -1;
#X obj 37 169 int;
#X msg 68 128 -1;
#X obj 37 190 tabread \$0-voices;
#X obj 37 211 t b f, f 21;
#X msg 37 232 5;
#X obj 38 252 t f b, f 12;
#X obj 38 273 until;
#X msg 38 294 1;
#X obj 38 315 + -1;
#X obj 38 336 int;
#X msg 69 295 -1;
#X msg 119 316 set \$1-probs;
#X obj 46 471 tabwrite, f 44;
#X obj 38 381 random 1000;
#X obj 38 402 / 1000;
#X obj 38 360 t b f f, f 45;
#X obj 38 423 *;
#X obj 171 411 min 1;
#X obj 171 432 max 0;
#X obj 171 390 tabread \$0-probs;
#X obj 268 70 array size \$0-voices;
#X obj 287 36 bng 15 250 50 0 empty empty empty 17 7 0 10 -262144 -1
-1;
#X floatatom 268 91 5 0 0 0 - - -;
#X connect 0 0 1 0;
#X connect 1 0 2 0;
#X connect 2 0 3 0;
#X connect 2 1 7 0;
#X connect 3 0 4 0;
#X connect 4 0 5 0;
#X connect 5 0 6 0;
#X connect 6 0 5 1;
#X connect 6 0 8 0;
#X connect 7 0 5 1;
#X connect 8 0 9 0;
#X connect 9 0 10 0;
#X connect 9 1 17 0;
#X connect 10 0 11 0;
#X connect 11 0 12 0;
#X connect 11 1 16 0;
#X connect 12 0 13 0;
#X connect 13 0 14 0;
#X connect 14 0 15 0;
#X connect 15 0 14 1;
#X connect 15 0 21 0;
#X connect 16 0 14 1;
#X connect 17 0 18 0;
#X connect 19 0 20 0;
#X connect 20 0 22 0;
#X connect 21 0 19 0;
#X connect 21 1 25 0;
#X connect 21 2 18 1;
#X connect 22 0 18 0;
#X connect 23 0 24 0;
#X connect 24 0 22 1;
#X connect 25 0 23 0;
#X connect 26 0 28 0;
#X connect 27 0 26 0;
#X restore 192 490 pd random_playModes;
#X obj 337 463 bng 15 250 50 0 empty empty empty 17 7 0 10 -262144
-1 -1;
#N canvas 0 23 594 597 random_fxModes 0;
#X obj 37 37 inlet;
#X obj 37 64 array size \$0-voices;
#X obj 37 85 t f b, f 12;
#X obj 37 106 until;
#X msg 37 127 1;
#X obj 37 148 + -1;
#X obj 37 169 int;
#X msg 68 128 -1;
#X obj 37 190 tabread \$0-voices;
#X obj 37 211 t b f, f 21;
#X obj 38 252 t f b, f 12;
#X obj 38 273 until;
#X msg 38 294 1;
#X obj 38 315 + -1;
#X obj 38 336 int;
#X msg 69 295 -1;
#X obj 46 471 tabwrite, f 42;
#X obj 38 378 random 1000;
#X obj 38 399 / 1000;
#X msg 119 316 set \$1-fxProbs;
#X msg 37 232 7;
#X obj 38 357 t b f f, f 45;
#X obj 171 387 tabread \$0-fxProbs;
#X obj 38 420 *;
#X obj 171 408 min 1;
#X obj 171 429 max 0;
#X connect 0 0 1 0;
#X connect 1 0 2 0;
#X connect 2 0 3 0;
#X connect 2 1 7 0;
#X connect 3 0 4 0;
#X connect 4 0 5 0;
#X connect 5 0 6 0;
#X connect 6 0 5 1;
#X connect 6 0 8 0;
#X connect 7 0 5 1;
#X connect 8 0 9 0;
#X connect 9 0 20 0;
#X connect 9 1 19 0;
#X connect 10 0 11 0;
#X connect 10 1 15 0;
#X connect 11 0 12 0;
#X connect 12 0 13 0;
#X connect 13 0 14 0;
#X connect 14 0 13 1;
#X connect 14 0 21 0;
#X connect 15 0 13 1;
#X connect 17 0 18 0;
#X connect 18 0 23 0;
#X connect 19 0 16 0;
#X connect 20 0 10 0;
#X connect 21 0 17 0;
#X connect 21 1 22 0;
#X connect 21 2 16 1;
#X connect 22 0 24 0;
#X connect 23 0 16 0;
#X connect 24 0 25 0;
#X connect 25 0 23 1;
#X restore 337 493 pd random_fxModes;
#N canvas 0 23 594 597 reset_playModes 0;
#X obj 37 37 inlet;
#X obj 37 64 array size \$0-voices;
#X obj 37 85 t f b, f 12;
#X obj 37 106 until;
#X msg 37 127 1;
#X obj 37 148 + -1;
#X obj 37 169 int;
#X msg 68 128 -1;
#X obj 37 190 tabread \$0-voices;
#X obj 37 211 t b f, f 21;
#X msg 37 232 5;
#X obj 38 252 t f b, f 12;
#X obj 38 273 until;
#X msg 38 294 1;
#X obj 38 315 + -1;
#X obj 38 336 int;
#X msg 69 295 -1;
#X msg 119 316 set \$1-probs;
#X obj 46 471 tabwrite;
#X obj 38 357 t f f;
#X obj 38 378 == 0;
#X connect 0 0 1 0;
#X connect 1 0 2 0;
#X connect 2 0 3 0;
#X connect 2 1 7 0;
#X connect 3 0 4 0;
#X connect 4 0 5 0;
#X connect 5 0 6 0;
#X connect 6 0 5 1;
#X connect 6 0 8 0;
#X connect 7 0 5 1;
#X connect 8 0 9 0;
#X connect 9 0 10 0;
#X connect 9 1 17 0;
#X connect 10 0 11 0;
#X connect 11 0 12 0;
#X connect 11 1 16 0;
#X connect 12 0 13 0;
#X connect 13 0 14 0;
#X connect 14 0 15 0;
#X connect 15 0 14 1;
#X connect 15 0 19 0;
#X connect 16 0 14 1;
#X connect 17 0 18 0;
#X connect 19 0 20 0;
#X connect 19 1 18 1;
#X connect 20 0 18 0;
#X restore 471 561 pd reset_playModes;
#N canvas 846 281 594 597 reset_fxModes 0;
#X obj 37 37 inlet;
#X obj 37 64 array size \$0-voices;
#X obj 37 85 t f b, f 12;
#X obj 37 106 until;
#X msg 37 127 1;
#X obj 37 148 + -1;
#X obj 37 169 int;
#X msg 68 128 -1;
#X obj 37 190 tabread \$0-voices;
#X obj 37 211 t b f, f 21;
#X obj 38 252 t f b, f 12;
#X obj 38 273 until;
#X msg 38 294 1;
#X obj 38 315 + -1;
#X obj 38 336 int;
#X msg 69 295 -1;
#X obj 46 471 tabwrite;
#X msg 119 316 set \$1-fxProbs;
#X obj 38 357 t f f;
#X obj 38 378 == 0;
#X msg 37 232 7;
#X connect 0 0 1 0;
#X connect 1 0 2 0;
#X connect 2 0 3 0;
#X connect 2 1 7 0;
#X connect 3 0 4 0;
#X connect 4 0 5 0;
#X connect 5 0 6 0;
#X connect 6 0 5 1;
#X connect 6 0 8 0;
#X connect 7 0 5 1;
#X connect 8 0 9 0;
#X connect 9 0 20 0;
#X connect 9 1 17 0;
#X connect 10 0 11 0;
#X connect 10 1 15 0;
#X connect 11 0 12 0;
#X connect 12 0 13 0;
#X connect 13 0 14 0;
#X connect 14 0 13 1;
#X connect 14 0 18 0;
#X connect 15 0 13 1;
#X connect 17 0 16 0;
#X connect 18 0 19 0;
#X connect 18 1 16 1;
#X connect 19 0 16 0;
#X connect 20 0 10 0;
#X restore 616 561 pd reset_fxModes;
#X obj 483 534 bng 15 250 50 0 empty empty empty 17 7 0 10 -262144
-1 -1;
#X obj 631 534 bng 15 250 50 0 empty empty empty 17 7 0 10 -262144
-1 -1;
#X obj 156 406 bng 15 250 50 0 empty empty randomise 17 7 0 10 -262144
-1 -1;
#X obj 526 487 bng 15 250 50 0 empty empty reset 17 7 0 10 -262144
-1 -1;
#N canvas 846 251 594 597 random_pitchShift 0;
#X obj 37 37 inlet;
#X obj 37 64 array size \$0-voices;
#X obj 37 85 t f b, f 12;
#X obj 37 106 until;
#X msg 37 127 1;
#X obj 37 148 + -1;
#X obj 37 169 int;
#X msg 68 128 -1;
#X obj 37 190 tabread \$0-voices;
#X obj 37 211 t b f, f 25;
#X obj 167 39 bng 15 250 50 0 empty empty empty 17 7 0 10 -262144 -1
-1;
#X floatatom 175 230 5 0 0 0 - - -;
#X obj 37 374 pack, f 25;
#X msg 37 402 \; \$2-pitchShiftMax_rec \$1;
#X obj 37 237 random 10000;
#X obj 37 321 *, f 11;
#X obj 92 274 r \$0-pitchShiftMax_snd, f 13;
#X obj 37 258 / 10000;
#X connect 0 0 1 0;
#X connect 1 0 2 0;
#X connect 2 0 3 0;
#X connect 2 1 7 0;
#X connect 3 0 4 0;
#X connect 4 0 5 0;
#X connect 5 0 6 0;
#X connect 6 0 5 1;
#X connect 6 0 8 0;
#X connect 7 0 5 1;
#X connect 8 0 9 0;
#X connect 9 0 14 0;
#X connect 9 1 11 0;
#X connect 9 1 12 1;
#X connect 10 0 1 0;
#X connect 12 0 13 0;
#X connect 14 0 17 0;
#X connect 15 0 12 0;
#X connect 16 0 15 1;
#X connect 17 0 15 0;
#X restore 54 489 pd random_pitchShift;
#X obj 54 463 bng 15 250 50 0 empty empty empty 17 7 0 10 -262144 -1
-1;
#X obj 730 534 bng 15 250 50 0 empty empty empty 17 7 0 10 -262144
-1 -1;
#N canvas 1797 251 594 597 reset_pitchShift 0;
#X obj 37 37 inlet;
#X obj 37 64 array size \$0-voices;
#X obj 37 85 t f b, f 12;
#X obj 37 106 until;
#X msg 37 127 1;
#X obj 37 148 + -1;
#X obj 37 169 int;
#X msg 68 128 -1;
#X obj 37 190 tabread \$0-voices;
#X obj 167 39 bng 15 250 50 0 empty empty empty 17 7 0 10 -262144 -1
-1;
#X msg 37 325 \; \$1-pitchShiftMax_rec 0;
#X connect 0 0 1 0;
#X connect 1 0 2 0;
#X connect 2 0 3 0;
#X connect 2 1 7 0;
#X connect 3 0 4 0;
#X connect 4 0 5 0;
#X connect 5 0 6 0;
#X connect 6 0 5 1;
#X connect 6 0 8 0;
#X connect 7 0 5 1;
#X connect 8 0 10 0;
#X connect 9 0 1 0;
#X restore 730 561 pd reset_pitchShift;
#X obj 130 98 sel 0;
#X msg 130 119 1;
#X obj 130 140 + -1;
#X obj 130 161 int;
#X obj 129 228 % 4;
#X obj 129 249 sel 3, f 22;
#X obj 258 183 - 1;
#X obj 130 78 spigot;
#X obj 262 126 r \$0-fill_len_snd;
#X obj 171 7 r \$0-fill_snd;
#X obj 129 270 t b b;
#X msg 196 137 -1;
#X obj 130 182 t f f;
#X obj 42 542 bng 15 250 50 0 empty empty empty 17 7 0 10 -262144 -1
-1;
#N canvas 846 251 594 597 random_sync 0;
#X obj 37 37 inlet;
#X obj 37 64 array size \$0-voices;
#X obj 37 85 t f b, f 12;
#X obj 37 106 until;
#X msg 37 127 1;
#X obj 37 148 + -1;
#X obj 37 169 int;
#X msg 68 128 -1;
#X obj 37 190 tabread \$0-voices;
#X obj 37 211 t b f, f 21;
#X obj 167 39 bng 15 250 50 0 empty empty empty 17 7 0 10 -262144 -1
-1;
#X floatatom 175 230 5 0 0 0 - - -;
#X obj 37 297 pack, f 20;
#X obj 37 237 random 2;
#X msg 37 325 \; \$2-sync_rec \$1;
#X connect 0 0 1 0;
#X connect 1 0 2 0;
#X connect 2 0 3 0;
#X connect 2 1 7 0;
#X connect 3 0 4 0;
#X connect 4 0 5 0;
#X connect 5 0 6 0;
#X connect 6 0 5 1;
#X connect 6 0 8 0;
#X connect 7 0 5 1;
#X connect 8 0 9 0;
#X connect 9 0 13 0;
#X connect 9 1 11 0;
#X connect 9 1 12 1;
#X connect 10 0 1 0;
#X connect 12 0 14 0;
#X connect 13 0 12 0;
#X restore 42 568 pd random_sync;
#X obj 854 534 bng 15 250 50 0 empty empty empty 17 7 0 10 -262144
-1 -1;
#N canvas 846 251 594 597 reset_sync 0;
#X obj 37 37 inlet;
#X obj 37 64 array size \$0-voices;
#X obj 37 85 t f b, f 12;
#X obj 37 106 until;
#X msg 37 127 1;
#X obj 37 148 + -1;
#X obj 37 169 int;
#X msg 68 128 -1;
#X obj 37 190 tabread \$0-voices;
#X obj 37 211 t b f, f 21;
#X obj 167 39 bng 15 250 50 0 empty empty empty 17 7 0 10 -262144 -1
-1;
#X floatatom 175 230 5 0 0 0 - - -;
#X obj 37 297 pack, f 20;
#X msg 37 325 \; \$2-sync_rec \$1;
#X obj 37 237 int 0;
#X connect 0 0 1 0;
#X connect 1 0 2 0;
#X connect 2 0 3 0;
#X connect 2 1 7 0;
#X connect 3 0 4 0;
#X connect 4 0 5 0;
#X connect 5 0 6 0;
#X connect 6 0 5 1;
#X connect 6 0 8 0;
#X connect 7 0 5 1;
#X connect 8 0 9 0;
#X connect 9 0 14 0;
#X connect 9 1 11 0;
#X connect 9 1 12 1;
#X connect 10 0 1 0;
#X connect 12 0 13 0;
#X connect 14 0 12 0;
#X restore 854 561 pd reset_sync;
#X obj 178 550 bng 15 250 50 0 empty empty empty 17 7 0 10 -262144
-1 -1;
#X obj 178 570 f \$0;
#X obj 574 604 bng 15 250 50 0 empty empty empty 17 7 0 10 -262144
-1 -1;
#X obj 574 624 f \$0;
#X obj 582 262 r \$0-fill_snd;
#X obj 582 283 sel 0;
#X obj 258 270 t b;
#X obj 230 358 r \$0-randomiser_snd;
#X obj 230 379 sel 1 0;
#X obj 727 248 r \$0-pitchShiftMax_snd;
#X obj 727 269 * 100;
#X obj 727 290 int;
#X obj 727 311 * 0.01;
#X msg 727 332 pitchShiftMax-\$1semitones;
#X obj 727 353 pack s \$0;
#X msg 727 374 \; \$2-pitchShiftMax_rec label \$1;
#X text 730 13 0 - forth \; 1 - back \; 2 - forth&back \; 3 - back&forth
\; 4 - 2 * reps \; 5 - 3 * reps \; 6 - 4 * reps \; etc;
#X obj 732 174 f \$0;
#X msg 732 195 \; pd-\$1-globalGlitchfxParams vis 1;
#X obj 731 146 r \$0-glitchfxparamsWindow_snd;
#X obj 84 25 inlet;
#X obj 287 7 r \$0-advanced;
#X obj 287 28 * -1;
#X obj 287 49 + 1;
#X obj 287 70 t b f;
#X obj 167 46 *;
#X obj 496 291 sel 1;
#X obj 496 263 r \$0-advanced;
#X obj 941 274 * 100;
#X obj 941 295 int;
#X obj 941 316 * 0.01;
#X obj 941 358 pack s \$0;
#X obj 941 253 r \$0-syncProb_snd;
#X msg 941 337 syncProb-\$1;
#X msg 941 379 \; \$2-syncProb_rec label \$1;
#X msg 574 645 \; \$1-fill_rec color 10 22 22 \; \$1-randomiser_rec
color 10 10 10 \; \$1-randomiser_rec set 0 \; \$1-randomiserCanvas
color 10 22 22 \; \$1-pitchShiftMax_rec color 1 0 22 \; \$1-syncProb_rec
color 1 0 22 \;;
#X msg 178 591 \; \$1-fill_rec color 13 0 13 \; \$1-randomiser_rec
color 13 13 13 \; \$1-randomiser_rec set 1 \; \$1-randomiserCanvas
color 3 0 22 \; \$1-pitchShiftMax_rec color 13 0 22 \; \$1-syncProb_rec
color 13 0 22 \;;
#X connect 0 0 1 0;
#X connect 2 0 3 0;
#X connect 6 0 4 0;
#X connect 7 0 5 0;
#X connect 8 0 0 0;
#X connect 8 0 2 0;
#X connect 8 0 11 0;
#X connect 8 0 27 0;
#X connect 8 0 31 0;
#X connect 9 0 7 0;
#X connect 9 0 6 0;
#X connect 9 0 12 0;
#X connect 9 0 29 0;
#X connect 9 0 33 0;
#X connect 11 0 10 0;
#X connect 12 0 13 0;
#X connect 14 0 15 0;
#X connect 15 0 16 0;
#X connect 16 0 17 0;
#X connect 17 0 26 0;
#X connect 18 0 19 0;
#X connect 19 0 24 0;
#X connect 19 1 37 0;
#X connect 20 0 19 1;
#X connect 21 0 14 0;
#X connect 22 0 18 1;
#X connect 22 0 20 0;
#X connect 23 0 56 0;
#X connect 24 0 25 0;
#X connect 24 1 8 0;
#X connect 25 0 16 1;
#X connect 26 0 18 0;
#X connect 26 1 16 1;
#X connect 27 0 28 0;
#X connect 29 0 30 0;
#X connect 31 0 32 0;
#X connect 32 0 67 0;
#X connect 33 0 34 0;
#X connect 34 0 66 0;
#X connect 35 0 36 0;
#X connect 36 0 9 0;
#X connect 37 0 9 0;
#X connect 38 0 39 0;
#X connect 39 0 8 0;
#X connect 39 1 9 0;
#X connect 40 0 41 0;
#X connect 41 0 42 0;
#X connect 42 0 43 0;
#X connect 43 0 44 0;
#X connect 44 0 45 0;
#X connect 45 0 46 0;
#X connect 48 0 49 0;
#X connect 50 0 48 0;
#X connect 51 0 21 0;
#X connect 52 0 53 0;
#X connect 53 0 54 0;
#X connect 54 0 55 0;
#X connect 55 0 56 0;
#X connect 55 1 56 1;
#X connect 56 0 21 1;
#X connect 57 0 9 0;
#X connect 58 0 57 0;
#X connect 59 0 60 0;
#X connect 60 0 61 0;
#X connect 61 0 64 0;
#X connect 62 0 65 0;
#X connect 63 0 59 0;
#X connect 64 0 62 0;
#X restore 742 512 pd randomiser;
#N canvas 0 23 450 300 stepLogic 0;
#X obj 37 37 inlet;
#N canvas 1890 220 571 384 stepOutputLogic 0;
#X obj 37 37 inlet;
#X floatatom 38 64 5 0 15 0 step - -;
#N canvas 2482 23 878 851 advancedStepRead 0;
#X obj 37 37 inlet;
#X obj 169 399 t f f f f, f 47;
#X obj 169 420 + 0;
#X obj 262 420 + 1;
#X obj 353 420 + 2;
#X obj 445 420 + 3;
#X obj 169 441 tabread \$0-steps, f 9;
#X obj 261 457 tabread \$0-steps, f 8;
#X obj 352 457 tabread \$0-steps, f 8;
#X obj 444 457 tabread \$0-steps, f 8;
#X obj 169 313 +;
#X obj 172 118 * 4;
#X obj 37 58 t b f, f 23;
#X floatatom 135 241 5 0 0 0 voice - -;
#X obj 135 261 * 16;
#X obj 135 282 * 4;
#X msg 37 144 10;
#X obj 37 165 until;
#X obj 37 118 t b b, f 13;
#X msg 82 173 -1;
#X msg 37 186 1;
#X obj 37 207 + -1;
#X obj 37 228 int;
#X obj 37 249 t f f;
#X obj 37 680 pack 0 0 0 0 0, f 69;
#X obj 261 489 expr pow(2 \, $f1/12), f 11;
#X obj 169 579 - 1;
#X obj 37 701 outlet;
#X obj 169 600 t f f;
#X obj 70 643 > -1;
#X obj 37 662 spigot;
#X obj 311 118 r \$0-patBank;
#X obj 311 139 * 640;
#X text 354 138 10 voices * 16 steps * 4 values ==> 640 indices per
pat bank;
#X obj 169 334 +, f 18;
#X obj 352 489 sel 7;
#X obj 169 475 sel 6;
#X obj 105 547 + 1;
#X obj 105 502 array random \$0-probs, f 8;
#X obj 334 533 array random \$0-fxProbs, f 10;
#X connect 0 0 12 0;
#X connect 1 0 2 0;
#X connect 1 1 3 0;
#X connect 1 2 4 0;
#X connect 1 3 5 0;
#X connect 2 0 6 0;
#X connect 3 0 7 0;
#X connect 4 0 8 0;
#X connect 5 0 9 0;
#X connect 6 0 36 0;
#X connect 7 0 25 0;
#X connect 8 0 35 0;
#X connect 9 0 24 4;
#X connect 10 0 34 0;
#X connect 11 0 10 1;
#X connect 12 0 18 0;
#X connect 12 1 11 0;
#X connect 13 0 14 0;
#X connect 14 0 15 0;
#X connect 15 0 10 0;
#X connect 16 0 17 0;
#X connect 17 0 20 0;
#X connect 18 0 16 0;
#X connect 18 1 19 0;
#X connect 19 0 21 1;
#X connect 20 0 21 0;
#X connect 21 0 22 0;
#X connect 22 0 21 1;
#X connect 22 0 23 0;
#X connect 23 0 30 0;
#X connect 23 1 13 0;
#X connect 24 0 27 0;
#X connect 25 0 24 2;
#X connect 26 0 28 0;
#X connect 28 0 29 0;
#X connect 28 1 24 1;
#X connect 29 0 30 1;
#X connect 30 0 24 0;
#X connect 31 0 32 0;
#X connect 32 0 34 1;
#X connect 34 0 1 0;
#X connect 35 0 39 0;
#X connect 35 1 24 3;
#X connect 36 0 38 0;
#X connect 36 1 26 0;
#X connect 37 0 26 0;
#X connect 38 0 37 0;
#X connect 39 0 24 3;
#X restore 106 226 pd advancedStepRead;
#X f 8;
#X obj 45 111 r \$0-advanced, f 11;
#X obj 38 84 t b f, f 14;
#X obj 38 145 int;
#X obj 38 166 pack, f 14;
#X obj 38 187 route 0 1;
#N canvas 0 23 732 742 basicStepRead 0;
#X obj 37 37 inlet;
#X obj 169 360 + 0;
#X obj 169 397 tabread \$0-steps, f 9;
#X obj 169 313 +;
#X obj 172 118 * 4;
#X obj 37 58 t b f, f 23;
#X floatatom 135 241 5 0 0 0 voice - -;
#X obj 135 261 * 16;
#X obj 135 282 * 4;
#X msg 37 144 10;
#X obj 37 165 until;
#X obj 37 118 t b b, f 13;
#X msg 82 173 -1;
#X msg 37 186 1;
#X obj 37 207 + -1;
#X obj 37 228 int;
#X obj 37 249 t f f;
#X obj 169 429 - 1;
#X obj 37 551 outlet;
#X obj 169 450 t f f;
#X obj 70 413 > -1;
#X obj 37 432 spigot;
#X msg 37 453 \$1 bang;
#X obj 311 118 r \$0-patBank;
#X obj 311 139 * 640;
#X text 354 138 10 voices * 16 steps * 4 values ==> 640 indices per
pat bank;
#X connect 0 0 5 0;
#X connect 1 0 2 0;
#X connect 2 0 17 0;
#X connect 3 0 1 0;
#X connect 4 0 3 1;
#X connect 5 0 11 0;
#X connect 5 1 4 0;
#X connect 6 0 7 0;
#X connect 7 0 8 0;
#X connect 8 0 3 0;
#X connect 9 0 10 0;
#X connect 10 0 13 0;
#X connect 11 0 9 0;
#X connect 11 1 12 0;
#X connect 12 0 14 1;
#X connect 13 0 14 0;
#X connect 14 0 15 0;
#X connect 15 0 14 1;
#X connect 15 0 16 0;
#X connect 16 0 21 0;
#X connect 16 1 6 0;
#X connect 17 0 19 0;
#X connect 19 0 20 0;
#X connect 20 0 21 1;
#X connect 21 0 22 0;
#X connect 22 0 18 0;
#X connect 23 0 24 0;
#X connect 24 0 1 1;
#X restore 38 226 pd basicStepRead;
#X f 9;
#X obj 38 287 s \$0-glitchSeqOut;
#X connect 0 0 1 0;
#X connect 1 0 4 0;
#X connect 2 0 9 0;
#X connect 3 0 5 1;
#X connect 4 0 5 0;
#X connect 4 1 6 1;
#X connect 5 0 6 0;
#X connect 6 0 7 0;
#X connect 7 0 8 0;
#X connect 7 1 2 0;
#X connect 8 0 9 0;
#X restore 201 163 pd stepOutputLogic;
#N canvas 300 122 891 756 stepDispLOGIC 0;
#X obj 23 93 inlet;
#X obj 85 223 f \$0;
#X obj 85 202 t b f b, f 24;
#X obj 24 172 t f f;
#X obj 85 244 pack, f 10;
#X obj 41 333 f \$0;
#X obj 41 312 t b f b, f 24;
#X obj 41 354 pack, f 10;
#X obj 43 286 int;
#X msg 36 381 \; \$1-stepDisp\$2 color 1;
#X msg 85 265 \; \$1-stepDisp\$2 color 14;
#X obj 380 135 loadbang;
#X obj 380 156 t b b;
#X msg 380 235 1;
#X obj 380 256 + -1;
#X obj 380 277 int;
#X msg 419 235 -1;
#X msg 380 177 16;
#X obj 380 198 until;
#X obj 448 132 bng 15 250 50 0 empty empty empty 17 7 0 10 -262144
-1 -1;
#X connect 0 0 3 0;
#X connect 1 0 4 0;
#X connect 2 0 1 0;
#X connect 2 1 4 1;
#X connect 2 2 8 0;
#X connect 3 0 8 1;
#X connect 3 1 2 0;
#X connect 4 0 10 0;
#X connect 5 0 7 0;
#X connect 6 0 5 0;
#X connect 6 1 7 1;
#X connect 7 0 9 0;
#X connect 8 0 6 0;
#X connect 11 0 12 0;
#X connect 12 0 17 0;
#X connect 12 1 16 0;
#X connect 13 0 14 0;
#X connect 14 0 15 0;
#X connect 15 0 14 1;
#X connect 15 0 6 0;
#X connect 16 0 14 1;
#X connect 17 0 18 0;
#X connect 18 0 13 0;
#X connect 19 0 12 0;
#X coords 0 756 1 755 720 10 0;
#X restore 63 168 pd stepDispLOGIC;
#X obj 142 128 t f f, f 21;
#X connect 0 0 3 0;
#X connect 3 0 2 0;
#X connect 3 1 1 0;
#X restore 657 512 pd stepLogic;
#N canvas 0 23 450 300 loadmeter 0;
#X floatatom 163 104 0 0 0 0 load_meter - -;
#X obj 243 182 cputime;
#X obj 243 62 loadbang;
#X obj 243 126 metro 1000;
#X obj 243 154 t b b;
#X obj 243 242 * 0.1;
#X obj 243 211 int;
#X text 266 92 <= on/off;
#X obj 243 93 tgl 15 0 empty empty empty 17 7 0 10 -262144 -1 -1 1
1;
#X connect 1 0 6 0;
#X connect 2 0 8 0;
#X connect 3 0 4 0;
#X connect 4 0 1 0;
#X connect 4 1 1 1;
#X connect 5 0 0 0;
#X connect 6 0 5 0;
#X connect 8 0 3 0;
#X coords 0 -1 1 1 85 20 2 100 100;
#X restore 0 215 pd loadmeter;
#X obj 657 462 r \$0-beat;
#N canvas 0 23 659 300 advanced/basicDisplay_LOGIC 0;
#X obj 45 18 r \$0-advanced_snd;
#X msg 36 203 \; \$1-advancedCanvas color \$2;
#X floatatom 67 138 5 0 0 0 - - -;
#X obj 31 161 pack \$0 0;
#X obj 71 61 * 10;
#X obj 46 39 t b f f, f 21;
#X obj 196 71 sel 0 1;
#X obj 187 101 f \$0;
#X msg 165 134 \; \$1-advancedCanvas label basic;
#X obj 375 100 f \$0;
#X msg 353 133 \; \$1-advancedCanvas label advanced;
#X obj 360 227 s \$0-advanced;
#X obj 360 207 r \$0-advanced_snd;
#X connect 0 0 5 0;
#X connect 3 0 1 0;
#X connect 4 0 3 1;
#X connect 5 0 3 0;
#X connect 5 1 4 0;
#X connect 5 2 6 0;
#X connect 6 0 7 0;
#X connect 6 1 9 0;
#X connect 7 0 8 0;
#X connect 9 0 10 0;
#X connect 12 0 11 0;
#X restore 834 67 pd advanced/basicDisplay_LOGIC;
#X msg 742 196 16;
#X obj 742 217 s \$0-nBeats_rec;
#X obj 1058 419 r \$1-ioi;
#X obj 1058 450 /, f 11;
#X obj 1058 471 s \$0-ioi;
#X obj 1121 379 r \$0-division_snd;
#X obj 1121 400 expr pow(2 \, $f1);
#X obj 1121 421 t b f;
#X obj 1050 248 r \$0-toStepsArray;
#N canvas 1618 98 1354 814 pat&ChainLogic 0;
#X obj 383 37 r \$0-banks_snd;
#X obj 503 37 r \$0-1to4_snd;
#X obj 598 37 r \$0-5to8_snd;
#X obj 687 37 r \$0-9to12_snd;
#X obj 791 37 r \$0-13to16_snd;
#X obj 598 58 + 4;
#X obj 687 79 + 4;
#X obj 687 58 + 4;
#X obj 791 58 + 4;
#X obj 791 79 + 4;
#X obj 791 100 + 4;
#X obj 544 153 int;
#X obj 544 174 t f f, f 9;
#X obj 383 269 +, f 32;
#X obj 544 195 t b f;
#X obj 383 58 * 16;
#X obj 383 485 s \$0-patBank;
#X obj 110 374 r \$0-currentVoice;
#X obj 47 396 int, f 11;
#X obj 47 417 s \$0-currentVoice;
#N canvas 0 23 836 458 displayLogic 0;
#X obj 11 297 s \$0-1to4_rec;
#X obj 105 297 s \$0-5to8_rec;
#X obj 194 297 s \$0-9to12_rec;
#X obj 298 297 s \$0-13to16_rec;
#X obj 84 42 / 4;
#X obj 84 63 int;
#X obj 13 138 == 0;
#X obj 114 133 == 1;
#X obj 176 133 == 2;
#X obj 279 133 == 3;
#X msg 14 236 color 1 \$1;
#X obj 13 159 * -1;
#X obj 13 180 + 1;
#X msg 118 233 color 1 \$1;
#X obj 117 156 * -1;
#X obj 117 177 + 1;
#X msg 201 242 color 1 \$1;
#X obj 200 165 * -1;
#X obj 200 186 + 1;
#X msg 297 248 color 1 \$1;
#X obj 296 171 * -1;
#X obj 296 192 + 1;
#X obj 82 8 inlet;
#X connect 4 0 5 0;
#X connect 5 0 6 0;
#X connect 5 0 7 0;
#X connect 5 0 8 0;
#X connect 5 0 9 0;
#X connect 6 0 11 0;
#X connect 7 0 14 0;
#X connect 8 0 17 0;
#X connect 9 0 20 0;
#X connect 10 0 0 0;
#X connect 11 0 12 0;
#X connect 12 0 10 0;
#X connect 13 0 1 0;
#X connect 14 0 15 0;
#X connect 15 0 13 0;
#X connect 16 0 2 0;
#X connect 17 0 18 0;
#X connect 18 0 16 0;
#X connect 19 0 3 0;
#X connect 20 0 21 0;
#X connect 21 0 19 0;
#X connect 22 0 4 0;
#X restore 595 195 pd displayLogic;
#X obj 800 324 spigot;
#X obj 800 345 t f b;
#X obj 827 371 array size \$0-patChain;
#X obj 1125 364 array define \$0-patChain 1;
#X obj 877 420 + 1;
#X obj 877 447 array size \$0-patChain;
#X obj 827 420 - 1;
#X obj 800 447 tabwrite \$0-patChain, f 11;
#X obj 383 460 t f f, f 16;
#N canvas 0 23 931 634 copPat 0;
#X obj 89 94 t f f;
#X obj 121 136 spigot;
#X obj 121 157 t b f, f 14;
#X obj 106 206 int;
#X msg 94 263 640;
#X obj 94 284 until;
#X msg 94 305 1;
#X obj 94 326 + -1, f 7;
#X obj 94 347 int;
#X msg 129 264 -1;
#X obj 224 305 * 640;
#X obj 94 368 t f f;
#X obj 170 397 +;
#X obj 170 418 tabread \$0-steps;
#X obj 100 244 t b b f, f 14;
#X obj 154 311 * 640;
#X obj 115 414 +;
#X obj 115 445 pack, f 9;
#X obj 115 494 tabwrite \$0-steps;
#X msg 115 466 \$2 \$1;
#X obj 89 69 inlet;
#X obj 154 98 r \$0-shiftKey;
#X obj 538 225 * 3;
#X obj 538 246 + 40960;
#X obj 392 349 + 0;
#X obj 505 349 + 1;
#X obj 631 349 + 2;
#X obj 477 525 tabwrite \$0-steps;
#X obj 418 349 r \$0-division_snd, f 12;
#X obj 532 349 r \$0-swing_snd, f 12;
#X obj 660 349 r \$0-nBeats_snd, f 10;
#X floatatom 430 397 5 0 0 0 - - -;
#X obj 392 399 pack;
#X obj 505 392 pack, f 5;
#X obj 631 398 pack, f 6;
#X msg 477 502 \$2 \$1;
#X connect 0 0 3 1;
#X connect 0 1 1 0;
#X connect 1 0 2 0;
#X connect 2 0 3 0;
#X connect 2 1 10 0;
#X connect 2 1 22 0;
#X connect 3 0 14 0;
#X connect 4 0 5 0;
#X connect 5 0 6 0;
#X connect 6 0 7 0;
#X connect 7 0 8 0;
#X connect 8 0 7 1;
#X connect 8 0 11 0;
#X connect 9 0 7 1;
#X connect 10 0 16 1;
#X connect 11 0 16 0;
#X connect 11 1 12 0;
#X connect 12 0 13 0;
#X connect 13 0 17 1;
#X connect 14 0 4 0;
#X connect 14 1 9 0;
#X connect 14 2 15 0;
#X connect 15 0 12 1;
#X connect 16 0 17 0;
#X connect 17 0 19 0;
#X connect 19 0 18 0;
#X connect 20 0 0 0;
#X connect 21 0 1 1;
#X connect 22 0 23 0;
#X connect 23 0 24 0;
#X connect 23 0 25 0;
#X connect 23 0 26 0;
#X connect 24 0 32 0;
#X connect 25 0 33 0;
#X connect 26 0 34 0;
#X connect 28 0 31 0;
#X connect 28 0 32 1;
#X connect 29 0 33 1;
#X connect 30 0 34 1;
#X connect 32 0 35 0;
#X connect 33 0 35 0;
#X connect 34 0 35 0;
#X connect 35 0 27 0;
#X restore 476 485 pd copPat;
#X msg 851 344 1;
#X obj 606 174 r \$0-patDisplay;
#X obj 325 551 r \$0-chainDispMess;
#X obj 325 572 t f b;
#X obj 352 594 array size \$0-patChain;
#X obj 325 637 pack, f 5;
#X msg 325 658 symbol \$1_of_\$2;
#X obj 352 615 - 1;
#X obj 325 679 s \$0-chainPatDispSymbol_rec;
#X obj 325 593 + 1;
#X obj 47 332 r \$0-patBank;
#X obj 47 353 t b;
#X obj 47 374 del 5;
#N canvas 109 23 873 669 patChainReadLogic 0;
#X obj 137 42 inlet;
#X obj 137 299 spigot, f 22;
#X obj 292 164 r \$0-chain_snd;
#X obj 292 185 t f b, f 11;
#X obj 292 271 *, f 11;
#X obj 355 207 array size \$0-patChain;
#X obj 355 228 - 1;
#X obj 355 249 > 0;
#X obj 137 70 sel 0;
#X msg 137 91 1, f 2;
#X obj 137 112 + -1;
#X obj 137 133 int;
#X obj 137 273 %;
#X obj 137 154 t f b;
#X obj 137 361 s \$0-chainDispMess;
#X obj 359 492 s \$0-patDisplay;
#X obj 358 440 int;
#X obj 358 461 t f f, f 18;
#X obj 358 419 % 16;
#X msg 463 514 set \$1;
#X obj 302 549 s \$0-1to4_rec;
#X obj 397 549 s \$0-5to8_rec;
#X obj 486 549 s \$0-9to12_rec;
#X obj 590 549 s \$0-13to16_rec;
#X obj 260 429 / 16;
#X obj 260 450 int;
#X msg 260 471 set \$1;
#X obj 260 492 s \$0-banks_rec;
#X obj 463 492 % 4;
#X obj 260 341 tabread \$0-patChain;
#X obj 137 320 t f f, f 21;
#X obj 260 361 t f f, f 17;
#X obj 359 381 s \$0-patBank;
#X obj 260 381 pipe 5;
#X obj 137 341 pipe 5;
#X obj 152 186 array size \$0-patChain;
#X obj 152 220 - 1;
#X connect 0 0 8 0;
#X connect 1 0 30 0;
#X connect 2 0 3 0;
#X connect 3 0 4 0;
#X connect 3 1 5 0;
#X connect 4 0 1 1;
#X connect 5 0 6 0;
#X connect 6 0 7 0;
#X connect 7 0 4 1;
#X connect 8 0 9 0;
#X connect 9 0 10 0;
#X connect 10 0 11 0;
#X connect 11 0 10 1;
#X connect 11 0 13 0;
#X connect 12 0 1 0;
#X connect 13 0 12 0;
#X connect 13 1 35 0;
#X connect 16 0 17 0;
#X connect 17 0 15 0;
#X connect 17 1 28 0;
#X connect 18 0 16 0;
#X connect 19 0 20 0;
#X connect 19 0 21 0;
#X connect 19 0 23 0;
#X connect 19 0 22 0;
#X connect 24 0 25 0;
#X connect 25 0 26 0;
#X connect 26 0 27 0;
#X connect 28 0 19 0;
#X connect 29 0 31 0;
#X connect 30 0 34 0;
#X connect 30 1 29 0;
#X connect 31 0 33 0;
#X connect 31 1 32 0;
#X connect 33 0 18 0;
#X connect 33 0 24 0;
#X connect 34 0 14 0;
#X connect 35 0 36 0;
#X connect 36 0 12 1;
#X restore 83 103 pd patChainReadLogic;
#X obj 83 78 inlet;
#X obj 925 561 loadbang;
#X obj 976 651 s \$0-arrayName;
#X obj 904 561 bng 15 250 50 0 empty empty empty 17 7 0 10 -262144
-1 -1;
#X obj 976 606 f \$0;
#X msg 976 628 symbol \$1-steps;
#X text 1051 136 10 voices of 16 steps w/4vars each \; 1 - play mode
\; 2 - tape speed \; 3 - fx \; 4 - sync;
#N canvas 0 23 991 650 readSaveClearPat_LOGIC 0;
#X msg 238 62 const 0;
#X obj 121 42 t b b, f 20;
#X obj 121 20 r \$0-clearPat_snd;
#X obj 446 36 r \$0-savePat_snd;
#X obj 340 412 s \$0-currentVoice;
#X obj 340 210 r \$0-readPat_snd;
#X obj 340 291 openpanel;
#X obj 340 312 pack s \$0;
#X msg 457 391 \; \$2-steps read \$1;
#X obj 340 333 t b l, f 20;
#X obj 445 147 pack s \$0;
#X obj 445 107 savepanel;
#X msg 445 168 \; \$2-steps write \$1.txt;
#X obj 229 333 r \$0-currentVoice;
#X obj 340 390 int;
#X obj 229 354 route bang, f 17;
#X obj 9 20 r \$0-currentVoice;
#X obj 121 76 int;
#X obj 9 41 route bang, f 17;
#X obj 121 102 s \$0-currentVoice;
#X obj 340 264 pdcontrol;
#X msg 340 234 dir;
#X obj 446 85 pdcontrol;
#X msg 446 55 dir;
#X obj 238 83 s \$0-toStepsArray;
#X obj 104 355 route bang, f 17;
#X obj 104 333 r \$0-patBank;
#X obj 313 481 int;
#X obj 313 502 s \$0-patBank;
#X connect 0 0 24 0;
#X connect 1 0 17 0;
#X connect 1 1 0 0;
#X connect 2 0 1 0;
#X connect 3 0 23 0;
#X connect 5 0 21 0;
#X connect 6 0 7 0;
#X connect 7 0 9 0;
#X connect 9 0 14 0;
#X connect 9 0 27 0;
#X connect 9 1 8 0;
#X connect 10 0 12 0;
#X connect 11 0 10 0;
#X connect 13 0 15 0;
#X connect 14 0 4 0;
#X connect 15 1 14 1;
#X connect 16 0 18 0;
#X connect 17 0 19 0;
#X connect 18 1 17 1;
#X connect 20 0 6 0;
#X connect 21 0 20 0;
#X connect 22 0 11 0;
#X connect 23 0 22 0;
#X connect 25 1 27 1;
#X connect 26 0 25 0;
#X connect 27 0 28 0;
#X restore 1122 603 pd readSaveClearPat_LOGIC;
#X obj 927 680 s \$0-clearPat_snd;
#X obj 851 323 r \$0-clearChain_snd;
#N canvas 0 23 339 398 OLD 0;
#X obj 42 35 array size \$0-patChain;
#X obj 97 97 - 1;
#X obj 97 142 until;
#X msg 97 163 1;
#X obj 97 184 + -1, f 7;
#X obj 97 205 int;
#X obj 97 79 t f b, f 7;
#X msg 136 161 -1;
#X obj 97 226 tabread \$0-patChain, f 11;
#X obj 97 118 sel 0;
#X obj 42 56 t b f b, f 19;
#X msg 97 278 add2 \$1;
#X msg 42 313 set chain 5 6;
#X msg 177 272 set \, add2 set chain, f 11;
#X obj 42 339 s \$0-patChainDisp;
#X obj 97 257 + 1;
#X obj 163 318 r \$0-patChainDisp;
#X msg 162 342 chain 5 6;
#X connect 0 0 10 0;
#X connect 1 0 9 0;
#X connect 2 0 3 0;
#X connect 3 0 4 0;
#X connect 4 0 5 0;
#X connect 5 0 4 1;
#X connect 5 0 8 0;
#X connect 6 0 1 0;
#X connect 6 1 7 0;
#X connect 7 0 4 1;
#X connect 8 0 15 0;
#X connect 9 1 2 0;
#X connect 10 0 12 0;
#X connect 10 1 6 0;
#X connect 10 2 13 0;
#X connect 11 0 12 0;
#X connect 12 0 14 0;
#X connect 13 0 12 0;
#X connect 15 0 11 0;
#X connect 16 0 17 0;
#X restore 1144 72 pd OLD;
#X obj 833 297 r \$0-altKey;
#X obj 595 364 r \$0-altKey;
#X obj 595 385 * -1;
#X obj 595 406 + 1;
#X obj 643 427 tgl 15 0 empty empty empty 17 7 0 10 -262144 -1 -1 0
1;
#X obj 383 440 spigot 1, f 38;
#X obj 383 290 t f f, f 70;
#N canvas 0 23 967 597 nBeats&Swing&divisionLogic 0;
#X obj 343 33 r \$0-patBank;
#X obj 270 88 * 3;
#X text 594 81 10 voices of 16 steps w/4vars each \; 1 - play mode
\; 2 - tape speed \; 3 - fx \; 4 - sync \; ==> 640 vars per bank \;
16*4 banks ==> 40960 steps \; then 16*4 * 3: for division \, swing
\, beats3;
#X obj 270 109 + 40960;
#X obj 55 191 + 0;
#X obj 175 191 + 1;
#X obj 276 191 + 2;
#X obj 343 54 t f f, f 28;
#X obj 512 98 * 3;
#X obj 512 119 + 40960;
#X obj 486 170 + 0;
#X obj 582 221 + 1;
#X obj 711 214 + 2;
#X obj 465 347 tabwrite \$0-steps;
#X obj 465 283 pack;
#X obj 501 258 pack, f 14;
#X obj 634 259 pack, f 13;
#X obj 407 218 r \$0-division_snd, f 12;
#X obj 55 214 tabread \$0-steps, f 8;
#X obj 175 214 tabread \$0-steps, f 8;
#X obj 276 214 tabread \$0-steps, f 8;
#X obj 88 297 s \$0-division_rec, f 12;
#X obj 175 251 s \$0-swing_rec, f 12;
#X obj 276 246 sel 0;
#X msg 276 267 16;
#X obj 303 290 s \$0-nBeats_rec;
#X obj 501 221 r \$0-swing_snd, f 12;
#X obj 634 214 r \$0-nBeats_snd, f 10;
#X floatatom 407 261 5 0 0 0 - - -;
#X floatatom 55 246 5 0 0 0 - - -;
#X connect 0 0 7 0;
#X connect 1 0 3 0;
#X connect 3 0 4 0;
#X connect 3 0 5 0;
#X connect 3 0 6 0;
#X connect 4 0 18 0;
#X connect 5 0 19 0;
#X connect 6 0 20 0;
#X connect 7 0 1 0;
#X connect 7 1 8 0;
#X connect 8 0 9 0;
#X connect 9 0 10 0;
#X connect 9 0 11 0;
#X connect 9 0 12 0;
#X connect 10 0 14 1;
#X connect 11 0 15 1;
#X connect 12 0 16 1;
#X connect 14 0 13 0;
#X connect 15 0 13 0;
#X connect 16 0 13 0;
#X connect 17 0 14 0;
#X connect 17 0 28 0;
#X connect 18 0 21 0;
#X connect 18 0 29 0;
#X connect 19 0 22 0;
#X connect 20 0 23 0;
#X connect 23 0 24 0;
#X connect 23 1 25 0;
#X connect 24 0 25 0;
#X connect 26 0 15 0;
#X connect 27 0 16 0;
#X restore 80 583 pd nBeats&Swing&divisionLogic;
#X connect 0 0 15 0;
#X connect 1 0 11 0;
#X connect 2 0 5 0;
#X connect 3 0 7 0;
#X connect 4 0 8 0;
#X connect 5 0 11 0;
#X connect 6 0 11 0;
#X connect 7 0 6 0;
#X connect 8 0 9 0;
#X connect 9 0 10 0;
#X connect 10 0 11 0;
#X connect 11 0 12 0;
#X connect 12 0 14 0;
#X connect 12 1 20 0;
#X connect 13 0 62 0;
#X connect 14 0 13 0;
#X connect 14 1 13 1;
#X connect 15 0 13 0;
#X connect 17 0 18 1;
#X connect 18 0 19 0;
#X connect 21 0 22 0;
#X connect 22 0 28 0;
#X connect 22 1 23 0;
#X connect 23 0 25 0;
#X connect 23 0 27 0;
#X connect 25 0 26 0;
#X connect 27 0 28 1;
#X connect 29 0 16 0;
#X connect 29 1 30 0;
#X connect 31 0 23 0;
#X connect 32 0 20 0;
#X connect 33 0 34 0;
#X connect 34 0 40 0;
#X connect 34 1 35 0;
#X connect 35 0 38 0;
#X connect 36 0 37 0;
#X connect 37 0 39 0;
#X connect 38 0 36 1;
#X connect 40 0 36 0;
#X connect 41 0 42 0;
#X connect 42 0 43 0;
#X connect 43 0 18 0;
#X connect 45 0 44 0;
#X connect 46 0 49 0;
#X connect 46 0 53 0;
#X connect 48 0 49 0;
#X connect 48 0 53 0;
#X connect 49 0 50 0;
#X connect 50 0 47 0;
#X connect 54 0 31 0;
#X connect 56 0 21 1;
#X connect 57 0 58 0;
#X connect 58 0 59 0;
#X connect 59 0 60 0;
#X connect 59 0 61 1;
#X connect 61 0 29 0;
#X connect 62 0 61 0;
#X connect 62 1 21 0;
#X restore 828 512 pd pat&ChainLogic;
#X text 1006 136 10 voices of 16 steps w/4vars each \; 1 - play mode
\; 2 - tape speed \; 3 - fx \; 4 - sync \; ==> 640 vars per bank \;
16*4 banks ==> 40960 steps \; then 16*4 * 3: for division \, swing
\, beats3 \; ==> 40960 +(16*4*3) = 41152;
#X obj 1050 268 array define \$0-steps 41152;
#N canvas 2000 132 1245 369 gopLogic 0;
#X obj 642 7 r \$0-currentVoice;
#X floatatom 529 29 5 0 0 0 - - -;
#X obj 643 58 t f b, f 22;
#X obj 772 86 array size \$0-voices;
#X floatatom 696 122 5 0 0 0 - - -;
#X obj 772 107 t f b, f 7;
#X obj 772 128 until;
#X msg 772 149 1;
#X obj 772 170 + -1;
#X obj 772 191 int;
#X obj 783 257 tabread \$0-voices;
#X msg 811 149 -1;
#X msg 783 289 \; \$1-samplerVoice donecanvasdialog 1 -1 0 0 -1 1 1
200 123 10 10 \; \$1-samplerVoice dirty 0;
#X obj 812 32 bng 15 250 50 0 empty empty empty 17 7 0 10 -262144 -1
-1;
#X obj 550 144 tabread \$0-voices;
#X msg 781 14 0;
#X floatatom 550 165 5 0 0 0 - - -;
#X obj 642 28 change -1;
#X msg 554 86 0;
#X msg 185 215 \; \$1-samplerVoice donecanvasdialog 1 -1 2 0 -1 1 1
200 123 10 10 \; \$1-samplerVoice dirty 0;
#X connect 0 0 1 0;
#X connect 0 0 17 0;
#X connect 2 0 14 0;
#X connect 2 1 3 0;
#X connect 3 0 4 0;
#X connect 3 0 5 0;
#X connect 5 0 6 0;
#X connect 5 1 11 0;
#X connect 6 0 7 0;
#X connect 7 0 8 0;
#X connect 8 0 9 0;
#X connect 9 0 10 0;
#X connect 9 0 8 1;
#X connect 10 0 12 0;
#X connect 11 0 8 1;
#X connect 13 0 3 0;
#X connect 14 0 19 0;
#X connect 14 0 16 0;
#X connect 15 0 2 0;
#X connect 17 0 2 0;
#X connect 18 0 14 0;
#X coords 0 0 1 1 85 60 0;
#X restore 834 88 pd gopLogic;
#N canvas 0 23 450 300 glitch 0;
#N canvas 608 47 714 368 rev 0;
#X obj 146 229 rev3~ 100 90 3000 20, f 28;
#X obj 64 81 catch~ \$0-revL;
#X obj 203 82 catch~ \$0-revR;
#X obj 64 102 hip~ 100;
#X obj 203 102 hip~ 100;
#X obj 231 132 r \$0-revLevel_snd;
#X obj 361 123 r \$0-revLiveness_snd;
#X obj 489 126 r \$0-revXOver_snd;
#X obj 502 161 r \$0-revDamping_snd;
#X obj 146 271 throw~ \$0-outL;
#X obj 241 270 throw~ \$0-outR;
#X connect 0 0 9 0;
#X connect 0 1 10 0;
#X connect 1 0 3 0;
#X connect 2 0 4 0;
#X connect 3 0 0 0;
#X connect 4 0 0 1;
#X connect 5 0 0 2;
#X connect 6 0 0 3;
#X connect 7 0 0 4;
#X connect 8 0 0 5;
#X restore 16 40 pd rev;
#N canvas 103 95 1257 783 flange 0;
#X obj 61 393 catch~ \$0-flangeL;
#X obj 61 437 delwrite~ \$0-flangeL 1000;
#X obj 186 289 vd~ \$0-flangeL;
#X obj 187 215 *~ 5;
#X obj 188 195 osc~ 2;
#X obj 186 266 +~ 5;
#X obj 94 330 *~;
#X obj 233 212 *;
#X obj 277 235 t b f;
#X obj 233 191 r \$0-flangeDepthL_snd;
#X obj 277 214 r \$0-flangeDelL_snd;
#X obj 222 126 r \$0-flangeRateL_snd;
#X obj 18 188 r \$0-flangeFBL_snd;
#X obj 18 209 sig~;
#X obj 657 219 *~ 5;
#X obj 658 199 osc~ 2;
#X obj 656 270 +~ 5;
#X obj 564 334 *~;
#X obj 703 216 *;
#X obj 747 239 t b f;
#X obj 488 213 sig~;
#X obj 488 192 r \$0-flangeFBR_snd;
#X obj 692 130 r \$0-flangeRateR_snd;
#X obj 703 195 r \$0-flangeDepthR_snd;
#X obj 747 218 r \$0-flangeDelR_snd;
#X obj 656 302 vd~ \$0-flangeR;
#X obj 531 397 catch~ \$0-flangeR;
#X obj 531 441 delwrite~ \$0-flangeR 1000;
#X obj 186 330 throw~ \$0-outL;
#X obj 655 334 throw~ \$0-outR;
#X obj 61 414 hip~ 100;
#X obj 531 418 hip~ 100;
#X connect 0 0 30 0;
#X connect 2 0 6 1;
#X connect 2 0 28 0;
#X connect 3 0 5 0;
#X connect 4 0 3 0;
#X connect 5 0 2 0;
#X connect 6 0 1 0;
#X connect 7 0 3 1;
#X connect 8 0 7 0;
#X connect 8 1 7 1;
#X connect 8 1 5 1;
#X connect 9 0 7 0;
#X connect 10 0 8 0;
#X connect 11 0 4 0;
#X connect 12 0 13 0;
#X connect 13 0 6 0;
#X connect 14 0 16 0;
#X connect 15 0 14 0;
#X connect 16 0 25 0;
#X connect 17 0 27 0;
#X connect 18 0 14 1;
#X connect 19 0 18 0;
#X connect 19 1 18 1;
#X connect 19 1 16 1;
#X connect 20 0 17 0;
#X connect 21 0 20 0;
#X connect 22 0 15 0;
#X connect 23 0 18 0;
#X connect 24 0 19 0;
#X connect 25 0 17 1;
#X connect 25 0 29 0;
#X connect 26 0 31 0;
#X connect 30 0 1 0;
#X connect 31 0 27 0;
#X restore 66 40 pd flange;
#N canvas 457 281 983 510 pingpong 0;
#X obj 243 144 line~;
#X obj 243 165 vd~ delL;
#X obj 16 347 delwrite~ delL 1000;
#X obj 500 144 line~;
#X obj 500 166 vd~ delR;
#X obj 798 347 delwrite~ delR 1000;
#X obj 500 253 lop~ 1000, f 14;
#X obj 243 250 lop~ 1000, f 14;
#X obj 243 206 expr~ tanh($v1), f 9;
#X obj 500 208 expr~ tanh($v1), f 9;
#X obj 663 299 *~;
#X obj 115 299 *~;
#X obj 799 201 hip~ 100;
#X obj 15 214 hip~ 100;
#X obj 15 190 catch~ \$0-pingL;
#X obj 799 180 catch~ \$0-pingR;
#X obj 243 32 r \$0-pingpongDelL_snd;
#X obj 243 100 *;
#X obj 256 55 r \$0-ioi;
#X obj 256 76 t b f;
#X obj 500 101 *;
#X obj 512 57 r \$0-ioi;
#X obj 512 78 t b f;
#X obj 499 38 r \$0-pingpongDelR_snd;
#X msg 500 123 \$1 5;
#X msg 243 123 \$1 5;
#X obj 115 190 r \$0-pingpongFBL_snd;
#X obj 115 211 sig~;
#X obj 115 232 lop~ 15;
#X obj 666 202 sig~;
#X obj 666 223 lop~ 15;
#X obj 666 181 r \$0-pingpongFBR_snd;
#X obj 243 186 *~, f 16;
#X obj 317 150 lop~ 15;
#X obj 317 108 r \$0-pingpongDriveL_snd;
#X obj 500 189 *~, f 16;
#X obj 574 153 lop~ 15;
#X obj 574 111 r \$0-pingpongDriveR_snd;
#X obj 317 129 sig~ 1;
#X obj 574 132 sig~ 1;
#X obj 317 206 r \$0-pingpongLPL_snd, f 14;
#X obj 564 208 r \$0-pingpongLPR_snd, f 14;
#X obj 244 305 throw~ \$0-outL;
#X obj 500 305 throw~ \$0-outR;
#X connect 0 0 1 0;
#X connect 1 0 32 0;
#X connect 3 0 4 0;
#X connect 4 0 35 0;
#X connect 6 0 10 0;
#X connect 6 0 43 0;
#X connect 7 0 11 1;
#X connect 7 0 42 0;
#X connect 8 0 7 0;
#X connect 9 0 6 0;
#X connect 10 0 5 0;
#X connect 11 0 2 0;
#X connect 12 0 5 0;
#X connect 13 0 2 0;
#X connect 14 0 13 0;
#X connect 15 0 12 0;
#X connect 16 0 17 0;
#X connect 17 0 25 0;
#X connect 18 0 19 0;
#X connect 19 0 17 0;
#X connect 19 1 17 1;
#X connect 20 0 24 0;
#X connect 21 0 22 0;
#X connect 22 0 20 0;
#X connect 22 1 20 1;
#X connect 23 0 20 0;
#X connect 24 0 3 0;
#X connect 25 0 0 0;
#X connect 26 0 27 0;
#X connect 27 0 28 0;
#X connect 28 0 11 0;
#X connect 29 0 30 0;
#X connect 30 0 10 1;
#X connect 31 0 29 0;
#X connect 32 0 8 0;
#X connect 33 0 32 1;
#X connect 34 0 38 0;
#X connect 35 0 9 0;
#X connect 36 0 35 1;
#X connect 37 0 39 0;
#X connect 38 0 33 0;
#X connect 39 0 36 0;
#X connect 40 0 7 1;
#X connect 41 0 6 1;
#X restore 131 40 pd pingpong;
#N canvas 0 23 724 516 ringMod 0;
#X obj 462 261 catch~ \$0-ringR;
#X obj 88 261 catch~ \$0-ringL;
#X obj 88 289 *~, f 19;
#X obj 381 292 *~, f 14;
#X obj 199 261 osc~;
#X obj 199 159 -~ 0.1;
#X obj 199 180 +~ 1;
#X obj 199 201 wrap~;
#X obj 381 261 osc~;
#X obj 381 180 +~ 1;
#X obj 381 201 wrap~;
#X obj 381 159 +~ 0.1;
#X obj 381 220 *~ 1000;
#X obj 199 220 *~ 1000;
#X obj 228 75 phasor~ 0.5;
#X obj 199 241 +~ 100;
#X obj 381 241 +~ 100;
#X obj 88 336 throw~ \$0-outL;
#X obj 381 336 throw~ \$0-outR;
#X obj 88 310 hip~ 100;
#X obj 381 313 hip~ 100;
#X obj 441 81 r \$0-ringSpread_snd;
#X obj 98 21 r \$0-ringVar_snd;
#X floatatom 441 102 5 0 0 0 - - -;
#X floatatom 98 42 5 0 0 0 - - -;
#X obj 430 181 r \$0-ringRange_snd;
#X obj 239 193 r \$0-ringRange_snd;
#X obj 235 129 r \$0-ringSpread_snd;
#X obj 439 228 r \$0-ringBase_snd;
#X obj 253 232 r \$0-ringBase_snd;
#X connect 0 0 3 1;
#X connect 1 0 2 0;
#X connect 2 0 19 0;
#X connect 3 0 20 0;
#X connect 4 0 2 1;
#X connect 5 0 6 0;
#X connect 6 0 7 0;
#X connect 7 0 13 0;
#X connect 8 0 3 0;
#X connect 9 0 10 0;
#X connect 10 0 12 0;
#X connect 11 0 9 0;
#X connect 12 0 16 0;
#X connect 13 0 15 0;
#X connect 14 0 5 0;
#X connect 14 0 11 0;
#X connect 15 0 4 0;
#X connect 16 0 8 0;
#X connect 19 0 17 0;
#X connect 20 0 18 0;
#X connect 21 0 11 1;
#X connect 21 0 23 0;
#X connect 22 0 14 0;
#X connect 22 0 24 0;
#X connect 25 0 12 1;
#X connect 26 0 13 1;
#X connect 27 0 5 1;
#X connect 28 0 16 1;
#X connect 29 0 15 1;
#X restore 211 40 pd ringMod;
#N canvas 0 23 1411 729 spectralDelay 0;
#X obj 372 22 catch~ \$0-spectralDelR;
#X obj 103 19 catch~ \$0-spectralDelL;
#X msg 1138 186 0;
#X obj 1040 231 osc~;
#X obj 1040 183 samplerate~;
#X obj 1040 254 *~ -0.5;
#X obj 1040 277 +~ 0.5;
#X obj 1032 160 bng 15 250 50 0 empty empty empty 0 -6 0 8 -262144
-1 -1;
#X text 1088 229 period 512;
#X obj 1032 302 tabwrite~ \$0-hanning;
#X obj 1040 207 / 512;
#N canvas 27 23 381 830 spectralDelL 0;
#X obj 30 25 inlet~;
#X obj 37 83 rfft~;
#X obj 32 56 *~, f 10;
#X obj 92 35 tabreceive~ \$0-hanning;
#X obj 55 485 rifft~;
#X obj 59 595 outlet~;
#X obj 55 527 *~;
#X obj 109 549 tabreceive~ \$0-hanning;
#X obj 234 456 vd~ \$0-sdL2;
#X obj 246 41 block~ 512 4;
#X obj 109 195 tabreceive~ \$0-sdtL;
#X obj 74 453 vd~ \$0-sdL1;
#X obj 25 120 delwrite~ \$0-sdL1 10000;
#X obj 185 123 delwrite~ \$0-sdL2 10000;
#X obj 113 252 -~;
#X obj 144 215 wrap~;
#X obj 112 354 *~ 512;
#X obj 112 375 /~ 44.1;
#X obj 55 506 /~ 768;
#X connect 0 0 2 0;
#X connect 1 0 12 0;
#X connect 1 1 13 0;
#X connect 2 0 1 0;
#X connect 3 0 2 1;
#X connect 4 0 18 0;
#X connect 6 0 5 0;
#X connect 7 0 6 1;
#X connect 8 0 4 1;
#X connect 10 0 14 0;
#X connect 10 0 15 0;
#X connect 11 0 4 0;
#X connect 14 0 16 0;
#X connect 15 0 14 1;
#X connect 16 0 17 0;
#X connect 17 0 11 0;
#X connect 17 0 8 0;
#X connect 18 0 6 0;
#X restore 38 133 pd spectralDelL;
#N canvas 27 23 381 830 spectralDelR 0;
#X obj 30 25 inlet~;
#X obj 37 83 rfft~;
#X obj 32 56 *~, f 10;
#X obj 92 35 tabreceive~ \$0-hanning;
#X obj 56 404 rifft~;
#X obj 60 514 outlet~;
#X obj 56 446 *~;
#X obj 110 468 tabreceive~ \$0-hanning;
#X obj 246 41 block~ 512 4;
#X obj 113 252 -~;
#X obj 144 215 wrap~;
#X obj 113 273 *~ 512;
#X obj 113 294 /~ 44.1;
#X obj 56 425 /~ 768;
#X obj 25 120 delwrite~ \$0-sdR1 10000;
#X obj 185 123 delwrite~ \$0-sdR2 10000;
#X obj 109 195 tabreceive~ \$0-sdtR;
#X obj 235 375 vd~ \$0-sdR2;
#X obj 75 372 vd~ \$0-sdR1;
#X connect 0 0 2 0;
#X connect 1 0 14 0;
#X connect 1 1 15 0;
#X connect 2 0 1 0;
#X connect 3 0 2 1;
#X connect 4 0 13 0;
#X connect 6 0 5 0;
#X connect 7 0 6 1;
#X connect 9 0 11 0;
#X connect 10 0 9 1;
#X connect 11 0 12 0;
#X connect 12 0 17 0;
#X connect 12 0 18 0;
#X connect 13 0 6 0;
#X connect 16 0 9 0;
#X connect 16 0 10 0;
#X connect 17 0 4 1;
#X connect 18 0 4 0;
#X restore 297 142 pd spectralDelR;
#N canvas 0 23 797 478 old 0;
#X msg 131 15 256;
#X obj 111 330 tabwrite \$0-sdtL;
#X obj 107 305 + 1;
#X obj 131 57 until;
#X msg 131 78 1, f 1;
#X obj 131 99 + -1;
#X obj 131 120 int;
#X msg 155 76 -1;
#X obj 131 141 t b f;
#X obj 70 209 +;
#X obj 69 230 int;
#X obj 131 36 t f b b, f 19;
#X obj 69 167 random 11;
#X obj 69 188 - 5;
#X obj 69 251 % 215;
#X obj 69 272 abs;
#X obj 504 86 tabplay~ array1;
#X obj 515 43 bng 15 250 50 0 empty empty empty 17 7 0 10 -262144 -1
-1;
#X obj 384 281 *~;
#X obj 382 335 dac~;
#X obj 458 136 hsl 128 15 0 127 0 0 empty empty empty -2 -8 0 10 -262144
-1 -1 0 1;
#X obj 455 156 / 127;
#X obj 365 138 pack 0 10;
#X obj 365 159 line~;
#X obj 455 177 * -1;
#X obj 455 198 + 1;
#X obj 455 219 pack 0 10;
#X obj 455 240 line~;
#X obj 475 275 *~;
#X obj 473 329 dac~;
#N canvas 0 22 450 278 (subpatch) 0;
#X array array1 209801 float 2;
#X coords 0 1 209801 -1 200 140 1;
#X restore 580 205 graph;
#N canvas 657 322 783 556 loadsample 0;
#X obj 199 69 openpanel;
#X obj 199 123 pack s \$0;
#X obj 212 339 soundfiler;
#X floatatom 213 365 5 0 0 0 - - -;
#X obj 291 6 loadbang;
#X obj 199 35 r \$0-load_snd;
#X obj 400 231 s \$0-filename;
#X msg 400 206 set \$1;
#X obj 156 229 f \$0;
#X msg 156 250 \; \$1-sample normalize 1;
#X msg 400 157 symbol \$1;
#X obj 101 194 t b b l, f 19;
#N canvas 0 23 459 495 fade_end_of_sample 0;
#X obj 37 37 inlet;
#X obj 98 51 * 0.001;
#X floatatom 98 72 5 0 0 0 - - -;
#X obj 97 136 int 88;
#X obj 97 178 until;
#X msg 97 199 1;
#X obj 97 241 int;
#X obj 97 156 t f b f, f 14;
#X obj 97 290 /, f 14;
#X obj 97 311 expr 1- $f1;
#X obj 97 263 t f f, f 17;
#X obj 200 298 expr $f3 - ($f2 - $f1), f 8;
#X obj 137 369 tabread \$0-sample, f 9;
#X obj 200 341 t f f;
#X obj 97 420 tabwrite \$0-sample;
#X obj 97 220 +;
#X msg 130 199 0;
#X obj 97 332 *;
#X obj 281 171 inlet;
#X obj 98 92 * 10;
#X obj 98 30 r \$1-sampRate;
#X connect 0 0 3 0;
#X connect 1 0 2 0;
#X connect 2 0 19 0;
#X connect 3 0 7 0;
#X connect 4 0 5 0;
#X connect 5 0 15 0;
#X connect 6 0 10 0;
#X connect 6 0 15 1;
#X connect 7 0 4 0;
#X connect 7 1 16 0;
#X connect 7 2 8 1;
#X connect 7 2 11 1;
#X connect 8 0 9 0;
#X connect 9 0 17 0;
#X connect 10 0 8 0;
#X connect 10 1 11 0;
#X connect 11 0 13 0;
#X connect 12 0 17 1;
#X connect 13 0 12 0;
#X connect 13 1 14 1;
#X connect 15 0 6 0;
#X connect 16 0 15 1;
#X connect 17 0 14 0;
#X connect 18 0 11 2;
#X connect 19 0 3 1;
#X connect 20 0 1 0;
#X restore 75 420 pd fade_end_of_sample;
#X obj 353 30 r \$0-file;
#X obj 400 182 strippath;
#N canvas 683 191 556 541 fade_start_of_sample 0;
#X obj 38 37 inlet;
#X obj 136 41 * 0.001;
#X floatatom 136 62 5 0 0 0 - - -;
#X obj 38 123 int 88;
#X obj 38 165 until;
#X msg 38 186 1;
#X obj 38 228 int;
#X obj 38 143 t f b f, f 14;
#X obj 38 277 /, f 14;
#X obj 38 250 t f f, f 17;
#X obj 78 356 tabread \$0-sample, f 9;
#X obj 141 328 t f f;
#X obj 38 407 tabwrite \$0-sample;
#X obj 38 207 +;
#X obj 38 319 *;
#X obj 136 82 * 2;
#X obj 52 74 bng 15 250 50 0 empty empty empty 17 7 0 10 -262144 -1
-1;
#X msg 71 186 -1;
#X obj 136 20 r \$1-sampRate;
#X connect 0 0 3 0;
#X connect 1 0 2 0;
#X connect 2 0 15 0;
#X connect 3 0 7 0;
#X connect 4 0 5 0;
#X connect 5 0 13 0;
#X connect 6 0 9 0;
#X connect 6 0 13 1;
#X connect 7 0 4 0;
#X connect 7 1 17 0;
#X connect 7 2 8 1;
#X connect 8 0 14 0;
#X connect 9 0 8 0;
#X connect 9 1 11 0;
#X connect 10 0 14 1;
#X connect 11 0 10 0;
#X connect 11 1 12 1;
#X connect 13 0 6 0;
#X connect 14 0 12 0;
#X connect 15 0 3 1;
#X connect 16 0 3 0;
#X connect 17 0 13 1;
#X connect 18 0 1 0;
#X restore 11 310 pd fade_start_of_sample;
#X obj 306 375 s \$0-sampLen_samps;
#X obj 409 76 bng 15 250 50 0 empty empty empty 17 7 0 10 -262144 -1
-1;
#X obj 466 23 bng 15 250 50 0 empty empty empty 17 7 0 10 -262144 -1
-1;
#X obj 292 53 symbol \$2;
#X msg 212 319 read -resize \$1 array1;
#X obj 164 50 bng 15 250 50 0 empty empty empty 17 7 0 10 -262144 -1
-1;
#X obj 158 7 inlet;
#X connect 0 0 1 0;
#X connect 1 0 10 0;
#X connect 1 0 11 0;
#X connect 2 0 3 0;
#X connect 2 0 16 0;
#X connect 3 0 12 1;
#X connect 4 0 19 0;
#X connect 5 0 0 0;
#X connect 7 0 6 0;
#X connect 8 0 9 0;
#X connect 10 0 14 0;
#X connect 11 2 20 0;
#X connect 13 0 19 0;
#X connect 14 0 7 0;
#X connect 17 0 1 0;
#X connect 18 0 19 0;
#X connect 19 0 1 0;
#X connect 20 0 2 0;
#X connect 21 0 0 0;
#X connect 22 0 21 0;
#X restore 639 38 pd loadsample;
#X obj 643 12 bng 15 250 50 0 empty empty empty 17 7 0 10 -262144 -1
-1;
#X connect 0 0 11 0;
#X connect 2 0 1 0;
#X connect 3 0 4 0;
#X connect 4 0 5 0;
#X connect 5 0 6 0;
#X connect 6 0 5 1;
#X connect 6 0 8 0;
#X connect 7 0 5 1;
#X connect 8 0 12 0;
#X connect 8 1 1 1;
#X connect 9 0 10 0;
#X connect 10 0 14 0;
#X connect 11 0 3 0;
#X connect 11 1 7 0;
#X connect 12 0 13 0;
#X connect 13 0 9 0;
#X connect 14 0 15 0;
#X connect 15 0 9 1;
#X connect 15 0 2 0;
#X connect 16 0 28 1;
#X connect 17 0 16 0;
#X connect 18 0 19 0;
#X connect 18 0 19 1;
#X connect 20 0 21 0;
#X connect 21 0 22 0;
#X connect 21 0 24 0;
#X connect 22 0 23 0;
#X connect 23 0 18 1;
#X connect 24 0 25 0;
#X connect 25 0 26 0;
#X connect 26 0 27 0;
#X connect 27 0 28 0;
#X connect 28 0 29 0;
#X connect 28 0 29 1;
#X connect 32 0 31 0;
#X restore 948 147 pd old;
#N canvas 27 23 381 830 spectralDelC 0;
#X obj 30 25 inlet~;
#X obj 37 83 rfft~;
#X obj 32 56 *~, f 10;
#X obj 92 35 tabreceive~ \$0-hanning;
#X obj 56 404 rifft~;
#X obj 60 514 outlet~;
#X obj 56 446 *~;
#X obj 110 468 tabreceive~ \$0-hanning;
#X obj 246 41 block~ 512 4;
#X obj 113 252 -~;
#X obj 144 215 wrap~;
#X obj 113 273 *~ 512;
#X obj 113 294 /~ 44.1;
#X obj 56 425 /~ 768;
#X obj 25 120 delwrite~ \$0-sdC1 10000;
#X obj 185 123 delwrite~ \$0-sdC2 10000;
#X obj 109 195 tabreceive~ \$0-sdtC;
#X obj 235 375 vd~ \$0-sdC2;
#X obj 75 372 vd~ \$0-sdC1;
#X connect 0 0 2 0;
#X connect 1 0 14 0;
#X connect 1 1 15 0;
#X connect 2 0 1 0;
#X connect 3 0 2 1;
#X connect 4 0 13 0;
#X connect 6 0 5 0;
#X connect 7 0 6 1;
#X connect 9 0 11 0;
#X connect 10 0 9 1;
#X connect 11 0 12 0;
#X connect 12 0 17 0;
#X connect 12 0 18 0;
#X connect 13 0 6 0;
#X connect 16 0 9 0;
#X connect 16 0 10 0;
#X connect 17 0 4 1;
#X connect 18 0 4 0;
#X restore 188 97 pd spectralDelC;
#X obj 200 64 *~ 0.707;
#X obj 695 137 array;
#X obj 721 87 array define \$0-sdtR;
#X obj 580 87 array define \$0-sdtC;
#X obj 420 86 array define \$0-sdtL;
#X obj 829 127 array define \$0-hanning 512;
#X obj 1029 134 loadbang;
#N canvas 0 23 1389 618 randomDelay 0;
#X obj 339 97 bng 15 250 50 0 empty empty empty 17 7 0 10 -262144 -1
-1;
#X obj 458 199 bng 15 250 50 0 empty empty empty 17 7 0 10 -262144
-1 -1;
#X obj 621 338 f \$0;
#X msg 515 514 \; 1609-sdtL cosinesum 256 -5 -2 1;
#X msg 809 357 set \, addsemi;
#X msg 621 359 add2 \$1-sdtL cosinesum 256;
#X obj 531 334 until;
#X msg 510 416 add2 \$1;
#X obj 458 219 t b b;
#X obj 532 313 + 2;
#X obj 644 287 random 2;
#X obj 639 375 f \$0;
#X msg 639 396 add2 \$1-sdtL sinesum 256;
#X obj 645 308 sel 0 1;
#X obj 488 259 t b b b b, f 47;
#X obj 250 4 loadbang;
#X msg 250 25 1;
#X obj 1075 352 f \$0;
#X msg 930 507 \; 1609-sdtR sinesum 256 -2 -2 1 10 -2 11 -3 10 -12
-7 15 -11 -5 -14 -9 -14 1 5;
#X msg 1263 371 set \, addsemi;
#X obj 985 348 until;
#X msg 985 411 add2 \$1;
#X obj 912 233 t b b;
#X obj 986 327 + 2;
#X obj 1098 301 random 2;
#X obj 1093 389 f \$0;
#X obj 1099 322 sel 0 1;
#X obj 942 273 t b b b b, f 47;
#X msg 1075 373 add2 \$1-sdtR cosinesum 256;
#X msg 1093 410 add2 \$1-sdtR sinesum 256;
#X obj 251 49 metro 1000;
#X obj 184 344 f \$0;
#X msg 39 499 \; 1609-sdtC cosinesum 256 0 -12 -7 6 7 -11 1 12 -2 -9
3 5 -13 -6 0 12 4 3 -1 -5 -12;
#X msg 372 363 set \, addsemi;
#X obj 94 340 until;
#X msg 94 403 add2 \$1;
#X obj 21 225 t b b;
#X obj 95 319 + 2;
#X obj 207 293 random 2;
#X obj 202 381 f \$0;
#X obj 208 314 sel 0 1;
#X obj 51 265 t b b b b, f 47;
#X msg 184 365 add2 \$1-sdtC cosinesum 256;
#X msg 202 402 add2 \$1-sdtC sinesum 256;
#X obj 531 355 random 31;
#X obj 531 376 - 15;
#X obj 94 361 random 31;
#X obj 94 382 - 15;
#X obj 985 369 random 31;
#X obj 985 390 - 15;
#X obj 251 70 random 5000;
#X obj 251 91 + 500;
#X floatatom 251 112 5 0 0 0 - - -;
#X obj 94 298 random 20;
#X obj 531 292 random 20;
#X obj 985 306 random 20;
#X connect 0 0 1 0;
#X connect 1 0 8 0;
#X connect 1 0 22 0;
#X connect 1 0 36 0;
#X connect 2 0 5 0;
#X connect 4 0 3 0;
#X connect 5 0 3 0;
#X connect 6 0 44 0;
#X connect 7 0 3 0;
#X connect 8 0 3 0;
#X connect 8 1 14 0;
#X connect 9 0 6 0;
#X connect 10 0 13 0;
#X connect 11 0 12 0;
#X connect 12 0 3 0;
#X connect 13 0 2 0;
#X connect 13 1 11 0;
#X connect 14 1 54 0;
#X connect 14 2 10 0;
#X connect 14 3 4 0;
#X connect 15 0 16 0;
#X connect 16 0 30 0;
#X connect 17 0 28 0;
#X connect 19 0 18 0;
#X connect 20 0 48 0;
#X connect 21 0 18 0;
#X connect 22 0 18 0;
#X connect 22 1 27 0;
#X connect 23 0 20 0;
#X connect 24 0 26 0;
#X connect 25 0 29 0;
#X connect 26 0 17 0;
#X connect 26 1 25 0;
#X connect 27 1 55 0;
#X connect 27 2 24 0;
#X connect 27 3 19 0;
#X connect 28 0 18 0;
#X connect 29 0 18 0;
#X connect 30 0 0 0;
#X connect 30 0 50 0;
#X connect 31 0 42 0;
#X connect 33 0 32 0;
#X connect 34 0 46 0;
#X connect 35 0 32 0;
#X connect 36 0 32 0;
#X connect 36 1 41 0;
#X connect 37 0 34 0;
#X connect 38 0 40 0;
#X connect 39 0 43 0;
#X connect 40 0 31 0;
#X connect 40 1 39 0;
#X connect 41 1 53 0;
#X connect 41 2 38 0;
#X connect 41 3 33 0;
#X connect 42 0 32 0;
#X connect 43 0 32 0;
#X connect 44 0 45 0;
#X connect 45 0 7 0;
#X connect 46 0 47 0;
#X connect 47 0 35 0;
#X connect 48 0 49 0;
#X connect 49 0 21 0;
#X connect 50 0 51 0;
#X connect 51 0 30 1;
#X connect 51 0 52 0;
#X connect 53 0 37 0;
#X connect 54 0 9 0;
#X connect 55 0 23 0;
#X restore 482 205 pd randomDelay;
#X obj 38 254 throw~ \$0-outL;
#X obj 297 254 throw~ \$0-outR;
#X connect 0 0 12 0;
#X connect 0 0 15 0;
#X connect 1 0 11 0;
#X connect 1 0 15 0;
#X connect 2 0 3 1;
#X connect 3 0 5 0;
#X connect 4 0 10 0;
#X connect 5 0 6 0;
#X connect 6 0 9 0;
#X connect 7 0 4 0;
#X connect 7 0 2 0;
#X connect 7 0 9 0;
#X connect 10 0 3 0;
#X connect 11 0 23 0;
#X connect 12 0 24 0;
#X connect 14 0 23 0;
#X connect 14 0 24 0;
#X connect 15 0 14 0;
#X connect 21 0 7 0;
#X restore 285 40 pd spectralDelay;
#N canvas 386 574 619 120 \$0-globalGlitchfxParams 0;
#N canvas 244 266 1196 333 fxSendsParams 0;
#N canvas 0 23 450 300 revControls 0;
#X obj 13 30 hsl 145 15 60 100 1 1 \$0-revLevel_snd \$0-revLevel_rec
level-94.14dB 2 8 0 10 -228856 -262144 -1 12700 1;
#X obj 315 59 r \$0-revLevel_snd;
#X obj 337 209 pack s \$0;
#X obj 338 112 * 100;
#X obj 338 133 int;
#X obj 338 154 * 0.01;
#X msg 337 235 \; \$2-revLevel_rec label \$1;
#X obj 13 45 hsl 145 15 1 100 0 1 \$0-revLiveness_snd \$0-revLiveness_rec
liveness-79.37 2 8 0 10 -228856 -262144 -1 11418 1;
#X obj 522 207 pack s \$0;
#X obj 523 110 * 100;
#X obj 523 131 int;
#X obj 523 152 * 0.01;
#X obj 500 57 r \$0-revLiveness_snd;
#X msg 337 183 level-\$1dB;
#X msg 522 233 \; \$2-revLiveness_rec label \$1;
#X msg 522 181 liveness-\$1;
#X obj 13 60 hsl 145 15 20 20000 1 1 \$0-revXOver_snd \$0-revXOver_rec
XOver-1650.8Hz 2 8 0 10 -228856 -262144 -1 9218 1;
#X obj 725 210 pack s \$0;
#X obj 726 113 * 100;
#X obj 726 134 int;
#X obj 726 155 * 0.01;
#X obj 703 60 r \$0-revXOver_snd;
#X msg 725 184 XOver-\$1Hz;
#X msg 725 236 \; \$2-revXOver_rec label \$1;
#X obj 934 200 pack s \$0;
#X obj 935 103 * 100;
#X obj 935 124 int;
#X obj 935 145 * 0.01;
#X obj 13 75 hsl 145 15 1 100 1 1 \$0-revDamping_snd \$0-revDamping_rec
HFDamping-14.21% 2 8 0 10 -228856 -262144 -1 8300 1;
#X obj 911 50 r \$0-revDamping_snd;
#X msg 934 174 HFDamping-\$1%;
#X msg 934 226 \; \$2-revDamping_rec label \$1;
#X text 15 11 Reverb;
#X connect 1 0 3 0;
#X connect 2 0 6 0;
#X connect 3 0 4 0;
#X connect 4 0 5 0;
#X connect 5 0 13 0;
#X connect 8 0 14 0;
#X connect 9 0 10 0;
#X connect 10 0 11 0;
#X connect 11 0 15 0;
#X connect 12 0 9 0;
#X connect 13 0 2 0;
#X connect 15 0 8 0;
#X connect 17 0 23 0;
#X connect 18 0 19 0;
#X connect 19 0 20 0;
#X connect 20 0 22 0;
#X connect 21 0 18 0;
#X connect 22 0 17 0;
#X connect 24 0 31 0;
#X connect 25 0 26 0;
#X connect 26 0 27 0;
#X connect 27 0 30 0;
#X connect 29 0 25 0;
#X connect 30 0 24 0;
#X coords 0 -1 1 1 150 80 2 10 10;
#X restore 0 20 pd revControls;
#N canvas 168 50 1235 696 flangeControls 0;
#X obj 13 30 hsl 70 15 1 10 0 1 \$0-flangeDelL_snd \$0-flangeDelL_rec
del-5.69ms 0 8 0 10 -228856 -262144 -1 3600 1;
#X obj 337 209 pack s \$0;
#X obj 338 112 * 100;
#X obj 338 133 int;
#X obj 338 154 * 0.01;
#X obj 13 45 hsl 70 15 0.01 1 0 1 \$0-flangeDepthL_snd \$0-flangeDepthL_rec
depth-0.79 0 8 0 10 -228856 -262144 -1 5500 1;
#X obj 522 207 pack s \$0;
#X obj 523 110 * 100;
#X obj 523 131 int;
#X obj 523 152 * 0.01;
#X obj 13 60 hsl 70 15 0.002 20 1 1 \$0-flangeRateL_snd \$0-flangeRateL_rec
rate-0.27Hz 0 8 0 10 -228856 -262144 -1 3700 1;
#X obj 725 210 pack s \$0;
#X obj 726 113 * 100;
#X obj 726 134 int;
#X obj 726 155 * 0.01;
#X obj 934 200 pack s \$0;
#X obj 935 103 * 100;
#X obj 935 124 int;
#X obj 13 75 hsl 70 15 0.01 1 1 1 \$0-flangeFBL_snd \$0-flangeFBL_rec
FB-13% 2 8 0 10 -228856 -262144 -1 3900 1;
#X text 15 11 Flanger;
#X obj 315 59 r \$0-flangeDelL_snd;
#X msg 337 235 \; \$2-flangeDelL_rec label \$1;
#X msg 336 183 del-\$1ms;
#X obj 500 57 r \$0-flangeDepthL_snd;
#X msg 522 233 \; \$2-flangeDepthL_rec label \$1;
#X msg 522 181 depth-\$1;
#X obj 703 60 r \$0-flangeRateL_snd;
#X msg 725 184 rate-\$1Hz;
#X msg 725 236 \; \$2-flangeRateL_rec label \$1;
#X obj 911 50 r \$0-flangeFBL_snd;
#X msg 934 174 FB-\$1%;
#X msg 934 226 \; \$2-flangeFBL_rec label \$1;
#X obj 88 30 hsl 70 15 1 10 0 1 \$0-flangeDelR_snd \$0-flangeDelR_rec
del-6.86ms 0 8 0 10 -228856 -262144 -1 4500 1;
#X obj 88 45 hsl 70 15 0.01 1 0 1 \$0-flangeDepthR_snd \$0-flangeDepthR_rec
depth-0.85 0 8 0 10 -228856 -262144 -1 5900 1;
#X obj 88 60 hsl 70 15 0.002 20 1 1 \$0-flangeRateR_snd \$0-flangeRateR_rec
rate-0.62Hz 0 8 0 10 -228856 -262144 -1 4300 1;
#X obj 88 75 hsl 70 15 0.01 1 1 1 \$0-flangeFBR_snd \$0-flangeFBR_rec
FB-7% 2 8 0 10 -228856 -262144 -1 3000 1;
#X obj 350 441 pack s \$0;
#X obj 351 344 * 100;
#X obj 351 365 int;
#X obj 351 386 * 0.01;
#X obj 535 439 pack s \$0;
#X obj 536 342 * 100;
#X obj 536 363 int;
#X obj 536 384 * 0.01;
#X obj 738 442 pack s \$0;
#X obj 739 345 * 100;
#X obj 739 366 int;
#X obj 739 387 * 0.01;
#X obj 947 432 pack s \$0;
#X obj 948 335 * 100;
#X obj 948 356 int;
#X msg 349 415 del-\$1ms;
#X msg 535 413 depth-\$1;
#X msg 738 416 rate-\$1Hz;
#X msg 947 406 FB-\$1%;
#X obj 328 291 r \$0-flangeDelR_snd;
#X msg 349 467 \; \$2-flangeDelR_rec label \$1;
#X obj 513 289 r \$0-flangeDepthR_snd;
#X msg 535 465 \; \$2-flangeDepthR_rec label \$1;
#X obj 716 292 r \$0-flangeRateR_snd;
#X msg 738 468 \; \$2-flangeRateR_rec label \$1;
#X obj 924 282 r \$0-flangeFBR_snd;
#X msg 947 458 \; \$2-flangeFBR_rec label \$1;
#X obj 119 15 tgl 15 0 \$0-flangeLink_snd \$0-flangeLink_snd link 17
7 0 10 -262144 -1 -1 0 1;
#N canvas 0 23 1154 329 linker 0;
#X obj 516 64 r \$0-flangeDelL_snd;
#X obj 786 64 r \$0-flangeDepthL_snd;
#X obj 648 64 r \$0-flangeRateL_snd;
#X obj 922 64 r \$0-flangeFBL_snd;
#X obj 520 204 s \$0-flangeDelR_rec;
#X obj 652 204 s \$0-flangeRateR_rec;
#X obj 790 204 s \$0-flangeDepthR_rec;
#X obj 926 204 s \$0-flangeFBR_rec;
#X obj 519 156 spigot;
#X obj 657 154 spigot;
#X obj 793 157 spigot;
#X obj 929 157 spigot;
#X obj 84 16 r \$0-flangeLink_snd;
#X obj 439 114 int;
#X obj 84 37 t b f;
#X obj 53 277 s \$0-flangeDelL_rec;
#X obj 185 277 s \$0-flangeRateL_rec;
#X obj 323 277 s \$0-flangeDepthL_rec;
#X obj 459 277 s \$0-flangeFBL_rec;
#X connect 0 0 8 0;
#X connect 1 0 10 0;
#X connect 2 0 9 0;
#X connect 3 0 11 0;
#X connect 8 0 4 0;
#X connect 9 0 5 0;
#X connect 10 0 6 0;
#X connect 11 0 7 0;
#X connect 12 0 14 0;
#X connect 13 0 8 1;
#X connect 13 0 9 1;
#X connect 13 0 10 1;
#X connect 13 0 11 1;
#X connect 14 0 15 0;
#X connect 14 0 16 0;
#X connect 14 0 17 0;
#X connect 14 0 18 0;
#X connect 14 1 13 0;
#X restore 83 188 pd linker;
#X connect 1 0 21 0;
#X connect 2 0 3 0;
#X connect 3 0 4 0;
#X connect 4 0 22 0;
#X connect 6 0 24 0;
#X connect 7 0 8 0;
#X connect 8 0 9 0;
#X connect 9 0 25 0;
#X connect 11 0 28 0;
#X connect 12 0 13 0;
#X connect 13 0 14 0;
#X connect 14 0 27 0;
#X connect 15 0 31 0;
#X connect 16 0 17 0;
#X connect 17 0 30 0;
#X connect 20 0 2 0;
#X connect 22 0 1 0;
#X connect 23 0 7 0;
#X connect 25 0 6 0;
#X connect 26 0 12 0;
#X connect 27 0 11 0;
#X connect 29 0 16 0;
#X connect 30 0 15 0;
#X connect 36 0 56 0;
#X connect 37 0 38 0;
#X connect 38 0 39 0;
#X connect 39 0 51 0;
#X connect 40 0 58 0;
#X connect 41 0 42 0;
#X connect 42 0 43 0;
#X connect 43 0 52 0;
#X connect 44 0 60 0;
#X connect 45 0 46 0;
#X connect 46 0 47 0;
#X connect 47 0 53 0;
#X connect 48 0 62 0;
#X connect 49 0 50 0;
#X connect 50 0 54 0;
#X connect 51 0 36 0;
#X connect 52 0 40 0;
#X connect 53 0 44 0;
#X connect 54 0 48 0;
#X connect 55 0 37 0;
#X connect 57 0 41 0;
#X connect 59 0 45 0;
#X connect 61 0 49 0;
#X coords 0 -1 1 1 150 80 2 10 10;
#X restore 150 20 pd flangeControls;
#X text 218 4 Global Glitch FX Parameters;
#N canvas 168 50 1235 696 pingControls 0;
#X obj 13 30 hsl 70 15 0.5 2 0 1 \$0-pingpongDelL_snd \$0-pingpongDelL_rec
del-157.6ms 0 8 0 10 -228856 -262144 -1 3500 1;
#X obj 318 221 pack s \$0;
#X obj 319 124 * 100;
#X obj 319 145 int;
#X obj 319 166 * 0.01;
#X obj 13 45 hsl 70 15 1 10 1 1 \$0-pingpongDriveL_snd \$0-pingpongDriveL_rec
drive-1.3 0 8 0 10 -228856 -262144 -1 800 1;
#X obj 522 207 pack s \$0;
#X obj 523 110 * 100;
#X obj 523 131 int;
#X obj 523 152 * 0.01;
#X obj 13 60 hsl 70 15 20 20000 1 1 \$0-pingpongLPL_snd \$0-pingpongLPL_rec
lp-2443.35Hz 0 8 0 10 -228856 -262144 -1 4800 1;
#X obj 725 210 pack s \$0;
#X obj 726 113 * 100;
#X obj 726 134 int;
#X obj 726 155 * 0.01;
#X obj 934 200 pack s \$0;
#X obj 935 103 * 100;
#X obj 935 124 int;
#X obj 13 75 hsl 70 15 0.01 1 1 1 \$0-pingpongFBL_snd \$0-pingpongFBL_rec
FB-26% 2 8 0 10 -228856 -262144 -1 4900 1;
#X obj 315 59 r \$0-pingpongDelL_snd;
#X msg 318 247 \; \$2-pingpongDelL_rec label \$1;
#X msg 317 195 del-\$1ms;
#X obj 911 50 r \$0-pingpongFBL_snd;
#X msg 934 174 FB-\$1%;
#X msg 934 226 \; \$2-pingpongFBL_rec label \$1;
#X obj 88 30 hsl 70 15 0.5 2 1 1 \$0-pingpongDelR_snd \$0-pingpongDelR_rec
del-114.19ms 0 8 0 10 -228856 -262144 -1 3050 1;
#X obj 88 45 hsl 70 15 1 10 1 1 \$0-pingpongDriveR_snd \$0-pingpongDriveR_rec
drive-1.64 0 8 0 10 -228856 -262144 -1 1582 1;
#X obj 88 60 hsl 70 15 20 20000 1 1 \$0-pingpongLPR_snd \$0-pingpongLPR_rec
lp-2443.35Hz 0 8 0 10 -228856 -262144 -1 4800 1;
#X obj 88 75 hsl 70 15 0.01 1 1 1 \$0-pingpongFBR_snd \$0-pingpongFBR_rec
FB-26% 2 8 0 10 -228856 -262144 -1 4900 1;
#X obj 328 505 pack s \$0;
#X obj 329 408 * 100;
#X obj 329 429 int;
#X obj 329 450 * 0.01;
#X obj 535 439 pack s \$0;
#X obj 536 342 * 100;
#X obj 536 363 int;
#X obj 536 384 * 0.01;
#X obj 738 442 pack s \$0;
#X obj 739 345 * 100;
#X obj 739 366 int;
#X obj 739 387 * 0.01;
#X obj 947 432 pack s \$0;
#X obj 948 335 * 100;
#X obj 948 356 int;
#X msg 327 479 del-\$1ms;
#X msg 947 406 FB-\$1%;
#X obj 328 291 r \$0-pingpongDelR_snd;
#X msg 327 531 \; \$2-pingpongDelR_rec label \$1;
#X obj 924 282 r \$0-pingpongFBR_snd;
#X msg 947 458 \; \$2-pingpongFBR_rec label \$1;
#X obj 119 15 tgl 15 0 \$0-pingpongLink_snd \$0-pingpongLink_snd link
17 7 0 10 -262144 -1 -1 0 1;
#N canvas 84 549 1154 329 linker 0;
#X obj 506 64 r \$0-pingpongDelL_snd;
#X obj 962 64 r \$0-pingpongFBL_snd;
#X obj 510 204 s \$0-pingpongDelR_rec;
#X obj 966 204 s \$0-pingpongFBR_rec;
#X obj 509 156 spigot;
#X obj 657 154 spigot;
#X obj 813 157 spigot;
#X obj 969 157 spigot;
#X obj 84 16 r \$0-pingpongLink_snd;
#X obj 429 114 int;
#X obj 84 37 t b f;
#X obj 53 277 s \$0-pingpongDelL_rec;
#X obj 479 277 s \$0-pingpongFBL_rec;
#X obj 648 64 r \$0-pingpongDriveL_snd;
#X obj 652 204 s \$0-pingpongDriveR_snd;
#X obj 185 277 s \$0-pingpongDriveL_rec;
#X obj 806 64 r \$0-pingpongLPL_snd;
#X obj 810 204 s \$0-pingpongLPR_snd;
#X obj 333 277 s \$0-pingpongLPL_rec;
#X connect 0 0 4 0;
#X connect 1 0 7 0;
#X connect 4 0 2 0;
#X connect 5 0 14 0;
#X connect 6 0 17 0;
#X connect 7 0 3 0;
#X connect 8 0 10 0;
#X connect 9 0 4 1;
#X connect 9 0 5 1;
#X connect 9 0 6 1;
#X connect 9 0 7 1;
#X connect 10 0 11 0;
#X connect 10 0 12 0;
#X connect 10 0 15 0;
#X connect 10 0 18 0;
#X connect 10 1 9 0;
#X connect 13 0 5 0;
#X connect 16 0 6 0;
#X restore 83 188 pd linker;
#X text 15 11 Pingpong;
#X obj 316 94 *;
#X obj 387 91 r \$0-ioi;
#X obj 387 112 t b f;
#X obj 329 329 *;
#X obj 400 326 r \$0-ioi;
#X obj 400 347 t b f;
#X obj 500 57 r \$0-pingpongDriveL_snd;
#X msg 522 181 drive-\$1;
#X msg 522 233 \; \$2-pingpongDriveL_rec label \$1;
#X obj 513 289 r \$0-pingpongDriveR_snd;
#X msg 536 413 drive-\$1;
#X msg 535 465 \; \$2-pingpongDriveR_rec label \$1;
#X obj 703 60 r \$0-pingpongLPL_snd;
#X msg 725 236 \; \$2-pingpongLPL_rec label \$1;
#X obj 717 292 r \$0-pingpongLPR_snd;
#X msg 738 468 \; \$2-pingpongLPR_rec label \$1;
#X msg 738 416 lp-\$1Hz;
#X msg 725 184 lp-\$1Hz;
#X obj 74 15 bng 15 250 50 0 \$0-pingSync_snd \$0-pingSync_rec sync
17 7 0 10 -262144 -1 -1;
#X obj 140 238 r \$0-pingSync_snd;
#X obj 153 297 s \$0-pingpongDelR_rec;
#X obj 54 326 s \$0-pingpongDelL_rec;
#X msg 140 259 1;
#X connect 1 0 20 0;
#X connect 2 0 3 0;
#X connect 3 0 4 0;
#X connect 4 0 21 0;
#X connect 6 0 61 0;
#X connect 7 0 8 0;
#X connect 8 0 9 0;
#X connect 9 0 60 0;
#X connect 11 0 66 0;
#X connect 12 0 13 0;
#X connect 13 0 14 0;
#X connect 14 0 70 0;
#X connect 15 0 24 0;
#X connect 16 0 17 0;
#X connect 17 0 23 0;
#X connect 19 0 53 0;
#X connect 21 0 1 0;
#X connect 22 0 16 0;
#X connect 23 0 15 0;
#X connect 29 0 47 0;
#X connect 30 0 31 0;
#X connect 31 0 32 0;
#X connect 32 0 44 0;
#X connect 33 0 64 0;
#X connect 34 0 35 0;
#X connect 35 0 36 0;
#X connect 36 0 63 0;
#X connect 37 0 68 0;
#X connect 38 0 39 0;
#X connect 39 0 40 0;
#X connect 40 0 69 0;
#X connect 41 0 49 0;
#X connect 42 0 43 0;
#X connect 43 0 45 0;
#X connect 44 0 29 0;
#X connect 45 0 41 0;
#X connect 46 0 56 0;
#X connect 48 0 42 0;
#X connect 53 0 2 0;
#X connect 54 0 55 0;
#X connect 55 0 53 0;
#X connect 55 1 53 1;
#X connect 56 0 30 0;
#X connect 57 0 58 0;
#X connect 58 0 56 0;
#X connect 58 1 56 1;
#X connect 59 0 7 0;
#X connect 60 0 6 0;
#X connect 62 0 34 0;
#X connect 63 0 33 0;
#X connect 65 0 12 0;
#X connect 67 0 38 0;
#X connect 69 0 37 0;
#X connect 70 0 11 0;
#X connect 72 0 75 0;
#X connect 75 0 74 0;
#X connect 75 0 73 0;
#X coords 0 -1 1 1 150 80 2 10 10;
#X restore 300 20 pd pingControls;
#N canvas 222 127 1235 696 ringControls 0;
#X obj 13 30 hsl 145 15 0 1 0 1 \$0-ringSpread_snd \$0-ringSpread_rec
spread-0.1 0 8 0 10 -228856 -262144 -1 1500 1;
#X obj 318 221 pack s \$0;
#X obj 319 124 * 100;
#X obj 319 145 int;
#X obj 319 166 * 0.01;
#X obj 13 45 hsl 145 15 20 20000 1 1 \$0-ringRange_snd \$0-ringRange_rec
range-547.68Hz 0 8 0 10 -228856 -262144 -1 6900 1;
#X obj 522 207 pack s \$0;
#X obj 523 110 * 100;
#X obj 523 131 int;
#X obj 523 152 * 0.01;
#X obj 13 60 hsl 145 15 0.0002 20 1 1 \$0-ringVar_snd \$0-ringVar_rec
varRate-0.0632Hz 0 8 0 10 -228856 -262144 -1 7200 1;
#X obj 725 210 pack s \$0;
#X obj 726 134 int;
#X obj 934 200 pack s \$0;
#X obj 935 103 * 100;
#X obj 935 124 int;
#X obj 13 75 hsl 145 15 100 10000 1 1 \$0-ringBase_snd \$0-ringBase_rec
base-100Hz 2 8 0 10 -228856 -262144 -1 0 1;
#N canvas 84 549 1154 329 linker 0;
#X obj 506 64 r \$0-pingpongDelL_snd;
#X obj 962 64 r \$0-pingpongFBL_snd;
#X obj 510 204 s \$0-pingpongDelR_rec;
#X obj 966 204 s \$0-pingpongFBR_rec;
#X obj 509 156 spigot;
#X obj 657 154 spigot;
#X obj 813 157 spigot;
#X obj 969 157 spigot;
#X obj 84 16 r \$0-pingpongLink_snd;
#X obj 429 114 int;
#X obj 84 37 t b f;
#X obj 53 277 s \$0-pingpongDelL_rec;
#X obj 479 277 s \$0-pingpongFBL_rec;
#X obj 648 64 r \$0-pingpongDriveL_snd;
#X obj 652 204 s \$0-pingpongDriveR_snd;
#X obj 185 277 s \$0-pingpongDriveL_rec;
#X obj 806 64 r \$0-pingpongLPL_snd;
#X obj 810 204 s \$0-pingpongLPR_snd;
#X obj 333 277 s \$0-pingpongLPL_rec;
#X connect 0 0 4 0;
#X connect 1 0 7 0;
#X connect 4 0 2 0;
#X connect 5 0 14 0;
#X connect 6 0 17 0;
#X connect 7 0 3 0;
#X connect 8 0 10 0;
#X connect 9 0 4 1;
#X connect 9 0 5 1;
#X connect 9 0 6 1;
#X connect 9 0 7 1;
#X connect 10 0 11 0;
#X connect 10 0 12 0;
#X connect 10 0 15 0;
#X connect 10 0 18 0;
#X connect 10 1 9 0;
#X connect 13 0 5 0;
#X connect 16 0 6 0;
#X restore 83 188 pd linker;
#X obj 140 238 r \$0-pingSync_snd;
#X obj 153 297 s \$0-pingpongDelR_rec;
#X obj 54 326 s \$0-pingpongDelL_rec;
#X msg 140 259 1;
#X text 15 11 ringMod;
#X obj 315 59 r \$0-ringSpread_snd;
#X msg 319 195 spread-\$1;
#X msg 318 247 \; \$2-ringSpread_rec label \$1;
#X obj 703 60 r \$0-ringVar_snd;
#X msg 725 184 varRate-\$1Hz;
#X msg 725 236 \; \$2-ringVar_rec label \$1;
#X msg 522 233 \; \$2-ringRange_rec label \$1;
#X obj 500 56 r \$0-ringRange_snd;
#X msg 522 181 range-\$1Hz;
#X obj 726 113 * 10000;
#X obj 726 155 * 0.0001;
#X obj 919 56 r \$0-ringBase_snd;
#X msg 934 226 \; \$2-ringBase_rec label \$1;
#X obj 510 66 r \$0-ringRange_snd;
#X obj 935 148 * 0.01;
#X msg 934 174 base-\$1Hz;
#X connect 1 0 25 0;
#X connect 2 0 3 0;
#X connect 3 0 4 0;
#X connect 4 0 24 0;
#X connect 6 0 29 0;
#X connect 7 0 8 0;
#X connect 8 0 9 0;
#X connect 9 0 31 0;
#X connect 11 0 28 0;
#X connect 12 0 33 0;
#X connect 13 0 35 0;
#X connect 14 0 15 0;
#X connect 15 0 37 0;
#X connect 18 0 21 0;
#X connect 21 0 20 0;
#X connect 21 0 19 0;
#X connect 23 0 2 0;
#X connect 24 0 1 0;
#X connect 26 0 32 0;
#X connect 27 0 11 0;
#X connect 30 0 7 0;
#X connect 31 0 6 0;
#X connect 32 0 12 0;
#X connect 33 0 27 0;
#X connect 34 0 14 0;
#X connect 37 0 38 0;
#X connect 38 0 13 0;
#X coords 0 -1 1 1 150 80 2 10 10;
#X restore 450 20 pd ringControls;
#X coords 0 -1 1 1 600 100 2 0 0;
#X restore 0 0 pd fxSendsParams;
#X restore 64 103 pd \$0-globalGlitchfxParams;
#X restore 834 110 pd glitch FX;
#X connect 0 0 2 0;
#X connect 1 0 0 0;
#X connect 2 0 3 0;
#X connect 4 0 8 0;
#X connect 6 0 7 0;
#X connect 8 0 13 0;
#X connect 10 0 17 0;
#X connect 11 0 24 0;
#X connect 11 1 0 0;
#X connect 11 2 6 0;
#X connect 13 0 14 0;
#X connect 13 1 11 0;
#X connect 13 2 19 0;
#X connect 17 0 21 0;
#X connect 17 1 9 0;
#X connect 17 2 18 0;
#X connect 18 0 15 0;
#X connect 19 0 12 0;
#X connect 20 0 21 1;
#X connect 21 0 16 0;
#X connect 23 0 8 0;
#X connect 24 0 10 0;
#X connect 25 0 29 0;
#X connect 25 0 38 0;
#X connect 29 0 30 0;
#X connect 32 0 34 0;
#X connect 32 1 33 0;
#X connect 32 2 47 0;
#X connect 36 0 32 0;
#X connect 38 0 39 0;
#X connect 40 0 41 0;
#X connect 41 0 42 0;
#X connect 43 0 44 0;
#X connect 44 0 45 0;
#X connect 45 0 41 0;
#X connect 45 1 41 1;
#X connect 46 0 49 0;
#X coords 0 -1 1 1 85 35 2 0 200;
#X restore 709 145 pd guts;
#X f 26;
#X text 597 113 hold shift \; to copy pat \; \; Hold alt to \; create
chain;
#X obj 356 532 catch~ \$0-outL, f 7;
#X obj 407 532 catch~ \$0-outR, f 7;
#X obj 407 564 outlet~;
#X obj 356 564 outlet~;
#X obj 18 12 glitchyDrummer/stepSeq \$0 0;
#X obj 771 259 inlet~;
#X text 723 242 1/4 note phase ramp in;
#N canvas 0 23 744 690 beatLogic 0;
#X obj 31 37 inlet~;
#X obj 31 439 wrap~;
#X obj 31 464 threshold~ 0.5 0 0.5 0, f 11;
#X msg 94 498 1, f 1;
#X obj 94 519 + -1;
#X obj 94 540 int;
#X obj 94 565 % 16;
#X obj 94 588 s \$0-beat;
#X obj 116 474 r \$0-resetCount_snd;
#X msg 116 498 -1, f 2;
#X obj 166 255 pow~ 1;
#X obj 218 197 r \$0-swing_snd;
#X obj 258 37 r \$0-division_snd;
#X obj 185 77 == 0;
#X obj 228 77 == 1;
#X obj 278 77 == 2;
#X obj 31 179 *~;
#X obj 166 181 *~;
#X obj 375 181 *~;
#X obj 166 278 *~ 2, f 5;
#X obj 375 275 pow~ 1;
#X obj 417 223 r \$0-swing_snd;
#X obj 375 298 *~ 2, f 5;
#X obj 375 202 *~ 2;
#X obj 375 223 wrap~;
#X obj 263 513 r \$0-nBeats_snd;
#X obj 218 218 + 1;
#X obj 417 244 + 1;
#X connect 0 0 16 0;
#X connect 0 0 17 0;
#X connect 0 0 18 0;
#X connect 1 0 2 0;
#X connect 2 1 3 0;
#X connect 3 0 4 0;
#X connect 4 0 5 0;
#X connect 5 0 4 1;
#X connect 5 0 6 0;
#X connect 6 0 7 0;
#X connect 8 0 9 0;
#X connect 9 0 4 1;
#X connect 10 0 19 0;
#X connect 11 0 26 0;
#X connect 12 0 13 0;
#X connect 12 0 14 0;
#X connect 12 0 15 0;
#X connect 13 0 16 1;
#X connect 14 0 17 1;
#X connect 15 0 18 1;
#X connect 16 0 1 0;
#X connect 17 0 10 0;
#X connect 18 0 23 0;
#X connect 19 0 1 0;
#X connect 20 0 22 0;
#X connect 21 0 27 0;
#X connect 22 0 1 0;
#X connect 23 0 24 0;
#X connect 24 0 20 0;
#X connect 25 0 6 1;
#X connect 26 0 10 1;
#X connect 27 0 20 1;
#X restore 771 286 pd beatLogic;
#X obj 700 65 vradio 15 1 1 3 \$0-division_snd \$0-division_rec empty
0 -8 0 10 -262144 -1 -1 2;
#X obj 703 110 hsl 51 15 0 1 0 1 \$0-swing_snd \$0-swing_rec swing
5 7 0 10 -228856 -262144 -1 1000 1;
#X floatatom 700 125 5 1 16 1 beats #0-nBeats_rec #0-nBeats_snd;
#X text 715 63 1/4;
#X text 715 79 1/8;
#X text 715 94 1/16;
#X connect 25 0 28 0;
#X connect 26 0 27 0;
#X connect 30 0 32 0;
#X coords 0 -1 1 1 794 180 2 0 0;
