#N canvas 1990 104 1190 502 10;
#X floatatom 733 61 5 0 0 0 - - -;
#X obj 733 84 pow -1;
#X floatatom 733 132 5 0 0 0 - - -;
#X obj 733 155 pow -1;
#X floatatom 733 179 5 0 0 0 - - -;
#X obj 733 202 phasor~;
#X obj 648 446 threshold~ 0.5 0 0.5 0;
#X obj 795 475 bng 15 250 50 0 empty empty empty 17 7 0 10 -262144
-1 -1;
#X obj 1054 112 tgl 15 0 empty empty empty 17 7 0 10 -262144 -1 -1
0 1;
#X obj 830 377 tgl 15 0 empty empty empty 17 7 0 10 -262144 -1 -1 0
1;
#X obj 830 396 metro 5;
#X obj 830 421 snapshot~;
#X floatatom 830 445 5 0 0 0 - - -;
#X msg 1054 132 \; pd dsp \$1;
#X obj 733 108 * 60;
#X obj 909 94 vradio 15 1 0 3 empty empty empty 0 -8 0 10 -262144 -1
-1 1;
#X obj 754 325 pow, f 5;
#X obj 754 286 t b f;
#X msg 754 305 2, f 2;
#X obj 733 368 wrap~ 1;
#X obj 733 344 *~ 1;
#X text 925 93 1/4;
#X text 925 109 1/8;
#X text 925 124 1/16;
#X obj 733 223 pow~, f 40;
#X obj 1030 193 vsl 15 128 1 10 0 0 empty empty empty 0 -9 0 10 -262144
-1 -1 0 1;
#X obj 1147 318 / 127;
#X floatatom 1030 329 5 0 0 0 - - -;
#X obj 957 352 vsl 15 128 0 1 0 0 empty empty empty 0 -9 0 10 -262144
-1 -1 0 1;
#X obj 892 419 snapshot~;
#X floatatom 892 443 5 0 0 0 - - -;
#X obj 1019 350 vsl 15 128 0 1 0 0 empty empty empty 0 -9 0 10 -262144
-1 -1 0 1;
#X obj 1 1 cnv 15 198 48 empty empty empty 20 12 0 14 -174449 -66577
0;
#X obj 0 0 tgl 15 0 \$0-on/off_snd \$0-on/off_rec on/off 17 7 0 10
-191407 -262144 -1 0 1;
#X obj 3 15 hsl 128 20 50 250 0 0 \$0-tempo_snd \$0-tempo_rec Tempo
35 10 0 15 -228856 -262144 -1 4445 1;
#X floatatom 0 35 5 50 250 0 - #0-tempoNum_rec #0-tempoNum_snd;
#X obj 88 35 hradio 15 1 1 3 \$0-division_snd \$0-division_rec 1/16
10 9 0 12 -99865 -191407 -262144 2;
#X obj 35 35 hsl 51 15 0 0.5 0 1 \$0-swing_snd \$0-swing_rec swing
5 7 0 10 -228856 -262144 -1 2400 1;
#X floatatom 133 15 5 1 16 1 beats #0-nBeats_rec #0-nBeats_snd;
#N canvas 0 23 1311 558 beatCountLogic 0;
#X msg 86 289 1;
#X obj 86 310 + -1;
#X obj 86 331 int;
#X obj 86 267 metro 100;
#X obj 197 176 expr 60000/($f1*$f2);
#X obj 411 162 expr pow(2 \, $f1);
#X floatatom 411 183 5 0 0 0 - - -;
#X floatatom 197 197 5 0 0 0 - - -;
#N canvas 599 172 450 300 swing 0;
#X obj 76 17 inlet;
#X obj 43 107 % 2;
#X obj 43 128 sel 0 1;
#X obj 176 17 inlet;
#X obj 255 17 inlet;
#X obj 154 213 outlet;
#X obj 126 177 f;
#X obj 210 177 f;
#X obj 76 65 t f b;
#X obj 341 63 * -1;
#X obj 341 84 + 1;
#X floatatom 281 91 5 0 0 0 - - -;
#X obj 255 38 + 1;
#X floatatom 255 59 5 0 0 0 - - -;
#X obj 168 127 * 1;
#X obj 232 127 * 1;
#X connect 0 0 8 0;
#X connect 1 0 2 0;
#X connect 2 0 6 0;
#X connect 2 1 7 0;
#X connect 3 0 14 0;
#X connect 3 0 15 0;
#X connect 4 0 9 0;
#X connect 4 0 12 0;
#X connect 6 0 5 0;
#X connect 7 0 5 0;
#X connect 8 0 1 0;
#X connect 8 1 14 0;
#X connect 8 1 15 0;
#X connect 9 0 10 0;
#X connect 10 0 11 0;
#X connect 10 0 15 1;
#X connect 12 0 13 0;
#X connect 12 0 14 1;
#X connect 14 0 6 1;
#X connect 15 0 7 1;
#X restore 155 268 pd swing;
#X floatatom 155 289 5 0 0 0 - - -;
#X obj 193 221 s \$0-ioi;
#X obj 74 171 r \$0-on/off_snd;
#X obj 217 251 r \$0-swing_snd;
#X obj 197 145 r \$0-tempo_snd;
#X obj 342 131 s \$0-tempo_rec;
#X obj 432 80 r \$0-division_snd;
#X obj 432 102 t b f f;
#X obj 585 281 sel 0 1 2;
#X obj 570 371 pack s \$0;
#X msg 566 322 1/4;
#X msg 614 304 1/8;
#X msg 690 308 1/16;
#X msg 526 437 \; \$2-division_rec label \$1;
#X obj 86 386 % 16;
#X obj 229 311 r \$0-nBeats_snd;
#X obj 229 332 max 1;
#X obj 229 353 min 16;
#X obj 229 374 change;
#X obj 229 395 s \$0-nBeats_rec;
#X obj 74 192 t f f;
#X msg 108 222 \; pd dsp \$1;
#X obj 86 409 s \$0-beat;
#X obj 931 202 loadbang;
#X msg 931 229 120;
#X obj 931 250 s \$0-tempo_rec;
#X msg 1021 229 16;
#X obj 1021 250 s \$0-nBeats_rec;
#X msg 822 229 2;
#X obj 822 250 s \$0-division_rec;
#X connect 0 0 1 0;
#X connect 1 0 2 0;
#X connect 2 0 1 1;
#X connect 2 0 8 0;
#X connect 2 0 23 0;
#X connect 3 0 0 0;
#X connect 3 0 7 0;
#X connect 4 0 7 0;
#X connect 4 0 8 1;
#X connect 5 0 6 0;
#X connect 6 0 4 1;
#X connect 7 0 10 0;
#X connect 8 0 9 0;
#X connect 8 0 3 1;
#X connect 11 0 29 0;
#X connect 12 0 8 2;
#X connect 13 0 4 0;
#X connect 15 0 16 0;
#X connect 16 0 14 0;
#X connect 16 1 5 0;
#X connect 16 2 17 0;
#X connect 17 0 19 0;
#X connect 17 1 20 0;
#X connect 17 2 21 0;
#X connect 18 0 22 0;
#X connect 19 0 18 0;
#X connect 20 0 18 0;
#X connect 21 0 18 0;
#X connect 23 0 31 0;
#X connect 24 0 25 0;
#X connect 25 0 26 0;
#X connect 26 0 27 0;
#X connect 26 0 23 1;
#X connect 27 0 28 0;
#X connect 29 0 3 0;
#X connect 29 1 30 0;
#X connect 32 0 33 0;
#X connect 32 0 37 0;
#X connect 32 0 35 0;
#X connect 33 0 34 0;
#X connect 35 0 36 0;
#X connect 37 0 38 0;
#X restore 518 424 pd beatCountLogic;
#X connect 0 0 1 0;
#X connect 1 0 14 0;
#X connect 2 0 3 0;
#X connect 3 0 4 0;
#X connect 4 0 5 0;
#X connect 5 0 24 0;
#X connect 6 1 7 0;
#X connect 8 0 13 0;
#X connect 9 0 10 0;
#X connect 10 0 11 0;
#X connect 10 0 29 0;
#X connect 11 0 12 0;
#X connect 11 0 28 0;
#X connect 14 0 2 0;
#X connect 15 0 17 0;
#X connect 16 0 20 1;
#X connect 17 0 18 0;
#X connect 17 1 16 1;
#X connect 18 0 16 0;
#X connect 19 0 6 0;
#X connect 19 0 11 0;
#X connect 20 0 19 0;
#X connect 24 0 20 0;
#X connect 24 0 29 0;
#X connect 25 0 26 0;
#X connect 25 0 24 1;
#X connect 25 0 27 0;
#X connect 29 0 30 0;
#X connect 29 0 31 0;
#X coords 0 -1 1 1 200 50 2 0 0;
