#N canvas 0 23 1440 842 10;
#X text 971 166 3 values per step \; 1 - pitch \; 2 - velocity \; 3
- tie;
#X obj 220 20 pitchSeq/pitchSeqVoice \$0 0;
#X obj 230 20 pitchSeq/pitchSeqVoice \$0 1;
#X obj 240 20 pitchSeq/pitchSeqVoice \$0 2;
#X obj 250 20 pitchSeq/pitchSeqVoice \$0 3;
#X obj 260 20 pitchSeq/pitchSeqVoice \$0 4;
#X obj 270 20 pitchSeq/pitchSeqVoice \$0 5;
#X obj 280 20 pitchSeq/pitchSeqVoice \$0 6;
#X obj 290 20 pitchSeq/pitchSeqVoice \$0 7;
#X obj 300 20 pitchSeq/pitchSeqVoice \$0 8;
#X obj 310 20 pitchSeq/pitchSeqVoice \$0 9;
#X obj 320 20 pitchSeq/pitchSeqVoice \$0 10;
#X obj 330 20 pitchSeq/pitchSeqVoice \$0 11;
#X obj 340 20 pitchSeq/pitchSeqVoice \$0 12;
#X obj 350 20 pitchSeq/pitchSeqVoice \$0 13;
#X obj 360 20 pitchSeq/pitchSeqVoice \$0 14;
#X obj 370 20 pitchSeq/pitchSeqVoice \$0 15;
#X obj 380 20 pitchSeq/pitchSeqVoice \$0 16;
#X obj 390 20 pitchSeq/pitchSeqVoice \$0 17;
#X obj 400 20 pitchSeq/pitchSeqVoice \$0 18;
#X obj 410 20 pitchSeq/pitchSeqVoice \$0 19;
#X obj 420 20 pitchSeq/pitchSeqVoice \$0 20;
#X obj 430 20 pitchSeq/pitchSeqVoice \$0 21;
#X obj 440 20 pitchSeq/pitchSeqVoice \$0 22;
#X obj 450 20 pitchSeq/pitchSeqVoice \$0 23;
#X obj 460 20 pitchSeq/pitchSeqVoice \$0 24;
#X obj 470 20 pitchSeq/pitchSeqVoice \$0 25;
#X obj 480 20 pitchSeq/pitchSeqVoice \$0 26;
#X obj 490 20 pitchSeq/pitchSeqVoice \$0 27;
#X obj 500 20 pitchSeq/pitchSeqVoice \$0 28;
#X obj 510 20 pitchSeq/pitchSeqVoice \$0 29;
#X obj 520 20 pitchSeq/pitchSeqVoice \$0 30;
#X obj 530 20 pitchSeq/pitchSeqVoice \$0 31;
#X obj 1191 132 array define \$0-voices 32;
#X obj 220 10 hradio 10 1 0 32 \$0-currentBeat_snd \$0-currentBeat_rec
empty 0 -8 0 10 -228856 -1 -1 17;
#X obj 185 20 vradio 12 1 0 11 \$0-octave_snd \$0-octave_rec empty
0 -8 0 10 -99865 -228856 -1 1;
#N canvas 2813 442 450 300 8ve 0;
#X obj 164 15 r \$0-octave_snd;
#X obj 79 54 * -1;
#X obj 79 96 * 12;
#X obj 16 165 s \$0-8ve;
#X floatatom 79 117 5 0 0 0 - - -;
#X floatatom 164 36 5 0 0 0 - - -;
#X obj 79 75 + 10;
#X connect 0 0 5 0;
#X connect 0 0 1 0;
#X connect 1 0 6 0;
#X connect 2 0 3 0;
#X connect 2 0 4 0;
#X connect 6 0 2 0;
#X restore 1191 98 pd 8ve;
#N canvas 1863 170 1245 797 patBanks 0;
#X obj 1 1 cnv 15 173 178 empty empty empty 20 12 0 14 -224684 -66577
0;
#X obj 0 97 hradio 20 1 1 4 \$0-banks_snd \$0-banks_rec empty 0 -8
0 10 -99865 -1 -1 0;
#X obj 0 17 vradio 20 1 1 4 \$0-1to4_snd \$0-1to4_rec empty 0 -8 0
10 -166441 -262144 -1 0;
#X obj 20 17 vradio 20 1 0 4 \$0-5to8_snd \$0-5to8_rec empty 0 -8 0
10 -166441 -166441 -1 0;
#X obj 40 17 vradio 20 1 0 4 \$0-9to12_snd \$0-9to12_rec empty 0 -8
0 10 -166441 -166441 -1 0;
#X obj 60 17 vradio 20 1 0 4 \$0-13to16_snd \$0-13to16_rec empty 0
-8 0 10 -166441 -166441 -1 0;
#X obj 80 17 tgl 15 0 \$0-chain_snd \$0-chain_rec chain 17 7 0 10 -178979
-1 -1 0 1;
#X symbolatom 80 102 10 0 0 0 - #0-chainPatDispSymbol_rec #0-chainPatDispSymbol_snd
;
#X text 20 2 Pattern Chain;
#N canvas 0 23 450 300 patsaveetc 0;
#X obj 0 1 cnv 15 99 43 empty empty empty 20 12 0 14 -228856 -66577
0;
#X obj 0 30 bng 15 250 50 0 \$0-clearPat_snd \$0-clearPat_rec clear_pattern
17 7 0 10 -262130 -1 -1;
#X obj 0 0 bng 15 250 50 0 \$0-savePat_snd \$0-savePat_rec save_pattern
17 7 0 10 -262130 -1 -1;
#X obj 0 15 bng 15 250 50 0 \$0-readPat_snd \$0-readPat_rec read_pattern
17 7 0 10 -262130 -1 -1;
#X coords 0 -1 1 1 100 45 2 0 0;
#X restore 0 129 pd patsaveetc;
#X obj 80 57 bng 15 250 50 0 \$0-clearChain_snd \$0-clearChain_rec
clear_chain 17 7 0 10 -178915 -1 -1;
#X coords 0 -1 1 1 175 180 2 0 0;
#X restore 10 10 pd patBanks;
#X obj 643 446 cnv 15 300 100 empty empty empty 20 12 0 14 -262130
-66577 0;
#X obj 749 521 outlet;
#X obj 667 501 s \$0-currentBeat_rec, f 10;
#N canvas 0 23 919 855 stepLogic 0;
#X obj 262 55 inlet;
#X obj 262 102 * 3;
#X obj 262 165 t f f f, f 25;
#X obj 409 186 + 2;
#X obj 409 206 tabread \$0-steps, f 8;
#X obj 262 206 tabread \$0-steps, f 8;
#X obj 262 333 t f f;
#X obj 318 739 int;
#X obj 201 625 pack, f 13;
#X obj 318 761 pack 0 0;
#X obj 335 186 + 1;
#X obj 335 206 tabread \$0-steps, f 8;
#X obj 201 469 route 0 1;
#X obj 201 380 t b f;
#X obj 201 421 int;
#X obj 201 442 pack, f 5;
#X obj 211 492 expr if($f1!=$f2 \, $f1 \, -1), f 13;
#X obj 211 536 sel -1;
#X obj 201 716 t l b, f 20;
#X text 299 101 <----three values per step;
#X obj 201 802 outlet;
#X obj 308 124 r \$0-patBank;
#X obj 308 145 * 96;
#X obj 262 124 +, f 6;
#X obj 262 186 + 0;
#X obj 262 238 +;
#X obj 286 238 r \$0-8ve, f 6;
#X obj 262 293 +, f 35;
#X obj 574 257 int;
#X floatatom 574 278 5 0 0 0 - - -;
#X obj 575 214 r \$0-keyBase_snd, f 10;
#X connect 0 0 1 0;
#X connect 1 0 23 0;
#X connect 2 0 24 0;
#X connect 2 1 10 0;
#X connect 2 2 3 0;
#X connect 3 0 4 0;
#X connect 4 0 14 1;
#X connect 5 0 25 0;
#X connect 6 0 7 1;
#X connect 6 0 16 1;
#X connect 6 1 13 0;
#X connect 7 0 9 0;
#X connect 8 0 18 0;
#X connect 9 0 20 0;
#X connect 10 0 11 0;
#X connect 11 0 8 1;
#X connect 12 0 8 0;
#X connect 12 1 16 0;
#X connect 13 0 14 0;
#X connect 13 1 15 1;
#X connect 14 0 15 0;
#X connect 15 0 12 0;
#X connect 16 0 17 0;
#X connect 17 1 8 0;
#X connect 18 0 20 0;
#X connect 18 1 7 0;
#X connect 21 0 22 0;
#X connect 22 0 23 1;
#X connect 23 0 2 0;
#X connect 24 0 5 0;
#X connect 25 0 27 0;
#X connect 26 0 25 1;
#X connect 27 0 6 0;
#X connect 28 0 27 1;
#X connect 28 0 29 0;
#X connect 30 0 28 0;
#X restore 749 501 pd stepLogic;
#N canvas 171 51 976 726 patChainLogic 0;
#X obj 77 107 r \$0-banks_snd;
#X obj 197 107 r \$0-1to4_snd;
#X obj 292 107 r \$0-5to8_snd;
#X obj 381 107 r \$0-9to12_snd;
#X obj 485 107 r \$0-13to16_snd;
#X obj 292 128 + 4;
#X obj 381 149 + 4;
#X obj 381 128 + 4;
#X obj 485 128 + 4;
#X obj 485 149 + 4;
#X obj 485 170 + 4;
#X obj 239 203 int;
#X obj 239 224 t f f, f 9;
#X obj 77 269 +, f 32;
#X obj 239 245 t b f;
#X obj 77 128 * 16;
#X obj 77 425 s \$0-patBank;
#N canvas 0 23 836 458 displayLogic 0;
#X obj 11 297 s \$0-1to4_rec;
#X obj 105 297 s \$0-5to8_rec;
#X obj 194 297 s \$0-9to12_rec;
#X obj 298 297 s \$0-13to16_rec;
#X obj 84 42 / 4;
#X obj 84 63 int;
#X obj 13 138 == 0;
#X obj 114 133 == 1;
#X obj 176 133 == 2;
#X obj 279 133 == 3;
#X msg 14 236 color 1 \$1;
#X obj 13 159 * -1;
#X obj 13 180 + 1;
#X msg 118 233 color 1 \$1;
#X obj 117 156 * -1;
#X obj 117 177 + 1;
#X msg 201 242 color 1 \$1;
#X obj 200 165 * -1;
#X obj 200 186 + 1;
#X msg 297 248 color 1 \$1;
#X obj 296 171 * -1;
#X obj 296 192 + 1;
#X obj 82 8 inlet;
#X connect 4 0 5 0;
#X connect 5 0 6 0;
#X connect 5 0 7 0;
#X connect 5 0 8 0;
#X connect 5 0 9 0;
#X connect 6 0 11 0;
#X connect 7 0 14 0;
#X connect 8 0 17 0;
#X connect 9 0 20 0;
#X connect 10 0 0 0;
#X connect 11 0 12 0;
#X connect 12 0 10 0;
#X connect 13 0 1 0;
#X connect 14 0 15 0;
#X connect 15 0 13 0;
#X connect 16 0 2 0;
#X connect 17 0 18 0;
#X connect 18 0 16 0;
#X connect 19 0 3 0;
#X connect 20 0 21 0;
#X connect 21 0 19 0;
#X connect 22 0 4 0;
#X restore 290 245 pd displayLogic;
#X obj 494 324 spigot;
#X obj 494 345 t f b;
#X obj 521 371 array size \$0-patChain;
#X obj 489 498 array define \$0-patChain 1;
#X obj 571 400 + 1;
#X obj 571 427 array size \$0-patChain, f 11;
#X obj 521 400 - 1;
#X obj 494 427 tabwrite \$0-patChain, f 11;
#X obj 77 400 t f f, f 16;
#N canvas 2254 238 931 634 copPat 0;
#X obj 77 45 t f f;
#X obj 104 67 spigot;
#X obj 104 88 t b f, f 14;
#X obj 82 157 int;
#X obj 82 235 until;
#X msg 82 256 1;
#X obj 82 277 + -1, f 7;
#X obj 82 298 int;
#X msg 121 214 -1;
#X obj 82 319 t f f;
#X obj 133 365 +, f 6;
#X obj 133 389 tabread \$0-steps;
#X obj 82 184 t b b f, f 15;
#X obj 82 365 +;
#X obj 82 416 pack, f 9;
#X obj 82 460 tabwrite \$0-steps;
#X msg 82 437 \$2 \$1;
#X obj 77 22 inlet;
#X obj 137 44 r \$0-shiftKey;
#X obj 343 195 * 2;
#X obj 343 220 + 6144;
#X obj 343 333 + 0;
#X obj 469 333 + 1;
#X obj 406 333 tabread \$0-steps, f 8;
#X obj 406 364 pack, f 11;
#X obj 286 364 pack, f 10;
#X obj 286 407 tabwrite \$0-steps, f 8;
#X obj 406 408 tabwrite \$0-steps, f 8;
#X obj 286 258 * 2;
#X obj 286 283 + 6144;
#X obj 286 312 + 0;
#X obj 406 312 + 1;
#X text 387 219 <-- step values come first: 32*3*16*4 = 6144;
#X text 550 101 32 steps w/3 values each = 96 \; 1 - pitch \; 2 - vel
\; 3 - tie;
#X msg 82 214 96;
#X obj 168 256 * 96;
#X obj 212 256 * 96;
#X obj 173 64 tgl 15 0 empty empty empty 17 7 0 10 -262144 -1 -1 1
1;
#X obj 286 333 tabread \$0-steps, f 8;
#X obj 528 415 print 8ve;
#X obj 321 463 print keyBase;
#X connect 0 0 3 1;
#X connect 0 1 1 0;
#X connect 1 0 2 0;
#X connect 2 0 3 0;
#X connect 2 1 19 0;
#X connect 2 1 36 0;
#X connect 3 0 12 0;
#X connect 4 0 5 0;
#X connect 5 0 6 0;
#X connect 6 0 7 0;
#X connect 7 0 6 1;
#X connect 7 0 9 0;
#X connect 8 0 6 1;
#X connect 9 0 13 0;
#X connect 9 1 10 0;
#X connect 10 0 11 0;
#X connect 11 0 14 1;
#X connect 12 0 34 0;
#X connect 12 1 8 0;
#X connect 12 2 28 0;
#X connect 12 2 35 0;
#X connect 13 0 14 0;
#X connect 14 0 16 0;
#X connect 16 0 15 0;
#X connect 17 0 0 0;
#X connect 18 0 1 1;
#X connect 18 0 37 0;
#X connect 19 0 20 0;
#X connect 20 0 22 0;
#X connect 20 0 21 0;
#X connect 21 0 25 1;
#X connect 22 0 24 1;
#X connect 23 0 24 0;
#X connect 24 0 27 0;
#X connect 24 0 39 0;
#X connect 25 0 26 0;
#X connect 25 0 40 0;
#X connect 28 0 29 0;
#X connect 29 0 31 0;
#X connect 29 0 30 0;
#X connect 30 0 38 0;
#X connect 31 0 23 0;
#X connect 34 0 4 0;
#X connect 35 0 10 1;
#X connect 36 0 13 1;
#X connect 38 0 25 0;
#X restore 170 425 pd copPat;
#X msg 545 344 1;
#X obj 301 224 r \$0-patDisplay;
#X obj 79 545 r \$0-chainDispMess;
#X obj 79 566 t f b;
#X obj 106 588 array size \$0-patChain;
#X obj 79 631 pack, f 5;
#X msg 79 652 symbol \$1_of_\$2;
#X obj 106 609 - 1;
#X obj 79 673 s \$0-chainPatDispSymbol_rec;
#X obj 79 587 + 1;
#N canvas 109 23 718 671 patChainReadLogic 0;
#X obj 138 2 inlet;
#X obj 137 299 spigot, f 22;
#X obj 292 164 r \$0-chain_snd;
#X obj 292 185 t f b, f 11;
#X obj 292 271 *, f 11;
#X obj 355 207 array size \$0-patChain;
#X obj 355 228 - 1;
#X obj 355 249 > 0;
#X obj 137 70 sel 0;
#X msg 137 91 1;
#X obj 137 112 + -1;
#X obj 137 133 int;
#X obj 137 273 %;
#X obj 137 154 t f b;
#X obj 15 463 s \$0-chainDispMess;
#X obj 260 506 s \$0-patDisplay;
#X obj 260 443 int;
#X obj 260 464 t f f, f 18;
#X obj 260 422 % 16;
#X msg 365 506 set \$1;
#X obj 291 548 s \$0-1to4_rec;
#X obj 386 548 s \$0-5to8_rec;
#X obj 475 548 s \$0-9to12_rec;
#X obj 579 548 s \$0-13to16_rec;
#X obj 161 422 / 16;
#X obj 161 443 int;
#X msg 161 464 set \$1;
#X obj 161 485 s \$0-banks_rec;
#X obj 365 485 % 4;
#X obj 161 353 tabread \$0-patChain;
#X obj 137 320 t f f;
#X obj 161 377 t f f, f 17;
#X obj 260 403 s \$0-patBank;
#X obj 161 398 pipe 5;
#X obj 43 403 pipe 5;
#X obj 152 186 array size \$0-patChain;
#X obj 152 220 - 1;
#X connect 0 0 8 0;
#X connect 1 0 30 0;
#X connect 2 0 3 0;
#X connect 3 0 4 0;
#X connect 3 1 5 0;
#X connect 4 0 1 1;
#X connect 5 0 6 0;
#X connect 6 0 7 0;
#X connect 7 0 4 1;
#X connect 8 0 9 0;
#X connect 9 0 10 0;
#X connect 10 0 11 0;
#X connect 11 0 10 1;
#X connect 11 0 13 0;
#X connect 12 0 1 0;
#X connect 13 0 12 0;
#X connect 13 1 35 0;
#X connect 16 0 17 0;
#X connect 17 0 15 0;
#X connect 17 1 28 0;
#X connect 18 0 16 0;
#X connect 19 0 20 0;
#X connect 19 0 21 0;
#X connect 19 0 23 0;
#X connect 24 0 25 0;
#X connect 25 0 26 0;
#X connect 26 0 27 0;
#X connect 28 0 19 0;
#X connect 29 0 31 0;
#X connect 30 0 34 0;
#X connect 30 1 29 0;
#X connect 31 0 33 0;
#X connect 31 1 32 0;
#X connect 33 0 18 0;
#X connect 33 0 24 0;
#X connect 34 0 14 0;
#X connect 35 0 36 0;
#X connect 36 0 12 1;
#X restore 77 36 pd patChainReadLogic;
#X obj 77 11 inlet;
#X obj 545 323 r \$0-clearChain_snd;
#N canvas 0 23 339 398 OLD 0;
#X obj 42 35 array size \$0-patChain;
#X obj 97 97 - 1;
#X obj 97 142 until;
#X msg 97 163 1;
#X obj 97 184 + -1, f 7;
#X obj 97 205 int;
#X obj 97 79 t f b, f 7;
#X msg 136 161 -1;
#X obj 97 226 tabread \$0-patChain, f 11;
#X obj 97 118 sel 0;
#X obj 42 56 t b f b, f 19;
#X msg 97 278 add2 \$1;
#X msg 42 313 set chain 5 6;
#X msg 177 272 set \, add2 set chain, f 11;
#X obj 42 339 s \$0-patChainDisp;
#X obj 97 257 + 1;
#X obj 163 318 r \$0-patChainDisp;
#X msg 162 342 chain 5 6;
#X connect 0 0 10 0;
#X connect 1 0 9 0;
#X connect 2 0 3 0;
#X connect 3 0 4 0;
#X connect 4 0 5 0;
#X connect 5 0 4 1;
#X connect 5 0 8 0;
#X connect 6 0 1 0;
#X connect 6 1 7 0;
#X connect 7 0 4 1;
#X connect 8 0 15 0;
#X connect 9 1 2 0;
#X connect 10 0 12 0;
#X connect 10 1 6 0;
#X connect 10 2 13 0;
#X connect 11 0 12 0;
#X connect 12 0 14 0;
#X connect 13 0 12 0;
#X connect 15 0 11 0;
#X connect 16 0 17 0;
#X restore 805 59 pd OLD;
#X obj 527 297 r \$0-altKey;
#X obj 170 315 r \$0-altKey;
#X obj 170 336 * -1;
#X obj 170 357 + 1;
#X obj 218 378 tgl 15 0 empty empty empty 17 7 0 10 -262144 -1 -1 1
1;
#X obj 77 380 spigot 1, f 16;
#X obj 77 290 t f f, f 70;
#X text 712 123 32 steps w/3 values each \; 1 - pitch \; 2 - vel \;
3 - tie;
#X connect 0 0 15 0;
#X connect 1 0 11 0;
#X connect 2 0 5 0;
#X connect 3 0 7 0;
#X connect 4 0 8 0;
#X connect 5 0 11 0;
#X connect 6 0 11 0;
#X connect 7 0 6 0;
#X connect 8 0 9 0;
#X connect 9 0 10 0;
#X connect 10 0 11 0;
#X connect 11 0 12 0;
#X connect 12 0 14 0;
#X connect 12 1 17 0;
#X connect 13 0 48 0;
#X connect 14 0 13 0;
#X connect 14 1 13 1;
#X connect 15 0 13 0;
#X connect 18 0 19 0;
#X connect 19 0 25 0;
#X connect 19 1 20 0;
#X connect 20 0 22 0;
#X connect 20 0 24 0;
#X connect 22 0 23 0;
#X connect 24 0 25 1;
#X connect 26 0 16 0;
#X connect 26 1 27 0;
#X connect 28 0 20 0;
#X connect 29 0 17 0;
#X connect 30 0 31 0;
#X connect 31 0 37 0;
#X connect 31 1 32 0;
#X connect 32 0 35 0;
#X connect 33 0 34 0;
#X connect 34 0 36 0;
#X connect 35 0 33 1;
#X connect 37 0 33 0;
#X connect 39 0 38 0;
#X connect 40 0 28 0;
#X connect 42 0 18 1;
#X connect 43 0 44 0;
#X connect 44 0 45 0;
#X connect 45 0 46 0;
#X connect 45 0 47 1;
#X connect 47 0 26 0;
#X connect 48 0 47 0;
#X connect 48 1 18 0;
#X restore 831 501 pd patChainLogic;
#X obj 667 482 t f f f, f 28;
#X obj 1052 297 loadbang;
#X msg 1052 318 0;
#X obj 949 338 s \$0-patDisplay;
#X obj 1052 339 s \$0-patBank;
#X obj 855 604 r \$0-toStepsArray;
#X msg 1169 319 2048;
#X obj 1169 340 t f b, f 10;
#X obj 1169 361 until;
#X msg 1169 382 1, f 1;
#X obj 1169 403 + -1;
#X obj 1169 424 int;
#X obj 1169 466 + 1;
#X obj 1169 445 * 3;
#X msg 1210 361 -1;
#X obj 1169 509 tabwrite \$0-steps;
#X msg 1169 487 100 \$1;
#X text 109 130 hold shift \; to copy pat \; \; Hold alt to \; create
chain;
#N canvas 0 23 1113 677 keyboard 0;
#X obj 0 240 cnv 10 10 10 empty empty C 2 5 0 10 -228856 -262144 0
;
#X obj 0 230 cnv 10 10 10 empty empty empty 20 12 0 14 -33289 -66577
0;
#X obj 0 220 cnv 10 10 10 empty empty D 2 5 0 10 -228856 -262144 0
;
#X obj 0 210 cnv 10 10 10 empty empty empty 20 12 0 14 -33289 -66577
0;
#X obj 0 190 cnv 10 10 10 empty empty F 2 5 0 10 -228856 -262144 0
;
#X obj 0 180 cnv 10 10 10 empty empty empty 20 12 0 14 -33289 -66577
0;
#X obj 0 171 cnv 10 10 10 empty empty G 2 5 0 10 -228856 -262144 0
;
#X obj 0 160 cnv 10 10 10 empty empty empty 20 12 0 14 -33289 -66577
0;
#X obj 0 200 cnv 10 10 10 empty empty E 2 5 0 10 -228856 -262144 0
;
#X obj 0 150 cnv 10 10 10 empty empty A 2 5 0 10 -228856 -262144 0
;
#X obj 0 140 cnv 10 10 10 empty empty empty 20 12 0 14 -33289 -66577
0;
#X obj 0 130 cnv 10 10 10 empty empty B 2 5 0 10 -228856 -262144 0
;
#X obj 368 82 int;
#X obj 368 103 * 10;
#X obj 368 124 + 120;
#X obj 368 145 pack 0 \$0;
#X obj 508 230 namecanvas \$0-keyboardDisp;
#X msg 368 166 \; \$2-keyboardDisp donecanvasdialog;
#X obj 307 322 t f b, f 69;
#X obj 706 354 f \$0;
#X obj 307 289 r \$0-keyBase_snd;
#X msg 556 388 \; \$1-keyboardDisp donecanvasdialog 1 -1 0 0 -1 1 1
45 45 0 0;
#X obj 307 341 int;
#X obj 307 404 pack 0 \$0;
#X obj 368 61 r \$0-keyBase_snd;
#X obj 307 362 * -10;
#X obj 0 120 cnv 10 10 10 empty empty C 2 5 0 10 -228856 -262144 0
;
#X obj 0 110 cnv 10 10 10 empty empty empty 20 12 0 14 -33289 -66577
0;
#X obj 0 100 cnv 10 10 10 empty empty D 2 5 0 10 -228856 -262144 0
;
#X obj 0 90 cnv 10 10 10 empty empty empty 20 12 0 14 -33289 -66577
0;
#X obj 0 70 cnv 10 10 10 empty empty F 2 5 0 10 -228856 -262144 0;
#X obj 0 60 cnv 10 10 10 empty empty empty 20 12 0 14 -33289 -66577
0;
#X obj 0 51 cnv 10 10 10 empty empty G 2 5 0 10 -228856 -262144 0;
#X obj 0 40 cnv 10 10 10 empty empty empty 20 12 0 14 -33289 -66577
0;
#X obj 0 80 cnv 10 10 10 empty empty E 2 5 0 10 -228856 -262144 0;
#X obj 0 30 cnv 10 10 10 empty empty A 2 5 0 10 -228856 -262144 0;
#X obj 0 20 cnv 10 10 10 empty empty empty 20 12 0 14 -33289 -66577
0;
#X obj 0 10 cnv 10 10 10 empty empty B 2 5 0 10 -228856 -262144 0;
#X obj 0 0 cnv 10 10 10 empty empty C 2 5 0 10 -228856 -262144 0;
#X msg 307 453 \; \$2-keyboardDisp donecanvasdialog 1 -1 2 0 -1 1 1
12 132 -1 \$1 \; \$2-keyboardDisp dirty 0;
#X obj 307 383 + 119;
#X connect 12 0 13 0;
#X connect 13 0 14 0;
#X connect 14 0 15 0;
#X connect 15 0 17 0;
#X connect 18 0 22 0;
#X connect 18 1 19 0;
#X connect 19 0 21 0;
#X connect 20 0 18 0;
#X connect 22 0 25 0;
#X connect 23 0 39 0;
#X connect 25 0 40 0;
#X connect 40 0 23 0;
#X coords 0 -1 1 1 12 132 2 -1 119;
#X restore 208 21 pd keyboard;
#X obj 200 23 vsl 8 125 0 12 0 0 \$0-keyBase_snd \$0-keyBase_rec empty
0 -9 0 10 -99865 -262144 -1 0 1;
#X text 1099 623 32 steps \, 3 values per step = 96 \; 16*4patterns
= 64 \; 6144 values for steps \; each pat also has 8ve & basenote values
--> 64*2 = 128 \; 6144+128 =;
#X obj 855 627 array define \$0-steps 6272;
#X obj 726 213 loadbang;
#X obj 777 303 s \$0-arrayName;
#X obj 705 213 bng 15 250 50 0 empty empty empty 17 7 0 10 -262144
-1 -1;
#X obj 777 258 f \$0;
#X msg 777 280 symbol \$1-steps;
#N canvas 172 185 1078 650 readSaveClearPat_LOGIC 0;
#X msg 148 62 const 0;
#X obj 121 20 r \$0-clearPat_snd;
#X obj 446 36 r \$0-savePat_snd;
#X obj 340 210 r \$0-readPat_snd;
#X obj 340 291 openpanel;
#X obj 340 312 pack s \$0;
#X msg 457 361 \; \$2-steps read \$1;
#X obj 340 333 t b l, f 20;
#X obj 446 117 pack s \$0;
#X obj 446 97 savepanel;
#X msg 446 138 \; \$2-steps write \$1.txt;
#X obj 340 264 pdcontrol;
#X msg 340 234 dir;
#X obj 446 75 pdcontrol;
#X msg 446 55 dir;
#X obj 148 84 s \$0-toStepsArray;
#X obj 709 60 r \$0-patBank;
#X obj 709 81 * 2;
#X obj 709 102 + 6144;
#X text 754 104 <-- step values come first;
#X obj 709 123 t f f;
#X obj 633 187 + 0;
#X obj 633 207 tabread \$0-steps;
#X obj 633 228 s \$0-keyBase_rec;
#X obj 774 207 tabread \$0-steps;
#X obj 774 187 + 1;
#X obj 774 228 s \$0-octave_rec;
#X obj 449 416 r \$0-patBank;
#X obj 449 437 * 2;
#X obj 449 458 + 6144;
#X text 494 460 <-- step values come first;
#X obj 336 487 + 0;
#X obj 407 488 + 1;
#X obj 315 507 pack;
#X obj 386 507 pack;
#X obj 365 574 tabwrite \$0-steps;
#X obj 315 416 r \$0-keyBase_snd, f 10;
#X obj 386 416 r \$0-octave_snd, f 9;
#X obj 121 41 t b b;
#X obj 42 41 r \$0-patBank;
#X obj 121 82 int;
#X obj 121 103 s \$0-patBank;
#X obj 261 316 r \$0-patBank;
#X obj 340 357 int;
#X obj 340 378 s \$0-patBank;
#X connect 0 0 15 0;
#X connect 1 0 38 0;
#X connect 2 0 14 0;
#X connect 3 0 12 0;
#X connect 4 0 5 0;
#X connect 5 0 7 0;
#X connect 7 0 43 0;
#X connect 7 1 6 0;
#X connect 8 0 10 0;
#X connect 9 0 8 0;
#X connect 11 0 4 0;
#X connect 12 0 11 0;
#X connect 13 0 9 0;
#X connect 14 0 13 0;
#X connect 16 0 17 0;
#X connect 17 0 18 0;
#X connect 18 0 20 0;
#X connect 20 0 21 0;
#X connect 20 1 25 0;
#X connect 21 0 22 0;
#X connect 22 0 23 0;
#X connect 24 0 26 0;
#X connect 25 0 24 0;
#X connect 27 0 28 0;
#X connect 28 0 29 0;
#X connect 29 0 32 0;
#X connect 29 0 31 0;
#X connect 31 0 33 1;
#X connect 32 0 34 1;
#X connect 33 0 35 0;
#X connect 34 0 35 0;
#X connect 36 0 33 0;
#X connect 37 0 34 0;
#X connect 38 0 40 0;
#X connect 38 1 0 0;
#X connect 39 0 40 1;
#X connect 40 0 41 0;
#X connect 42 0 43 1;
#X connect 43 0 44 0;
#X restore 712 373 pd readSaveClearPat_LOGIC;
#X obj 728 332 s \$0-clearPat_snd;
#N canvas 389 298 867 588 keyboardInput 0;
#X obj 202 52 keyname, f 8;
#X obj 202 73 pack 0 s;
#X msg 202 94 \$2 \$1;
#X obj 202 115 route Alt_L;
#X obj 202 137 s \$0-altKey;
#X obj 63 137 s \$0-shiftKey;
#X obj 63 52 keyname, f 8;
#X obj 63 73 pack 0 s;
#X msg 63 94 \$2 \$1;
#X obj 63 115 route Shift_L;
#X obj 63 206 key;
#X obj 131 206 keyup;
#X msg 63 248 1;
#X obj 63 269 change;
#X msg 131 248 0;
#X obj 63 227 sel 102;
#X obj 131 227 sel 102;
#X obj 63 400 s \$0-randomiser_rec;
#X obj 358 60 key;
#X obj 358 85 sel 32;
#X obj 358 151 s \$0-on/off_rec;
#X obj 358 106 int, f 8;
#X obj 358 127 < 1;
#X obj 403 85 r \$0-on/off_snd;
#X text 69 421 f - random fill;
#X text 351 42 spacebar - start/stop playback;
#X obj 63 290 t f f;
#X obj 219 288 r \$0-advanced_snd;
#X floatatom 346 323 5 0 0 0 - - -;
#X obj 216 322 int;
#X obj 150 287 sel 1 0;
#X obj 188 322 i 0;
#X obj 198 351 s \$0-advanced;
#X connect 0 0 1 0;
#X connect 0 1 1 1;
#X connect 1 0 2 0;
#X connect 2 0 3 0;
#X connect 3 0 4 0;
#X connect 6 0 7 0;
#X connect 6 1 7 1;
#X connect 7 0 8 0;
#X connect 8 0 9 0;
#X connect 9 0 5 0;
#X connect 10 0 15 0;
#X connect 11 0 16 0;
#X connect 12 0 13 0;
#X connect 13 0 26 0;
#X connect 14 0 13 0;
#X connect 15 0 12 0;
#X connect 16 0 14 0;
#X connect 18 0 19 0;
#X connect 19 0 21 0;
#X connect 21 0 22 0;
#X connect 23 0 21 1;
#X connect 26 0 17 0;
#X connect 26 1 30 0;
#X connect 27 0 28 0;
#X connect 27 0 29 1;
#X connect 29 0 32 0;
#X connect 30 0 31 0;
#X connect 30 1 29 0;
#X connect 31 0 32 0;
#X restore 834 46 pd keyboardInput;
#X obj 273 345 inlet~;
#N canvas 0 23 744 690 beatLogic 0;
#X obj 31 37 inlet~;
#X obj 31 439 wrap~;
#X obj 31 464 threshold~ 0.5 0 0.5 0, f 11;
#X msg 94 498 1, f 1;
#X obj 94 519 + -1;
#X obj 94 540 int;
#X obj 94 588 s \$0-beat;
#X obj 116 474 r \$0-resetCount_snd;
#X msg 116 498 -1, f 2;
#X obj 166 255 pow~ 1;
#X obj 218 197 r \$0-swing_snd;
#X obj 258 37 r \$0-division_snd;
#X obj 185 77 == 0;
#X obj 228 77 == 1;
#X obj 278 77 == 2;
#X obj 31 179 *~;
#X obj 166 181 *~;
#X obj 375 181 *~;
#X obj 166 278 *~ 2, f 5;
#X obj 375 275 pow~ 1;
#X obj 417 223 r \$0-swing_snd;
#X obj 375 298 *~ 2, f 5;
#X obj 375 202 *~ 2;
#X obj 375 223 wrap~;
#X obj 263 513 r \$0-nBeats_snd;
#X obj 218 218 + 1;
#X obj 417 244 + 1;
#X obj 94 565 % 32;
#X connect 0 0 15 0;
#X connect 0 0 16 0;
#X connect 0 0 17 0;
#X connect 1 0 2 0;
#X connect 2 1 3 0;
#X connect 3 0 4 0;
#X connect 4 0 5 0;
#X connect 5 0 4 1;
#X connect 5 0 27 0;
#X connect 7 0 8 0;
#X connect 8 0 4 1;
#X connect 9 0 18 0;
#X connect 10 0 25 0;
#X connect 11 0 12 0;
#X connect 11 0 13 0;
#X connect 11 0 14 0;
#X connect 12 0 15 1;
#X connect 13 0 16 1;
#X connect 14 0 17 1;
#X connect 15 0 1 0;
#X connect 16 0 9 0;
#X connect 17 0 22 0;
#X connect 18 0 1 0;
#X connect 19 0 21 0;
#X connect 20 0 26 0;
#X connect 21 0 1 0;
#X connect 22 0 23 0;
#X connect 23 0 19 0;
#X connect 24 0 27 1;
#X connect 25 0 9 1;
#X connect 26 0 19 1;
#X connect 27 0 6 0;
#X restore 273 372 pd beatLogic;
#X obj 667 461 r \$0-beat;
#X obj 543 84 vradio 15 1 1 3 \$0-division_snd \$0-division_rec empty
0 -8 0 10 -262144 -1 -1 2;
#X obj 546 129 hsl 51 15 0 1 0 1 \$0-swing_snd \$0-swing_rec swing
5 7 0 10 -228856 -262144 -1 2000 1;
#X floatatom 543 144 5 1 16 1 beats #0-nBeats_rec #0-nBeats_snd;
#X text 558 82 1/4;
#X text 558 98 1/8;
#X text 558 113 1/16;
#X connect 41 0 39 0;
#X connect 43 0 40 0;
#X connect 43 1 41 0;
#X connect 43 2 42 0;
#X connect 44 0 45 0;
#X connect 45 0 46 0;
#X connect 45 0 47 0;
#X connect 48 0 64 0;
#X connect 49 0 50 0;
#X connect 50 0 51 0;
#X connect 50 1 57 0;
#X connect 51 0 52 0;
#X connect 52 0 53 0;
#X connect 53 0 54 0;
#X connect 54 0 56 0;
#X connect 54 0 53 1;
#X connect 55 0 59 0;
#X connect 56 0 55 0;
#X connect 57 0 53 1;
#X connect 59 0 58 0;
#X connect 65 0 68 0;
#X connect 65 0 71 0;
#X connect 67 0 68 0;
#X connect 67 0 71 0;
#X connect 68 0 69 0;
#X connect 69 0 66 0;
#X connect 73 0 74 0;
#X connect 75 0 43 0;
#X coords 0 -1 1 1 600 180 2 10 10;
