#N canvas 525 63 302 689 10;
#X obj 30 85 list fromsymbol;
#X obj 61 246 < 58;
#X obj 30 272 &&;
#X obj 49 456 symbol;
#X obj 30 298 sel 0 1;
#X obj 30 215 t f f f;
#X obj 49 327 f;
#X obj 49 349 sel 47 46;
#X obj 49 431 bang;
#X obj 74 374 f;
#X obj 101 374 + 1;
#N canvas 65 87 662 518 list-rdrip 0;
#X obj 123 97 t a a;
#X obj 123 254 spigot;
#X obj 162 162 bang;
#X obj 162 181 1;
#X obj 283 162 route bang;
#X obj 243 163 bang;
#X obj 243 182 0;
#X obj 162 127 list split 2;
#X obj 48 387 list split;
#X obj 115 339 list length;
#X obj 115 364 >> 1;
#X obj 91 32 inlet;
#X obj 350 428 outlet;
#X obj 407 428 outlet;
#X text 462 430 signal end of list;
#X obj 123 273 t a a;
#X text 155 29 Copyright 2009 by Mathieu Bouchard/Frank Barknecht;
#X obj 48 419 spigot;
#X obj 91 66 t b a b;
#X obj 219 68 inlet;
#X obj 407 404 spigot;
#X obj 177 103 1;
#X obj 219 102 0;
#X text 261 69 stop;
#X connect 0 0 1 0;
#X connect 0 1 7 0;
#X connect 1 0 15 0;
#X connect 2 0 3 0;
#X connect 3 0 1 1;
#X connect 4 1 12 0;
#X connect 5 0 6 0;
#X connect 6 0 1 1;
#X connect 7 0 2 0;
#X connect 7 2 4 0;
#X connect 7 2 5 0;
#X connect 8 0 17 0;
#X connect 8 1 17 0;
#X connect 9 0 10 0;
#X connect 10 0 8 1;
#X connect 11 0 18 0;
#X connect 15 0 8 0;
#X connect 15 1 9 0;
#X connect 17 0 0 0;
#X connect 18 0 20 0;
#X connect 18 1 0 0;
#X connect 18 2 21 0;
#X connect 19 0 22 0;
#X connect 20 0 13 0;
#X connect 21 0 17 1;
#X connect 21 0 20 1;
#X connect 22 0 17 1;
#X connect 22 0 20 1;
#X restore 30 184 pd list-rdrip;
#X obj 30 246 > 45;
#X obj 30 106 route 45;
#X obj 165 560 list prepend;
#X obj 30 132 t a b;
#X obj 57 154 f 1;
#X obj 75 132 t a b;
#X obj 102 153 f 0;
#X obj 165 582 route 0 1;
#X obj 190 607 * -1;
#X obj 213 389 f;
#X obj 238 389 + 1;
#X obj 153 389 - 48;
#X obj 153 456 *;
#X obj 183 415 pow;
#X obj 153 366 t f b b;
#X obj 153 484 +;
#X obj 153 512 t f f;
#X obj 228 366 t f f b;
#X obj 74 399 sel 1 0;
#X obj 93 431 f;
#X obj 93 484 /;
#X obj 108 455 * 10;
#X obj 165 536 f;
#X obj 30 59 t s s b;
#X obj 89 327 f 0;
#X obj 93 512 t b f;
#X obj 93 536 f 0;
#X obj 49 655 outlet;
#X obj 183 389 f 10;
#X obj 30 33 symbol;
#X obj 30 8 inlet;
#X connect 0 0 13 0;
#X connect 1 0 2 1;
#X connect 2 0 4 0;
#X connect 3 0 39 0;
#X connect 4 0 8 0;
#X connect 4 1 6 0;
#X connect 5 0 12 0;
#X connect 5 1 1 0;
#X connect 5 2 6 1;
#X connect 6 0 7 0;
#X connect 7 0 8 0;
#X connect 7 1 9 0;
#X connect 7 2 26 0;
#X connect 8 0 3 0;
#X connect 8 0 11 1;
#X connect 8 0 37 0;
#X connect 9 0 10 0;
#X connect 9 0 30 0;
#X connect 10 0 9 1;
#X connect 11 0 5 0;
#X connect 11 1 29 0;
#X connect 12 0 2 0;
#X connect 13 0 15 0;
#X connect 13 1 17 0;
#X connect 14 0 19 0;
#X connect 15 0 11 0;
#X connect 15 1 16 0;
#X connect 16 0 14 1;
#X connect 17 0 11 0;
#X connect 17 1 18 0;
#X connect 18 0 14 1;
#X connect 19 0 39 0;
#X connect 19 1 20 0;
#X connect 20 0 39 0;
#X connect 21 0 22 0;
#X connect 21 0 25 1;
#X connect 22 0 21 1;
#X connect 23 0 24 0;
#X connect 24 0 27 0;
#X connect 25 0 24 1;
#X connect 25 0 33 0;
#X connect 26 0 23 0;
#X connect 26 1 40 0;
#X connect 26 2 21 0;
#X connect 27 0 28 0;
#X connect 28 0 27 1;
#X connect 28 1 31 1;
#X connect 28 1 34 1;
#X connect 29 0 21 1;
#X connect 29 1 27 1;
#X connect 29 2 34 0;
#X connect 30 0 8 0;
#X connect 30 1 31 0;
#X connect 31 0 32 0;
#X connect 32 0 37 0;
#X connect 33 0 32 1;
#X connect 34 0 14 0;
#X connect 35 0 0 0;
#X connect 35 1 3 1;
#X connect 35 2 36 0;
#X connect 36 0 9 1;
#X connect 37 0 38 0;
#X connect 37 1 27 1;
#X connect 38 0 21 1;
#X connect 40 0 25 0;
#X connect 41 0 35 0;
#X connect 42 0 41 0;
