#N canvas 0 23 879 527 10;
#X obj 26 2 synth1;
#X obj 26 102 synth1;
#X msg 260 193 \$1 0;
#X msg 243 289 \$1 1;
#X obj 260 214 tabwrite \$0-voices;
#X obj 243 310 tabwrite \$0-voices;
#X obj 692 130 array define \$0-voices 2;
#X obj 646 19 loadbang;
#X obj 617 18 bng 15 250 50 0 empty empty empty 17 7 0 10 -262144 -1
-1;
#X obj 646 40 s \$0-lbang;
#X obj 298 32 tgl 15 0 empty empty empty 17 7 0 10 -262144 -1 -1 1
1;
#N canvas 1561 114 1024 489 envLink 0;
#X obj 240 32 r \$0-lbang;
#X obj 240 74 tabread \$0-voices;
#X msg 93 125 \$1-a_snd;
#X msg 240 53 0;
#X msg 165 125 \$1-d_snd;
#X msg 235 126 \$1-s_snd;
#X msg 307 126 \$1-r_snd;
#X obj 418 163 t b f;
#X obj 93 195 f;
#X obj 165 195 f;
#X obj 235 196 f;
#X obj 307 196 f;
#X obj 93 226 spigot;
#X obj 165 226 spigot;
#X obj 235 227 spigot;
#X obj 307 227 spigot;
#X obj 355 199 i;
#X obj 93 247 change;
#X obj 165 247 change;
#X obj 235 248 change;
#X obj 307 248 change;
#X obj 93 348 s;
#X obj 388 233 r \$0-lbang;
#X obj 388 275 tabread \$0-voices;
#X msg 100 311 symbol \$1-a_rec, f 8;
#X msg 388 254 1;
#X obj 165 348 s;
#X msg 172 311 symbol \$1-d_rec, f 8;
#X obj 235 349 s;
#X obj 307 349 s;
#X msg 242 312 symbol \$1-s_rec, f 8;
#X msg 314 312 symbol \$1-r_rec, f 8;
#X floatatom 93 268 5 0 0 0 - - -;
#X floatatom 304 105 5 0 0 0 - - -;
#X obj 93 154 receiver;
#X obj 165 154 receiver;
#X obj 235 155 receiver;
#X obj 307 155 receiver;
#X obj 712 39 r \$0-lbang;
#X obj 712 81 tabread \$0-voices;
#X msg 565 132 \$1-a_snd;
#X msg 637 132 \$1-d_snd;
#X msg 707 133 \$1-s_snd;
#X msg 779 133 \$1-r_snd;
#X obj 890 170 t b f;
#X obj 565 202 f;
#X obj 637 202 f;
#X obj 707 203 f;
#X obj 779 203 f;
#X obj 565 233 spigot;
#X obj 637 233 spigot;
#X obj 707 234 spigot;
#X obj 779 234 spigot;
#X obj 827 206 i;
#X obj 565 254 change;
#X obj 637 254 change;
#X obj 707 255 change;
#X obj 779 255 change;
#X obj 565 355 s;
#X obj 860 240 r \$0-lbang;
#X obj 860 282 tabread \$0-voices;
#X msg 572 318 symbol \$1-a_rec, f 8;
#X obj 637 355 s;
#X msg 644 318 symbol \$1-d_rec, f 8;
#X obj 707 356 s;
#X obj 779 356 s;
#X msg 714 319 symbol \$1-s_rec, f 8;
#X msg 786 319 symbol \$1-r_rec, f 8;
#X floatatom 565 275 5 0 0 0 - - -;
#X floatatom 776 112 5 0 0 0 - - -;
#X obj 565 161 receiver;
#X obj 637 161 receiver;
#X obj 707 162 receiver;
#X obj 779 162 receiver;
#X msg 712 60 1;
#X msg 860 261 0;
#X obj 418 142 r \$0-envLink;
#X obj 890 149 r \$0-envLink;
#X connect 0 0 3 0;
#X connect 1 0 2 0;
#X connect 1 0 4 0;
#X connect 1 0 5 0;
#X connect 1 0 6 0;
#X connect 1 0 33 0;
#X connect 2 0 34 0;
#X connect 3 0 1 0;
#X connect 4 0 35 0;
#X connect 5 0 36 0;
#X connect 6 0 37 0;
#X connect 7 0 8 0;
#X connect 7 0 9 0;
#X connect 7 0 10 0;
#X connect 7 0 11 0;
#X connect 7 1 16 0;
#X connect 8 0 12 0;
#X connect 9 0 13 0;
#X connect 10 0 14 0;
#X connect 11 0 15 0;
#X connect 12 0 17 0;
#X connect 13 0 18 0;
#X connect 14 0 19 0;
#X connect 15 0 20 0;
#X connect 16 0 15 1;
#X connect 16 0 14 1;
#X connect 16 0 13 1;
#X connect 16 0 12 1;
#X connect 17 0 21 0;
#X connect 17 0 32 0;
#X connect 18 0 26 0;
#X connect 19 0 28 0;
#X connect 20 0 29 0;
#X connect 22 0 25 0;
#X connect 23 0 31 0;
#X connect 23 0 30 0;
#X connect 23 0 27 0;
#X connect 23 0 24 0;
#X connect 24 0 21 1;
#X connect 25 0 23 0;
#X connect 27 0 26 1;
#X connect 30 0 28 1;
#X connect 31 0 29 1;
#X connect 34 0 8 0;
#X connect 35 0 9 0;
#X connect 36 0 10 0;
#X connect 37 0 11 0;
#X connect 38 0 74 0;
#X connect 39 0 40 0;
#X connect 39 0 41 0;
#X connect 39 0 42 0;
#X connect 39 0 43 0;
#X connect 39 0 69 0;
#X connect 40 0 70 0;
#X connect 41 0 71 0;
#X connect 42 0 72 0;
#X connect 43 0 73 0;
#X connect 44 0 45 0;
#X connect 44 0 46 0;
#X connect 44 0 47 0;
#X connect 44 0 48 0;
#X connect 44 1 53 0;
#X connect 45 0 49 0;
#X connect 46 0 50 0;
#X connect 47 0 51 0;
#X connect 48 0 52 0;
#X connect 49 0 54 0;
#X connect 50 0 55 0;
#X connect 51 0 56 0;
#X connect 52 0 57 0;
#X connect 53 0 52 1;
#X connect 53 0 51 1;
#X connect 53 0 50 1;
#X connect 53 0 49 1;
#X connect 54 0 58 0;
#X connect 54 0 68 0;
#X connect 55 0 62 0;
#X connect 56 0 64 0;
#X connect 57 0 65 0;
#X connect 59 0 75 0;
#X connect 60 0 67 0;
#X connect 60 0 66 0;
#X connect 60 0 63 0;
#X connect 60 0 61 0;
#X connect 61 0 58 1;
#X connect 63 0 62 1;
#X connect 66 0 64 1;
#X connect 67 0 65 1;
#X connect 70 0 45 0;
#X connect 71 0 46 0;
#X connect 72 0 47 0;
#X connect 73 0 48 0;
#X connect 74 0 39 0;
#X connect 75 0 60 0;
#X connect 76 0 7 0;
#X connect 77 0 44 0;
#X restore 566 389 pd envLink;
#X obj 298 52 s \$0-envLink;
#X connect 0 2 2 0;
#X connect 1 2 3 0;
#X connect 2 0 4 0;
#X connect 3 0 5 0;
#X connect 7 0 9 0;
#X connect 8 0 9 0;
#X connect 10 0 12 0;
