#N canvas 0 23 1440 596 10;
#X obj 589 117 unpack, f 37;
#X obj 589 138 mtof;
#X obj 589 334 *~, f 17;
#X obj 635 442 / 127;
#X obj 635 463 pack 0 50;
#X obj 589 528 *~;
#X obj 635 484 line~;
#X obj 589 313 tabosc4~ \$0-osc;
#X obj 747 334 *~, f 21;
#X obj 747 313 tabosc4~ \$0-osc;
#X obj 732 528 *~;
#X obj 23 65 hsl 55 15 0 1 0 1 \$0-detune_snd \$0-detune_rec detune
5 8 0 10 -191407 -262144 -1 1800 1;
#X obj 0 10 vradio 10 1 1 4 \$0-wave_snd \$0-wave_rec empty 0 -8 0
10 -228856 -1 -1 3;
#X obj 589 78 inlet;
#X obj 80 2 vsl 40 60 0 127 0 1 \$0-vol_snd \$0-vol_rec v-0.72 2 30
0 10 -191407 -262144 -1 4300 1;
#X obj 635 418 r \$0-vol_snd;
#X obj 732 549 outlet~;
#X obj 589 549 outlet~;
#N canvas 0 23 450 300 tuneL 0;
#X obj 37 37 inlet;
#X obj 44 139 * 0.99;
#X obj 75 68 r \$0-detune_snd;
#X obj 75 89 expr pow(2 \, $f1/12);
#X floatatom 75 110 5 0 0 0 - - -;
#X obj 44 160 outlet;
#X connect 0 0 1 0;
#X connect 1 0 5 0;
#X connect 2 0 3 0;
#X connect 3 0 4 0;
#X connect 3 0 1 1;
#X restore 589 177 pd tuneL;
#N canvas 0 23 450 300 tuneR 0;
#X obj 37 37 inlet;
#X obj 33 103 * 1.01;
#X floatatom 104 85 5 0 0 0 - - -;
#X obj 104 64 expr pow(2 \, -1*$f1/12);
#X obj 104 44 r \$0-detune_snd;
#X obj 33 124 outlet;
#X connect 0 0 1 0;
#X connect 1 0 5 0;
#X connect 3 0 2 0;
#X connect 3 0 1 1;
#X connect 4 0 3 0;
#X restore 688 177 pd tuneR;
#X obj 808 198 vline~;
#N canvas 439 35 931 532 envLogic 0;
#X obj 210 44 inlet;
#X obj 209 68 / 127;
#X obj 200 133 t f f;
#X obj 200 154 > 0;
#X obj 200 175 pack;
#X obj 200 196 route 0 1;
#X obj 230 296 pack 0 0 0 0;
#X obj 228 224 t f f, f 13;
#X obj 243 246 r \$0-a_snd;
#X obj 333 236 r \$0-d_snd;
#X obj 408 243 r \$0-s_snd;
#X msg 231 317 \$1 \$2 \, \$4 \$3 \$2;
#X obj 328 276 *;
#X obj 109 217 r \$0-r_snd;
#X obj 146 279 f;
#X obj 200 217 t b;
#X msg 146 300 0 \$1;
#X obj 120 376 outlet;
#X floatatom 243 267 5 0 0 0 - - -;
#X connect 0 0 1 0;
#X connect 1 0 2 0;
#X connect 2 0 3 0;
#X connect 2 1 4 1;
#X connect 3 0 4 0;
#X connect 4 0 5 0;
#X connect 5 0 15 0;
#X connect 5 1 7 0;
#X connect 6 0 11 0;
#X connect 7 0 6 0;
#X connect 7 1 12 0;
#X connect 8 0 6 1;
#X connect 8 0 18 0;
#X connect 9 0 6 2;
#X connect 10 0 12 1;
#X connect 11 0 17 0;
#X connect 12 0 6 3;
#X connect 13 0 14 1;
#X connect 14 0 16 0;
#X connect 15 0 14 0;
#X connect 16 0 17 0;
#X restore 808 177 pd envLogic;
#N canvas 748 102 658 300 displayLogic 0;
#X obj 51 43 r \$0-vol_snd;
#X obj 51 64 / 127;
#X obj 51 85 * 100;
#X obj 51 106 int;
#X obj 51 127 * 0.01;
#X obj 51 147 pack 0 \$0;
#X obj 246 42 r \$0-wave_snd;
#X obj 280 76 sel 0 1 2 3, f 40;
#X obj 354 156 s \$0-waveDisp_rec;
#X msg 319 116 symbol tri;
#X msg 399 116 symbol saw;
#X msg 475 116 symbol sqr;
#X msg 243 116 symbol sin;
#X msg 51 168 \; \$2-vol_rec label v-\$1;
#X connect 0 0 1 0;
#X connect 1 0 2 0;
#X connect 2 0 3 0;
#X connect 3 0 4 0;
#X connect 4 0 5 0;
#X connect 5 0 13 0;
#X connect 6 0 7 0;
#X connect 7 0 12 0;
#X connect 7 1 9 0;
#X connect 7 2 10 0;
#X connect 7 3 11 0;
#X connect 9 0 8 0;
#X connect 10 0 8 0;
#X connect 11 0 8 0;
#X connect 12 0 8 0;
#X restore 1116 57 pd displayLogic;
#X symbolatom 0 50 3 0 0 0 - #0-waveDisp_rec #0-waveDisp_snd;
#N canvas 895 239 450 300 waveLogic 0;
#X obj 237 127 bng 15 250 50 0 empty empty empty 17 7 0 10 -262144
-1 -1;
#X obj 328 126 bng 15 250 50 0 empty empty empty 17 7 0 10 -262144
-1 -1;
#X obj 163 127 bng 15 250 50 0 empty empty empty 17 7 0 10 -262144
-1 -1;
#X obj 110 128 bng 15 250 50 0 empty empty empty 17 7 0 10 -262144
-1 -1;
#N canvas 593 102 902 732 sine 0;
#X obj 209 56 inlet;
#X obj 220 132 t b b b;
#X msg 301 403 \; 1297-osc sinesum 512 1;
#X msg 308 234 set \, addsemi;
#X obj 258 233 f \$0;
#X msg 262 205 -1;
#X obj 202 98 t b b;
#X obj 122 327 t b b;
#X obj 122 348 f \$0;
#X msg 122 369 \; \$1-osc normalize 1;
#X msg 256 259 add2 \$1-osc sinesum 512 1;
#X connect 0 0 6 0;
#X connect 1 1 4 0;
#X connect 1 2 3 0;
#X connect 3 0 2 0;
#X connect 4 0 10 0;
#X connect 6 0 7 0;
#X connect 6 1 1 0;
#X connect 7 0 8 0;
#X connect 7 1 2 0;
#X connect 8 0 9 0;
#X connect 10 0 2 0;
#X restore 110 148 pd sine;
#X obj 127 70 r \$0-wave_snd;
#X obj 127 91 sel 0 1 2 3;
#N canvas 0 23 902 732 sawtooth64 0;
#X obj 209 56 inlet;
#X obj 220 132 t b b b;
#X msg 301 403 \; 1297-osc sinesum 512 1 0.5 0.333333 0.25 0.2 0.166667
0.142857 0.125 0.111111 0.1 0.0909091 0.0833333 0.0769231 0.0714286
0.0666667 0.0625 0.0588235 0.0555556 0.0526316 0.05 0.047619 0.0454545
0.0434783 0.0416667 0.04 0.0384615 0.037037 0.0357143 0.0344828 0.0333333
0.0322581 0.03125 0.030303 0.0294118 0.0285714 0.0277778 0.027027 0.0263158
0.025641 0.025 0.0243902 0.0238095 0.0232558 0.0227273 0.0222222 0.0217391
0.0212766 0.0208333 0.0204082 0.02 0.0196078 0.0192308 0.0188679 0.0185185
0.0181818 0.0178571 0.0175439 0.0172414 0.0169492 0.0166667 0.0163934
0.016129 0.015873 0.015625;
#X msg 308 234 set \, addsemi;
#X obj 258 233 f \$0;
#X obj 220 178 t f b;
#X obj 220 199 until;
#X msg 220 220 1;
#X obj 220 241 + -1;
#X obj 220 262 int;
#X obj 251 337 pow -1;
#X msg 251 358 add2 \$1;
#X msg 262 205 -1;
#X obj 202 98 t b b;
#X obj 122 327 t b b;
#X obj 122 348 f \$0;
#X msg 122 369 \; \$1-osc normalize 1;
#X msg 256 259 add2 \$1-osc sinesum 512;
#X obj 220 283 + 1;
#X msg 220 157 64;
#X connect 0 0 13 0;
#X connect 1 0 19 0;
#X connect 1 1 4 0;
#X connect 1 2 3 0;
#X connect 3 0 2 0;
#X connect 4 0 17 0;
#X connect 5 0 6 0;
#X connect 5 1 12 0;
#X connect 6 0 7 0;
#X connect 7 0 8 0;
#X connect 8 0 9 0;
#X connect 9 0 8 1;
#X connect 9 0 18 0;
#X connect 10 0 11 0;
#X connect 11 0 2 0;
#X connect 12 0 8 1;
#X connect 13 0 14 0;
#X connect 13 1 1 0;
#X connect 14 0 15 0;
#X connect 14 1 2 0;
#X connect 15 0 16 0;
#X connect 17 0 2 0;
#X connect 18 0 10 0;
#X connect 19 0 5 0;
#X restore 237 147 pd sawtooth64;
#N canvas 0 23 1150 732 square64 0;
#X obj 209 56 inlet;
#X obj 220 132 t b b b;
#X msg 357 537 \; 1459-osc sinesum 512 1 0 0.333333 0 0.2 0 0.142857
0 0.111111 0 0.0909091 0 0.0769231 0 0.0666667 0 0.0588235 0 0.0526316
0 0.047619 0 0.0434783 0 0.04 0 0.037037 0 0.0344828 0 0.0322581 0
0.030303 0 0.0285714 0 0.027027 0 0.025641 0 0.0243902 0 0.0232558
0 0.0222222 0 0.0212766 0 0.0204082 0 0.0196078 0 0.0188679 0 0.0181818
0 0.0175439 0 0.0169492 0 0.0163934 0 0.015873 0;
#X msg 308 234 set \, addsemi;
#X obj 258 233 f \$0;
#X obj 220 178 t f b;
#X obj 220 199 until;
#X msg 220 220 1;
#X obj 220 241 + -1;
#X obj 220 262 int;
#X msg 307 492 add2 \$1;
#X msg 262 205 -1;
#X obj 202 98 t b b;
#X obj 209 515 t b b;
#X obj 209 536 f \$0;
#X msg 209 557 \; \$1-osc normalize 1;
#X obj 307 361 t f f;
#X obj 307 382 % 2;
#X obj 307 403 pack;
#X obj 307 445 pow -1;
#X msg 398 448 0;
#X obj 291 108 bng 15 250 50 0 empty empty empty 17 7 0 10 -262144
-1 -1;
#X msg 256 259 add2 \$1-osc sinesum 512;
#X obj 220 283 + 1;
#X obj 307 424 route 1 0, f 32;
#X msg 220 157 64;
#X connect 0 0 12 0;
#X connect 1 0 25 0;
#X connect 1 1 4 0;
#X connect 1 2 3 0;
#X connect 3 0 2 0;
#X connect 4 0 22 0;
#X connect 5 0 6 0;
#X connect 5 1 11 0;
#X connect 6 0 7 0;
#X connect 7 0 8 0;
#X connect 8 0 9 0;
#X connect 9 0 8 1;
#X connect 9 0 23 0;
#X connect 10 0 2 0;
#X connect 11 0 8 1;
#X connect 12 0 13 0;
#X connect 12 1 1 0;
#X connect 13 0 14 0;
#X connect 13 1 2 0;
#X connect 14 0 15 0;
#X connect 16 0 17 0;
#X connect 16 1 18 1;
#X connect 17 0 18 0;
#X connect 18 0 24 0;
#X connect 19 0 10 0;
#X connect 20 0 10 0;
#X connect 21 0 1 0;
#X connect 22 0 2 0;
#X connect 23 0 16 0;
#X connect 24 0 19 0;
#X connect 24 1 20 0;
#X connect 25 0 5 0;
#X restore 329 146 pd square64;
#N canvas 0 23 1150 732 tri64 0;
#X obj 209 56 inlet;
#X obj 220 132 t b b b;
#X msg 355 628 \; 1300-osc sinesum 512 1 0 -0.111111 0 0.04 0 -0.0204082
0 0.0123457 0 -0.00826446 0 0.00591716 0 -0.00444444 0 0.00346021 0
-0.00277008 0 0.00226757 0 -0.00189036 0 0.0016 0 -0.00137174 0 0.00118906
0 -0.00104058 0 0.000918274 0 -0.000816327 0 0.00073046 0 -0.000657462
0 0.000594884 0 -0.000540833 0 0.000493827 0 -0.000452694 0 0.000416493
0 -0.000384468 0 0.000355999 0 -0.000330579 0 0.000307787 0 -0.000287274
0 0.000268745 0 -0.000251953 0;
#X msg 308 234 set \, addsemi;
#X obj 258 233 f \$0;
#X obj 220 178 t f b;
#X obj 220 199 until;
#X msg 220 220 1;
#X obj 220 241 + -1;
#X obj 220 262 int;
#X msg 305 583 add2 \$1;
#X msg 262 205 -1;
#X obj 202 98 t b b;
#X obj 207 606 t b b;
#X obj 207 627 f \$0;
#X msg 207 648 \; \$1-osc normalize 1;
#X obj 307 361 t f f;
#X obj 307 403 pack;
#X msg 432 470 0, f 2;
#X obj 291 108 bng 15 250 50 0 empty empty empty 17 7 0 10 -262144
-1 -1;
#X msg 256 259 add2 \$1-osc sinesum 512;
#X obj 220 283 + 1;
#X obj 292 485 pow -2;
#X obj 307 382 % 4;
#X obj 307 424 route 1 0 3 2, f 75;
#X obj 510 479 pow -2;
#X obj 510 500 * -1;
#X msg 220 157 64;
#X connect 0 0 12 0;
#X connect 1 0 27 0;
#X connect 1 1 4 0;
#X connect 1 2 3 0;
#X connect 3 0 2 0;
#X connect 4 0 20 0;
#X connect 5 0 6 0;
#X connect 5 1 11 0;
#X connect 6 0 7 0;
#X connect 7 0 8 0;
#X connect 8 0 9 0;
#X connect 9 0 8 1;
#X connect 9 0 21 0;
#X connect 10 0 2 0;
#X connect 11 0 8 1;
#X connect 12 0 13 0;
#X connect 12 1 1 0;
#X connect 13 0 14 0;
#X connect 13 1 2 0;
#X connect 14 0 15 0;
#X connect 16 0 23 0;
#X connect 16 1 17 1;
#X connect 17 0 24 0;
#X connect 18 0 10 0;
#X connect 19 0 1 0;
#X connect 20 0 2 0;
#X connect 21 0 16 0;
#X connect 22 0 10 0;
#X connect 23 0 17 0;
#X connect 24 0 22 0;
#X connect 24 1 18 0;
#X connect 24 2 25 0;
#X connect 24 3 18 0;
#X connect 25 0 26 0;
#X connect 26 0 10 0;
#X connect 27 0 5 0;
#X restore 164 147 pd tri64;
#X obj 231 251 array define \$0-osc;
#X connect 0 0 7 0;
#X connect 1 0 8 0;
#X connect 2 0 9 0;
#X connect 3 0 4 0;
#X connect 5 0 6 0;
#X connect 6 0 3 0;
#X connect 6 1 2 0;
#X connect 6 2 0 0;
#X connect 6 3 1 0;
#X restore 1116 79 pd waveLogic;
#X obj 589 258 pack;
#X obj 589 279 line~;
#X obj 688 258 pack;
#X obj 688 279 line~;
#X obj 596 198 r \$0-pitchSlide_snd, f 13;
#X obj 698 198 r \$0-pitchSlide_snd, f 13;
#X obj 23 80 hsl 55 15 0 100 0 1 \$0-pitchSlide_snd \$0-pitchSlide_rec
slide 2 8 0 10 -128992 -262144 -1 3400 1;
#X obj 20 2 vsl 15 60 1 2000 1 1 \$0-a_snd \$0-a_rec A 5 30 0 10 -228856
-262144 -1 1900 1;
#X obj 35 2 vsl 15 60 1 2000 1 1 \$0-d_snd \$0-d_rec D 5 30 0 10 -228856
-262144 -1 4900 1;
#X obj 50 2 vsl 15 60 0 1 0 1 \$0-s_snd \$0-s_rec S 5 30 0 10 -228856
-262144 -1 1900 1;
#X obj 65 2 vsl 15 60 1 2000 1 1 \$0-r_snd \$0-r_rec R 5 30 0 10 -228856
-262144 -1 2300 1;
#X obj 1138 268 switch~;
#X obj 1175 193 loadbang;
#X msg 1138 225 1;
#X obj 1138 244 tgl 15 0 empty empty empty 17 7 0 10 -262144 -1 -1
1 1;
#X obj 1195 268 outlet;
#X obj 1195 225 f \$0;
#X obj 1116 116 namecanvas \$0-synth1;
#X connect 0 0 1 0;
#X connect 0 1 21 0;
#X connect 1 0 18 0;
#X connect 1 0 19 0;
#X connect 2 0 5 0;
#X connect 3 0 4 0;
#X connect 4 0 6 0;
#X connect 5 0 17 0;
#X connect 6 0 5 1;
#X connect 6 0 10 0;
#X connect 7 0 2 0;
#X connect 8 0 10 1;
#X connect 9 0 8 0;
#X connect 10 0 16 0;
#X connect 13 0 0 0;
#X connect 15 0 3 0;
#X connect 18 0 25 0;
#X connect 19 0 27 0;
#X connect 20 0 2 1;
#X connect 20 0 8 1;
#X connect 21 0 20 0;
#X connect 25 0 26 0;
#X connect 26 0 7 0;
#X connect 27 0 28 0;
#X connect 28 0 9 0;
#X connect 29 0 25 1;
#X connect 30 0 27 1;
#X connect 37 0 38 0;
#X connect 37 0 41 0;
#X connect 38 0 39 0;
#X connect 39 0 36 0;
#X connect 41 0 40 0;
#X coords 0 -1 1 1 120 95 2 0 0;
