#N canvas 1930 235 1229 694 10;
#N canvas 301 229 519 418 playRampChoice 0;
#X obj 85 14 inlet;
#X obj 141 266 outlet;
#X obj 84 76 sel 4, f 10;
#X obj 24 101 random 10000;
#X obj 24 122 / 10000;
#X obj 24 165 * 16;
#X obj 24 186 int;
#X obj 24 207 + 2;
#X floatatom 24 228 5 0 0 0 - - -;
#X obj 31 70 bng 15 250 50 0 empty empty empty 17 7 0 10 -262144 -1
-1;
#X obj 24 144 pow 3;
#X connect 0 0 2 0;
#X connect 2 0 3 0;
#X connect 2 1 1 0;
#X connect 3 0 4 0;
#X connect 4 0 10 0;
#X connect 5 0 6 0;
#X connect 6 0 7 0;
#X connect 7 0 1 0;
#X connect 7 0 8 0;
#X connect 9 0 3 0;
#X connect 10 0 5 0;
#X restore 407 257 pd playRampChoice;
#X f 8;
#X obj 356 1 inlet;
#X obj 1064 17 r \$0-paramsOpen;
#X obj 1064 38 f \$0;
#N canvas 497 175 783 556 loadsample 0;
#X obj 199 69 openpanel;
#X obj 199 123 pack s \$0;
#X obj 212 339 soundfiler;
#X msg 212 319 read -resize \$1 \$2-sample;
#X floatatom 213 365 5 0 0 0 - - -;
#X obj 199 35 r \$0-load_snd;
#X obj 400 231 s \$0-filename;
#X msg 400 206 set \$1;
#X obj 156 229 f \$0;
#X msg 156 250 \; \$1-sample normalize 1;
#X msg 400 157 symbol \$1;
#X obj 101 194 t b b l, f 19;
#N canvas 0 23 459 495 fade_end_of_sample 0;
#X obj 37 37 inlet;
#X obj 98 51 * 0.001;
#X floatatom 98 72 5 0 0 0 - - -;
#X obj 97 178 until;
#X msg 97 199 1;
#X obj 97 241 int;
#X obj 97 156 t f b f, f 14;
#X obj 97 290 /, f 14;
#X obj 97 311 expr 1- $f1;
#X obj 97 263 t f f, f 17;
#X obj 200 298 expr $f3 - ($f2 - $f1), f 8;
#X obj 137 369 tabread \$0-sample, f 9;
#X obj 200 341 t f f;
#X obj 97 420 tabwrite \$0-sample;
#X obj 97 220 +;
#X msg 130 199 0;
#X obj 97 332 *;
#X obj 281 171 inlet;
#X obj 98 92 * 10;
#X obj 98 30 r \$1-sampRate;
#X obj 97 136 int 441;
#X connect 0 0 20 0;
#X connect 1 0 2 0;
#X connect 2 0 18 0;
#X connect 3 0 4 0;
#X connect 4 0 14 0;
#X connect 5 0 9 0;
#X connect 5 0 14 1;
#X connect 6 0 3 0;
#X connect 6 1 15 0;
#X connect 6 2 7 1;
#X connect 6 2 10 1;
#X connect 7 0 8 0;
#X connect 8 0 16 0;
#X connect 9 0 7 0;
#X connect 9 1 10 0;
#X connect 10 0 12 0;
#X connect 11 0 16 1;
#X connect 12 0 11 0;
#X connect 12 1 13 1;
#X connect 14 0 5 0;
#X connect 15 0 14 1;
#X connect 16 0 13 0;
#X connect 17 0 10 2;
#X connect 18 0 20 1;
#X connect 19 0 1 0;
#X connect 20 0 6 0;
#X restore 75 420 pd fade_end_of_sample;
#X obj 300 12 r \$0-file;
#X obj 400 182 strippath;
#N canvas 683 191 556 541 fade_start_of_sample 0;
#X obj 38 37 inlet;
#X obj 136 41 * 0.001;
#X floatatom 136 62 5 0 0 0 - - -;
#X obj 38 123 int 88;
#X obj 38 165 until;
#X msg 38 186 1;
#X obj 38 228 int;
#X obj 38 143 t f b f, f 14;
#X obj 38 277 /, f 14;
#X obj 38 250 t f f, f 17;
#X obj 78 356 tabread \$0-sample, f 9;
#X obj 141 328 t f f;
#X obj 38 407 tabwrite \$0-sample;
#X obj 38 207 +;
#X obj 38 319 *;
#X obj 136 82 * 2;
#X obj 52 74 bng 15 250 50 0 empty empty empty 17 7 0 10 -262144 -1
-1;
#X msg 71 186 -1;
#X obj 136 20 r \$1-sampRate;
#X connect 0 0 3 0;
#X connect 1 0 2 0;
#X connect 2 0 15 0;
#X connect 3 0 7 0;
#X connect 4 0 5 0;
#X connect 5 0 13 0;
#X connect 6 0 9 0;
#X connect 6 0 13 1;
#X connect 7 0 4 0;
#X connect 7 1 17 0;
#X connect 7 2 8 1;
#X connect 8 0 14 0;
#X connect 9 0 8 0;
#X connect 9 1 11 0;
#X connect 10 0 14 1;
#X connect 11 0 10 0;
#X connect 11 1 12 1;
#X connect 13 0 6 0;
#X connect 14 0 12 0;
#X connect 15 0 3 1;
#X connect 16 0 3 0;
#X connect 17 0 13 1;
#X connect 18 0 1 0;
#X restore 11 310 pd fade_start_of_sample;
#X obj 306 375 s \$0-sampLen_samps;
#X obj 409 76 bng 15 250 50 0 empty empty empty 17 7 0 10 -262144 -1
-1;
#X obj 466 23 bng 15 250 50 0 empty empty empty 17 7 0 10 -262144 -1
-1;
#X obj 292 53 symbol \$2;
#X connect 0 0 1 0;
#X connect 1 0 10 0;
#X connect 1 0 11 0;
#X connect 2 0 4 0;
#X connect 2 0 16 0;
#X connect 3 0 2 0;
#X connect 4 0 12 1;
#X connect 5 0 0 0;
#X connect 7 0 6 0;
#X connect 8 0 9 0;
#X connect 10 0 14 0;
#X connect 11 0 12 0;
#X connect 11 0 15 0;
#X connect 11 1 8 0;
#X connect 11 2 3 0;
#X connect 13 0 19 0;
#X connect 14 0 7 0;
#X connect 17 0 1 0;
#X connect 18 0 19 0;
#X connect 19 0 1 0;
#X restore 1078 301 pd loadsample;
#X obj 356 129 t b b b, f 36;
#N canvas 0 23 450 300 counter 0;
#X obj 119 46 inlet;
#X msg 119 124 1;
#X obj 119 148 + -1;
#X obj 119 172 int;
#X obj 119 193 outlet;
#X connect 0 0 1 0;
#X connect 1 0 2 0;
#X connect 2 0 3 0;
#X connect 3 0 2 1;
#X connect 3 0 4 0;
#X restore 356 230 pd counter;
#X f 7;
#N canvas 459 130 337 126 \$0-paramwindow 0;
#X obj -1 -1 cnv 15 320 110 empty empty empty 20 12 0 14 -245500 -66577
0;
#N canvas 0 22 450 278 (subpatch) 0;
#X array \$0-probs 5 float 3;
#A 0 1 0 0 0 0;
#X coords 0 1 5 0 100 50 2 0 0;
#X restore 3 14 graph;
#N canvas 0 23 450 278 (subpatch) 0;
#X array \$0-fxProbs 7 float 3;
#A 0 1 0 0 0 0 0 0;
#X coords 0 1 7 0 100 50 1 0 0;
#X restore 103 14 graph;
#X obj 6 79 hsl 193 15 0 24 0 1 \$0-pitchShiftMax_snd \$0-pitchShiftMax_rec
pitchShiftMax-0semitones 20 8 0 10 -228856 -262144 -1 0 1;
#X obj 206 14 hsl 100 15 1 10 0 1 \$0-ovrdr_snd \$0-ovrdr_rec ovrdrv_gain-2
2 7 0 10 -228856 -262144 -1 1101 1;
#X obj 206 29 hsl 100 15 0 1 0 1 \$0-rev_snd \$0-rev_rec reverb-0.4
2 7 0 10 -228856 -262144 -1 4000 1;
#X obj 206 44 hsl 100 15 0 1 0 1 \$0-flange_snd \$0-flange_rec flange-0.7
2 7 0 10 -228856 -262144 -1 7000 1;
#X obj 206 59 hsl 100 15 0 1 0 1 \$0-pingpong_snd \$0-pingpong_rec
pingpong-0.2 2 7 0 10 -228856 -262144 -1 2000 1;
#X obj 206 74 hsl 100 15 0 1 0 1 \$0-ringmod_snd \$0-ringmod_rec ringmod-0.8
2 7 0 10 -228856 -262144 -1 8000 1;
#X obj 206 89 hsl 100 15 0 1 0 1 \$0-specdel_snd \$0-specdel_rec spectraldel-0.2
0 7 0 10 -228856 -262144 -1 2000 1;
#X coords 0 0 1 1 85 60 0;
#X restore 1057 99 pd \$0-paramwindow;
#X msg 1064 59 \; pd-\$1-paramwindow vis 1;
#X obj 1049 138 loadbang;
#X obj 1085 166 f \$0;
#X obj 1115 216 outlet;
#X floatatom 1031 365 5 0 0 0 - - -;
#X obj 1031 385 s \$0-ioi;
#N canvas 0 23 450 300 volLogic 0;
#X obj 37 37 inlet~;
#X obj 40 136 *~, f 29;
#X obj 264 69 pack 0 10;
#X obj 264 94 line~;
#X obj 264 19 r \$0-vol_snd;
#X obj 40 157 outlet~;
#X connect 0 0 1 0;
#X connect 1 0 5 0;
#X connect 2 0 3 0;
#X connect 3 0 1 1;
#X connect 4 0 2 0;
#X restore 356 423 pd volLogic;
#N canvas 0 23 450 300 panLogic 0;
#X obj 37 37 inlet~;
#X obj 218 243 *~;
#X obj 129 245 *~;
#X obj 234 76 line~;
#X obj 246 139 cos~;
#X obj 200 139 cos~;
#X msg 234 56 \$1 50;
#X obj 234 97 *~ 0.5;
#X obj 234 118 -~ 0.5;
#X obj 200 160 *~ 0.5;
#X obj 200 181 +~ 0.5;
#X obj 246 159 *~ 0.5;
#X obj 246 180 +~ 0.5;
#X obj 129 266 outlet~;
#X obj 218 264 outlet~;
#X obj 238 33 r \$0-pan_snd;
#X connect 0 0 2 0;
#X connect 0 0 1 0;
#X connect 1 0 14 0;
#X connect 2 0 13 0;
#X connect 3 0 7 0;
#X connect 4 0 11 0;
#X connect 5 0 9 0;
#X connect 6 0 3 0;
#X connect 7 0 5 0;
#X connect 7 0 8 0;
#X connect 8 0 4 0;
#X connect 9 0 10 0;
#X connect 10 0 2 1;
#X connect 11 0 12 0;
#X connect 12 0 1 1;
#X connect 15 0 6 0;
#X restore 356 495 pd panLogic;
#N canvas 20 324 1440 587 fxSends 0;
#X obj 45 248 inlet~;
#X obj 132 243 inlet~;
#X obj 64 483 *~;
#X obj 195 483 *~;
#X obj 666 57 inlet;
#X obj 428 263 line~;
#X obj 329 483 *~;
#X obj 462 483 *~;
#X obj 580 271 line~;
#X obj 570 479 *~;
#X obj 703 479 *~;
#X obj 722 274 line~;
#X obj 725 105 == 4;
#X msg 428 242 \$1 5;
#X msg 580 250 \$1 5;
#X msg 722 253 \$1 5;
#X obj 722 230 * 0.2;
#X obj 428 219 * 0.4;
#X obj 580 227 * 0.7;
#X obj 64 522 throw~ \$1-revL;
#X obj 195 522 throw~ \$1-revR;
#X obj 329 522 throw~ \$1-flangeL;
#X obj 462 522 throw~ \$1-flangeR;
#X obj 582 110 == 3;
#X obj 428 99 == 2;
#N canvas 0 23 319 305 ensure_closeBeforenexttrigger 0;
#X obj 38 37 inlet;
#X obj 122 113 sel 1;
#X obj 122 170 del, f 8;
#X msg 122 191 0;
#X obj 39 269 outlet;
#N canvas 462 197 978 412 ramplLen_ms 0;
#X obj 390 28 inlet;
#X obj 152 163 / 44.1;
#X obj 165 109 * 0.001;
#X obj 165 130 t b f;
#X obj 449 309 f;
#X obj 462 148 f;
#X obj 425 123 sel 0 1;
#X obj 493 357 outlet;
#X obj 476 123 r \$0-ioi;
#X obj 152 66 r \$0-sampLen_samps;
#X obj 165 88 r \$0-sampRate;
#X obj 462 188 sel 0;
#X text 541 31 if sync is on && not playing forward && ioi not equal
0 \; use ioi \; \; else \; use samp len;
#X obj 440 28 r \$0-sync_snd;
#X obj 390 49 sel 1;
#X obj 425 102 int;
#X connect 0 0 14 0;
#X connect 1 0 4 1;
#X connect 2 0 3 0;
#X connect 3 0 1 0;
#X connect 3 1 1 1;
#X connect 4 0 7 0;
#X connect 5 0 11 0;
#X connect 6 0 4 0;
#X connect 6 1 5 0;
#X connect 8 0 5 1;
#X connect 9 0 1 0;
#X connect 10 0 2 0;
#X connect 11 0 4 0;
#X connect 11 1 7 0;
#X connect 13 0 15 1;
#X connect 14 0 15 0;
#X connect 15 0 6 0;
#X restore 165 90 pd ramplLen_ms;
#X f 8;
#X obj 38 64 t f f f, f 22;
#X obj 165 133 - 5;
#X obj 39 238 f;
#X connect 0 0 6 0;
#X connect 1 0 2 0;
#X connect 2 0 3 0;
#X connect 3 0 8 0;
#X connect 5 0 7 0;
#X connect 6 0 8 0;
#X connect 6 1 1 0;
#X connect 6 2 5 0;
#X connect 7 0 2 1;
#X connect 8 0 4 0;
#X restore 428 119 pd ensure_closeBeforenexttrigger;
#X f 11;
#N canvas 0 23 319 305 ensure_closeBeforenexttrigger 0;
#X obj 38 37 inlet;
#X obj 122 113 sel 1;
#X obj 122 170 del, f 8;
#X msg 122 191 0;
#X obj 39 269 outlet;
#N canvas 462 197 978 412 ramplLen_ms 0;
#X obj 390 28 inlet;
#X obj 152 163 / 44.1;
#X obj 165 109 * 0.001;
#X obj 165 130 t b f;
#X obj 449 309 f;
#X obj 462 148 f;
#X obj 425 123 sel 0 1;
#X obj 493 357 outlet;
#X obj 476 123 r \$0-ioi;
#X obj 152 66 r \$0-sampLen_samps;
#X obj 165 88 r \$0-sampRate;
#X obj 462 188 sel 0;
#X text 541 31 if sync is on && not playing forward && ioi not equal
0 \; use ioi \; \; else \; use samp len;
#X obj 440 28 r \$0-sync_snd;
#X obj 390 49 sel 1;
#X obj 425 102 int;
#X connect 0 0 14 0;
#X connect 1 0 4 1;
#X connect 2 0 3 0;
#X connect 3 0 1 0;
#X connect 3 1 1 1;
#X connect 4 0 7 0;
#X connect 5 0 11 0;
#X connect 6 0 4 0;
#X connect 6 1 5 0;
#X connect 8 0 5 1;
#X connect 9 0 1 0;
#X connect 10 0 2 0;
#X connect 11 0 4 0;
#X connect 11 1 7 0;
#X connect 13 0 15 1;
#X connect 14 0 15 0;
#X connect 15 0 6 0;
#X restore 165 90 pd ramplLen_ms;
#X f 8;
#X obj 38 64 t f f f, f 22;
#X obj 165 133 - 5;
#X obj 39 238 f;
#X connect 0 0 6 0;
#X connect 1 0 2 0;
#X connect 2 0 3 0;
#X connect 3 0 8 0;
#X connect 5 0 7 0;
#X connect 6 0 8 0;
#X connect 6 1 1 0;
#X connect 6 2 5 0;
#X connect 7 0 2 1;
#X connect 8 0 4 0;
#X restore 580 132 pd ensure_closeBeforenexttrigger;
#X f 11;
#N canvas 0 23 319 305 ensure_closeBeforenexttrigger 0;
#X obj 38 37 inlet;
#X obj 122 113 sel 1;
#X obj 122 170 del, f 8;
#X msg 122 191 0;
#X obj 39 269 outlet;
#N canvas 462 197 978 412 ramplLen_ms 0;
#X obj 390 28 inlet;
#X obj 152 163 / 44.1;
#X obj 165 109 * 0.001;
#X obj 165 130 t b f;
#X obj 449 309 f;
#X obj 462 148 f;
#X obj 425 123 sel 0 1;
#X obj 493 357 outlet;
#X obj 476 123 r \$0-ioi;
#X obj 152 66 r \$0-sampLen_samps;
#X obj 165 88 r \$0-sampRate;
#X obj 462 188 sel 0;
#X text 541 31 if sync is on && not playing forward && ioi not equal
0 \; use ioi \; \; else \; use samp len;
#X obj 440 28 r \$0-sync_snd;
#X obj 390 49 sel 1;
#X obj 425 102 int;
#X connect 0 0 14 0;
#X connect 1 0 4 1;
#X connect 2 0 3 0;
#X connect 3 0 1 0;
#X connect 3 1 1 1;
#X connect 4 0 7 0;
#X connect 5 0 11 0;
#X connect 6 0 4 0;
#X connect 6 1 5 0;
#X connect 8 0 5 1;
#X connect 9 0 1 0;
#X connect 10 0 2 0;
#X connect 11 0 4 0;
#X connect 11 1 7 0;
#X connect 13 0 15 1;
#X connect 14 0 15 0;
#X connect 15 0 6 0;
#X restore 165 90 pd ramplLen_ms;
#X f 8;
#X obj 38 64 t f f f, f 22;
#X obj 165 133 - 5;
#X obj 39 238 f;
#X connect 0 0 6 0;
#X connect 1 0 2 0;
#X connect 2 0 3 0;
#X connect 3 0 8 0;
#X connect 5 0 7 0;
#X connect 6 0 8 0;
#X connect 6 1 1 0;
#X connect 6 2 5 0;
#X connect 7 0 2 1;
#X connect 8 0 4 0;
#X restore 722 126 pd ensure_closeBeforenexttrigger;
#X f 11;
#X obj 577 519 throw~ \$1-pingL;
#X obj 677 518 throw~ \$1-pingR;
#X obj 830 469 *~;
#X obj 963 469 *~;
#X obj 871 270 line~;
#X msg 871 249 \$1 5;
#N canvas 0 23 319 305 ensure_closeBeforenexttrigger 0;
#X obj 38 37 inlet;
#X obj 122 113 sel 1;
#X obj 122 170 del, f 8;
#X msg 122 191 0;
#X obj 39 269 outlet;
#N canvas 462 197 978 412 ramplLen_ms 0;
#X obj 390 28 inlet;
#X obj 152 163 / 44.1;
#X obj 165 109 * 0.001;
#X obj 165 130 t b f;
#X obj 449 309 f;
#X obj 462 148 f;
#X obj 425 123 sel 0 1;
#X obj 493 357 outlet;
#X obj 476 123 r \$0-ioi;
#X obj 152 66 r \$0-sampLen_samps;
#X obj 165 88 r \$0-sampRate;
#X obj 462 188 sel 0;
#X text 541 31 if sync is on && not playing forward && ioi not equal
0 \; use ioi \; \; else \; use samp len;
#X obj 440 28 r \$0-sync_snd;
#X obj 390 49 sel 1;
#X obj 425 102 int;
#X connect 0 0 14 0;
#X connect 1 0 4 1;
#X connect 2 0 3 0;
#X connect 3 0 1 0;
#X connect 3 1 1 1;
#X connect 4 0 7 0;
#X connect 5 0 11 0;
#X connect 6 0 4 0;
#X connect 6 1 5 0;
#X connect 8 0 5 1;
#X connect 9 0 1 0;
#X connect 10 0 2 0;
#X connect 11 0 4 0;
#X connect 11 1 7 0;
#X connect 13 0 15 1;
#X connect 14 0 15 0;
#X connect 15 0 6 0;
#X restore 165 90 pd ramplLen_ms;
#X f 8;
#X obj 38 64 t f f f, f 22;
#X obj 165 133 - 5;
#X obj 39 238 f;
#X connect 0 0 6 0;
#X connect 1 0 2 0;
#X connect 2 0 3 0;
#X connect 3 0 8 0;
#X connect 5 0 7 0;
#X connect 6 0 8 0;
#X connect 6 1 1 0;
#X connect 6 2 5 0;
#X connect 7 0 2 1;
#X connect 8 0 4 0;
#X restore 870 131 pd ensure_closeBeforenexttrigger;
#X f 11;
#X obj 873 110 == 5;
#X obj 837 509 throw~ \$1-ringL;
#X obj 937 508 throw~ \$1-ringR;
#X obj 1081 509 throw~ \$1-spectralDelL;
#X obj 1224 509 throw~ \$1-spectralDelR;
#X obj 1134 472 *~;
#X obj 1267 472 *~;
#X obj 990 287 line~;
#X msg 990 266 \$1 5;
#N canvas 0 23 319 305 ensure_closeBeforenexttrigger 0;
#X obj 38 37 inlet;
#X obj 122 113 sel 1;
#X obj 122 170 del, f 8;
#X msg 122 191 0;
#X obj 39 269 outlet;
#N canvas 462 197 978 412 ramplLen_ms 0;
#X obj 390 28 inlet;
#X obj 152 163 / 44.1;
#X obj 165 109 * 0.001;
#X obj 165 130 t b f;
#X obj 449 309 f;
#X obj 462 148 f;
#X obj 425 123 sel 0 1;
#X obj 493 357 outlet;
#X obj 476 123 r \$0-ioi;
#X obj 152 66 r \$0-sampLen_samps;
#X obj 165 88 r \$0-sampRate;
#X obj 462 188 sel 0;
#X text 541 31 if sync is on && not playing forward && ioi not equal
0 \; use ioi \; \; else \; use samp len;
#X obj 440 28 r \$0-sync_snd;
#X obj 390 49 sel 1;
#X obj 425 102 int;
#X connect 0 0 14 0;
#X connect 1 0 4 1;
#X connect 2 0 3 0;
#X connect 3 0 1 0;
#X connect 3 1 1 1;
#X connect 4 0 7 0;
#X connect 5 0 11 0;
#X connect 6 0 4 0;
#X connect 6 1 5 0;
#X connect 8 0 5 1;
#X connect 9 0 1 0;
#X connect 10 0 2 0;
#X connect 11 0 4 0;
#X connect 11 1 7 0;
#X connect 13 0 15 1;
#X connect 14 0 15 0;
#X connect 15 0 6 0;
#X restore 165 90 pd ramplLen_ms;
#X f 8;
#X obj 38 64 t f f f, f 22;
#X obj 165 133 - 5;
#X obj 39 238 f;
#X connect 0 0 6 0;
#X connect 1 0 2 0;
#X connect 2 0 3 0;
#X connect 3 0 8 0;
#X connect 5 0 7 0;
#X connect 6 0 8 0;
#X connect 6 1 1 0;
#X connect 6 2 5 0;
#X connect 7 0 2 1;
#X connect 8 0 4 0;
#X restore 990 141 pd ensure_closeBeforenexttrigger;
#X f 11;
#X obj 993 120 == 6;
#X obj 870 224 * 0.8;
#X obj 990 243 * 0.2;
#X obj 444 174 r \$0-rev_snd;
#X obj 444 195 t b f;
#X obj 589 206 t b f;
#X obj 730 207 t b f;
#X obj 589 185 r \$0-flange_snd;
#X obj 730 186 r \$0-pingpong_snd;
#X floatatom 754 237 5 0 0 0 - - -;
#X floatatom 617 240 5 0 0 0 - - -;
#X floatatom 475 231 5 0 0 0 - - -;
#X floatatom 788 221 5 0 0 0 - - -;
#X floatatom 638 215 5 0 0 0 - - -;
#X floatatom 485 207 5 0 0 0 - - -;
#X obj 884 205 t b f;
#X obj 884 184 r \$0-ringmod_snd;
#X floatatom 917 226 5 0 0 0 - - -;
#X obj 1008 221 t b f;
#X floatatom 1057 250 5 0 0 0 - - -;
#X obj 1008 199 r \$0-specdel_snd;
#X connect 0 0 2 0;
#X connect 0 0 6 0;
#X connect 0 0 9 0;
#X connect 0 0 30 0;
#X connect 0 0 40 0;
#X connect 1 0 3 0;
#X connect 1 0 7 0;
#X connect 1 0 10 0;
#X connect 1 0 31 0;
#X connect 1 0 41 0;
#X connect 2 0 19 0;
#X connect 3 0 20 0;
#X connect 4 0 12 0;
#X connect 4 0 23 0;
#X connect 4 0 24 0;
#X connect 4 0 35 0;
#X connect 4 0 45 0;
#X connect 5 0 3 1;
#X connect 5 0 2 1;
#X connect 6 0 21 0;
#X connect 7 0 22 0;
#X connect 8 0 7 1;
#X connect 8 0 6 1;
#X connect 9 0 28 0;
#X connect 10 0 29 0;
#X connect 11 0 10 1;
#X connect 11 0 9 1;
#X connect 12 0 27 0;
#X connect 13 0 5 0;
#X connect 14 0 8 0;
#X connect 15 0 11 0;
#X connect 16 0 15 0;
#X connect 16 0 54 0;
#X connect 17 0 13 0;
#X connect 17 0 56 0;
#X connect 18 0 14 0;
#X connect 18 0 55 0;
#X connect 23 0 26 0;
#X connect 24 0 25 0;
#X connect 25 0 17 0;
#X connect 26 0 18 0;
#X connect 27 0 16 0;
#X connect 30 0 36 0;
#X connect 31 0 37 0;
#X connect 32 0 30 1;
#X connect 32 0 31 1;
#X connect 33 0 32 0;
#X connect 34 0 46 0;
#X connect 35 0 34 0;
#X connect 40 0 38 0;
#X connect 41 0 39 0;
#X connect 42 0 40 1;
#X connect 42 0 41 1;
#X connect 43 0 42 0;
#X connect 44 0 47 0;
#X connect 45 0 44 0;
#X connect 46 0 33 0;
#X connect 47 0 43 0;
#X connect 48 0 49 0;
#X connect 49 0 17 0;
#X connect 49 1 17 1;
#X connect 49 1 59 0;
#X connect 50 0 18 0;
#X connect 50 1 18 1;
#X connect 50 1 58 0;
#X connect 51 0 16 0;
#X connect 51 1 16 1;
#X connect 51 1 57 0;
#X connect 52 0 50 0;
#X connect 53 0 51 0;
#X connect 60 0 46 0;
#X connect 60 1 46 1;
#X connect 60 1 62 0;
#X connect 61 0 60 0;
#X connect 63 0 47 0;
#X connect 63 1 47 1;
#X connect 63 1 64 0;
#X connect 65 0 63 0;
#X restore 461 532 pd fxSends;
#X f 18;
#X obj 622 292 array random \$0-fxProbs;
#X obj 609 358 s \$0-fxType;
#N canvas 0 23 445 389 overdrive 0;
#X obj 37 37 inlet~;
#X obj 179 284 expr~ tanh($v1);
#X obj 179 307 *~, f 17;
#X obj 28 291 *~;
#X msg 197 141 \$1 5;
#X obj 197 162 line~;
#X obj 58 350 outlet~;
#X obj 201 41 inlet;
#N canvas 0 23 319 305 ensure_closeBeforenexttrigger 0;
#X obj 38 37 inlet;
#X obj 122 113 sel 1;
#X obj 122 170 del, f 8;
#X msg 122 191 0;
#X obj 39 269 outlet;
#N canvas 462 197 978 412 ramplLen_ms 0;
#X obj 390 28 inlet;
#X obj 152 163 / 44.1;
#X obj 165 109 * 0.001;
#X obj 165 130 t b f;
#X obj 449 309 f;
#X obj 462 148 f;
#X obj 425 123 sel 0 1;
#X obj 493 357 outlet;
#X obj 476 123 r \$0-ioi;
#X obj 152 66 r \$0-sampLen_samps;
#X obj 165 88 r \$0-sampRate;
#X obj 462 188 sel 0;
#X text 541 31 if sync is on && not playing forward && ioi not equal
0 \; use ioi \; \; else \; use samp len;
#X floatatom 449 330 5 0 0 0 - - -;
#X obj 440 28 r \$0-sync_snd;
#X obj 390 49 sel 1;
#X obj 425 102 int;
#X connect 0 0 15 0;
#X connect 1 0 4 1;
#X connect 2 0 3 0;
#X connect 3 0 1 0;
#X connect 3 1 1 1;
#X connect 4 0 7 0;
#X connect 4 0 13 0;
#X connect 5 0 11 0;
#X connect 6 0 4 0;
#X connect 6 1 5 0;
#X connect 8 0 5 1;
#X connect 9 0 1 0;
#X connect 10 0 2 0;
#X connect 11 0 4 0;
#X connect 11 1 7 0;
#X connect 14 0 16 1;
#X connect 15 0 16 0;
#X connect 16 0 6 0;
#X restore 165 90 pd ramplLen_ms;
#X f 8;
#X obj 38 64 t f f f, f 22;
#X obj 165 133 - 5;
#X obj 39 238 f;
#X connect 0 0 6 0;
#X connect 1 0 2 0;
#X connect 2 0 3 0;
#X connect 3 0 8 0;
#X connect 5 0 7 0;
#X connect 6 0 8 0;
#X connect 6 1 1 0;
#X connect 6 2 5 0;
#X connect 7 0 2 1;
#X connect 8 0 4 0;
#X restore 200 83 pd ensure_closeBeforenexttrigger;
#X f 11;
#X obj 201 62 == 1;
#X obj 331 47 r \$0-ovrdr_snd;
#X msg 331 66 \$1 5;
#X obj 331 87 line~;
#X obj 179 263 *~;
#X obj 43 234 *~ -1;
#X obj 43 255 +~ 1;
#X connect 0 0 3 0;
#X connect 0 0 13 0;
#X connect 1 0 2 0;
#X connect 2 0 6 0;
#X connect 3 0 6 0;
#X connect 4 0 5 0;
#X connect 5 0 2 1;
#X connect 5 0 14 0;
#X connect 7 0 9 0;
#X connect 8 0 4 0;
#X connect 9 0 8 0;
#X connect 10 0 11 0;
#X connect 11 0 12 0;
#X connect 12 0 13 1;
#X connect 13 0 1 0;
#X connect 14 0 15 0;
#X connect 15 0 3 1;
#X restore 356 397 pd overdrive;
#X f 26;
#X obj 356 532 throw~ \$1-outL, f 7;
#X obj 407 532 throw~ \$1-outR, f 7;
#X obj 1132 136 r \$1-load;
#X obj 1031 344 r \$1-ioi;
#X obj 1095 344 r \$1-sampRate;
#X obj 1095 385 s \$0-sampRate;
#X floatatom 1095 365 5 0 0 0 - - -;
#X text 301 565 NOTE \; \; make it so that each voice of sampler can
be triggered with fx and play params chosen \; \; then calculate random
choices etc outside \; \; gives opportunity for voices to be triggered
like (e.g. w/keyboard) \; \;;
#X obj 356 281 % 16;
#X obj 356 339 clone glitchVoice 16 \$0, f 17;
#X obj 356 303 pack 0 0 1, f 35;
#N canvas 634 32 450 300 filtering 0;
#X obj 37 37 inlet~;
#X obj 37 153 outlet~;
#X floatatom 383 56 5 0 0 0 - - -;
#X floatatom 219 36 5 0 0 0 - - -;
#X floatatom 210 77 5 0 0 0 - - -;
#X obj 219 15 r \$0-lpf_snd;
#X obj 210 56 r \$0-hpf_snd;
#X obj 39 108 hip~ 10, f 24;
#X obj 35 71 lop~ 20000, f 19;
#X connect 0 0 8 0;
#X connect 5 0 3 0;
#X connect 5 0 8 1;
#X connect 6 0 4 0;
#X connect 6 0 7 1;
#X connect 7 0 1 0;
#X connect 8 0 7 0;
#X restore 356 375 pd filtering;
#X text 707 344 arguments to play note \; 1 - play mode \; 2 - tape
speed \; 3 - fx \;;
#N canvas 0 23 863 387 glitchVoice_variables 0;
#X obj 137 81 f \$0;
#X msg 137 100 all array \$1-sample, f 9;
#X obj 218 81 r \$0-ioi;
#X obj 288 81 r \$0-sampRate;
#X msg 218 100 all ioi \$1, f 6;
#X msg 288 100 all sampRate \$1, f 8;
#X msg 376 100 all rampLen \$1, f 7;
#X msg 485 100 all sync \$1, f 4;
#X obj 137 62 loadbang;
#X obj 376 81 r \$0-rampLen_snd;
#X obj 485 81 r \$0-sync_snd;
#X obj 249 211 outlet;
#X obj 208 54 bng 15 250 50 0 empty empty empty 17 7 0 10 -262144 -1
-1;
#X connect 0 0 1 0;
#X connect 1 0 11 0;
#X connect 2 0 4 0;
#X connect 3 0 5 0;
#X connect 4 0 11 0;
#X connect 5 0 11 0;
#X connect 6 0 11 0;
#X connect 7 0 11 0;
#X connect 8 0 0 0;
#X connect 9 0 6 0;
#X connect 10 0 7 0;
#X connect 12 0 0 0;
#X restore 469 324 pd glitchVoice_variables;
#X f 11;
#N canvas 0 23 450 300 pitch_shift 0;
#X obj 67 23 inlet;
#X obj 151 26 r \$0-pitchShiftMax_snd;
#X obj 68 116 - 12;
#X obj 68 137 expr pow(2 \, $f1/12);
#X floatatom 68 158 5 0 0 0 - - -;
#X obj 67 66 random 2400;
#X obj 67 87 / 100;
#X obj 151 90 t f f;
#X obj 151 111 * 200;
#X obj 67 44 t b;
#X obj 68 178 outlet;
#X connect 0 0 9 0;
#X connect 1 0 7 0;
#X connect 2 0 3 0;
#X connect 3 0 4 0;
#X connect 4 0 10 0;
#X connect 5 0 6 0;
#X connect 6 0 2 0;
#X connect 7 0 8 0;
#X connect 7 1 2 1;
#X connect 8 0 5 1;
#X connect 9 0 5 0;
#X restore 481 257 pd pitch_shift;
#X f 6;
#N canvas 0 352 1440 372 displayLogic 0;
#X obj 29 87 r \$0-lpf_snd;
#X obj 28 155 pack s \$0;
#X msg 28 176 \; \$2-lpf_rec label \$1;
#X msg 29 128 lp-\$1Hz;
#X obj 29 108 int;
#X obj 175 154 pack s \$0;
#X obj 176 107 int;
#X obj 176 86 r \$0-hpf_snd;
#X msg 176 127 hp-\$1Hz;
#X msg 176 175 \; \$2-hpf_rec label \$1;
#X obj 316 151 pack s \$0;
#X obj 318 33 r \$0-pan_snd;
#X msg 317 124 pan-\$1;
#X msg 317 173 \; \$2-pan_rec label \$1;
#X obj 318 54 * 100;
#X obj 318 75 int;
#X obj 318 96 * 0.01;
#X msg 210 255 0.5;
#X obj 210 276 s \$0-pan_rec;
#X obj 463 154 pack s \$0;
#X obj 465 57 * 100;
#X obj 465 78 int;
#X obj 465 99 * 0.01;
#X msg 464 176 \; \$2-vol_rec label \$1;
#X msg 464 127 vol-\$1;
#X obj 465 36 r \$0-vol_snd;
#X obj 595 44 r \$0-rampLen_snd;
#X obj 595 65 * 100;
#X obj 595 86 int;
#X obj 595 107 * 0.01;
#X msg 595 128 ramp-\$1ms;
#X obj 595 154 pack s \$0;
#X msg 596 176 \; \$2-rampLen_rec label \$1;
#X obj 781 49 r \$0-playType;
#X obj 783 103 r \$0-fxType;
#N canvas 354 385 527 300 playTypeDisplay 0;
#X obj 92 41 inlet;
#X obj 89 68 sel 0 1 2 3 4;
#X msg 26 108 play-forward;
#X obj 21 147 pack s \$0;
#X msg 112 107 play-reverse;
#X msg 198 106 play-forth&back;
#X msg 300 105 play-back&forth;
#X msg 400 105 play-repeats;
#X msg 21 168 \; \$2-playType_rec set \$1;
#X connect 0 0 1 0;
#X connect 1 0 2 0;
#X connect 1 1 4 0;
#X connect 1 2 5 0;
#X connect 1 3 6 0;
#X connect 1 4 7 0;
#X connect 2 0 3 0;
#X connect 3 0 8 0;
#X connect 4 0 3 0;
#X connect 5 0 3 0;
#X connect 6 0 3 0;
#X connect 7 0 3 0;
#X restore 781 70 pd playTypeDisplay;
#N canvas 405 479 762 300 fxTypeDisplay 0;
#X obj 150 21 inlet;
#X obj 383 187 pack s \$0;
#X msg 112 107 fx-overdrive;
#X msg 198 106 fx-reverb;
#X msg 300 105 fx-flanger;
#X msg 400 105 fx-delay;
#X msg 384 209 \; \$2-fxType_rec set \$1;
#X msg 463 106 fx-ringmod;
#X msg 534 107 fx-spectralDelay;
#X obj 147 48 sel 0 1 2 3 4 5 6, f 87;
#X msg 26 108 fx-dry;
#X connect 0 0 9 0;
#X connect 1 0 6 0;
#X connect 2 0 1 0;
#X connect 3 0 1 0;
#X connect 4 0 1 0;
#X connect 5 0 1 0;
#X connect 7 0 1 0;
#X connect 8 0 1 0;
#X connect 9 0 10 0;
#X connect 9 1 2 0;
#X connect 9 2 3 0;
#X connect 9 3 4 0;
#X connect 9 4 5 0;
#X connect 9 5 7 0;
#X connect 9 6 8 0;
#X connect 10 0 1 0;
#X restore 782 130 pd fxTypeDisplay;
#X obj 967 27 r \$0-pitchShiftMax_snd;
#X obj 967 48 * 100;
#X obj 967 69 int;
#X obj 967 90 * 0.01;
#X msg 967 111 pitchShiftMax-\$1semitones;
#X obj 965 141 pack s \$0;
#X msg 966 163 \; \$2-pitchShiftMax_rec label \$1;
#N canvas 0 23 1278 537 fxSendsDisplay 0;
#X obj 22 139 pack s \$0;
#X obj 24 42 * 100;
#X obj 24 63 int;
#X obj 24 84 * 0.01;
#X obj 24 21 r \$0-ovrdr_snd;
#X msg 23 112 ovrdrv_gain-\$1;
#X msg 22 165 \; \$2-ovrdr_rec label \$1;
#X obj 211 140 pack s \$0;
#X obj 212 43 * 100;
#X obj 212 64 int;
#X obj 212 85 * 0.01;
#X obj 212 22 r \$0-rev_snd;
#X msg 211 166 \; \$2-rev_rec label \$1;
#X obj 347 143 pack s \$0;
#X obj 348 46 * 100;
#X obj 348 67 int;
#X obj 348 88 * 0.01;
#X msg 347 169 \; \$2-flange_rec label \$1;
#X obj 348 25 r \$0-flange_snd;
#X msg 347 116 flange-\$1;
#X msg 211 113 reverb-\$1;
#X obj 502 141 pack s \$0;
#X obj 503 44 * 100;
#X obj 503 65 int;
#X obj 503 86 * 0.01;
#X obj 503 23 r \$0-pingpong_snd;
#X msg 502 115 pingpong-\$1;
#X msg 502 167 \; \$2-pingpong_rec label \$1;
#X obj 663 140 pack s \$0;
#X obj 664 43 * 100;
#X obj 664 64 int;
#X obj 664 85 * 0.01;
#X obj 664 22 r \$0-ringmod_snd;
#X msg 663 114 ringmod-\$1;
#X msg 663 166 \; \$2-ringmod_rec label \$1;
#X obj 814 138 pack s \$0;
#X obj 815 41 * 100;
#X obj 815 62 int;
#X obj 815 83 * 0.01;
#X obj 815 19 r \$0-specdel_snd;
#X msg 814 164 \; \$2-specdel_rec label \$1;
#X msg 814 112 spectraldel-\$1;
#X connect 0 0 6 0;
#X connect 1 0 2 0;
#X connect 2 0 3 0;
#X connect 3 0 5 0;
#X connect 4 0 1 0;
#X connect 5 0 0 0;
#X connect 7 0 12 0;
#X connect 8 0 9 0;
#X connect 9 0 10 0;
#X connect 10 0 20 0;
#X connect 11 0 8 0;
#X connect 13 0 17 0;
#X connect 14 0 15 0;
#X connect 15 0 16 0;
#X connect 16 0 19 0;
#X connect 18 0 14 0;
#X connect 19 0 13 0;
#X connect 20 0 7 0;
#X connect 21 0 27 0;
#X connect 22 0 23 0;
#X connect 23 0 24 0;
#X connect 24 0 26 0;
#X connect 25 0 22 0;
#X connect 26 0 21 0;
#X connect 28 0 34 0;
#X connect 29 0 30 0;
#X connect 30 0 31 0;
#X connect 31 0 33 0;
#X connect 32 0 29 0;
#X connect 33 0 28 0;
#X connect 35 0 40 0;
#X connect 36 0 37 0;
#X connect 37 0 38 0;
#X connect 38 0 41 0;
#X connect 39 0 36 0;
#X connect 41 0 35 0;
#X restore 787 270 pd fxSendsDisplay;
#X connect 0 0 4 0;
#X connect 1 0 2 0;
#X connect 3 0 1 0;
#X connect 4 0 3 0;
#X connect 5 0 9 0;
#X connect 6 0 8 0;
#X connect 7 0 6 0;
#X connect 8 0 5 0;
#X connect 10 0 13 0;
#X connect 11 0 14 0;
#X connect 12 0 10 0;
#X connect 14 0 15 0;
#X connect 15 0 16 0;
#X connect 16 0 12 0;
#X connect 17 0 18 0;
#X connect 19 0 23 0;
#X connect 20 0 21 0;
#X connect 21 0 22 0;
#X connect 22 0 24 0;
#X connect 24 0 19 0;
#X connect 25 0 20 0;
#X connect 26 0 27 0;
#X connect 27 0 28 0;
#X connect 28 0 29 0;
#X connect 29 0 30 0;
#X connect 30 0 31 0;
#X connect 31 0 32 0;
#X connect 33 0 35 0;
#X connect 34 0 36 0;
#X connect 37 0 38 0;
#X connect 38 0 39 0;
#X connect 39 0 40 0;
#X connect 40 0 41 0;
#X connect 41 0 42 0;
#X connect 42 0 43 0;
#X restore 56 234 pd displayLogic;
#X obj 356 22 route bang;
#X obj 417 46 t b l;
#X obj 594 326 int;
#X obj 480 68 unpack 0 0 0 0, f 28;
#X obj 646 99 > 0;
#X obj 646 120 s \$0-sync_rec;
#X text 665 24 1 - play ramp \; 2 - tape speed \; 3 - FX \; 4 - sync
;
#X obj 400 185 array random \$0-probs;
#X obj 425 234 s \$0-playType;
#X obj 400 206 int;
#N canvas 368 384 450 300 triggerColour 0;
#X obj 37 37 inlet;
#X obj 123 85 f \$0;
#X obj 135 169 bng 15 250 50 0 empty empty empty 17 7 0 10 -262144
-1 -1;
#X obj 37 58 t b b;
#X obj 37 79 del 50;
#X obj 35 110 f \$0;
#X msg 35 130 \; \$1-trigger_rec color 22 22 22;
#X msg 123 105 \; \$1-trigger_rec color 13 13 13;
#X connect 0 0 3 0;
#X connect 1 0 7 0;
#X connect 3 0 4 0;
#X connect 3 1 1 0;
#X connect 4 0 5 0;
#X connect 5 0 6 0;
#X restore 297 71 pd triggerColour;
#X obj 440 2 r \$0-triggerIn;
#X obj 11 11 cnv 15 198 121 empty empty empty 20 12 0 14 -154609 -66577
0;
#X obj 165 28 vsl 45 60 0 1 0 1 \$0-vol_snd \$0-vol_rec vol-1 2 5 0
8 -191407 -171318 -1 5900 1;
#X obj 110 56 bng 14 250 50 0 \$0-paramsOpen empty params 17 5 0 10
-128992 -1 -1;
#X symbolatom 10 84 16 0 0 0 - #0-filename #0-filename_snd;
#X obj 168 90 hsl 40 10 0 1 0 1 \$0-pan_snd \$0-pan_rec pan-0.51 2
5 0 8 -191407 -171318 -1 2050 1;
#X obj 113 26 hsl 50 10 20 20000 1 1 \$0-lpf_snd \$0-lpf_rec lp-20000Hz
0 5 0 8 -191407 -171318 -1 4900 1;
#X obj 113 36 hsl 50 10 10 20000 1 1 \$0-hpf_snd \$0-hpf_rec hp-21Hz
0 5 0 8 -191407 -171318 -1 500 1;
#X obj 10 101 bng 15 250 50 0 \$0-load_snd \$0-load_rec load_sample
15 7 0 9 -128992 -191407 -1;
#X obj 196 101 bng 13 250 50 0 empty \$0-trigger_rec empty 17 7 0 10
-1 -1 -1;
#X obj 113 46 hsl 50 10 1 10 0 1 \$0-rampLen_snd \$0-rampLen_rec ramp-2.1ms
-3 5 0 8 -162280 -171318 -1 600 1;
#X obj 110 70 tgl 14 1 \$0-sync_snd \$0-sync_rec sync 15 5 0 10 -128992
-1 -1 0 1;
#X symbolatom 10 118 16 0 0 0 - #0-playType_rec #0-playType_snd;
#X symbolatom 110 118 16 0 0 0 - #0-fxType_rec #0-fxType_snd;
#X obj 11 27 cnv 15 98 56 empty empty empty 20 12 0 14 -175543 -66577
0;
#X obj 817 176 namecanvas \$0-samplerVoice;
#X obj 33 155 array define \$0-sample;
#X connect 0 0 30 1;
#X connect 1 0 36 0;
#X connect 2 0 3 0;
#X connect 3 0 8 0;
#X connect 5 0 6 0;
#X connect 5 1 43 0;
#X connect 5 2 17 0;
#X connect 6 0 28 0;
#X connect 9 0 10 0;
#X connect 10 0 11 0;
#X connect 12 0 13 0;
#X connect 14 0 15 0;
#X connect 15 0 16 0;
#X connect 15 0 20 0;
#X connect 15 1 16 1;
#X connect 15 1 21 0;
#X connect 17 0 38 0;
#X connect 19 0 14 0;
#X connect 22 0 10 0;
#X connect 23 0 12 0;
#X connect 24 0 26 0;
#X connect 26 0 25 0;
#X connect 28 0 30 0;
#X connect 29 0 31 0;
#X connect 30 0 29 0;
#X connect 31 0 19 0;
#X connect 33 0 29 1;
#X connect 34 0 30 2;
#X connect 36 0 56 0;
#X connect 36 1 37 0;
#X connect 37 0 6 0;
#X connect 37 0 46 0;
#X connect 37 1 39 0;
#X connect 38 0 18 0;
#X connect 38 0 19 1;
#X connect 38 0 16 2;
#X connect 39 0 30 1;
#X connect 39 0 45 0;
#X connect 39 1 30 2;
#X connect 39 2 38 0;
#X connect 39 3 40 0;
#X connect 40 0 41 0;
#X connect 43 0 45 0;
#X connect 45 0 44 0;
#X connect 45 0 0 0;
#X connect 47 0 36 0;
#X connect 56 0 5 0;
#X coords 0 0 1 1 200 123 0;
