#N canvas 368 359 523 215 10;
#N canvas 313 281 861 276 displayLogic 0;
#N canvas 0 495 1306 364 playTypeDisplay 0;
#X obj 193 146 pack s \$0;
#X msg 184 189 \; \$2-playRampSym_rec label \$1;
#X obj 83 23 r \$0-playRamp_snd;
#X obj 83 48 int;
#X msg 16 103 symbol -->;
#X msg 112 102 symbol <--;
#X msg 213 102 symbol -><-;
#X msg 329 102 symbol <-->;
#X msg 447 104 symbol >>>;
#X msg 528 104 symbol off;
#X obj 842 24 r \$0-playRamp_snd;
#X obj 842 45 int;
#X obj 915 73 t b;
#X obj 959 43 bng 15 250 50 0 empty empty empty 17 7 0 10 -262144 -1
-1;
#X obj 725 16 loadbang;
#X obj 693 148 pack \$0 0;
#X obj 947 127 pack \$0 0;
#X obj 752 78 % 4;
#X obj 752 99 == 0;
#X obj 752 120 + 10;
#X obj 725 37 t b b;
#X msg 693 245 \; \$1-playRampSym_rec color \$2 1 22 \; \$1-fxTypeSym_rec
color \$2 1 22 \; \$1-pbSpeedSym_rec color \$2 1 22 \; \$1-pbSpeed_rec
color \$2 \$2 22 \; \$1-sync_rec color \$2 22 22 \; \$1-snycCanvas
color \$2;
#X obj 752 57 int \$2;
#X obj 1089 15 loadbang;
#X obj 1090 58 % 4;
#X obj 1090 79 == 0;
#X obj 1090 37 int \$2;
#X obj 1090 98 * 10;
#X obj 1090 119 + 3;
#X msg 947 185 \; \$1-playRampSym_rec color \$2 \$2 22 \; \$1-fxTypeSym_rec
color \$2 \$2 22 \; \$1-pbSpeedSym_rec color \$2 \$2 22 \; \$1-pbSpeed_rec
color \$2 \$2 22 \; \$1-sync_rec color \$2 22 22 \; \$1-snycCanvas
color \$2;
#X obj 842 68 sel 0;
#X obj 680 73 bng 15 250 50 0 empty empty empty 17 7 0 10 -262144 -1
-1;
#X obj 83 69 sel 1 2 3 4 5 0 6, f 87;
#X msg 601 103 symbol rand;
#X connect 0 0 1 0;
#X connect 2 0 3 0;
#X connect 3 0 32 0;
#X connect 4 0 0 0;
#X connect 5 0 0 0;
#X connect 6 0 0 0;
#X connect 7 0 0 0;
#X connect 8 0 0 0;
#X connect 9 0 0 0;
#X connect 10 0 11 0;
#X connect 11 0 30 0;
#X connect 12 0 16 0;
#X connect 13 0 12 0;
#X connect 14 0 20 0;
#X connect 15 0 21 0;
#X connect 16 0 29 0;
#X connect 17 0 18 0;
#X connect 18 0 19 0;
#X connect 19 0 15 1;
#X connect 20 0 15 0;
#X connect 20 1 22 0;
#X connect 22 0 17 0;
#X connect 23 0 26 0;
#X connect 24 0 25 0;
#X connect 25 0 27 0;
#X connect 26 0 24 0;
#X connect 27 0 28 0;
#X connect 28 0 16 1;
#X connect 30 0 15 0;
#X connect 30 1 12 0;
#X connect 31 0 15 0;
#X connect 32 0 4 0;
#X connect 32 1 5 0;
#X connect 32 2 6 0;
#X connect 32 3 7 0;
#X connect 32 4 8 0;
#X connect 32 5 9 0;
#X connect 32 6 33 0;
#X connect 33 0 0 0;
#X restore 170 34 pd playTypeDisplay;
#N canvas 444 370 803 300 fxTypeDisplay 0;
#X obj 193 146 pack s \$0;
#X obj 83 48 int;
#X msg 16 103 symbol dry;
#X msg 112 102 symbol ovrdr;
#X msg 213 102 symbol reverb;
#X msg 327 102 symbol flange;
#X obj 83 23 r \$0-fxType_snd;
#X msg 184 189 \; \$2-fxTypeSym_rec label \$1;
#X msg 427 102 symbol ping;
#X msg 626 103 symbol specD;
#X msg 526 104 symbol ring;
#X obj 83 70 sel 0 1 2 3 4 5 6 7, f 87;
#X msg 713 103 symbol rand;
#X connect 0 0 7 0;
#X connect 1 0 11 0;
#X connect 2 0 0 0;
#X connect 3 0 0 0;
#X connect 4 0 0 0;
#X connect 5 0 0 0;
#X connect 6 0 1 0;
#X connect 8 0 0 0;
#X connect 9 0 0 0;
#X connect 10 0 0 0;
#X connect 11 0 2 0;
#X connect 11 1 3 0;
#X connect 11 2 4 0;
#X connect 11 3 5 0;
#X connect 11 4 8 0;
#X connect 11 5 10 0;
#X connect 11 6 9 0;
#X connect 11 7 12 0;
#X connect 12 0 0 0;
#X restore 294 34 pd fxTypeDisplay;
#N canvas 0 23 450 300 tapeSpeedDisplay 0;
#X obj 119 34 expr pow(2 \, $f1/12);
#X floatatom 119 55 5 0 0 0 - - -;
#X obj 119 13 r \$0-pbSpeed_snd;
#X obj 119 96 int;
#X obj 119 137 pack 0 \$0;
#X msg 119 158 \; \$2-pbSpeedSym_rec label \$1%;
#X obj 119 75 * 10000;
#X obj 119 117 * 0.01;
#X connect 0 0 1 0;
#X connect 1 0 6 0;
#X connect 2 0 0 0;
#X connect 3 0 7 0;
#X connect 4 0 5 0;
#X connect 6 0 3 0;
#X connect 7 0 4 0;
#X restore 41 34 pd tapeSpeedDisplay;
#N canvas 297 528 882 333 basicStepDisplay 0;
#X obj 168 120 sel 0 1;
#X obj 87 156 f \$0;
#X obj 249 146 f \$0;
#X floatatom 157 89 5 0 0 0 - - -;
#X obj 157 68 r \$0-basicStep_snd;
#X msg 249 167 \; \$1-snycCanvas color 3;
#X msg 87 177 \; \$1-snycCanvas color 10;
#X connect 0 0 1 0;
#X connect 0 1 2 0;
#X connect 1 0 6 0;
#X connect 2 0 5 0;
#X connect 4 0 3 0;
#X restore 62 82 pd basicStepDisplay;
#X obj 90 150 r \$0-basicStep_snd;
#X obj 90 171 change;
#X obj 90 212 s \$0-playRamp_rec;
#X obj 221 155 r \$0-playRamp_snd;
#X obj 221 197 change;
#N canvas 159 560 1039 243 gopLogic 0;
#X obj 364 117 pack 0 \$0;
#X msg 364 161 \; \$2-seqStep donecanvasdialog 1 -1 2 0 -1 1 1 45 45
\$1 0 \; \$2-seqStep dirty 0;
#X obj 364 93 * 45;
#X obj 364 9 r \$1-advanced;
#X obj 108 36 tgl 15 0 empty empty empty 17 7 0 10 -262144 -1 -1 0
1;
#X obj 364 30 t f b, f 69;
#X obj 763 62 f \$0;
#X msg 614 96 \; \$1-seqStep donecanvasdialog 1 -1 0 0 -1 1 1 45 45
0 0;
#X connect 0 0 1 0;
#X connect 2 0 0 0;
#X connect 3 0 5 0;
#X connect 4 0 2 0;
#X connect 5 0 2 0;
#X connect 5 1 6 0;
#X connect 6 0 7 0;
#X restore 496 55 pd gopLogic;
#X obj 221 176 > 0;
#X obj 90 192 + 0;
#X obj 221 240 s \$0-basicStep_rec;
#X msg 221 218 set \$1;
#X connect 4 0 5 0;
#X connect 5 0 11 0;
#X connect 7 0 10 0;
#X connect 8 0 13 0;
#X connect 10 0 8 0;
#X connect 11 0 6 0;
#X connect 13 0 12 0;
#X restore 315 69 pd displayLogic;
#X obj 0 0 tgl 45 1 \$0-basicStep_snd \$0-basicStep_rec empty 17 7
0 10 -262144 -1 -1 0 1;
#X floatatom 45 0 7 0 6 0 - #0-playRamp_rec #0-playRamp_snd;
#X floatatom 46 30 7 0 7 0 - #0-fxType_rec #0-fxType_snd;
#X obj 48 15 hsl 25 15 -12 12 0 1 \$0-pbSpeed_snd \$0-pbSpeed_rec empty
-2 -8 0 10 -233017 -233017 -1 1200 1;
#X obj 46 16 cnv 13 23 13 empty \$0-pbSpeedSym_rec 100% 1 7 0 8 -233017
-1 0;
#X obj 75 15 tgl 15 1 \$0-sync_snd \$0-sync_rec empty 17 7 0 10 -233017
-1 -1 0 1;
#X obj 1 1 cnv 43 43 43 empty \$0-snycCanvas empty 7 22 0 14 -233017
-1 0;
#X obj 311 16 namecanvas \$0-seqStep;
#X text 116 38 args \; \$1 - parent ID \; \$2 - step # \; \$3 - grandParent
ID;
#X obj 46 1 cnv 13 43 13 empty \$0-playRampSym_rec off 1 7 0 10 -233017
-1 0;
#N canvas 0 23 1440 598 store&RecallValues 0;
#X obj 1215 76 loadbang;
#X obj 1215 118 tabwrite \$1-stepID;
#X obj 1215 97 pack \$0 \$2;
#X obj 11 113 r \$0-playRamp_snd;
#X obj 223 113 r \$0-fxType_snd;
#X obj 121 113 r \$0-pbSpeed_snd;
#X obj 322 113 r \$0-sync_snd;
#X text 824 22 store 4 values \; 1 - play mode \; 2 - tape speed \;
3 - fx \; 4 - sync;
#X obj 429 87 loadbang;
#X obj 429 108 i \$2;
#X obj 429 129 * 4;
#X obj 64 340 pack;
#X obj 138 342 pack;
#X obj 429 271 + 1;
#X obj 221 344 pack;
#X obj 295 346 pack;
#X obj 429 292 + 1;
#X obj 429 313 + 1;
#X obj 156 445 tabwrite \$3-steps;
#X obj 469 14 r \$1-currentVoice;
#X obj 469 35 t f f, f 26;
#N canvas 272 164 1137 457 recallOldValues 0;
#X obj 38 15 inlet;
#X obj 7 279 + 0;
#X obj 140 280 + 1;
#X obj 281 280 + 2;
#X obj 423 280 + 3;
#X obj 7 297 tabread \$3-steps, f 9;
#X obj 140 298 tabread \$3-steps, f 8;
#X obj 281 298 tabread \$3-steps, f 8;
#X obj 423 298 tabread \$3-steps, f 8;
#X obj 8 407 s \$0-playRamp_rec;
#X obj 209 388 s \$0-pbSpeed_rec;
#X obj 311 388 s \$0-fxType_rec;
#X obj 410 388 s \$0-sync_rec;
#X obj 37 63 * 16;
#X text 82 19 voice in;
#X text 71 65 16 steps per voice;
#X obj 38 36 * 4;
#X text 76 36 4 values per step;
#X obj 419 41 * \$2;
#X floatatom 414 13 5 0 0 0 - - -;
#X floatatom 420 66 5 0 0 0 - - -;
#X obj 559 87 bng 15 250 50 0 empty empty empty 17 7 0 10 -262144 -1
-1;
#X floatatom 559 128 5 0 0 0 - - -;
#X obj 559 107 f \$2;
#X obj 227 41 loadbang;
#X obj 227 62 int \$2;
#X obj 227 83 * 4;
#X obj 37 174 +;
#X obj 37 84 +;
#X obj 134 116 r \$1-patBank;
#X obj 134 137 * 640;
#X text 175 136 10 voices * 16 steps * 4 values ==> 640 indices per
pat bank;
#X connect 0 0 16 0;
#X connect 1 0 5 0;
#X connect 2 0 6 0;
#X connect 3 0 7 0;
#X connect 4 0 8 0;
#X connect 5 0 9 0;
#X connect 6 0 10 0;
#X connect 7 0 11 0;
#X connect 8 0 12 0;
#X connect 13 0 28 0;
#X connect 16 0 13 0;
#X connect 18 0 20 0;
#X connect 19 0 18 0;
#X connect 21 0 23 0;
#X connect 23 0 22 0;
#X connect 24 0 25 0;
#X connect 25 0 26 0;
#X connect 26 0 28 1;
#X connect 27 0 1 0;
#X connect 27 0 2 0;
#X connect 27 0 4 0;
#X connect 27 0 3 0;
#X connect 28 0 27 0;
#X connect 29 0 30 0;
#X connect 30 0 27 1;
#X restore 469 56 pd recallOldValues;
#X obj 429 157 +, f 37;
#X obj 623 84 * 4;
#X obj 623 105 * 16;
#X obj 623 126 t b f;
#X text 651 84 4 values per step;
#X text 654 104 16 steps per voice;
#X text 465 108 step;
#X text 452 128 - 4 values per step;
#X obj 429 238 +;
#X obj 481 205 r \$1-patBank;
#X obj 481 226 * 640;
#X text 549 227 10 voices * 16 steps * 4 values ==> 640 indices per
pat bank;
#X obj 1099 119 s \$0-playRamp_rec;
#X msg 1102 96 -1;
#X connect 0 0 2 0;
#X connect 0 0 35 0;
#X connect 2 0 1 0;
#X connect 3 0 11 0;
#X connect 4 0 14 0;
#X connect 5 0 12 0;
#X connect 6 0 15 0;
#X connect 8 0 9 0;
#X connect 9 0 10 0;
#X connect 10 0 22 0;
#X connect 11 0 18 0;
#X connect 12 0 18 0;
#X connect 13 0 12 1;
#X connect 13 0 16 0;
#X connect 14 0 18 0;
#X connect 15 0 18 0;
#X connect 16 0 14 1;
#X connect 16 0 17 0;
#X connect 17 0 15 1;
#X connect 19 0 20 0;
#X connect 20 0 21 0;
#X connect 20 1 23 0;
#X connect 22 0 30 0;
#X connect 23 0 24 0;
#X connect 24 0 25 0;
#X connect 25 0 9 0;
#X connect 25 1 22 1;
#X connect 30 0 13 0;
#X connect 30 0 11 1;
#X connect 31 0 32 0;
#X connect 32 0 30 1;
#X connect 35 0 34 0;
#X restore 309 41 pd store&RecallValues;
#X obj 46 31 cnv 13 43 13 empty \$0-fxTypeSym_rec dry 1 7 0 10 -233017
-1 0;
#X coords 0 -1 1 1 45 45 2 45 0;
