#N canvas 205 48 1209 693 10;
#X obj 721 233 s \$0-advanced;
#X obj 908 177 r \$0-stepOut;
#X obj 908 89 s \$0-step;
#X obj 905 59 r \$1-step;
#X obj 721 210 r \$1-advanced;
#X text 781 53 args \; 1 - parent ID \; 2 - voice #;
#X floatatom 142 120 5 0 0 0 - - -;
#X floatatom 142 161 5 0 0 0 - - -;
#X obj 142 140 tabread \$0-stepID;
#X obj 863 266 array define \$0-stepID 16;
#X obj 1050 81 s \$0-arrayName;
#X obj 1050 60 r \$1-arrayName;
#X obj 674 0 seqStep \$0 15 \$1;
#X obj 629 0 seqStep \$0 14 \$1;
#X obj 585 0 seqStep \$0 13 \$1;
#X obj 540 0 seqStep \$0 12 \$1;
#X obj 495 0 seqStep \$0 11 \$1;
#X obj 450 0 seqStep \$0 10 \$1;
#X obj 405 0 seqStep \$0 9 \$1;
#X obj 360 0 seqStep \$0 8 \$1;
#X obj 315 0 seqStep \$0 7 \$1;
#X obj 270 0 seqStep \$0 6 \$1;
#X obj 225 0 seqStep \$0 5 \$1;
#X obj 180 0 seqStep \$0 4 \$1;
#X obj 135 0 seqStep \$0 3 \$1;
#X obj 90 0 seqStep \$0 2 \$1;
#X obj 45 0 seqStep \$0 1 \$1;
#X obj 0 0 seqStep \$0 0 \$1;
#X obj 639 295 r \$1-currentVoice;
#X obj 639 325 s \$0-currentVoice;
#N canvas 82 361 450 300 changeDisplayWhenVoiceChanges 0;
#X obj 37 7 inlet;
#X msg 37 82 16;
#X obj 37 103 until;
#X obj 37 29 t b b f, f 13;
#X msg 37 124 1;
#X obj 37 145 + -1;
#X obj 37 166 int;
#X msg 70 126 -1;
#N canvas 0 23 797 508 tabreader 0;
#X obj 37 7 inlet;
#X obj 35 254 + 0;
#X obj 168 255 + 1;
#X obj 309 255 + 2;
#X obj 451 255 + 3;
#X msg 35 369 \; \$2-playRamp_rec \$1, f 15;
#X obj 35 350 pack, f 9;
#X obj 652 283 tabread \$0-stepID;
#X obj 165 348 pack, f 9;
#X obj 301 344 pack, f 9;
#X obj 454 343 pack, f 9;
#X msg 162 373 \; \$2-pbSpeed_rec \$1;
#X msg 295 371 \; \$2-fxType_rec \$1;
#X msg 452 374 \; \$2-sync_rec \$1;
#X obj 579 48 * 4;
#X obj 579 69 * 16;
#X obj 579 22 inlet;
#X obj 37 28 t f f, f 69;
#X obj 35 157 +;
#X obj 35 183 t f f f f, f 64;
#X obj 35 272 tabread \$1-steps, f 9;
#X obj 168 273 tabread \$1-steps, f 8;
#X obj 309 273 tabread \$1-steps, f 8;
#X obj 451 273 tabread \$1-steps, f 8;
#X connect 0 0 17 0;
#X connect 1 0 20 0;
#X connect 2 0 21 0;
#X connect 3 0 22 0;
#X connect 4 0 23 0;
#X connect 6 0 5 0;
#X connect 7 0 10 1;
#X connect 7 0 9 1;
#X connect 7 0 8 1;
#X connect 7 0 6 1;
#X connect 8 0 11 0;
#X connect 9 0 12 0;
#X connect 10 0 13 0;
#X connect 14 0 15 0;
#X connect 15 0 18 1;
#X connect 16 0 14 0;
#X connect 17 0 18 0;
#X connect 17 1 7 0;
#X connect 18 0 19 0;
#X connect 19 0 1 0;
#X connect 19 1 2 0;
#X connect 19 2 3 0;
#X connect 19 3 4 0;
#X connect 20 0 6 0;
#X connect 21 0 8 0;
#X connect 22 0 9 0;
#X connect 23 0 10 0;
#X restore 37 187 pd tabreader;
#X connect 0 0 3 0;
#X connect 1 0 2 0;
#X connect 2 0 4 0;
#X connect 3 0 1 0;
#X connect 3 1 7 0;
#X connect 3 2 8 1;
#X connect 4 0 5 0;
#X connect 5 0 6 0;
#X connect 6 0 5 1;
#X connect 6 0 8 0;
#X connect 7 0 5 1;
#X restore 494 474 pd changeDisplayWhenVoiceChanges;
#X obj 484 438 r \$0-currentVoice;
#X obj 507 311 s \$0-patBank;
#X obj 480 243 r \$1-patBank;
#X floatatom 480 264 5 0 0 0 - - -;
#X connect 3 0 2 0;
#X connect 4 0 0 0;
#X connect 6 0 8 0;
#X connect 8 0 7 0;
#X connect 11 0 10 0;
#X connect 28 0 29 0;
#X connect 33 0 32 0;
#X connect 33 0 34 0;
#X coords 0 -1 1 1 719 45 2 0 0;
