#N canvas 34 22 824 592 10;
#X obj 303 362 osc~;
#X obj 563 295 noise~;
#X obj 563 324 *~;
#X obj 606 236 float;
#X obj 303 438 +~;
#X obj 69 18 inlet;
#X obj 69 60 route bang click pitch length;
#X obj 330 245 * 1.3;
#X obj 303 271 float;
#X obj 111 105 s 1141-click;
#X obj 633 208 r 1141-click;
#X obj 193 85 s 1141-length;
#X msg 303 316 \$1 \, \$2 \$3;
#X obj 406 245 r 1141-length;
#X obj 71 396 *~;
#X obj 71 357 vline~;
#X obj 303 341 line~;
#X obj 69 276 float;
#X obj 98 197 r 1141-length;
#X obj 69 123 trigger b b b;
#X obj 70 539 outlet~;
#X text 116 267 envelope;
#X text 390 292 tone;
#X text 558 268 click;
#X obj 413 26 loadbang;
#X obj 410 88 s 1141-click;
#X obj 544 88 s 1141-length;
#X obj 606 295 line~;
#X msg 606 266 \$1 \, 0 5;
#X obj 369 245 * 0.1;
#X obj 126 85 s 1141-tone;
#X obj 347 212 r 1141-tone;
#X obj 477 88 s 1141-tone;
#X obj 303 399 *~;
#X obj 303 295 pack 0 0 0;
#X obj 98 219 * 0.5;
#X msg 71 301 1 1 \, 0.1 \$1 1 \, 0 \$1 \$1;
#X msg 541 58 200;
#X obj 303 482 tanh~;
#X obj 303 460 *~ 1.2;
#X obj 563 346 lop~ 500;
#X msg 409 56 0.4;
#X msg 477 59 40;
#X connect 0 0 33 0;
#X connect 0 0 33 1;
#X connect 1 0 2 0;
#X connect 2 0 40 0;
#X connect 3 0 28 0;
#X connect 4 0 39 0;
#X connect 5 0 6 0;
#X connect 6 0 19 0;
#X connect 6 1 9 0;
#X connect 6 2 30 0;
#X connect 6 3 11 0;
#X connect 7 0 8 1;
#X connect 8 0 34 0;
#X connect 10 0 3 1;
#X connect 12 0 16 0;
#X connect 13 0 34 2;
#X connect 14 0 20 0;
#X connect 15 0 14 0;
#X connect 16 0 0 0;
#X connect 17 0 36 0;
#X connect 18 0 35 0;
#X connect 19 0 17 0;
#X connect 19 1 8 0;
#X connect 19 2 3 0;
#X connect 24 0 41 0;
#X connect 24 0 42 0;
#X connect 24 0 37 0;
#X connect 27 0 2 1;
#X connect 28 0 27 0;
#X connect 29 0 34 1;
#X connect 31 0 7 0;
#X connect 31 0 29 0;
#X connect 33 0 4 0;
#X connect 34 0 12 0;
#X connect 35 0 17 1;
#X connect 36 0 15 0;
#X connect 37 0 26 0;
#X connect 38 0 14 1;
#X connect 39 0 38 0;
#X connect 40 0 4 1;
#X connect 41 0 25 0;
#X connect 42 0 32 0;
