#N canvas 0 22 1097 531 10;
#X obj 155 372 dac~;
#X obj 184 49 tgl 15 0 empty empty empty 17 7 0 10 -262144 -1 -1 1
1;
#X obj 184 109 random 2;
#X obj 185 206 sel 0 1;
#X obj 185 184 float;
#X obj 284 131 sel 0;
#X obj 284 102 random 8;
#X obj 184 69 metro 300;
#X obj 284 155 del 150;
#X obj 367 131 sel 0;
#X obj 367 102 random 8;
#X obj 367 155 del 75;
#X obj 418 155 del 225;
#X obj 155 237 bd_sjf;
#X obj 321 237 sn2_sjf;
#X obj 171 275 throw~ #0-delay;
#X obj 153 299 throw~ #0-output;
#X obj 321 281 throw~ #0-output;
#X obj 156 342 catch~ #0-output;
#X obj 426 260 throw~ #0-delay;
#X obj 582 204 catch~ #0-delay;
#X obj 601 547 throw~ #0-output;
#X obj 652 254 delwrite~ #0-delayline 2000;
#X obj 758 381 vsl 15 128 0.01 1 1 0 empty empty empty 0 -9 0 10 -262144
-1 -1 11781 1;
#X obj 601 484 *~;
#X obj 521 336 vsl 15 128 0.01 1 1 0 empty empty empty 0 -9 0 10 -262144
-1 -1 4100 1;
#X obj 563 230 vsl 15 128 1 1000 1 0 empty empty empty 0 -9 0 10 -262144
-1 -1 10852 1;
#X obj 599 322 vd~ #0-delayline;
#X obj 601 274 sig~;
#X obj 601 296 lop~ 10;
#X obj 631 491 tanh~;
#X obj 631 516 lop~ 5000;
#X obj 626 445 *~;
#X obj 624 412 *~ 1.3;
#X floatatom 526 58 5 0 0 0 - - -;
#X obj 526 79 * 0.25;
#X obj 526 101 * 2;
#X obj 526 123 * 1.5;
#X obj 720 306 vsl 15 128 0.01 1 1 0 empty empty empty 0 -9 0 10 -262144
-1 -1 12700 1;
#X obj 720 442 + 1;
#X obj 156 105 bng 15 250 50 0 empty empty empty 17 7 0 10 -262144
-1 -1;
#X floatatom 580 90 5 0 0 0 - - -;
#X floatatom 580 111 5 0 0 0 - - -;
#X floatatom 579 135 5 0 0 0 - - -;
#X obj 652 148 random 1500;
#X obj 744 179 / 1500;
#X floatatom 748 215 5 0 0 0 - - -;
#X obj 821 180 / 1500;
#X obj 739 149 random 1400;
#X obj 816 150 random 800;
#X floatatom 823 218 5 0 0 0 - - -;
#X floatatom 675 183 5 0 0 0 - - -;
#X connect 1 0 7 0;
#X connect 2 0 4 0;
#X connect 3 0 13 0;
#X connect 3 1 14 0;
#X connect 4 0 3 0;
#X connect 5 0 8 0;
#X connect 5 0 10 0;
#X connect 6 0 5 0;
#X connect 7 0 2 0;
#X connect 7 0 6 0;
#X connect 7 0 40 0;
#X connect 7 0 44 0;
#X connect 7 0 48 0;
#X connect 7 0 49 0;
#X connect 8 0 4 0;
#X connect 9 0 11 0;
#X connect 9 0 12 0;
#X connect 10 0 9 0;
#X connect 11 0 4 0;
#X connect 12 0 4 0;
#X connect 13 0 16 0;
#X connect 13 0 15 0;
#X connect 14 0 17 0;
#X connect 14 0 19 0;
#X connect 18 0 0 0;
#X connect 18 0 0 1;
#X connect 20 0 22 0;
#X connect 23 0 32 1;
#X connect 24 0 21 0;
#X connect 25 0 24 1;
#X connect 26 0 28 0;
#X connect 27 0 24 0;
#X connect 27 0 33 0;
#X connect 28 0 29 0;
#X connect 29 0 27 0;
#X connect 30 0 31 0;
#X connect 31 0 22 0;
#X connect 32 0 30 0;
#X connect 33 0 32 0;
#X connect 34 0 35 0;
#X connect 34 0 7 1;
#X connect 35 0 36 0;
#X connect 35 0 11 1;
#X connect 35 0 41 0;
#X connect 36 0 37 0;
#X connect 36 0 8 1;
#X connect 36 0 42 0;
#X connect 37 0 12 1;
#X connect 37 0 43 0;
#X connect 38 0 39 0;
#X connect 39 0 33 1;
#X connect 44 0 28 0;
#X connect 44 0 51 0;
#X connect 45 0 32 1;
#X connect 45 0 46 0;
#X connect 47 0 24 1;
#X connect 47 0 50 0;
#X connect 48 0 45 0;
#X connect 49 0 47 0;
