#N canvas 0 51 1242 723 10;
#N canvas 0 22 450 278 (subpatch) 0;
#X array \$0-norgard 1000 float 3;
#A 0 0 1 -1 2 1 0 -2 3 -1 2 -0 1 2 -1 -3 4 1 0 -2 3 0 1 -1 2 -2 3 1
0 3 -2 -4 5 -1 2 -0 1 2 -1 -3 4 -0 1 -1 2 1 0 -2 3 2 -1 -3 4 -1 2 -0
1 -3 4 2 -1 4 -3 -5 6 1 0 -2 3 0 1 -1 2 -2 3 1 0 3 -2 -4 5 0 1 -1 2
1 0 -2 3 -1 2 -0 1 2 -1 -3 4 -2 3 1 0 3 -2 -4 5 1 0 -2 3 0 1 -1 2 3
-2 -4 5 -2 3 1 0 -4 5 3 -2 5 -4 -6 7 -1 2 -0 1 2 -1 -3 4 -0 1 -1 2
1 0 -2 3 2 -1 -3 4 -1 2 -0 1 -3 4 2 -1 4 -3 -5 6 -0 1 -1 2 1 0 -2 3
-1 2 -0 1 2 -1 -3 4 1 0 -2 3 0 1 -1 2 -2 3 1 0 3 -2 -4 5 2 -1 -3 4
-1 2 -0 1 -3 4 2 -1 4 -3 -5 6 -1 2 -0 1 2 -1 -3 4 -0 1 -1 2 1 0 -2
3 -3 4 2 -1 4 -3 -5 6 2 -1 -3 4 -1 2 -0 1 4 -3 -5 6 -3 4 2 -1 -5 6
4 -3 6 -5 -7 8 1 0 -2 3 0 1 -1 2 -2 3 1 0 3 -2 -4 5 0 1 -1 2 1 0 -2
3 -1 2 -0 1 2 -1 -3 4 -2 3 1 0 3 -2 -4 5 1 0 -2 3 0 1 -1 2 3 -2 -4
5 -2 3 1 0 -4 5 3 -2 5 -4 -6 7 0 1 -1 2 1 0 -2 3 -1 2 -0 1 2 -1 -3
4 1 0 -2 3 0 1 -1 2 -2 3 1 0 3 -2 -4 5 -1 2 -0 1 2 -1 -3 4 -0 1 -1
2 1 0 -2 3 2 -1 -3 4 -1 2 -0 1 -3 4 2 -1 4 -3 -5 6 -2 3 1 0 3 -2 -4
5 1 0 -2 3 0 1 -1 2 3 -2 -4 5 -2 3 1 0 -4 5 3 -2 5 -4 -6 7 1 0 -2 3
0 1 -1 2 -2 3 1 0 3 -2 -4 5 0 1 -1 2 1 0 -2 3 -1 2 -0 1 2 -1 -3 4 3
-2 -4 5 -2 3 1 0 -4 5 3 -2 5 -4 -6 7 -2 3 1 0 3 -2 -4 5 1 0 -2 3 0
1 -1 2 -4 5 3 -2 5 -4 -6 7 3 -2 -4 5 -2 3 1 0 5 -4 -6 7 -4 5 3 -2 -6
7 5 -4 7 -6 -8 9 -1 2 -0 1 2 -1 -3 4 -0 1 -1 2 1 0 -2 3 2 -1 -3 4 -1
2 -0 1 -3 4 2 -1 4 -3 -5 6 -0 1 -1 2 1 0 -2 3 -1 2 -0 1 2 -1 -3 4 1
0 -2 3 0 1 -1 2 -2 3 1 0 3 -2 -4 5 2 -1 -3 4 -1 2 -0 1 -3 4 2 -1 4
-3 -5 6 -1 2 -0 1 2 -1 -3 4 -0 1 -1 2 1 0 -2 3 -3 4 2 -1 4 -3 -5 6
2 -1 -3 4 -1 2 -0 1 4 -3 -5 6 -3 4 2 -1 -5 6 4 -3 6 -5 -7 8 -0 1 -1
2 1 0 -2 3 -1 2 -0 1 2 -1 -3 4 1 0 -2 3 0 1 -1 2 -2 3 1 0 3 -2 -4 5
-1 2 -0 1 2 -1 -3 4 -0 1 -1 2 1 0 -2 3 2 -1 -3 4 -1 2 -0 1 -3 4 2 -1
4 -3 -5 6 1 0 -2 3 0 1 -1 2 -2 3 1 0 3 -2 -4 5 0 1 -1 2 1 0 -2 3 -1
2 -0 1 2 -1 -3 4 -2 3 1 0 3 -2 -4 5 1 0 -2 3 0 1 -1 2 3 -2 -4 5 -2
3 1 0 -4 5 3 -2 5 -4 -6 7 2 -1 -3 4 -1 2 -0 1 -3 4 2 -1 4 -3 -5 6 -1
2 -0 1 2 -1 -3 4 -0 1 -1 2 1 0 -2 3 -3 4 2 -1 4 -3 -5 6 2 -1 -3 4 -1
2 -0 1 4 -3 -5 6 -3 4 2 -1 -5 6 4 -3 6 -5 -7 8 -1 2 -0 1 2 -1 -3 4
-0 1 -1 2 1 0 -2 3 2 -1 -3 4 -1 2 -0 1 -3 4 2 -1 4 -3 -5 6 -0 1 -1
2 1 0 -2 3 -1 2 -0 1 2 -1 -3 4 1 0 -2 3 0 1 -1 2 -2 3 1 0 3 -2 -4 5
-3 4 2 -1 4 -3 -5 6 2 -1 -3 4 -1 2 -0 1 4 -3 -5 6 -3 4 2 -1 -5 6 4
-3 6 -5 -7 8 2 -1 -3 4 -1 2 -0 1 -3 4 2 -1 4 -3 -5 6 -1 2 -0 1 2 -1
-3 4 -0 1 -1 2 1 0 -2 3 4 -3 -5 6 -3 4 2 -1 -5 6 4 -3 6 -5 -7 8 -3
4 2 -1 4 -3 -5 6 2 -1 -3 4 -1 2 -0 1 -5 6 4 -3 6 -5 -7 8;
#X coords 0 12 1000 -12 200 140 1 0 0;
#X restore 534 351 graph;
#N canvas 0 22 643 534 norgard_1 0;
#X obj 315 15 bng 15 250 50 0 empty empty empty 17 7 0 10 -262144 -1
-1;
#X obj 91 44 bng 15 250 50 0 empty empty empty 17 7 0 10 -262144 -1
-1;
#X obj 91 64 t b b, f 7;
#X obj 333 142 array size \$0-norgard;
#X obj 153 51 t b b, f 31;
#X obj 133 389 tabwrite \$0-norgard, f 11;
#X obj 136 96 +;
#X obj 136 117 int;
#X obj 186 96 + 1;
#X floatatom 136 158 5 0 0 0 - - -;
#X msg 153 71 0;
#X obj 136 178 sel 0 1, f 19;
#X obj 186 117 array size \$0-norgard;
#X obj 136 138 t f f;
#X msg 333 120 1, f 1;
#X msg 136 199 0 0;
#X msg 191 199 1 1;
#X obj 231 201 t f f, f 11;
#X obj 322 204 / 2;
#X obj 322 272 tabread \$0-norgard, f 11;
#X obj 322 225 int;
#X obj 231 225 t f f;
#X obj 283 264 % 2;
#X obj 322 246 t f f, f 13;
#X obj 397 272 - 1, f 4;
#X obj 397 293 tabread \$0-norgard, f 10;
#X obj 322 304 -, f 6;
#X floatatom 290 245 5 0 0 0 - - -;
#X floatatom 439 266 5 0 0 0 - - -;
#X floatatom 322 325 5 0 0 0 - - -;
#X obj 283 285 sel 0;
#X msg 283 306 -1, f 2;
#X obj 310 344 *;
#X floatatom 310 365 5 0 0 0 - - -;
#X obj 231 342 t f f, f 8;
#X obj 231 363 - 2;
#X obj 231 384 tabread \$0-norgard, f 10;
#X obj 231 417 +, f 13;
#X obj 231 438 tabwrite \$0-norgard;
#X floatatom 265 363 5 0 0 0 - - -;
#X floatatom 198 457 5 0 0 0 - - -;
#X obj 100 27 until;
#X msg 100 6 500;
#X obj 536 111 tabread \$0-norgard, f 10;
#X connect 0 0 4 0;
#X connect 1 0 2 0;
#X connect 2 1 6 0;
#X connect 4 0 10 0;
#X connect 4 1 14 0;
#X connect 6 0 7 0;
#X connect 7 0 13 0;
#X connect 8 0 6 1;
#X connect 8 0 12 0;
#X connect 9 0 11 0;
#X connect 10 0 6 1;
#X connect 11 0 15 0;
#X connect 11 1 16 0;
#X connect 11 2 17 0;
#X connect 13 0 9 0;
#X connect 13 1 8 0;
#X connect 14 0 3 0;
#X connect 15 0 5 0;
#X connect 16 0 5 0;
#X connect 17 0 21 0;
#X connect 17 1 18 0;
#X connect 18 0 20 0;
#X connect 19 0 26 0;
#X connect 20 0 23 0;
#X connect 21 0 34 0;
#X connect 21 1 22 0;
#X connect 22 0 30 0;
#X connect 23 0 19 0;
#X connect 23 0 27 0;
#X connect 23 1 24 0;
#X connect 24 0 25 0;
#X connect 24 0 28 0;
#X connect 25 0 26 1;
#X connect 26 0 29 0;
#X connect 29 0 32 1;
#X connect 30 0 31 0;
#X connect 30 1 32 0;
#X connect 31 0 32 0;
#X connect 32 0 33 0;
#X connect 33 0 37 1;
#X connect 34 0 35 0;
#X connect 34 1 38 1;
#X connect 34 1 39 0;
#X connect 35 0 36 0;
#X connect 36 0 37 0;
#X connect 37 0 38 0;
#X connect 37 0 40 0;
#X connect 41 0 1 0;
#X connect 42 0 41 0;
#X restore 623 528 pd norgard_1;
#X obj 181 80 bng 15 250 50 0 empty empty empty 17 7 0 10 -262144 -1
-1;
#X obj 208 136 +;
#X obj 208 157 int;
#X obj 280 179 + 1;
#X msg 225 111 0;
#X obj 280 200 array size \$0-norgard;
#X obj 208 178 t f f;
#X obj 208 199 sel 0;
#X obj 232 224 t f f;
#X obj 120 472 tabwrite \$0-norgard;
#X msg 117 311 0 0;
#X obj 232 245 % 2;
#X obj 232 266 pack, f 5;
#X obj 232 287 route 0 1, f 29;
#X obj 232 314 t f f, f 12;
#X obj 232 358 tabread \$0-norgard, f 10;
#X obj 232 335 / 2;
#X obj 232 398 * -1;
#X obj 232 419 pack, f 12;
#X obj 317 314 t f f, f 12;
#X obj 317 382 tabread \$0-norgard, f 10;
#X obj 317 359 / 2;
#X obj 317 443 pack, f 12;
#X obj 317 335 - 1;
#X obj 317 419 + 1;
#X obj 116 75 bng 15 250 50 0 empty empty empty 17 7 0 10 -262144 -1
-1;
#X obj 125 58 until;
#X msg 125 37 500;
#X obj 483 -45 tgl 15 0 empty empty empty 17 7 0 10 -262144 -1 -1 0
1;
#X obj 483 -4 +;
#X obj 513 -4 + 1;
#X obj 483 140 tabread \$0-norgard;
#X obj 483 265 + 60;
#X obj 484 324 noteout;
#X obj 483 160 t f f, f 19;
#X obj 610 275 tabread \$0-scale;
#N canvas 0 22 450 278 (subpatch) 0;
#X array \$0-scale 7 float 3;
#A 0 0 2 3 5 7 8 10;
#X coords 0 12 7 0 100 100 1 0 0;
#X restore 248 519 graph;
#X obj 718 606 tabwrite \$0-scale;
#X obj 610 188 % 7;
#X msg 820 490 0 0 \, 2 1 \, 4 2 \, 5 3 \, 7 4 \, 9 5 \, 11 6 \,;
#X obj 483 98 % 16;
#X obj 743 139 tabread \$0-norgard;
#X obj 743 160 t f f, f 19;
#X obj 743 119 + 16;
#X obj 743 291 + 48;
#X obj 649 0 % 2;
#X obj 649 44 +;
#X obj 649 65 int;
#X obj 679 44 + 1;
#X obj 649 86 % 16;
#X obj 649 21 sel 0;
#X obj 738 340 noteout;
#X obj 738 319 makenote 100 500;
#X obj 484 303 makenote 70 250;
#X obj 602 112 % 17;
#X obj 602 135 tabread \$0-norgard;
#X obj 819 61 % 17;
#X obj 819 84 tabread \$0-norgard;
#X floatatom 819 126 5 0 0 0 - - -;
#X msg 838 548 0 0 \, 2 1 \, 3 2 \, 5 3 \, 7 4 \, 9 5 \, 10 6 \,;
#X msg 831 518 0 0 \, 2 1 \, 4 2 \, 5 3 \, 7 4 \, 9 5 \, 10 6 \,;
#X floatatom 519 272 5 0 0 0 - - -;
#X floatatom 645 193 5 0 0 0 - - -;
#X obj 610 232 + 7;
#X obj 610 253 % 7;
#X obj 610 209 t f f;
#X obj 645 230 < 0;
#X obj 645 251 sel 0 1;
#X msg 655 297 0;
#X msg 683 297 -12;
#X obj 610 296 +;
#X floatatom 610 317 5 0 0 0 - - -;
#X obj 921 267 tabread \$0-scale;
#X obj 921 180 % 7;
#X floatatom 956 185 5 0 0 0 - - -;
#X obj 921 224 + 7;
#X obj 921 245 % 7;
#X obj 921 201 t f f;
#X obj 956 222 < 0;
#X obj 956 243 sel 0 1;
#X msg 966 289 0;
#X msg 994 289 -12;
#X obj 921 288 +;
#X obj 483 78 +;
#X obj 483 17 int;
#X floatatom 561 51 5 0 0 0 - - -;
#X obj 562 8 +;
#X obj 562 29 int;
#X obj 483 38 t f f;
#X obj 562 -102 sel 0;
#X obj 562 -120 % 16;
#X obj 562 -33 % 2;
#X obj 562 -12 sel 0;
#X msg 687 -74 0;
#X obj 562 -80 +;
#X obj 562 -59 int;
#X obj 592 -80 + 1;
#X obj 602 12 + 3;
#X obj 544 75 tabread \$0-norgard;
#X floatatom 544 96 5 0 0 0 - - -;
#X obj 732 -119 tabread \$0-norgard;
#X floatatom 731 -46 5 0 0 0 - - -;
#X obj 731 -25 expr round($f1);
#X floatatom 731 -3 5 0 0 0 - - -;
#X floatatom 874 -46 5 0 0 0 - - -;
#X floatatom 914 -95 5 0 0 0 - - -;
#X floatatom 1023 -75 5 0 0 0 - - -;
#X floatatom 1040 -116 5 0 0 0 - - -;
#X obj 1023 -97 expr pow(4 \, $f1);
#X obj 483 -25 metro 250;
#X obj 874 -68 expr 250 * pow(4 \, $f1/5);
#X obj 883 -118 tabread \$0-norgard;
#X obj 819 105 expr 100 * pow(2 \, $f1/5);
#X obj 602 156 expr 80 * pow(2 \, $f1/5);
#X msg 801 456 0 0 \, 2 1 \, 4 2 \, 6 3 \, 7 4 \, 9 5 \, 11 6 \,;
#X msg 843 572 0 0 \, 2 1 \, 3 2 \, 5 3 \, 7 4 \, 8 5 \, 10 6 \,;
#X msg 845 597 0 0 \, 1 1 \, 3 2 \, 5 3 \, 7 4 \, 8 5 \, 10 6 \,;
#X msg 846 623 0 0 \, 1 1 \, 3 2 \, 5 3 \, 6 4 \, 8 5 \, 10 6 \,;
#X obj 870 398 sel 0 1 2 3 4 5 6;
#X obj 999 -15 % 17;
#X obj 1000 58 tabread \$0-norgard;
#X obj 1000 79 / 5;
#X obj 1000 100 + 1;
#X obj 1000 121 / 2;
#X obj 1000 142 * 6;
#X obj 1000 163 expr round($f1);
#X obj 731 -68 expr 4 * pow(2 \, $f1/4);
#X connect 2 0 3 0;
#X connect 3 0 4 0;
#X connect 4 0 8 0;
#X connect 5 0 3 1;
#X connect 5 0 7 0;
#X connect 6 0 3 1;
#X connect 8 0 9 0;
#X connect 8 1 5 0;
#X connect 9 0 12 0;
#X connect 9 1 10 0;
#X connect 10 0 13 0;
#X connect 10 1 14 1;
#X connect 12 0 11 0;
#X connect 13 0 14 0;
#X connect 14 0 15 0;
#X connect 15 0 16 0;
#X connect 15 1 21 0;
#X connect 16 0 18 0;
#X connect 16 1 20 1;
#X connect 17 0 19 0;
#X connect 18 0 17 0;
#X connect 19 0 20 0;
#X connect 20 0 11 0;
#X connect 21 0 25 0;
#X connect 21 1 24 1;
#X connect 22 0 26 0;
#X connect 23 0 22 0;
#X connect 24 0 11 0;
#X connect 25 0 23 0;
#X connect 26 0 24 0;
#X connect 28 0 27 0;
#X connect 28 0 3 0;
#X connect 29 0 28 0;
#X connect 30 0 111 0;
#X connect 31 0 86 0;
#X connect 32 0 31 1;
#X connect 33 0 36 0;
#X connect 34 0 55 0;
#X connect 34 0 63 0;
#X connect 36 1 40 0;
#X connect 37 0 72 0;
#X connect 40 0 64 0;
#X connect 40 0 67 0;
#X connect 41 0 39 0;
#X connect 42 0 33 0;
#X connect 43 0 44 0;
#X connect 44 1 75 0;
#X connect 45 0 43 0;
#X connect 46 0 54 0;
#X connect 47 0 52 0;
#X connect 48 0 49 0;
#X connect 49 0 50 0;
#X connect 49 0 51 0;
#X connect 49 0 58 0;
#X connect 50 0 48 1;
#X connect 51 0 45 0;
#X connect 52 0 48 0;
#X connect 54 0 53 0;
#X connect 54 1 53 1;
#X connect 55 0 35 0;
#X connect 55 1 35 1;
#X connect 56 0 57 0;
#X connect 57 0 115 0;
#X connect 58 0 59 0;
#X connect 59 0 114 0;
#X connect 61 0 39 0;
#X connect 62 0 39 0;
#X connect 65 0 66 0;
#X connect 66 0 37 0;
#X connect 67 0 65 0;
#X connect 67 1 68 0;
#X connect 68 0 69 0;
#X connect 69 0 70 0;
#X connect 69 1 71 0;
#X connect 70 0 72 1;
#X connect 71 0 72 1;
#X connect 72 0 73 0;
#X connect 72 0 34 0;
#X connect 74 0 84 0;
#X connect 75 0 76 0;
#X connect 75 0 79 0;
#X connect 77 0 78 0;
#X connect 78 0 74 0;
#X connect 79 0 77 0;
#X connect 79 1 80 0;
#X connect 80 0 81 0;
#X connect 81 0 82 0;
#X connect 81 1 83 0;
#X connect 82 0 84 1;
#X connect 83 0 84 1;
#X connect 84 0 46 0;
#X connect 85 0 56 0;
#X connect 85 0 47 0;
#X connect 85 0 42 0;
#X connect 86 0 32 0;
#X connect 86 0 90 0;
#X connect 87 0 100 0;
#X connect 88 0 89 0;
#X connect 89 0 87 0;
#X connect 89 0 99 0;
#X connect 89 0 121 0;
#X connect 90 0 85 0;
#X connect 90 1 92 0;
#X connect 91 0 96 0;
#X connect 92 0 91 0;
#X connect 93 0 94 0;
#X connect 94 0 88 0;
#X connect 95 0 31 1;
#X connect 95 0 88 1;
#X connect 95 0 96 1;
#X connect 96 0 97 0;
#X connect 97 0 98 0;
#X connect 97 0 93 0;
#X connect 97 0 102 0;
#X connect 98 0 96 1;
#X connect 98 0 113 0;
#X connect 99 0 88 1;
#X connect 100 0 85 1;
#X connect 100 0 101 0;
#X connect 102 0 107 0;
#X connect 102 0 128 0;
#X connect 103 0 104 0;
#X connect 104 0 105 0;
#X connect 105 0 51 1;
#X connect 105 0 45 1;
#X connect 105 0 42 1;
#X connect 105 0 92 1;
#X connect 109 0 110 0;
#X connect 110 0 108 0;
#X connect 111 0 31 0;
#X connect 112 0 106 0;
#X connect 112 0 111 1;
#X connect 113 0 112 0;
#X connect 114 0 53 1;
#X connect 114 0 60 0;
#X connect 115 0 55 1;
#X connect 116 0 39 0;
#X connect 117 0 39 0;
#X connect 118 0 39 0;
#X connect 119 0 39 0;
#X connect 120 0 116 0;
#X connect 120 1 41 0;
#X connect 120 2 62 0;
#X connect 120 3 61 0;
#X connect 120 4 117 0;
#X connect 120 5 118 0;
#X connect 120 6 119 0;
#X connect 121 0 122 0;
#X connect 122 0 123 0;
#X connect 123 0 124 0;
#X connect 124 0 125 0;
#X connect 125 0 126 0;
#X connect 126 0 127 0;
#X connect 127 0 120 0;
#X connect 128 0 103 0;
