#N canvas 112 22 894 470 10;
#N canvas 112 259 1203 615 dj 0;
#X obj 53 659 loadbang;
#X obj 110 206 bng 15 250 50 0 empty stop STOP 17 7 0 10 -159808 -1
-1;
#X obj 153 207 tgl 15 0 empty pause PAUSE/RESUME 17 7 0 10 -258112
-1 -1 0 1;
#X msg 53 688 \; pd dsp 1 \; pause 0;
#X obj 113 188 hsl 128 15 1 100 0 1 empty empty volume -2 -8 0 10 -262144
-1 -1 12100 1;
#X obj 554 82 tof/folderpanel;
#X obj 554 41 bng 15 250 50 0 empty empty empty 17 7 0 10 -257985 -1
-1;
#X symbolatom 554 105 60 0 0 0 - - -;
#X obj 509 206 pack s s;
#X symbolatom 575 173 60 0 0 0 - - -;
#X msg 509 237 open \$2/\$1;
#X obj 267 646 dac~;
#X obj 509 82 t s b;
#X text 579 42 Click here to open a folder;
#X text 585 147 Type in the file name to play;
#X text 836 147 (e.g. track.wav);
#X obj 969 161 pack s;
#X msg 969 187 symbol \$1/*;
#X obj 969 211 folder_list;
#X obj 186 703 s pd-tracklist;
#X obj 895 388 + 1;
#X obj 963 423 select 1;
#X text 963 362 Items per line;
#X text 1021 423 New line at first item;
#X text 1001 539 Line spacing;
#X text 846 547 Item Spacing;
#X text 1002 566 Move all Vertically;
#X obj 895 698 s pd-tracklist;
#X obj 969 233 ext13/strippath;
#X msg 895 641 msg \$1 \$2 \$3;
#X msg 913 301 1;
#X obj 895 363 count 1;
#X obj 969 268 t b a b;
#X obj 895 532 * 80;
#X obj 895 609 pack f f s;
#X msg 701 319 \; pd-tracklist vis 1;
#X obj 797 577 pack f;
#X obj 797 543 f;
#X msg 186 676 obj 0 500 s trackplay;
#X msg 781 608 connect \$1 0 0 0;
#X obj 963 488 +;
#X floatatom 1008 488 5 0 0 0 - - -;
#X msg 963 456 1;
#X obj 969 131 t s b b;
#X msg 1008 455 0;
#X obj 963 540 * 20;
#X obj 963 567 - 0;
#X obj 887 34 r trackplay;
#X obj 887 54 l2s;
#X obj 868 334 t b f;
#X text 1065 118 reset;
#X msg 1064 148 \; pd-tracklist clear \; pd-tracklist obj 0 500 s trackplay
;
#N canvas 195 238 702 601 tracklist 0;
#X obj 0 500 s trackplay;
#X msg 80 20 (-)ions_120bpm.wav;
#X msg 80 40 AllThatYouGive_125bpm.wav;
#X msg 80 60 AnEagleinYourMind_96bpm.wav;
#X msg 80 80 ClubbedtoDeath_100bpm.wav;
#X msg 80 100 ClubbedtoDeath_100bpm.wav.asd;
#X msg 80 120 DlugaPodrozWChmurach.wav;
#X msg 80 140 DlugaPodrozWChmurach_124bpm.wav;
#X msg 80 160 DlugaPodrozWChmurach_124bpm.wav.asd;
#X msg 80 180 Gwarek2_120bpm.wav;
#X msg 80 200 InertiaCreeps_170bpm.wav;
#X msg 80 220 InertiaCreeps_170bpm.wav.asd;
#X msg 80 240 MettengExcuskeV12_120bpm.wav;
#X msg 80 260 NOVARS1.wav;
#X msg 80 280 NOVARS2.wav;
#X msg 80 300 Pentes_160bpm.wav;
#X msg 80 320 Prototype2_120bpm.wav;
#X msg 80 340 ReadyLetsGo_102bpm.wav;
#X msg 80 360 ThisThisIsYourBrainOnMoney_110bpm.wav;
#X msg 80 380 ThisThisIsYourBrainOnMoney_110bpm.wav.asd;
#X msg 80 400 WhiteFlash_130bpm.wav;
#X msg 80 420 WhiteFlash_130bpm.wav.asd;
#X msg 80 440 allThings_150bpm.wav;
#X msg 80 460 allThings_150bpm.wav.asd;
#X msg 80 480 ambientHumTuningFork.wav;
#X msg 80 500 ambientHumTuningFork.wav.asd;
#X msg 80 520 ants_140bpm.wav;
#X msg 80 540 ants_140bpm.wav.asd;
#X msg 80 560 birds_In_Ireland.wav;
#X msg 80 580 birds_on_a_lake.wav;
#X msg 80 600 bitterLamentations.wav;
#X msg 80 620 bowedMetal.wav;
#X msg 80 640 bowedMetal.wav.asd;
#X msg 80 660 children_speaking.wav;
#X msg 80 680 children_speaking.wav.asd;
#X msg 80 700 crunching_glass.wav;
#X msg 80 720 crunching_glass.wav.asd;
#X msg 80 740 cultistChant.wav;
#X msg 80 760 cultistChant.wav.asd;
#X msg 80 780 cymbalScape_rand.wav;
#X msg 80 800 cymbalScape_rand.wav.asd;
#X msg 80 820 dad_100bpm.wav;
#X msg 80 840 dad_100bpm.wav.asd;
#X msg 80 860 dillonFamilyDancers_160bpm.wav;
#X msg 80 880 dillonFamilyDancers_160bpm.wav.asd;
#X msg 80 900 gong1.wav;
#X msg 80 920 gong1.wav.asd;
#X msg 80 940 gong2.wav;
#X msg 80 960 gong2.wav.asd;
#X msg 80 980 guitarChord.wav;
#X msg 80 1000 guitarChord.wav.asd;
#X msg 80 1020 harmonicos.wav;
#X msg 80 1040 harmonicos.wav.asd;
#X msg 80 1060 hauntingMask.wav;
#X msg 80 1080 hauntingMask.wav.asd;
#X msg 80 1100 helloMeow_160bpm.wav;
#X msg 80 1120 helloMeow_160bpm.wav.asd;
#X msg 80 1140 horseBells.wav;
#X msg 80 1160 horseBells.wav.asd;
#X msg 80 1180 ilanders_130pbm.wav;
#X msg 80 1200 ilanders_130pbm.wav.asd;
#X msg 80 1220 incidencesResonaces1.wav;
#X msg 80 1240 incidencesResonaces2.wav;
#X msg 80 1260 jawsHarp.wav;
#X msg 80 1280 jawsHarp.wav.asd;
#X msg 80 1300 johnBKeane.wav;
#X msg 80 1320 johnBKeane.wav.asd;
#X msg 80 1340 lipostudio_102bpm.wav;
#X msg 80 1360 machinHum_rhythm.wav;
#X msg 80 1380 machinHum_rhythm.wav.asd;
#X msg 80 1400 maiz_135bpm.wav;
#X msg 80 1420 maiz_135bpm.wav.asd;
#X msg 80 1440 memoria_87bpm.wav;
#X msg 80 1460 memoria_87bpm.wav.asd;
#X msg 80 1480 metalFactory.wav;
#X msg 80 1500 metalFactory.wav.asd;
#X msg 80 1520 metalRings.wav;
#X msg 80 1540 metalRings.wav.asd;
#X msg 80 1560 minipops_120bpm.wav;
#X msg 80 1580 minipops_120bpm.wav.asd;
#X msg 80 1600 mysterons_164bpm.wav;
#X msg 80 1620 mysterons_164bpm.wav.asd;
#X msg 80 1640 noGood_145bpm.wav;
#X msg 80 1660 noGood_145bpm.wav.asd;
#X msg 80 1680 oligarchy_120bpm.wav;
#X msg 80 1700 pedestrianCrossingDublin.wav;
#X msg 80 1720 pedestrianCrossingDublin.wav.asd;
#X msg 80 1740 sanctus.wav;
#X msg 80 1760 sanctus.wav.asd;
#X msg 80 1780 sexyBoy_112bpm.wav;
#X msg 80 1800 sexyBoy_112bpm.wav.asd;
#X msg 80 1820 singingBowl_Big.wav;
#X msg 80 1840 singingBowl_Big.wav.asd;
#X msg 80 1860 siningBowlMedium.wav;
#X msg 80 1880 squarepusherTheme_170bpm.wav;
#X msg 80 1900 start_of_mass.wav;
#X msg 80 1920 start_of_mass.wav.asd;
#X msg 80 1940 thePot_105bpm.wav;
#X msg 80 1960 thePot_105bpm.wav.asd;
#X msg 80 1980 tibetanBell1.wav;
#X msg 80 2000 tibetanBell1.wav.asd;
#X msg 80 2020 tibetanChant1.wav;
#X msg 80 2040 tibetanChant1.wav.asd;
#X msg 80 2060 tibetanChant2.wav;
#X msg 80 2080 trainStationAnnouncement_krakow.wav;
#X msg 80 2100 trainStationAnnouncement_krakow.wav.asd;
#X msg 80 2120 vertizontal_opening.wav;
#X msg 80 2140 vordhosbn_170bpm.wav;
#X msg 80 2160 vordhosbn_170bpm.wav.asd;
#X msg 80 2180 warsawStreetAnnouncement.wav;
#X msg 80 2200 warsawStreetAnnouncement.wav.asd;
#X msg 80 2220 waterphone1.wav;
#X msg 80 2240 waterphone1.wav.asd;
#X connect 1 0 0 0;
#X connect 2 0 0 0;
#X connect 3 0 0 0;
#X connect 4 0 0 0;
#X connect 5 0 0 0;
#X connect 6 0 0 0;
#X connect 7 0 0 0;
#X connect 8 0 0 0;
#X connect 9 0 0 0;
#X connect 10 0 0 0;
#X connect 11 0 0 0;
#X connect 12 0 0 0;
#X connect 13 0 0 0;
#X connect 14 0 0 0;
#X connect 15 0 0 0;
#X connect 16 0 0 0;
#X connect 17 0 0 0;
#X connect 18 0 0 0;
#X connect 19 0 0 0;
#X connect 20 0 0 0;
#X connect 21 0 0 0;
#X connect 22 0 0 0;
#X connect 23 0 0 0;
#X connect 24 0 0 0;
#X connect 25 0 0 0;
#X connect 26 0 0 0;
#X connect 27 0 0 0;
#X connect 28 0 0 0;
#X connect 29 0 0 0;
#X connect 30 0 0 0;
#X connect 31 0 0 0;
#X connect 32 0 0 0;
#X connect 33 0 0 0;
#X connect 34 0 0 0;
#X connect 35 0 0 0;
#X connect 36 0 0 0;
#X connect 37 0 0 0;
#X connect 38 0 0 0;
#X connect 39 0 0 0;
#X connect 40 0 0 0;
#X connect 41 0 0 0;
#X connect 42 0 0 0;
#X connect 43 0 0 0;
#X connect 44 0 0 0;
#X connect 45 0 0 0;
#X connect 46 0 0 0;
#X connect 47 0 0 0;
#X connect 48 0 0 0;
#X connect 49 0 0 0;
#X connect 50 0 0 0;
#X connect 51 0 0 0;
#X connect 52 0 0 0;
#X connect 53 0 0 0;
#X connect 54 0 0 0;
#X connect 55 0 0 0;
#X connect 56 0 0 0;
#X connect 57 0 0 0;
#X connect 58 0 0 0;
#X connect 59 0 0 0;
#X connect 60 0 0 0;
#X connect 61 0 0 0;
#X connect 62 0 0 0;
#X connect 63 0 0 0;
#X connect 64 0 0 0;
#X connect 65 0 0 0;
#X connect 66 0 0 0;
#X connect 67 0 0 0;
#X connect 68 0 0 0;
#X connect 69 0 0 0;
#X connect 70 0 0 0;
#X connect 71 0 0 0;
#X connect 72 0 0 0;
#X connect 73 0 0 0;
#X connect 74 0 0 0;
#X connect 75 0 0 0;
#X connect 76 0 0 0;
#X connect 77 0 0 0;
#X connect 78 0 0 0;
#X connect 79 0 0 0;
#X connect 80 0 0 0;
#X connect 81 0 0 0;
#X connect 82 0 0 0;
#X connect 83 0 0 0;
#X connect 84 0 0 0;
#X connect 85 0 0 0;
#X connect 86 0 0 0;
#X connect 87 0 0 0;
#X connect 88 0 0 0;
#X connect 89 0 0 0;
#X connect 90 0 0 0;
#X connect 91 0 0 0;
#X connect 92 0 0 0;
#X connect 93 0 0 0;
#X connect 94 0 0 0;
#X connect 95 0 0 0;
#X connect 96 0 0 0;
#X connect 97 0 0 0;
#X connect 98 0 0 0;
#X connect 99 0 0 0;
#X connect 100 0 0 0;
#X connect 101 0 0 0;
#X connect 102 0 0 0;
#X connect 103 0 0 0;
#X connect 104 0 0 0;
#X connect 105 0 0 0;
#X connect 106 0 0 0;
#X connect 107 0 0 0;
#X connect 108 0 0 0;
#X connect 109 0 0 0;
#X connect 110 0 0 0;
#X connect 111 0 0 0;
#X connect 112 0 0 0;
#X restore 1091 371 pd tracklist;
#X obj 250 412 gate 2 1;
#X obj 701 295 bng 15 250 50 0 empty empty empty 17 7 0 10 -262144
-1 -1;
#X obj 887 74 t l b;
#X obj 250 366 counter 1 2;
#N canvas 469 128 450 300 player 0;
#X obj 2 44 readsf~ 2;
#X obj 75 132 vol~;
#X obj 1 132 vol~;
#X msg 98 2 stop;
#X obj 275 92 switch~;
#X obj 248 24 t f f;
#X msg 248 118 \$1 5;
#X obj 248 143 line~;
#X obj 275 67 pipe 8;
#X obj 1 196 *~;
#X obj 76 188 *~;
#X obj 248 -3 invert;
#X obj 99 47 hsl 128 15 1 100 0 1 empty empty volume -2 -8 0 10 -262144
-1 -1 12100 1;
#N canvas 174 47 702 601 tracklist 0;
#X obj 0 500 s trackplay;
#X msg 80 20 (-)ions_120bpm.wav;
#X msg 80 40 AllThatYouGive_125bpm.wav;
#X msg 80 60 AnEagleinYourMind_96bpm.wav;
#X msg 80 80 ClubbedtoDeath_100bpm.wav;
#X msg 80 100 ClubbedtoDeath_100bpm.wav.asd;
#X msg 80 120 DlugaPodrozWChmurach.wav;
#X msg 80 140 DlugaPodrozWChmurach_124bpm.wav;
#X msg 80 160 DlugaPodrozWChmurach_124bpm.wav.asd;
#X msg 80 180 Gwarek2_120bpm.wav;
#X msg 80 200 InertiaCreeps_170bpm.wav;
#X msg 80 220 InertiaCreeps_170bpm.wav.asd;
#X msg 80 240 MettengExcuskeV12_120bpm.wav;
#X msg 80 260 NOVARS1.wav;
#X msg 80 280 NOVARS2.wav;
#X msg 80 300 Pentes_160bpm.wav;
#X msg 80 320 Prototype2_120bpm.wav;
#X msg 80 340 ReadyLetsGo_102bpm.wav;
#X msg 80 360 ThisThisIsYourBrainOnMoney_110bpm.wav;
#X msg 80 380 ThisThisIsYourBrainOnMoney_110bpm.wav.asd;
#X msg 80 400 WhiteFlash_130bpm.wav;
#X msg 80 420 WhiteFlash_130bpm.wav.asd;
#X msg 80 440 allThings_150bpm.wav;
#X msg 80 460 allThings_150bpm.wav.asd;
#X msg 80 480 ambientHumTuningFork.wav;
#X msg 80 500 ambientHumTuningFork.wav.asd;
#X msg 80 520 ants_140bpm.wav;
#X msg 80 540 ants_140bpm.wav.asd;
#X msg 80 560 birds_In_Ireland.wav;
#X msg 80 580 birds_on_a_lake.wav;
#X msg 80 600 bitterLamentations.wav;
#X msg 80 620 bowedMetal.wav;
#X msg 80 640 bowedMetal.wav.asd;
#X msg 80 660 children_speaking.wav;
#X msg 80 680 children_speaking.wav.asd;
#X msg 80 700 crunching_glass.wav;
#X msg 80 720 crunching_glass.wav.asd;
#X msg 80 740 cultistChant.wav;
#X msg 80 760 cultistChant.wav.asd;
#X msg 80 780 cymbalScape_rand.wav;
#X msg 80 800 cymbalScape_rand.wav.asd;
#X msg 80 820 dad_100bpm.wav;
#X msg 80 840 dad_100bpm.wav.asd;
#X msg 80 860 dillonFamilyDancers_160bpm.wav;
#X msg 80 880 dillonFamilyDancers_160bpm.wav.asd;
#X msg 80 900 gong1.wav;
#X msg 80 920 gong1.wav.asd;
#X msg 80 940 gong2.wav;
#X msg 80 960 gong2.wav.asd;
#X msg 80 980 guitarChord.wav;
#X msg 80 1000 guitarChord.wav.asd;
#X msg 80 1020 harmonicos.wav;
#X msg 80 1040 harmonicos.wav.asd;
#X msg 80 1060 hauntingMask.wav;
#X msg 80 1080 hauntingMask.wav.asd;
#X msg 80 1100 helloMeow_160bpm.wav;
#X msg 80 1120 helloMeow_160bpm.wav.asd;
#X msg 80 1140 horseBells.wav;
#X msg 80 1160 horseBells.wav.asd;
#X msg 80 1180 ilanders_130pbm.wav;
#X msg 80 1200 ilanders_130pbm.wav.asd;
#X msg 80 1220 incidencesResonaces1.wav;
#X msg 80 1240 incidencesResonaces2.wav;
#X msg 80 1260 jawsHarp.wav;
#X msg 80 1280 jawsHarp.wav.asd;
#X msg 80 1300 johnBKeane.wav;
#X msg 80 1320 johnBKeane.wav.asd;
#X msg 80 1340 lipostudio_102bpm.wav;
#X msg 80 1360 machinHum_rhythm.wav;
#X msg 80 1380 machinHum_rhythm.wav.asd;
#X msg 80 1400 maiz_135bpm.wav;
#X msg 80 1420 maiz_135bpm.wav.asd;
#X msg 80 1440 memoria_87bpm.wav;
#X msg 80 1460 memoria_87bpm.wav.asd;
#X msg 80 1480 metalFactory.wav;
#X msg 80 1500 metalFactory.wav.asd;
#X msg 80 1520 metalRings.wav;
#X msg 80 1540 metalRings.wav.asd;
#X msg 80 1560 minipops_120bpm.wav;
#X msg 80 1580 minipops_120bpm.wav.asd;
#X msg 80 1600 mysterons_164bpm.wav;
#X msg 80 1620 mysterons_164bpm.wav.asd;
#X msg 80 1640 noGood_145bpm.wav;
#X msg 80 1660 noGood_145bpm.wav.asd;
#X msg 80 1680 oligarchy_120bpm.wav;
#X msg 80 1700 pedestrianCrossingDublin.wav;
#X msg 80 1720 pedestrianCrossingDublin.wav.asd;
#X msg 80 1740 sanctus.wav;
#X msg 80 1760 sanctus.wav.asd;
#X msg 80 1780 sexyBoy_112bpm.wav;
#X msg 80 1800 sexyBoy_112bpm.wav.asd;
#X msg 80 1820 singingBowl_Big.wav;
#X msg 80 1840 singingBowl_Big.wav.asd;
#X msg 80 1860 siningBowlMedium.wav;
#X msg 80 1880 squarepusherTheme_170bpm.wav;
#X msg 80 1900 start_of_mass.wav;
#X msg 80 1920 start_of_mass.wav.asd;
#X msg 80 1940 thePot_105bpm.wav;
#X msg 80 1960 thePot_105bpm.wav.asd;
#X msg 80 1980 tibetanBell1.wav;
#X msg 80 2000 tibetanBell1.wav.asd;
#X msg 80 2020 tibetanChant1.wav;
#X msg 80 2040 tibetanChant1.wav.asd;
#X msg 80 2060 tibetanChant2.wav;
#X msg 80 2080 trainStationAnnouncement_krakow.wav;
#X msg 80 2100 trainStationAnnouncement_krakow.wav.asd;
#X msg 80 2120 vertizontal_opening.wav;
#X msg 80 2140 vordhosbn_170bpm.wav;
#X msg 80 2160 vordhosbn_170bpm.wav.asd;
#X msg 80 2180 warsawStreetAnnouncement.wav;
#X msg 80 2200 warsawStreetAnnouncement.wav.asd;
#X msg 80 2220 waterphone1.wav;
#X msg 80 2240 waterphone1.wav.asd;
#X connect 1 0 0 0;
#X connect 2 0 0 0;
#X connect 3 0 0 0;
#X connect 4 0 0 0;
#X connect 5 0 0 0;
#X connect 6 0 0 0;
#X connect 7 0 0 0;
#X connect 8 0 0 0;
#X connect 9 0 0 0;
#X connect 10 0 0 0;
#X connect 11 0 0 0;
#X connect 12 0 0 0;
#X connect 13 0 0 0;
#X connect 14 0 0 0;
#X connect 15 0 0 0;
#X connect 16 0 0 0;
#X connect 17 0 0 0;
#X connect 18 0 0 0;
#X connect 19 0 0 0;
#X connect 20 0 0 0;
#X connect 21 0 0 0;
#X connect 22 0 0 0;
#X connect 23 0 0 0;
#X connect 24 0 0 0;
#X connect 25 0 0 0;
#X connect 26 0 0 0;
#X connect 27 0 0 0;
#X connect 28 0 0 0;
#X connect 29 0 0 0;
#X connect 30 0 0 0;
#X connect 31 0 0 0;
#X connect 32 0 0 0;
#X connect 33 0 0 0;
#X connect 34 0 0 0;
#X connect 35 0 0 0;
#X connect 36 0 0 0;
#X connect 37 0 0 0;
#X connect 38 0 0 0;
#X connect 39 0 0 0;
#X connect 40 0 0 0;
#X connect 41 0 0 0;
#X connect 42 0 0 0;
#X connect 43 0 0 0;
#X connect 44 0 0 0;
#X connect 45 0 0 0;
#X connect 46 0 0 0;
#X connect 47 0 0 0;
#X connect 48 0 0 0;
#X connect 49 0 0 0;
#X connect 50 0 0 0;
#X connect 51 0 0 0;
#X connect 52 0 0 0;
#X connect 53 0 0 0;
#X connect 54 0 0 0;
#X connect 55 0 0 0;
#X connect 56 0 0 0;
#X connect 57 0 0 0;
#X connect 58 0 0 0;
#X connect 59 0 0 0;
#X connect 60 0 0 0;
#X connect 61 0 0 0;
#X connect 62 0 0 0;
#X connect 63 0 0 0;
#X connect 64 0 0 0;
#X connect 65 0 0 0;
#X connect 66 0 0 0;
#X connect 67 0 0 0;
#X connect 68 0 0 0;
#X connect 69 0 0 0;
#X connect 70 0 0 0;
#X connect 71 0 0 0;
#X connect 72 0 0 0;
#X connect 73 0 0 0;
#X connect 74 0 0 0;
#X connect 75 0 0 0;
#X connect 76 0 0 0;
#X connect 77 0 0 0;
#X connect 78 0 0 0;
#X connect 79 0 0 0;
#X connect 80 0 0 0;
#X connect 81 0 0 0;
#X connect 82 0 0 0;
#X connect 83 0 0 0;
#X connect 84 0 0 0;
#X connect 85 0 0 0;
#X connect 86 0 0 0;
#X connect 87 0 0 0;
#X connect 88 0 0 0;
#X connect 89 0 0 0;
#X connect 90 0 0 0;
#X connect 91 0 0 0;
#X connect 92 0 0 0;
#X connect 93 0 0 0;
#X connect 94 0 0 0;
#X connect 95 0 0 0;
#X connect 96 0 0 0;
#X connect 97 0 0 0;
#X connect 98 0 0 0;
#X connect 99 0 0 0;
#X connect 100 0 0 0;
#X connect 101 0 0 0;
#X connect 102 0 0 0;
#X connect 103 0 0 0;
#X connect 104 0 0 0;
#X connect 105 0 0 0;
#X connect 106 0 0 0;
#X connect 107 0 0 0;
#X connect 108 0 0 0;
#X connect 109 0 0 0;
#X connect 110 0 0 0;
#X connect 111 0 0 0;
#X connect 112 0 0 0;
#X restore 120 80 pd tracklist;
#X obj 2 -30 inlet;
#X obj 98 -24 inlet;
#X obj 248 -26 inlet;
#X obj 1 231 outlet~;
#X obj 78 228 outlet~;
#X obj 179 -24 inlet;
#X msg -59 34 start;
#X obj -59 12 delay 50;
#X obj -59 -9 bng 15 250 50 0 empty empty empty 17 7 0 10 -262144 -1
-1;
#X connect 0 0 2 0;
#X connect 0 1 1 0;
#X connect 1 0 10 0;
#X connect 2 0 9 0;
#X connect 3 0 0 0;
#X connect 5 0 6 0;
#X connect 5 1 8 0;
#X connect 6 0 7 0;
#X connect 7 0 9 1;
#X connect 7 0 10 1;
#X connect 8 0 4 0;
#X connect 9 0 17 0;
#X connect 10 0 18 0;
#X connect 11 0 5 0;
#X connect 12 0 2 1;
#X connect 12 0 1 1;
#X connect 14 0 0 0;
#X connect 14 0 22 0;
#X connect 15 0 3 0;
#X connect 16 0 11 0;
#X connect 19 0 12 0;
#X connect 20 0 0 0;
#X connect 21 0 20 0;
#X connect 22 0 21 0;
#X restore 250 467 pd player;
#N canvas 469 128 450 300 player 0;
#X obj 2 44 readsf~ 2;
#X obj 75 132 vol~;
#X obj 1 132 vol~;
#X msg 98 2 stop;
#X obj 275 92 switch~;
#X obj 248 24 t f f;
#X msg 248 118 \$1 5;
#X obj 248 143 line~;
#X obj 275 67 pipe 8;
#X obj 1 196 *~;
#X obj 76 188 *~;
#X obj 248 -3 invert;
#X obj 99 47 hsl 128 15 1 100 0 1 empty empty volume -2 -8 0 10 -262144
-1 -1 12100 1;
#N canvas 685 22 702 601 tracklist 0;
#X obj 0 500 s trackplay;
#X msg 80 20 (-)ions_120bpm.wav;
#X msg 80 40 AllThatYouGive_125bpm.wav;
#X msg 80 60 AnEagleinYourMind_96bpm.wav;
#X msg 80 80 ClubbedtoDeath_100bpm.wav;
#X msg 80 100 ClubbedtoDeath_100bpm.wav.asd;
#X msg 80 120 DlugaPodrozWChmurach.wav;
#X msg 80 140 DlugaPodrozWChmurach_124bpm.wav;
#X msg 80 160 DlugaPodrozWChmurach_124bpm.wav.asd;
#X msg 80 180 Gwarek2_120bpm.wav;
#X msg 80 200 InertiaCreeps_170bpm.wav;
#X msg 80 220 InertiaCreeps_170bpm.wav.asd;
#X msg 80 240 MettengExcuskeV12_120bpm.wav;
#X msg 80 260 NOVARS1.wav;
#X msg 80 280 NOVARS2.wav;
#X msg 80 300 Pentes_160bpm.wav;
#X msg 80 320 Prototype2_120bpm.wav;
#X msg 80 340 ReadyLetsGo_102bpm.wav;
#X msg 80 360 ThisThisIsYourBrainOnMoney_110bpm.wav;
#X msg 80 380 ThisThisIsYourBrainOnMoney_110bpm.wav.asd;
#X msg 80 400 WhiteFlash_130bpm.wav;
#X msg 80 420 WhiteFlash_130bpm.wav.asd;
#X msg 80 440 allThings_150bpm.wav;
#X msg 80 460 allThings_150bpm.wav.asd;
#X msg 80 480 ambientHumTuningFork.wav;
#X msg 80 500 ambientHumTuningFork.wav.asd;
#X msg 80 520 ants_140bpm.wav;
#X msg 80 540 ants_140bpm.wav.asd;
#X msg 80 560 birds_In_Ireland.wav;
#X msg 80 580 birds_on_a_lake.wav;
#X msg 80 600 bitterLamentations.wav;
#X msg 80 620 bowedMetal.wav;
#X msg 80 640 bowedMetal.wav.asd;
#X msg 80 660 children_speaking.wav;
#X msg 80 680 children_speaking.wav.asd;
#X msg 80 700 crunching_glass.wav;
#X msg 80 720 crunching_glass.wav.asd;
#X msg 80 740 cultistChant.wav;
#X msg 80 760 cultistChant.wav.asd;
#X msg 80 780 cymbalScape_rand.wav;
#X msg 80 800 cymbalScape_rand.wav.asd;
#X msg 80 820 dad_100bpm.wav;
#X msg 80 840 dad_100bpm.wav.asd;
#X msg 80 860 dillonFamilyDancers_160bpm.wav;
#X msg 80 880 dillonFamilyDancers_160bpm.wav.asd;
#X msg 80 900 gong1.wav;
#X msg 80 920 gong1.wav.asd;
#X msg 80 940 gong2.wav;
#X msg 80 960 gong2.wav.asd;
#X msg 80 980 guitarChord.wav;
#X msg 80 1000 guitarChord.wav.asd;
#X msg 80 1020 harmonicos.wav;
#X msg 80 1040 harmonicos.wav.asd;
#X msg 80 1060 hauntingMask.wav;
#X msg 80 1080 hauntingMask.wav.asd;
#X msg 80 1100 helloMeow_160bpm.wav;
#X msg 80 1120 helloMeow_160bpm.wav.asd;
#X msg 80 1140 horseBells.wav;
#X msg 80 1160 horseBells.wav.asd;
#X msg 80 1180 ilanders_130pbm.wav;
#X msg 80 1200 ilanders_130pbm.wav.asd;
#X msg 80 1220 incidencesResonaces1.wav;
#X msg 80 1240 incidencesResonaces2.wav;
#X msg 80 1260 jawsHarp.wav;
#X msg 80 1280 jawsHarp.wav.asd;
#X msg 80 1300 johnBKeane.wav;
#X msg 80 1320 johnBKeane.wav.asd;
#X msg 80 1340 lipostudio_102bpm.wav;
#X msg 80 1360 machinHum_rhythm.wav;
#X msg 80 1380 machinHum_rhythm.wav.asd;
#X msg 80 1400 maiz_135bpm.wav;
#X msg 80 1420 maiz_135bpm.wav.asd;
#X msg 80 1440 memoria_87bpm.wav;
#X msg 80 1460 memoria_87bpm.wav.asd;
#X msg 80 1480 metalFactory.wav;
#X msg 80 1500 metalFactory.wav.asd;
#X msg 80 1520 metalRings.wav;
#X msg 80 1540 metalRings.wav.asd;
#X msg 80 1560 minipops_120bpm.wav;
#X msg 80 1580 minipops_120bpm.wav.asd;
#X msg 80 1600 mysterons_164bpm.wav;
#X msg 80 1620 mysterons_164bpm.wav.asd;
#X msg 80 1640 noGood_145bpm.wav;
#X msg 80 1660 noGood_145bpm.wav.asd;
#X msg 80 1680 oligarchy_120bpm.wav;
#X msg 80 1700 pedestrianCrossingDublin.wav;
#X msg 80 1720 pedestrianCrossingDublin.wav.asd;
#X msg 80 1740 sanctus.wav;
#X msg 80 1760 sanctus.wav.asd;
#X msg 80 1780 sexyBoy_112bpm.wav;
#X msg 80 1800 sexyBoy_112bpm.wav.asd;
#X msg 80 1820 singingBowl_Big.wav;
#X msg 80 1840 singingBowl_Big.wav.asd;
#X msg 80 1860 siningBowlMedium.wav;
#X msg 80 1880 squarepusherTheme_170bpm.wav;
#X msg 80 1900 start_of_mass.wav;
#X msg 80 1920 start_of_mass.wav.asd;
#X msg 80 1940 thePot_105bpm.wav;
#X msg 80 1960 thePot_105bpm.wav.asd;
#X msg 80 1980 tibetanBell1.wav;
#X msg 80 2000 tibetanBell1.wav.asd;
#X msg 80 2020 tibetanChant1.wav;
#X msg 80 2040 tibetanChant1.wav.asd;
#X msg 80 2060 tibetanChant2.wav;
#X msg 80 2080 trainStationAnnouncement_krakow.wav;
#X msg 80 2100 trainStationAnnouncement_krakow.wav.asd;
#X msg 80 2120 vertizontal_opening.wav;
#X msg 80 2140 vordhosbn_170bpm.wav;
#X msg 80 2160 vordhosbn_170bpm.wav.asd;
#X msg 80 2180 warsawStreetAnnouncement.wav;
#X msg 80 2200 warsawStreetAnnouncement.wav.asd;
#X msg 80 2220 waterphone1.wav;
#X msg 80 2240 waterphone1.wav.asd;
#X connect 1 0 0 0;
#X connect 2 0 0 0;
#X connect 3 0 0 0;
#X connect 4 0 0 0;
#X connect 5 0 0 0;
#X connect 6 0 0 0;
#X connect 7 0 0 0;
#X connect 8 0 0 0;
#X connect 9 0 0 0;
#X connect 10 0 0 0;
#X connect 11 0 0 0;
#X connect 12 0 0 0;
#X connect 13 0 0 0;
#X connect 14 0 0 0;
#X connect 15 0 0 0;
#X connect 16 0 0 0;
#X connect 17 0 0 0;
#X connect 18 0 0 0;
#X connect 19 0 0 0;
#X connect 20 0 0 0;
#X connect 21 0 0 0;
#X connect 22 0 0 0;
#X connect 23 0 0 0;
#X connect 24 0 0 0;
#X connect 25 0 0 0;
#X connect 26 0 0 0;
#X connect 27 0 0 0;
#X connect 28 0 0 0;
#X connect 29 0 0 0;
#X connect 30 0 0 0;
#X connect 31 0 0 0;
#X connect 32 0 0 0;
#X connect 33 0 0 0;
#X connect 34 0 0 0;
#X connect 35 0 0 0;
#X connect 36 0 0 0;
#X connect 37 0 0 0;
#X connect 38 0 0 0;
#X connect 39 0 0 0;
#X connect 40 0 0 0;
#X connect 41 0 0 0;
#X connect 42 0 0 0;
#X connect 43 0 0 0;
#X connect 44 0 0 0;
#X connect 45 0 0 0;
#X connect 46 0 0 0;
#X connect 47 0 0 0;
#X connect 48 0 0 0;
#X connect 49 0 0 0;
#X connect 50 0 0 0;
#X connect 51 0 0 0;
#X connect 52 0 0 0;
#X connect 53 0 0 0;
#X connect 54 0 0 0;
#X connect 55 0 0 0;
#X connect 56 0 0 0;
#X connect 57 0 0 0;
#X connect 58 0 0 0;
#X connect 59 0 0 0;
#X connect 60 0 0 0;
#X connect 61 0 0 0;
#X connect 62 0 0 0;
#X connect 63 0 0 0;
#X connect 64 0 0 0;
#X connect 65 0 0 0;
#X connect 66 0 0 0;
#X connect 67 0 0 0;
#X connect 68 0 0 0;
#X connect 69 0 0 0;
#X connect 70 0 0 0;
#X connect 71 0 0 0;
#X connect 72 0 0 0;
#X connect 73 0 0 0;
#X connect 74 0 0 0;
#X connect 75 0 0 0;
#X connect 76 0 0 0;
#X connect 77 0 0 0;
#X connect 78 0 0 0;
#X connect 79 0 0 0;
#X connect 80 0 0 0;
#X connect 81 0 0 0;
#X connect 82 0 0 0;
#X connect 83 0 0 0;
#X connect 84 0 0 0;
#X connect 85 0 0 0;
#X connect 86 0 0 0;
#X connect 87 0 0 0;
#X connect 88 0 0 0;
#X connect 89 0 0 0;
#X connect 90 0 0 0;
#X connect 91 0 0 0;
#X connect 92 0 0 0;
#X connect 93 0 0 0;
#X connect 94 0 0 0;
#X connect 95 0 0 0;
#X connect 96 0 0 0;
#X connect 97 0 0 0;
#X connect 98 0 0 0;
#X connect 99 0 0 0;
#X connect 100 0 0 0;
#X connect 101 0 0 0;
#X connect 102 0 0 0;
#X connect 103 0 0 0;
#X connect 104 0 0 0;
#X connect 105 0 0 0;
#X connect 106 0 0 0;
#X connect 107 0 0 0;
#X connect 108 0 0 0;
#X connect 109 0 0 0;
#X connect 110 0 0 0;
#X connect 111 0 0 0;
#X connect 112 0 0 0;
#X restore 120 80 pd tracklist;
#X obj 2 -30 inlet;
#X obj 98 -24 inlet;
#X obj 248 -26 inlet;
#X obj 1 231 outlet~;
#X obj 78 228 outlet~;
#X obj 179 -24 inlet;
#X msg -59 34 start;
#X obj -59 12 delay 50;
#X obj -59 -9 bng 15 250 50 0 empty empty empty 17 7 0 10 -262144 -1
-1;
#X connect 0 0 2 0;
#X connect 0 1 1 0;
#X connect 1 0 10 0;
#X connect 2 0 9 0;
#X connect 3 0 0 0;
#X connect 5 0 6 0;
#X connect 5 1 8 0;
#X connect 6 0 7 0;
#X connect 7 0 9 1;
#X connect 7 0 10 1;
#X connect 8 0 4 0;
#X connect 9 0 17 0;
#X connect 10 0 18 0;
#X connect 11 0 5 0;
#X connect 12 0 2 1;
#X connect 12 0 1 1;
#X connect 14 0 0 0;
#X connect 14 0 22 0;
#X connect 15 0 3 0;
#X connect 16 0 11 0;
#X connect 19 0 12 0;
#X connect 20 0 0 0;
#X connect 21 0 20 0;
#X connect 22 0 21 0;
#X restore 365 470 pd player;
#X obj 152 455 sel 1 2;
#X obj 35 521 line~;
#X msg 35 498 1 2000;
#X msg 83 497 0 2000;
#X obj 243 593 *~;
#X obj 272 594 *~;
#X obj 318 589 *~;
#X obj 347 590 *~;
#X obj 133 520 line~;
#X msg 133 497 0 2000;
#X msg 181 496 1 2000;
#X floatatom 155 397 5 0 0 0 - - -;
#X obj 111 133 bng 15 250 50 0 empty empty empty 17 7 0 10 -257985
-1 -1;
#X text 136 133 Click here to open a folder;
#X obj 111 155 bng 15 250 50 0 empty empty empty 17 7 0 10 -262144
-1 -1;
#X text 136 152 Click here to view tracklist;
#X connect 0 0 3 0;
#X connect 0 0 38 0;
#X connect 1 0 57 1;
#X connect 1 0 58 1;
#X connect 2 0 57 3;
#X connect 2 0 58 3;
#X connect 4 0 57 2;
#X connect 4 0 58 2;
#X connect 5 0 7 0;
#X connect 6 0 5 0;
#X connect 7 0 8 1;
#X connect 7 0 43 0;
#X connect 8 0 10 0;
#X connect 9 0 8 0;
#X connect 10 0 53 1;
#X connect 12 0 8 0;
#X connect 12 1 7 0;
#X connect 16 0 17 0;
#X connect 17 0 18 0;
#X connect 18 0 28 0;
#X connect 20 0 21 0;
#X connect 20 0 33 0;
#X connect 21 0 42 0;
#X connect 28 0 32 0;
#X connect 29 0 27 0;
#X connect 30 0 49 0;
#X connect 31 0 20 0;
#X connect 32 0 30 0;
#X connect 32 0 35 0;
#X connect 32 1 34 2;
#X connect 33 0 34 0;
#X connect 34 0 29 0;
#X connect 36 0 39 0;
#X connect 37 0 36 0;
#X connect 38 0 19 0;
#X connect 39 0 27 0;
#X connect 40 0 37 1;
#X connect 40 0 41 0;
#X connect 40 0 45 0;
#X connect 41 0 40 1;
#X connect 42 0 40 0;
#X connect 43 0 16 0;
#X connect 43 1 44 0;
#X connect 43 2 51 0;
#X connect 44 0 41 0;
#X connect 45 0 46 0;
#X connect 46 0 34 1;
#X connect 47 0 48 0;
#X connect 48 0 55 0;
#X connect 49 0 37 0;
#X connect 49 1 31 0;
#X connect 53 0 57 0;
#X connect 53 1 58 0;
#X connect 54 0 35 0;
#X connect 55 0 9 0;
#X connect 55 1 56 0;
#X connect 56 0 53 0;
#X connect 56 0 59 0;
#X connect 56 0 70 0;
#X connect 57 0 63 0;
#X connect 57 1 64 0;
#X connect 58 0 65 0;
#X connect 58 1 66 0;
#X connect 59 0 61 0;
#X connect 59 0 68 0;
#X connect 59 1 62 0;
#X connect 59 1 69 0;
#X connect 60 0 63 1;
#X connect 60 0 64 1;
#X connect 61 0 60 0;
#X connect 62 0 60 0;
#X connect 63 0 11 0;
#X connect 64 0 11 1;
#X connect 65 0 11 0;
#X connect 66 0 11 1;
#X connect 67 0 65 1;
#X connect 67 0 66 1;
#X connect 68 0 67 0;
#X connect 69 0 67 0;
#X connect 71 0 6 0;
#X connect 73 0 54 0;
#X coords 0 -1 1 1 400 150 1 100 100;
#X restore 255 -120 pd dj;
#X text 8 -69 Step 2: Choose file from track list --->;
#X text 9 -92 Step 1: Open Folder ------------------->;
