#N canvas 0 22 1280 752 10;
#X obj 75 409 osc~;
#X obj 895 319 noise~;
#X obj 895 348 *~;
#X obj 938 260 float;
#X obj 75 28 inlet;
#X obj 75 318 float;
#X obj 121 108 s 1140-click;
#X obj 965 232 r 1140-click;
#X msg 75 368 \$1 \, \$2 \$3;
#X obj 75 342 pack 0 0 0;
#X obj 938 319 vline~;
#X obj 75 388 line~;
#X obj 75 655 outlet~;
#X text 890 292 click;
#X obj 573 108 s 1140-snlvl;
#X obj 640 108 s 1140-snlen;
#X obj 75 435 *~;
#X text 162 339 tone1;
#X obj 410 410 osc~;
#X obj 410 318 float;
#X msg 410 368 \$1 \, \$2 \$3;
#X obj 410 342 pack 0 0 0;
#X obj 410 388 line~;
#X obj 410 436 *~;
#X obj 75 133 trigger b b b b;
#X obj 1072 349 noise~;
#X obj 1072 378 *~;
#X obj 1115 258 float;
#X obj 1115 349 vline~;
#X text 1067 322 snares;
#X obj 895 426 +~;
#X obj 1142 230 r 1140-snlvl;
#X obj 1211 230 r 1140-snlen;
#X obj 1115 288 pack;
#X obj 144 25 bng 15 250 50 0 empty empty empty 17 7 0 10 -262144 -1
-1;
#X obj 75 576 +~;
#X obj 478 387 vline~;
#X obj 143 387 vline~;
#X msg 1115 320 \$1 10 \, 0 \$2 10;
#X text 497 339 tone2;
#X obj 102 292 * 1.5;
#X obj 437 292 * 1.5;
#X obj 102 259 r 1140-pitch;
#X obj 437 217 r 1140-pitch;
#X obj 292 108 s 1140-pitch;
#X obj 371 108 s 1140-pitchslide;
#X obj 189 108 s 1140-pitchlength;
#X obj 185 258 r 1140-pitchlength;
#X obj 573 293 r 1140-pitchlength;
#X obj 75 50 route bang click pitchlength pitch pitchslide snlvl snlen
;
#X obj 508 216 r 1140-pitchslide;
#X obj 438 261 expr $f1 * pow(2 \, $f2);
#X obj 508 236 trigger b f;
#X obj 819 41 loadbang;
#X obj 770 106 s 1140-click;
#X obj 1120 106 s 1140-snlvl;
#X obj 1187 106 s 1140-snlen;
#X obj 941 106 s 1140-pitch;
#X obj 1020 106 s 1140-pitchslide;
#X obj 838 106 s 1140-pitchlength;
#X msg 938 290 \$1 2 \, 0 5 2;
#X obj 75 598 *~ 1.5;
#X obj 75 620 tanh~;
#X obj 75 539 *~ 0.3;
#X obj 1072 400 lop~ 700;
#X msg 771 75 0.2;
#X msg 1198 76 300;
#X obj 895 371 lop~ 1000;
#X obj 75 473 *~;
#X msg 143 367 1 1 \, 0 \$3 10;
#X msg 478 367 1 1 \, 0 \$3 10;
#X obj 140 292 * 0.7;
#X obj 475 292 * 0.7;
#X obj 153 500 *~;
#X obj 208 499 *~;
#X msg 837 75 100;
#X msg 940 77 125;
#X msg 1019 76 0.1;
#X msg 1119 77 0.05;
#X connect 0 0 16 0;
#X connect 1 0 2 0;
#X connect 2 0 67 0;
#X connect 3 0 60 0;
#X connect 4 0 49 0;
#X connect 5 0 9 0;
#X connect 7 0 3 1;
#X connect 8 0 11 0;
#X connect 9 0 8 0;
#X connect 9 0 69 0;
#X connect 10 0 2 1;
#X connect 11 0 0 0;
#X connect 16 0 68 0;
#X connect 16 0 73 1;
#X connect 18 0 23 0;
#X connect 19 0 21 0;
#X connect 20 0 22 0;
#X connect 21 0 20 0;
#X connect 21 0 70 0;
#X connect 22 0 18 0;
#X connect 23 0 68 1;
#X connect 23 0 74 1;
#X connect 24 0 5 0;
#X connect 24 1 19 0;
#X connect 24 2 3 0;
#X connect 24 3 27 0;
#X connect 25 0 26 0;
#X connect 26 0 64 0;
#X connect 27 0 33 0;
#X connect 28 0 26 1;
#X connect 30 0 35 1;
#X connect 31 0 27 1;
#X connect 32 0 33 1;
#X connect 33 0 38 0;
#X connect 34 0 49 0;
#X connect 35 0 61 0;
#X connect 36 0 23 1;
#X connect 37 0 16 1;
#X connect 38 0 28 0;
#X connect 40 0 5 1;
#X connect 41 0 19 1;
#X connect 42 0 40 0;
#X connect 42 0 71 0;
#X connect 43 0 51 0;
#X connect 47 0 9 2;
#X connect 48 0 21 2;
#X connect 49 0 24 0;
#X connect 49 1 6 0;
#X connect 49 2 46 0;
#X connect 49 3 44 0;
#X connect 49 4 45 0;
#X connect 49 5 14 0;
#X connect 49 6 15 0;
#X connect 50 0 52 0;
#X connect 51 0 41 0;
#X connect 51 0 72 0;
#X connect 52 0 51 0;
#X connect 52 1 51 1;
#X connect 53 0 65 0;
#X connect 53 0 75 0;
#X connect 53 0 77 0;
#X connect 53 0 78 0;
#X connect 53 0 66 0;
#X connect 53 0 76 0;
#X connect 60 0 10 0;
#X connect 61 0 62 0;
#X connect 62 0 12 0;
#X connect 63 0 35 0;
#X connect 64 0 30 1;
#X connect 65 0 54 0;
#X connect 66 0 56 0;
#X connect 67 0 30 0;
#X connect 68 0 63 0;
#X connect 68 0 73 0;
#X connect 68 0 74 0;
#X connect 69 0 37 0;
#X connect 70 0 36 0;
#X connect 71 0 9 1;
#X connect 72 0 21 1;
#X connect 73 0 63 0;
#X connect 74 0 63 0;
#X connect 75 0 59 0;
#X connect 76 0 57 0;
#X connect 77 0 58 0;
#X connect 78 0 55 0;
