#N canvas 0 22 1280 752 10;
#X obj 75 409 osc~;
#X obj 895 319 noise~;
#X obj 895 348 *~;
#X obj 938 260 float;
#X obj 75 473 +~;
#X obj 75 28 inlet;
#X obj 75 318 float;
#X obj 121 108 s #0-click;
#X obj 965 232 r #0-click;
#X msg 75 368 \$1 \, \$2 \$3;
#X obj 75 342 pack 0 0 0;
#X obj 938 319 vline~;
#X obj 75 388 line~;
#X obj 75 549 outlet~;
#X text 890 292 click;
#X obj 189 108 s #0-tone1length;
#X obj 376 108 s #0-tone2length;
#X obj 292 108 s #0-pitch1;
#X obj 480 108 s #0-pitch2;
#X obj 573 108 s #0-snlvl;
#X obj 640 108 s #0-snlen;
#X obj 75 50 route bang click tone1length pitch1 tone2length pitch2
snlvl snlen;
#X obj 102 259 r #0-pitch1;
#X obj 185 258 r #0-tone1length;
#X obj 75 435 *~;
#X text 162 339 tone1;
#X obj 410 433 osc~;
#X obj 410 318 float;
#X msg 410 368 \$1 \, \$2 \$3;
#X obj 410 342 pack 0 0 0;
#X obj 410 388 line~;
#X obj 410 459 *~;
#X obj 75 133 trigger b b b b;
#X obj 1072 349 noise~;
#X obj 1072 378 *~;
#X obj 1115 258 float;
#X obj 1115 349 vline~;
#X text 1067 322 snares;
#X obj 983 399 +~;
#X obj 1142 230 r #0-snlvl;
#X obj 1211 230 r #0-snlen;
#X obj 1115 288 pack;
#X floatatom 510 31 5 0 0 0 - - -;
#X floatatom 553 32 5 0 0 0 - - -;
#X floatatom 597 32 5 0 0 0 - - -;
#X floatatom 638 34 5 0 0 0 - - -;
#X floatatom 679 33 5 0 0 0 - - -;
#X floatatom 716 34 5 0 0 0 - - -;
#X floatatom 465 28 5 0 0 0 - - -;
#X obj 144 25 bng 15 250 50 0 empty empty empty 17 7 0 10 -262144 -1
-1;
#X obj 144 557 dac~;
#X obj 75 514 +~;
#X obj 478 387 vline~;
#X obj 143 387 vline~;
#X msg 143 367 1 10 \, 0 \$3 10;
#X msg 478 367 1 10 \, 0 \$3 10;
#X msg 1115 320 \$1 10 \, 0 \$2 10;
#X msg 938 290 \$1 2 \, 0 10 2;
#X obj 437 259 r #0-pitch2;
#X obj 520 258 r #0-tone2length;
#X text 497 339 tone2;
#X obj 102 292 * 1.5;
#X obj 140 292 * 0.5;
#X obj 437 292 * 1.5;
#X obj 475 292 * 0.5;
#X connect 0 0 24 0;
#X connect 1 0 2 0;
#X connect 2 0 38 0;
#X connect 3 0 57 0;
#X connect 4 0 51 0;
#X connect 5 0 21 0;
#X connect 6 0 10 0;
#X connect 8 0 3 1;
#X connect 9 0 12 0;
#X connect 10 0 9 0;
#X connect 10 0 54 0;
#X connect 11 0 2 1;
#X connect 12 0 0 0;
#X connect 21 0 32 0;
#X connect 21 1 7 0;
#X connect 21 2 15 0;
#X connect 21 3 17 0;
#X connect 21 4 16 0;
#X connect 21 5 18 0;
#X connect 21 6 19 0;
#X connect 21 7 20 0;
#X connect 22 0 61 0;
#X connect 22 0 62 0;
#X connect 23 0 10 2;
#X connect 24 0 4 0;
#X connect 26 0 31 0;
#X connect 27 0 29 0;
#X connect 28 0 30 0;
#X connect 29 0 28 0;
#X connect 29 0 55 0;
#X connect 30 0 26 0;
#X connect 31 0 4 1;
#X connect 32 0 6 0;
#X connect 32 1 27 0;
#X connect 32 2 3 0;
#X connect 32 3 35 0;
#X connect 33 0 34 0;
#X connect 34 0 38 1;
#X connect 35 0 41 0;
#X connect 36 0 34 1;
#X connect 38 0 51 1;
#X connect 39 0 35 1;
#X connect 40 0 41 1;
#X connect 41 0 56 0;
#X connect 42 0 15 0;
#X connect 43 0 17 0;
#X connect 44 0 16 0;
#X connect 45 0 18 0;
#X connect 46 0 19 0;
#X connect 47 0 20 0;
#X connect 48 0 7 0;
#X connect 49 0 21 0;
#X connect 51 0 13 0;
#X connect 51 0 50 0;
#X connect 51 0 50 1;
#X connect 52 0 31 1;
#X connect 53 0 24 1;
#X connect 54 0 53 0;
#X connect 55 0 52 0;
#X connect 56 0 36 0;
#X connect 57 0 11 0;
#X connect 58 0 63 0;
#X connect 58 0 64 0;
#X connect 59 0 29 2;
#X connect 61 0 6 1;
#X connect 62 0 10 1;
#X connect 63 0 27 1;
#X connect 64 0 29 1;
