#N canvas 0 22 714 661 10;
#X obj 206 29 tgl 15 0 empty empty empty 17 7 0 10 -262144 -1 -1 0
1;
#X obj 206 49 metro 100;
#X obj 206 95 counter;
#X obj 260 124 t b f;
#X obj 209 205 pack;
#X msg 263 78 15;
#X obj 393 206 dynamicPatcher 16 8;
#X obj 159 210 t f f;
#X obj 325 464 noteout;
#X obj 51 372 + 1;
#X obj 47 475 sel 1;
#X obj 109 473 sel 1;
#X obj 47 565 dac~;
#X obj 108 566 dac~;
#X obj 395 186 hradio 15 1 0 16 empty empty empty 0 -8 0 10 -33289
-258113 -1 2;
#X floatatom 71 271 5 0 0 0 - - -;
#X msg 207 243 fetch \$2 \$1;
#X obj 240 470 sel 1;
#X obj 239 563 dac~;
#X obj 402 475 sel 1;
#X obj 401 568 dac~;
#X obj 47 436 gate 4;
#X obj 134 157 uzi_sjf 4;
#X obj 113 502 sn2_sjf;
#X obj 47 504 bd_sjf;
#N canvas 0 22 1280 752 hh 0;
#X obj 215 244 noise~;
#X obj 215 273 *~;
#X obj 258 244 vline~;
#X text 210 217 click;
#X obj 392 303 *~;
#X obj 435 274 vline~;
#X text 387 247 snares;
#X obj 303 324 +~;
#X msg 435 245 \$1 10 \, 0 \$2 10;
#X msg 258 215 \$1 2 \, 0 5 2;
#X obj 303 428 outlet~;
#X obj 221 78 inlet;
#X floatatom 184 185 5 0 0 0 - - -;
#X obj 435 183 float 0.1;
#X obj 258 185 float 0.3;
#X obj 435 213 pack 0 50;
#X obj 303 346 bp~ 10000 10;
#X connect 0 0 1 0;
#X connect 0 0 4 0;
#X connect 1 0 7 0;
#X connect 2 0 1 1;
#X connect 4 0 7 1;
#X connect 5 0 4 1;
#X connect 7 0 16 0;
#X connect 8 0 5 0;
#X connect 9 0 2 0;
#X connect 11 0 13 0;
#X connect 11 0 14 0;
#X connect 13 0 15 0;
#X connect 14 0 9 0;
#X connect 14 0 12 0;
#X connect 15 0 8 0;
#X connect 16 0 10 0;
#X restore 243 524 pd hh;
#N canvas 0 22 1280 752 oh 0;
#X obj 303 269 vline~;
#X text 255 242 snares;
#X msg 303 240 \$1 10 \, 0 \$2 10;
#X obj 303 428 outlet~;
#X obj 301 94 inlet;
#X obj 237 277 noise~;
#X obj 287 312 *~;
#X obj 303 208 pack 0 500;
#X obj 297 370 bp~ 10000 10;
#X obj 303 178 float 0.3;
#X connect 0 0 6 1;
#X connect 2 0 0 0;
#X connect 4 0 9 0;
#X connect 5 0 6 0;
#X connect 6 0 8 0;
#X connect 7 0 2 0;
#X connect 8 0 3 0;
#X connect 9 0 7 0;
#X restore 405 529 pd oh;
#X obj 445 52 complex-mod~;
#X obj 447 86 hilbert~;
#X connect 0 0 1 0;
#X connect 1 0 2 0;
#X connect 1 0 5 0;
#X connect 2 0 3 0;
#X connect 3 0 22 0;
#X connect 3 1 4 1;
#X connect 3 1 14 0;
#X connect 4 0 16 0;
#X connect 5 0 2 4;
#X connect 6 0 21 1;
#X connect 7 0 4 0;
#X connect 7 1 9 0;
#X connect 9 0 21 0;
#X connect 10 0 24 0;
#X connect 11 0 23 0;
#X connect 15 0 9 0;
#X connect 16 0 6 0;
#X connect 21 0 10 0;
#X connect 21 1 11 0;
#X connect 21 2 17 0;
#X connect 21 3 19 0;
#X connect 22 1 7 0;
#X connect 23 0 13 0;
#X connect 23 0 13 1;
#X connect 24 0 12 0;
#X connect 24 0 12 1;
#X connect 25 0 18 0;
#X connect 25 0 18 1;
#X connect 26 0 20 0;
#X connect 26 0 20 1;
