#N canvas 0 22 456 385 10;
#X obj 107 8 inlet;
#X obj 107 52 t b b f;
#X obj 189 128 <;
#X msg 109 104 1;
#X obj 109 126 +;
#X obj 109 148 int;
#X obj 109 172 t f f f;
#X obj 107 30 int \$1;
#X obj 100 297 outlet;
#X obj 145 297 outlet;
#X obj 190 299 outlet;
#X obj 189 150 sel 1 0;
#X obj 132 206 - 1;
#X obj 131 228 + \$2;
#X msg 140 103 0;
#X obj 131 250 t b f;
#X floatatom 210 39 5 0 0 0 - - -;
#X obj 189 172 delay 1;
#X obj 297 41 inlet;
#X connect 0 0 7 0;
#X connect 1 0 3 0;
#X connect 1 1 14 0;
#X connect 1 2 2 1;
#X connect 2 0 11 0;
#X connect 3 0 4 0;
#X connect 4 0 5 0;
#X connect 5 0 6 0;
#X connect 6 0 2 0;
#X connect 6 1 12 0;
#X connect 6 2 4 1;
#X connect 7 0 1 0;
#X connect 7 0 16 0;
#X connect 11 0 17 0;
#X connect 11 1 10 0;
#X connect 12 0 13 0;
#X connect 13 0 15 0;
#X connect 14 0 4 1;
#X connect 15 0 8 0;
#X connect 15 1 9 0;
#X connect 17 0 3 0;
#X connect 18 0 7 1;
