#N canvas 257 304 450 300 12;
#N canvas 0 23 450 300 sampPlayer_Modulator 0;
#X obj 29 62 phasor~;
#X obj 29 86 *~, f 12;
#X obj 29 110 +~ 1;
#X obj 29 158 outlet~;
#N canvas 655 118 785 581 sampLoad 0;
#X obj 305 147 openpanel;
#X obj 305 126 bng 15 250 50 0 empty empty empty 17 7 0 10 #fcfcfc
#000000 #000000;
#X obj 305 169 pack s \$0;
#X obj 305 217 soundfiler;
#X obj 465 49 loadbang;
#X obj 536 48 r reset;
#X obj 489 87 bng 15 250 50 0 empty empty empty 17 7 0 10 #fcfcfc #000000
#000000;
#X floatatom 305 241 10 0 0 0 - - - 0;
#X obj 305 264 / 44100;
#X obj 305 288 t b f;
#X msg 305 312 1;
#X obj 305 336 /;
#X floatatom 305 360 5 0 0 0 - - - 0;
#X obj 156 266 - 2;
#X msg 305 193 read -resize \$1 \$2-sampleM;
#X obj 305 383 s \$0-pbRateM;
#X obj 301 483 array define \$0-sampleM;
#X obj 156 290 s \$0-sampSizeM;
#X msg 424 132 audio_edit.aif;
#X obj 306 87 inlet;
#X connect 0 0 2 0;
#X connect 1 0 0 0;
#X connect 2 0 14 0;
#X connect 3 0 7 0;
#X connect 4 0 6 0;
#X connect 5 0 6 0;
#X connect 6 0 18 0;
#X connect 7 0 8 0;
#X connect 7 0 13 0;
#X connect 8 0 9 0;
#X connect 9 0 10 0;
#X connect 9 1 11 1;
#X connect 10 0 11 0;
#X connect 11 0 12 0;
#X connect 12 0 15 0;
#X connect 13 0 17 0;
#X connect 14 0 3 0;
#X connect 18 0 2 0;
#X connect 19 0 1 0;
#X restore 276 35 pd sampLoad;
#X obj 29 38 r \$0-pbRateM;
#X obj 124 54 r \$0-sampSizeM;
#X obj 29 134 tabread4~ \$0-sampleM;
#X obj 273 9 inlet;
#X connect 0 0 1 0;
#X connect 1 0 2 0;
#X connect 2 0 7 0;
#X connect 5 0 0 0;
#X connect 6 0 1 1;
#X connect 7 0 3 0;
#X connect 8 0 4 0;
#X restore 145 117 pd sampPlayer_Modulator;
#X obj 145 141 outlet~;
#X obj 146 61 bng 15 250 50 0 empty empty empty 17 7 0 10 #fcfcfc #000000
#000000;
#X connect 0 0 1 0;
#X connect 2 0 0 0;
