#N canvas 486 195 450 300 12;
#X obj 130 24 inlet;
#X obj 202 123 list length;
#X obj 202 147 sel 0;
#X msg 128 187 1;
#X obj 109 126 loadbang;
#X obj 232 199 list;
#X obj 202 94 t l l, f 14;
#X listbox 232 223 20 0 0 0 - - - 0;
#X obj 232 171 t b f;
#X obj 274 199 array size \$1;
#X obj 188 251 array set \$1;
#X obj 130 48 t b l;
#X obj 130 72 outlet;
#X connect 0 0 11 0;
#X connect 1 0 2 0;
#X connect 2 0 3 0;
#X connect 2 1 8 0;
#X connect 3 0 6 0;
#X connect 4 0 3 0;
#X connect 5 0 7 0;
#X connect 5 0 10 0;
#X connect 6 0 1 0;
#X connect 6 1 5 1;
#X connect 8 0 5 0;
#X connect 8 1 9 0;
#X connect 11 0 12 0;
#X connect 11 1 6 0;
