#N canvas 63 88 646 428 12;
#X obj 89 6 inlet;
#X msg 89 30 22050;
#X obj 89 54 t f b, f 12;
#X obj 89 78 until;
#X obj 89 112 +;
#X obj 125 115 + 1;
#X msg 169 79 0;
#X obj 89 175 / 44100;
#X obj 90 143 t f f, f 46;
#X obj 396 240 f;
#X obj 78 212 filterResponseCalculations \$1 \$2;
#X obj 57 294 tabwrite \$3;
#X obj 197 294 tabwrite \$4;
#X obj 334 294 tabwrite \$5;
#X connect 0 0 1 0;
#X connect 1 0 2 0;
#X connect 2 0 3 0;
#X connect 2 1 6 0;
#X connect 3 0 4 0;
#X connect 4 0 5 0;
#X connect 4 0 8 0;
#X connect 5 0 4 1;
#X connect 6 0 4 1;
#X connect 7 0 10 0;
#X connect 8 0 7 0;
#X connect 8 1 9 0;
#X connect 9 0 11 1;
#X connect 9 0 12 1;
#X connect 9 0 13 1;
#X connect 10 0 11 0;
#X connect 10 1 12 0;
#X connect 10 2 13 0;
