#N canvas 326 152 864 654 12;
#X obj 109 30 inlet;
#X obj 85 352 bng 19 250 50 0 empty empty empty 0 -10 0 12 #fcfcfc #000000 #000000;
#X obj 318 358 bng 19 250 50 0 empty empty empty 0 -10 0 12 #fcfcfc #000000 #000000;
#X floatatom 37 320 11 0 0 0 - - - 0;
#X obj 39 258 expr sqrt(pow($f1 \, 2) + pow($f2 \, 2)) \; atan2($f2 \, $f1), f 21;
#X floatatom 166 318 13 0 0 0 - - - 0;
#X obj 319 290 expr sqrt(pow($f1 \, 2) + pow($f2 \, 2)) \; atan2($f2 \, $f1);
#X floatatom 319 328 5 0 0 0 - - - 0;
#X floatatom 519 333 5 0 0 0 - - - 0;
#X floatatom 335 242 5 0 0 0 - - - 0;
#X floatatom 557 246 5 0 0 0 - - - 0;
#X obj 78 434 /;
#X obj 225 438 -;
#X obj 100 84 t f f, f 73;
#X obj 99 163 t f f, f 32;
#X obj 428 438 expr ($f1 / $f2) / (2*3.14157);
#X obj 78 458 outlet;
#X obj 225 462 outlet;
#X obj 428 462 outlet;
#X obj 93 216 real+imag \$1;
#X obj 319 217 real+imag \$2, f 37;
#X obj 99 139 expr $f1*2*3.14159265359;
#X connect 0 0 13 0;
#X connect 3 0 11 0;
#X connect 4 0 3 0;
#X connect 4 1 5 0;
#X connect 5 0 12 0;
#X connect 6 0 7 0;
#X connect 6 1 8 0;
#X connect 7 0 11 1;
#X connect 8 0 12 1;
#X connect 11 0 16 0;
#X connect 12 0 15 0;
#X connect 12 0 17 0;
#X connect 13 0 21 0;
#X connect 13 1 15 1;
#X connect 14 0 19 0;
#X connect 14 1 20 0;
#X connect 15 0 18 0;
#X connect 19 0 4 0;
#X connect 19 1 4 1;
#X connect 20 0 6 0;
#X connect 20 0 9 0;
#X connect 20 1 6 1;
#X connect 20 1 10 0;
#X connect 21 0 14 0;
