#N canvas 240 115 1440 847 12;
#X obj 327 -36 inlet;
#X text 313 -78 Y Coefficients;
#X obj 327 -12 t l l;
#X obj 220 -5 list length;
#X obj 220 29 - 1;
#X obj 268 88 until;
#X obj 220 53 t b f;
#X msg 430 -33 4 3 2 1 1;
#X obj 707 -52 array define \$0-rows;
#X floatatom 757 441 5 0 0 0 - - - 0;
#X text 798 443 Mult;
#X obj 138 556 array define \$0-row;
#X obj 207 632 tabread \$0-row;
#X obj 207 656 print;
#X msg 132 454 4 3 2 1 1;
#X obj 132 478 t l l, f 36;
#X obj 374 523 list length;
#X obj 337 553 array size \$0-row;
#X floatatom 212 600 5 0 0 0 - - - 0;
#X obj 129 515 array set \$0-row;
#X obj 1124 247 list length;
#X obj 1205 310 array size \$0-row;
#X obj 892 320 array set \$0-row;
#X obj 599 186 t l l, f 62;
#X msg 1028 245 \$1;
#X obj 1077 372 print;
#X obj 1028 269 > 0;
#X obj 1028 293 sel 0;
#X obj 599 210 spigot;
#X obj 1115 284 == 1;
#X obj 1115 308 sel 1;
#X msg 1115 332 Stable;
#X msg 1027 320 Unstable;
#X obj 751 315 t b b;
#X msg 793 349 0;
#X obj 747 349 int;
#X obj 807 322 - 1;
#X obj 744 383 tabread \$0-row;
#X obj 855 383 tabread \$0-row;
#X obj 757 417 /;
#X obj 623 321 t b b;
#X obj 623 345 int;
#X obj 623 369 until;
#X obj 623 393 +;
#X obj 662 395 + 1;
#X msg 665 345 0;
#X obj 583 443 t f f, f 11;
#X obj 626 477 expr $f2-$f1;
#X obj 628 503 tabread \$0-row;
#X obj 628 527 *, f 16;
#X obj 522 502 tabread \$0-row;
#X obj 551 578 -;
#X obj 551 602 list append;
#X obj 669 603 t l;
#X obj 510 172 list;
#X obj 548 268 t b b b l, f 36;
#X obj 510 196 print row;
#X connect 0 0 2 0;
#X connect 2 0 3 0;
#X connect 2 1 54 1;
#X connect 3 0 4 0;
#X connect 4 0 6 0;
#X connect 5 0 54 0;
#X connect 6 1 5 0;
#X connect 7 0 2 0;
#X connect 9 0 49 1;
#X connect 12 0 13 0;
#X connect 14 0 15 0;
#X connect 15 0 19 0;
#X connect 15 1 16 0;
#X connect 16 0 17 0;
#X connect 18 0 12 0;
#X connect 20 0 21 0;
#X connect 20 0 29 0;
#X connect 20 0 36 0;
#X connect 23 0 28 0;
#X connect 23 1 20 0;
#X connect 23 1 24 0;
#X connect 24 0 26 0;
#X connect 26 0 27 0;
#X connect 26 0 28 1;
#X connect 27 0 32 0;
#X connect 28 0 55 0;
#X connect 29 0 30 0;
#X connect 30 0 31 0;
#X connect 31 0 25 0;
#X connect 32 0 25 0;
#X connect 33 0 35 0;
#X connect 33 1 34 0;
#X connect 34 0 38 0;
#X connect 35 0 37 0;
#X connect 36 0 35 1;
#X connect 36 0 47 1;
#X connect 36 0 41 1;
#X connect 37 0 39 0;
#X connect 38 0 39 1;
#X connect 39 0 9 0;
#X connect 40 0 41 0;
#X connect 40 1 45 0;
#X connect 41 0 42 0;
#X connect 42 0 43 0;
#X connect 43 0 44 0;
#X connect 43 0 46 0;
#X connect 44 0 43 1;
#X connect 45 0 43 1;
#X connect 46 0 50 0;
#X connect 46 1 47 0;
#X connect 47 0 48 0;
#X connect 48 0 49 0;
#X connect 49 0 51 1;
#X connect 50 0 51 0;
#X connect 51 0 52 0;
#X connect 52 0 53 0;
#X connect 52 0 54 1;
#X connect 53 0 52 1;
#X connect 54 0 23 0;
#X connect 54 0 56 0;
#X connect 55 1 40 0;
#X connect 55 2 33 0;
#X connect 55 2 52 1;
#X connect 55 3 22 0;
