#N canvas 0 25 886 657 12;
#X obj 37 37 inlet;
#X obj 33 164 int;
#X obj 60 232 until;
#X obj 60 266 +;
#X obj 96 268 + 1;
#X msg 128 240 0;
#X obj 33 95 t b f, f 27;
#X obj 60 310 t f f, f 18;
#X obj 60 407 +;
#X obj 98 401 f;
#X obj 33 188 t b f b, f 11;
#X obj 40 437 f;
#X obj 60 365 expr $f1*cos(-1*$f2*$f3), f 36;
#X obj 467 171 int;
#X obj 494 239 until;
#X obj 494 273 +;
#X obj 530 275 + 1;
#X msg 562 247 0;
#X obj 467 95 t b f, f 27;
#X obj 494 317 t f f, f 18;
#X obj 494 414 +;
#X obj 532 408 f;
#X obj 467 195 t b f b, f 11;
#X obj 474 444 f;
#X obj 40 564 outlet;
#X obj 474 570 outlet;
#X obj 494 372 expr $f1*sin(-1*$f2*$f3), f 36;
#X text 59 517 real;
#X text 499 519 imag;
#X obj 60 341 tabread \$1;
#X obj 494 348 tabread \$1;
#X obj 740 104 array size \$1;
#X obj 37 61 t f f b, f 91;
#X connect 0 0 32 0;
#X connect 1 0 10 0;
#X connect 2 0 3 0;
#X connect 3 0 4 0;
#X connect 3 0 7 0;
#X connect 4 0 3 1;
#X connect 5 0 3 1;
#X connect 5 0 9 0;
#X connect 6 0 1 0;
#X connect 6 1 12 2;
#X connect 7 0 29 0;
#X connect 7 1 12 1;
#X connect 8 0 9 0;
#X connect 8 0 11 1;
#X connect 9 0 8 1;
#X connect 10 0 11 0;
#X connect 10 1 2 0;
#X connect 10 2 5 0;
#X connect 11 0 24 0;
#X connect 12 0 8 0;
#X connect 13 0 22 0;
#X connect 14 0 15 0;
#X connect 15 0 16 0;
#X connect 15 0 19 0;
#X connect 16 0 15 1;
#X connect 17 0 15 1;
#X connect 17 0 21 0;
#X connect 18 0 13 0;
#X connect 18 1 26 2;
#X connect 19 0 30 0;
#X connect 19 1 26 1;
#X connect 20 0 21 0;
#X connect 20 0 23 1;
#X connect 21 0 20 1;
#X connect 22 0 23 0;
#X connect 22 1 14 0;
#X connect 22 2 17 0;
#X connect 23 0 25 0;
#X connect 26 0 20 0;
#X connect 29 0 12 0;
#X connect 30 0 26 0;
#X connect 31 0 13 1;
#X connect 31 0 1 1;
#X connect 32 0 6 0;
#X connect 32 1 18 0;
#X connect 32 2 31 0;
