#N canvas 0 23 1280 755 12;
#X obj 387 32 tgl 15 0 empty empty empty 17 7 0 10 -262144 -1 -1 1
1;
#X obj 387 146 bng 15 250 50 0 empty empty empty 17 7 0 10 -262144
-1 -1;
#X floatatom 419 94 5 0 0 0 - - -;
#X obj 903 49 bng 15 250 50 0 empty empty empty 17 7 0 10 -262144 -1
-1;
#X obj 6 52 hsl 128 15 0 1 0 0 \$0-grainPos_snd \$0-grainPos_rec GRAINPOS
-2 8 0 10 -262144 -1 -1 5250 1;
#X obj 6 77 hsl 128 15 0 1 0 0 \$0-grainLen_snd \$0-grainLen_rec GRAINLEN
-2 8 0 10 -262144 -1 -1 6350 1;
#X obj 406 566 *~, f 4;
#X obj 899 312 vsl 15 128 0 1 0 0 empty empty vol 0 -9 0 10 -262144
-1 -1 12200 1;
#X msg 899 448 \$1 5;
#X obj 406 590 dac~, f 26;
#X obj 899 472 line~;
#X obj 6 102 hsl 128 15 0 1 0 1 \$0-grainPitch_snd \$0-grainPitch_rec
GRAINPITCH -2 8 0 10 -262144 -1 -1 6350 1;
#X obj 406 335 f;
#X obj 406 359 + 1;
#X obj 406 383 mod 16;
#X obj 733 246 symbol \$0-sample, f 9;
#N canvas 447 37 450 300 pitch 0;
#X obj 106 74 expr ($f1*2)-1;
#X obj 106 98 expr pow(2 \, $f1);
#X floatatom 106 122 5 0 0 0 - - -;
#X obj 106 145 outlet;
#X obj 106 22 inlet, f 7;
#X connect 0 0 1 0;
#X connect 1 0 2 0;
#X connect 2 0 3 0;
#X connect 4 0 0 0;
#X restore 550 378 pd pitch;
#X obj 387 118 metro;
#X obj 387 166 t b b;
#X obj 3 12 bng 15 250 50 0 \$0-resetAll_snd \$0-resetAll_rec RESET
17 7 0 10 -262144 -1 -1;
#N canvas 0 23 450 300 LoadSample 0;
#X obj 262 44 inlet;
#X obj 262 192 soundfiler;
#X obj 262 70 f \$0;
#X obj 262 118 openpanel;
#X msg 262 168 read -resize \$1 \$2-sample;
#X obj 262 94 t b f, f 14;
#X obj 262 142 pack s 0, f 14;
#X obj 262 226 s \$0-nsamples;
#X floatatom 364 249 5 0 0 0 - - -;
#X obj 364 225 / 44.1;
#X msg 45 210 \; \$1-sample normalize 0.99;
#X obj 45 167 bng 15 250 50 0 empty empty empty 17 7 0 10 -262144 -1
-1;
#X obj 45 187 f \$0;
#X connect 0 0 2 0;
#X connect 1 0 7 0;
#X connect 1 0 9 0;
#X connect 1 0 11 0;
#X connect 2 0 5 0;
#X connect 3 0 6 0;
#X connect 4 0 1 0;
#X connect 5 0 3 0;
#X connect 5 1 6 1;
#X connect 6 0 4 0;
#X connect 9 0 8 0;
#X connect 11 0 12 0;
#X connect 12 0 10 0;
#X restore 903 69 pd LoadSample;
#X obj 136 102 bng 8 250 50 0 \$0-grainPitch_reset_snd \$0-grainPitch_reset_rec
reset 0 12 0 10 -262144 -1 -1;
#N canvas 88 252 956 473 resetLogic 1;
#X obj 150 209 s \$0-grainLen_rec;
#X obj 397 153 s \$0-grainPos_rec;
#X msg 396 125 0.5;
#X obj 49 19 loadbang;
#X msg 564 134 0.5;
#X obj 49 57 s \$0-resetAll_snd;
#X obj 545 81 r \$0-resetAll_snd;
#X obj 310 57 r \$0-resetAll_snd;
#X obj 366 84 r \$0-grainPos_reset_snd;
#X msg 150 185 0.5;
#X obj 103 124 r \$0-resetAll_snd;
#X obj 159 151 r \$0-grainLen_reset_snd;
#X msg 566 308 0.5;
#X obj 547 255 r \$0-resetAll_snd;
#X obj 567 334 s \$0-grainPan_rec;
#X obj 565 160 s \$0-grainPitch_rec;
#X msg 112 335 0.5;
#X obj 93 282 r \$0-resetAll_snd;
#X obj 113 311 r \$0-triggerTime_reset_snd;
#X obj 113 361 s \$0-triggerTime_rec;
#X obj 106 237 s \$0-grainLen_var_rec;
#X msg 76 188 0;
#X msg 57 342 0;
#X obj 87 391 s \$0-triggerTime_var_rec;
#X msg 349 134 0;
#X obj 379 183 s \$0-grainPos_var_rec;
#X msg 523 139 0;
#X obj 565 110 r \$0-grainPitch_reset_snd;
#X obj 553 188 s \$0-grainPitch_var_rec;
#X msg 523 311 0;
#X obj 553 360 s \$0-grainPan_var_rec;
#X obj 567 284 r \$0-grainPan_reset_snd;
#X msg 774 313 0.5;
#X obj 755 260 r \$0-resetAll_snd;
#X msg 731 316 0;
#X obj 775 289 r \$0-grainRev_reset_snd;
#X obj 775 339 s \$0-grainRev_rec;
#X obj 761 365 s \$0-grainRev_var_rec;
#X connect 2 0 1 0;
#X connect 3 0 5 0;
#X connect 4 0 15 0;
#X connect 6 0 4 0;
#X connect 6 0 26 0;
#X connect 7 0 2 0;
#X connect 7 0 24 0;
#X connect 8 0 2 0;
#X connect 8 0 24 0;
#X connect 9 0 0 0;
#X connect 10 0 9 0;
#X connect 10 0 21 0;
#X connect 11 0 9 0;
#X connect 11 0 21 0;
#X connect 12 0 14 0;
#X connect 13 0 12 0;
#X connect 13 0 29 0;
#X connect 16 0 19 0;
#X connect 17 0 16 0;
#X connect 17 0 22 0;
#X connect 18 0 16 0;
#X connect 18 0 22 0;
#X connect 21 0 20 0;
#X connect 22 0 23 0;
#X connect 24 0 25 0;
#X connect 26 0 28 0;
#X connect 27 0 4 0;
#X connect 27 0 26 0;
#X connect 29 0 30 0;
#X connect 31 0 12 0;
#X connect 31 0 29 0;
#X connect 32 0 36 0;
#X connect 33 0 32 0;
#X connect 33 0 34 0;
#X connect 34 0 37 0;
#X connect 35 0 32 0;
#X connect 35 0 34 0;
#X restore 1048 62 pd resetLogic;
#X obj 136 77 bng 8 250 50 0 \$0-grainLen_reset_snd \$0-grainLen_reset_rec
reset 0 12 0 10 -262144 -1 -1;
#X obj 136 52 bng 8 250 50 0 \$0-grainPos_reset_snd \$0-grainPos_reset_rec
reset 0 12 0 10 -262144 -1 -1;
#N canvas 0 22 450 278 (subpatch) 0;
#X array \$0-sample 3.456e+06 float 2;
#X coords 0 1 3.456e+06 -1 200 140 1;
#X restore 902 114 graph;
#N canvas 0 23 1280 755 test 0;
#X obj 388 239 sig~;
#X obj 388 201 * 0.5;
#X obj 388 268 cos~;
#X obj 388 292 +~ 1;
#X obj 388 316 *~ 0.5;
#X obj 474 240 sig~;
#X obj 474 264 cos~;
#X obj 474 288 +~ 1;
#X obj 474 312 *~ 0.5;
#X obj 422 103 hsl 128 15 0 1 0 0 empty empty empty -2 -8 0 10 -262144
-1 -1 0 1;
#X obj 260 339 tgl 15 0 empty empty empty 17 7 0 10 -262144 -1 -1 0
1;
#X obj 260 359 metro 50;
#X obj 258 389 snapshot~;
#X floatatom 258 413 5 0 0 0 - - -;
#X obj 407 399 snapshot~;
#X floatatom 407 423 5 0 0 0 - - -;
#X obj 474 194 - 0.5;
#X connect 0 0 2 0;
#X connect 1 0 0 0;
#X connect 1 0 16 0;
#X connect 2 0 3 0;
#X connect 3 0 4 0;
#X connect 4 0 12 0;
#X connect 5 0 6 0;
#X connect 6 0 7 0;
#X connect 7 0 8 0;
#X connect 8 0 14 0;
#X connect 9 0 1 0;
#X connect 10 0 11 0;
#X connect 11 0 12 0;
#X connect 11 0 14 0;
#X connect 12 0 13 0;
#X connect 14 0 15 0;
#X connect 16 0 5 0;
#X restore 1077 389 pd test;
#X text 232 394 1 - grainLen ms \; 2 - pitch 0 --> 1 \; 3 - grainPos
0 ---> 1 \; 4 - array name \; 5 - pan;
#X obj 585 566 *~, f 4;
#N canvas 0 23 450 300 stuff 0;
#X obj 35 240 s \$0-grainPos_rec;
#X obj 222 47 * 44.1;
#X obj 222 71 /;
#X obj 283 32 r \$0-nsamples;
#X floatatom 222 95 5 0 0 0 - - -;
#X obj 183 125 f;
#X obj 183 149 +;
#X obj 283 56 t b f;
#X floatatom 183 201 5 0 0 0 - - -;
#X obj 183 177 wrap 1;
#X connect 1 0 2 0;
#X connect 2 0 4 0;
#X connect 3 0 7 0;
#X connect 4 0 5 1;
#X connect 5 0 6 0;
#X connect 6 0 9 0;
#X connect 7 0 2 0;
#X connect 7 1 2 1;
#X connect 8 0 0 0;
#X connect 9 0 6 1;
#X connect 9 0 8 0;
#X restore 201 196 pd stuff;
#X obj 6 127 hsl 128 15 0 1 0 1 \$0-grainPan_snd \$0-grainPan_rec GRAINPAN
-2 8 0 10 -262144 -1 -1 6350 1;
#X obj 136 127 bng 8 250 50 0 \$0-grainPan_reset_snd \$0-grainPan_reset_rec
reset 0 12 0 10 -262144 -1 -1;
#X obj 6 142 hsl 128 10 0 1 0 1 \$0-grainPan_var_snd \$0-grainPan_var_rec
variation -2 5 0 10 -162280 -262144 -1 12700 1;
#X obj 6 117 hsl 128 10 0 1 0 1 \$0-grainPitch_var_snd \$0-grainPitch_var_rec
variation -2 5 0 10 -162280 -262144 -1 8800 1;
#X obj 6 92 hsl 128 10 0 1 0 1 \$0-grainLen_var_snd \$0-grainLen_var_rec
variation -2 5 0 10 -162280 -262144 -1 10700 1;
#X obj 6 67 hsl 128 10 0 1 0 1 \$0-grainPos_var_snd \$0-grainPos_var_rec
variation -2 5 0 10 -162280 -262144 -1 11700 1;
#X obj 6 27 hsl 128 15 0 1 0 0 \$0-triggerTime_snd \$0-triggerTime_rec
TRIGGERTIME -2 8 0 10 -262144 -1 -1 10850 1;
#X obj 136 27 bng 8 250 50 0 \$0-grainPos_reset_snd \$0-grainPos_reset_rec
reset 0 12 0 10 -262144 -1 -1;
#X obj 6 42 hsl 128 10 0 1 0 1 \$0-triggerTime_var_snd \$0-triggerTime_var_rec
variation -2 5 0 10 -162280 -262144 -1 3600 1;
#X obj 579 207 t b;
#X obj 419 20 granVarLogic \$0 triggerTime;
#X obj 419 44 * 95;
#X obj 419 68 + 5;
#X obj 459 359 * 90;
#X obj 459 383 + 10;
#X obj 459 246 granVarLogic \$0 grainLen, f 12;
#X obj 640 246 granVarLogic \$0 grainPos, f 12;
#X obj 805 246 granVarLogic \$0 grainPan, f 12;
#X obj 549 246 granVarLogic \$0 grainPitch, f 12;
#X obj 648 482 rev1~;
#X obj 693 481 rev1~;
#X floatatom 755 451 5 0 0 0 - - -;
#X obj 406 439 clone granVoice 16 \$0;
#X floatatom 459 284 5 0 0 0 - - -;
#X floatatom 549 298 5 0 0 0 - - -;
#X floatatom 640 284 5 0 0 0 - - -;
#X floatatom 733 284 5 0 0 0 - - -;
#X floatatom 805 284 5 0 0 0 - - -;
#X obj 406 407 pack 0 0 0 0 s 0.5 0, f 59;
#X obj 6 152 hsl 128 15 0 1 0 1 \$0-grainRev_snd \$0-grainRev_rec GRAINREV
-2 8 0 10 -262144 -1 -1 12700 1;
#X obj 136 152 bng 8 250 50 0 \$0-grainRev_reset_snd \$0-grainRev_reset_rec
reset 0 12 0 10 -262144 -1 -1;
#X obj 6 167 hsl 128 10 0 1 0 1 \$0-grainRev_var_snd \$0-grainRev_var_rec
variation -2 5 0 10 -162280 -262144 -1 8400 1;
#X obj 800 323 granVarLogic \$0 grainRev, f 12;
#X floatatom 800 361 5 0 0 0 - - -;
#X obj 590 444 r~ \$0-rev_snd_L;
#X obj 703 430 r~ \$0-rev_snd_R;
#X obj 737 608 tgl 15 0 empty empty empty 17 7 0 10 -262144 -1 -1 1
1;
#X obj 737 628 metro 5;
#X obj 737 652 snapshot~;
#X floatatom 737 676 5 0 0 0 - - -;
#X connect 0 0 17 0;
#X connect 1 0 18 0;
#X connect 2 0 17 1;
#X connect 3 0 20 0;
#X connect 6 0 9 0;
#X connect 7 0 8 0;
#X connect 8 0 10 0;
#X connect 10 0 6 1;
#X connect 10 0 28 1;
#X connect 12 0 13 0;
#X connect 13 0 14 0;
#X connect 14 0 12 1;
#X connect 14 0 58 0;
#X connect 15 0 56 0;
#X connect 15 0 58 4;
#X connect 16 0 58 2;
#X connect 17 0 1 0;
#X connect 18 0 12 0;
#X connect 18 1 39 0;
#X connect 28 0 9 1;
#X connect 39 0 40 0;
#X connect 39 0 15 0;
#X connect 39 0 45 0;
#X connect 39 0 46 0;
#X connect 39 0 48 0;
#X connect 39 0 47 0;
#X connect 39 0 62 0;
#X connect 40 0 41 0;
#X connect 41 0 42 0;
#X connect 42 0 2 0;
#X connect 43 0 44 0;
#X connect 44 0 58 1;
#X connect 45 0 43 0;
#X connect 45 0 53 0;
#X connect 46 0 55 0;
#X connect 46 0 58 3;
#X connect 47 0 57 0;
#X connect 47 0 58 5;
#X connect 48 0 16 0;
#X connect 48 0 54 0;
#X connect 49 0 6 0;
#X connect 50 0 28 0;
#X connect 51 0 49 1;
#X connect 51 0 50 1;
#X connect 52 0 6 0;
#X connect 52 1 28 0;
#X connect 58 0 52 0;
#X connect 62 0 58 6;
#X connect 62 0 63 0;
#X connect 64 0 49 0;
#X connect 64 0 68 0;
#X connect 65 0 50 0;
#X connect 66 0 67 0;
#X connect 67 0 68 0;
#X connect 68 0 69 0;
