#N canvas 0 23 1280 755 12;
#X obj 387 32 tgl 15 0 empty empty empty 17 7 0 10 -262144 -1 -1 0
1;
#X obj 387 118 metro;
#X obj 387 146 bng 15 250 50 0 empty empty empty 17 7 0 10 -262144
-1 -1;
#X floatatom 430 94 5 0 0 0 - - -;
#X obj 377 293 line~;
#X msg 500 197 0;
#X obj 460 251 pack 1 0;
#X obj 387 166 t b b b, f 33;
#X obj 610 199 random 90;
#X obj 610 223 + 10;
#X obj 610 247 t f f;
#X obj 722 373 *~ 0.5;
#X obj 722 397 -~ 0.25;
#X obj 722 421 cos~;
#X text 787 387 Grain Amplitude Envelope;
#X obj 919 295 array define \$0-sample;
#X obj 903 191 soundfiler;
#X obj 903 49 bng 15 250 50 0 empty empty empty 17 7 0 10 -262144 -1
-1;
#X obj 903 69 f \$0;
#X obj 903 117 openpanel;
#X msg 903 167 read -resize \$1 \$2-sample;
#X obj 903 93 t b f, f 14;
#X obj 903 141 pack s 0, f 14;
#X obj 364 674 tabread4~ \$0-sample;
#X obj 364 645 +~ 1;
#X obj 903 215 s \$0-nsamples;
#X obj 457 567 r \$0-nsamples;
#X obj 60 81 hsl 128 15 0 1 0 0 \$0-grainPos_snd \$0-grainPos_rec GrainPos
-2 -8 0 10 -262144 -1 -1 0 1;
#X obj 59 129 hsl 128 15 0 1 0 0 \$0-grainLen_snd \$0-grainLen_rec
GrainLen -2 -8 0 10 -262144 -1 -1 0 1;
#X obj 270 389 r \$0-grainPos_snd, f 12;
#X obj 525 39 r \$0-grainLen_snd;
#X obj 457 591 - 1;
#X obj 364 613 *~, f 10;
#X obj 364 563 wrap~;
#X obj 525 63 * 90;
#X obj 525 87 + 10;
#X obj 216 433 sig~;
#X obj 364 534 +~;
#N canvas 0 23 450 300 grainLen_0-->1 0;
#X obj 204 127 /;
#X obj 252 103 r \$0-nsamples;
#X floatatom 204 151 15 0 0 0 - - -;
#N canvas 615 23 450 300 grainLenSamps 0;
#X obj 202 102 samplerate~;
#X obj 202 75 r pd-dsp-started;
#X floatatom 202 129 7 0 0 0 - - -;
#X obj 27 53 r \$0-grainLen_snd;
#X floatatom 27 77 5 0 0 0 - - -;
#X obj 27 98 * 90;
#X obj 27 122 + 10;
#X floatatom 27 146 5 0 0 0 - - -;
#X text 68 145 grainLenMs;
#X obj 27 169 / 1000;
#X floatatom 27 193 5 0 0 0 - - -;
#X obj 176 207 *;
#X floatatom 176 231 5 0 0 0 - - -;
#X obj 202 152 t b f;
#X obj 176 254 outlet;
#X connect 0 0 2 0;
#X connect 1 0 0 0;
#X connect 2 0 13 0;
#X connect 3 0 4 0;
#X connect 4 0 5 0;
#X connect 5 0 6 0;
#X connect 6 0 7 0;
#X connect 7 0 9 0;
#X connect 9 0 10 0;
#X connect 10 0 11 0;
#X connect 11 0 12 0;
#X connect 12 0 14 0;
#X connect 13 0 11 0;
#X connect 13 1 11 1;
#X restore 205 47 pd grainLenSamps;
#X obj 204 174 outlet;
#X connect 0 0 2 0;
#X connect 1 0 0 1;
#X connect 2 0 4 0;
#X connect 3 0 0 0;
#X restore 480 453 pd grainLen_0-->1;
#X obj 382 470 *~;
#X obj 454 504 sig~;
#X obj 364 724 *~, f 73;
#X obj 955 498 vsl 15 128 0 1 0 0 empty empty vol 0 -9 0 10 -262144
-1 -1 0 1;
#X msg 955 634 \$1 5;
#X obj 364 748 dac~;
#X obj 457 615 sig~;
#X obj 955 658 line~;
#X obj 364 698 *~, f 38;
#X obj 223 387 f;
#X obj 454 478 f;
#X obj 377 404 *~;
#X obj 425 369 sig~ 1;
#X obj 425 343 f 1;
#X obj 60 165 hsl 128 15 0 1 0 1 \$0-pitch_snd \$0-pitch_rec pitch
-2 -8 0 10 -262144 -1 -1 6350 1;
#X msg 95 251 0.5;
#N canvas 447 37 450 300 pitch 0;
#X obj 106 22 r \$0-pitch_snd, f 7;
#X obj 106 74 expr ($f1*2)-1;
#X obj 106 98 expr pow(2 \, $f1);
#X floatatom 106 122 5 0 0 0 - - -;
#X obj 106 145 outlet;
#X connect 0 0 1 0;
#X connect 1 0 2 0;
#X connect 2 0 3 0;
#X connect 3 0 4 0;
#X restore 461 341 pd pitch;
#X obj 95 275 s \$0-pitch_rec;
#X obj 1065 402 clone granVoice 16;
#X connect 0 0 1 0;
#X connect 1 0 2 0;
#X connect 2 0 7 0;
#X connect 3 0 1 1;
#X connect 4 0 11 0;
#X connect 4 0 50 0;
#X connect 5 0 4 0;
#X connect 6 0 4 0;
#X connect 7 0 6 0;
#X connect 7 1 5 0;
#X connect 7 2 8 0;
#X connect 7 2 48 0;
#X connect 7 2 49 0;
#X connect 7 2 52 0;
#X connect 8 0 9 0;
#X connect 9 0 10 0;
#X connect 11 0 12 0;
#X connect 12 0 13 0;
#X connect 13 0 47 1;
#X connect 16 0 25 0;
#X connect 17 0 18 0;
#X connect 18 0 21 0;
#X connect 19 0 22 0;
#X connect 20 0 16 0;
#X connect 21 0 19 0;
#X connect 21 1 22 1;
#X connect 22 0 20 0;
#X connect 23 0 47 0;
#X connect 24 0 23 0;
#X connect 26 0 31 0;
#X connect 29 0 48 1;
#X connect 30 0 34 0;
#X connect 31 0 45 0;
#X connect 32 0 24 0;
#X connect 33 0 32 0;
#X connect 34 0 35 0;
#X connect 35 0 3 0;
#X connect 35 0 6 1;
#X connect 36 0 37 0;
#X connect 37 0 33 0;
#X connect 38 0 49 1;
#X connect 39 0 37 1;
#X connect 40 0 39 1;
#X connect 41 0 44 0;
#X connect 41 0 44 1;
#X connect 42 0 43 0;
#X connect 43 0 46 0;
#X connect 45 0 32 1;
#X connect 46 0 41 1;
#X connect 47 0 41 0;
#X connect 48 0 36 0;
#X connect 49 0 40 0;
#X connect 50 0 39 0;
#X connect 51 0 50 1;
#X connect 52 0 51 0;
#X connect 54 0 56 0;
#X connect 55 0 52 1;
