#N canvas 517 52 450 300 12;
#X obj 109 12 inlet;
#X obj 109 36 t b;
#X obj 109 60 random 10000;
#X obj 109 84 / 5000;
#X obj 109 108 - 1;
#X obj 109 132 *, f 13;
#X obj 162 157 r \$1-\$2_snd;
#X obj 109 156 +;
#X obj 109 180 outlet;
#X obj 256 16 r \$1-\$2_var_snd;
#X floatatom 218 126 5 0 0 0 - - -;
#X floatatom 162 181 5 0 0 0 - - -;
#X floatatom 256 64 5 0 0 0 - - -;
#X obj 256 40 pow 2;
#X connect 0 0 1 0;
#X connect 1 0 2 0;
#X connect 2 0 3 0;
#X connect 3 0 4 0;
#X connect 4 0 5 0;
#X connect 5 0 7 0;
#X connect 6 0 7 1;
#X connect 6 0 11 0;
#X connect 7 0 8 0;
#X connect 9 0 10 0;
#X connect 9 0 13 0;
#X connect 13 0 12 0;
#X connect 13 0 5 1;
