#N canvas 0 23 1280 755 12;
#X obj 376 190 line~;
#X obj 113 435 *~ 0.5;
#X obj 113 459 -~ 0.25;
#X obj 113 483 cos~;
#X text 53 202 Grain Amplitude Envelope;
#X obj 376 432 +~ 1;
#X obj 376 403 *~, f 54;
#X obj 376 375 wrap~;
#X obj 376 316 +~, f 38;
#N canvas 0 23 612 589 grainLen_0-->1 0;
#X obj 247 372 /, f 37;
#X floatatom 247 396 15 0 0 0 - - -;
#X obj 247 419 outlet;
#X obj 345 96 samplerate~;
#X obj 345 69 r pd-dsp-started;
#X floatatom 345 123 7 0 0 0 - - -;
#X floatatom 170 71 5 0 0 0 - - -;
#X text 211 139 grainLenMs;
#X obj 170 163 / 1000;
#X floatatom 170 187 5 0 0 0 - - -;
#X obj 247 284 *;
#X floatatom 247 308 5 0 0 0 - - -;
#X obj 345 146 t b f;
#X obj 170 47 inlet;
#X obj 508 268 inlet;
#X connect 0 0 1 0;
#X connect 1 0 2 0;
#X connect 3 0 5 0;
#X connect 4 0 3 0;
#X connect 5 0 12 0;
#X connect 6 0 8 0;
#X connect 8 0 9 0;
#X connect 9 0 10 0;
#X connect 10 0 11 0;
#X connect 11 0 0 0;
#X connect 12 0 10 0;
#X connect 12 1 10 1;
#X connect 13 0 6 0;
#X connect 14 0 0 1;
#X restore 506 223 pd grainLen_0-->1;
#X obj 376 280 *~, f 19;
#X obj 751 331 sig~;
#X obj 113 526 *~, f 38;
#X obj 462 154 sig~ 1;
#X obj 441 691 outlet~;
#X msg 845 410 set \$1;
#X msg 376 125 0 \, 1 \$1;
#X obj 376 24 inlet;
#N canvas 0 23 450 300 arraySize 0;
#X obj 224 72 inlet;
#X obj 212 202 array size \$0-blank;
#X obj 224 100 t b s;
#X msg 259 130 symbol \$1;
#X obj 212 226 outlet;
#X connect 0 0 2 0;
#X connect 1 0 4 0;
#X connect 2 0 1 0;
#X connect 2 1 3 0;
#X connect 3 0 1 1;
#X restore 750 173 pd arraySize;
#X f 9;
#X obj 751 307 - 2;
#X obj 376 498 tabread4~;
#X obj 639 288 sig~;
#X obj 376 225 *~, f 12;
#X text 493 135 pitch;
#X text 676 291 grainPos;
#X obj 376 340 +~ 1;
#X obj 506 250 sig~;
#X obj 1083 158 switch~;
#X obj 1163 86 loadbang;
#X msg 1118 128 0;
#X msg 1083 128 1;
#X obj 285 118 t b f;
#X obj 285 160 del;
#X obj 285 186 s \$0-dspOff;
#X obj 1078 86 r \$0-dspOff;
#X obj 317 143 + 2;
#X obj 322 87 t f f f, f 37;
#X text 157 27 1 - grainLen ms \; 2 - pitch 0 --> 1 \; 3 - grainPos
0 ---> 1 \; 4 - array name \; 5 - pan;
#X obj 1011 84 t f b;
#X obj 936 397 sig~;
#X obj 905 269 * 0.5;
#X obj 936 426 cos~;
#X obj 936 450 +~ 1;
#X obj 936 474 *~ 0.5;
#X obj 915 686 outlet~;
#X obj 441 645 *~;
#X obj 915 643 *~;
#X obj 1022 398 sig~;
#X obj 1022 422 cos~;
#X obj 1022 446 +~ 1;
#X obj 1022 470 *~ 0.5;
#X obj 1022 352 - 0.5;
#X obj 552 667 *~;
#X obj 994 668 *~;
#X obj 1014 174 sig~;
#X obj 376 48 unpack 0 0 0 s 0.5 0, f 91;
#X obj 552 691 s~ \$2-rev_snd_L;
#X obj 994 692 s~ \$2-rev_snd_R;
#X connect 0 0 1 0;
#X connect 0 0 22 0;
#X connect 1 0 2 0;
#X connect 2 0 3 0;
#X connect 3 0 12 0;
#X connect 5 0 20 0;
#X connect 6 0 5 0;
#X connect 7 0 6 0;
#X connect 8 0 25 0;
#X connect 9 0 26 0;
#X connect 10 0 8 0;
#X connect 11 0 6 1;
#X connect 12 0 45 0;
#X connect 12 0 46 0;
#X connect 13 0 22 1;
#X connect 15 0 20 0;
#X connect 16 0 0 0;
#X connect 17 0 55 0;
#X connect 18 0 9 1;
#X connect 18 0 19 0;
#X connect 19 0 11 0;
#X connect 20 0 12 1;
#X connect 21 0 8 1;
#X connect 22 0 10 0;
#X connect 25 0 7 0;
#X connect 26 0 10 1;
#X connect 28 0 29 0;
#X connect 29 0 27 0;
#X connect 30 0 27 0;
#X connect 31 0 32 0;
#X connect 31 1 35 0;
#X connect 32 0 33 0;
#X connect 34 0 29 0;
#X connect 35 0 32 1;
#X connect 36 0 31 0;
#X connect 36 1 16 0;
#X connect 36 2 9 0;
#X connect 38 0 54 0;
#X connect 38 1 30 0;
#X connect 39 0 41 0;
#X connect 40 0 39 0;
#X connect 40 0 51 0;
#X connect 41 0 42 0;
#X connect 42 0 43 0;
#X connect 43 0 45 1;
#X connect 45 0 14 0;
#X connect 45 0 52 0;
#X connect 46 0 44 0;
#X connect 46 0 53 0;
#X connect 47 0 48 0;
#X connect 48 0 49 0;
#X connect 49 0 50 0;
#X connect 50 0 46 1;
#X connect 51 0 47 0;
#X connect 52 0 56 0;
#X connect 53 0 57 0;
#X connect 54 0 52 1;
#X connect 54 0 53 1;
#X connect 55 0 36 0;
#X connect 55 1 13 0;
#X connect 55 2 21 0;
#X connect 55 3 15 0;
#X connect 55 3 18 0;
#X connect 55 4 40 0;
#X connect 55 5 38 0;
