#N canvas 195 152 685 646 12;
#X obj 164 49 bng 15 250 50 0 empty empty empty 17 7 0 10 -262144 -1
-1;
#X obj 164 93 vline~;
#X obj 164 117 *~, f 21;
#X obj 162 581 dac~;
#N canvas 0 23 1032 752 vol 0;
#X obj 37 37 inlet~;
#X obj 103 107 vsl 15 128 0 127 0 0 empty empty empty 0 -9 0 10 -262144
-1 -1 500 1;
#X obj 103 243 / 127;
#X obj 103 267 pack 0 5;
#X obj 103 291 line~;
#X obj 38 360 *~;
#X obj 38 384 outlet~;
#X connect 0 0 5 0;
#X connect 1 0 2 0;
#X connect 2 0 3 0;
#X connect 3 0 4 0;
#X connect 4 0 5 1;
#X connect 5 0 6 0;
#X coords 0 -1 1 1 20 150 2 100 100;
#X restore 214 241 pd vol;
#N canvas 0 23 1032 752 vol 0;
#X obj 37 37 inlet~;
#X obj 103 107 vsl 15 128 0 127 0 0 empty empty empty 0 -9 0 10 -262144
-1 -1 11800 1;
#X obj 103 243 / 127;
#X obj 103 267 pack 0 5;
#X obj 103 291 line~;
#X obj 38 360 *~;
#X obj 38 384 outlet~;
#X connect 0 0 5 0;
#X connect 1 0 2 0;
#X connect 2 0 3 0;
#X connect 3 0 4 0;
#X connect 4 0 5 1;
#X connect 5 0 6 0;
#X coords 0 -1 1 1 20 150 2 100 100;
#X restore 161 378 pd vol;
#X obj 164 141 lop~ 5000;
#X obj 214 217 rev2_sjf~;
#X obj 336 215 rev_sjf~;
#N canvas 0 23 1032 752 vol 0;
#X obj 37 37 inlet~;
#X obj 103 107 vsl 15 128 0 127 0 0 empty empty empty 0 -9 0 10 -262144
-1 -1 0 1;
#X obj 103 243 / 127;
#X obj 103 267 pack 0 5;
#X obj 103 291 line~;
#X obj 38 360 *~;
#X obj 38 384 outlet~;
#X connect 0 0 5 0;
#X connect 1 0 2 0;
#X connect 2 0 3 0;
#X connect 3 0 4 0;
#X connect 4 0 5 1;
#X connect 5 0 6 0;
#X coords 0 -1 1 1 20 150 2 100 100;
#X restore 343 246 pd vol;
#X obj 300 73 osc~ 220;
#X msg 165 70 0 \, 1 20 \, 0 50 20;
#X obj 438 215 rev3_sjf~;
#X connect 0 0 11 0;
#X connect 1 0 2 0;
#X connect 2 0 6 0;
#X connect 4 0 5 0;
#X connect 5 0 3 0;
#X connect 5 0 3 1;
#X connect 6 0 8 0;
#X connect 6 0 5 0;
#X connect 6 0 7 0;
#X connect 7 0 4 0;
#X connect 8 0 9 0;
#X connect 9 0 5 0;
#X connect 10 0 2 1;
#X connect 11 0 1 0;
