#N canvas 0 52 564 747 12;
#X obj 42 25 inlet~;
#X obj 44 662 outlet~;
#X obj 60 393 r \$0-k;
#X obj 60 440 pack 0 5;
#X obj 60 464 line~;
#X obj 333 217 r \$0-k;
#X obj 174 17 inlet;
#X floatatom 192 103 5 0 0 0 k_(gain) - #0-k;
#X obj 387 17 inlet;
#X obj 179 342 r \$0-n;
#X obj 304 12 loadbang;
#X obj 174 54 f \$1;
#X obj 174 78 sel 0;
#X obj 387 78 sel 0;
#X floatatom 399 111 5 0 0 0 n_(delay) - #0-n;
#X obj 387 54 f \$2;
#X obj 331 338 pack 0 5;
#X obj 331 362 line~;
#X obj 255 464 *~;
#X obj 59 167 delwrite~ \$0-ap_sjf 1000;
#X obj 179 370 vd~ \$0-ap_sjf;
#X obj 60 417 * -1;
#X obj 44 488 *~;
#X obj 92 262 *~;
#X obj 141 192 r \$0-k;
#X obj 141 217 pack 0 5;
#X obj 141 241 line~;
#X floatatom 333 265 5 0 0 0 - - -;
#X obj 334 241 expr 1-(pow($f1 \, 2));
#X connect 0 0 19 0;
#X connect 0 0 22 0;
#X connect 2 0 21 0;
#X connect 3 0 4 0;
#X connect 4 0 22 1;
#X connect 5 0 28 0;
#X connect 6 0 11 0;
#X connect 8 0 15 0;
#X connect 9 0 20 0;
#X connect 10 0 11 0;
#X connect 10 0 15 0;
#X connect 11 0 12 0;
#X connect 12 1 7 0;
#X connect 13 1 14 0;
#X connect 15 0 13 0;
#X connect 16 0 17 0;
#X connect 17 0 18 1;
#X connect 18 0 1 0;
#X connect 20 0 23 0;
#X connect 20 0 18 0;
#X connect 21 0 3 0;
#X connect 22 0 1 0;
#X connect 23 0 19 0;
#X connect 24 0 25 0;
#X connect 25 0 26 0;
#X connect 26 0 23 1;
#X connect 27 0 16 0;
#X connect 28 0 27 0;
