#N canvas 154 144 582 460 12;
#X obj 42 25 inlet~;
#X obj 41 369 outlet~;
#X obj 41 336 +~;
#X obj 59 309 vd~ \$0-ap_sjf 1000;
#X obj 91 197 r \$0-k;
#X obj 91 221 pack 0 5;
#X obj 91 245 line~;
#X obj 331 291 r \$0-k;
#X obj 174 17 inlet;
#X floatatom 192 103 5 0 0 0 k_(gain) - #0-k;
#X obj 387 17 inlet;
#X obj 59 281 r \$0-n;
#X obj 304 12 loadbang;
#X obj 174 54 f \$1;
#X obj 174 78 sel 0;
#X obj 41 245 *~ 1;
#X obj 387 78 sel 0;
#X floatatom 399 111 5 0 0 0 n_(delay) - #0-n;
#X obj 387 54 f \$2;
#X obj 331 338 pack 0 5;
#X obj 331 362 line~;
#X obj 331 315 * -1;
#X obj 313 390 *~;
#X obj 99 131 tabwrite~ \$0-ap_sjf 1;
#X connect 0 0 15 0;
#X connect 0 0 23 0;
#X connect 2 0 1 0;
#X connect 2 0 22 0;
#X connect 3 0 2 1;
#X connect 4 0 5 0;
#X connect 5 0 6 0;
#X connect 6 0 15 1;
#X connect 7 0 21 0;
#X connect 8 0 13 0;
#X connect 10 0 18 0;
#X connect 11 0 3 0;
#X connect 12 0 13 0;
#X connect 12 0 18 0;
#X connect 13 0 14 0;
#X connect 14 1 9 0;
#X connect 15 0 2 0;
#X connect 16 1 17 0;
#X connect 18 0 16 0;
#X connect 19 0 20 0;
#X connect 20 0 22 1;
#X connect 21 0 19 0;
#X connect 22 0 23 0;
