#N canvas 310 418 927 460 12;
#X obj 42 25 inlet~;
#X obj 41 369 outlet~;
#X obj 247 56 pack 0 5;
#X obj 439 22 inlet;
#X floatatom 457 108 5 0 0 0 fbk_(gain) - #0-fbk;
#X obj 652 22 inlet;
#X obj 569 17 loadbang;
#X obj 439 59 f \$1;
#X obj 439 83 sel 0;
#X obj 652 83 sel 0;
#X floatatom 664 116 5 0 0 0 n_(delay) - #0-n;
#X obj 652 59 f \$2;
#X obj 144 12 r \$0-n;
#X obj 42 100 +~;
#X text 434 2 fbk;
#X obj 248 32 r \$0-fbk;
#X obj 144 40 vd~ \$0-cf_sjf;
#X obj 99 131 delwrite~ \$0-cf_sjf 1000;
#X obj 152 95 *~ -1;
#X obj 467 195 block~ 2;
#X obj 70 80 lop~ 1000;
#X obj 153 71 *~;
#X obj 247 80 line~ 1;
#X connect 0 0 13 0;
#X connect 2 0 22 0;
#X connect 3 0 7 0;
#X connect 5 0 11 0;
#X connect 6 0 7 0;
#X connect 6 0 11 0;
#X connect 7 0 8 0;
#X connect 8 1 4 0;
#X connect 9 1 10 0;
#X connect 11 0 9 0;
#X connect 12 0 16 0;
#X connect 13 0 1 0;
#X connect 13 0 17 0;
#X connect 15 0 2 0;
#X connect 16 0 21 0;
#X connect 20 0 13 1;
#X connect 21 0 18 0;
#X connect 21 0 20 0;
#X connect 22 0 21 1;
