#N canvas 226 218 927 460 12;
#X obj 42 25 inlet~;
#X obj 41 369 outlet~;
#X obj 150 246 pack 0 5;
#X obj 439 22 inlet;
#X floatatom 457 108 5 0 0 0 ffk_(gain) - #0-ffk;
#X obj 652 22 inlet;
#X obj 569 17 loadbang;
#X obj 439 59 f \$1;
#X obj 439 83 sel 0;
#X obj 652 83 sel 0;
#X floatatom 664 116 5 0 0 0 n_(delay) - #0-n;
#X obj 652 59 f \$2;
#X obj 98 157 r \$0-n;
#X obj 41 344 +~;
#X obj 150 222 r \$0-ffk;
#X text 433 2 ffk;
#X obj 98 185 vd~ \$0-ffcomb_sjf 1000;
#X obj 100 131 delwrite~ \$0-ffcomb_sjf 1;
#X obj 98 317 *~;
#X obj 150 270 line~;
#X connect 0 0 13 0;
#X connect 0 0 17 0;
#X connect 2 0 19 0;
#X connect 3 0 7 0;
#X connect 5 0 11 0;
#X connect 6 0 7 0;
#X connect 6 0 11 0;
#X connect 7 0 8 0;
#X connect 8 1 4 0;
#X connect 9 1 10 0;
#X connect 11 0 9 0;
#X connect 12 0 16 0;
#X connect 13 0 1 0;
#X connect 14 0 2 0;
#X connect 16 0 18 0;
#X connect 18 0 13 1;
#X connect 19 0 18 1;
