#N canvas 29 69 693 758 12;
#X obj 138 27 inlet~;
#X obj 164 484 allpass_sjf~ 0.7 5;
#X obj 164 527 allpass_sjf~ 0.7 5;
#X obj 411 409 loadbang;
#X obj 304 457 / 44.1;
#X obj 348 514 / 44.1;
#X obj 150 389 +~;
#X obj 472 95 loadbang;
#X obj 365 143 / 44.1;
#X obj 409 200 / 44.1;
#X obj 453 254 / 44.1;
#X obj 527 250 / 44.1;
#X obj 230 703 outlet~;
#X floatatom 365 167 5 0 0 0 - - -;
#X floatatom 409 224 5 0 0 0 - - -;
#X floatatom 453 278 5 0 0 0 - - -;
#X floatatom 527 274 5 0 0 0 - - -;
#X floatatom 348 538 5 0 0 0 - - -;
#X floatatom 304 481 5 0 0 0 - - -;
#X obj 139 55 +~;
#X obj 115 314 fbcomb_sjf~ 0.805, f 11;
#X msg 365 119 901;
#X obj 204 314 fbcomb_sjf~ 0.827, f 11;
#X msg 409 176 778;
#X obj 291 314 fbcomb_sjf~ 0.783, f 11;
#X msg 453 230 1011;
#X obj 379 314 fbcomb_sjf~ 0.764, f 11;
#X msg 527 226 1123;
#X msg 304 433 125;
#X msg 348 490 42;
#X obj 177 628 allpass_sjf~ 0.7 5;
#X obj 361 615 / 44.1;
#X floatatom 361 639 5 0 0 0 - - -;
#X msg 361 591 12;
#X connect 0 0 19 0;
#X connect 1 0 2 0;
#X connect 2 0 30 0;
#X connect 3 0 28 0;
#X connect 3 0 29 0;
#X connect 3 0 33 0;
#X connect 4 0 1 2;
#X connect 4 0 18 0;
#X connect 5 0 2 2;
#X connect 5 0 17 0;
#X connect 6 0 1 0;
#X connect 7 0 21 0;
#X connect 7 0 23 0;
#X connect 7 0 25 0;
#X connect 7 0 27 0;
#X connect 8 0 13 0;
#X connect 8 0 20 2;
#X connect 9 0 14 0;
#X connect 9 0 22 2;
#X connect 10 0 15 0;
#X connect 10 0 24 2;
#X connect 11 0 16 0;
#X connect 11 0 26 2;
#X connect 19 0 20 0;
#X connect 19 0 22 0;
#X connect 19 0 24 0;
#X connect 19 0 26 0;
#X connect 20 0 6 0;
#X connect 21 0 8 0;
#X connect 22 0 6 0;
#X connect 23 0 9 0;
#X connect 24 0 6 0;
#X connect 25 0 10 0;
#X connect 26 0 6 0;
#X connect 27 0 11 0;
#X connect 28 0 4 0;
#X connect 29 0 5 0;
#X connect 30 0 12 0;
#X connect 31 0 30 2;
#X connect 31 0 32 0;
#X connect 33 0 31 0;
