#N canvas 82 23 693 758 12;
#X obj 138 27 inlet~;
#X obj 118 102 allpass_sjf~ 0.7 5;
#X obj 118 145 allpass_sjf~ 0.7 5;
#X obj 118 188 allpass_sjf~ 0.7 5;
#X obj 365 27 loadbang;
#X obj 258 75 / 44.1;
#X obj 302 132 / 44.1;
#X obj 346 186 / 44.1;
#X obj 290 587 +~;
#X obj 506 245 loadbang;
#X obj 399 293 / 44.1;
#X obj 443 350 / 44.1;
#X obj 487 404 / 44.1;
#X msg 399 269 4799;
#X msg 443 326 4999;
#X msg 487 380 5399;
#X obj 561 400 / 44.1;
#X msg 561 376 5801;
#X obj 149 464 ffcomb_sjf~ 0.742, f 11;
#X obj 238 464 ffcomb_sjf~ 0.733, f 11;
#X obj 325 464 ffcomb_sjf~ 0.715, f 11;
#X obj 413 464 ffcomb_sjf~ 0.697, f 11;
#X obj 290 611 outlet~;
#X floatatom 399 317 5 0 0 0 - - -;
#X floatatom 443 374 5 0 0 0 - - -;
#X floatatom 487 428 5 0 0 0 - - -;
#X floatatom 561 424 5 0 0 0 - - -;
#X floatatom 346 210 5 0 0 0 - - -;
#X floatatom 302 156 5 0 0 0 - - -;
#X floatatom 258 99 5 0 0 0 - - -;
#X msg 258 51 125;
#X msg 302 108 42;
#X msg 346 162 12;
#X connect 0 0 1 0;
#X connect 1 0 2 0;
#X connect 2 0 3 0;
#X connect 3 0 18 0;
#X connect 3 0 19 0;
#X connect 3 0 20 0;
#X connect 3 0 21 0;
#X connect 4 0 30 0;
#X connect 4 0 31 0;
#X connect 4 0 32 0;
#X connect 5 0 1 2;
#X connect 5 0 29 0;
#X connect 6 0 2 2;
#X connect 6 0 28 0;
#X connect 7 0 3 2;
#X connect 7 0 27 0;
#X connect 8 0 22 0;
#X connect 9 0 13 0;
#X connect 9 0 14 0;
#X connect 9 0 15 0;
#X connect 9 0 17 0;
#X connect 10 0 18 2;
#X connect 10 0 23 0;
#X connect 11 0 19 2;
#X connect 11 0 24 0;
#X connect 12 0 20 2;
#X connect 12 0 25 0;
#X connect 13 0 10 0;
#X connect 14 0 11 0;
#X connect 15 0 12 0;
#X connect 16 0 21 2;
#X connect 16 0 26 0;
#X connect 17 0 16 0;
#X connect 18 0 8 0;
#X connect 19 0 8 0;
#X connect 20 0 8 0;
#X connect 21 0 8 0;
#X connect 30 0 5 0;
#X connect 31 0 6 0;
#X connect 32 0 7 0;
